<svg xmlns="http://www.w3.org/2000/svg" viewBox="0 0 486 846"><defs><style>.cls-1{fill:#be1e2d;}.cls-2{fill:#be202d;}.cls-3{fill:#be212d;}.cls-4{fill:#be222e;}.cls-5{fill:#bf232e;}.cls-6{fill:#bf252e;}.cls-7{fill:#bf262e;}.cls-8{fill:#bf272e;}.cls-9{fill:#bf282e;}.cls-10{fill:#bf2a2e;}.cls-11{fill:#bf2b2f;}.cls-12{fill:#bf2c2f;}.cls-13{fill:#bf2d2f;}.cls-14{fill:#bf2e2f;}.cls-15{fill:#bf2f2f;}.cls-16{fill:#bf3030;}.cls-17{fill:#bf3130;}.cls-18{fill:#bf3230;}.cls-19{fill:#bf3330;}.cls-20{fill:#bf3430;}.cls-21{fill:#bf3530;}.cls-22{fill:#bf3631;}.cls-23{fill:#bf3731;}.cls-24{fill:#bf3831;}.cls-25{fill:#bf3931;}.cls-26{fill:#bf3a31;}.cls-27{fill:#bf3b31;}.cls-28{fill:#bf3c32;}.cls-29{fill:#bf3d32;}.cls-30{fill:#bf3e32;}.cls-31{fill:#bf3f32;}.cls-32{fill:#bf4033;}.cls-33{fill:#bf4133;}.cls-34{fill:#c04233;}.cls-35{fill:#c04333;}.cls-36{fill:#c04433;}.cls-37{fill:#c04534;}.cls-38{fill:#c04634;}.cls-39{fill:#c04734;}.cls-40{fill:#c04834;}.cls-41{fill:#c04935;}.cls-42{fill:#c04a35;}.cls-43{fill:#c04b35;}.cls-44{fill:#c04c35;}.cls-45{fill:#c04d36;}.cls-46{fill:#c04e36;}.cls-47{fill:#c04f36;}.cls-48{fill:#c05037;}.cls-49{fill:#c05137;}.cls-50{fill:#c05237;}.cls-51{fill:#c05337;}.cls-52{fill:#c05338;}.cls-53{fill:#c15438;}.cls-54{fill:#c15538;}.cls-55{fill:#c15639;}.cls-56{fill:#c15739;}.cls-57{fill:#c15839;}.cls-58{fill:#c15939;}.cls-59{fill:#c15a3a;}.cls-60{fill:#c15b3a;}</style></defs><g id="Green_Leaf" data-name="Green Leaf"><path class="cls-1" d="M244.21,422.66a1.53,1.53,0,0,1-1.92,0,28.54,28.54,0,0,1-7.67-18.9l0-1.9a41.2,41.2,0,0,1,16.8,0v1.9A28.2,28.2,0,0,1,244.21,422.66Z"/><path class="cls-1" d="M244.7,402.93l6.7-1.17s-.06-3.57-.52-7.27-1.3-7.55-2.87-8.1a19.63,19.63,0,0,0-10,0c-1.57.55-2.42,4.39-2.87,8.1s-.52,7.27-.52,7.27l6.7,1.17,0,.6,1.68-.3,1.68.3Z"/><path class="cls-2" d="M237.94,386.62a11.22,11.22,0,0,1,2.45-.54A18.63,18.63,0,0,1,243,386a15,15,0,0,1,5,.65,2.48,2.48,0,0,1,1.23,1.34,22.94,22.94,0,0,1,1.59,6.77,72.26,72.26,0,0,1,.48,7.24s-6.63,1.21-6.65,1.23l0,.59s-1.67-.27-1.67-.27-1.67.3-1.68.29v-.16l0-.43s-6.64-1.21-6.67-1.25a72.26,72.26,0,0,1,.48-7.24,22.86,22.86,0,0,1,1.59-6.77A2.48,2.48,0,0,1,237.94,386.62Z"/><path class="cls-3" d="M237.88,386.85a11.75,11.75,0,0,1,2.5-.54,19.13,19.13,0,0,1,2.68-.11,15.1,15.1,0,0,1,5.05.65,2.42,2.42,0,0,1,1.22,1.35,24.12,24.12,0,0,1,1.55,6.76,68.23,68.23,0,0,1,.44,7.22c0,.06-6.57,1.26-6.59,1.29s0,.59,0,.59-1.65-.26-1.65-.25-1.67.3-1.69.29v-.16l0-.43s-6.59-1.24-6.63-1.33a65.26,65.26,0,0,1,.44-7.22,23.44,23.44,0,0,1,1.55-6.76A2.4,2.4,0,0,1,237.88,386.85Z"/><path class="cls-4" d="M237.83,387.08a11.51,11.51,0,0,1,2.53-.54,19.91,19.91,0,0,1,2.73-.12,15.55,15.55,0,0,1,5.08.66,2.41,2.41,0,0,1,1.19,1.36,24.12,24.12,0,0,1,1.51,6.76,63,63,0,0,1,.41,7.19c-.05.1-6.5,1.3-6.54,1.35s0,.58,0,.59-1.63-.25-1.65-.23-1.66.3-1.68.28v-.15s0-.43,0-.43-6.53-1.28-6.59-1.41a60.42,60.42,0,0,1,.39-7.19,24.39,24.39,0,0,1,1.51-6.76A2.41,2.41,0,0,1,237.83,387.08Z"/><path class="cls-5" d="M237.78,387.31a11.82,11.82,0,0,1,2.57-.55,20.41,20.41,0,0,1,2.77-.11,15.67,15.67,0,0,1,5.1.66,2.32,2.32,0,0,1,1.17,1.37,24.64,24.64,0,0,1,1.48,6.76,59.74,59.74,0,0,1,.37,7.16c-.06.13-6.43,1.34-6.49,1.41s0,.58,0,.59-1.62-.23-1.64-.21-1.65.3-1.68.28l0-.16,0-.43c-.07-.07-6.47-1.3-6.56-1.48a58.57,58.57,0,0,1,.36-7.16,24.67,24.67,0,0,1,1.47-6.76A2.32,2.32,0,0,1,237.78,387.31Z"/><path class="cls-6" d="M237.73,387.54a12.29,12.29,0,0,1,2.61-.55,19.4,19.4,0,0,1,2.81-.11,15.82,15.82,0,0,1,5.12.66c.44.15.81.6,1.15,1.38a24.92,24.92,0,0,1,1.44,6.76,57.85,57.85,0,0,1,.34,7.13c-.08.16-6.37,1.38-6.44,1.47s0,.57,0,.58-1.61-.21-1.63-.19a16.09,16.09,0,0,1-1.69.28v-.15s0-.42,0-.43-6.41-1.34-6.52-1.56a53.68,53.68,0,0,1,.32-7.13,25.11,25.11,0,0,1,1.43-6.77C236.92,388.14,237.29,387.69,237.73,387.54Z"/><path class="cls-7" d="M237.68,387.77a12,12,0,0,1,2.65-.55,21.45,21.45,0,0,1,2.85-.12,16,16,0,0,1,5.14.67c.43.15.8.59,1.13,1.38a25.43,25.43,0,0,1,1.41,6.77,52.34,52.34,0,0,1,.29,7.11c-.09.19-6.29,1.41-6.38,1.52s0,.57-.05.58-1.59-.19-1.61-.17a14.18,14.18,0,0,1-1.69.28.77.77,0,0,0,0-.15s0-.42,0-.43-6.35-1.37-6.49-1.63a51.46,51.46,0,0,1,.28-7.11,25.77,25.77,0,0,1,1.4-6.77C236.88,388.36,237.25,387.92,237.68,387.77Z"/><path class="cls-8" d="M237.63,388a12.35,12.35,0,0,1,2.69-.56,21.93,21.93,0,0,1,2.89-.11,16.08,16.08,0,0,1,5.16.67c.43.15.78.58,1.12,1.39a26.48,26.48,0,0,1,1.36,6.77,49.32,49.32,0,0,1,.26,7.08c-.1.22-6.22,1.45-6.32,1.58s0,.56-.06.58-1.57-.18-1.6-.15a13.85,13.85,0,0,1-1.69.28.88.88,0,0,1,0-.16s0-.41,0-.42-6.3-1.41-6.45-1.71a47.78,47.78,0,0,1,.24-7.08,26.06,26.06,0,0,1,1.36-6.77C236.85,388.58,237.2,388.15,237.63,388Z"/><path class="cls-9" d="M237.58,388.22a13.44,13.44,0,0,1,2.73-.55,20.84,20.84,0,0,1,2.93-.11,16.46,16.46,0,0,1,5.18.66c.42.15.77.58,1.1,1.41a26.76,26.76,0,0,1,1.33,6.76,47.56,47.56,0,0,1,.22,7.06c-.12.25-6.16,1.49-6.27,1.64s-.05.56-.06.58-1.56-.17-1.6-.13a10.63,10.63,0,0,1-1.69.27.77.77,0,0,0,0-.15s0-.41-.05-.43-6.24-1.43-6.42-1.78a46.84,46.84,0,0,1,.21-7.06,26.36,26.36,0,0,1,1.32-6.76C236.81,388.8,237.16,388.37,237.58,388.22Z"/><path class="cls-10" d="M237.53,388.45a13.19,13.19,0,0,1,2.77-.55,23.05,23.05,0,0,1,3-.12,16.94,16.94,0,0,1,5.2.67c.42.15.75.57,1.08,1.42a27,27,0,0,1,1.29,6.76,45.08,45.08,0,0,1,.19,7c-.14.29-6.09,1.54-6.22,1.7s-.05.56-.07.57-1.54-.14-1.58-.1a10.81,10.81,0,0,1-1.69.27.89.89,0,0,1,0-.15s0-.41-.06-.43-6.18-1.47-6.38-1.86a44.52,44.52,0,0,1,.16-7,27.65,27.65,0,0,1,1.28-6.77C236.78,389,237.12,388.6,237.53,388.45Z"/><path class="cls-11" d="M237.48,388.68a13,13,0,0,1,2.8-.56,22.07,22.07,0,0,1,3-.11,17.06,17.06,0,0,1,5.22.67c.41.15.74.56,1.06,1.42a28,28,0,0,1,1.26,6.77,43.55,43.55,0,0,1,.15,7c-.15.32-6,1.58-6.17,1.76s0,.55-.07.57-1.53-.13-1.57-.08a8.84,8.84,0,0,1-1.7.26.89.89,0,0,0,0-.15s0-.4-.06-.42c-.17-.19-6.12-1.51-6.34-1.94a40.64,40.64,0,0,1,.12-7,28,28,0,0,1,1.24-6.77C236.74,389.24,237.07,388.83,237.48,388.68Z"/><path class="cls-12" d="M237.43,388.91a13.45,13.45,0,0,1,2.84-.56,22.59,22.59,0,0,1,3.06-.11,17.46,17.46,0,0,1,5.24.67c.4.14.72.55,1,1.43a28.29,28.29,0,0,1,1.23,6.77,42.17,42.17,0,0,1,.11,7c-.17.35-6,1.62-6.12,1.82,0,0-.05.55-.07.57s-1.52-.12-1.56-.07a8.14,8.14,0,0,1-1.7.27s0-.15,0-.15,0-.4-.06-.42c-.19-.21-6.06-1.54-6.31-2a39.93,39.93,0,0,1,.09-7,28.38,28.38,0,0,1,1.2-6.77C236.71,389.46,237,389.05,237.43,388.91Z"/><path class="cls-13" d="M237.38,389.14a13.91,13.91,0,0,1,2.88-.57,24.91,24.91,0,0,1,3.1-.11,17.94,17.94,0,0,1,5.26.68c.4.14.71.54,1,1.44a29.06,29.06,0,0,1,1.18,6.77,40.25,40.25,0,0,1,.08,6.94c-.19.39-5.89,1.66-6.07,1.88,0,0-.05.54-.07.56s-1.5-.09-1.55,0a6.61,6.61,0,0,1-1.7.26s0-.14,0-.15-.05-.39-.07-.41c-.2-.23-6-1.58-6.27-2.1a38.31,38.31,0,0,1,0-6.94,28.58,28.58,0,0,1,1.17-6.77C236.67,389.68,237,389.28,237.38,389.14Z"/><path class="cls-14" d="M237.33,389.37a13.7,13.7,0,0,1,2.92-.57,23.66,23.66,0,0,1,3.14-.11,17.78,17.78,0,0,1,5.28.68c.39.14.7.53,1,1.45a29.36,29.36,0,0,1,1.15,6.76,37.86,37.86,0,0,1,0,6.93c-.19.41-5.81,1.69-6,1.93,0,0-.06.54-.09.56s-1.48-.08-1.54,0a6.48,6.48,0,0,1-1.7.26s0-.14,0-.15-.05-.39-.07-.42c-.22-.24-6-1.6-6.24-2.16a38,38,0,0,1,0-6.93,29.43,29.43,0,0,1,1.13-6.76C236.64,389.9,236.94,389.51,237.33,389.37Z"/><path class="cls-15" d="M237.28,389.6a14.14,14.14,0,0,1,3-.57,24.11,24.11,0,0,1,3.17-.11,17.93,17.93,0,0,1,5.31.68c.38.13.68.52,1,1.46a29.6,29.6,0,0,1,1.11,6.76,36.4,36.4,0,0,1,0,6.9c-.21.44-5.75,1.73-5.95,2,0,0-.07.53-.09.56s-1.47-.06-1.53,0a6.15,6.15,0,0,1-1.7.26s0-.14,0-.15-.06-.39-.08-.42c-.24-.26-5.89-1.64-6.2-2.24a35.22,35.22,0,0,1,0-6.9,29.31,29.31,0,0,1,1.09-6.77C236.6,390.12,236.9,389.73,237.28,389.6Z"/><path class="cls-16" d="M237.23,389.83a14.46,14.46,0,0,1,3-.58,26.49,26.49,0,0,1,3.21-.11,18.42,18.42,0,0,1,5.33.69c.38.13.67.51,1,1.46a30.66,30.66,0,0,1,1.08,6.77,35.5,35.5,0,0,1,0,6.87c-.23.48-5.68,1.77-5.9,2.05,0,0-.07.53-.09.56s-1.46-.05-1.52,0a5.83,5.83,0,0,1-1.7.25s0-.14,0-.15-.06-.38-.08-.41c-.25-.28-5.83-1.67-6.16-2.32a34,34,0,0,1-.08-6.87,30.77,30.77,0,0,1,1-6.77C236.56,390.34,236.85,390,237.23,389.83Z"/><path class="cls-17" d="M237.18,390.06a14.4,14.4,0,0,1,3-.58,25.16,25.16,0,0,1,3.25-.11,18.6,18.6,0,0,1,5.35.69c.37.13.65.5,1,1.47a30.5,30.5,0,0,1,1,6.77,34.22,34.22,0,0,1-.07,6.84c-.24.51-5.62,1.81-5.85,2.11,0,0-.07.52-.09.55s-1.44,0-1.51.05a5.49,5.49,0,0,1-1.71.25s0-.14,0-.15-.06-.38-.09-.41c-.27-.3-5.77-1.71-6.13-2.4a33.66,33.66,0,0,1-.11-6.84,30.52,30.52,0,0,1,1-6.77C236.53,390.56,236.81,390.19,237.18,390.06Z"/><path class="cls-18" d="M237.13,390.29a14.89,14.89,0,0,1,3.07-.58,24.21,24.21,0,0,1,3.3-.11,18.73,18.73,0,0,1,5.37.69c.36.13.64.49.94,1.48a31.34,31.34,0,0,1,1,6.77,33.51,33.51,0,0,1-.11,6.81c-.26.54-5.55,1.86-5.8,2.17,0,0-.07.52-.1.55s-1.42,0-1.49.06a5,5,0,0,1-1.71.25s0-.13,0-.14-.06-.38-.09-.42c-.29-.31-5.72-1.73-6.09-2.47a41.58,41.58,0,0,1,.82-13.58C236.49,390.78,236.77,390.41,237.13,390.29Z"/><path class="cls-19" d="M237.08,390.52a14.68,14.68,0,0,1,3.11-.59,28.6,28.6,0,0,1,3.34-.11,19.25,19.25,0,0,1,5.39.7c.36.12.63.48.92,1.49a31.68,31.68,0,0,1,1,6.77,32.4,32.4,0,0,1-.14,6.78c-.28.58-5.48,1.9-5.74,2.23,0,0-.08.51-.11.55s-1.41,0-1.48.08a5,5,0,0,1-1.71.25s0-.14,0-.15-.07-.38-.1-.41c-.3-.34-5.66-1.77-6.06-2.55a31.63,31.63,0,0,1-.19-6.78,32,32,0,0,1,.94-6.78C236.46,391,236.72,390.64,237.08,390.52Z"/><path class="cls-20" d="M237,390.75a14.38,14.38,0,0,1,3.15-.59,25.35,25.35,0,0,1,3.38-.11,19.34,19.34,0,0,1,5.41.7c.35.12.61.47.9,1.49a41.72,41.72,0,0,1,.75,13.53c-.29.61-5.42,1.94-5.69,2.3,0,0-.08.5-.11.54s-1.4,0-1.48.1a4.52,4.52,0,0,1-1.71.24s0-.13,0-.14-.07-.38-.1-.41c-.32-.36-5.6-1.8-6-2.63a30.47,30.47,0,0,1-.23-6.76,32.19,32.19,0,0,1,.9-6.77C236.42,391.22,236.68,390.87,237,390.75Z"/><path class="cls-21" d="M237,391a15.26,15.26,0,0,1,3.2-.59,25.84,25.84,0,0,1,3.42-.11,19.16,19.16,0,0,1,5.43.7c.34.12.6.46.88,1.5a33,33,0,0,1,.9,6.77,31.48,31.48,0,0,1-.22,6.74c-.31.63-5.35,2-5.64,2.35,0,0-.08.49-.11.53s-1.38,0-1.47.13a4.52,4.52,0,0,1-1.71.24s0-.13,0-.15-.08-.37-.11-.4c-.34-.38-5.54-1.84-6-2.7a29.75,29.75,0,0,1-.26-6.74,31.86,31.86,0,0,1,.86-6.77C236.38,391.44,236.64,391.1,237,391Z"/><path class="cls-22" d="M236.92,391.21a15.58,15.58,0,0,1,3.24-.6,28.25,28.25,0,0,1,3.46-.11,19.8,19.8,0,0,1,5.46.71c.33.11.57.45.85,1.51a33.39,33.39,0,0,1,.86,6.77,29.62,29.62,0,0,1-.26,6.71c-.32.67-5.27,2-5.58,2.41,0,0-.08.49-.12.53s-1.36.05-1.45.15a4.17,4.17,0,0,1-1.72.23s0-.13,0-.14-.08-.37-.11-.41c-.35-.39-5.49-1.86-5.95-2.77a29,29,0,0,1-.31-6.71,33.54,33.54,0,0,1,.82-6.77C236.35,391.66,236.59,391.32,236.92,391.21Z"/><path class="cls-23" d="M236.87,391.44a15.56,15.56,0,0,1,3.28-.6,27,27,0,0,1,3.5-.11,19.94,19.94,0,0,1,5.48.71c.32.11.56.44.84,1.52a34.37,34.37,0,0,1,.82,6.77,29.19,29.19,0,0,1-.3,6.68c-.33.7-5.21,2-5.53,2.47,0,0-.08.48-.12.53s-1.35.07-1.44.17a4.2,4.2,0,0,1-1.72.23s0-.13-.05-.14-.07-.37-.11-.41c-.37-.41-5.43-1.9-5.91-2.85-.27-.52-.43-3.52-.35-6.68A33.79,33.79,0,0,1,236,393C236.31,391.88,236.55,391.55,236.87,391.44Z"/><path class="cls-24" d="M236.82,391.66a17,17,0,0,1,3.32-.59,27.51,27.51,0,0,1,3.54-.11,20.44,20.44,0,0,1,5.5.7c.31.12.55.44.82,1.54a34,34,0,0,1,.78,6.77,28.48,28.48,0,0,1-.33,6.65c-.35.73-5.14,2.09-5.47,2.53,0,0-.09.48-.13.52s-1.34.09-1.43.19a3.91,3.91,0,0,1-1.72.24.88.88,0,0,1,0-.15s-.08-.36-.12-.4c-.39-.43-5.37-1.93-5.88-2.93-.28-.55-.45-3.52-.38-6.65a34.31,34.31,0,0,1,.74-6.78C236.27,392.1,236.51,391.78,236.82,391.66Z"/><path class="cls-25" d="M236.77,391.89a17.41,17.41,0,0,1,3.35-.6,26.58,26.58,0,0,1,3.59-.1,20.63,20.63,0,0,1,5.52.7c.31.11.53.43.8,1.54a35.22,35.22,0,0,1,.75,6.78,28.09,28.09,0,0,1-.37,6.62c-.36.77-5.07,2.14-5.42,2.59,0,.05-.1.48-.13.52s-1.33.1-1.43.21a3.71,3.71,0,0,1-1.72.23s0-.13-.05-.14-.08-.36-.12-.4c-.4-.45-5.31-2-5.84-3-.29-.57-.48-3.51-.43-6.62a34.51,34.51,0,0,1,.71-6.78C236.24,392.32,236.46,392,236.77,391.89Z"/><path class="cls-26" d="M236.72,392.12a17.21,17.21,0,0,1,3.39-.6,28.88,28.88,0,0,1,3.63-.11,21.22,21.22,0,0,1,5.54.71c.3.11.52.42.78,1.55a34.74,34.74,0,0,1,.71,6.77,27.47,27.47,0,0,1-.4,6.6c-.38.8-5,2.18-5.37,2.65,0,.05-.1.47-.14.52s-1.3.12-1.41.23a3.6,3.6,0,0,1-1.72.23s0-.13,0-.14-.09-.36-.13-.4c-.42-.47-5.25-2-5.81-3.09-.3-.59-.5-3.51-.46-6.6a34.81,34.81,0,0,1,.67-6.77C236.2,392.54,236.42,392.23,236.72,392.12Z"/><path class="cls-27" d="M236.67,392.35a17.72,17.72,0,0,1,3.43-.61,29.5,29.5,0,0,1,3.67-.1,21.8,21.8,0,0,1,5.56.71c.29.11.51.41.76,1.56a35,35,0,0,1,.68,6.77,27.3,27.3,0,0,1-.44,6.58c-.4.82-4.94,2.21-5.32,2.7,0,.05-.1.47-.14.52s-1.29.13-1.4.25a3.38,3.38,0,0,1-1.72.22s0-.12-.06-.14-.09-.35-.13-.4c-.44-.48-5.2-2-5.77-3.16-.32-.61-.52-3.51-.5-6.57a34.34,34.34,0,0,1,.63-6.77C236.16,392.76,236.38,392.46,236.67,392.35Z"/><path class="cls-28" d="M236.62,392.58a17.53,17.53,0,0,1,3.47-.61,28.25,28.25,0,0,1,3.71-.1,21.46,21.46,0,0,1,5.58.71c.29.1.49.4.74,1.57a35.2,35.2,0,0,1,.65,6.77,27.11,27.11,0,0,1-.48,6.55c-.41.86-4.87,2.25-5.27,2.76,0,0-.1.46-.14.51s-1.28.16-1.39.28a3.3,3.3,0,0,1-1.73.22s0-.12,0-.14-.1-.35-.14-.4c-.45-.5-5.14-2.06-5.73-3.23-.33-.65-.55-3.51-.55-6.55a35.59,35.59,0,0,1,.59-6.78C236.13,393,236.33,392.68,236.62,392.58Z"/><path class="cls-29" d="M236.57,392.81a17.52,17.52,0,0,1,3.51-.61,30.65,30.65,0,0,1,3.75-.11,22.13,22.13,0,0,1,5.6.72c.28.1.48.39.73,1.57a36.54,36.54,0,0,1,.6,6.78c0,3-.2,5.85-.52,6.52-.42.89-4.8,2.29-5.21,2.82,0,.05-.1.46-.14.51s-1.27.17-1.38.3a3.21,3.21,0,0,1-1.73.21s0-.12-.06-.13-.09-.35-.14-.4c-.47-.53-5.08-2.1-5.7-3.31-.34-.67-.57-3.51-.58-6.52a35.88,35.88,0,0,1,.55-6.78C236.09,393.2,236.29,392.91,236.57,392.81Z"/><path class="cls-30" d="M236.52,393a18.5,18.5,0,0,1,3.55-.62,29.34,29.34,0,0,1,3.79-.1,22.28,22.28,0,0,1,5.62.72c.27.1.47.38.71,1.58a36.73,36.73,0,0,1,.57,6.78c0,3-.23,5.8-.56,6.49-.44.92-4.73,2.33-5.15,2.88-.05.06-.11.45-.16.51s-1.24.18-1.37.31a3.08,3.08,0,0,1-1.72.22s-.05-.12-.06-.14-.1-.34-.15-.39c-.49-.55-5-2.13-5.66-3.39-.36-.69-.6-3.51-.62-6.49a35.26,35.26,0,0,1,.51-6.78C236.05,393.41,236.25,393.14,236.52,393Z"/><path class="cls-30" d="M236.47,393.27a18.48,18.48,0,0,1,3.59-.62,29.92,29.92,0,0,1,3.83-.1,22.43,22.43,0,0,1,5.64.72c.27.09.46.37.69,1.59a36.15,36.15,0,0,1,.53,6.78c0,3-.25,5.75-.59,6.46-.45,1-4.67,2.37-5.1,2.94-.05.06-.11.45-.16.51s-1.23.2-1.36.33a3,3,0,0,1-1.73.22s0-.12-.06-.14-.1-.34-.15-.4c-.5-.56-5-2.16-5.63-3.46-.36-.71-.61-3.5-.66-6.46a36.31,36.31,0,0,1,.48-6.78C236,393.63,236.2,393.36,236.47,393.27Z"/><path class="cls-31" d="M236.42,393.5a18.32,18.32,0,0,1,3.62-.62,30.71,30.71,0,0,1,3.88-.11,23.08,23.08,0,0,1,5.66.73c.26.09.44.35.67,1.6a37.14,37.14,0,0,1,.5,6.77,25.14,25.14,0,0,1-.63,6.44c-.47,1-4.6,2.42-5.05,3,0,.06-.11.44-.16.5s-1.22.22-1.35.36a2.94,2.94,0,0,1-1.73.21s-.05-.12-.06-.14-.11-.33-.16-.39c-.52-.58-4.91-2.19-5.59-3.54-.38-.74-.64-3.5-.7-6.44a35.62,35.62,0,0,1,.44-6.77C236,393.85,236.16,393.59,236.42,393.5Z"/><path class="cls-32" d="M236.37,393.73a19.69,19.69,0,0,1,3.66-.63A31.35,31.35,0,0,1,244,393a23.3,23.3,0,0,1,5.68.73c.25.09.43.34.65,1.61a36.52,36.52,0,0,1,.46,6.77,24.66,24.66,0,0,1-.66,6.41c-.49,1-4.53,2.46-5,3.06-.05.06-.11.44-.16.5-.17.21-1.21.23-1.34.38a2.89,2.89,0,0,1-1.74.21s0-.12-.06-.14-.11-.33-.16-.39c-.54-.6-4.85-2.23-5.56-3.62-.38-.76-.66-3.5-.73-6.41a36,36,0,0,1,.4-6.78C235.94,394.07,236.12,393.82,236.37,393.73Z"/><path class="cls-33" d="M236.32,394a18.66,18.66,0,0,1,3.7-.63,30.07,30.07,0,0,1,4-.1,23.45,23.45,0,0,1,5.7.73c.25.08.42.33.64,1.61a37.82,37.82,0,0,1,.42,6.78,24.3,24.3,0,0,1-.7,6.39c-.5,1.05-4.47,2.49-4.95,3.11-.05.07-.11.43-.17.5s-1.18.25-1.32.4a2.81,2.81,0,0,1-1.74.2s-.05-.11-.07-.13a3.2,3.2,0,0,0-.16-.39c-.55-.62-4.79-2.26-5.52-3.69-.4-.79-.69-3.5-.78-6.39a37,37,0,0,1,.36-6.78C235.9,394.29,236.07,394,236.32,394Z"/><path class="cls-34" d="M236.27,394.19a19.16,19.16,0,0,1,3.74-.63,32.42,32.42,0,0,1,4-.11,24.15,24.15,0,0,1,5.72.74c.24.08.4.32.62,1.62a37.08,37.08,0,0,1,.38,6.78A23.94,23.94,0,0,1,250,409c-.52,1.08-4.4,2.53-4.89,3.17-.06.07-.13.43-.18.49-.18.23-1.17.27-1.32.43a2.71,2.71,0,0,1-1.73.2s0-.12-.07-.14-.11-.32-.17-.39c-.57-.63-4.73-2.29-5.48-3.76-.42-.81-.72-3.5-.82-6.36a36.38,36.38,0,0,1,.32-6.78C235.87,394.51,236,394.27,236.27,394.19Z"/><path class="cls-35" d="M236.22,394.42a19.67,19.67,0,0,1,3.78-.64,33.11,33.11,0,0,1,4-.1,23.74,23.74,0,0,1,5.74.74c.23.08.39.31.6,1.63a38.23,38.23,0,0,1,.35,6.78,23.86,23.86,0,0,1-.77,6.33c-.54,1.11-4.33,2.57-4.84,3.23-.06.07-.13.42-.18.49-.19.23-1.16.29-1.31.44a2.61,2.61,0,0,1-1.74.2s0-.11-.07-.13-.11-.32-.17-.39c-.59-.65-4.67-2.32-5.45-3.84-.42-.83-.73-3.5-.86-6.33a37.42,37.42,0,0,1,.29-6.78C235.83,394.73,236,394.5,236.22,394.42Z"/><path class="cls-36" d="M236.17,394.65A19.51,19.51,0,0,1,240,394a31.79,31.79,0,0,1,4.08-.1,24,24,0,0,1,5.76.74c.23.07.38.3.58,1.64a38.36,38.36,0,0,1,.32,6.78,23.39,23.39,0,0,1-.82,6.3c-.54,1.15-4.26,2.61-4.78,3.29-.06.07-.13.42-.18.49-.2.24-1.15.3-1.3.46a2.55,2.55,0,0,1-1.74.2s0-.11-.07-.13-.12-.32-.18-.39c-.6-.67-4.62-2.36-5.41-3.92-.44-.86-.76-3.49-.9-6.31a36.75,36.75,0,0,1,.25-6.78C235.79,395,235.94,394.72,236.17,394.65Z"/><path class="cls-37" d="M236.11,394.88a20.74,20.74,0,0,1,3.86-.64,32.51,32.51,0,0,1,4.13-.11,24.67,24.67,0,0,1,5.78.75c.22.07.37.29.56,1.64a36.79,36.79,0,0,1,.28,6.78,23.14,23.14,0,0,1-.85,6.28c-.56,1.18-4.19,2.65-4.73,3.35-.06.07-.13.42-.19.49-.19.24-1.13.31-1.28.48a2.55,2.55,0,0,1-1.74.2s-.06-.11-.08-.14-.12-.31-.18-.38c-.62-.69-4.56-2.39-5.38-4-.45-.88-.78-3.49-.93-6.28a36.07,36.07,0,0,1,.21-6.78C235.75,395.17,235.9,395,236.11,394.88Z"/><path class="cls-37" d="M236.06,395.11a21.11,21.11,0,0,1,3.9-.65,33.18,33.18,0,0,1,4.17-.1,25,25,0,0,1,5.81.75c.2.07.35.28.54,1.65a37.84,37.84,0,0,1,.24,6.78,23.12,23.12,0,0,1-.89,6.25c-.58,1.21-4.12,2.69-4.68,3.41-.06.08-.13.41-.19.48-.2.25-1.11.34-1.27.51a2.46,2.46,0,0,1-1.75.19s-.05-.11-.07-.13-.13-.32-.19-.38c-.64-.72-4.5-2.43-5.34-4.08a22.29,22.29,0,0,1-1-6.25,37,37,0,0,1,.18-6.78C235.72,395.39,235.86,395.18,236.06,395.11Z"/><path class="cls-38" d="M236,395.33a22.32,22.32,0,0,1,3.94-.64,33.78,33.78,0,0,1,4.21-.1,25.65,25.65,0,0,1,5.83.74c.2.08.33.28.52,1.67a38,38,0,0,1,.2,6.78,22.89,22.89,0,0,1-.92,6.22c-.59,1.25-4.06,2.74-4.62,3.47-.07.08-.14.41-.2.48-.21.26-1.1.35-1.26.53a2.42,2.42,0,0,1-1.75.19s-.06-.11-.08-.13-.12-.32-.19-.39c-.65-.73-4.44-2.46-5.3-4.15-.48-.92-.84-3.48-1-6.22a37.16,37.16,0,0,1,.13-6.78C235.68,395.61,235.81,395.41,236,395.33Z"/><path class="cls-39" d="M236,395.56a22.13,22.13,0,0,1,4-.64,32.44,32.44,0,0,1,4.25-.11,26.51,26.51,0,0,1,5.85.75c.19.07.32.27.5,1.68a38.05,38.05,0,0,1,.17,6.78,22.82,22.82,0,0,1-1,6.2c-.61,1.27-4,2.77-4.57,3.52-.07.08-.14.4-.2.48-.22.26-1.09.37-1.26.55A2.36,2.36,0,0,1,242,415s-.05-.1-.07-.13-.13-.31-.2-.38c-.67-.75-4.38-2.49-5.27-4.22a22,22,0,0,1-1.05-6.2,37.27,37.27,0,0,1,.09-6.78C235.64,395.83,235.77,395.63,236,395.56Z"/><path class="cls-40" d="M235.91,395.79a22.71,22.71,0,0,1,4-.65,35,35,0,0,1,4.29-.1,26.68,26.68,0,0,1,5.87.75c.18.07.31.26.48,1.68a37.35,37.35,0,0,1,.13,6.79,22.56,22.56,0,0,1-1,6.17c-.63,1.3-3.92,2.81-4.52,3.58-.07.08-.14.4-.21.48-.22.27-1.07.38-1.24.56a2.26,2.26,0,0,1-1.75.19s-.06-.11-.08-.13-.13-.31-.2-.38c-.69-.77-4.33-2.53-5.23-4.3a21.7,21.7,0,0,1-1.1-6.17,37.45,37.45,0,0,1,.06-6.79C235.6,396.05,235.73,395.86,235.91,395.79Z"/><path class="cls-41" d="M235.86,396a22.52,22.52,0,0,1,4.06-.65,33.53,33.53,0,0,1,4.32-.1,26.86,26.86,0,0,1,5.9.75c.18.07.3.25.46,1.69a37.32,37.32,0,0,1,.1,6.78,22.72,22.72,0,0,1-1,6.15c-.64,1.34-3.86,2.85-4.47,3.64-.07.09-.14.39-.21.47-.22.28-1.05.4-1.23.59a2.22,2.22,0,0,1-1.75.18s-.06-.1-.09-.13-.13-.3-.2-.37c-.7-.79-4.27-2.56-5.2-4.38a21.51,21.51,0,0,1-1.13-6.15,36.53,36.53,0,0,1,0-6.78C235.56,396.27,235.68,396.09,235.86,396Z"/><path class="cls-41" d="M235.81,396.25a24.18,24.18,0,0,1,4.1-.66,36.05,36.05,0,0,1,4.36-.1,27.7,27.7,0,0,1,5.92.76c.17.06.28.24.45,1.7a37.39,37.39,0,0,1,.05,6.78,22.58,22.58,0,0,1-1.06,6.12c-.66,1.37-3.79,2.89-4.42,3.7-.07.09-.14.39-.21.47-.23.28-1,.42-1.22.61a2.21,2.21,0,0,1-1.76.18s-.06-.1-.08-.13-.14-.3-.21-.38c-.72-.8-4.21-2.59-5.16-4.45a21.34,21.34,0,0,1-1.17-6.12,36.58,36.58,0,0,1,0-6.78C235.53,396.49,235.64,396.31,235.81,396.25Z"/><path class="cls-42" d="M235.76,396.48a23.76,23.76,0,0,1,4.13-.66,37,37,0,0,1,4.41-.1,27.87,27.87,0,0,1,5.94.76c.16.06.27.23.43,1.71a38.36,38.36,0,0,1,0,6.78,22.29,22.29,0,0,1-1.11,6.09c-.67,1.4-3.72,2.93-4.36,3.76-.07.09-.15.38-.21.47-.24.29-1,.43-1.21.63a2.16,2.16,0,0,1-1.76.17S242,416,242,416s-.14-.3-.21-.38c-.74-.82-4.15-2.62-5.13-4.53A22,22,0,0,1,235.4,405a36.61,36.61,0,0,1-.05-6.78C235.49,396.71,235.6,396.54,235.76,396.48Z"/><path class="cls-43" d="M235.71,396.71a23.78,23.78,0,0,1,4.17-.66,33.75,33.75,0,0,1,4.45-.1,28.05,28.05,0,0,1,6,.76c.16.06.26.22.41,1.72a37.46,37.46,0,0,1,0,6.78,22.12,22.12,0,0,1-1.15,6.06c-.68,1.44-3.65,3-4.3,3.82-.08.09-.16.38-.23.47-.24.29-1,.44-1.2.65a2.1,2.1,0,0,1-1.75.17s-.07-.1-.09-.13-.14-.29-.22-.37c-.75-.84-4.09-2.66-5.09-4.61a21.41,21.41,0,0,1-1.25-6.06,35.88,35.88,0,0,1-.09-6.79C235.45,396.93,235.55,396.77,235.71,396.71Z"/><path class="cls-44" d="M235.66,396.94a25.3,25.3,0,0,1,4.21-.67,36.27,36.27,0,0,1,4.49-.09,28.23,28.23,0,0,1,6,.76c.15.05.25.21.39,1.72a36.68,36.68,0,0,1,0,6.79,22.05,22.05,0,0,1-1.18,6c-.7,1.47-3.58,3-4.25,3.88-.08.09-.16.37-.23.46-.24.3-1,.47-1.19.68a2.12,2.12,0,0,1-1.76.17s-.06-.1-.09-.13-.14-.29-.22-.37c-.77-.86-4-2.69-5-4.69a21.31,21.31,0,0,1-1.29-6,35.89,35.89,0,0,1-.14-6.79C235.41,397.15,235.51,397,235.66,396.94Z"/><path class="cls-45" d="M235.61,397.17a24.19,24.19,0,0,1,4.25-.67,34.86,34.86,0,0,1,4.53-.1,29.2,29.2,0,0,1,6,.77c.14.05.24.2.37,1.73a36.68,36.68,0,0,1-.08,6.79,22.41,22.41,0,0,1-1.22,6c-.71,1.49-3.52,3.05-4.2,3.93-.08.1-.16.37-.23.46-.25.31-1,.48-1.18.7a2,2,0,0,1-1.76.16s-.07-.1-.09-.12-.15-.29-.23-.38c-.79-.88-4-2.72-5-4.75a21.76,21.76,0,0,1-1.33-6,36.7,36.7,0,0,1-.17-6.79C235.37,397.36,235.47,397.22,235.61,397.17Z"/><path class="cls-45" d="M235.56,397.4a24,24,0,0,1,4.29-.67,35.44,35.44,0,0,1,4.57-.1,29.39,29.39,0,0,1,6,.77c.14.05.23.18.36,1.74a36.55,36.55,0,0,1-.13,6.78,22.38,22.38,0,0,1-1.25,6c-.73,1.53-3.45,3.09-4.15,4-.08.1-.16.36-.23.46-.26.31-1,.5-1.17.71a2,2,0,0,1-1.76.17s-.07-.1-.1-.13-.15-.28-.23-.37c-.8-.9-3.92-2.75-5-4.83a21.35,21.35,0,0,1-1.37-6,35.72,35.72,0,0,1-.21-6.78C235.34,397.58,235.42,397.45,235.56,397.4Z"/><path class="cls-46" d="M235.51,397.63a25.5,25.5,0,0,1,4.33-.68,38.08,38.08,0,0,1,4.61-.09,28.89,28.89,0,0,1,6,.77c.13,0,.21.17.34,1.75a36.51,36.51,0,0,1-.16,6.78,22.4,22.4,0,0,1-1.29,6c-.75,1.56-3.38,3.13-4.1,4.05-.08.1-.16.36-.24.45-.26.33-.95.52-1.15.74a2,2,0,0,1-1.77.16.54.54,0,0,1-.09-.12c-.08-.08-.16-.28-.24-.37-.82-.92-3.86-2.79-4.95-4.91a21.74,21.74,0,0,1-1.4-6,34.09,34.09,0,0,1-.25-6.78C235.3,397.8,235.38,397.67,235.51,397.63Z"/><path class="cls-47" d="M235.46,397.86a25.31,25.31,0,0,1,4.37-.68,36.62,36.62,0,0,1,4.65-.1,29.8,29.8,0,0,1,6.06.78c.12,0,.2.16.32,1.75a35.69,35.69,0,0,1-.2,6.79,22.33,22.33,0,0,1-1.32,5.93c-.76,1.59-3.32,3.17-4,4.11-.09.1-.17.36-.25.45-.27.33-.94.53-1.15.76a2,2,0,0,1-1.76.16.64.64,0,0,1-.1-.13c-.07-.07-.16-.27-.24-.36-.84-.94-3.8-2.82-4.91-5a21.68,21.68,0,0,1-1.45-5.93,34.9,34.9,0,0,1-.28-6.79C235.26,398,235.34,397.9,235.46,397.86Z"/><path class="cls-48" d="M235.41,398.09a24.27,24.27,0,0,1,4.4-.68,37.43,37.43,0,0,1,4.7-.1,30,30,0,0,1,6.08.78c.12,0,.19.15.3,1.76a35.66,35.66,0,0,1-.23,6.79,22.25,22.25,0,0,1-1.37,5.9c-.77,1.63-3.24,3.21-4,4.17-.09.11-.17.35-.25.45-.27.33-.92.55-1.14.78a1.91,1.91,0,0,1-1.77.15.54.54,0,0,1-.09-.12c-.08-.08-.16-.27-.25-.37-.85-1-3.75-2.85-4.87-5.06a21.61,21.61,0,0,1-1.49-5.9,34.06,34.06,0,0,1-.32-6.79C235.22,398.24,235.29,398.13,235.41,398.09Z"/><path class="cls-48" d="M235.36,398.32a25.72,25.72,0,0,1,4.44-.69,36.31,36.31,0,0,1,4.74-.09,30.17,30.17,0,0,1,6.1.78c.11,0,.18.14.28,1.77a34.78,34.78,0,0,1-.27,6.79,22.32,22.32,0,0,1-1.4,5.87c-.79,1.66-3.17,3.25-3.93,4.23-.09.11-.17.35-.26.45-.27.34-.9.56-1.12.8a1.91,1.91,0,0,1-1.77.15,1.06,1.06,0,0,1-.1-.12c-.08-.09-.16-.27-.25-.37-.87-1-3.69-2.88-4.84-5.14a21.72,21.72,0,0,1-1.52-5.87,34,34,0,0,1-.37-6.79C235.18,398.46,235.25,398.35,235.36,398.32Z"/><path class="cls-49" d="M235.31,398.55a25.77,25.77,0,0,1,4.48-.69,38.64,38.64,0,0,1,4.78-.1,31.14,31.14,0,0,1,6.12.79c.1,0,.17.13.26,1.78a34.73,34.73,0,0,1-.3,6.79,22.57,22.57,0,0,1-1.44,5.85c-.8,1.68-3.11,3.29-3.88,4.28-.08.11-.17.34-.26.44-.28.35-.89.59-1.11.83a1.88,1.88,0,0,1-1.77.15.69.69,0,0,1-.11-.13c-.07-.08-.16-.26-.25-.36-.89-1-3.63-2.92-4.8-5.22a21.75,21.75,0,0,1-1.57-5.84,33.92,33.92,0,0,1-.4-6.79C235.14,398.68,235.21,398.58,235.31,398.55Z"/><path class="cls-50" d="M235.26,398.77a27.18,27.18,0,0,1,4.52-.68,37.36,37.36,0,0,1,4.82-.1,32.06,32.06,0,0,1,6.14.78c.1,0,.16.13.25,1.8a35.27,35.27,0,0,1-.34,6.78,23,23,0,0,1-1.48,5.83c-.82,1.72-3,3.33-3.83,4.34-.08.11-.18.34-.26.44-.29.36-.88.6-1.1.84a1.82,1.82,0,0,1-1.78.15l-.1-.12c-.08-.09-.17-.26-.26-.36-.9-1-3.57-3-4.77-5.29a22.48,22.48,0,0,1-1.6-5.83,33.67,33.67,0,0,1-.44-6.78C235.1,398.9,235.16,398.81,235.26,398.77Z"/><path class="cls-51" d="M235.2,399a29.7,29.7,0,0,1,4.57-.69,38.08,38.08,0,0,1,4.86-.09,32.55,32.55,0,0,1,6.17.78c.08,0,.13.12.22,1.8a34.38,34.38,0,0,1-.38,6.79,23.21,23.21,0,0,1-1.51,5.8c-.84,1.75-3,3.37-3.77,4.4-.09.11-.19.33-.27.44a13,13,0,0,1-1.1.86,1.8,1.8,0,0,1-1.77.15,1.2,1.2,0,0,1-.11-.12c-.08-.09-.17-.26-.26-.36-.92-1-3.51-3-4.73-5.37a22.23,22.23,0,0,1-1.64-5.8,32.93,32.93,0,0,1-.48-6.79C235.07,399.12,235.12,399,235.2,399Z"/><path class="cls-52" d="M235.15,399.23a29.46,29.46,0,0,1,4.61-.69,40.45,40.45,0,0,1,4.9-.1,32.8,32.8,0,0,1,6.19.79c.07,0,.12.11.2,1.81a33.56,33.56,0,0,1-.41,6.79,23.23,23.23,0,0,1-1.55,5.77c-.85,1.78-2.91,3.41-3.72,4.46-.09.12-.19.33-.28.44a12,12,0,0,1-1.08.88,1.75,1.75,0,0,1-1.77.14.63.63,0,0,1-.11-.12c-.08-.09-.18-.25-.27-.36-.94-1-3.46-3-4.7-5.44a22.7,22.7,0,0,1-1.68-5.77A32.76,32.76,0,0,1,235,401C235,399.34,235.08,399.26,235.15,399.23Z"/><path class="cls-53" d="M235.1,399.46a29.89,29.89,0,0,1,4.65-.7,41.23,41.23,0,0,1,4.94-.09,33.84,33.84,0,0,1,6.21.79c.07,0,.11.1.18,1.82a32.72,32.72,0,0,1-.45,6.79,23.59,23.59,0,0,1-1.58,5.74c-.87,1.82-2.84,3.45-3.67,4.52-.09.12-.19.32-.28.43a12.47,12.47,0,0,1-1.07.91,1.77,1.77,0,0,1-1.78.14,1.2,1.2,0,0,1-.11-.12c-.08-.09-.17-.25-.27-.36-1-1.07-3.4-3.05-4.66-5.52a23.05,23.05,0,0,1-1.72-5.74,31.31,31.31,0,0,1-.55-6.79C235,399.56,235,399.49,235.1,399.46Z"/><path class="cls-54" d="M235.05,399.69a29.92,29.92,0,0,1,4.68-.7,40.1,40.1,0,0,1,5-.09,34,34,0,0,1,6.23.79c.06,0,.1.09.16,1.83a32.63,32.63,0,0,1-.48,6.79A24.28,24.28,0,0,1,249,414c-.89,1.85-2.78,3.49-3.62,4.58-.09.12-.19.32-.28.43-.31.38-.82.66-1.06.93a1.72,1.72,0,0,1-1.78.13,1.14,1.14,0,0,1-.11-.11c-.09-.1-.18-.25-.28-.36-1-1.09-3.34-3.08-4.62-5.6a22.9,22.9,0,0,1-1.76-5.71,31.21,31.21,0,0,1-.6-6.79C235,399.78,235,399.72,235.05,399.69Z"/><path class="cls-54" d="M235,399.92a29.45,29.45,0,0,1,4.72-.7,40.57,40.57,0,0,1,5-.1,35.21,35.21,0,0,1,6.25.8c.05,0,.09.08.15,1.83a32.51,32.51,0,0,1-.53,6.8,23.48,23.48,0,0,1-1.66,5.68c-.89,1.88-2.7,3.53-3.56,4.64-.09.12-.19.31-.28.43-.32.39-.81.68-1.05.95a1.72,1.72,0,0,1-1.78.13.46.46,0,0,1-.12-.12c-.09-.09-.18-.25-.28-.35-1-1.11-3.28-3.12-4.59-5.68a23.89,23.89,0,0,1-1.8-5.69,31,31,0,0,1-.63-6.79C234.91,400,235,399.94,235,399.92Z"/><path class="cls-55" d="M235,400.15a30.11,30.11,0,0,1,4.76-.71,41.33,41.33,0,0,1,5.07-.09,35.42,35.42,0,0,1,6.27.8s.08.07.13,1.84a31.56,31.56,0,0,1-.56,6.79,24.45,24.45,0,0,1-1.7,5.67,25.71,25.71,0,0,1-3.51,4.69,4.43,4.43,0,0,1-.29.42,11,11,0,0,1-1,1,1.66,1.66,0,0,1-1.78.13l-.11-.11c-.09-.1-.19-.25-.29-.36a26.36,26.36,0,0,1-4.55-5.74,23.59,23.59,0,0,1-1.84-5.67,30.85,30.85,0,0,1-.67-6.79C234.87,400.22,234.9,400.17,235,400.15Z"/><path class="cls-56" d="M234.9,400.38a31.35,31.35,0,0,1,4.8-.71,40,40,0,0,1,5.11-.09,35.63,35.63,0,0,1,6.29.8s.07.06.11,1.85a30.82,30.82,0,0,1-.6,6.79,24.85,24.85,0,0,1-1.73,5.64,26.62,26.62,0,0,1-3.45,4.75c-.1.13-.2.3-.3.42a13,13,0,0,1-1,1,1.66,1.66,0,0,1-1.78.13.46.46,0,0,1-.12-.12c-.09-.09-.19-.24-.29-.35a27,27,0,0,1-4.52-5.82,24,24,0,0,1-1.87-5.64,30.1,30.1,0,0,1-.71-6.79C234.83,400.44,234.86,400.4,234.9,400.38Z"/><path class="cls-57" d="M234.85,400.61a31.4,31.4,0,0,1,4.84-.71,42.38,42.38,0,0,1,5.15-.1,36.87,36.87,0,0,1,6.31.81s.06.05.09,1.86a30.67,30.67,0,0,1-.63,6.79,25.27,25.27,0,0,1-1.77,5.61,26.48,26.48,0,0,1-3.4,4.81c-.1.13-.2.3-.3.42-.33.41-.76.73-1,1a1.66,1.66,0,0,1-1.79.13l-.12-.12c-.09-.1-.18-.24-.29-.35a27.18,27.18,0,0,1-4.48-5.9,24.93,24.93,0,0,1-1.92-5.61,29.94,29.94,0,0,1-.74-6.79C234.79,400.66,234.81,400.62,234.85,400.61Z"/><path class="cls-57" d="M234.8,400.84a31.83,31.83,0,0,1,4.88-.72,41.19,41.19,0,0,1,5.19-.09,36.23,36.23,0,0,1,6.33.81s.05,0,.07,1.87a30.5,30.5,0,0,1-.66,6.79A20.45,20.45,0,0,1,245.45,420l-.3.42c-.34.41-.75.74-1,1a1.64,1.64,0,0,1-1.79.12.63.63,0,0,1-.12-.11c-.09-.1-.19-.24-.3-.35a27.93,27.93,0,0,1-4.44-6,25,25,0,0,1-2-5.58,28.68,28.68,0,0,1-.78-6.79C234.75,400.88,234.77,400.85,234.8,400.84Z"/><path class="cls-58" d="M234.75,401.07a33.16,33.16,0,0,1,4.92-.72,41.84,41.84,0,0,1,5.23-.09,36.44,36.44,0,0,1,6.35.81,11.11,11.11,0,0,1,.06,1.87,30.33,30.33,0,0,1-.71,6.8,26.72,26.72,0,0,1-1.84,5.55,27.41,27.41,0,0,1-3.3,4.93c-.1.13-.21.29-.31.41-.34.42-.72.77-1,1.06a1.64,1.64,0,0,1-1.79.12l-.13-.12-.3-.35a28.07,28.07,0,0,1-4.41-6,25.88,25.88,0,0,1-2-5.55,29.06,29.06,0,0,1-.82-6.8A11,11,0,0,1,234.75,401.07Z"/><path class="cls-59" d="M234.7,401.3a31.39,31.39,0,0,1,5-.72,44.5,44.5,0,0,1,5.28-.1,37.71,37.71,0,0,1,6.37.82,13.43,13.43,0,0,1,0,1.88,29.44,29.44,0,0,1-.74,6.79,23.69,23.69,0,0,1-5.13,10.52c-.1.14-.21.29-.31.41-.34.43-.71.78-1,1.08a1.61,1.61,0,0,1-1.8.11l-.12-.11c-.1-.1-.2-.23-.31-.35a28.2,28.2,0,0,1-4.37-6.13,26.46,26.46,0,0,1-2-5.53,28.21,28.21,0,0,1-.86-6.79A13.34,13.34,0,0,1,234.7,401.3Z"/><path class="cls-59" d="M234.65,401.53a32.07,32.07,0,0,1,5-.73,43.24,43.24,0,0,1,5.32-.09,37.93,37.93,0,0,1,6.39.82s0,0,0,1.89a28.71,28.71,0,0,1-.78,6.79,26.75,26.75,0,0,1-1.92,5.5,27.46,27.46,0,0,1-3.18,5.05l-.32.41c-.35.43-.7.8-1,1.09a1.58,1.58,0,0,1-1.79.12.69.69,0,0,1-.13-.11l-.31-.35a29.39,29.39,0,0,1-4.34-6.21,27.23,27.23,0,0,1-2.07-5.5,27.6,27.6,0,0,1-.9-6.79C234.64,401.54,234.64,401.53,234.65,401.53Z"/><path class="cls-60" d="M244.21,422.55a1.51,1.51,0,0,1-1.92,0,29.74,29.74,0,0,1-4.62-6.62,28.45,28.45,0,0,1-2.12-5.48,27.43,27.43,0,0,1-.93-6.79l0-1.9a33.4,33.4,0,0,1,5-.73,43.87,43.87,0,0,1,5.36-.09,38.16,38.16,0,0,1,6.41.82v1.9a28.22,28.22,0,0,1-2.77,12.27A27,27,0,0,1,244.21,422.55Z"/></g></svg>