<svg xmlns="http://www.w3.org/2000/svg" viewBox="0 0 432 846"><defs><style>.cls-1{fill:#82c341;}.cls-2{fill:#83c441;}.cls-3{fill:#83c442;}.cls-4{fill:#84c442;}.cls-5{fill:#85c443;}.cls-6{fill:#86c444;}.cls-7{fill:#86c544;}.cls-8{fill:#87c545;}.cls-9{fill:#88c546;}.cls-10{fill:#89c547;}.cls-11{fill:#89c648;}.cls-12{fill:#8ac648;}.cls-13{fill:#8ac649;}.cls-14{fill:#8bc64a;}.cls-15{fill:#8cc74b;}.cls-16{fill:#8cc74c;}.cls-17{fill:#8dc74c;}.cls-18{fill:#8dc74d;}.cls-19{fill:#8ec74e;}.cls-20{fill:#8fc84f;}.cls-21{fill:#8fc850;}.cls-22{fill:#90c850;}.cls-23{fill:#90c851;}.cls-24{fill:#91c852;}.cls-25{fill:#91c952;}.cls-26{fill:#92c953;}.cls-27{fill:#92c954;}.cls-28{fill:#93c955;}.cls-29{fill:#94c956;}.cls-30{fill:#94ca57;}.cls-31{fill:#95ca57;}.cls-32{fill:#95ca58;}.cls-33{fill:#96ca59;}.cls-34{fill:#96ca5a;}.cls-35{fill:#97cb5a;}.cls-36{fill:#97cb5b;}.cls-37{fill:#98cb5c;}.cls-38{fill:#98cb5d;}.cls-39{fill:#99cb5e;}.cls-40{fill:#99cc5e;}.cls-41{fill:#99cc5f;}.cls-42{fill:#9acc60;}.cls-43{fill:#9acc61;}.cls-44{fill:#9bcc61;}.cls-45{fill:#9bcd62;}.cls-46{fill:#9ccd63;}.cls-47{fill:#9ccd64;}.cls-48{fill:#9dcd65;}.cls-49{fill:#9ece66;}.cls-50{fill:#9ece67;}.cls-51{fill:#9fce68;}.cls-52{fill:#9fce69;}.cls-53{fill:#a0ce69;}.cls-54{fill:#a0cf6a;}.cls-55{fill:#a1cf6b;}.cls-56{fill:#a1cf6c;}.cls-57{fill:#a1cf6d;}.cls-58{fill:#a2d06d;}.cls-59{fill:#a2d06e;}.cls-60{fill:#a3d06f;}.cls-61{fill:#a3d070;}.cls-62{fill:#a4d070;}.cls-63{fill:#a4d171;}.cls-64{fill:#a5d172;}.cls-65{fill:#a5d173;}.cls-66{fill:#a6d174;}.cls-67{fill:#a7d275;}.cls-68{fill:#a7d276;}.cls-69{fill:#a8d277;}.cls-70{fill:#a8d278;}.cls-71{fill:#a9d378;}.cls-72{fill:#a9d379;}.cls-73{fill:#aad37a;}.cls-74{fill:#aad37b;}.cls-75{fill:#abd37b;}.cls-76{fill:#abd47c;}.cls-77{fill:#acd47d;}.cls-78{fill:#add47e;}.cls-79{fill:#add47f;}.cls-80{fill:#aed580;}.cls-81{fill:#afd581;}.cls-82{fill:#afd582;}.cls-83{fill:#b0d682;}.cls-84{fill:#b0d683;}.cls-85{fill:#b1d684;}.cls-86{fill:#b1d685;}.cls-87{fill:#b2d685;}.cls-88{fill:#b2d786;}.cls-89{fill:#b3d787;}.cls-90{fill:#b4d788;}.cls-91{fill:#b4d889;}.cls-92{fill:#b5d889;}.cls-93{fill:#b5d88a;}.cls-94{fill:#b5d88b;}.cls-95{fill:#b6d98c;}.cls-96{fill:#b7d98d;}.cls-97{fill:#b7d98e;}.cls-98{fill:#b8d98e;}.cls-99{fill:#b8da8f;}.cls-100{fill:#b9da90;}.cls-101{fill:#bada91;}.cls-102{fill:#badb92;}.cls-103{fill:#bbdb92;}.cls-104{fill:#bbdb93;}.cls-105{fill:#bcdb94;}.cls-106{fill:#bcdc94;}.cls-107{fill:#bddc95;}.cls-108{fill:#bddc96;}.cls-109{fill:#bedc96;}.cls-110{fill:#bedc97;}.cls-111{fill:#bfdd98;}.cls-112{fill:#bfdd99;}.cls-113{fill:#c0dd99;}.cls-114{fill:#c0dd9a;}.cls-115{fill:#c1de9b;}.cls-116{fill:#c2de9c;}.cls-117{fill:#c2de9d;}.cls-118{fill:#c3df9d;}.cls-119{fill:#c3df9e;}.cls-120{fill:#c4df9f;}.cls-121{fill:#c4dfa0;}.cls-122{fill:#c5e0a0;}.cls-123{fill:#c5e0a1;}.cls-124{fill:#c6e0a2;}.cls-125{fill:#84c443;}.cls-126{fill:#8bc649;}.cls-127{fill:#8dc74e;}.cls-128{fill:#8ec84f;}.cls-129{fill:#91c953;}.cls-130{fill:#93c956;}.cls-131{fill:#94ca56;}.cls-132{fill:#95ca59;}.cls-133{fill:#96cb5a;}.cls-134{fill:#97cb5c;}.cls-135{fill:#9acc5f;}.cls-136{fill:#9bcc62;}.cls-137{fill:#9dcd66;}.cls-138{fill:#a2cf6d;}.cls-139{fill:#a4d071;}.cls-140{fill:#fffbdd;opacity:0.57;}</style></defs><g id="Green_Leaf" data-name="Green Leaf"><path class="cls-1" d="M210.08,765.69a1,1,0,0,0-1.92,0c-2.21,4.77-7.67,18.18-7.67,38.06,0,25.09,5,31.93,5,31.93a7.55,7.55,0,0,0,7.46,0s4.34-6.84,4.34-31.93C217.27,783.87,212.29,770.46,210.08,765.69Z"/><path class="cls-2" d="M210.08,765.69a1,1,0,0,0-1.92,0c-2.19,4.75-7.65,18.11-7.65,37.92,0,25,5,31.82,5,31.82a7.52,7.52,0,0,0,7.43,0s4.33-6.82,4.33-31.82C217.24,783.8,212.27,770.44,210.08,765.69Z"/><path class="cls-3" d="M210.07,765.68a1,1,0,0,0-1.91,0c-2.18,4.74-7.62,18.05-7.62,37.79,0,24.91,4.94,31.7,4.94,31.7a7.48,7.48,0,0,0,7.41,0s4.31-6.79,4.31-31.7C217.2,783.73,212.26,770.42,210.07,765.68Z"/><path class="cls-4" d="M210.07,765.68a1,1,0,0,0-1.9,0c-2.18,4.72-7.61,18-7.61,37.65,0,24.82,4.93,31.58,4.93,31.58a7.46,7.46,0,0,0,7.38,0s4.29-6.76,4.29-31.58C217.16,783.66,212.25,770.4,210.07,765.68Z"/><path class="cls-5" d="M210.07,765.68a1,1,0,0,0-1.9,0c-2.17,4.7-7.58,17.91-7.58,37.51,0,24.72,4.9,31.47,4.9,31.47a7.45,7.45,0,0,0,7.36,0s4.28-6.75,4.28-31.47C217.13,783.59,212.24,770.38,210.07,765.68Z"/><path class="cls-5" d="M210.06,765.68a1,1,0,0,0-1.89,0c-2.16,4.68-7.56,17.84-7.56,37.37,0,24.63,4.89,31.35,4.89,31.35a7.4,7.4,0,0,0,7.32,0s4.27-6.72,4.27-31.35C217.09,783.52,212.23,770.36,210.06,765.68Z"/><path class="cls-6" d="M210.06,765.67a1,1,0,0,0-1.89,0c-2.15,4.67-7.53,17.79-7.53,37.24,0,24.54,4.87,31.24,4.87,31.24a7.38,7.38,0,0,0,7.29,0s4.25-6.7,4.25-31.24C217.05,783.46,212.21,770.34,210.06,765.67Z"/><path class="cls-7" d="M210.05,765.67a1,1,0,0,0-1.87,0c-2.15,4.65-7.52,17.72-7.52,37.1,0,24.45,4.85,31.12,4.85,31.12a7.37,7.37,0,0,0,7.27,0s4.24-6.67,4.24-31.12C217,783.39,212.2,770.32,210.05,765.67Z"/><path class="cls-8" d="M210.05,765.67a1,1,0,0,0-1.87,0c-2.14,4.63-7.49,17.65-7.49,37,0,24.37,4.83,31,4.83,31a7.31,7.31,0,0,0,7.24,0s4.22-6.64,4.22-31C217,783.32,212.19,770.3,210.05,765.67Z"/><path class="cls-8" d="M210,765.67a1,1,0,0,0-1.86,0c-2.13,4.61-7.47,17.58-7.47,36.81,0,24.28,4.82,30.9,4.82,30.9a7.3,7.3,0,0,0,7.21,0s4.21-6.62,4.21-30.9C217,783.25,212.18,770.28,210,765.67Z"/><path class="cls-9" d="M210,765.66a1,1,0,0,0-1.85,0c-2.13,4.6-7.46,17.52-7.46,36.68,0,24.19,4.8,30.78,4.8,30.78a7.27,7.27,0,0,0,7.19,0s4.19-6.59,4.19-30.78C216.91,783.18,212.16,770.26,210,765.66Z"/><path class="cls-9" d="M210,765.66a1,1,0,0,0-1.85,0c-2.12,4.58-7.43,17.45-7.43,36.54,0,24.1,4.78,30.67,4.78,30.67a7.24,7.24,0,0,0,7.16,0s4.17-6.57,4.17-30.67C216.87,783.11,212.15,770.24,210,765.66Z"/><path class="cls-10" d="M210,765.66a1,1,0,0,0-1.84,0c-2.11,4.56-7.41,17.39-7.41,36.4,0,24,4.77,30.55,4.77,30.55a7.21,7.21,0,0,0,7.13,0s4.16-6.55,4.16-30.55C216.84,783.05,212.14,770.22,210,765.66Z"/><path class="cls-11" d="M210,765.66a1,1,0,0,0-1.84,0c-2.1,4.54-7.38,17.32-7.38,36.26,0,23.91,4.74,30.43,4.74,30.43a7.18,7.18,0,0,0,7.11,0s4.14-6.52,4.14-30.43C216.8,783,212.13,770.2,210,765.66Z"/><path class="cls-12" d="M210,765.65a1,1,0,0,0-1.82,0c-2.1,4.53-7.37,17.26-7.37,36.13,0,23.82,4.73,30.32,4.73,30.32a7.18,7.18,0,0,0,7.08,0s4.12-6.5,4.12-30.32C216.76,782.91,212.12,770.18,210,765.65Z"/><path class="cls-13" d="M210,765.65a1,1,0,0,0-1.82,0c-2.08,4.51-7.34,17.19-7.34,36,0,23.73,4.7,30.2,4.7,30.2a7.14,7.14,0,0,0,7.06,0s4.11-6.47,4.11-30.2C216.73,782.84,212.1,770.16,210,765.65Z"/><path class="cls-14" d="M210,765.65a1,1,0,0,0-1.81,0c-2.07,4.49-7.32,17.12-7.32,35.85,0,23.64,4.69,30.09,4.69,30.09a7.14,7.14,0,0,0,7,0s4.09-6.45,4.09-30.09C216.69,782.77,212.09,770.14,210,765.65Z"/><path class="cls-14" d="M210,765.65a1,1,0,0,0-1.81,0c-2.06,4.47-7.29,17.05-7.29,35.71,0,23.55,4.67,30,4.67,30a7.08,7.08,0,0,0,7,0s4.07-6.42,4.07-30C216.65,782.7,212.08,770.12,210,765.65Z"/><path class="cls-15" d="M210,765.64a1,1,0,0,0-1.8,0c-2.06,4.46-7.28,17-7.28,35.58,0,23.46,4.65,29.85,4.65,29.85a7,7,0,0,0,7,0s4.06-6.39,4.06-29.85C216.62,782.64,212.07,770.1,210,765.64Z"/><path class="cls-16" d="M210,765.64a1,1,0,0,0-1.79,0c-2.05,4.44-7.26,16.93-7.26,35.44,0,23.36,4.64,29.74,4.64,29.74a7,7,0,0,0,6.95,0s4-6.38,4-29.74C216.58,782.57,212.05,770.08,210,765.64Z"/><path class="cls-17" d="M210,765.64a1,1,0,0,0-1.79,0c-2,4.42-7.23,16.86-7.23,35.3,0,23.27,4.62,29.62,4.62,29.62a7,7,0,0,0,6.91,0s4-6.35,4-29.62C216.54,782.5,212,770.06,210,765.64Z"/><path class="cls-18" d="M210,765.64a.93.93,0,0,0-1.77,0c-2,4.4-7.22,16.79-7.22,35.16,0,23.18,4.6,29.5,4.6,29.5a7,7,0,0,0,6.89,0s4-6.32,4-29.5C216.51,782.43,212,770,210,765.64Z"/><path class="cls-19" d="M210,765.63a.94.94,0,0,0-1.77,0c-2,4.39-7.19,16.73-7.19,35,0,23.09,4.58,29.39,4.58,29.39a6.93,6.93,0,0,0,6.86,0s4-6.3,4-29.39C216.47,782.36,212,770,210,765.63Z"/><path class="cls-19" d="M210,765.63a.94.94,0,0,0-1.77,0c-2,4.37-7.17,16.66-7.17,34.89,0,23,4.57,29.27,4.57,29.27a6.9,6.9,0,0,0,6.83,0s4-6.27,4-29.27C216.44,782.29,212,770,210,765.63Z"/><path class="cls-20" d="M210,765.63a.93.93,0,0,0-1.76,0c-2,4.35-7.14,16.6-7.14,34.75,0,22.91,4.54,29.16,4.54,29.16a6.9,6.9,0,0,0,6.81,0s4-6.25,4-29.16C216.4,782.23,212,770,210,765.63Z"/><path class="cls-21" d="M210,765.63a.92.92,0,0,0-1.75,0c-2,4.33-7.13,16.53-7.13,34.61,0,22.82,4.53,29,4.53,29a6.87,6.87,0,0,0,6.78,0s4-6.22,4-29C216.36,782.16,212,770,210,765.63Z"/><path class="cls-22" d="M210,765.62a.92.92,0,0,0-1.74,0c-2,4.32-7.11,16.47-7.11,34.48,0,22.73,4.51,28.92,4.51,28.92a6.83,6.83,0,0,0,6.76,0s3.94-6.19,3.94-28.92C216.33,782.09,212,769.94,210,765.62Z"/><path class="cls-23" d="M210,765.62a.92.92,0,0,0-1.74,0c-2,4.3-7.08,16.4-7.08,34.34,0,22.63,4.49,28.81,4.49,28.81a6.81,6.81,0,0,0,6.73,0s3.92-6.18,3.92-28.81C216.29,782,212,769.92,210,765.62Z"/><path class="cls-24" d="M210,765.62a.91.91,0,0,0-1.73,0c-2,4.28-7.06,16.33-7.06,34.2,0,22.54,4.48,28.69,4.48,28.69a6.77,6.77,0,0,0,6.7,0s3.9-6.15,3.9-28.69C216.25,782,211.94,769.9,210,765.62Z"/><path class="cls-25" d="M210,765.62a.91.91,0,0,0-1.72,0c-2,4.26-7,16.26-7,34.06,0,22.45,4.45,28.58,4.45,28.58a6.77,6.77,0,0,0,6.68,0s3.89-6.13,3.89-28.58C216.22,781.88,211.93,769.88,210,765.62Z"/><path class="cls-26" d="M210,765.61a.91.91,0,0,0-1.72,0c-2,4.26-7,16.21-7,33.93,0,22.36,4.44,28.46,4.44,28.46a6.73,6.73,0,0,0,6.65,0s3.87-6.1,3.87-28.46C216.18,781.82,211.92,769.87,210,765.61Z"/><path class="cls-27" d="M210,765.61a.91.91,0,0,0-1.71,0c-2,4.24-7,16.14-7,33.79,0,22.27,4.42,28.34,4.42,28.34a6.68,6.68,0,0,0,6.62,0s3.85-6.07,3.85-28.34C216.14,781.75,211.91,769.85,210,765.61Z"/><path class="cls-28" d="M210,765.61a.9.9,0,0,0-1.7,0c-1.95,4.22-7,16.07-7,33.65,0,22.18,4.4,28.23,4.4,28.23a6.7,6.7,0,0,0,6.6,0s3.84-6,3.84-28.23C216.11,781.68,211.9,769.83,210,765.61Z"/><path class="cls-28" d="M209.94,765.61a.89.89,0,0,0-1.69,0c-1.94,4.2-6.95,16-6.95,33.51,0,22.09,4.38,28.11,4.38,28.11a6.64,6.64,0,0,0,6.57,0s3.82-6,3.82-28.11C216.07,781.61,211.88,769.81,209.94,765.61Z"/><path class="cls-29" d="M209.94,765.6a.9.9,0,0,0-1.69,0c-1.93,4.19-6.93,15.94-6.93,33.37,0,22,4.37,28,4.37,28a6.62,6.62,0,0,0,6.54,0s3.8-6,3.8-28C216,781.54,211.87,769.79,209.94,765.6Z"/><path class="cls-30" d="M209.93,765.6a.89.89,0,0,0-1.68,0c-1.92,4.17-6.91,15.87-6.91,33.23,0,21.91,4.35,27.89,4.35,27.89a6.59,6.59,0,0,0,6.51,0s3.8-6,3.8-27.89C216,781.47,211.86,769.77,209.93,765.6Z"/><path class="cls-31" d="M209.93,765.6a.88.88,0,0,0-1.67,0c-1.92,4.15-6.89,15.8-6.89,33.09,0,21.82,4.33,27.77,4.33,27.77a6.53,6.53,0,0,0,6.48,0s3.78-6,3.78-27.77C216,781.4,211.85,769.75,209.93,765.6Z"/><path class="cls-32" d="M209.93,765.6a.88.88,0,0,0-1.67,0c-1.91,4.13-6.87,15.74-6.87,32.95,0,21.73,4.31,27.66,4.31,27.66a6.55,6.55,0,0,0,6.46,0s3.77-5.93,3.77-27.66C215.93,781.34,211.83,769.73,209.93,765.6Z"/><path class="cls-33" d="M209.92,765.59a.88.88,0,0,0-1.66,0c-1.9,4.12-6.84,15.68-6.84,32.82,0,21.64,4.29,27.54,4.29,27.54a6.5,6.5,0,0,0,6.43,0s3.75-5.9,3.75-27.54C215.89,781.27,211.82,769.71,209.92,765.59Z"/><path class="cls-34" d="M209.92,765.59a.88.88,0,0,0-1.66,0c-1.89,4.1-6.82,15.61-6.82,32.68,0,21.55,4.28,27.43,4.28,27.43a6.49,6.49,0,0,0,6.4,0s3.73-5.88,3.73-27.43C215.85,781.2,211.81,769.69,209.92,765.59Z"/><path class="cls-35" d="M209.91,765.59a.86.86,0,0,0-1.64,0c-1.89,4.08-6.8,15.54-6.8,32.54,0,21.46,4.25,27.31,4.25,27.31a6.46,6.46,0,0,0,6.38,0s3.72-5.85,3.72-27.31C215.82,781.13,211.8,769.67,209.91,765.59Z"/><path class="cls-36" d="M209.91,765.59a.86.86,0,0,0-1.64,0c-1.88,4.06-6.78,15.47-6.78,32.4,0,21.37,4.24,27.19,4.24,27.19a6.4,6.4,0,0,0,6.35,0s3.7-5.82,3.7-27.19C215.78,781.06,211.79,769.65,209.91,765.59Z"/><path class="cls-37" d="M209.9,765.58a.86.86,0,0,0-1.63,0,76.11,76.11,0,0,0-6.75,32.27c0,21.27,4.22,27.08,4.22,27.08a6.4,6.4,0,0,0,6.32,0s3.68-5.81,3.68-27.08C215.74,781,211.77,769.63,209.9,765.58Z"/><path class="cls-38" d="M209.9,765.58a.86.86,0,0,0-1.62,0,75.74,75.74,0,0,0-6.74,32.13c0,21.18,4.2,27,4.2,27a6.36,6.36,0,0,0,6.3,0s3.67-5.78,3.67-27C215.71,780.93,211.76,769.61,209.9,765.58Z"/><path class="cls-39" d="M209.9,765.58a.86.86,0,0,0-1.62,0,75.37,75.37,0,0,0-6.72,32c0,21.09,4.19,26.84,4.19,26.84a6.33,6.33,0,0,0,6.27,0s3.65-5.75,3.65-26.84C215.67,780.86,211.75,769.59,209.9,765.58Z"/><path class="cls-40" d="M209.89,765.58a.85.85,0,0,0-1.61,0,75,75,0,0,0-6.69,31.85c0,21,4.17,26.73,4.17,26.73a6.31,6.31,0,0,0,6.24,0s3.63-5.73,3.63-26.73C215.63,780.79,211.74,769.57,209.89,765.58Z"/><path class="cls-41" d="M209.89,765.57a.85.85,0,0,0-1.61,0,74.78,74.78,0,0,0-6.67,31.72c0,20.91,4.15,26.61,4.15,26.61a6.3,6.3,0,0,0,6.22,0s3.62-5.7,3.62-26.61C215.6,780.72,211.72,769.55,209.89,765.57Z"/><path class="cls-42" d="M209.88,765.57a.84.84,0,0,0-1.59,0,74.25,74.25,0,0,0-6.65,31.58c0,20.82,4.13,26.5,4.13,26.5a6.27,6.27,0,0,0,6.19,0s3.6-5.68,3.6-26.5C215.56,780.65,211.71,769.53,209.88,765.57Z"/><path class="cls-43" d="M209.88,765.57a.84.84,0,0,0-1.59,0A73.88,73.88,0,0,0,201.66,797c0,20.73,4.11,26.38,4.11,26.38a6.26,6.26,0,0,0,6.17,0s3.59-5.65,3.59-26.38C215.53,780.58,211.7,769.51,209.88,765.57Z"/><path class="cls-44" d="M209.87,765.57a.83.83,0,0,0-1.58,0,73.6,73.6,0,0,0-6.6,31.3c0,20.64,4.09,26.26,4.09,26.26a6.2,6.2,0,0,0,6.14,0s3.57-5.62,3.57-26.26C215.49,780.52,211.69,769.49,209.87,765.57Z"/><path class="cls-45" d="M209.87,765.56a.83.83,0,0,0-1.57,0,73.13,73.13,0,0,0-6.59,31.17c0,20.54,4.08,26.15,4.08,26.15a6.16,6.16,0,0,0,6.1,0s3.56-5.61,3.56-26.15C215.45,780.45,211.68,769.47,209.87,765.56Z"/><path class="cls-46" d="M209.87,765.56a.83.83,0,0,0-1.57,0,72.76,72.76,0,0,0-6.57,31c0,20.45,4.06,26,4.06,26a6.15,6.15,0,0,0,6.08,0s3.55-5.58,3.55-26C215.42,780.38,211.66,769.45,209.87,765.56Z"/><path class="cls-47" d="M209.86,765.56a.82.82,0,0,0-1.56,0,72.44,72.44,0,0,0-6.54,30.89c0,20.36,4,25.92,4,25.92a6.12,6.12,0,0,0,6,0s3.53-5.56,3.53-25.92C215.38,780.31,211.65,769.43,209.86,765.56Z"/><path class="cls-48" d="M209.86,765.56a.82.82,0,0,0-1.56,0,72.07,72.07,0,0,0-6.52,30.75c0,20.27,4,25.8,4,25.8a6.09,6.09,0,0,0,6,0s3.51-5.53,3.51-25.8C215.34,780.24,211.64,769.41,209.86,765.56Z"/><path class="cls-48" d="M209.85,765.55a.82.82,0,0,0-1.54,0,71.65,71.65,0,0,0-6.5,30.62c0,20.18,4,25.68,4,25.68a6.06,6.06,0,0,0,6,0s3.5-5.5,3.5-25.68C215.31,780.17,211.63,769.39,209.85,765.55Z"/><path class="cls-49" d="M209.85,765.55a.82.82,0,0,0-1.54,0A71.32,71.32,0,0,0,201.83,796c0,20.09,4,25.57,4,25.57a6.05,6.05,0,0,0,6,0s3.48-5.48,3.48-25.57C215.27,780.11,211.61,769.37,209.85,765.55Z"/><path class="cls-50" d="M209.85,765.55a.82.82,0,0,0-1.54,0,71,71,0,0,0-6.45,30.34c0,20,4,25.45,4,25.45a6,6,0,0,0,6,0s3.46-5.45,3.46-25.45C215.23,780,211.6,769.35,209.85,765.55Z"/><path class="cls-51" d="M209.84,765.55a.81.81,0,0,0-1.53,0,70.79,70.79,0,0,0-6.43,30.2c0,19.91,4,25.34,4,25.34a6,6,0,0,0,5.92,0s3.45-5.43,3.45-25.34C215.2,780,211.59,769.33,209.84,765.55Z"/><path class="cls-52" d="M209.84,765.54a.8.8,0,0,0-1.52,0,70.37,70.37,0,0,0-6.41,30.07c0,19.81,3.93,25.22,3.93,25.22a6,6,0,0,0,5.89,0s3.43-5.41,3.43-25.22C215.16,779.9,211.58,769.31,209.84,765.54Z"/><path class="cls-53" d="M209.83,765.54a.8.8,0,0,0-1.51,0,70,70,0,0,0-6.39,29.92c0,19.73,3.91,25.11,3.91,25.11a5.93,5.93,0,0,0,5.87,0s3.41-5.38,3.41-25.11C215.12,779.83,211.57,769.29,209.83,765.54Z"/><path class="cls-54" d="M209.83,765.54a.8.8,0,0,0-1.51,0A69.62,69.62,0,0,0,202,795.32c0,19.64,3.9,25,3.9,25a5.92,5.92,0,0,0,5.84,0s3.4-5.36,3.4-25C215.09,779.76,211.55,769.27,209.83,765.54Z"/><path class="cls-55" d="M209.82,765.54a.78.78,0,0,0-1.49,0A69.13,69.13,0,0,0,202,795.18c0,19.55,3.88,24.88,3.88,24.88a5.87,5.87,0,0,0,5.81,0s3.38-5.33,3.38-24.88C215.05,779.7,211.54,769.25,209.82,765.54Z"/><path class="cls-56" d="M209.82,765.53a.79.79,0,0,0-1.49,0A68.87,68.87,0,0,0,202,795c0,19.46,3.86,24.76,3.86,24.76a5.86,5.86,0,0,0,5.79,0S215,814.5,215,795C215,779.63,211.53,769.23,209.82,765.53Z"/><path class="cls-57" d="M209.82,765.53a.79.79,0,0,0-1.49,0A68.55,68.55,0,0,0,202,794.9c0,19.37,3.84,24.65,3.84,24.65a5.83,5.83,0,0,0,5.76,0S215,814.27,215,794.9C215,779.56,211.52,769.21,209.82,765.53Z"/><path class="cls-58" d="M209.81,765.53a.78.78,0,0,0-1.48,0,68.18,68.18,0,0,0-6.28,29.23c0,19.28,3.83,24.53,3.83,24.53a5.8,5.8,0,0,0,5.73,0s3.33-5.25,3.33-24.53C214.94,779.49,211.5,769.19,209.81,765.53Z"/><path class="cls-59" d="M209.81,765.53a.77.77,0,0,0-1.47,0,67.65,67.65,0,0,0-6.26,29.09c0,19.19,3.8,24.42,3.8,24.42a5.77,5.77,0,0,0,5.7,0s3.33-5.23,3.33-24.42C214.91,779.42,211.49,769.17,209.81,765.53Z"/><path class="cls-60" d="M209.8,765.52a.77.77,0,0,0-1.46,0,67.39,67.39,0,0,0-6.24,29c0,19.09,3.79,24.3,3.79,24.3a5.72,5.72,0,0,0,5.67,0s3.31-5.21,3.31-24.3C214.87,779.35,211.48,769.15,209.8,765.52Z"/><path class="cls-61" d="M209.8,765.52a.77.77,0,0,0-1.46,0,67.06,67.06,0,0,0-6.22,28.82c0,19,3.77,24.18,3.77,24.18a5.71,5.71,0,0,0,5.65,0s3.29-5.18,3.29-24.18C214.83,779.29,211.47,769.13,209.8,765.52Z"/><path class="cls-62" d="M209.79,765.52a.77.77,0,0,0-1.45,0,66.74,66.74,0,0,0-6.19,28.68c0,18.91,3.75,24.07,3.75,24.07a5.68,5.68,0,0,0,5.62,0s3.28-5.16,3.28-24.07C214.8,779.22,211.46,769.11,209.79,765.52Z"/><path class="cls-63" d="M209.79,765.52a.76.76,0,0,0-1.44,0,66.17,66.17,0,0,0-6.18,28.54c0,18.82,3.74,24,3.74,24a5.65,5.65,0,0,0,5.59,0s3.26-5.13,3.26-24C214.76,779.15,211.44,769.09,209.79,765.52Z"/><path class="cls-64" d="M209.79,765.51a.76.76,0,0,0-1.44,0,66,66,0,0,0-6.15,28.41c0,18.73,3.71,23.84,3.71,23.84a5.65,5.65,0,0,0,5.57,0s3.24-5.11,3.24-23.84C214.72,779.08,211.43,769.07,209.79,765.51Z"/><path class="cls-65" d="M209.78,765.51a.76.76,0,0,0-1.43,0,65.74,65.74,0,0,0-6.13,28.27c0,18.64,3.7,23.72,3.7,23.72a5.62,5.62,0,0,0,5.54,0s3.23-5.08,3.23-23.72C214.69,779,211.42,769.05,209.78,765.51Z"/><path class="cls-66" d="M209.78,765.51a.75.75,0,0,0-1.42,0,65.22,65.22,0,0,0-6.11,28.13c0,18.55,3.68,23.6,3.68,23.6a5.56,5.56,0,0,0,5.51,0s3.21-5,3.21-23.6C214.65,778.94,211.41,769,209.78,765.51Z"/><path class="cls-66" d="M209.77,765.51a.74.74,0,0,0-1.41,0,64.9,64.9,0,0,0-6.09,28c0,18.45,3.66,23.49,3.66,23.49a5.55,5.55,0,0,0,5.49,0s3.2-5,3.2-23.49C214.62,778.88,211.39,769,209.77,765.51Z"/><path class="cls-67" d="M209.77,765.5a.75.75,0,0,0-1.41,0,64.68,64.68,0,0,0-6.06,27.86c0,18.36,3.64,23.37,3.64,23.37a5.52,5.52,0,0,0,5.46,0s3.18-5,3.18-23.37C214.58,778.81,211.38,769,209.77,765.5Z"/><path class="cls-68" d="M209.76,765.5a.74.74,0,0,0-1.4,0,64.35,64.35,0,0,0-6,27.72c0,18.27,3.63,23.26,3.63,23.26a5.49,5.49,0,0,0,5.43,0s3.16-5,3.16-23.26C214.54,778.74,211.37,769,209.76,765.5Z"/><path class="cls-69" d="M209.76,765.5a.73.73,0,0,0-1.39,0,63.78,63.78,0,0,0-6,27.58c0,18.18,3.61,23.14,3.61,23.14a5.48,5.48,0,0,0,5.41,0s3.15-5,3.15-23.14C214.51,778.67,211.36,769,209.76,765.5Z"/><path class="cls-70" d="M209.76,765.5a.73.73,0,0,0-1.39,0,63.46,63.46,0,0,0-6,27.44c0,18.09,3.59,23,3.59,23a5.43,5.43,0,0,0,5.38,0s3.13-4.93,3.13-23C214.47,778.6,211.35,768.94,209.76,765.5Z"/><path class="cls-71" d="M209.75,765.49a.73.73,0,0,0-1.38,0,63.2,63.2,0,0,0-6,27.31c0,18,3.57,22.91,3.57,22.91a5.45,5.45,0,0,0,5.36,0s3.11-4.91,3.11-22.91C214.43,778.53,211.33,768.92,209.75,765.49Z"/><path class="cls-72" d="M209.75,765.49a.73.73,0,0,0-1.38,0,62.92,62.92,0,0,0-6,27.17c0,17.91,3.55,22.79,3.55,22.79a5.39,5.39,0,0,0,5.33,0s3.1-4.88,3.1-22.79C214.4,778.47,211.32,768.9,209.75,765.49Z"/><path class="cls-73" d="M209.74,765.49a.72.72,0,0,0-1.36,0,62.35,62.35,0,0,0-5.94,27c0,17.82,3.54,22.68,3.54,22.68a5.35,5.35,0,0,0,5.29,0s3.09-4.86,3.09-22.68C214.36,778.4,211.31,768.88,209.74,765.49Z"/><path class="cls-74" d="M209.74,765.49a.72.72,0,0,0-1.36,0,62,62,0,0,0-5.91,26.89c0,17.72,3.51,22.56,3.51,22.56a5.34,5.34,0,0,0,5.27,0s3.07-4.84,3.07-22.56C214.32,778.33,211.3,768.86,209.74,765.49Z"/><path class="cls-75" d="M209.74,765.48a.72.72,0,0,0-1.36,0,61.77,61.77,0,0,0-5.89,26.76c0,17.63,3.5,22.44,3.5,22.44a5.28,5.28,0,0,0,5.24,0s3.06-4.81,3.06-22.44C214.29,778.26,211.28,768.84,209.74,765.48Z"/><path class="cls-76" d="M209.73,765.48a.71.71,0,0,0-1.34,0,61.25,61.25,0,0,0-5.87,26.62c0,17.54,3.48,22.33,3.48,22.33a5.28,5.28,0,0,0,5.21,0s3-4.79,3-22.33C214.25,778.19,211.27,768.82,209.73,765.48Z"/><path class="cls-77" d="M209.73,765.48a.71.71,0,0,0-1.34,0A60.88,60.88,0,0,0,202.54,792c0,17.45,3.46,22.21,3.46,22.21a5.24,5.24,0,0,0,5.19,0s3-4.76,3-22.21C214.21,778.12,211.26,768.8,209.73,765.48Z"/><path class="cls-77" d="M209.72,765.48a.7.7,0,0,0-1.33,0,60.69,60.69,0,0,0-5.83,26.33c0,17.37,3.45,22.1,3.45,22.1a5.21,5.21,0,0,0,5.16,0s3-4.73,3-22.1C214.18,778.06,211.25,768.78,209.72,765.48Z"/><path class="cls-78" d="M209.72,765.47a.7.7,0,0,0-1.33,0,60.47,60.47,0,0,0-5.8,26.2c0,17.28,3.43,22,3.43,22a5.18,5.18,0,0,0,5.13,0s3-4.71,3-22C214.14,778,211.24,768.76,209.72,765.47Z"/><path class="cls-79" d="M209.71,765.47a.69.69,0,0,0-1.31,0,59.91,59.91,0,0,0-5.79,26.06c0,17.19,3.41,21.87,3.41,21.87a5.18,5.18,0,0,0,5.11,0s3-4.68,3-21.87C214.11,777.92,211.22,768.74,209.71,765.47Z"/><path class="cls-80" d="M209.71,765.47a.69.69,0,0,0-1.31,0,59.59,59.59,0,0,0-5.76,25.92c0,17.1,3.39,21.76,3.39,21.76a5.15,5.15,0,0,0,5.08,0s3-4.66,3-21.76C214.07,777.85,211.21,768.72,209.71,765.47Z"/><path class="cls-80" d="M209.71,765.47a.69.69,0,0,0-1.31,0,59.22,59.22,0,0,0-5.74,25.78c0,17,3.37,21.64,3.37,21.64a5.11,5.11,0,0,0,5.06,0s2.94-4.64,2.94-21.64C214,777.78,211.2,768.7,209.71,765.47Z"/><path class="cls-81" d="M209.7,765.46a.69.69,0,0,0-1.3,0,59,59,0,0,0-5.71,25.65c0,16.91,3.35,21.52,3.35,21.52a5.08,5.08,0,0,0,5,0S214,808,214,791.11C214,777.71,211.19,768.68,209.7,765.46Z"/><path class="cls-82" d="M209.7,765.46a.68.68,0,0,0-1.29,0,58.48,58.48,0,0,0-5.7,25.51c0,16.82,3.34,21.41,3.34,21.41a5.06,5.06,0,0,0,5,0S214,807.79,214,791C214,777.65,211.17,768.66,209.7,765.46Z"/><path class="cls-83" d="M209.69,765.46a.68.68,0,0,0-1.28,0,58.12,58.12,0,0,0-5.68,25.37c0,16.73,3.32,21.29,3.32,21.29a5,5,0,0,0,5,0s2.89-4.56,2.89-21.29C213.92,777.58,211.16,768.64,209.69,765.46Z"/><path class="cls-84" d="M209.69,765.46a.68.68,0,0,0-1.28,0,57.8,57.8,0,0,0-5.65,25.23c0,16.64,3.3,21.18,3.3,21.18a5,5,0,0,0,4.95,0s2.88-4.54,2.88-21.18C213.89,777.51,211.15,768.62,209.69,765.46Z"/><path class="cls-85" d="M209.68,765.45a.67.67,0,0,0-1.26,0,57.34,57.34,0,0,0-5.64,25.1c0,16.55,3.29,21.06,3.29,21.06a5,5,0,0,0,4.92,0s2.86-4.51,2.86-21.06C213.85,777.44,211.14,768.6,209.68,765.45Z"/><path class="cls-86" d="M209.68,765.45a.67.67,0,0,0-1.26,0,57,57,0,0,0-5.61,25c0,16.46,3.26,20.94,3.26,20.94a4.94,4.94,0,0,0,4.89,0s2.85-4.48,2.85-20.94C213.81,777.37,211.13,768.58,209.68,765.45Z"/><path class="cls-87" d="M209.68,765.45a.67.67,0,0,0-1.26,0,56.65,56.65,0,0,0-5.59,24.82c0,16.36,3.25,20.83,3.25,20.83a4.91,4.91,0,0,0,4.86,0s2.84-4.47,2.84-20.83C213.78,777.3,211.11,768.56,209.68,765.45Z"/><path class="cls-88" d="M209.67,765.45a.66.66,0,0,0-1.25,0,56.37,56.37,0,0,0-5.56,24.68c0,16.27,3.23,20.71,3.23,20.71a4.88,4.88,0,0,0,4.83,0s2.82-4.44,2.82-20.71C213.74,777.24,211.1,768.54,209.67,765.45Z"/><path class="cls-89" d="M209.67,765.44a.66.66,0,0,0-1.24,0A56.06,56.06,0,0,0,202.88,790c0,16.18,3.21,20.6,3.21,20.6a4.87,4.87,0,0,0,4.81,0s2.8-4.42,2.8-20.6C213.7,777.17,211.09,768.52,209.67,765.44Z"/><path class="cls-89" d="M209.66,765.44a.65.65,0,0,0-1.23,0,55.74,55.74,0,0,0-5.52,24.41c0,16.09,3.19,20.48,3.19,20.48a4.84,4.84,0,0,0,4.78,0s2.79-4.39,2.79-20.48C213.67,777.1,211.08,768.5,209.66,765.44Z"/><path class="cls-90" d="M209.66,765.44a.65.65,0,0,0-1.23,0,55.37,55.37,0,0,0-5.5,24.27c0,16,3.17,20.36,3.17,20.36a4.8,4.8,0,0,0,4.76,0s2.77-4.36,2.77-20.36C213.63,777,211.06,768.48,209.66,765.44Z"/><path class="cls-91" d="M209.65,765.44a.64.64,0,0,0-1.22,0A55,55,0,0,0,203,789.57c0,15.91,3.16,20.25,3.16,20.25a4.81,4.81,0,0,0,4.73,0s2.76-4.34,2.76-20.25C213.6,777,211.05,768.46,209.65,765.44Z"/><path class="cls-92" d="M209.65,765.43a.64.64,0,0,0-1.21,0,54.6,54.6,0,0,0-5.46,24c0,15.82,3.14,20.13,3.14,20.13a4.75,4.75,0,0,0,4.7,0s2.74-4.31,2.74-20.13C213.56,776.89,211,768.44,209.65,765.43Z"/><path class="cls-93" d="M209.65,765.43a.64.64,0,0,0-1.21,0A54.28,54.28,0,0,0,203,789.29c0,15.73,3.12,20,3.12,20a4.74,4.74,0,0,0,4.68,0s2.72-4.28,2.72-20C213.52,776.83,211,768.42,209.65,765.43Z"/><path class="cls-94" d="M209.64,765.43a.63.63,0,0,0-1.2,0A54,54,0,0,0,203,789.15c0,15.63,3.1,19.9,3.1,19.9a4.71,4.71,0,0,0,4.65,0s2.71-4.27,2.71-19.9C213.49,776.76,211,768.4,209.64,765.43Z"/><path class="cls-95" d="M209.64,765.43a.63.63,0,0,0-1.19,0,53.4,53.4,0,0,0-5.4,23.58c0,15.54,3.09,19.78,3.09,19.78a4.65,4.65,0,0,0,4.62,0s2.69-4.24,2.69-19.78C213.45,776.69,211,768.38,209.64,765.43Z"/><path class="cls-95" d="M209.63,765.42a.62.62,0,0,0-1.18,0,53.18,53.18,0,0,0-5.37,23.45c0,15.45,3.06,19.67,3.06,19.67a4.67,4.67,0,0,0,4.6,0s2.67-4.22,2.67-19.67C213.41,776.62,211,768.36,209.63,765.42Z"/><path class="cls-96" d="M209.63,765.42a.62.62,0,0,0-1.18,0,52.81,52.81,0,0,0-5.35,23.31c0,15.36,3.05,19.55,3.05,19.55a4.61,4.61,0,0,0,4.57,0s2.66-4.19,2.66-19.55C213.38,776.55,211,768.34,209.63,765.42Z"/><path class="cls-97" d="M209.62,765.42a.62.62,0,0,0-1.17,0,52.49,52.49,0,0,0-5.32,23.17c0,15.27,3,19.43,3,19.43a4.59,4.59,0,0,0,4.54,0s2.64-4.16,2.64-19.43C213.34,776.48,211,768.32,209.62,765.42Z"/><path class="cls-98" d="M209.62,765.42a.61.61,0,0,0-1.16,0,52,52,0,0,0-5.31,23c0,15.18,3,19.32,3,19.32a4.58,4.58,0,0,0,4.52,0s2.62-4.14,2.62-19.32C213.3,776.42,211,768.3,209.62,765.42Z"/><path class="cls-99" d="M209.62,765.41a.61.61,0,0,0-1.16,0,51.7,51.7,0,0,0-5.29,22.89c0,15.1,3,19.21,3,19.21a4.53,4.53,0,0,0,4.48,0s2.62-4.11,2.62-19.21C213.27,776.35,210.94,768.28,209.62,765.41Z"/><path class="cls-100" d="M209.61,765.41a.61.61,0,0,0-1.15,0,51.38,51.38,0,0,0-5.26,22.75c0,15,3,19.1,3,19.1a4.52,4.52,0,0,0,4.46,0s2.6-4.09,2.6-19.1C213.23,776.28,210.93,768.26,209.61,765.41Z"/><path class="cls-100" d="M209.61,765.41a.61.61,0,0,0-1.15,0A51.16,51.16,0,0,0,203.22,788c0,14.91,3,19,3,19a4.47,4.47,0,0,0,4.43,0s2.59-4.07,2.59-19C213.2,776.21,210.92,768.24,209.61,765.41Z"/><path class="cls-101" d="M209.6,765.41a.59.59,0,0,0-1.13,0,50.65,50.65,0,0,0-5.22,22.47c0,14.82,2.94,18.86,2.94,18.86a4.44,4.44,0,0,0,4.4,0s2.57-4,2.57-18.86C213.16,776.14,210.91,768.22,209.6,765.41Z"/><path class="cls-102" d="M209.6,765.4a.6.6,0,0,0-1.13,0,50.39,50.39,0,0,0-5.2,22.34c0,14.73,2.92,18.75,2.92,18.75a4.43,4.43,0,0,0,4.38,0s2.55-4,2.55-18.75C213.12,776.07,210.89,768.2,209.6,765.4Z"/><path class="cls-103" d="M209.6,765.4a.6.6,0,0,0-1.13,0,50.11,50.11,0,0,0-5.17,22.2c0,14.64,2.9,18.63,2.9,18.63a4.4,4.4,0,0,0,4.35,0s2.54-4,2.54-18.63C213.09,776,210.88,768.18,209.6,765.4Z"/><path class="cls-104" d="M209.59,765.4a.59.59,0,0,0-1.11,0,49.56,49.56,0,0,0-5.16,22.06c0,14.55,2.89,18.52,2.89,18.52a4.37,4.37,0,0,0,4.32,0s2.52-4,2.52-18.52C213.05,775.94,210.87,768.16,209.59,765.4Z"/><path class="cls-105" d="M209.59,765.4a.59.59,0,0,0-1.11,0,49.2,49.2,0,0,0-5.14,21.92c0,14.46,2.87,18.4,2.87,18.4a4.36,4.36,0,0,0,4.3,0s2.5-3.94,2.5-18.4C213,775.87,210.86,768.14,209.59,765.4Z"/><path class="cls-106" d="M209.58,765.39a.58.58,0,0,0-1.1,0,49,49,0,0,0-5.11,21.79c0,14.37,2.85,18.28,2.85,18.28a4.31,4.31,0,0,0,4.27,0s2.49-3.91,2.49-18.28C213,775.8,210.84,768.12,209.58,765.39Z"/><path class="cls-107" d="M209.58,765.39a.58.58,0,0,0-1.1,0A48.61,48.61,0,0,0,203.39,787c0,14.27,2.84,18.17,2.84,18.17a4.31,4.31,0,0,0,4.24,0s2.47-3.9,2.47-18.17C212.94,775.73,210.83,768.1,209.58,765.39Z"/><path class="cls-108" d="M209.57,765.39a.57.57,0,0,0-1.08,0,48.15,48.15,0,0,0-5.07,21.51c0,14.18,2.81,18.05,2.81,18.05a4.27,4.27,0,0,0,4.22,0s2.45-3.87,2.45-18.05C212.9,775.66,210.82,768.09,209.57,765.39Z"/><path class="cls-109" d="M209.57,765.39a.57.57,0,0,0-1.08,0,47.78,47.78,0,0,0-5.05,21.37c0,14.09,2.8,17.94,2.8,17.94a4.24,4.24,0,0,0,4.19,0s2.44-3.85,2.44-17.94C212.87,775.59,210.81,768.07,209.57,765.39Z"/><path class="cls-110" d="M209.57,765.38a.57.57,0,0,0-1.08,0,47.6,47.6,0,0,0-5,21.24c0,14,2.77,17.82,2.77,17.82a4.24,4.24,0,0,0,4.17,0s2.42-3.82,2.42-17.82C212.83,775.53,210.8,768.05,209.57,765.38Z"/><path class="cls-111" d="M209.56,765.38a.57.57,0,0,0-1.07,0,47.24,47.24,0,0,0-5,21.1c0,13.91,2.76,17.7,2.76,17.7a4.18,4.18,0,0,0,4.14,0s2.4-3.79,2.4-17.7C212.79,775.46,210.78,768,209.56,765.38Z"/><path class="cls-112" d="M209.56,765.38a.56.56,0,0,0-1.06,0,46.74,46.74,0,0,0-5,21c0,13.82,2.74,17.59,2.74,17.59a4.17,4.17,0,0,0,4.11,0s2.39-3.77,2.39-17.59C212.76,775.39,210.77,768,209.56,765.38Z"/><path class="cls-113" d="M209.55,765.38a.55.55,0,0,0-1.05,0,46.37,46.37,0,0,0-5,20.82c0,13.73,2.72,17.47,2.72,17.47a4.12,4.12,0,0,0,4.08,0s2.38-3.74,2.38-17.47C212.72,775.32,210.76,768,209.55,765.38Z"/><path class="cls-114" d="M209.55,765.37a.56.56,0,0,0-1.05,0,46.25,46.25,0,0,0-4.94,20.69c0,13.64,2.71,17.35,2.71,17.35a4.1,4.1,0,0,0,4,0s2.37-3.71,2.37-17.35C212.69,775.25,210.75,768,209.55,765.37Z"/><path class="cls-115" d="M209.54,765.37a.54.54,0,0,0-1,0,45.75,45.75,0,0,0-4.92,20.55c0,13.54,2.69,17.24,2.69,17.24a4.06,4.06,0,0,0,4,0s2.35-3.7,2.35-17.24C212.65,775.18,210.73,768,209.54,765.37Z"/><path class="cls-115" d="M209.54,765.37a.54.54,0,0,0-1,0,45.43,45.43,0,0,0-4.9,20.41c0,13.45,2.67,17.12,2.67,17.12a4,4,0,0,0,4,0s2.33-3.67,2.33-17.12C212.61,775.12,210.72,767.93,209.54,765.37Z"/><path class="cls-116" d="M209.54,765.37a.54.54,0,0,0-1,0,45.11,45.11,0,0,0-4.87,20.27c0,13.36,2.65,17,2.65,17a4,4,0,0,0,4,0s2.32-3.65,2.32-17C212.58,775.05,210.71,767.91,209.54,765.37Z"/><path class="cls-117" d="M209.53,765.36a.54.54,0,0,0-1,0,44.84,44.84,0,0,0-4.85,20.14c0,13.27,2.64,16.89,2.64,16.89a4,4,0,0,0,3.94,0s2.3-3.62,2.3-16.89C212.54,775,210.7,767.89,209.53,765.36Z"/><path class="cls-118" d="M209.53,765.36a.53.53,0,0,0-1,0,44.34,44.34,0,0,0-4.83,20c0,13.18,2.61,16.77,2.61,16.77a4,4,0,0,0,3.92,0s2.28-3.59,2.28-16.77C212.5,774.91,210.69,767.87,209.53,765.36Z"/><path class="cls-119" d="M209.52,765.36a.53.53,0,0,0-1,0,44,44,0,0,0-4.81,19.86c0,13.09,2.6,16.66,2.6,16.66a3.93,3.93,0,0,0,3.89,0s2.27-3.57,2.27-16.66C212.47,774.84,210.67,767.85,209.52,765.36Z"/><path class="cls-120" d="M209.52,765.36a.53.53,0,0,0-1,0,43.66,43.66,0,0,0-4.78,19.72c0,13,2.57,16.54,2.57,16.54a3.93,3.93,0,0,0,3.87,0s2.25-3.54,2.25-16.54C212.43,774.77,210.66,767.83,209.52,765.36Z"/><path class="cls-121" d="M209.51,765.35a.52.52,0,0,0-1,0,43.44,43.44,0,0,0-4.76,19.59c0,12.91,2.56,16.43,2.56,16.43a3.9,3.9,0,0,0,3.84,0s2.23-3.52,2.23-16.43C212.39,774.71,210.65,767.81,209.51,765.35Z"/><path class="cls-122" d="M209.51,765.35a.52.52,0,0,0-1,0,42.9,42.9,0,0,0-4.75,19.45c0,12.81,2.55,16.31,2.55,16.31a3.84,3.84,0,0,0,3.81,0s2.22-3.5,2.22-16.31C212.36,774.64,210.64,767.79,209.51,765.35Z"/><path class="cls-123" d="M209.51,765.35a.52.52,0,0,0-1,0,42.57,42.57,0,0,0-4.72,19.3c0,12.73,2.52,16.2,2.52,16.2a3.83,3.83,0,0,0,3.79,0s2.2-3.47,2.2-16.2C212.32,774.57,210.62,767.77,209.51,765.35Z"/><path class="cls-124" d="M209.5,765.35a.51.51,0,0,0-1,0,42.21,42.21,0,0,0-4.7,19.16c0,12.64,2.51,16.09,2.51,16.09a3.8,3.8,0,0,0,3.76,0s2.18-3.45,2.18-16.09C212.28,774.5,210.61,767.75,209.5,765.35Z"/><path class="cls-124" d="M209.5,765.34a.51.51,0,0,0-1,0,41.81,41.81,0,0,0-4.68,19c0,12.55,2.49,16,2.49,16a3.77,3.77,0,0,0,3.73,0s2.17-3.42,2.17-16C212.25,774.43,210.6,767.73,209.5,765.34Z"/><path class="cls-1" d="M215.86,835.65A105.67,105.67,0,0,0,218,821.51a133.61,133.61,0,0,0-1.12-33.78c-.51-3.08-5.35-19.49-5.74-19.57-2-.38-7.6,12.67-9.46,26.92A144.57,144.57,0,0,0,200.49,813a116.48,116.48,0,0,0,2.37,22.62c-.08-.44,1.84.15,4.45.55S213.21,836.82,215.86,835.65Z"/><path class="cls-2" d="M216.88,787.73c-.51-3.08-5.31-19.23-5.7-19.28-1.52-.18-5.17,7.4-7.61,17.4a89.49,89.49,0,0,0-1.74,9.29,144,144,0,0,0-1.18,17.78A114.52,114.52,0,0,0,203,835.34c-.08-.44,1.83.15,4.42.54s5.83.59,8.45-.59a97.27,97.27,0,0,0,1.82-11.11c.11-.93.21-1.9.31-2.92A133.37,133.37,0,0,0,216.88,787.73Z"/><path class="cls-3" d="M216.87,787.74c-.51-3.08-5.25-19-5.64-19-1.52-.07-5.12,7.34-7.52,17.25a87.55,87.55,0,0,0-1.73,9.19,141.87,141.87,0,0,0-1.17,17.63A113.24,113.24,0,0,0,203.1,835c-.08-.43,1.82.15,4.4.53s5.75.57,8.34-.63a95.93,95.93,0,0,0,1.81-11c.11-.92.21-1.88.3-2.9A132,132,0,0,0,216.87,787.74Z"/><path class="cls-4" d="M216.86,787.74c-.5-3.07-5.18-18.71-5.59-18.7-1.5,0-5.05,7.3-7.43,17.1a86,86,0,0,0-1.71,9.11A141.31,141.31,0,0,0,201,812.71a111.23,111.23,0,0,0,2.25,22c-.07-.42,1.81.15,4.37.52s5.68.55,8.24-.67a95.15,95.15,0,0,0,1.8-10.94q.15-1.36.3-2.88A130.44,130.44,0,0,0,216.86,787.74Z"/><path class="cls-125" d="M216.86,787.74c-.51-3.07-5.14-18.53-5.54-18.41-1.47-.19-5,7.25-7.35,16.95a87.12,87.12,0,0,0-1.69,9,140.67,140.67,0,0,0-1.15,17.3,109.16,109.16,0,0,0,2.21,21.8c-.07-.42,1.79.15,4.34.51s5.62.52,8.15-.7a99.47,99.47,0,0,0,1.78-10.86c.1-.91.2-1.86.29-2.86A129.66,129.66,0,0,0,216.86,787.74Z"/><path class="cls-5" d="M216.85,787.74c-.51-3.06-5.08-18.29-5.49-18.12-1.45-.16-4.93,7.2-7.26,16.8a88.28,88.28,0,0,0-1.67,9,140,140,0,0,0-1.15,17.13,108,108,0,0,0,2.18,21.6c-.06-.41,1.78.15,4.32.5s5.54.5,8-.74a98.07,98.07,0,0,0,1.77-10.78c.1-.9.2-1.84.29-2.83A129,129,0,0,0,216.85,787.74Z"/><path class="cls-6" d="M216.84,787.74c-.5-3.06-5-18-5.43-17.82-1.44-.14-4.88,7.15-7.17,16.64a84.84,84.84,0,0,0-1.66,8.86,139.84,139.84,0,0,0-1.14,17,106.69,106.69,0,0,0,2.13,21.39c0-.41,1.78.15,4.3.49s5.47.47,7.94-.78a96.09,96.09,0,0,0,1.75-10.69c.11-.89.2-1.83.3-2.81A128.37,128.37,0,0,0,216.84,787.74Z"/><path class="cls-7" d="M216.83,787.75c-.5-3.06-5-17.82-5.38-17.54-1.42-.12-4.81,7.1-7.08,16.49a85.46,85.46,0,0,0-1.64,8.78,137.31,137.31,0,0,0-1.13,16.81,105.48,105.48,0,0,0,2.09,21.19c-.05-.4,1.77.15,4.28.48s5.39.45,7.83-.81a95.82,95.82,0,0,0,1.74-10.61c.1-.89.2-1.82.29-2.79A126.17,126.17,0,0,0,216.83,787.75Z"/><path class="cls-8" d="M216.83,787.75c-.5-3.06-4.92-17.57-5.33-17.25-1.41-.09-4.76,7.06-7,16.34a84.44,84.44,0,0,0-1.61,8.7,134.73,134.73,0,0,0-1.13,16.65,103.53,103.53,0,0,0,2.05,21c0-.4,1.76.15,4.25.47s5.32.42,7.74-.85a99.83,99.83,0,0,0,1.72-10.53c.1-.88.2-1.8.29-2.76A125.93,125.93,0,0,0,216.83,787.75Z"/><path class="cls-8" d="M216.82,787.75c-.5-3-4.86-17.33-5.28-17-1.39-.07-4.69,7-6.91,16.18a83.2,83.2,0,0,0-1.59,8.61,138.47,138.47,0,0,0-1.13,16.49,103.92,103.92,0,0,0,2,20.78c0-.39,1.74.15,4.22.47,2.32.29,5.26.39,7.64-.9A95.38,95.38,0,0,0,217.5,822c.1-.87.19-1.79.28-2.75A124.68,124.68,0,0,0,216.82,787.75Z"/><path class="cls-9" d="M216.81,787.75c-.5-3-4.8-17.09-5.22-16.66-1.37,0-4.64,6.95-6.82,16a81.65,81.65,0,0,0-1.58,8.53A138,138,0,0,0,202.07,812a102.7,102.7,0,0,0,2,20.57c0-.38,1.73.15,4.2.46,2.28.28,5.18.36,7.53-.94a97.08,97.08,0,0,0,1.7-10.35c.1-.87.19-1.78.28-2.73A124,124,0,0,0,216.81,787.75Z"/><path class="cls-9" d="M216.8,787.75c-.49-3-4.74-16.85-5.17-16.37-1.35,0-4.58,6.91-6.73,15.88a82.78,82.78,0,0,0-1.56,8.45,137.57,137.57,0,0,0-1.11,16.16,100.8,100.8,0,0,0,1.94,20.37c0-.38,1.72.15,4.17.45,2.25.27,5.11.34,7.44-1a97.85,97.85,0,0,0,1.67-10.28c.1-.86.2-1.76.28-2.7A122.38,122.38,0,0,0,216.8,787.75Z"/><path class="cls-10" d="M216.8,787.76c-.5-3-4.69-16.61-5.13-16.09-1.33,0-4.51,6.86-6.64,15.74a80.84,80.84,0,0,0-1.54,8.35,135.17,135.17,0,0,0-1.1,16,99.71,99.71,0,0,0,1.89,20.17c0-.38,1.72.14,4.16.43,2.21.26,5,.31,7.33-1a99.74,99.74,0,0,0,1.66-10.19c.1-.85.19-1.75.28-2.68A121.58,121.58,0,0,0,216.8,787.76Z"/><path class="cls-11" d="M216.79,787.76c-.49-3-4.64-16.37-5.07-15.79-1.32,0-4.46,6.81-6.56,15.58a82,82,0,0,0-1.52,8.27,136.78,136.78,0,0,0-1.1,15.84,99.33,99.33,0,0,0,1.86,20c0-.38,1.71.14,4.13.42,2.18.25,5,.29,7.23-1a95.69,95.69,0,0,0,1.65-10.1c.1-.85.19-1.74.28-2.66A120.93,120.93,0,0,0,216.79,787.76Z"/><path class="cls-12" d="M216.78,787.76c-.49-3-4.58-16.13-5-15.5-1.3.06-4.39,6.76-6.46,15.43a80.94,80.94,0,0,0-1.51,8.19,136.55,136.55,0,0,0-1.09,15.68,97.42,97.42,0,0,0,1.82,19.76c0-.37,1.69.14,4.1.41,2.15.24,4.9.26,7.13-1.09a97.49,97.49,0,0,0,1.64-10c.09-.84.19-1.71.27-2.63A119.3,119.3,0,0,0,216.78,787.76Z"/><path class="cls-13" d="M216.78,787.76c-.49-3-4.53-15.89-5-15.21-1.29.08-4.34,6.71-6.38,15.28a79.18,79.18,0,0,0-1.49,8.1,134.24,134.24,0,0,0-1.08,15.52A95.58,95.58,0,0,0,204.64,831c0-.37,1.68.14,4.08.4,2.12.23,4.82.24,7-1.12a99.19,99.19,0,0,0,1.62-9.94q.13-1.25.27-2.61A119.06,119.06,0,0,0,216.78,787.76Z"/><path class="cls-126" d="M216.77,787.76c-.49-3-4.47-15.64-4.92-14.92-1.27.11-4.27,6.67-6.29,15.13a80.93,80.93,0,0,0-1.47,8A136.15,136.15,0,0,0,203,811.35a94.42,94.42,0,0,0,1.74,19.35c0-.36,1.67.14,4.05.39a10.87,10.87,0,0,0,6.93-1.16,96.82,96.82,0,0,0,1.6-9.86q.15-1.23.27-2.58A117.89,117.89,0,0,0,216.77,787.76Z"/><path class="cls-14" d="M216.76,787.77c-.49-3-4.41-15.41-4.86-14.63-1.26.13-4.22,6.61-6.21,15-.59,2.52-1.09,5.21-1.45,7.94a133.46,133.46,0,0,0-1.06,15.19,93.26,93.26,0,0,0,1.69,19.15c0-.36,1.67.14,4,.38a10.55,10.55,0,0,0,6.83-1.2,95.42,95.42,0,0,0,1.59-9.77c.1-.82.19-1.67.27-2.57A116.62,116.62,0,0,0,216.76,787.77Z"/><path class="cls-15" d="M216.75,787.77c-.48-3-4.35-15.17-4.81-14.34-1.24.16-4.15,6.57-6.11,14.82a78.05,78.05,0,0,0-1.44,7.85,135.73,135.73,0,0,0-1.06,15A92.16,92.16,0,0,0,205,830.08c0-.35,1.65.14,4,.37a10.26,10.26,0,0,0,6.73-1.24,96.53,96.53,0,0,0,1.57-9.68q.13-1.21.27-2.55A115.51,115.51,0,0,0,216.75,787.77Z"/><path class="cls-15" d="M216.75,787.77c-.49-3-4.31-14.93-4.76-14-1.23.18-4.1,6.52-6,14.67-.58,2.47-1.07,5.1-1.42,7.77a133,133,0,0,0-1,14.87,91.07,91.07,0,0,0,1.62,18.74c0-.34,1.64.14,4,.36a10.06,10.06,0,0,0,6.63-1.27c.05-.32.9-3.91,1.56-9.61.09-.8.18-1.64.26-2.52A114.75,114.75,0,0,0,216.75,787.77Z"/><path class="cls-16" d="M216.74,787.77c-.48-3-4.25-14.69-4.71-13.76-1.21.21-4,6.47-5.94,14.52-.57,2.45-1.05,5.05-1.4,7.69a132.51,132.51,0,0,0-1,14.71,89.26,89.26,0,0,0,1.58,18.53c0-.34,1.63.14,4,.35a9.68,9.68,0,0,0,6.52-1.31,95.45,95.45,0,0,0,1.55-9.52c.09-.8.18-1.63.26-2.5A114.11,114.11,0,0,0,216.74,787.77Z"/><path class="cls-18" d="M216.73,787.77c-.48-3-4.19-14.44-4.65-13.46-1.2.23-4,6.42-5.85,14.37a75.39,75.39,0,0,0-1.39,7.6,132.2,132.2,0,0,0-1,14.54,87.51,87.51,0,0,0,1.54,18.33c0-.33,1.61.14,3.93.34a9.45,9.45,0,0,0,6.42-1.35c.06-.35.89-3.87,1.53-9.43.09-.79.18-1.62.26-2.48A112.47,112.47,0,0,0,216.73,787.77Z"/><path class="cls-127" d="M216.73,787.78c-.48-3-4.14-14.21-4.61-13.18-1.18.26-3.92,6.37-5.76,14.22-.56,2.39-1,4.93-1.37,7.51a134.73,134.73,0,0,0-1,14.38,87.15,87.15,0,0,0,1.51,18.13c0-.33,1.6.14,3.9.34a9.32,9.32,0,0,0,6.33-1.39c.06-.37.88-3.86,1.51-9.36.09-.78.18-1.6.26-2.45A111.69,111.69,0,0,0,216.73,787.78Z"/><path class="cls-19" d="M216.72,787.78c-.48-3-4.08-14-4.55-12.89-1.16.28-3.86,6.32-5.68,14.07a75.4,75.4,0,0,0-1.35,7.43,134.53,134.53,0,0,0-1,14.22,86,86,0,0,0,1.46,17.92c0-.32,1.6.14,3.89.33a9.08,9.08,0,0,0,6.22-1.43c.06-.39.87-3.84,1.5-9.27.09-.78.18-1.59.26-2.43A111,111,0,0,0,216.72,787.78Z"/><path class="cls-128" d="M216.71,787.78c-.48-3-4-13.73-4.5-12.6-1.14.31-3.8,6.28-5.59,13.92-.54,2.34-1,4.82-1.33,7.35a131.69,131.69,0,0,0-1,14,84.34,84.34,0,0,0,1.42,17.72c.05-.32,1.58.14,3.86.32a8.8,8.8,0,0,0,6.12-1.47c.07-.4.87-3.82,1.49-9.18.09-.77.17-1.58.25-2.42A109.81,109.81,0,0,0,216.71,787.78Z"/><path class="cls-21" d="M216.7,787.78c-.47-3-4-13.48-4.44-12.3-1.13.33-3.76,6.22-5.5,13.76-.54,2.31-1,4.77-1.32,7.26a131.88,131.88,0,0,0-1,13.9,83.47,83.47,0,0,0,1.38,17.52c.05-.32,1.63-.22,3.84.3a7.41,7.41,0,0,0,6-1.51c.07-.41.86-3.8,1.47-9.1.09-.76.18-1.56.26-2.39A108.69,108.69,0,0,0,216.7,787.78Z"/><path class="cls-21" d="M216.7,787.78c-.48-3-3.92-13.24-4.4-12-1.11.36-3.69,6.17-5.41,13.61-.53,2.28-1,4.71-1.3,7.18a131.72,131.72,0,0,0-1,13.73,81.8,81.8,0,0,0,1.34,17.32c.06-.32,1.61-.24,3.81.29a7.21,7.21,0,0,0,5.92-1.54c.07-.44.85-3.79,1.45-9,.09-.76.17-1.55.25-2.37A108.42,108.42,0,0,0,216.7,787.78Z"/><path class="cls-23" d="M216.69,787.79c-.48-3-3.86-13-4.34-11.73-1.1.38-3.64,6.13-5.33,13.46-.52,2.26-1,4.66-1.28,7.1a131.26,131.26,0,0,0-1,13.57,80.77,80.77,0,0,0,1.31,17.11c.06-.31,1.6-.25,3.78.28a7,7,0,0,0,5.82-1.58c.08-.45.84-3.77,1.44-8.93.09-.75.17-1.53.25-2.35A107.71,107.71,0,0,0,216.69,787.79Z"/><path class="cls-23" d="M216.68,787.79c-.47-3-3.8-12.77-4.29-11.44-1.08.41-3.58,6.08-5.24,13.31-.51,2.23-.94,4.61-1.25,7a128.65,128.65,0,0,0-1,13.41A79.77,79.77,0,0,0,206.17,827c.08-.3,1.6-.27,3.77.27a6.76,6.76,0,0,0,5.71-1.62c.08-.47.84-3.75,1.43-8.85.08-.74.17-1.51.25-2.32A107.07,107.07,0,0,0,216.68,787.79Z"/><path class="cls-24" d="M216.67,787.79c-.47-3-3.74-12.52-4.23-11.14-1.07.43-3.52,6-5.15,13.15a69.84,69.84,0,0,0-1.24,6.93,125.78,125.78,0,0,0-1,13.25,78.71,78.71,0,0,0,1.22,16.7c.08-.3,1.59-.28,3.74.26a6.62,6.62,0,0,0,5.62-1.66c.08-.48.82-3.73,1.41-8.76.08-.74.16-1.5.24-2.3A105.91,105.91,0,0,0,216.67,787.79Z"/><path class="cls-129" d="M216.67,787.79c-.48-3-3.7-12.28-4.19-10.85-1,.46-3.46,6-5.06,13-.5,2.18-.92,4.5-1.22,6.85a128.43,128.43,0,0,0-1,13.08,77.11,77.11,0,0,0,1.18,16.5c.08-.29,1.58-.29,3.72.25a6.42,6.42,0,0,0,5.51-1.69c.08-.51.82-3.72,1.39-8.68.09-.73.17-1.49.25-2.28A105.23,105.23,0,0,0,216.67,787.79Z"/><path class="cls-27" d="M216.66,787.8c-.47-3-3.64-12-4.13-10.57-1,.48-3.4,5.93-5,12.86-.49,2.15-.9,4.43-1.2,6.75-.48,4-.87,8.28-1,12.93a76.12,76.12,0,0,0,1.15,16.29c.09-.29,1.57-.31,3.69.24a6.24,6.24,0,0,0,5.41-1.73c.09-.52.81-3.7,1.38-8.6.09-.72.17-1.47.24-2.26A103.43,103.43,0,0,0,216.66,787.8Z"/><path class="cls-27" d="M216.65,787.8c-.47-3-3.58-11.81-4.08-10.28-1,.51-3.34,5.89-4.89,12.71-.48,2.12-.89,4.38-1.18,6.67-.48,4-.86,8.18-1,12.76a75.19,75.19,0,0,0,1.11,16.09c.09-.28,1.55-.32,3.66.23a6,6,0,0,0,5.31-1.77c.09-.53.81-3.68,1.37-8.51.08-.72.16-1.46.24-2.24A102.8,102.8,0,0,0,216.65,787.8Z"/><path class="cls-28" d="M216.65,787.8c-.47-3-3.53-11.56-4-10-1,.53-3.29,5.83-4.8,12.55-.48,2.1-.88,4.33-1.17,6.59-.47,3.93-.85,8.08-1,12.6a73.59,73.59,0,0,0,1.07,15.88c.1-.28,1.54-.34,3.64.22a5.85,5.85,0,0,0,5.21-1.81c.09-.55.8-3.66,1.35-8.43.08-.7.16-1.44.23-2.21A102.08,102.08,0,0,0,216.65,787.8Z"/><path class="cls-130" d="M216.64,787.8c-.47-2.95-3.47-11.32-4-9.69-1,.56-3.22,5.78-4.71,12.4-.47,2.07-.86,4.27-1.15,6.5-.47,3.89-.84,8-.94,12.44a72.75,72.75,0,0,0,1,15.68c.11-.27,1.54-.35,3.62.21a5.73,5.73,0,0,0,5.11-1.84c.09-.57.79-3.65,1.34-8.35.08-.7.16-1.43.23-2.19A101,101,0,0,0,216.64,787.8Z"/><path class="cls-131" d="M216.63,787.8c-.47-2.95-3.41-11.08-3.92-9.4-1,.58-3.17,5.74-4.63,12.25-.46,2.05-.85,4.22-1.13,6.42-.46,3.84-.83,7.88-.94,12.28a71.8,71.8,0,0,0,1,15.47c.11-.27,1.53-.36,3.59.21,1.41.38,3.39-.27,5-1.89.1-.59.79-3.63,1.32-8.26.09-.7.16-1.42.24-2.17A100.34,100.34,0,0,0,216.63,787.8Z"/><path class="cls-30" d="M216.62,787.81c-.46-2.95-3.36-10.85-3.87-9.12-1,.61-3.1,5.69-4.54,12.1-.45,2-.83,4.17-1.11,6.34-.46,3.79-.82,7.78-.93,12.11a70.94,70.94,0,0,0,1,15.27c.12-.26,1.52-.38,3.57.2,1.37.38,3.31-.3,4.9-1.93.11-.6.78-3.61,1.31-8.18.08-.68.16-1.4.23-2.14A98.63,98.63,0,0,0,216.62,787.81Z"/><path class="cls-32" d="M216.62,787.81c-.47-2.94-3.31-10.6-3.83-8.82-.93.63-3,5.64-4.44,11.94-.45,2-.82,4.11-1.1,6.26-.45,3.74-.81,7.68-.92,11.95a69.4,69.4,0,0,0,.91,15.06c.12-.25,1.5-.39,3.54.19,1.34.38,3.24-.32,4.81-2,.1-.61.77-3.59,1.29-8.09.08-.68.16-1.39.23-2.12A98.44,98.44,0,0,0,216.62,787.81Z"/><path class="cls-132" d="M216.61,787.81c-.46-2.94-3.25-10.36-3.77-8.53-.92.66-3,5.59-4.36,11.79-.44,2-.81,4.06-1.08,6.17-.44,3.7-.8,7.59-.91,11.79a68.08,68.08,0,0,0,.87,14.87c.12-.26,1.49-.42,3.52.17,1.3.37,3.16-.35,4.7-2,.11-.64.76-3.58,1.28-8,.08-.67.15-1.38.22-2.1A96.81,96.81,0,0,0,216.61,787.81Z"/><path class="cls-33" d="M216.6,787.81c-.46-2.93-3.19-10.12-3.72-8.24-.9.68-2.92,5.54-4.27,11.64-.43,1.95-.79,4-1.06,6.09-.44,3.65-.79,7.49-.9,11.63a67.21,67.21,0,0,0,.83,14.66c.13-.25,1.48-.43,3.49.16,1.27.37,3.1-.37,4.6-2,.11-.65.76-3.56,1.27-7.93.07-.66.15-1.36.22-2.08A96.11,96.11,0,0,0,216.6,787.81Z"/><path class="cls-133" d="M216.6,787.81c-.46-2.93-3.14-9.88-3.67-7.95-.89.71-2.87,5.5-4.19,11.5-.42,1.91-.77,3.94-1,6-.43,3.6-.78,7.39-.9,11.46a67.05,67.05,0,0,0,.79,14.46c.14-.25,1.48-.45,3.47.15,1.24.37,3-.4,4.51-2.08.11-.67.74-3.54,1.24-7.84.08-.66.16-1.34.23-2.06A95.45,95.45,0,0,0,216.6,787.81Z"/><path class="cls-36" d="M216.59,787.82c-.46-2.93-3.08-9.64-3.62-7.66-.87.73-2.8,5.44-4.09,11.34-.42,1.89-.77,3.89-1,5.91-.43,3.56-.76,7.3-.89,11.31a65.56,65.56,0,0,0,.75,14.25c.15-.24,1.46-.46,3.45.14,1.2.36,3-.42,4.4-2.11.11-.69.74-3.53,1.23-7.76.08-.65.15-1.33.22-2A94.22,94.22,0,0,0,216.59,787.82Z"/><path class="cls-134" d="M216.58,787.82c-.46-2.92-3-9.4-3.56-7.37-.86.76-2.75,5.39-4,11.19-.41,1.86-.75,3.83-1,5.83-.42,3.51-.75,7.2-.88,11.14a64.22,64.22,0,0,0,.71,14c.15-.24,1.45-.48,3.42.13,1.17.36,2.88-.45,4.3-2.15.12-.7.73-3.51,1.22-7.68.08-.64.15-1.31.22-2A93.12,93.12,0,0,0,216.58,787.82Z"/><path class="cls-37" d="M216.57,787.82c-.45-2.92-3-9.16-3.51-7.08-.84.78-2.68,5.35-3.92,11-.4,1.84-.73,3.78-1,5.75-.41,3.46-.74,7.09-.87,11a64.06,64.06,0,0,0,.67,13.84c.15-.23,1.44-.49,3.4.12,1.13.35,2.8-.47,4.19-2.19.12-.72.73-3.49,1.21-7.59.07-.64.15-1.3.21-2A92,92,0,0,0,216.57,787.82Z"/><path class="cls-38" d="M216.57,787.82c-.46-2.91-2.92-8.92-3.46-6.79-.83.81-2.63,5.3-3.84,10.89-.39,1.81-.72,3.73-1,5.66-.41,3.42-.73,7-.87,10.82a63.31,63.31,0,0,0,.64,13.64c.16-.23,1.43-.51,3.37.11,1.1.35,2.74-.5,4.1-2.23.12-.73.71-3.47,1.19-7.5.07-.63.14-1.29.21-2A91.81,91.81,0,0,0,216.57,787.82Z"/><path class="cls-39" d="M216.56,787.82c-.45-2.91-2.86-8.67-3.41-6.49-.81.83-2.57,5.25-3.74,10.73-.39,1.79-.71,3.67-1,5.58-.4,3.37-.72,6.9-.86,10.66a62.63,62.63,0,0,0,.59,13.43c.17-.22,1.42-.52,3.35.1,1.07.35,2.67-.52,4-2.26.13-.76.71-3.46,1.17-7.43.08-.62.15-1.27.22-1.94A90.23,90.23,0,0,0,216.56,787.82Z"/><path class="cls-41" d="M216.55,787.83c-.45-2.91-2.8-8.44-3.35-6.21-.8.86-2.51,5.2-3.66,10.58-.38,1.76-.69,3.62-.94,5.5-.4,3.32-.71,6.8-.85,10.49a61.34,61.34,0,0,0,.55,13.23c.18-.21,1.41-.53,3.33.09,1,.34,2.59-.55,3.89-2.3.13-.77.7-3.44,1.16-7.34.07-.62.15-1.26.21-1.93A88.93,88.93,0,0,0,216.55,787.83Z"/><path class="cls-135" d="M216.54,787.83c-.45-2.9-2.74-8.2-3.3-5.92-.78.88-2.45,5.15-3.57,10.43-.37,1.74-.68,3.56-.92,5.41-.39,3.28-.7,6.71-.84,10.34a60.66,60.66,0,0,0,.51,13c.18-.21,1.4-.55,3.3.08,1,.34,2.52-.57,3.79-2.34.14-.78.7-3.42,1.15-7.25.07-.61.14-1.25.21-1.91A88.32,88.32,0,0,0,216.54,787.83Z"/><path class="cls-42" d="M216.54,787.83c-.45-2.9-2.7-8-3.25-5.63-.77.91-2.39,5.11-3.49,10.28-.36,1.71-.66,3.51-.89,5.33-.39,3.24-.7,6.61-.85,10.17-.19,4.9-.18,9.52.48,12.82.18-.2,1.38-.56,3.28.08,1,.32,2.45-.6,3.69-2.39.13-.8.68-3.4,1.13-7.17.07-.6.14-1.23.2-1.88A87.64,87.64,0,0,0,216.54,787.83Z"/><path class="cls-44" d="M216.53,787.83c-.45-2.89-2.64-7.71-3.2-5.33-.75.93-2.33,5-3.39,10.13-.36,1.68-.65,3.45-.88,5.24-.39,3.19-.69,6.51-.84,10-.2,4.86-.2,9.42.44,12.61.19-.2,1.3.46,3.25.07,1,.15,2.38-.63,3.59-2.42.14-.82.68-3.39,1.12-7.09.07-.6.13-1.22.2-1.86A86.55,86.55,0,0,0,216.53,787.83Z"/><path class="cls-136" d="M216.52,787.83c-.44-2.89-2.58-7.47-3.14-5-.73,1-2.27,5-3.31,10-.35,1.65-.64,3.39-.86,5.16-.38,3.14-.68,6.41-.83,9.84-.21,4.83-.22,9.33.4,12.41.19-.19,1.29.47,3.22.06.94.14,2.31-.65,3.49-2.46.14-.84.68-3.37,1.1-7,.07-.58.14-1.2.21-1.83A85.46,85.46,0,0,0,216.52,787.83Z"/><path class="cls-46" d="M216.52,787.84c-.45-2.89-2.53-7.24-3.1-4.76-.71,1-2.21,5-3.22,9.83-.34,1.63-.62,3.34-.84,5.07-.38,3.1-.67,6.31-.82,9.69-.22,4.78-.24,9.23.35,12.21.2-.2,1.29.47,3.21,0,.9.14,2.23-.68,3.39-2.5.14-.85.66-3.36,1.08-6.92.07-.58.14-1.19.2-1.81A84.71,84.71,0,0,0,216.52,787.84Z"/><path class="cls-46" d="M216.51,787.84c-.44-2.89-2.47-7-3-4.47-.7,1-2.15,4.91-3.14,9.68-.33,1.6-.6,3.29-.82,5-.37,3.05-.66,6.21-.81,9.52-.22,4.75-.26,9.14.31,12,.21-.19,1.27.48,3.18,0,.87.13,2.16-.7,3.29-2.54.14-.86.66-3.34,1.07-6.83.07-.58.13-1.18.2-1.79A83.62,83.62,0,0,0,216.51,787.84Z"/><path class="cls-47" d="M216.5,787.84c-.44-2.88-2.42-6.76-3-4.17a36.71,36.71,0,0,0-3,9.52c-.33,1.58-.6,3.23-.81,4.91-.36,3-.65,6.11-.81,9.36-.22,4.71-.27,9,.28,11.8.21-.19,1.26.48,3.16,0,.83.13,2.09-.73,3.18-2.57.15-.89.65-3.33,1.06-6.76.06-.56.13-1.16.19-1.76A82.5,82.5,0,0,0,216.5,787.84Z"/><path class="cls-48" d="M216.49,787.84c-.44-2.87-1.91-6.37-2.93-3.88a49.83,49.83,0,0,0-3,9.37c-.32,1.55-.58,3.18-.79,4.82-.36,3-.64,6-.8,9.2-.23,4.68-.29,9,.24,11.6.22-.18,1.25.49,3.13,0,.8.12,2-.75,3.08-2.61.16-.9.65-3.31,1-6.67.07-.56.14-1.14.2-1.75A81.34,81.34,0,0,0,216.49,787.84Z"/><path class="cls-137" d="M216.49,787.85c-.44-2.88-1.88-6.15-2.89-3.6a52,52,0,0,0-2.87,9.22c-.31,1.53-.56,3.13-.77,4.74-.35,2.91-.63,5.92-.79,9-.24,4.64-.31,8.86.2,11.39.22-.17,1.24.5,3.1,0,.77.12,1.95-.78,3-2.65.15-.92.63-3.29,1-6.58.07-.56.13-1.13.19-1.73A80.12,80.12,0,0,0,216.49,787.85Z"/><path class="cls-49" d="M216.48,787.85c-.44-2.87-1.83-5.91-2.83-3.31a52.86,52.86,0,0,0-2.79,9.07c-.3,1.5-.55,3.07-.75,4.66-.35,2.86-.62,5.82-.78,8.87-.25,4.61-.33,8.77.15,11.19.23-.17,1.23.5,3.09,0,.73.11,1.87-.8,2.88-2.68.16-.94.63-3.28,1-6.51.07-.54.13-1.11.19-1.7A79.52,79.52,0,0,0,216.48,787.85Z"/><path class="cls-50" d="M216.47,787.85c-.43-2.87-1.79-5.68-2.78-3a53.86,53.86,0,0,0-2.69,8.91c-.3,1.48-.54,3-.74,4.57-.34,2.82-.61,5.73-.78,8.72-.25,4.57-.34,8.67.12,11,.24-.16,1.22.51,3.06,0,.7.11,1.8-.83,2.78-2.72.16-.95.62-3.26,1-6.42.06-.54.13-1.1.19-1.68A78.94,78.94,0,0,0,216.47,787.85Z"/><path class="cls-51" d="M216.47,787.85c-.44-2.86-1.76-5.45-2.73-2.72a55.27,55.27,0,0,0-2.61,8.76c-.29,1.45-.53,3-.72,4.49-.34,2.77-.6,5.63-.77,8.55-.25,4.54-.36,8.58.08,10.78.24-.16,1.21.52,3,0,.67.11,1.74-.85,2.68-2.76.17-1,.62-3.24,1-6.33.06-.54.12-1.09.18-1.66A77.81,77.81,0,0,0,216.47,787.85Z"/><path class="cls-52" d="M216.46,787.85c-.43-2.85-1.72-5.21-2.68-2.43a57.86,57.86,0,0,0-2.52,8.62c-.28,1.41-.51,2.9-.7,4.4-.33,2.72-.59,5.52-.76,8.39-.26,4.49-.38,8.48,0,10.57.25-.15,1.2.53,3,0,.63.1,1.66-.88,2.58-2.8.16-1,.6-3.22,1-6.25.07-.52.13-1.07.19-1.63A76.73,76.73,0,0,0,216.46,787.85Z"/><path class="cls-54" d="M216.45,787.86c-.43-2.86-1.68-5-2.63-2.15a60,60,0,0,0-2.43,8.47c-.26,1.39-.49,2.85-.68,4.31-.32,2.68-.58,5.43-.75,8.23-.27,4.46-.4,8.39,0,10.37.25-.15,1.18.53,3-.05.6.1,1.59-.9,2.48-2.83.17-1,.6-3.21,1-6.17.07-.52.13-1.06.18-1.61A75.56,75.56,0,0,0,216.45,787.86Z"/><path class="cls-54" d="M216.44,787.86c-.42-2.85-1.64-4.75-2.57-1.85a61.3,61.3,0,0,0-2.34,8.31c-.26,1.36-.49,2.79-.67,4.23-.32,2.63-.57,5.33-.74,8.06-.28,4.43-.42,8.3,0,10.17.25-.14,1.17.54,3,0,.56.08,1.51-.94,2.37-2.88.17-1,.59-3.19.94-6.08.06-.52.12-1,.18-1.6A74.41,74.41,0,0,0,216.44,787.86Z"/><path class="cls-55" d="M216.44,787.86c-.43-2.85-1.61-4.51-2.53-1.56a63.94,63.94,0,0,0-2.25,8.16c-.25,1.34-.47,2.74-.65,4.15-.31,2.58-.57,5.23-.74,7.9-.28,4.39-.43,8.2-.08,10,.27-.13,1.17.55,2.94-.06.54.08,1.44-1,2.28-2.92.17-1,.58-3.17.92-6,.06-.5.12-1,.18-1.57A74.31,74.31,0,0,0,216.44,787.86Z"/><path class="cls-56" d="M216.43,787.86c-.43-2.84-1.57-4.28-2.47-1.27a66.41,66.41,0,0,0-2.17,8c-.24,1.31-.45,2.69-.63,4.06-.31,2.54-.56,5.14-.73,7.74-.29,4.36-.45,8.11-.12,9.76.27-.13,1.15.55,2.91-.07.51.07,1.38-1,2.18-3,.18-1,.57-3.15.91-5.91.06-.5.12-1,.17-1.55A73.23,73.23,0,0,0,216.43,787.86Z"/><path class="cls-138" d="M216.42,787.86c-.42-2.83-1.53-4-2.42-1a69.1,69.1,0,0,0-2.08,7.86c-.23,1.29-.44,2.63-.61,4-.3,2.49-.55,5-.72,7.58-.3,4.32-.47,8-.16,9.55a5.07,5.07,0,0,0,2.89-.08c.47.07,1.3-1,2.07-3,.18-1.07.57-3.14.89-5.83q.09-.75.18-1.53A71.67,71.67,0,0,0,216.42,787.86Z"/><path class="cls-58" d="M216.41,787.87c-.42-2.84-1.49-3.82-2.36-.69a72.4,72.4,0,0,0-2,7.7c-.23,1.26-.43,2.58-.6,3.9-.29,2.44-.54,4.94-.71,7.41-.31,4.29-.49,7.92-.2,9.36.28-.13,1.13.56,2.86-.1.44.07,1.23-1,2-3,.19-1.09.56-3.12.88-5.75.06-.48.12-1,.17-1.5A70.51,70.51,0,0,0,216.41,787.87Z"/><path class="cls-59" d="M216.41,787.87c-.42-2.83-1.46-3.58-2.32-.4a75.77,75.77,0,0,0-1.9,7.55c-.22,1.24-.41,2.52-.58,3.82-.29,2.39-.53,4.83-.71,7.25-.31,4.25-.5,7.83-.23,9.15.28-.12,1.12.57,2.84-.11.4.06,1.15-1.06,1.87-3.07.18-1.1.55-3.1.86-5.66.06-.48.12-1,.17-1.48A70.44,70.44,0,0,0,216.41,787.87Z"/><path class="cls-60" d="M216.4,787.87c-.42-2.83-1.42-3.34-2.26-.11-.37,1.41-1.25,4.18-1.82,7.4-.21,1.21-.4,2.47-.56,3.73-.28,2.35-.52,4.74-.7,7.09-.32,4.21-.52,7.74-.27,8.95.29-.12,1.1.57,2.81-.12.37.06,1.08-1.08,1.77-3.11.19-1.12.55-3.08.85-5.58.06-.47.11-1,.17-1.45A69.38,69.38,0,0,0,216.4,787.87Z"/><path class="cls-61" d="M216.39,787.87c-.41-2.82-1.38-3.11-2.21.18-.36,1.44-1.18,4.14-1.73,7.26-.2,1.18-.38,2.41-.53,3.64-.29,2.3-.52,4.64-.7,6.93a54.31,54.31,0,0,0-.32,8.74,4.29,4.29,0,0,0,2.79-.13c.34,0,1-1.11,1.67-3.14.19-1.14.54-3.07.84-5.5.05-.46.11-.94.16-1.44A67.74,67.74,0,0,0,216.39,787.87Z"/><path class="cls-139" d="M216.39,787.87c-.41-2.82-1.35-2.87-2.16.48-.35,1.45-1.13,4.08-1.64,7.1-.2,1.15-.37,2.35-.52,3.56-.28,2.25-.51,4.54-.69,6.76a55.32,55.32,0,0,0-.36,8.54c.3-.11,1.09.59,2.77-.14.3.05.94-1.13,1.56-3.18.2-1.15.54-3,.82-5.41.06-.46.11-.93.17-1.42A67.18,67.18,0,0,0,216.39,787.87Z"/><path class="cls-63" d="M216.38,787.88c-.41-2.82-1.31-2.64-2.11.76-.34,1.48-1.06,4-1.55,7-.19,1.13-.36,2.3-.5,3.47-.27,2.21-.5,4.45-.69,6.61a57.59,57.59,0,0,0-.39,8.33,4,4,0,0,0,2.74-.15c.27,0,.87-1.16,1.47-3.22.19-1.17.52-3,.8-5.33.06-.45.11-.91.16-1.39A65.55,65.55,0,0,0,216.38,787.88Z"/><path class="cls-64" d="M216.37,787.88c-.4-2.81-1.28-2.4-2.05,1-.34,1.5-1,4-1.47,6.8-.18,1.1-.34,2.25-.48,3.39-.27,2.16-.5,4.35-.68,6.44a59.85,59.85,0,0,0-.43,8.13,3.73,3.73,0,0,0,2.72-.16c.23,0,.79-1.18,1.36-3.25.2-1.19.52-3,.79-5.25.05-.44.11-.9.16-1.37A65,65,0,0,0,216.37,787.88Z"/><path class="cls-65" d="M216.36,787.88c-.4-2.81-1.24-2.17-2,1.34-.33,1.52-.94,3.95-1.38,6.65-.17,1.08-.32,2.19-.46,3.31-.26,2.11-.49,4.25-.67,6.28a62.92,62.92,0,0,0-.47,7.92,3.58,3.58,0,0,0,2.69-.17c.2,0,.72-1.21,1.26-3.29.21-1.21.51-3,.78-5.16,0-.44.1-.89.16-1.35A64.49,64.49,0,0,0,216.36,787.88Z"/><path class="cls-66" d="M216.36,787.88c-.41-2.8-1.21-1.93-2,1.64-.32,1.54-.89,3.89-1.29,6.49-.17,1-.32,2.14-.45,3.22-.26,2.07-.48,4.16-.66,6.12a68.89,68.89,0,0,0-.52,7.72,3.46,3.46,0,0,0,2.67-.18c.17,0,.66-1.23,1.17-3.33.2-1.22.5-3,.76-5.08l.15-1.32A62.94,62.94,0,0,0,216.36,787.88Z"/><path class="cls-66" d="M216.35,787.88c-.4-2.8-1.17-1.69-1.9,1.93-.31,1.57-.82,3.84-1.2,6.34-.16,1-.3,2.08-.43,3.14-.25,2-.47,4.05-.65,6-.39,4-.65,7.07-.56,7.51a3.36,3.36,0,0,0,2.65-.18,11,11,0,0,0,1.06-3.38c.21-1.23.49-3,.74-5,.06-.42.11-.86.16-1.3A62.43,62.43,0,0,0,216.35,787.88Z"/><path class="cls-67" d="M216.34,787.89c-.4-2.8-1.13-1.46-1.84,2.21-.31,1.59-.76,3.8-1.12,6.19-.15,1-.28,2-.41,3.06-.24,2-.46,3.95-.65,5.79-.39,3.92-.66,7-.59,7.31a3.17,3.17,0,0,0,2.62-.19,13.89,13.89,0,0,0,1-3.41c.21-1.26.49-3,.73-4.91l.15-1.28A61.33,61.33,0,0,0,216.34,787.89Z"/><path class="cls-68" d="M216.34,787.89c-.4-2.8-1.11-1.22-1.8,2.5-.3,1.62-.69,3.75-1,6-.13,1-.27,2-.39,3-.24,1.93-.45,3.86-.64,5.64-.4,3.88-.68,6.88-.63,7.1a3,3,0,0,0,2.59-.2,18.81,18.81,0,0,0,.86-3.45c.22-1.27.48-2.93.72-4.83q.07-.61.15-1.26A61.27,61.27,0,0,0,216.34,787.89Z"/><path class="cls-69" d="M216.33,787.89c-.4-2.79-1.07-1-1.74,2.8-.3,1.63-.64,3.7-.94,5.88-.13.95-.26,1.92-.38,2.89-.23,1.88-.45,3.76-.63,5.47-.42,3.85-.69,6.79-.67,6.9a2.94,2.94,0,0,0,2.57-.21,35.07,35.07,0,0,0,.76-3.49c.21-1.29.47-2.91.7-4.74.05-.4.1-.82.14-1.24A59.75,59.75,0,0,0,216.33,787.89Z"/><path class="cls-70" d="M214.63,811.3s.76-3.51,1.34-8.18,1-10.53.35-15.23c-.56-4-1.62,1.92-2.54,8.83s-1.69,14.81-1.69,14.81A2.88,2.88,0,0,0,214.63,811.3Z"/></g><g id="Pink_Detail" data-name="Pink Detail"><ellipse class="cls-140" cx="211.43" cy="819.61" rx="0.58" ry="0.71"/><ellipse class="cls-140" cx="216.07" cy="823.96" rx="0.58" ry="0.52"/><ellipse class="cls-140" cx="211.14" cy="825.34" rx="0.58" ry="0.52"/><ellipse class="cls-140" cx="212.13" cy="798.51" rx="0.58" ry="0.52"/><ellipse class="cls-140" cx="215.6" cy="799.21" rx="0.58" ry="0.52"/><ellipse class="cls-140" cx="216.42" cy="798.04" rx="0.39" ry="0.32"/><ellipse class="cls-140" cx="215.48" cy="800.99" rx="0.39" ry="0.32"/><ellipse class="cls-140" cx="214.67" cy="803.05" rx="0.58" ry="0.52"/><ellipse class="cls-140" cx="208.29" cy="809.11" rx="0.58" ry="0.52"/><ellipse class="cls-140" cx="205.39" cy="802" rx="0.58" ry="0.52"/><ellipse class="cls-140" cx="205.85" cy="803.91" rx="0.58" ry="0.52"/><ellipse class="cls-140" cx="207.6" cy="801.91" rx="0.58" ry="0.52"/><ellipse class="cls-140" cx="209.04" cy="804.46" rx="0.39" ry="0.32"/><ellipse class="cls-140" cx="202.82" cy="810.66" rx="0.58" ry="0.52"/><ellipse class="cls-140" cx="204" cy="817.49" rx="0.58" ry="0.52"/><ellipse class="cls-140" cx="209.11" cy="806.54" rx="0.58" ry="0.52"/><ellipse class="cls-140" cx="213.28" cy="817.22" rx="0.58" ry="0.52"/><ellipse class="cls-140" cx="204" cy="794.13" rx="0.58" ry="0.52"/><ellipse class="cls-140" cx="208.64" cy="786.68" rx="0.58" ry="0.52"/><ellipse class="cls-140" cx="209.04" cy="800.66" rx="0.39" ry="0.32"/><ellipse class="cls-140" cx="205.93" cy="798.12" rx="0.39" ry="0.32"/><ellipse class="cls-140" cx="202.83" cy="802.2" rx="0.39" ry="0.32"/><ellipse class="cls-140" cx="202.83" cy="794.07" rx="0.39" ry="0.32"/><ellipse class="cls-140" cx="201.68" cy="791.6" rx="0.58" ry="0.52"/><ellipse class="cls-140" cx="206.91" cy="790.01" rx="0.58" ry="0.52"/><ellipse class="cls-140" cx="212.99" cy="802.77" rx="0.39" ry="0.32"/><ellipse class="cls-140" cx="215.14" cy="809.52" rx="0.58" ry="0.52"/><ellipse class="cls-140" cx="215.17" cy="796.77" rx="0.39" ry="0.32"/><ellipse class="cls-140" cx="209.35" cy="787.73" rx="0.39" ry="0.32"/><ellipse class="cls-140" cx="211.53" cy="782.66" rx="0.39" ry="0.32"/><ellipse class="cls-140" cx="204.07" cy="790.27" rx="0.39" ry="0.32"/><ellipse class="cls-140" cx="212.77" cy="795.08" rx="0.39" ry="0.32"/><ellipse class="cls-140" cx="216.5" cy="790.01" rx="0.39" ry="0.32"/><ellipse class="cls-140" cx="203.76" cy="781.39" rx="0.39" ry="0.32"/><ellipse class="cls-140" cx="208.42" cy="773.28" rx="0.39" ry="0.32"/></g></svg>