<svg xmlns="http://www.w3.org/2000/svg" viewBox="0 0 432 846"><defs><style>.cls-1{fill:#82c341;}.cls-2{fill:#83c441;}.cls-3{fill:#83c442;}.cls-4{fill:#84c442;}.cls-5{fill:#85c443;}.cls-6{fill:#86c444;}.cls-7{fill:#86c544;}.cls-8{fill:#87c545;}.cls-9{fill:#88c546;}.cls-10{fill:#89c547;}.cls-11{fill:#89c648;}.cls-12{fill:#8ac648;}.cls-13{fill:#8ac649;}.cls-14{fill:#8bc64a;}.cls-15{fill:#8cc74b;}.cls-16{fill:#8cc74c;}.cls-17{fill:#8dc74c;}.cls-18{fill:#8dc74d;}.cls-19{fill:#8ec74e;}.cls-20{fill:#8fc84f;}.cls-21{fill:#8fc850;}.cls-22{fill:#90c850;}.cls-23{fill:#90c851;}.cls-24{fill:#91c852;}.cls-25{fill:#91c952;}.cls-26{fill:#92c953;}.cls-27{fill:#92c954;}.cls-28{fill:#93c955;}.cls-29{fill:#94c956;}.cls-30{fill:#94ca57;}.cls-31{fill:#95ca57;}.cls-32{fill:#95ca58;}.cls-33{fill:#96ca59;}.cls-34{fill:#96ca5a;}.cls-35{fill:#97cb5a;}.cls-36{fill:#97cb5b;}.cls-37{fill:#98cb5c;}.cls-38{fill:#98cb5d;}.cls-39{fill:#99cb5e;}.cls-40{fill:#99cc5e;}.cls-41{fill:#99cc5f;}.cls-42{fill:#9acc60;}.cls-43{fill:#9acc61;}.cls-44{fill:#9bcc61;}.cls-45{fill:#9bcd62;}.cls-46{fill:#9ccd63;}.cls-47{fill:#9ccd64;}.cls-48{fill:#9dcd65;}.cls-49{fill:#9ece66;}.cls-50{fill:#9ece67;}.cls-51{fill:#9fce68;}.cls-52{fill:#9fce69;}.cls-53{fill:#a0ce69;}.cls-54{fill:#a0cf6a;}.cls-55{fill:#a1cf6b;}.cls-56{fill:#a1cf6c;}.cls-57{fill:#a1cf6d;}.cls-58{fill:#a2d06d;}.cls-59{fill:#a2d06e;}.cls-60{fill:#a3d06f;}.cls-61{fill:#a3d070;}.cls-62{fill:#a4d070;}.cls-63{fill:#a4d171;}.cls-64{fill:#a5d172;}.cls-65{fill:#a5d173;}.cls-66{fill:#a6d174;}.cls-67{fill:#a7d275;}.cls-68{fill:#a7d276;}.cls-69{fill:#a8d277;}.cls-70{fill:#a8d278;}.cls-71{fill:#a9d378;}.cls-72{fill:#a9d379;}.cls-73{fill:#aad37a;}.cls-74{fill:#aad37b;}.cls-75{fill:#abd37b;}.cls-76{fill:#abd47c;}.cls-77{fill:#acd47d;}.cls-78{fill:#add47e;}.cls-79{fill:#add47f;}.cls-80{fill:#aed580;}.cls-81{fill:#afd581;}.cls-82{fill:#afd582;}.cls-83{fill:#b0d682;}.cls-84{fill:#b0d683;}.cls-85{fill:#b1d684;}.cls-86{fill:#b1d685;}.cls-87{fill:#b2d685;}.cls-88{fill:#b2d786;}.cls-89{fill:#b3d787;}.cls-90{fill:#b4d788;}.cls-91{fill:#b4d889;}.cls-92{fill:#b5d889;}.cls-93{fill:#b5d88a;}.cls-94{fill:#b5d88b;}.cls-95{fill:#b6d98c;}.cls-96{fill:#b7d98d;}.cls-97{fill:#b7d98e;}.cls-98{fill:#b8d98e;}.cls-99{fill:#b8da8f;}.cls-100{fill:#b9da90;}.cls-101{fill:#bada91;}.cls-102{fill:#badb92;}.cls-103{fill:#bbdb92;}.cls-104{fill:#bbdb93;}.cls-105{fill:#bcdb94;}.cls-106{fill:#bcdc94;}.cls-107{fill:#bddc95;}.cls-108{fill:#bddc96;}.cls-109{fill:#bedc96;}.cls-110{fill:#bedc97;}.cls-111{fill:#bfdd98;}.cls-112{fill:#bfdd99;}.cls-113{fill:#c0dd99;}.cls-114{fill:#c0dd9a;}.cls-115{fill:#c1de9b;}.cls-116{fill:#c2de9c;}.cls-117{fill:#c2de9d;}.cls-118{fill:#c3df9d;}.cls-119{fill:#c3df9e;}.cls-120{fill:#c4df9f;}.cls-121{fill:#c4dfa0;}.cls-122{fill:#c5e0a0;}.cls-123{fill:#c5e0a1;}.cls-124{fill:#c6e0a2;}.cls-125{fill:#84c443;}.cls-126{fill:#8bc649;}.cls-127{fill:#8dc74e;}.cls-128{fill:#8ec84f;}.cls-129{fill:#91c953;}.cls-130{fill:#93c956;}.cls-131{fill:#94ca56;}.cls-132{fill:#95ca59;}.cls-133{fill:#96cb5a;}.cls-134{fill:#97cb5c;}.cls-135{fill:#9acc5f;}.cls-136{fill:#9bcc62;}.cls-137{fill:#9dcd66;}.cls-138{fill:#a2cf6d;}.cls-139{fill:#a4d071;}.cls-140{fill:#fffbdd;opacity:0.57;}</style></defs><g id="Green_Leaf" data-name="Green Leaf"><path class="cls-1" d="M212.58,721.12a1.48,1.48,0,0,0-2.87,0c-3.29,7.76-11.46,29.58-11.46,61.93,0,40.82,7.44,52,7.44,52s5.57,3.71,11.14,0c0,0,6.5-11.14,6.5-52C223.33,750.7,215.88,728.88,212.58,721.12Z"/><path class="cls-2" d="M212.58,721.12a1.48,1.48,0,0,0-2.87,0c-3.28,7.73-11.42,29.46-11.42,61.7,0,40.68,7.41,51.77,7.41,51.77s5.55,3.7,11.1,0c0,0,6.47-11.09,6.47-51.77C223.27,750.58,215.86,728.85,212.58,721.12Z"/><path class="cls-3" d="M212.57,721.11a1.47,1.47,0,0,0-2.85,0c-3.27,7.71-11.39,29.36-11.39,61.48,0,40.53,7.38,51.58,7.38,51.58s5.53,3.69,11.06,0c0,0,6.45-11,6.45-51.58C223.22,750.47,215.84,728.82,212.57,721.11Z"/><path class="cls-4" d="M212.56,721.11a1.46,1.46,0,0,0-2.84,0c-3.26,7.67-11.36,29.25-11.36,61.25,0,40.38,7.36,51.4,7.36,51.4s5.51,3.67,11,0c0,0,6.42-11,6.42-51.4C223.16,750.36,215.82,728.78,212.56,721.11Z"/><path class="cls-5" d="M212.56,721.1a1.46,1.46,0,0,0-2.83,0c-3.25,7.65-11.33,29.15-11.33,61,0,40.24,7.33,51.21,7.33,51.21s5.49,3.66,11,0c0,0,6.4-11,6.4-51.21C223.11,750.25,215.8,728.75,212.56,721.1Z"/><path class="cls-5" d="M212.55,721.1a1.45,1.45,0,0,0-2.82,0c-3.23,7.62-11.29,29-11.29,60.8,0,40.09,7.3,51,7.3,51s5.47,3.65,10.94,0c0,0,6.37-10.93,6.37-51C223.05,750.14,215.78,728.72,212.55,721.1Z"/><path class="cls-6" d="M212.55,721.09a1.46,1.46,0,0,0-2.82,0c-3.22,7.6-11.26,28.94-11.26,60.59,0,39.93,7.28,50.83,7.28,50.83s5.45,3.63,10.9,0c0,0,6.35-10.9,6.35-50.83C223,750,215.77,728.69,212.55,721.09Z"/><path class="cls-7" d="M212.54,721.09a1.44,1.44,0,0,0-2.8,0c-3.21,7.57-11.23,28.83-11.23,60.36,0,39.79,7.25,50.64,7.25,50.64s5.43,3.62,10.86,0c0,0,6.32-10.85,6.32-50.64C222.94,749.92,215.75,728.66,212.54,721.09Z"/><path class="cls-8" d="M212.53,721.09a1.44,1.44,0,0,0-2.79,0c-3.2,7.53-11.19,28.72-11.19,60.13,0,39.64,7.22,50.45,7.22,50.45s5.41,3.61,10.82,0c0,0,6.3-10.81,6.3-50.45C222.89,749.81,215.73,728.62,212.53,721.09Z"/><path class="cls-8" d="M212.53,721.08a1.43,1.43,0,0,0-2.78,0c-3.19,7.51-11.17,28.62-11.17,59.91,0,39.5,7.2,50.27,7.2,50.27s5.39,3.59,10.78,0c0,0,6.28-10.77,6.28-50.27C222.84,749.7,215.71,728.59,212.53,721.08Z"/><path class="cls-9" d="M212.52,721.08a1.43,1.43,0,0,0-2.77,0c-3.17,7.48-11.13,28.5-11.13,59.68,0,39.35,7.17,50.08,7.17,50.08s5.37,3.58,10.74,0c0,0,6.25-10.73,6.25-50.08C222.78,749.58,215.69,728.56,212.52,721.08Z"/><path class="cls-9" d="M212.51,721.07a1.42,1.42,0,0,0-2.76,0c-3.16,7.46-11.1,28.4-11.1,59.46,0,39.2,7.15,49.89,7.15,49.89s5.35,3.57,10.69,0c0,0,6.24-10.69,6.24-49.89C222.73,749.47,215.68,728.53,212.51,721.07Z"/><path class="cls-10" d="M212.51,721.07a1.42,1.42,0,0,0-2.75,0c-3.15,7.43-11.07,28.29-11.07,59.23,0,39.06,7.12,49.71,7.12,49.71s5.32,3.55,10.65,0c0,0,6.21-10.65,6.21-49.71C222.67,749.36,215.66,728.5,212.51,721.07Z"/><path class="cls-11" d="M212.5,721.07a1.41,1.41,0,0,0-2.74,0c-3.14,7.39-11,28.18-11,59,0,38.9,7.08,49.51,7.08,49.51s5.31,3.54,10.62,0c0,0,6.19-10.61,6.19-49.51C222.62,749.25,215.64,728.46,212.5,721.07Z"/><path class="cls-12" d="M212.49,721.06a1.4,1.4,0,0,0-2.72,0c-3.13,7.37-11,28.08-11,58.79,0,38.75,7.06,49.32,7.06,49.32s5.29,3.53,10.58,0c0,0,6.16-10.57,6.16-49.32C222.56,749.14,215.62,728.43,212.49,721.06Z"/><path class="cls-13" d="M212.49,721.06a1.4,1.4,0,0,0-2.72,0c-3.11,7.34-11,28-11,58.56,0,38.61,7,49.14,7,49.14s5.27,3.51,10.54,0c0,0,6.14-10.53,6.14-49.14C222.51,749,215.6,728.4,212.49,721.06Z"/><path class="cls-14" d="M212.48,721.05a1.4,1.4,0,0,0-2.71,0c-3.1,7.32-10.93,27.87-10.93,58.34,0,38.46,7,49,7,49s5.25,3.5,10.5,0c0,0,6.12-10.49,6.12-49C222.46,748.92,215.58,728.37,212.48,721.05Z"/><path class="cls-14" d="M212.48,721.05a1.39,1.39,0,0,0-2.7,0c-3.09,7.28-10.91,27.76-10.91,58.11,0,38.31,7,48.76,7,48.76s5.23,3.49,10.46,0c0,0,6.09-10.45,6.09-48.76C222.4,748.81,215.57,728.33,212.48,721.05Z"/><path class="cls-15" d="M212.47,721.05a1.39,1.39,0,0,0-2.69,0c-3.08,7.25-10.87,27.64-10.87,57.88,0,38.17,7,48.58,7,48.58s5.21,3.47,10.42,0c0,0,6.07-10.41,6.07-48.58C222.35,748.69,215.55,728.3,212.47,721.05Z"/><path class="cls-16" d="M212.46,721a1.38,1.38,0,0,0-2.67,0c-3.07,7.23-10.84,27.54-10.84,57.67,0,38,6.92,48.38,6.92,48.38s5.19,3.46,10.38,0c0,0,6-10.37,6-48.38C222.29,748.58,215.53,728.27,212.46,721Z"/><path class="cls-17" d="M212.46,721a1.38,1.38,0,0,0-2.67,0c-3,7.2-10.81,27.43-10.81,57.44,0,37.87,6.9,48.19,6.9,48.19s5.17,3.45,10.34,0c0,0,6-10.32,6-48.19C222.24,748.47,215.51,728.24,212.46,721Z"/><path class="cls-18" d="M212.45,721a1.37,1.37,0,0,0-2.66,0c-3,7.18-10.77,27.33-10.77,57.22,0,37.72,6.87,48,6.87,48s5.15,3.43,10.3,0c0,0,6-10.29,6-48C222.18,748.36,215.49,728.21,212.45,721Z"/><path class="cls-19" d="M212.44,721a1.36,1.36,0,0,0-2.64,0c-3,7.14-10.74,27.22-10.74,57,0,37.57,6.84,47.82,6.84,47.82s5.13,3.42,10.26,0c0,0,6-10.25,6-47.82C222.13,748.25,215.47,728.17,212.44,721Z"/><path class="cls-19" d="M212.44,721a1.36,1.36,0,0,0-2.64,0c-3,7.11-10.71,27.11-10.71,56.76,0,37.43,6.82,47.63,6.82,47.63s5.11,3.4,10.21,0c0,0,5.95-10.2,5.95-47.63C222.07,748.14,215.46,728.14,212.44,721Z"/><path class="cls-20" d="M212.43,721a1.35,1.35,0,0,0-2.62,0c-3,7.09-10.68,27-10.68,56.54,0,37.28,6.79,47.45,6.79,47.45s5.09,3.38,10.17,0c0,0,5.93-10.17,5.93-47.45C222,748,215.44,728.11,212.43,721Z"/><path class="cls-21" d="M212.43,721a1.35,1.35,0,0,0-2.62,0c-3,7.06-10.65,26.9-10.65,56.32,0,37.12,6.77,47.25,6.77,47.25s5.07,3.37,10.13,0c0,0,5.91-10.13,5.91-47.25C222,747.92,215.42,728.08,212.43,721Z"/><path class="cls-22" d="M212.42,721a1.34,1.34,0,0,0-2.6,0c-3,7-10.62,26.79-10.62,56.1,0,37,6.74,47.06,6.74,47.06s5,3.36,10.09,0c0,0,5.88-10.08,5.88-47.06C221.91,747.8,215.4,728,212.42,721Z"/><path class="cls-23" d="M212.41,721a1.33,1.33,0,0,0-2.59,0c-3,7-10.58,26.68-10.58,55.87,0,36.83,6.71,46.88,6.71,46.88s5,3.34,10.05,0c0,0,5.86-10,5.86-46.88C221.86,747.69,215.38,728,212.41,721Z"/><path class="cls-24" d="M212.41,721a1.33,1.33,0,0,0-2.59,0c-2.95,7-10.55,26.57-10.55,55.64,0,36.68,6.69,46.69,6.69,46.69s5,3.33,10,0c0,0,5.83-10,5.83-46.69C221.8,747.58,215.36,728,212.41,721Z"/><path class="cls-25" d="M212.4,721a1.33,1.33,0,0,0-2.57,0c-3,7-10.52,26.47-10.52,55.42,0,36.54,6.66,46.5,6.66,46.5s5,3.32,10,0c0,0,5.81-10,5.81-46.5C221.75,747.47,215.35,728,212.4,721Z"/><path class="cls-26" d="M212.39,721a1.32,1.32,0,0,0-2.56,0c-2.93,6.92-10.48,26.36-10.48,55.19,0,36.39,6.63,46.32,6.63,46.32s5,3.3,9.93,0c0,0,5.78-9.93,5.78-46.32C221.69,747.36,215.33,727.92,212.39,721Z"/><path class="cls-27" d="M212.39,721a1.32,1.32,0,0,0-2.55,0c-2.93,6.89-10.46,26.26-10.46,55,0,36.25,6.61,46.13,6.61,46.13s4.94,3.29,9.89,0c0,0,5.76-9.88,5.76-46.13C221.64,747.25,215.31,727.88,212.39,721Z"/><path class="cls-28" d="M212.38,721a1.31,1.31,0,0,0-2.54,0c-2.91,6.86-10.42,26.15-10.42,54.75,0,36.09,6.58,45.93,6.58,45.93s4.92,3.28,9.85,0c0,0,5.74-9.84,5.74-45.93C221.59,747.14,215.29,727.85,212.38,721Z"/><path class="cls-28" d="M212.37,721a1.3,1.3,0,0,0-2.53,0c-2.89,6.83-10.38,26-10.38,54.52,0,35.94,6.54,45.75,6.54,45.75s4.91,3.26,9.82,0c0,0,5.71-9.81,5.71-45.75C221.53,747,215.27,727.82,212.37,721Z"/><path class="cls-29" d="M212.37,721a1.3,1.3,0,0,0-2.52,0c-2.89,6.81-10.36,25.93-10.36,54.3,0,35.8,6.52,45.56,6.52,45.56s4.89,3.25,9.77,0c0,0,5.7-9.76,5.7-45.56C221.48,746.91,215.26,727.79,212.37,721Z"/><path class="cls-30" d="M212.36,721a1.29,1.29,0,0,0-2.51,0c-2.87,6.77-10.32,25.82-10.32,54.07,0,35.65,6.49,45.37,6.49,45.37s4.87,3.24,9.73,0c0,0,5.67-9.72,5.67-45.37C221.42,746.8,215.24,727.75,212.36,721Z"/><path class="cls-31" d="M212.36,721a1.29,1.29,0,0,0-2.5,0c-2.87,6.75-10.29,25.72-10.29,53.85,0,35.5,6.46,45.19,6.46,45.19s4.85,3.22,9.69,0c0,0,5.65-9.69,5.65-45.19C221.37,746.69,215.22,727.72,212.36,721Z"/><path class="cls-32" d="M212.35,721a1.28,1.28,0,0,0-2.49,0c-2.85,6.72-10.26,25.61-10.26,53.62,0,35.36,6.44,45,6.44,45s4.83,3.21,9.65,0c0,0,5.62-9.64,5.62-45C221.31,746.58,215.2,727.69,212.35,721Z"/><path class="cls-33" d="M212.34,721a1.28,1.28,0,0,0-2.48,0c-2.83,6.69-10.22,25.5-10.22,53.4,0,35.2,6.41,44.8,6.41,44.8s4.81,3.2,9.61,0c0,0,5.6-9.6,5.6-44.8C221.26,746.47,215.18,727.66,212.34,721Z"/><path class="cls-34" d="M212.34,721a1.27,1.27,0,0,0-2.47,0c-2.83,6.67-10.19,25.4-10.19,53.18,0,35.05,6.38,44.62,6.38,44.62s4.79,3.18,9.57,0c0,0,5.57-9.57,5.57-44.62C221.2,746.36,215.16,727.63,212.34,721Z"/><path class="cls-35" d="M212.33,721a1.27,1.27,0,0,0-2.46,0c-2.81,6.63-10.16,25.29-10.16,52.95,0,34.91,6.36,44.43,6.36,44.43s4.77,3.17,9.53,0c0,0,5.55-9.52,5.55-44.43C221.15,746.25,215.15,727.59,212.33,721Z"/><path class="cls-36" d="M212.32,721a1.26,1.26,0,0,0-2.44,0c-2.81,6.61-10.13,25.19-10.13,52.73,0,34.76,6.33,44.24,6.33,44.24s4.74,3.16,9.49,0c0,0,5.53-9.48,5.53-44.24C221.1,746.14,215.13,727.56,212.32,721Z"/><path class="cls-37" d="M212.32,721a1.26,1.26,0,0,0-2.44,0c-2.79,6.58-10.1,25.07-10.1,52.5,0,34.62,6.31,44.06,6.31,44.06s4.72,3.14,9.45,0c0,0,5.5-9.44,5.5-44.06C221,746,215.11,727.53,212.32,721Z"/><path class="cls-38" d="M212.31,720.94a1.26,1.26,0,0,0-2.43,0c-2.77,6.56-10.06,25-10.06,52.28,0,34.47,6.28,43.87,6.28,43.87s4.7,3.13,9.41,0c0,0,5.48-9.4,5.48-43.87C221,745.91,215.09,727.5,212.31,720.94Z"/><path class="cls-39" d="M212.31,720.94a1.25,1.25,0,0,0-2.42,0c-2.77,6.53-10,24.86-10,52.06,0,34.31,6.25,43.67,6.25,43.67s4.68,3.12,9.37,0c0,0,5.45-9.36,5.45-43.67C220.93,745.8,215.07,727.47,212.31,720.94Z"/><path class="cls-40" d="M212.3,720.94a1.24,1.24,0,0,0-2.41,0c-2.75,6.49-10,24.75-10,51.83,0,34.17,6.23,43.49,6.23,43.49s4.66,3.1,9.33,0c0,0,5.43-9.32,5.43-43.49C220.88,745.69,215.05,727.43,212.3,720.94Z"/><path class="cls-41" d="M212.29,720.93a1.23,1.23,0,0,0-2.39,0c-2.75,6.47-10,24.65-10,51.61,0,34,6.2,43.3,6.2,43.3s4.64,3.09,9.28,0c0,0,5.41-9.28,5.41-43.3C220.82,745.58,215,727.4,212.29,720.93Z"/><path class="cls-42" d="M212.29,720.93a1.23,1.23,0,0,0-2.39,0c-2.73,6.44-9.93,24.54-9.93,51.38,0,33.87,6.17,43.11,6.17,43.11s4.62,3.08,9.24,0c0,0,5.39-9.24,5.39-43.11C220.77,745.47,215,727.37,212.29,720.93Z"/><path class="cls-43" d="M212.28,720.92a1.22,1.22,0,0,0-2.37,0c-2.72,6.42-9.91,24.44-9.91,51.16,0,33.73,6.15,42.93,6.15,42.93s4.6,3.06,9.2,0c0,0,5.36-9.2,5.36-42.93C220.71,745.36,215,727.34,212.28,720.92Z"/><path class="cls-44" d="M212.27,720.92a1.22,1.22,0,0,0-2.36,0c-2.71,6.38-9.87,24.33-9.87,50.93,0,33.58,6.12,42.74,6.12,42.74s4.58,3,9.16,0c0,0,5.34-9.16,5.34-42.74C220.66,745.25,215,727.3,212.27,720.92Z"/><path class="cls-45" d="M212.27,720.92a1.22,1.22,0,0,0-2.36,0c-2.69,6.35-9.83,24.22-9.83,50.7,0,33.43,6.09,42.55,6.09,42.55s4.56,3,9.12,0c0,0,5.32-9.12,5.32-42.55C220.61,745.14,215,727.27,212.27,720.92Z"/><path class="cls-46" d="M212.26,720.91a1.21,1.21,0,0,0-2.34,0c-2.69,6.33-9.81,24.11-9.81,50.49,0,33.28,6.07,42.36,6.07,42.36s4.54,3,9.08,0c0,0,5.29-9.08,5.29-42.36C220.55,745,214.94,727.24,212.26,720.91Z"/><path class="cls-47" d="M212.25,720.91a1.2,1.2,0,0,0-2.33,0c-2.67,6.3-9.77,24-9.77,50.26,0,33.13,6,42.17,6,42.17s4.52,3,9,0c0,0,5.27-9,5.27-42.17C220.5,744.91,214.93,727.21,212.25,720.91Z"/><path class="cls-48" d="M212.25,720.9a1.2,1.2,0,0,0-2.32,0c-2.66,6.28-9.74,23.9-9.74,50,0,33,6,42,6,42s4.51,3,9,0c0,0,5.24-9,5.24-42C220.44,744.8,214.91,727.18,212.25,720.9Z"/><path class="cls-48" d="M212.24,720.9a1.19,1.19,0,0,0-2.31,0c-2.65,6.24-9.71,23.79-9.71,49.81,0,32.84,6,41.8,6,41.8s4.49,3,9,0c0,0,5.22-9,5.22-41.8C220.39,744.69,214.89,727.14,212.24,720.9Z"/><path class="cls-49" d="M212.24,720.9a1.19,1.19,0,0,0-2.31,0c-2.63,6.21-9.67,23.68-9.67,49.58,0,32.69,6,41.61,6,41.61s4.46,3,8.93,0c0,0,5.19-8.92,5.19-41.61C220.33,744.58,214.87,727.11,212.24,720.9Z"/><path class="cls-50" d="M212.23,720.89a1.18,1.18,0,0,0-2.29,0c-2.63,6.19-9.65,23.58-9.65,49.36,0,32.55,5.93,41.42,5.93,41.42s4.44,3,8.89,0c0,0,5.17-8.87,5.17-41.42C220.28,744.47,214.85,727.08,212.23,720.89Z"/><path class="cls-51" d="M212.22,720.89a1.17,1.17,0,0,0-2.28,0c-2.61,6.16-9.61,23.47-9.61,49.14,0,32.39,5.9,41.23,5.9,41.23s4.42,2.94,8.84,0c0,0,5.16-8.84,5.16-41.23C220.23,744.36,214.84,727.05,212.22,720.89Z"/><path class="cls-52" d="M212.22,720.88a1.17,1.17,0,0,0-2.27,0c-2.6,6.13-9.58,23.37-9.58,48.92,0,32.24,5.87,41,5.87,41s4.4,2.93,8.8,0c0,0,5.13-8.8,5.13-41C220.17,744.25,214.82,727,212.22,720.88Z"/><path class="cls-53" d="M212.21,720.88a1.17,1.17,0,0,0-2.26,0c-2.59,6.1-9.55,23.25-9.55,48.69,0,32.1,5.85,40.85,5.85,40.85s4.38,2.92,8.76,0c0,0,5.11-8.75,5.11-40.85C220.12,744.13,214.8,727,212.21,720.88Z"/><path class="cls-54" d="M212.2,720.88a1.16,1.16,0,0,0-2.25,0c-2.57,6.07-9.51,23.14-9.51,48.46,0,31.95,5.82,40.67,5.82,40.67s4.36,2.9,8.72,0c0,0,5.08-8.72,5.08-40.67C220.06,744,214.78,727,212.2,720.88Z"/><path class="cls-55" d="M212.2,720.87a1.16,1.16,0,0,0-2.24,0c-2.57,6-9.48,23-9.48,48.24,0,31.8,5.79,40.48,5.79,40.48s4.34,2.89,8.68,0c0,0,5.06-8.68,5.06-40.48C220,743.91,214.76,726.92,212.2,720.87Z"/><path class="cls-56" d="M212.19,720.87a1.15,1.15,0,0,0-2.23,0c-2.55,6-9.45,22.93-9.45,48,0,31.66,5.77,40.29,5.77,40.29s4.32,2.88,8.64,0c0,0,5-8.63,5-40.29C220,743.8,214.74,726.89,212.19,720.87Z"/><path class="cls-57" d="M212.18,720.86a1.14,1.14,0,0,0-2.21,0c-2.54,6-9.42,22.83-9.42,47.79,0,31.51,5.74,40.11,5.74,40.11s4.3,2.86,8.6,0c0,0,5-8.6,5-40.11C219.9,743.69,214.73,726.85,212.18,720.86Z"/><path class="cls-58" d="M212.18,720.86a1.14,1.14,0,0,0-2.21,0c-2.53,6-9.38,22.72-9.38,47.57,0,31.36,5.71,39.91,5.71,39.91s4.28,2.85,8.56,0c0,0,5-8.55,5-39.91C219.84,743.58,214.71,726.82,212.18,720.86Z"/><path class="cls-59" d="M212.17,720.86a1.13,1.13,0,0,0-2.2,0c-2.51,5.93-9.35,22.61-9.35,47.34,0,31.21,5.69,39.72,5.69,39.72s4.26,2.84,8.52,0c0,0,5-8.51,5-39.72C219.79,743.47,214.69,726.79,212.17,720.86Z"/><path class="cls-60" d="M212.17,720.85a1.13,1.13,0,0,0-2.19,0c-2.51,5.91-9.32,22.51-9.32,47.12,0,31.06,5.66,39.54,5.66,39.54s4.24,2.82,8.48,0c0,0,4.94-8.48,4.94-39.54C219.74,743.36,214.67,726.76,212.17,720.85Z"/><path class="cls-61" d="M212.16,720.85a1.12,1.12,0,0,0-2.18,0c-2.49,5.88-9.28,22.39-9.28,46.89,0,30.92,5.63,39.35,5.63,39.35s4.22,2.81,8.44,0c0,0,4.91-8.43,4.91-39.35C219.68,743.24,214.65,726.73,212.16,720.85Z"/><path class="cls-62" d="M212.15,720.84a1.11,1.11,0,0,0-2.16,0c-2.48,5.85-9.26,22.29-9.26,46.67,0,30.77,5.61,39.16,5.61,39.16s4.2,2.8,8.39,0c0,0,4.9-8.39,4.9-39.16C219.63,743.13,214.63,726.69,212.15,720.84Z"/><path class="cls-63" d="M212.15,720.84a1.11,1.11,0,0,0-2.16,0c-2.47,5.82-9.22,22.18-9.22,46.44,0,30.62,5.58,39,5.58,39s4.18,2.79,8.35,0c0,0,4.87-8.35,4.87-39C219.57,743,214.62,726.66,212.15,720.84Z"/><path class="cls-64" d="M212.14,720.84a1.1,1.1,0,0,0-2.14,0c-2.46,5.79-9.2,22.07-9.2,46.22,0,30.47,5.56,38.78,5.56,38.78s4.15,2.77,8.31,0c0,0,4.85-8.31,4.85-38.78C219.52,742.91,214.6,726.63,212.14,720.84Z"/><path class="cls-65" d="M212.13,720.83a1.1,1.1,0,0,0-2.13,0c-2.45,5.77-9.16,22-9.16,46,0,30.32,5.53,38.59,5.53,38.59s4.13,2.76,8.27,0c0,0,4.82-8.27,4.82-38.59C219.46,742.8,214.58,726.6,212.13,720.83Z"/><path class="cls-66" d="M212.13,720.83a1.1,1.1,0,0,0-2.13,0c-2.43,5.73-9.12,21.86-9.12,45.77,0,30.18,5.5,38.4,5.5,38.4s4.11,2.75,8.23,0c0,0,4.8-8.22,4.8-38.4C219.41,742.69,214.56,726.56,212.13,720.83Z"/><path class="cls-66" d="M212.12,720.82a1.09,1.09,0,0,0-2.11,0,113.44,113.44,0,0,0-9.1,45.55c0,30,5.47,38.22,5.47,38.22s4.1,2.73,8.2,0c0,0,4.77-8.19,4.77-38.22C219.35,742.58,214.54,726.53,212.12,720.82Z"/><path class="cls-67" d="M212.12,720.82a1.09,1.09,0,0,0-2.11,0A112.79,112.79,0,0,0,201,766.14c0,29.88,5.44,38,5.44,38s4.08,2.72,8.16,0c0,0,4.75-8.15,4.75-38C219.3,742.47,214.52,726.5,212.12,720.82Z"/><path class="cls-68" d="M212.11,720.82a1.08,1.08,0,0,0-2.09,0,112,112,0,0,0-9,45.09c0,29.74,5.41,37.84,5.41,37.84s4.06,2.71,8.12,0c0,0,4.73-8.1,4.73-37.84C219.25,742.35,214.51,726.47,212.11,720.82Z"/><path class="cls-69" d="M212.1,720.81a1.07,1.07,0,0,0-2.08,0,111.45,111.45,0,0,0-9,44.88c0,29.58,5.39,37.65,5.39,37.65s4,2.69,8.08,0c0,0,4.7-8.07,4.7-37.65C219.19,742.24,214.49,726.44,212.1,720.81Z"/><path class="cls-70" d="M212.1,720.81a1.07,1.07,0,0,0-2.08,0,110.93,110.93,0,0,0-9,44.65c0,29.43,5.36,37.46,5.36,37.46s4,2.68,8,0c0,0,4.68-8,4.68-37.46C219.14,742.13,214.47,726.4,212.1,720.81Z"/><path class="cls-71" d="M212.09,720.8a1.06,1.06,0,0,0-2.06,0,110.34,110.34,0,0,0-8.93,44.43c0,29.29,5.33,37.27,5.33,37.27s4,2.67,8,0c0,0,4.65-8,4.65-37.27C219.08,742,214.45,726.37,212.09,720.8Z"/><path class="cls-72" d="M212.08,720.8a1.06,1.06,0,0,0-2.05,0,109.63,109.63,0,0,0-8.9,44.2c0,29.14,5.31,37.09,5.31,37.09s4,2.65,8,0c0,0,4.63-8,4.63-37.09C219,741.91,214.43,726.34,212.08,720.8Z"/><path class="cls-73" d="M212.08,720.79a1.05,1.05,0,0,0-2,0,109,109,0,0,0-8.87,44c0,29,5.28,36.9,5.28,36.9s4,2.64,7.91,0c0,0,4.61-7.91,4.61-36.9C219,741.8,214.42,726.31,212.08,720.79Z"/><path class="cls-74" d="M212.07,720.79a1,1,0,0,0-2,0,108.33,108.33,0,0,0-8.83,43.75c0,28.85,5.25,36.71,5.25,36.71s3.94,2.63,7.87,0c0,0,4.59-7.86,4.59-36.71C218.92,741.69,214.4,726.27,212.07,720.79Z"/><path class="cls-75" d="M212.06,720.79a1,1,0,0,0-2,0,107.81,107.81,0,0,0-8.8,43.52c0,28.7,5.23,36.53,5.23,36.53s3.92,2.61,7.83,0c0,0,4.57-7.83,4.57-36.53C218.87,741.58,214.38,726.24,212.06,720.79Z"/><path class="cls-76" d="M212.06,720.78a1,1,0,0,0-2,0,107.18,107.18,0,0,0-8.77,43.31c0,28.55,5.2,36.33,5.2,36.33s3.9,2.6,7.79,0c0,0,4.54-7.78,4.54-36.33C218.81,741.46,214.36,726.21,212.06,720.78Z"/><path class="cls-77" d="M212.05,720.78a1,1,0,0,0-2,0,106.53,106.53,0,0,0-8.73,43.08c0,28.4,5.17,36.14,5.17,36.14s3.88,2.59,7.75,0c0,0,4.52-7.74,4.52-36.14C218.76,741.35,214.34,726.18,212.05,720.78Z"/><path class="cls-77" d="M212.05,720.77a1,1,0,0,0-2,0,105.88,105.88,0,0,0-8.71,42.86c0,28.25,5.15,36,5.15,36a7.25,7.25,0,0,0,7.71,0s4.49-7.71,4.49-36C218.7,741.24,214.32,726.15,212.05,720.77Z"/><path class="cls-78" d="M212,720.77a1,1,0,0,0-2,0,105.18,105.18,0,0,0-8.67,42.63c0,28.11,5.12,35.77,5.12,35.77a7.21,7.21,0,0,0,7.67,0s4.47-7.66,4.47-35.77C218.65,741.13,214.31,726.11,212,720.77Z"/><path class="cls-79" d="M212,720.77a1,1,0,0,0-2,0,104.65,104.65,0,0,0-8.64,42.4c0,28,5.1,35.58,5.1,35.58a7.16,7.16,0,0,0,7.63,0s4.44-7.62,4.44-35.58C218.59,741,214.29,726.08,212,720.77Z"/><path class="cls-80" d="M212,720.76a1,1,0,0,0-2,0,104.06,104.06,0,0,0-8.61,42.18c0,27.81,5.07,35.4,5.07,35.4a7.14,7.14,0,0,0,7.59,0s4.42-7.59,4.42-35.4C218.54,740.91,214.27,726.05,212,720.76Z"/><path class="cls-80" d="M212,720.76a1,1,0,0,0-2,0,103.42,103.42,0,0,0-8.57,42c0,27.66,5,35.2,5,35.2a7.09,7.09,0,0,0,7.55,0s4.39-7.54,4.39-35.2C218.48,740.8,214.25,726,212,720.76Z"/><path class="cls-81" d="M212,720.75a1,1,0,0,0-1.93,0,102.77,102.77,0,0,0-8.55,41.74c0,27.51,5,35,5,35a7,7,0,0,0,7.51,0s4.37-7.5,4.37-35C218.43,740.69,214.23,726,212,720.75Z"/><path class="cls-82" d="M212,720.75a1,1,0,0,0-1.93,0,102.07,102.07,0,0,0-8.51,41.51c0,27.36,5,34.83,5,34.83a7,7,0,0,0,7.46,0s4.36-7.47,4.36-34.83C218.38,740.58,214.21,726,212,720.75Z"/><path class="cls-83" d="M212,720.75a1,1,0,0,0-1.92,0A101.55,101.55,0,0,0,201.61,762c0,27.22,5,34.64,5,34.64a7,7,0,0,0,7.42,0s4.33-7.42,4.33-34.64C218.32,740.46,214.2,725.92,212,720.75Z"/><path class="cls-84" d="M212,720.74a1,1,0,0,0-1.9,0,100.91,100.91,0,0,0-8.45,41.06c0,27.07,4.93,34.45,4.93,34.45a6.94,6.94,0,0,0,7.39,0s4.31-7.38,4.31-34.45C218.27,740.35,214.18,725.89,212,720.74Z"/><path class="cls-85" d="M212,720.74a1,1,0,0,0-1.9,0,100.26,100.26,0,0,0-8.41,40.83c0,26.93,4.9,34.27,4.9,34.27a6.92,6.92,0,0,0,7.35,0s4.28-7.34,4.28-34.27C218.21,740.24,214.16,725.86,212,720.74Z"/><path class="cls-86" d="M212,720.73a1,1,0,0,0-1.88,0,99.63,99.63,0,0,0-8.38,40.62c0,26.77,4.87,34.07,4.87,34.07a6.87,6.87,0,0,0,7.31,0s4.26-7.3,4.26-34.07C218.16,740.13,214.14,725.82,212,720.73Z"/><path class="cls-87" d="M212,720.73a1,1,0,0,0-1.88,0,98.93,98.93,0,0,0-8.35,40.39c0,26.62,4.85,33.88,4.85,33.88a6.85,6.85,0,0,0,7.27,0s4.23-7.26,4.23-33.88C218.1,740,214.12,725.79,212,720.73Z"/><path class="cls-88" d="M212,720.73a1,1,0,0,0-1.86,0,98.23,98.23,0,0,0-8.32,40.16c0,26.48,4.82,33.7,4.82,33.7a6.83,6.83,0,0,0,7.23,0s4.21-7.22,4.21-33.7C218.05,739.91,214.1,725.76,212,720.73Z"/><path class="cls-89" d="M212,720.72a1,1,0,0,0-1.85,0,97.86,97.86,0,0,0-8.28,39.94c0,26.33,4.79,33.51,4.79,33.51a6.78,6.78,0,0,0,7.19,0S218,787,218,760.66C218,739.8,214.09,725.73,212,720.72Z"/><path class="cls-89" d="M212,720.72a1,1,0,0,0-1.85,0,97.16,97.16,0,0,0-8.25,39.71c0,26.18,4.77,33.32,4.77,33.32a6.73,6.73,0,0,0,7.15,0s4.16-7.14,4.16-33.32C217.94,739.69,214.07,725.7,212,720.72Z"/><path class="cls-90" d="M212,720.71a.94.94,0,0,0-1.83,0,96.47,96.47,0,0,0-8.22,39.49c0,26,4.74,33.14,4.74,33.14a6.71,6.71,0,0,0,7.11,0s4.14-7.1,4.14-33.14C217.89,739.57,214.05,725.66,212,720.71Z"/><path class="cls-91" d="M211.94,720.71a.94.94,0,0,0-1.82,0A95.77,95.77,0,0,0,201.93,760c0,25.89,4.72,32.95,4.72,32.95a6.66,6.66,0,0,0,7.07,0s4.11-7.06,4.11-32.95C217.83,739.46,214,725.63,211.94,720.71Z"/><path class="cls-92" d="M211.94,720.71a.93.93,0,0,0-1.81,0,95.09,95.09,0,0,0-8.16,39c0,25.73,4.69,32.75,4.69,32.75a6.62,6.62,0,0,0,7,0s4.09-7,4.09-32.75C217.78,739.35,214,725.6,211.94,720.71Z"/><path class="cls-93" d="M211.93,720.7a.93.93,0,0,0-1.8,0A94.72,94.72,0,0,0,202,759.52c0,25.59,4.66,32.57,4.66,32.57a6.58,6.58,0,0,0,7,0s4.07-7,4.07-32.57C217.72,739.24,214,725.57,211.93,720.7Z"/><path class="cls-94" d="M211.93,720.7a.93.93,0,0,0-1.8,0A94,94,0,0,0,202,759.29c0,25.44,4.64,32.38,4.64,32.38a6.54,6.54,0,0,0,6.94,0s4-6.94,4-32.38C217.67,739.13,214,725.53,211.93,720.7Z"/><path class="cls-95" d="M211.92,720.69a.92.92,0,0,0-1.78,0,93.38,93.38,0,0,0-8.06,38.37c0,25.3,4.61,32.19,4.61,32.19a6.49,6.49,0,0,0,6.9,0s4-6.89,4-32.19C217.61,739,214,725.5,211.92,720.69Z"/><path class="cls-95" d="M211.91,720.69a.91.91,0,0,0-1.77,0,92.74,92.74,0,0,0-8,38.14c0,25.15,4.58,32,4.58,32a6.47,6.47,0,0,0,6.86,0s4-6.86,4-32C217.56,738.91,213.94,725.47,211.91,720.69Z"/><path class="cls-96" d="M211.91,720.69a.91.91,0,0,0-1.76,0,92,92,0,0,0-8,37.91c0,25,4.56,31.82,4.56,31.82a6.42,6.42,0,0,0,6.82,0s4-6.82,4-31.82C217.51,738.8,213.92,725.44,211.91,720.69Z"/><path class="cls-97" d="M211.9,720.68a.9.9,0,0,0-1.75,0,91.59,91.59,0,0,0-8,37.7c0,24.85,4.53,31.62,4.53,31.62a6.38,6.38,0,0,0,6.78,0s3.95-6.77,3.95-31.62C217.45,738.68,213.9,725.41,211.9,720.68Z"/><path class="cls-98" d="M211.89,720.68a.9.9,0,0,0-1.74,0,90.89,90.89,0,0,0-7.92,37.47c0,24.7,4.5,31.44,4.5,31.44a6.36,6.36,0,0,0,6.74,0s3.93-6.74,3.93-31.44C217.4,738.57,213.89,725.37,211.89,720.68Z"/><path class="cls-99" d="M211.89,720.67a.89.89,0,0,0-1.73,0,90.25,90.25,0,0,0-7.9,37.25c0,24.55,4.48,31.25,4.48,31.25a6.31,6.31,0,0,0,6.7,0s3.9-6.7,3.9-31.25C217.34,738.46,213.87,725.34,211.89,720.67Z"/><path class="cls-100" d="M211.88,720.67a.89.89,0,0,0-1.72,0,89.61,89.61,0,0,0-7.86,37c0,24.41,4.45,31.06,4.45,31.06a6.27,6.27,0,0,0,6.66,0s3.88-6.65,3.88-31.06C217.29,738.35,213.85,725.31,211.88,720.67Z"/><path class="cls-100" d="M211.87,720.67a.87.87,0,0,0-1.7,0,88.91,88.91,0,0,0-7.83,36.79c0,24.26,4.42,30.88,4.42,30.88a6.24,6.24,0,0,0,6.62,0s3.85-6.62,3.85-30.88C217.23,738.24,213.83,725.28,211.87,720.67Z"/><path class="cls-101" d="M211.87,720.66a.88.88,0,0,0-1.7,0,88.49,88.49,0,0,0-7.8,36.57c0,24.11,4.39,30.69,4.39,30.69a6.22,6.22,0,0,0,6.59,0s3.83-6.58,3.83-30.69C217.18,738.13,213.81,725.25,211.87,720.66Z"/><path class="cls-102" d="M211.86,720.66a.87.87,0,0,0-1.69,0A87.81,87.81,0,0,0,202.41,757c0,24,4.36,30.49,4.36,30.49a6.15,6.15,0,0,0,6.54,0s3.81-6.53,3.81-30.49C217.12,738,213.79,725.21,211.86,720.66Z"/><path class="cls-103" d="M211.86,720.65a.87.87,0,0,0-1.68,0,87.22,87.22,0,0,0-7.73,36.13c0,23.81,4.33,30.31,4.33,30.31a6.13,6.13,0,0,0,6.5,0s3.79-6.5,3.79-30.31C217.07,737.91,213.78,725.18,211.86,720.65Z"/><path class="cls-104" d="M211.85,720.65a.86.86,0,0,0-1.67,0,86.48,86.48,0,0,0-7.7,35.9c0,23.67,4.31,30.12,4.31,30.12a6.09,6.09,0,0,0,6.46,0s3.77-6.45,3.77-30.12C217,737.79,213.76,725.15,211.85,720.65Z"/><path class="cls-105" d="M211.84,720.64a.85.85,0,0,0-1.65,0,85.89,85.89,0,0,0-7.67,35.68c0,23.52,4.28,29.93,4.28,29.93a6,6,0,0,0,6.42,0s3.74-6.41,3.74-29.93C217,737.68,213.74,725.12,211.84,720.64Z"/><path class="cls-106" d="M211.84,720.64a.85.85,0,0,0-1.65,0,85.32,85.32,0,0,0-7.64,35.45c0,23.37,4.26,29.75,4.26,29.75a6,6,0,0,0,6.38,0s3.72-6.38,3.72-29.75C216.91,737.57,213.72,725.08,211.84,720.64Z"/><path class="cls-107" d="M211.83,720.64a.84.84,0,0,0-1.63,0,84.46,84.46,0,0,0-7.61,35.22c0,23.23,4.23,29.56,4.23,29.56a6,6,0,0,0,6.34,0s3.69-6.33,3.69-29.56C216.85,737.46,213.7,725.05,211.83,720.64Z"/><path class="cls-108" d="M211.82,720.63a.84.84,0,0,0-1.62,0,84.09,84.09,0,0,0-7.57,35c0,23.08,4.2,29.37,4.2,29.37a5.93,5.93,0,0,0,6.3,0s3.67-6.29,3.67-29.37C216.8,737.35,213.68,725,211.82,720.63Z"/><path class="cls-109" d="M211.82,720.63a.84.84,0,0,0-1.62,0,83.41,83.41,0,0,0-7.54,34.78c0,22.92,4.18,29.18,4.18,29.18a5.9,5.9,0,0,0,6.26,0s3.64-6.26,3.64-29.18C216.74,737.24,213.67,725,211.82,720.63Z"/><path class="cls-110" d="M211.81,720.62a.83.83,0,0,0-1.6,0,82.82,82.82,0,0,0-7.51,34.56c0,22.78,4.15,29,4.15,29a5.86,5.86,0,0,0,6.22,0s3.62-6.21,3.62-29C216.69,737.13,213.65,725,211.81,720.62Z"/><path class="cls-111" d="M211.81,720.62a.83.83,0,0,0-1.6,0A82.3,82.3,0,0,0,202.74,755c0,22.63,4.12,28.8,4.12,28.8a5.81,5.81,0,0,0,6.18,0s3.6-6.17,3.6-28.8C216.64,737,213.63,724.92,211.81,720.62Z"/><path class="cls-112" d="M211.8,720.62a.81.81,0,0,0-1.58,0,81.39,81.39,0,0,0-7.45,34.1c0,22.48,4.1,28.62,4.1,28.62a5.79,5.79,0,0,0,6.14,0s3.57-6.14,3.57-28.62C216.58,736.91,213.61,724.89,211.8,720.62Z"/><path class="cls-113" d="M211.79,720.61a.81.81,0,0,0-1.57,0,81,81,0,0,0-7.41,33.88c0,22.34,4.07,28.43,4.07,28.43a5.75,5.75,0,0,0,6.1,0s3.55-6.09,3.55-28.43C216.53,736.79,213.59,724.86,211.79,720.61Z"/><path class="cls-114" d="M211.79,720.61a.81.81,0,0,0-1.57,0,80.33,80.33,0,0,0-7.37,33.65c0,22.19,4,28.24,4,28.24a5.69,5.69,0,0,0,6.05,0s3.53-6,3.53-28.24C216.47,736.68,213.58,724.83,211.79,720.61Z"/><path class="cls-115" d="M211.78,720.6a.8.8,0,0,0-1.55,0A79.67,79.67,0,0,0,202.88,754c0,22,4,28.05,4,28.05a5.66,5.66,0,0,0,6,0s3.51-6,3.51-28.05C216.42,736.57,213.56,724.79,211.78,720.6Z"/><path class="cls-115" d="M211.77,720.6a.79.79,0,0,0-1.54,0,79.19,79.19,0,0,0-7.31,33.21c0,21.89,4,27.86,4,27.86a5.61,5.61,0,0,0,6,0s3.48-6,3.48-27.86C216.36,736.46,213.54,724.76,211.77,720.6Z"/><path class="cls-116" d="M211.77,720.6a.79.79,0,0,0-1.53,0,78.34,78.34,0,0,0-7.28,33c0,21.74,4,27.67,4,27.67a5.57,5.57,0,0,0,5.93,0s3.46-5.93,3.46-27.67C216.31,736.35,213.52,724.73,211.77,720.6Z"/><path class="cls-117" d="M211.76,720.59a.78.78,0,0,0-1.52,0A77.92,77.92,0,0,0,203,753.35c0,21.6,3.94,27.49,3.94,27.49a5.55,5.55,0,0,0,5.89,0s3.43-5.89,3.43-27.49C216.25,736.24,213.5,724.7,211.76,720.59Z"/><path class="cls-118" d="M211.75,720.59a.78.78,0,0,0-1.51,0A77.28,77.28,0,0,0,203,753.12c0,21.45,3.91,27.3,3.91,27.3a5.5,5.5,0,0,0,5.85,0s3.41-5.85,3.41-27.3C216.2,736.13,213.48,724.67,211.75,720.59Z"/><path class="cls-119" d="M211.75,720.58a.78.78,0,0,0-1.5,0,76.6,76.6,0,0,0-7.19,32.31c0,21.3,3.89,27.11,3.89,27.11a5.46,5.46,0,0,0,5.81,0s3.39-5.81,3.39-27.11C216.15,736,213.47,724.63,211.75,720.58Z"/><path class="cls-120" d="M211.74,720.58a.77.77,0,0,0-1.49,0,76.09,76.09,0,0,0-7.15,32.09c0,21.15,3.85,26.92,3.85,26.92a5.45,5.45,0,0,0,5.78,0s3.36-5.77,3.36-26.92C216.09,735.9,213.45,724.6,211.74,720.58Z"/><path class="cls-121" d="M211.74,720.58a.76.76,0,0,0-1.48,0,75.24,75.24,0,0,0-7.12,31.86c0,21,3.82,26.73,3.82,26.73a5.41,5.41,0,0,0,5.74,0s3.34-5.73,3.34-26.73C216,735.79,213.43,724.57,211.74,720.58Z"/><path class="cls-122" d="M211.73,720.57a.76.76,0,0,0-1.47,0,74.82,74.82,0,0,0-7.09,31.64c0,20.86,3.8,26.54,3.8,26.54a5.36,5.36,0,0,0,5.7,0s3.31-5.68,3.31-26.54C216,735.68,213.41,724.54,211.73,720.57Z"/><path class="cls-123" d="M211.72,720.57a.75.75,0,0,0-1.46,0,74.13,74.13,0,0,0-7,31.41c0,20.71,3.77,26.36,3.77,26.36a5.34,5.34,0,0,0,5.66,0s3.29-5.65,3.29-26.36C215.93,735.57,213.39,724.5,211.72,720.57Z"/><path class="cls-124" d="M211.72,720.56a.75.75,0,0,0-1.45,0,73.55,73.55,0,0,0-7,31.19c0,20.56,3.74,26.17,3.74,26.17a5.28,5.28,0,0,0,5.61,0s3.27-5.61,3.27-26.17C215.87,735.46,213.37,724.47,211.72,720.56Z"/><path class="cls-124" d="M211.71,720.56a.74.74,0,0,0-1.44,0,73,73,0,0,0-7,31c0,20.42,3.72,26,3.72,26a5.23,5.23,0,0,0,5.57,0s3.25-5.56,3.25-26C215.82,735.35,213.36,724.44,211.71,720.56Z"/><path class="cls-1" d="M204.79,835a188.47,188.47,0,0,1-4.47-22.7,215.68,215.68,0,0,1-2-23.6,172.2,172.2,0,0,1,1.26-27.54c.23-1.78.15-5.31,1.94-6.06,3.22-1.36,10.16,6.92,13.44,12.18,0,0,2.18,3.5,3.29,13.82a142.18,142.18,0,0,1,.44,21A306.52,306.52,0,0,1,215,835.87h0C213.73,835.62,210.57,838.47,204.79,835Z"/><path class="cls-2" d="M204.77,834.44a186.91,186.91,0,0,1-4.43-22.55,217.93,217.93,0,0,1-2-23.44,174.28,174.28,0,0,1,1.26-27.53c.23-1.79.16-5.29,1.94-6.06,3.2-1.4,10.06,6.8,13.31,12.07,0,0,2.16,3.51,3.25,13.74a140.46,140.46,0,0,1,.44,20.9,301.42,301.42,0,0,1-3.59,33.78h0C213.63,835.11,210.5,837.94,204.77,834.44Z"/><path class="cls-3" d="M204.74,833.93a186.84,186.84,0,0,1-4.38-22.39,218.29,218.29,0,0,1-2-23.29,174,174,0,0,1,1.25-27.52c.24-1.8.18-5.28,1.94-6.07,3.18-1.43,10,6.69,13.18,12,0,.06,2.13,3.52,3.21,13.66a140.26,140.26,0,0,1,.43,20.76,298.31,298.31,0,0,1-3.54,33.79h0C213.54,834.59,210.43,837.4,204.74,833.93Z"/><path class="cls-4" d="M204.72,833.42a187.75,187.75,0,0,1-4.34-22.24,218.25,218.25,0,0,1-2-23.13,172.5,172.5,0,0,1,1.25-27.51c.23-1.81.18-5.26,1.92-6.07,3.18-1.46,9.88,6.57,13.06,11.86,0,.08,2.11,3.54,3.17,13.57a140,140,0,0,1,.43,20.63,295.86,295.86,0,0,1-3.51,33.79h0C213.44,834.08,210.37,836.87,204.72,833.42Z"/><path class="cls-125" d="M204.7,832.92a185.65,185.65,0,0,1-4.29-22.1,215.63,215.63,0,0,1-2-23,172.19,172.19,0,0,1,1.24-27.5c.24-1.81.2-5.25,1.92-6.07,3.16-1.5,9.78,6.45,12.93,11.75,0,.11,2.08,3.55,3.13,13.49a141.11,141.11,0,0,1,.43,20.5,296,296,0,0,1-3.47,33.79h0C213.35,833.57,210.3,836.33,204.7,832.92Z"/><path class="cls-5" d="M204.68,832.41a184.08,184.08,0,0,1-4.25-21.95,215.36,215.36,0,0,1-2-22.81,171.88,171.88,0,0,1,1.23-27.49c.25-1.82.21-5.24,1.92-6.07,3.14-1.54,9.68,6.34,12.8,11.64,0,.13,2.06,3.56,3.1,13.4A141.18,141.18,0,0,1,218,799.5a293.77,293.77,0,0,1-3.44,33.79h0C213.25,833.05,210.23,835.8,204.68,832.41Z"/><path class="cls-6" d="M204.65,831.9a186.59,186.59,0,0,1-4.2-21.79,213.12,213.12,0,0,1-1.93-22.66A171.6,171.6,0,0,1,199.75,760c.24-1.83.22-5.22,1.91-6.07,3.13-1.57,9.59,6.22,12.66,11.53,0,.16,2,3.58,3.07,13.32a143.89,143.89,0,0,1,.42,20.24,298.67,298.67,0,0,1-3.4,33.79h0C213.16,832.54,210.17,835.26,204.65,831.9Z"/><path class="cls-7" d="M204.63,831.39a185,185,0,0,1-4.16-21.64,213.09,213.09,0,0,1-1.91-22.5,171.3,171.3,0,0,1,1.22-27.47c.25-1.84.23-5.21,1.91-6.07,3.11-1.61,9.49,6.1,12.53,11.42,0,.19,2,3.59,3,13.23a144,144,0,0,1,.41,20.11,293.92,293.92,0,0,1-3.36,33.79h0C213.06,832,210.1,834.73,204.63,831.39Z"/><path class="cls-8" d="M204.61,830.88a183.44,183.44,0,0,1-4.12-21.49,213.07,213.07,0,0,1-1.89-22.34,169.85,169.85,0,0,1,1.21-27.46c.25-1.85.25-5.2,1.91-6.08,3.09-1.64,9.4,6,12.4,11.32,0,.21,2,3.6,3,13.15a143.61,143.61,0,0,1,.41,20,296.7,296.7,0,0,1-3.32,33.8h0C213,831.51,210,834.19,204.61,830.88Z"/><path class="cls-8" d="M204.59,830.38A185,185,0,0,1,200.51,809a213.77,213.77,0,0,1-1.87-22.19,169.53,169.53,0,0,1,1.21-27.45c.25-1.85.25-5.18,1.9-6.08,3.08-1.68,9.3,5.87,12.27,11.21,0,.24,2,3.62,2.95,13.07a145,145,0,0,1,.41,19.84,294.94,294.94,0,0,1-3.29,33.79h0C212.87,831,210,833.66,204.59,830.38Z"/><path class="cls-9" d="M204.56,829.87a183.92,183.92,0,0,1-4-21.19,208.21,208.21,0,0,1-1.86-22,169.36,169.36,0,0,1,1.2-27.45c.25-1.86.27-5.17,1.89-6.08,3.07-1.72,9.21,5.76,12.15,11.1,0,.27,1.94,3.63,2.92,13a146.76,146.76,0,0,1,.4,19.71,295.69,295.69,0,0,1-3.25,33.8h0C212.78,830.49,209.9,833.12,204.56,829.87Z"/><path class="cls-9" d="M204.54,829.36a182.34,182.34,0,0,1-4-21,210.73,210.73,0,0,1-1.85-21.86A169.12,169.12,0,0,1,199.92,759c.25-1.87.27-5.16,1.88-6.08,3-1.76,9.12,5.64,12,11,0,.29,1.92,3.64,2.88,12.9a144.81,144.81,0,0,1,.4,19.57,296.13,296.13,0,0,1-3.22,33.8h0C212.68,830,209.83,832.59,204.54,829.36Z"/><path class="cls-10" d="M204.52,828.85A183.44,183.44,0,0,1,200.58,808a210.78,210.78,0,0,1-1.83-21.7,168.82,168.82,0,0,1,1.2-27.43c.25-1.88.29-5.14,1.88-6.08,3-1.79,9,5.52,11.89,10.88,0,.32,1.91,3.65,2.84,12.81a144.8,144.8,0,0,1,.4,19.45,294.89,294.89,0,0,1-3.18,33.8h0C212.59,829.46,209.77,832.05,204.52,828.85Z"/><path class="cls-11" d="M204.5,828.34a181.93,181.93,0,0,1-3.9-20.73,214.2,214.2,0,0,1-1.81-21.55A168.53,168.53,0,0,1,200,758.64c.26-1.88.3-5.13,1.88-6.09,3-1.82,8.92,5.41,11.75,10.78,0,.34,1.9,3.67,2.81,12.73a143.08,143.08,0,0,1,.39,19.31,291.16,291.16,0,0,1-3.14,33.8h0C212.49,829,209.7,831.52,204.5,828.34Z"/><path class="cls-12" d="M204.47,827.84a182.47,182.47,0,0,1-3.85-20.59,214.35,214.35,0,0,1-1.79-21.39A168.27,168.27,0,0,1,200,758.45c.26-1.89.31-5.12,1.87-6.09,3-1.86,8.83,5.29,11.62,10.67,0,.37,1.87,3.68,2.77,12.64a143,143,0,0,1,.39,19.18,292.35,292.35,0,0,1-3.1,33.81h0C212.4,828.44,209.63,831,204.47,827.84Z"/><path class="cls-13" d="M204.45,827.33a183.69,183.69,0,0,1-3.81-20.44,211.53,211.53,0,0,1-1.77-21.23,168,168,0,0,1,1.18-27.4c.26-1.9.32-5.11,1.87-6.09,3-1.9,8.73,5.18,11.49,10.56,0,.4,1.85,3.69,2.73,12.56a144.49,144.49,0,0,1,.39,19.05,293.22,293.22,0,0,1-3.07,33.8h0C212.3,827.92,209.57,830.45,204.45,827.33Z"/><path class="cls-126" d="M204.43,826.82a180.92,180.92,0,0,1-3.76-20.29,208.53,208.53,0,0,1-1.76-21.07,166.59,166.59,0,0,1,1.17-27.39c.27-1.91.34-5.09,1.87-6.09,3-1.94,8.63,5.06,11.36,10.45,0,.42,1.82,3.71,2.7,12.48a146.33,146.33,0,0,1,.38,18.91,294.45,294.45,0,0,1-3,33.81h0C212.21,827.41,209.5,829.91,204.43,826.82Z"/><path class="cls-14" d="M204.41,826.31a179.4,179.4,0,0,1-3.72-20.13A209.14,209.14,0,0,1,199,785.26a166.33,166.33,0,0,1,1.17-27.38c.26-1.91.34-5.08,1.85-6.09,3-2,8.55,4.94,11.24,10.34a44.55,44.55,0,0,1,2.66,12.39,146.41,146.41,0,0,1,.38,18.79,293.47,293.47,0,0,1-3,33.8h0C212.11,826.9,209.43,829.38,204.41,826.31Z"/><path class="cls-15" d="M204.39,825.81a181.19,181.19,0,0,1-3.68-20c-.8-6.05-1.48-13.13-1.72-20.76a166.06,166.06,0,0,1,1.16-27.37c.27-1.92.36-5.07,1.85-6.1,2.94-2,8.45,4.83,11.11,10.24a45.12,45.12,0,0,1,2.62,12.31,144.67,144.67,0,0,1,.37,18.65,292.88,292.88,0,0,1-2.95,33.81h0C212,826.38,209.37,828.84,204.39,825.81Z"/><path class="cls-15" d="M204.36,825.3a181.31,181.31,0,0,1-3.63-19.84c-.79-6-1.46-13-1.7-20.6a164.7,164.7,0,0,1,1.15-27.36c.27-1.93.37-5.06,1.85-6.1,2.93-2,8.35,4.72,11,10.13a45.25,45.25,0,0,1,2.59,12.22,144.63,144.63,0,0,1,.37,18.52A294.12,294.12,0,0,1,213,826.08h0C211.92,825.87,209.3,828.31,204.36,825.3Z"/><path class="cls-16" d="M204.34,824.79a182.71,182.71,0,0,1-3.59-19.69c-.78-6-1.45-12.92-1.68-20.44a164.45,164.45,0,0,1,1.15-27.35c.27-1.94.38-5,1.84-6.1,2.91-2.09,8.26,4.6,10.84,10a46,46,0,0,1,2.55,12.14,144.51,144.51,0,0,1,.37,18.39,296.06,296.06,0,0,1-2.88,33.81h0C211.83,825.36,209.23,827.77,204.34,824.79Z"/><path class="cls-18" d="M204.32,824.28a179.92,179.92,0,0,1-3.54-19.53c-.78-5.91-1.44-12.83-1.68-20.29a165.27,165.27,0,0,1,1.15-27.34c.28-1.94.39-5,1.84-6.1,2.89-2.13,9.13,4.12,10.71,9.91.15.54,1.71,3.77,2.51,12.05a146.42,146.42,0,0,1,.37,18.26,295.44,295.44,0,0,1-2.85,33.81h0C211.73,824.84,209.17,827.24,204.32,824.28Z"/><path class="cls-127" d="M204.3,823.77a178.31,178.31,0,0,1-3.5-19.38c-.77-5.87-1.42-12.73-1.66-20.13a165,165,0,0,1,1.15-27.33c.27-1.95.39-5,1.83-6.1,2.88-2.18,9,4,10.58,9.8.15.56,1.69,3.78,2.48,12a148.55,148.55,0,0,1,.36,18.12,299.93,299.93,0,0,1-2.81,33.82h0C211.64,824.33,209.1,826.7,204.3,823.77Z"/><path class="cls-19" d="M204.27,823.27A182.17,182.17,0,0,1,200.82,804c-.76-5.82-1.4-12.63-1.64-20a163.68,163.68,0,0,1,1.14-27.32c.28-2,.41-5,1.83-6.11,2.86-2.21,8.91,3.92,10.45,9.7.15.59,1.66,3.8,2.44,11.89a144.81,144.81,0,0,1,.35,18A297.08,297.08,0,0,1,212.62,824h0C211.54,823.82,209,826.17,204.27,823.27Z"/><path class="cls-128" d="M204.25,822.76a180.55,180.55,0,0,1-3.41-19.09c-.75-5.77-1.38-12.53-1.62-19.8a163.49,163.49,0,0,1,1.13-27.32c.28-2,.42-5,1.82-6.11,2.85-2.25,8.81,3.81,10.33,9.59.16.62,1.64,3.81,2.4,11.8a146.92,146.92,0,0,1,.35,17.86,299.53,299.53,0,0,1-2.73,33.82h0C211.45,823.31,209,825.63,204.25,822.76Z"/><path class="cls-21" d="M204.23,822.25a179,179,0,0,1-3.37-18.93c-.74-5.73-1.37-12.44-1.6-19.65a163.24,163.24,0,0,1,1.13-27.31c.28-2,.43-5,1.81-6.11,2.84-2.29,8.69,3.7,10.2,9.48a44,44,0,0,1,2.36,11.72,146.9,146.9,0,0,1,.35,17.73c-.34,11.21-1.23,24.53-2.7,33.81h0C211.35,822.79,208.9,825.1,204.23,822.25Z"/><path class="cls-21" d="M204.21,821.74A180.63,180.63,0,0,1,200.88,803c-.72-5.68-1.35-12.34-1.58-19.49a163,163,0,0,1,1.12-27.3c.28-2,.44-5,1.81-6.11,2.82-2.33,8.58,3.59,10.06,9.37a44.34,44.34,0,0,1,2.33,11.63,147,147,0,0,1,.35,17.6,301.86,301.86,0,0,1-2.66,33.82h0C211.26,822.28,208.83,824.56,204.21,821.74Z"/><path class="cls-23" d="M204.18,821.23a179.58,179.58,0,0,1-3.27-18.63c-.72-5.64-1.34-12.23-1.57-19.33A161.68,161.68,0,0,1,200.45,756c.29-2,.46-5,1.81-6.11,2.8-2.37,8.47,3.49,9.93,9.26a44.2,44.2,0,0,1,2.29,11.55,149.07,149.07,0,0,1,.35,17.46c-.33,11.4-1.22,24.89-2.63,33.82h0C211.16,821.77,208.77,824,204.18,821.23Z"/><path class="cls-23" d="M204.16,820.73a178.54,178.54,0,0,1-3.23-18.49c-.71-5.59-1.32-12.13-1.55-19.17a161.43,161.43,0,0,1,1.11-27.28c.28-2,.46-5,1.8-6.12,2.78-2.41,8.36,3.39,9.8,9.16a45.46,45.46,0,0,1,2.26,11.47,147.58,147.58,0,0,1,.33,17.33c-.32,11.48-1.2,25.06-2.58,33.82h0C211.07,821.25,208.7,823.49,204.16,820.73Z"/><path class="cls-24" d="M204.14,820.22A180.38,180.38,0,0,1,201,801.89c-.7-5.55-1.3-12-1.53-19a161.18,161.18,0,0,1,1.1-27.27c.29-2,.48-5,1.8-6.12,2.77-2.45,8.24,3.28,9.67,9a46,46,0,0,1,2.22,11.38,147.75,147.75,0,0,1,.33,17.2c-.32,11.57-1.19,25.24-2.55,33.82h0C211,820.74,208.63,823,204.14,820.22Z"/><path class="cls-129" d="M204.12,819.71A178.75,178.75,0,0,1,201,801.53c-.69-5.5-1.29-11.94-1.51-18.86a162,162,0,0,1,1.09-27.26c.3-2,.49-4.94,1.8-6.12,2.75-2.49,8.13,3.17,9.54,8.94a47.08,47.08,0,0,1,2.18,11.3,150,150,0,0,1,.33,17.06c-.32,11.67-1.19,25.42-2.51,33.83h0C210.88,820.23,208.57,822.43,204.12,819.71Z"/><path class="cls-27" d="M204.09,819.2a179.17,179.17,0,0,1-3.1-18c-.68-5.46-1.27-11.84-1.49-18.7a157.65,157.65,0,0,1,1.09-27.25c.29-2,.49-4.93,1.78-6.12,2.74-2.54,8,3.06,9.42,8.83a47,47,0,0,1,2.14,11.21,148.09,148.09,0,0,1,.33,16.94c-.32,11.75-1.18,25.59-2.48,33.82h0C210.78,819.71,208.5,821.89,204.09,819.2Z"/><path class="cls-27" d="M204.07,818.69A181.13,181.13,0,0,1,201,800.81c-.67-5.41-1.25-11.74-1.48-18.54A158.37,158.37,0,0,1,200.62,755c.29-2,.51-4.92,1.78-6.12,2.72-2.58,7.91,3,9.28,8.72a47.09,47.09,0,0,1,2.11,11.13,148.09,148.09,0,0,1,.33,16.8c-.32,11.84-1.17,25.77-2.44,33.83h0C210.69,819.2,208.43,821.36,204.07,818.69Z"/><path class="cls-28" d="M204.05,818.19a178.7,178.7,0,0,1-3-17.73c-.67-5.37-1.24-11.65-1.47-18.39a159.19,159.19,0,0,1,1.08-27.23c.3-2,.52-4.91,1.78-6.13,2.71-2.61,7.8,2.86,9.15,8.62a47.76,47.76,0,0,1,2.07,11A150.79,150.79,0,0,1,214,785c-.31,11.93-1.16,26-2.41,33.83h0C210.59,818.69,208.37,820.82,204.05,818.19Z"/><path class="cls-130" d="M204,817.68a177.06,177.06,0,0,1-3-17.58c-.66-5.32-1.22-11.54-1.45-18.23a157.94,157.94,0,0,1,1.08-27.22c.29-2,.53-4.9,1.77-6.13,2.69-2.66,7.69,2.75,9,8.51a49.29,49.29,0,0,1,2,11,151.79,151.79,0,0,1,.31,16.54c-.3,12-1.15,26.12-2.36,33.83h0C210.5,818.17,208.3,820.29,204,817.68Z"/><path class="cls-131" d="M204,817.17s-1.63-6.95-2.92-17.43c-.65-5.27-1.21-11.44-1.43-18.07a157.71,157.71,0,0,1,1.07-27.21c.3-2.05.54-4.89,1.77-6.13,2.67-2.7,7.57,2.64,8.89,8.4a49.72,49.72,0,0,1,2,10.88,149.36,149.36,0,0,1,.31,16.4c-.3,12.11-1.14,26.3-2.33,33.83h0C210.4,817.66,208.23,819.75,204,817.17Z"/><path class="cls-30" d="M204,816.66s-1.61-6.89-2.88-17.28c-.64-5.23-1.19-11.34-1.41-17.91a156.48,156.48,0,0,1,1.07-27.2c.29-2.06.54-4.88,1.76-6.13,2.65-2.74,7.46,2.53,8.76,8.29a50.46,50.46,0,0,1,2,10.79,152.45,152.45,0,0,1,.31,16.28c-.3,12.19-1.13,26.47-2.29,33.83h0C210.31,817.15,208.17,819.22,204,816.66Z"/><path class="cls-32" d="M204,816.16s-1.59-6.84-2.84-17.13c-.63-5.19-1.17-11.25-1.39-17.76a156.25,156.25,0,0,1,1.06-27.19c.3-2.06.56-4.87,1.76-6.13,2.63-2.79,7.35,2.42,8.63,8.18a51.05,51.05,0,0,1,1.92,10.71,152.7,152.7,0,0,1,.31,16.14c-.3,12.28-1.13,26.65-2.26,33.83h0C210.21,816.64,208.1,818.68,204,816.16Z"/><path class="cls-132" d="M203.94,815.65s-1.56-6.78-2.8-17c-.62-5.14-1.15-11.15-1.37-17.59a156.1,156.1,0,0,1,1-27.19c.31-2.07.57-4.86,1.75-6.14,2.62-2.82,7.25,2.32,8.5,8.08A51.07,51.07,0,0,1,213,766.45a150.46,150.46,0,0,1,.31,16c-.29,12.38-1.12,26.83-2.22,33.84h0C210.12,816.12,208,818.15,203.94,815.65Z"/><path class="cls-33" d="M203.91,815.14s-1.53-6.72-2.74-16.83c-.61-5.09-1.15-11-1.36-17.43a154.9,154.9,0,0,1,1.05-27.18c.3-2.08.57-4.85,1.74-6.14,2.6-2.87,7.13,2.21,8.37,8a51.83,51.83,0,0,1,1.85,10.54,151.16,151.16,0,0,1,.3,15.88c-.28,12.46-1.1,27-2.18,33.83h0C210,815.61,208,817.61,203.91,815.14Z"/><path class="cls-133" d="M203.89,814.63s-1.51-6.66-2.7-16.68c-.6-5.05-1.13-11-1.34-17.27a154.68,154.68,0,0,1,1-27.17c.31-2.09.59-4.84,1.74-6.14,2.58-2.91,7,2.1,8.24,7.86a53.68,53.68,0,0,1,1.82,10.45,154.9,154.9,0,0,1,.29,15.75c-.28,12.55-1.09,27.18-2.14,33.84h0C209.93,815.1,207.9,817.08,203.89,814.63Z"/><path class="cls-36" d="M203.87,814.12s-1.48-6.6-2.66-16.52c-.59-5-1.11-10.86-1.32-17.12a155.43,155.43,0,0,1,1-27.16c.31-2.09.6-4.83,1.74-6.14,2.56-3,6.91,2,8.11,7.75a54.12,54.12,0,0,1,1.78,10.37,152.31,152.31,0,0,1,.29,15.61c-.28,12.64-1.09,27.36-2.11,33.84h0C209.83,814.58,207.83,816.54,203.87,814.12Z"/><path class="cls-134" d="M203.85,813.62s-1.46-6.55-2.62-16.38c-.58-5-1.09-10.75-1.31-17a154.23,154.23,0,0,1,1-27.15c.31-2.1.6-4.82,1.73-6.14,2.54-3,6.79,1.88,8,7.64a55.88,55.88,0,0,1,1.74,10.29c.34,4.14.42,9.29.29,15.48-.28,12.73-1.08,27.53-2.07,33.84h0C209.74,814.07,207.77,816,203.85,813.62Z"/><path class="cls-37" d="M203.82,813.11s-1.42-6.49-2.57-16.23c-.57-4.91-1.07-10.65-1.29-16.8a155,155,0,0,1,1-27.14c.31-2.11.62-4.81,1.73-6.14,2.52-3,6.68,1.77,7.85,7.53a56.52,56.52,0,0,1,1.7,10.2c.34,4.13.41,9.23.29,15.35-.27,12.82-1.07,27.71-2,33.84h0C209.64,813.56,207.7,815.47,203.82,813.11Z"/><path class="cls-38" d="M203.8,812.6s-1.4-6.43-2.52-16.08c-.57-4.86-1.07-10.55-1.28-16.64a154.76,154.76,0,0,1,1-27.13c.32-2.12.63-4.8,1.73-6.15,2.5-3.08,6.57,1.67,7.72,7.43a58,58,0,0,1,1.66,10.12c.33,4.1.41,9.16.28,15.21-.26,12.91-1,27.89-2,33.85h0C209.55,813,207.63,814.94,203.8,812.6Z"/><path class="cls-39" d="M203.78,812.09s-1.38-6.37-2.48-15.92c-.56-4.83-1.05-10.46-1.26-16.49-.33-8.95-.23-18.77,1-27.12.32-2.13.63-4.79,1.71-6.15,2.49-3.13,6.46,1.56,7.59,7.32a57.08,57.08,0,0,1,1.63,10c.33,4.08.4,9.1.28,15.09-.26,13-1.05,28.06-2,33.84h0C209.45,812.53,207.57,814.4,203.78,812.09Z"/><path class="cls-41" d="M203.76,811.58s-1.35-6.31-2.44-15.77c-.55-4.78-1-10.36-1.24-16.33-.34-9-.23-18.79,1-27.11.32-2.13.64-4.78,1.71-6.15,2.47-3.17,6.35,1.45,7.46,7.21a59.42,59.42,0,0,1,1.6,10c.32,4,.38,9,.27,15-.25,13.09-1,28.24-1.92,33.85h0C209.36,812,207.5,813.87,203.76,811.58Z"/><path class="cls-135" d="M203.74,811.08s-1.33-6.26-2.4-15.63c-.54-4.73-1-10.26-1.22-16.17a154.1,154.1,0,0,1,1-27.1c.32-2.14.65-4.77,1.7-6.15,2.45-3.22,6.23,1.33,7.33,7.1a60.05,60.05,0,0,1,1.56,9.86c.31,4,.38,9,.27,14.83-.25,13.17-1,28.41-1.89,33.84h0C209.26,811.51,207.43,813.33,203.74,811.08Z"/><path class="cls-42" d="M203.71,810.57s-1.3-6.2-2.35-15.48c-.53-4.68-1-10.16-1.2-16-.34-9-.23-18.82,1-27.09.33-2.15.66-4.76,1.7-6.15,2.43-3.26,6.12,1.22,7.2,7a61.93,61.93,0,0,1,1.52,9.78c.31,4,.37,8.9.27,14.69-.25,13.26-1,28.59-1.85,33.85h0C209.17,811,207.37,812.8,203.71,810.57Z"/><path class="cls-44" d="M203.69,810.06s-1.27-6.14-2.31-15.32c-.52-4.65-1-10.06-1.18-15.86-.34-9-.23-18.83,1-27.08.33-2.15.67-4.75,1.7-6.16,2.41-3.3,6,1.12,7.07,6.89a62.55,62.55,0,0,1,1.48,9.7c.31,4,.37,8.83.26,14.55-.23,13.36-1,28.77-1.81,33.85h0C209.07,810.48,207.3,812.26,203.69,810.06Z"/><path class="cls-136" d="M203.67,809.55s-1.25-6.08-2.26-15.17c-.52-4.6-1-10-1.17-15.7-.35-9-.24-18.85,1-27.07.33-2.16.67-4.74,1.69-6.16,2.39-3.34,5.89,1,6.94,6.78a64.56,64.56,0,0,1,1.44,9.61c.3,4,.36,8.77.26,14.43-.23,13.44-1,28.94-1.77,33.85h0C209,810,207.23,811.73,203.67,809.55Z"/><path class="cls-46" d="M203.65,809s-1.23-6-2.22-15c-.5-4.55-1-9.86-1.15-15.54-.35-9-.25-18.86,1-27.06.33-2.17.69-4.73,1.69-6.16,2.37-3.39,5.78.9,6.8,6.67a64.54,64.54,0,0,1,1.41,9.53c.3,3.93.35,8.71.26,14.29-.23,13.53-1,29.12-1.74,33.85h0C208.88,809.45,207.17,811.19,203.65,809Z"/><path class="cls-46" d="M203.62,808.54s-1.19-6-2.17-14.88c-.49-4.5-.93-9.76-1.13-15.37-.35-9-.25-18.89,1-27.06.34-2.18.7-4.72,1.68-6.16,2.36-3.44,5.68.79,6.68,6.56a66,66,0,0,1,1.38,9.44c.28,3.91.34,8.65.25,14.16-.22,13.62-1,29.3-1.7,33.86h0C208.79,808.94,207.1,810.66,203.62,808.54Z"/><path class="cls-47" d="M203.6,808s-1.17-5.91-2.13-14.72c-.48-4.46-.91-9.67-1.12-15.22-.34-9-.25-18.9,1-27.05.33-2.18.7-4.71,1.67-6.16,2.33-3.48,5.56.67,6.55,6.45a68.18,68.18,0,0,1,1.34,9.36c.28,3.88.33,8.58.25,14-.22,13.71-1,29.47-1.67,33.85h0C208.69,808.43,207,810.12,203.6,808Z"/><path class="cls-48" d="M203.58,807.52s-1.15-5.85-2.09-14.57c-.47-4.42-.9-9.57-1.1-15.06-.35-9-.26-18.92,1-27,.34-2.19.71-4.71,1.67-6.17,2.31-3.52,5.45.57,6.42,6.35a68.67,68.67,0,0,1,1.3,9.28c.28,3.86.33,8.51.24,13.89-.2,13.8-1,29.65-1.62,33.86h0C208.6,807.91,207,809.59,203.58,807.52Z"/><path class="cls-137" d="M203.56,807s-1.12-5.79-2.05-14.42c-.46-4.37-.88-9.47-1.08-14.9-.35-9-.26-18.93,1-27,.35-2.2.73-4.7,1.67-6.17,2.29-3.56,5.34.46,6.29,6.24a73.2,73.2,0,0,1,1.26,9.19c.27,3.84.32,8.45.24,13.76-.2,13.89-.95,29.83-1.59,33.86h0C208.5,807.4,206.9,809.05,203.56,807Z"/><path class="cls-49" d="M203.53,806.5s-1.09-5.73-2-14.26c-.46-4.33-.87-9.37-1.07-14.75-.35-9-.27-19,1-27,.34-2.21.73-4.69,1.66-6.17,2.27-3.61,5.22.35,6.16,6.13a75.42,75.42,0,0,1,1.22,9.11c.27,3.81.31,8.38.24,13.63-.2,14-1,30-1.55,33.86h0C208.41,806.89,206.83,808.52,203.53,806.5Z"/><path class="cls-50" d="M203.51,806s-1.07-5.68-1.95-14.12c-.45-4.28-.85-9.27-1.05-14.59-.36-9-.27-19,1-27,.35-2.22.74-4.68,1.66-6.17,2.24-3.66,5.11.23,6,6a73,73,0,0,1,1.19,9c.26,3.79.31,8.32.24,13.5-.19,14.07-.94,30.19-1.52,33.86h0C208.31,806.37,206.77,808,203.51,806Z"/><path class="cls-51" d="M203.49,805.49s-1-5.62-1.91-14c-.44-4.24-.83-9.17-1-14.43-.36-9-.28-19,.95-27,.34-2.22.74-4.67,1.65-6.17,2.22-3.7,5,.12,5.89,5.91a77.18,77.18,0,0,1,1.16,8.94c.25,3.76.29,8.25.23,13.37-.19,14.15-.93,30.36-1.48,33.86h0C208.22,805.86,206.7,807.45,203.49,805.49Z"/><path class="cls-52" d="M203.47,805s-1-5.56-1.87-13.82c-.43-4.19-.82-9.07-1-14.27-.36-9-.29-19,.94-27,.35-2.23.75-4.66,1.64-6.18,2.21-3.74,4.89,0,5.77,5.81a77.09,77.09,0,0,1,1.12,8.85c.24,3.74.29,8.19.23,13.24-.18,14.24-.92,30.54-1.45,33.86h0C208.12,805.35,206.63,806.91,203.47,805Z"/><path class="cls-54" d="M203.44,804.47s-1-5.5-1.82-13.66c-.42-4.15-.8-9-1-14.12-.36-9-.29-19,.93-27a19.67,19.67,0,0,1,1.64-6.18c2.18-3.78,4.78-.1,5.64,5.7a82.27,82.27,0,0,1,1.08,8.77c.24,3.72.28,8.12.22,13.1-.16,14.33-.91,30.72-1.4,33.87h0C208,804.84,206.57,806.38,203.44,804.47Z"/><path class="cls-54" d="M203.42,804s-1-5.45-1.78-13.52c-.41-4.1-.78-8.88-1-14-.37-9-.3-19,.93-27a20.24,20.24,0,0,1,1.63-6.18c2.16-3.83,4.66-.21,5.51,5.59a85.51,85.51,0,0,1,1,8.69c.24,3.69.28,8,.22,13-.16,14.42-.9,30.89-1.37,33.86h0C207.93,804.32,206.5,805.84,203.42,804Z"/><path class="cls-55" d="M203.4,803.46s-.94-5.39-1.73-13.37c-.41-4.05-.77-8.78-1-13.8-.37-9-.31-19,.92-27a20.61,20.61,0,0,1,1.63-6.18c2.13-3.88,4.55-.32,5.38,5.48a85,85,0,0,1,1,8.6c.23,3.67.27,8,.22,12.84-.15,14.51-.89,31.07-1.33,33.87h0C207.84,803.81,206.43,805.31,203.4,803.46Z"/><path class="cls-56" d="M203.38,803s-.92-5.33-1.69-13.22c-.4-4-.75-8.67-.95-13.64-.36-9-.3-19.05.92-27a21.22,21.22,0,0,1,1.63-6.18c2.11-3.92,4.44-.44,5.25,5.37.23,1.65.71,4.32,1,8.52.23,3.64.26,7.92.22,12.7-.15,14.6-.88,31.25-1.3,33.87h0C207.74,803.3,206.37,804.77,203.38,803Z"/><path class="cls-138" d="M203.35,802.44s-.88-5.27-1.64-13.06c-.38-4-.74-8.58-.93-13.49-.36-9-.31-19.07.92-26.94a21.71,21.71,0,0,1,1.62-6.19c2.09-4,4.32-.54,5.11,5.27.23,1.68.69,4.34.94,8.43.21,3.62.25,7.86.21,12.58-.14,14.68-.88,31.42-1.26,33.87h0C207.65,802.78,206.3,804.24,203.35,802.44Z"/><path class="cls-58" d="M203.33,801.93s-.86-5.21-1.6-12.91c-.37-3.92-.72-8.48-.91-13.33-.37-9.05-.31-19.09.91-26.93a22,22,0,0,1,1.62-6.19c2.06-4,4.21-.65,5,5.16.23,1.7.67,4.35.9,8.35.21,3.59.24,7.79.2,12.44-.12,14.78-.86,31.6-1.22,33.87h0C207.55,802.27,206.23,803.7,203.33,801.93Z"/><path class="cls-59" d="M203.31,801.43s-.83-5.16-1.56-12.77c-.36-3.87-.7-8.38-.89-13.16-.37-9.07-.32-19.11.9-26.93a22.75,22.75,0,0,1,1.62-6.19c2-4,4.09-.77,4.85,5,.23,1.73.64,4.36.86,8.26.2,3.58.24,7.73.2,12.31-.12,14.87-.85,31.78-1.18,33.88h0C207.46,801.76,206.17,803.17,203.31,801.43Z"/><path class="cls-60" d="M203.29,800.92s-.81-5.1-1.51-12.62c-.36-3.83-.69-8.28-.88-13-.37-9.07-.33-19.13.9-26.92a23.14,23.14,0,0,1,1.6-6.19c2-4.1,4-.88,4.73,4.94.22,1.76.61,4.38.82,8.18.2,3.55.23,7.66.2,12.18-.11,15-.85,32-1.15,33.87h0C207.36,801.24,206.1,802.63,203.29,800.92Z"/><path class="cls-61" d="M203.26,800.41s-.78-5-1.46-12.46c-.35-3.79-.68-8.19-.86-12.85-.37-9.08-.33-19.14.89-26.91a24.33,24.33,0,0,1,1.6-6.19c2-4.15,3.88-1,4.6,4.83.22,1.78.58,4.39.78,8.1.19,3.52.23,7.6.2,12-.1,15-.84,32.13-1.11,33.88h0C207.27,800.73,206,802.1,203.26,800.41Z"/><path class="cls-139" d="M203.24,799.9s-.75-5-1.42-12.31c-.34-3.74-.66-8.09-.84-12.69-.38-9.08-.34-19.16.88-26.9a25,25,0,0,1,1.6-6.2c2-4.18,3.76-1.1,4.47,4.73.21,1.81.56,4.4.74,8s.22,7.54.2,11.92c-.09,15.13-.83,32.3-1.08,33.87h0C207.17,800.22,206,801.56,203.24,799.9Z"/><path class="cls-63" d="M203.22,799.39s-.73-4.92-1.38-12.16c-.33-3.69-.64-8-.82-12.53-.38-9.09-.35-19.17.88-26.89a25.54,25.54,0,0,1,1.59-6.2c1.94-4.23,3.65-1.22,4.33,4.62.22,1.84.54,4.42.72,7.93s.21,7.47.18,11.78c-.08,15.22-.81,32.48-1,33.88h0C207.08,799.71,205.9,801,203.22,799.39Z"/><path class="cls-64" d="M203.2,798.89s-.71-4.87-1.34-12c-.32-3.64-.62-7.88-.8-12.37-.38-9.09-.35-19.19.87-26.88a26,26,0,0,1,1.59-6.2c1.92-4.27,3.53-1.33,4.2,4.51.22,1.86.51,4.43.68,7.84s.2,7.41.18,11.65c-.07,15.31-.81,32.66-1,33.88h0C207,799.19,205.83,800.49,203.2,798.89Z"/><path class="cls-65" d="M203.17,798.38s-.67-4.81-1.29-11.86c-.31-3.61-.6-7.79-.78-12.22-.38-9.1-.36-19.2.87-26.87a26.51,26.51,0,0,1,1.58-6.2c1.89-4.32,3.42-1.45,4.07,4.4.21,1.89.49,4.44.64,7.76s.2,7.34.18,11.52c-.06,15.4-.8,32.83-1,33.88h0C206.89,798.68,205.77,800,203.17,798.38Z"/><path class="cls-66" d="M203.15,797.87s-.65-4.75-1.24-11.71c-.31-3.56-.6-7.69-.78-12.06-.38-9.1-.35-19.22.87-26.86a27.54,27.54,0,0,1,1.58-6.2c1.86-4.37,3.3-1.56,3.94,4.29.21,1.92.46,4.46.6,7.68.15,3.4.19,7.27.18,11.38-.05,15.49-.79,33-.93,33.89h0C206.79,798.17,205.7,799.42,203.15,797.87Z"/><path class="cls-66" d="M203.13,797.36s-.63-4.69-1.2-11.56c-.3-3.51-.58-7.59-.76-11.9-.38-9.11-.36-19.23.86-26.85a29.09,29.09,0,0,1,1.57-6.21c1.85-4.4,3.2-1.67,3.82,4.19.2,2,.43,4.47.56,7.59.15,3.38.19,7.21.18,11.25,0,15.58-.78,33.19-.89,33.89h0C206.7,797.65,205.63,798.89,203.13,797.36Z"/><path class="cls-67" d="M203.11,796.85s-.6-4.63-1.16-11.41c-.29-3.46-.56-7.49-.74-11.74-.38-9.11-.37-19.25.86-26.84a29.73,29.73,0,0,1,1.56-6.21c1.82-4.45,3.09-1.78,3.69,4.08.2,2,.4,4.48.52,7.51.14,3.35.19,7.14.17,11.12,0,15.66-.77,33.36-.85,33.89h0C206.6,797.14,205.57,798.35,203.11,796.85Z"/><path class="cls-68" d="M203.09,796.35s-.58-4.58-1.12-11.26c-.28-3.42-.54-7.4-.72-11.59-.38-9.11-.37-19.26.85-26.83a30.37,30.37,0,0,1,1.56-6.21c1.79-4.5,3-1.9,3.55,4,.2,2,.38,4.5.5,7.42.12,3.33.17,7.08.16,11,0,15.76-.76,33.54-.81,33.89h0C206.51,796.63,205.5,797.82,203.09,796.35Z"/><path class="cls-69" d="M203.06,795.84s-.55-4.52-1.07-11.11c-.26-3.38-.52-7.3-.7-11.43-.39-9.12-.38-19.28.84-26.82a31.73,31.73,0,0,1,1.56-6.21c1.76-4.54,2.86-2,3.42,3.86.2,2,.35,4.51.46,7.34.11,3.31.16,7,.16,10.86,0,15.84-.75,33.71-.78,33.89h0C206.41,796.11,205.43,797.28,203.06,795.84Z"/><path class="cls-70" d="M203,795.33s-1.2-10.21-1.71-22.23-.34-25.82,2.39-33c3.07-8.11,3.86,5.8,3.87,21.73s-.74,33.89-.74,33.89C206.32,795.6,205.37,796.75,203,795.33Z"/><path class="cls-1" d="M218.22,835a157.68,157.68,0,0,0,4.7-23,202.73,202.73,0,0,0,1.86-24.8,184.05,184.05,0,0,0-2-30.16c-.76-5-4.17-18.87-4.75-19-3-.61-8.82,13.24-11.6,36.42a100.79,100.79,0,0,0-2.15,22c0,8.09.44,18.93.55,38.53.66-.13,1.45.92,3.36,1.48S213.1,837.05,218.22,835Z"/><path class="cls-2" d="M218,738.24c-2.92-.74-8.73,13.09-11.5,36.1-.34,1.75-.63,3.36-.88,4.88a99.8,99.8,0,0,0-1.25,17c0,8.1.41,18.89.52,38.24.65-.12,1.44.92,3.33,1.47s4.9.61,10-1.47a156.62,156.62,0,0,0,4.65-22.79,201.48,201.48,0,0,0,1.84-24.58,183.6,183.6,0,0,0-2-30C222,752.12,218.62,738.39,218,738.24Z"/><path class="cls-3" d="M218.09,738.49c-2.87-.86-8.65,12.94-11.4,35.79-.33,1.73-.62,3.33-.86,4.84A98.38,98.38,0,0,0,204.58,796c0,8.1.38,18.86.49,38,.64-.12,1.42.91,3.3,1.45s4.85.61,9.88-1.46a153.89,153.89,0,0,0,4.6-22.58A197.58,197.58,0,0,0,224.69,787a183.2,183.2,0,0,0-1.95-29.77C222,752.27,218.67,738.66,218.09,738.49Z"/><path class="cls-4" d="M218.14,738.73c-2.83-1-8.57,12.8-11.29,35.49-.34,1.71-.62,3.3-.86,4.81a98.88,98.88,0,0,0-1.25,16.73c0,8.11.36,18.83.46,37.68.64-.12,1.42.89,3.28,1.43s4.81.61,9.79-1.45a154.07,154.07,0,0,0,4.55-22.37,197.82,197.82,0,0,0,1.83-24.11,182.89,182.89,0,0,0-1.92-29.57C222,752.42,218.73,738.93,218.14,738.73Z"/><path class="cls-125" d="M218.19,739c-2.78-1.09-8.48,12.65-11.19,35.17-.33,1.71-.61,3.28-.85,4.78a98.38,98.38,0,0,0-1.24,16.6c-.06,8.12.33,18.81.43,37.4.64-.11,1.41.89,3.24,1.43s4.77.59,9.7-1.44a152.4,152.4,0,0,0,4.51-22.16,196.72,196.72,0,0,0,1.81-23.88,182.44,182.44,0,0,0-1.87-29.38C222,752.57,218.78,739.21,218.19,739Z"/><path class="cls-5" d="M218.24,739.23c-2.73-1.2-8.4,12.51-11.09,34.86-.32,1.69-.6,3.25-.84,4.74a99.15,99.15,0,0,0-1.23,16.48c-.05,8.13.3,18.78.4,37.12.63-.12,1.39.88,3.21,1.41s4.72.59,9.6-1.43a152,152,0,0,0,4.47-21.95,195,195,0,0,0,1.8-23.65,179.79,179.79,0,0,0-1.84-29.18C222,752.72,218.83,739.49,218.24,739.23Z"/><path class="cls-6" d="M218.29,739.47c-2.68-1.29-8.31,12.37-11,34.56-.33,1.67-.6,3.23-.84,4.7a101.06,101.06,0,0,0-1.23,16.36c-.05,8.14.28,18.74.38,36.84.62-.12,1.38.86,3.18,1.39s4.68.58,9.51-1.42a150.56,150.56,0,0,0,4.42-21.73,195.63,195.63,0,0,0,1.79-23.43,180.5,180.5,0,0,0-1.8-29C222,752.86,218.89,739.76,218.29,739.47Z"/><path class="cls-7" d="M218.34,739.72c-2.63-1.39-8.23,12.22-10.88,34.24-.32,1.67-.59,3.21-.83,4.67a100.67,100.67,0,0,0-1.22,16.23c-.07,8.15.25,18.72.35,36.57.61-.12,1.37.85,3.15,1.37s4.63.58,9.41-1.41a148.49,148.49,0,0,0,4.38-21.52,192,192,0,0,0,1.77-23.19,178.09,178.09,0,0,0-1.76-28.8C222,753,218.94,740,218.34,739.72Z"/><path class="cls-8" d="M218.39,740c-2.58-1.49-8.14,12.07-10.77,33.93-.32,1.65-.59,3.18-.83,4.63a100.41,100.41,0,0,0-1.21,16.11c-.08,8.16.22,18.69.32,36.28.61-.11,1.35.85,3.11,1.36s4.59.57,9.33-1.4a149.14,149.14,0,0,0,4.33-21.3,192.66,192.66,0,0,0,1.76-23,178.81,178.81,0,0,0-1.72-28.6C222,753.16,219,740.32,218.39,740Z"/><path class="cls-8" d="M218.44,740.21c-2.53-1.57-8.06,11.94-10.67,33.63-.31,1.63-.58,3.15-.81,4.59a100,100,0,0,0-1.22,16c-.08,8.17.2,18.66.29,36,.61-.11,1.35.84,3.09,1.34s4.55.57,9.23-1.38a147,147,0,0,0,4.29-21.1,191.09,191.09,0,0,0,1.75-22.73,178.52,178.52,0,0,0-1.68-28.41C222,753.31,219.05,740.6,218.44,740.21Z"/><path class="cls-9" d="M218.49,740.46c-2.48-1.66-8,11.79-10.57,33.31-.31,1.63-.57,3.13-.8,4.56a100.85,100.85,0,0,0-1.21,15.86c-.09,8.18.16,18.64.26,35.73.6-.12,1.33.82,3.06,1.32s4.5.57,9.14-1.37A147,147,0,0,0,222.6,809a187.61,187.61,0,0,0,1.74-22.51,176.87,176.87,0,0,0-1.64-28.21C222,753.46,219.11,740.88,218.49,740.46Z"/><path class="cls-9" d="M218.54,740.71c-2.43-1.75-7.89,11.64-10.46,33-.31,1.61-.57,3.1-.8,4.52a100.53,100.53,0,0,0-1.2,15.74c-.1,8.19.13,18.6.23,35.44.6-.11,1.32.82,3,1.31s4.45.56,9-1.36a144.92,144.92,0,0,0,4.19-20.67,188,188,0,0,0,1.73-22.27,179,179,0,0,0-1.6-28C222,753.61,219.17,741.16,218.54,740.71Z"/><path class="cls-10" d="M218.59,741c-2.38-1.82-7.8,11.5-10.36,32.7-.3,1.59-.57,3.07-.79,4.48a101.52,101.52,0,0,0-1.2,15.62c-.11,8.19.11,18.57.21,35.16.59-.11,1.31.81,3,1.29s4.42.56,9-1.35a143.86,143.86,0,0,0,4.14-20.46,186.22,186.22,0,0,0,1.72-22,177.46,177.46,0,0,0-1.57-27.82C222,753.76,219.22,741.44,218.59,741Z"/><path class="cls-11" d="M218.64,741.2c-2.34-1.9-7.72,11.35-10.26,32.38-.3,1.59-.56,3.06-.78,4.46a101.06,101.06,0,0,0-1.19,15.48c-.12,8.21.08,18.55.18,34.89.58-.11,1.29.79,3,1.27s4.37.55,8.86-1.34a143.13,143.13,0,0,0,4.1-20.24,185,185,0,0,0,1.7-21.82,177.22,177.22,0,0,0-1.52-27.63C222,753.91,219.28,741.72,218.64,741.2Z"/><path class="cls-12" d="M218.69,741.45c-2.29-2-7.63,11.21-10.15,32.07-.3,1.57-.56,3-.78,4.42a101.94,101.94,0,0,0-1.18,15.36c-.13,8.22,0,18.52.14,34.6.58-.11,1.29.79,2.94,1.27s4.32.54,8.77-1.33a142.46,142.46,0,0,0,4-20,187.85,187.85,0,0,0,1.69-21.58,179.56,179.56,0,0,0-1.49-27.44C222.05,754.06,219.33,742,218.69,741.45Z"/><path class="cls-13" d="M218.74,741.69c-2.25-2-7.55,11.07-10.05,31.77-.29,1.55-.55,3-.76,4.38a101.73,101.73,0,0,0-1.19,15.24c-.13,8.22,0,18.49.12,34.32.58-.11,1.28.78,2.91,1.25s4.28.53,8.67-1.32a142.18,142.18,0,0,0,4-19.82,188.81,188.81,0,0,0,1.68-21.36,180.54,180.54,0,0,0-1.45-27.24C222.05,754.21,219.39,742.28,218.74,741.69Z"/><path class="cls-126" d="M218.79,741.94c-2.2-2.11-7.46,10.92-9.94,31.45-.3,1.54-.55,3-.76,4.35a101.45,101.45,0,0,0-1.18,15.12c-.14,8.23,0,18.46.09,34,.57-.11,1.26.76,2.87,1.23s4.24.53,8.59-1.31a140.71,140.71,0,0,0,4-19.61,185,185,0,0,0,1.66-21.12A176.42,176.42,0,0,0,222.67,759C222.06,754.36,219.44,742.56,218.79,741.94Z"/><path class="cls-14" d="M218.84,742.19C216.68,740,211.46,753,209,773.33c-.29,1.53-.54,2.95-.75,4.31a101.26,101.26,0,0,0-1.17,15c-.16,8.25,0,18.43.06,33.76.56-.1,1.25.76,2.84,1.22s4.19.53,8.49-1.3a137.89,137.89,0,0,0,3.91-19.39A183.44,183.44,0,0,0,224,786a177.39,177.39,0,0,0-1.37-26.85C222.06,754.51,219.5,742.85,218.84,742.19Z"/><path class="cls-15" d="M218.89,742.44c-2.12-2.25-7.29,10.63-9.74,30.83-.28,1.51-.53,2.92-.74,4.27a102.36,102.36,0,0,0-1.17,14.87c-.16,8.25-.05,18.4,0,33.48.55-.1,1.24.75,2.81,1.2s4.15.52,8.4-1.28a139.06,139.06,0,0,0,3.86-19.19A182.1,182.1,0,0,0,224,786a177.16,177.16,0,0,0-1.32-26.66C222.07,754.66,219.55,743.13,218.89,742.44Z"/><path class="cls-15" d="M218.94,742.68c-2.08-2.31-7.21,10.49-9.63,30.52-.29,1.5-.53,2.9-.74,4.24a103.56,103.56,0,0,0-1.16,14.75c-.17,8.26-.08,18.37,0,33.2.55-.11,1.22.73,2.78,1.18s4.1.52,8.3-1.27a136.53,136.53,0,0,0,3.82-19A180.77,180.77,0,0,0,224,785.89a175.81,175.81,0,0,0-1.29-26.47C222.07,754.81,219.6,743.42,218.94,742.68Z"/><path class="cls-16" d="M219,742.93c-2.05-2.37-7.13,10.34-9.53,30.21-.28,1.49-.52,2.88-.73,4.2A103.44,103.44,0,0,0,207.58,792c-.18,8.27-.11,18.35,0,32.92.55-.1,1.22.73,2.75,1.17s4.06.51,8.22-1.26A137.36,137.36,0,0,0,222.29,806a181.43,181.43,0,0,0,1.62-20.2,177,177,0,0,0-1.25-26.28C222.08,755,219.66,743.7,219,742.93Z"/><path class="cls-18" d="M219,743.18c-2-2.44-7,10.19-9.43,29.9-.27,1.47-.51,2.85-.71,4.16a103.19,103.19,0,0,0-1.16,14.5c-.19,8.28-.13,18.32-.05,32.64.54-.1,1.2.72,2.72,1.15s4,.51,8.12-1.25a135.25,135.25,0,0,0,3.73-18.54,180.32,180.32,0,0,0,1.6-20,175.33,175.33,0,0,0-1.21-26.08C222.08,755.11,219.71,744,219,743.18Z"/><path class="cls-127" d="M219.09,743.42c-2-2.49-7,10.05-9.32,29.59-.27,1.46-.51,2.83-.71,4.14a102.85,102.85,0,0,0-1.15,14.37c-.2,8.29-.16,18.28-.08,32.36.54-.1,1.19.7,2.69,1.13s4,.5,8-1.24a133.79,133.79,0,0,0,3.68-18.33,178.82,178.82,0,0,0,1.59-19.75,176.51,176.51,0,0,0-1.17-25.88C222.09,755.26,219.76,744.27,219.09,743.42Z"/><path class="cls-19" d="M219.14,743.67c-1.94-2.56-6.87,9.91-9.22,29.28-.27,1.45-.5,2.8-.7,4.1a102.63,102.63,0,0,0-1.14,14.24c-.21,8.3-.19,18.26-.11,32.08.53-.09,1.18.7,2.66,1.13s3.92.49,7.93-1.23a134,134,0,0,0,3.64-18.13,179.61,179.61,0,0,0,1.58-19.51,175,175,0,0,0-1.14-25.69C222.1,755.4,219.82,744.56,219.14,743.67Z"/><path class="cls-128" d="M219.19,743.92c-1.91-2.62-6.79,9.76-9.12,29-.26,1.43-.49,2.77-.69,4.06a102.45,102.45,0,0,0-1.13,14.12c-.22,8.31-.22,18.23-.14,31.8.52-.1,1.16.69,2.62,1.11s3.89.49,7.85-1.22a132.19,132.19,0,0,0,3.58-17.91,175.83,175.83,0,0,0,1.57-19.29,174.81,174.81,0,0,0-1.09-25.49C222.1,755.55,219.87,744.84,219.19,743.92Z"/><path class="cls-21" d="M219.24,744.16c-1.88-2.68-6.7,9.62-9,28.66-.26,1.42-.49,2.75-.69,4a104,104,0,0,0-1.13,14c-.23,8.32-.24,18.2-.16,31.52.51-.1,1.15.67,2.59,1.09s3.84.48,7.75-1.21a131.52,131.52,0,0,0,3.54-17.7,174.15,174.15,0,0,0,1.56-19,176.12,176.12,0,0,0-1.05-25.3C222.11,755.7,219.92,745.13,219.24,744.16Z"/><path class="cls-21" d="M219.29,744.41c-1.84-2.74-6.62,9.47-8.91,28.35-.26,1.41-.48,2.72-.68,4a105.52,105.52,0,0,0-1.12,13.87c-.24,8.33-.27,18.18-.2,31.25.52-.1,1.15.66,2.57,1.07s3.79.48,7.66-1.2a130.55,130.55,0,0,0,3.49-17.48,175.41,175.41,0,0,0,1.55-18.83,174.77,174.77,0,0,0-1-25.11C222.11,755.85,220,745.41,219.29,744.41Z"/><path class="cls-23" d="M219.34,744.66c-1.81-2.8-6.53,9.33-8.8,28-.26,1.39-.48,2.7-.67,3.95a103.82,103.82,0,0,0-1.12,13.75c-.25,8.34-.3,18.15-.23,31,.51-.09,1.13.66,2.54,1.06s3.75.47,7.56-1.19A128.38,128.38,0,0,0,222.07,804a180.21,180.21,0,0,0,.56-43.51C222.12,756,220,745.7,219.34,744.66Z"/><path class="cls-23" d="M219.39,744.9c-1.79-2.86-6.45,9.19-8.7,27.73-.25,1.38-.47,2.68-.66,3.92a105.43,105.43,0,0,0-1.12,13.63c-.26,8.35-.32,18.11-.25,30.68.5-.1,1.12.64,2.5,1s3.71.47,7.48-1.17a129.38,129.38,0,0,0,3.4-17.06,172.94,172.94,0,0,0,1.52-18.37,174.6,174.6,0,0,0-.94-24.72C222.12,756.15,220.07,746,219.39,744.9Z"/><path class="cls-24" d="M219.44,745.15c-1.76-2.92-6.36,9-8.6,27.42-.25,1.37-.46,2.65-.65,3.88A105.36,105.36,0,0,0,209.08,790c-.27,8.35-.35,18.08-.28,30.4.49-.1,1.1.63,2.47,1s3.66.46,7.38-1.16A127.2,127.2,0,0,0,222,803.37a174,174,0,0,0,1.51-18.14,173,173,0,0,0-.9-24.52C222.13,756.3,220.12,746.27,219.44,745.15Z"/><path class="cls-129" d="M219.49,745.4c-1.73-3-6.28,8.89-8.49,27.11-.25,1.35-.46,2.62-.65,3.84a105.29,105.29,0,0,0-1.1,13.38c-.28,8.37-.38,18.06-.31,30.12.49-.09,1.09.63,2.44,1s3.62.46,7.29-1.15A128.32,128.32,0,0,0,222,803.08a170.51,170.51,0,0,0,1.49-17.91,171.49,171.49,0,0,0-.86-24.33C222.13,756.45,220.17,746.56,219.49,745.4Z"/><path class="cls-27" d="M219.54,745.65c-1.7-3-6.19,8.74-8.39,26.79-.24,1.34-.45,2.6-.64,3.81a107.28,107.28,0,0,0-1.1,13.26c-.29,8.37-.4,18-.33,29.84.48-.09,1.08.61,2.41,1s3.57.45,7.19-1.14a125.27,125.27,0,0,0,3.26-16.42,168.87,168.87,0,0,0,1.49-17.68,172.84,172.84,0,0,0-.82-24.13C222.14,756.6,220.22,746.84,219.54,745.65Z"/><path class="cls-27" d="M219.59,745.89c-1.68-3.1-6.11,8.61-8.29,26.49-.24,1.32-.44,2.57-.63,3.78a107.12,107.12,0,0,0-1.09,13.13c-.3,8.38-.43,18-.37,29.56.48-.09,1.07.6,2.38,1s3.53.45,7.11-1.13a123.82,123.82,0,0,0,3.21-16.21A170,170,0,0,0,223.39,785a171.62,171.62,0,0,0-.79-23.95C222.14,756.75,220.27,747.13,219.59,745.89Z"/><path class="cls-28" d="M219.64,746.14c-1.65-3.16-6,8.46-8.18,26.18-.24,1.31-.45,2.55-.63,3.74a107.15,107.15,0,0,0-1.08,13c-.31,8.4-.46,18-.4,29.28.48-.09,1.06.6,2.35,1s3.48.44,7-1.12a124.2,124.2,0,0,0,3.17-16A166.26,166.26,0,0,0,223.34,785a171.47,171.47,0,0,0-.74-23.75C222.15,756.9,220.31,747.42,219.64,746.14Z"/><path class="cls-130" d="M219.69,746.39c-1.62-3.22-5.94,8.31-8.08,25.86-.23,1.3-.44,2.53-.61,3.71a107.16,107.16,0,0,0-1.09,12.88c-.32,8.4-.48,17.94-.42,29,.47-.09,1,.58,2.32.95s3.44.43,6.92-1.11a123.25,123.25,0,0,0,3.12-15.79,167.49,167.49,0,0,0,1.45-17,173.16,173.16,0,0,0-.7-23.56C222.15,757.05,220.36,747.7,219.69,746.39Z"/><path class="cls-131" d="M219.74,746.63c-1.6-3.28-5.85,8.17-8,25.56-.22,1.28-.43,2.5-.6,3.67a107.22,107.22,0,0,0-1.08,12.76c-.33,8.41-.51,17.91-.45,28.72.46-.09,1,.57,2.29.93s3.39.43,6.82-1.1a122.75,122.75,0,0,0,3.08-15.57c.67-4.8,1.2-10.48,1.44-16.76a171.57,171.57,0,0,0-.67-23.36C222.16,757.2,220.41,748,219.74,746.63Z"/><path class="cls-30" d="M219.79,746.88c-1.58-3.34-5.77,8-7.87,25.25-.23,1.27-.43,2.47-.6,3.63a107.5,107.5,0,0,0-1.07,12.63c-.34,8.43-.54,17.89-.48,28.44.45-.08,1,.57,2.25.92s3.35.42,6.74-1.09a121.82,121.82,0,0,0,3-15.36,165.23,165.23,0,0,0,1.42-16.53,171.5,171.5,0,0,0-.62-23.16C222.16,757.35,220.46,748.28,219.79,746.88Z"/><path class="cls-32" d="M219.85,747.13c-1.56-3.4-5.7,7.88-7.78,24.93-.22,1.26-.42,2.45-.59,3.6a109.83,109.83,0,0,0-1.07,12.51c-.35,8.43-.56,17.86-.5,28.16.45-.08,1,.55,2.22.9s3.31.42,6.64-1.07a122.36,122.36,0,0,0,3-15.15c.65-4.67,1.17-10.2,1.41-16.3a171.75,171.75,0,0,0-.59-23C222.17,757.49,220.5,748.56,219.85,747.13Z"/><path class="cls-132" d="M219.9,747.37c-1.54-3.46-5.61,7.74-7.67,24.63-.22,1.24-.42,2.42-.59,3.56A110.22,110.22,0,0,0,210.58,788c-.36,8.44-.59,17.82-.54,27.88.45-.09,1,.54,2.2.88s3.26.41,6.55-1.06a120.94,120.94,0,0,0,2.94-14.94c.64-4.6,1.16-10.05,1.4-16.07a171.81,171.81,0,0,0-.55-22.77C222.18,757.64,220.55,748.85,219.9,747.37Z"/><path class="cls-33" d="M220,747.62c-1.52-3.52-5.53,7.59-7.57,24.32-.22,1.23-.41,2.39-.58,3.52a110.68,110.68,0,0,0-1.05,12.26c-.38,8.46-.62,17.8-.57,27.6.44-.08,1,.54,2.17.87s3.21.41,6.45-1.05a117.8,117.8,0,0,0,2.89-14.72c.64-4.54,1.15-9.91,1.39-15.84a168.84,168.84,0,0,0-.51-22.59C222.18,757.79,220.6,749.14,220,747.62Z"/><path class="cls-133" d="M220,747.87c-1.49-3.59-5.44,7.44-7.47,24-.21,1.22-.4,2.38-.56,3.49a110.69,110.69,0,0,0-1.06,12.14c-.38,8.46-.64,17.77-.59,27.32.43-.08,1,.52,2.13.85s3.18.41,6.37-1a119.24,119.24,0,0,0,2.84-14.51c.63-4.47,1.13-9.77,1.38-15.61a168.87,168.87,0,0,0-.47-22.39C222.19,757.94,220.64,749.42,220,747.87Z"/><path class="cls-36" d="M220.05,748.11c-1.47-3.64-5.36,7.31-7.36,23.7-.21,1.2-.4,2.35-.56,3.46a110.79,110.79,0,0,0-1,12c-.4,8.47-.67,17.74-.62,27,.43-.08,1,.51,2.1.83s3.13.4,6.27-1a116.43,116.43,0,0,0,2.8-14.3c.62-4.4,1.12-9.62,1.36-15.37a169,169,0,0,0-.42-22.2C222.19,758.09,220.69,749.71,220.05,748.11Z"/><path class="cls-134" d="M220.1,748.36c-1.45-3.71-5.27,7.16-7.26,23.39-.21,1.19-.39,2.32-.55,3.42a111.11,111.11,0,0,0-1,11.89c-.41,8.47-.7,17.71-.65,26.75.42-.07,1,.51,2.07.83s3.08.39,6.18-1a118.56,118.56,0,0,0,2.75-14.09c.61-4.34,1.1-9.48,1.35-15.15a169.25,169.25,0,0,0-.39-22A95.33,95.33,0,0,0,220.1,748.36Z"/><path class="cls-37" d="M220.15,748.61c-1.43-3.77-5.19,7-7.16,23.07-.2,1.18-.38,2.3-.54,3.39a114.47,114.47,0,0,0-1,11.76c-.41,8.49-.72,17.69-.67,26.48.41-.08.93.49,2,.81s3,.38,6.08-1a116.25,116.25,0,0,0,2.71-13.88c.6-4.27,1.09-9.33,1.34-14.91a169.58,169.58,0,0,0-.35-21.81A95.5,95.5,0,0,0,220.15,748.61Z"/><path class="cls-38" d="M220.2,748.85c-1.41-3.83-5.1,6.87-7,22.77-.2,1.16-.38,2.27-.54,3.35a115,115,0,0,0-1,11.64c-.43,8.5-.75,17.65-.71,26.2.42-.08.93.48,2,.79s3,.38,6-1a114.93,114.93,0,0,0,2.66-13.66c.59-4.21,1.07-9.19,1.32-14.69a167.94,167.94,0,0,0-.31-21.61A95.18,95.18,0,0,0,220.2,748.85Z"/><path class="cls-39" d="M220.25,749.1c-1.39-3.89-5,6.73-6.95,22.45-.2,1.15-.37,2.25-.53,3.32a115.5,115.5,0,0,0-1,11.52c-.44,8.5-.78,17.62-.74,25.91.41-.07.92.48,2,.78s2.95.37,5.9-1a115.17,115.17,0,0,0,2.62-13.45c.58-4.14,1.05-9,1.31-14.46a168.35,168.35,0,0,0-.27-21.42A94.27,94.27,0,0,0,220.25,749.1Z"/><path class="cls-41" d="M220.3,749.35c-1.37-4-4.93,6.58-6.84,22.14-.2,1.14-.37,2.22-.52,3.28-.58,3.9-.81,7.31-1,11.39-.45,8.52-.81,17.6-.76,25.64.4-.07.9.46,1.95.76s2.91.37,5.8-1a111.86,111.86,0,0,0,2.57-13.23c.58-4.08,1.05-8.91,1.31-14.23a167,167,0,0,0-.24-21.23A94.62,94.62,0,0,0,220.3,749.35Z"/><path class="cls-135" d="M220.35,749.6c-1.35-4-4.85,6.43-6.74,21.83q-.29,1.68-.51,3.24c-.57,3.85-.8,7.24-1,11.27-.46,8.53-.84,17.57-.79,25.36.39-.08.89.45,1.92.74s2.86.37,5.71-1a113.65,113.65,0,0,0,2.52-13c.57-4,1-8.76,1.29-14a165.28,165.28,0,0,0-.19-21A93.58,93.58,0,0,0,220.35,749.6Z"/><path class="cls-42" d="M220.4,749.84c-1.33-4.08-4.76,6.29-6.64,21.52-.18,1.11-.35,2.18-.5,3.21-.56,3.81-.79,7.17-1,11.15-.48,8.53-.87,17.54-.82,25.08.39-.08.88.44,1.88.72s2.82.36,5.62-.95a111.36,111.36,0,0,0,2.48-12.81c.56-4,1-8.62,1.28-13.77a165.77,165.77,0,0,0-.16-20.84A94.58,94.58,0,0,0,220.4,749.84Z"/><path class="cls-44" d="M220.45,750.09c-1.31-4.15-4.68,6.14-6.53,21.21-.19,1.1-.35,2.15-.5,3.17-.55,3.76-.78,7.1-1,11-.49,8.55-.89,17.51-.84,24.8.38-.07.86.43,1.85.71s2.78.36,5.53-.94a110.63,110.63,0,0,0,2.43-12.6c.55-3.88,1-8.48,1.27-13.54a166.08,166.08,0,0,0-.12-20.64A93.23,93.23,0,0,0,220.45,750.09Z"/><path class="cls-136" d="M220.5,750.34c-1.29-4.22-4.59,6-6.43,20.9-.18,1.08-.34,2.12-.49,3.13-.54,3.72-.77,7-1,10.9-.5,8.56-.92,17.48-.88,24.52.38-.07.86.42,1.83.69s2.73.35,5.43-.93a111.13,111.13,0,0,0,2.39-12.38c.54-3.82,1-8.34,1.25-13.31a166.52,166.52,0,0,0-.07-20.45A93.33,93.33,0,0,0,220.5,750.34Z"/><path class="cls-46" d="M220.55,750.58c-1.27-4.27-4.51,5.86-6.33,20.59-.17,1.07-.33,2.1-.48,3.11-.53,3.66-.76,6.94-1,10.77-.52,8.56-.95,17.45-.91,24.24.37-.07.84.41,1.8.68s2.68.34,5.34-.93a109.83,109.83,0,0,0,2.34-12.17c.53-3.75,1-8.19,1.24-13.08a167.19,167.19,0,0,0,0-20.26A92.61,92.61,0,0,0,220.55,750.58Z"/><path class="cls-46" d="M220.6,750.83c-1.25-4.34-4.43,5.71-6.22,20.28-.18,1.06-.33,2.07-.48,3.07-.52,3.62-.75,6.87-1,10.64-.52,8.58-1,17.43-.93,24,.37-.07.83.4,1.76.67s2.65.33,5.25-.91a111,111,0,0,0,2.3-12c.52-3.68,1-8,1.23-12.85a167.66,167.66,0,0,0,0-20.06A92.92,92.92,0,0,0,220.6,750.83Z"/><path class="cls-47" d="M220.65,751.08c-1.23-4.41-4.34,5.56-6.12,20-.17,1-.32,2-.46,3-.52,3.58-.75,6.8-1,10.52-.54,8.58-1,17.4-1,23.68.36-.07.82.39,1.73.65s2.6.33,5.16-.9a109.24,109.24,0,0,0,2.24-11.75c.52-3.62.95-7.91,1.22-12.62a164.17,164.17,0,0,0,0-19.87A93.43,93.43,0,0,0,220.65,751.08Z"/><path class="cls-48" d="M220.7,751.32c-1.21-4.47-4.26,5.43-6,19.66q-.24,1.54-.45,3c-.51,3.53-.74,6.73-1,10.4-.56,8.59-1,17.36-1,23.4.35-.07.8.38,1.7.63s2.55.33,5.06-.89a106.17,106.17,0,0,0,2.2-11.54c.51-3.55.93-7.76,1.21-12.39a164.66,164.66,0,0,0,.08-19.67A92.32,92.32,0,0,0,220.7,751.32Z"/><path class="cls-137" d="M220.75,751.57c-1.19-4.54-4.17,5.28-5.91,19.35-.17,1-.32,2-.45,3-.5,3.49-.74,6.65-1,10.28-.57,8.6-1.06,17.33-1,23.11.35-.06.79.37,1.67.62s2.51.32,5-.88a108.86,108.86,0,0,0,2.15-11.32c.5-3.49.92-7.62,1.2-12.16a165.46,165.46,0,0,0,.11-19.48A91.19,91.19,0,0,0,220.75,751.57Z"/><path class="cls-49" d="M220.8,751.82c-1.17-4.6-4.09,5.13-5.81,19-.16,1-.31,2-.44,2.92-.49,3.44-.73,6.58-1,10.15-.58,8.61-1.08,17.31-1.05,22.84.35-.06.79.36,1.64.6s2.47.32,4.88-.87a106.41,106.41,0,0,0,2.11-11.11c.49-3.42.9-7.47,1.18-11.93a163.81,163.81,0,0,0,.16-19.28A91.18,91.18,0,0,0,220.8,751.82Z"/><path class="cls-50" d="M220.85,752.06c-1.16-4.66-4,5-5.7,18.73-.16,1-.31,2-.44,2.89-.48,3.4-.72,6.51-1,10-.6,8.62-1.11,17.28-1.08,22.56.34-.07.77.35,1.61.58s2.42.31,4.79-.85a109.42,109.42,0,0,0,2.06-10.9c.48-3.36.89-7.33,1.17-11.7a164.66,164.66,0,0,0,.2-19.09A91.8,91.8,0,0,0,220.85,752.06Z"/><path class="cls-51" d="M220.9,752.31c-1.14-4.73-3.92,4.84-5.6,18.42-.16,1-.3,1.92-.43,2.85-.46,3.35-.71,6.44-1,9.91-.61,8.63-1.14,17.25-1.11,22.27.33-.06.76.34,1.58.57s2.38.31,4.69-.84a106.94,106.94,0,0,0,2-10.69c.47-3.29.87-7.19,1.16-11.47a163.31,163.31,0,0,0,.23-18.9A92.25,92.25,0,0,0,220.9,752.31Z"/><path class="cls-52" d="M221,752.56c-1.12-4.8-3.83,4.7-5.5,18.11-.15,1-.29,1.89-.41,2.81-.46,3.31-.71,6.36-1,9.78-.62,8.64-1.16,17.23-1.13,22,.33-.06.75.33,1.55.55s2.33.3,4.6-.83c0,0,1.05-4.06,2-10.47.46-3.23.86-7,1.14-11.25a161.67,161.67,0,0,0,.28-18.7A90.5,90.5,0,0,0,221,752.56Z"/><path class="cls-54" d="M221,752.81c-1.1-4.87-3.75,4.55-5.39,17.79-.15.95-.29,1.88-.41,2.78-.45,3.27-.7,6.29-.95,9.66-.64,8.65-1.19,17.19-1.16,21.72.32-.06.73.32,1.51.53s2.29.3,4.51-.82c0,0,1-4,1.93-10.26.45-3.16.84-6.9,1.13-11a162.66,162.66,0,0,0,.31-18.51A89.12,89.12,0,0,0,221,752.81Z"/><path class="cls-54" d="M221.05,753.05c-1.08-4.93-3.66,4.41-5.29,17.49-.14.93-.28,1.85-.4,2.75-.44,3.21-.69,6.21-.94,9.53-.66,8.65-1.22,17.16-1.2,21.43.32-.06.73.31,1.49.53s2.25.29,4.42-.81c0,0,1-3.9,1.87-10.06.45-3.09.84-6.75,1.13-10.78a163.47,163.47,0,0,0,.35-18.31A91.09,91.09,0,0,0,221.05,753.05Z"/><path class="cls-55" d="M221.1,753.3c-1.06-5-3.58,4.26-5.19,17.18-.14.92-.27,1.82-.39,2.71-.43,3.17-.69,6.14-.94,9.4-.67,8.67-1.24,17.14-1.22,21.16.31-.06.71.3,1.46.51s2.2.28,4.32-.8c0,0,1-3.82,1.83-9.84.44-3,.82-6.62,1.11-10.55a159.82,159.82,0,0,0,.39-18.12A87.65,87.65,0,0,0,221.1,753.3Z"/><path class="cls-56" d="M221.15,753.55c-1.05-5.07-3.49,4.12-5.08,16.86-.14.91-.27,1.8-.39,2.68-.42,3.12-.68,6.07-.93,9.28-.69,8.68-1.27,17.11-1.25,20.88.31-.06.7.29,1.43.49s2.15.28,4.23-.79c0,0,.93-3.73,1.78-9.63.43-3,.81-6.47,1.1-10.32a160.66,160.66,0,0,0,.43-17.92A87.43,87.43,0,0,0,221.15,753.55Z"/><path class="cls-138" d="M221.2,753.79c-1-5.13-3.41,4-5,16.56-.13.89-.26,1.77-.38,2.64-.41,3.08-.67,6-.92,9.16-.7,8.68-1.3,17.08-1.28,20.59.3,0,.69.28,1.39.48.85.23,2.12.27,4.14-.78,0,0,.91-3.65,1.74-9.41.42-2.9.8-6.33,1.09-10.09a162,162,0,0,0,.46-17.74A87.94,87.94,0,0,0,221.2,753.79Z"/><path class="cls-58" d="M221.25,754c-1-5.2-3.32,3.83-4.87,16.25-.14.88-.26,1.74-.37,2.6-.41,3-.67,5.92-.93,9-.71,8.7-1.32,17.05-1.3,20.32.29,0,.67.27,1.36.46s2.07.27,4.05-.77c0,0,.87-3.57,1.69-9.2.41-2.83.78-6.18,1.07-9.86a158,158,0,0,0,.51-17.54A87.65,87.65,0,0,0,221.25,754Z"/><path class="cls-59" d="M221.3,754.29c-1-5.27-3.24,3.68-4.77,15.93-.13.87-.25,1.72-.36,2.57-.4,3-.66,5.85-.92,8.91-.73,8.7-1.35,17-1.33,20,.29-.06.66.26,1.33.44a5.27,5.27,0,0,0,3.95-.75s.85-3.49,1.65-9c.4-2.77.77-6,1.06-9.63a159.19,159.19,0,0,0,.55-17.35A85.75,85.75,0,0,0,221.3,754.29Z"/><path class="cls-60" d="M221.35,754.53c-1-5.33-3.15,3.54-4.67,15.63-.12.85-.24,1.7-.35,2.53-.39,2.95-.65,5.78-.91,8.79-.75,8.71-1.38,17-1.37,19.76.29-.06.66.24,1.31.42a5.08,5.08,0,0,0,3.86-.74s.81-3.41,1.6-8.78c.39-2.7.75-5.9,1-9.4a157.72,157.72,0,0,0,.59-17.15A86,86,0,0,0,221.35,754.53Z"/><path class="cls-61" d="M221.4,754.78c-1-5.4-3.07,3.4-4.56,15.32-.13.84-.24,1.67-.35,2.49-.38,2.9-.65,5.71-.91,8.66-.76,8.73-1.4,17-1.39,19.48.28-.05.64.24,1.27.41a4.93,4.93,0,0,0,3.77-.73s.79-3.33,1.55-8.56c.39-2.64.75-5.76,1-9.18a156.15,156.15,0,0,0,.63-16.95A85.6,85.6,0,0,0,221.4,754.78Z"/><path class="cls-139" d="M221.45,755c-.94-5.47-3,3.25-4.46,15-.12.83-.23,1.65-.34,2.46-.37,2.86-.64,5.63-.9,8.54-.79,8.73-1.43,16.94-1.42,19.2.27-.05.63.23,1.24.39a4.78,4.78,0,0,0,3.68-.72s.76-3.25,1.5-8.35c.38-2.57.73-5.61,1-8.94a157.67,157.67,0,0,0,.66-16.76A81.89,81.89,0,0,0,221.45,755Z"/><path class="cls-63" d="M221.5,755.27c-.92-5.53-2.9,3.11-4.36,14.7l-.33,2.43c-.36,2.8-.63,5.55-.89,8.41-.81,8.74-1.46,16.91-1.45,18.92.27-.05.62.21,1.21.38a4.63,4.63,0,0,0,3.58-.72s.73-3.16,1.46-8.14c.37-2.5.72-5.46,1-8.71a156.22,156.22,0,0,0,.71-16.57A81.63,81.63,0,0,0,221.5,755.27Z"/><path class="cls-64" d="M221.55,755.52c-.91-5.6-2.82,3-4.25,14.39-.12.8-.22,1.59-.32,2.39-.36,2.76-.63,5.48-.9,8.29-.82,8.74-1.48,16.87-1.47,18.63.26-.05.6.21,1.18.37a4.56,4.56,0,0,0,3.49-.7s.7-3.09,1.41-7.93c.36-2.44.71-5.32,1-8.48a152.56,152.56,0,0,0,.74-16.38A81.26,81.26,0,0,0,221.55,755.52Z"/><path class="cls-65" d="M221.6,755.77c-.89-5.67-2.73,2.82-4.15,14.07-.11.79-.21,1.57-.31,2.36-.35,2.72-.63,5.41-.89,8.16-.84,8.76-1.51,16.85-1.5,18.36.25-.05.59.2,1.14.35a4.37,4.37,0,0,0,3.4-.69s.67-3,1.37-7.72c.35-2.37.69-5.18,1-8.25a156.39,156.39,0,0,0,.78-16.18A80.57,80.57,0,0,0,221.6,755.77Z"/><path class="cls-66" d="M221.65,756c-.87-5.73-2.65,2.68-4.05,13.77l-.3,2.32c-.34,2.67-.62,5.33-.88,8-.86,8.76-1.54,16.82-1.54,18.08.25-.05.58.18,1.12.33a4.27,4.27,0,0,0,3.31-.68s.64-2.92,1.32-7.5c.34-2.31.68-5,1-8a152.49,152.49,0,0,0,.83-16A78.52,78.52,0,0,0,221.65,756Z"/><path class="cls-66" d="M221.7,756.26c-.86-5.8-2.56,2.53-3.94,13.46l-.3,2.28c-.33,2.63-.61,5.26-.88,7.92-.88,8.77-1.56,16.79-1.56,17.79.25,0,.57.18,1.09.32a4.05,4.05,0,0,0,3.21-.67s.61-2.84,1.28-7.29c.33-2.24.66-4.89,1-7.79a151,151,0,0,0,.86-15.79A77.79,77.79,0,0,0,221.7,756.26Z"/><path class="cls-67" d="M221.75,756.51c-.84-5.87-2.48,2.38-3.84,13.14-.1.75-.19,1.5-.29,2.25-.32,2.58-.6,5.19-.87,7.79-.9,8.78-1.59,16.77-1.59,17.52.24-.05.56.17,1.06.3a3.87,3.87,0,0,0,3.12-.66s.58-2.76,1.22-7.07c.33-2.18.66-4.75,1-7.57a149.81,149.81,0,0,0,.9-15.59A75.22,75.22,0,0,0,221.75,756.51Z"/><path class="cls-68" d="M221.8,756.76c-.82-6-2.39,2.23-3.73,12.83-.1.73-.19,1.47-.29,2.21-.31,2.54-.6,5.12-.86,7.67-.92,8.79-1.62,16.73-1.62,17.24.23-.05.54.15,1,.28a3.79,3.79,0,0,0,3-.64s.56-2.68,1.18-6.87c.32-2.11.65-4.6.94-7.33a143.3,143.3,0,0,0,.94-15.4A74.35,74.35,0,0,0,221.8,756.76Z"/><path class="cls-69" d="M221.85,757c-.82-6-2.31,2.1-3.63,12.53-.09.71-.19,1.44-.28,2.17-.3,2.49-.59,5-.86,7.55-1,8.79-1.64,16.7-1.64,17,.23,0,.53.15,1,.27a3.61,3.61,0,0,0,2.94-.63s.52-2.6,1.13-6.65c.31-2.05.64-4.47.93-7.11a147.31,147.31,0,0,0,1-15.21A73.63,73.63,0,0,0,221.85,757Z"/><path class="cls-70" d="M219.38,795.33s1.13-5.7,2-13.31,1.51-17.13.51-24.77c-.84-6.5-2.42,3.12-3.79,14.35s-2.53,24.1-2.53,24.1C216.1,795.6,217.05,796.75,219.38,795.33Z"/></g><g id="Pink_Detail" data-name="Pink Detail"><ellipse class="cls-140" cx="209.17" cy="819.61" rx="0.58" ry="0.71"/><ellipse class="cls-140" cx="213.81" cy="823.96" rx="0.58" ry="0.52"/><ellipse class="cls-140" cx="208.88" cy="825.34" rx="0.58" ry="0.52"/><ellipse class="cls-140" cx="217.99" cy="788.88" rx="0.58" ry="0.52"/><ellipse class="cls-140" cx="209.87" cy="798.51" rx="0.58" ry="0.52"/><ellipse class="cls-140" cx="213.35" cy="799.21" rx="0.58" ry="0.52"/><ellipse class="cls-140" cx="222.05" cy="773.75" rx="0.58" ry="0.52"/><ellipse class="cls-140" cx="220.65" cy="778.57" rx="0.58" ry="0.52"/><ellipse class="cls-140" cx="216.6" cy="786.82" rx="0.58" ry="0.52"/><ellipse class="cls-140" cx="221.7" cy="786.82" rx="0.58" ry="0.52"/><ellipse class="cls-140" cx="217.06" cy="798.51" rx="0.58" ry="0.52"/><ellipse class="cls-140" cx="212.42" cy="803.05" rx="0.58" ry="0.52"/><ellipse class="cls-140" cx="206.03" cy="809.11" rx="0.58" ry="0.52"/><ellipse class="cls-140" cx="203.14" cy="802" rx="0.58" ry="0.52"/><ellipse class="cls-140" cx="203.6" cy="803.91" rx="0.58" ry="0.52"/><ellipse class="cls-140" cx="205.34" cy="801.91" rx="0.58" ry="0.52"/><ellipse class="cls-140" cx="211.03" cy="784.2" rx="0.58" ry="0.52"/><ellipse class="cls-140" cx="200.57" cy="810.66" rx="0.58" ry="0.52"/><ellipse class="cls-140" cx="201.75" cy="817.49" rx="0.58" ry="0.52"/><ellipse class="cls-140" cx="206.85" cy="806.54" rx="0.58" ry="0.52"/><ellipse class="cls-140" cx="220.77" cy="813.09" rx="0.58" ry="0.52"/><ellipse class="cls-140" cx="220.77" cy="813.09" rx="0.58" ry="0.52"/><ellipse class="cls-140" cx="211.03" cy="817.22" rx="0.58" ry="0.52"/><ellipse class="cls-140" cx="215.67" cy="798.92" rx="0.58" ry="0.52"/><ellipse class="cls-140" cx="215.67" cy="816.81" rx="0.58" ry="0.52"/><ellipse class="cls-140" cx="201.75" cy="794.13" rx="0.58" ry="0.52"/><ellipse class="cls-140" cx="206.39" cy="786.68" rx="0.58" ry="0.52"/><ellipse class="cls-140" cx="211.03" cy="778.02" rx="0.58" ry="0.52"/><ellipse class="cls-140" cx="206.39" cy="773.89" rx="0.58" ry="0.52"/><ellipse class="cls-140" cx="201.75" cy="780.52" rx="0.58" ry="0.52"/><ellipse class="cls-140" cx="201.75" cy="767.29" rx="0.58" ry="0.52"/><ellipse class="cls-140" cx="199.43" cy="791.6" rx="0.58" ry="0.52"/><ellipse class="cls-140" cx="204.65" cy="790.01" rx="0.58" ry="0.52"/><ellipse class="cls-140" cx="216.25" cy="790.54" rx="0.58" ry="0.52"/><ellipse class="cls-140" cx="218.92" cy="787.64" rx="0.58" ry="0.52"/><ellipse class="cls-140" cx="216.93" cy="781.45" rx="0.58" ry="0.52"/><ellipse class="cls-140" cx="212.88" cy="809.52" rx="0.58" ry="0.52"/><ellipse class="cls-140" cx="222.16" cy="798.51" rx="0.58" ry="0.52"/><ellipse class="cls-140" cx="220.19" cy="771.69" rx="0.58" ry="0.52"/><ellipse class="cls-140" cx="211.49" cy="756.98" rx="0.58" ry="0.52"/><ellipse class="cls-140" cx="214.74" cy="748.74" rx="0.58" ry="0.52"/><ellipse class="cls-140" cx="203.6" cy="761.11" rx="0.58" ry="0.52"/><ellipse class="cls-140" cx="216.6" cy="768.94" rx="0.58" ry="0.52"/><ellipse class="cls-140" cx="222.16" cy="760.7" rx="0.58" ry="0.52"/><ellipse class="cls-140" cx="203.14" cy="746.68" rx="0.58" ry="0.52"/><ellipse class="cls-140" cx="210.1" cy="733.48" rx="0.58" ry="0.52"/></g></svg>