<svg xmlns="http://www.w3.org/2000/svg" viewBox="0 0 432 846"><defs><style>.cls-1{fill:#82c341;}.cls-2{fill:#83c441;}.cls-3{fill:#83c442;}.cls-4{fill:#84c442;}.cls-5{fill:#85c443;}.cls-6{fill:#86c444;}.cls-7{fill:#86c544;}.cls-8{fill:#87c545;}.cls-9{fill:#88c546;}.cls-10{fill:#89c547;}.cls-11{fill:#89c648;}.cls-12{fill:#8ac648;}.cls-13{fill:#8ac649;}.cls-14{fill:#8bc64a;}.cls-15{fill:#8cc74b;}.cls-16{fill:#8cc74c;}.cls-17{fill:#8dc74c;}.cls-18{fill:#8dc74d;}.cls-19{fill:#8ec74e;}.cls-20{fill:#8fc84f;}.cls-21{fill:#8fc850;}.cls-22{fill:#90c850;}.cls-23{fill:#90c851;}.cls-24{fill:#91c852;}.cls-25{fill:#91c952;}.cls-26{fill:#92c953;}.cls-27{fill:#92c954;}.cls-28{fill:#93c955;}.cls-29{fill:#94c956;}.cls-30{fill:#94ca57;}.cls-31{fill:#95ca57;}.cls-32{fill:#95ca58;}.cls-33{fill:#96ca59;}.cls-34{fill:#96ca5a;}.cls-35{fill:#97cb5a;}.cls-36{fill:#97cb5b;}.cls-37{fill:#98cb5c;}.cls-38{fill:#98cb5d;}.cls-39{fill:#99cb5e;}.cls-40{fill:#99cc5e;}.cls-41{fill:#99cc5f;}.cls-42{fill:#9acc60;}.cls-43{fill:#9acc61;}.cls-44{fill:#9bcc61;}.cls-45{fill:#9bcd62;}.cls-46{fill:#9ccd63;}.cls-47{fill:#9ccd64;}.cls-48{fill:#9dcd65;}.cls-49{fill:#9ece66;}.cls-50{fill:#9ece67;}.cls-51{fill:#9fce68;}.cls-52{fill:#9fce69;}.cls-53{fill:#a0ce69;}.cls-54{fill:#a0cf6a;}.cls-55{fill:#a1cf6b;}.cls-56{fill:#a1cf6c;}.cls-57{fill:#a1cf6d;}.cls-58{fill:#a2d06d;}.cls-59{fill:#a2d06e;}.cls-60{fill:#a3d06f;}.cls-61{fill:#a3d070;}.cls-62{fill:#a4d070;}.cls-63{fill:#a4d171;}.cls-64{fill:#a5d172;}.cls-65{fill:#a5d173;}.cls-66{fill:#a6d174;}.cls-67{fill:#a7d275;}.cls-68{fill:#a7d276;}.cls-69{fill:#a8d277;}.cls-70{fill:#a8d278;}.cls-71{fill:#a9d378;}.cls-72{fill:#a9d379;}.cls-73{fill:#aad37a;}.cls-74{fill:#aad37b;}.cls-75{fill:#abd37b;}.cls-76{fill:#abd47c;}.cls-77{fill:#acd47d;}.cls-78{fill:#add47e;}.cls-79{fill:#add47f;}.cls-80{fill:#aed580;}.cls-81{fill:#afd581;}.cls-82{fill:#afd582;}.cls-83{fill:#b0d682;}.cls-84{fill:#b0d683;}.cls-85{fill:#b1d684;}.cls-86{fill:#b1d685;}.cls-87{fill:#b2d685;}.cls-88{fill:#b2d786;}.cls-89{fill:#b3d787;}.cls-90{fill:#b4d788;}.cls-91{fill:#b4d889;}.cls-92{fill:#b5d889;}.cls-93{fill:#b5d88a;}.cls-94{fill:#b5d88b;}.cls-95{fill:#b6d98c;}.cls-96{fill:#b7d98d;}.cls-97{fill:#b7d98e;}.cls-98{fill:#b8d98e;}.cls-99{fill:#b8da8f;}.cls-100{fill:#b9da90;}.cls-101{fill:#bada91;}.cls-102{fill:#badb92;}.cls-103{fill:#bbdb92;}.cls-104{fill:#bbdb93;}.cls-105{fill:#bcdb94;}.cls-106{fill:#bcdc94;}.cls-107{fill:#bddc95;}.cls-108{fill:#bddc96;}.cls-109{fill:#bedc96;}.cls-110{fill:#bedc97;}.cls-111{fill:#bfdd98;}.cls-112{fill:#bfdd99;}.cls-113{fill:#c0dd99;}.cls-114{fill:#c0dd9a;}.cls-115{fill:#c1de9b;}.cls-116{fill:#c2de9c;}.cls-117{fill:#c2de9d;}.cls-118{fill:#c3df9d;}.cls-119{fill:#c3df9e;}.cls-120{fill:#c4df9f;}.cls-121{fill:#c4dfa0;}.cls-122{fill:#c5e0a0;}.cls-123{fill:#c5e0a1;}.cls-124{fill:#c6e0a2;}.cls-125{fill:#84c443;}.cls-126{fill:#8bc649;}.cls-127{fill:#8dc74e;}.cls-128{fill:#8ec84f;}.cls-129{fill:#91c953;}.cls-130{fill:#93c956;}.cls-131{fill:#94ca56;}.cls-132{fill:#95ca59;}.cls-133{fill:#96cb5a;}.cls-134{fill:#97cb5c;}.cls-135{fill:#9acc5f;}.cls-136{fill:#9bcc62;}.cls-137{fill:#9dcd66;}.cls-138{fill:#a2cf6d;}.cls-139{fill:#a4d071;}.cls-140{fill:#fffbdd;opacity:0.57;}</style></defs><g id="Green_Leaf" data-name="Green Leaf"><path class="cls-1" d="M210.26,721.12a1.49,1.49,0,0,0-2.88,0c-3.29,7.76-11.45,29.58-11.45,61.93,0,40.82,7.44,52,7.44,52s5.57,3.71,11.14,0c0,0,6.49-11.14,6.49-52C221,750.7,213.55,728.88,210.26,721.12Z"/><path class="cls-2" d="M210.25,721.12a1.47,1.47,0,0,0-2.86,0c-3.28,7.73-11.42,29.46-11.42,61.7,0,40.68,7.41,51.77,7.41,51.77s5.55,3.7,11.1,0c0,0,6.47-11.09,6.47-51.77C221,750.58,213.53,728.85,210.25,721.12Z"/><path class="cls-3" d="M210.25,721.11a1.48,1.48,0,0,0-2.86,0c-3.27,7.71-11.39,29.36-11.39,61.48,0,40.53,7.39,51.58,7.39,51.58s5.53,3.69,11.06,0c0,0,6.44-11,6.44-51.58C220.89,750.47,213.51,728.82,210.25,721.11Z"/><path class="cls-4" d="M210.24,721.11a1.46,1.46,0,0,0-2.84,0c-3.26,7.67-11.36,29.25-11.36,61.25,0,40.38,7.36,51.4,7.36,51.4s5.51,3.67,11,0c0,0,6.42-11,6.42-51.4C220.84,750.36,213.5,728.78,210.24,721.11Z"/><path class="cls-5" d="M210.23,721.1a1.46,1.46,0,0,0-2.83,0c-3.24,7.65-11.33,29.15-11.33,61,0,40.24,7.33,51.21,7.33,51.21s5.5,3.66,11,0c0,0,6.39-11,6.39-51.21C220.78,750.25,213.48,728.75,210.23,721.1Z"/><path class="cls-5" d="M210.23,721.1a1.46,1.46,0,0,0-2.83,0c-3.23,7.62-11.29,29-11.29,60.8,0,40.09,7.3,51,7.3,51s5.47,3.65,11,0c0,0,6.37-10.93,6.37-51C220.73,750.14,213.46,728.72,210.23,721.1Z"/><path class="cls-6" d="M210.22,721.09a1.45,1.45,0,0,0-2.81,0c-3.22,7.6-11.26,28.94-11.26,60.59,0,39.93,7.27,50.83,7.27,50.83s5.45,3.63,10.9,0c0,0,6.35-10.9,6.35-50.83C220.67,750,213.44,728.69,210.22,721.09Z"/><path class="cls-7" d="M210.21,721.09a1.44,1.44,0,0,0-2.8,0c-3.21,7.57-11.23,28.83-11.23,60.36,0,39.79,7.25,50.64,7.25,50.64s5.43,3.62,10.86,0c0,0,6.33-10.85,6.33-50.64C220.62,749.92,213.42,728.66,210.21,721.09Z"/><path class="cls-8" d="M210.21,721.09a1.44,1.44,0,0,0-2.79,0c-3.2,7.53-11.2,28.72-11.2,60.13,0,39.64,7.22,50.45,7.22,50.45s5.41,3.61,10.82,0c0,0,6.31-10.81,6.31-50.45C220.57,749.81,213.41,728.62,210.21,721.09Z"/><path class="cls-8" d="M210.2,721.08a1.43,1.43,0,0,0-2.78,0c-3.18,7.51-11.16,28.62-11.16,59.91,0,39.5,7.19,50.27,7.19,50.27s5.39,3.59,10.78,0c0,0,6.28-10.77,6.28-50.27C220.51,749.7,213.39,728.59,210.2,721.08Z"/><path class="cls-9" d="M210.2,721.08a1.43,1.43,0,0,0-2.77,0c-3.18,7.48-11.14,28.5-11.14,59.68,0,39.35,7.17,50.08,7.17,50.08s5.37,3.58,10.74,0c0,0,6.26-10.73,6.26-50.08C220.46,749.58,213.37,728.56,210.2,721.08Z"/><path class="cls-9" d="M210.19,721.07a1.42,1.42,0,0,0-2.76,0c-3.16,7.46-11.1,28.4-11.1,59.46,0,39.2,7.14,49.89,7.14,49.89s5.35,3.57,10.7,0c0,0,6.23-10.69,6.23-49.89C220.4,749.47,213.35,728.53,210.19,721.07Z"/><path class="cls-10" d="M210.18,721.07a1.42,1.42,0,0,0-2.75,0c-3.15,7.43-11.06,28.29-11.06,59.23,0,39.06,7.11,49.71,7.11,49.71s5.33,3.55,10.66,0c0,0,6.21-10.65,6.21-49.71C220.35,749.36,213.33,728.5,210.18,721.07Z"/><path class="cls-11" d="M210.18,721.07a1.41,1.41,0,0,0-2.74,0c-3.14,7.39-11,28.18-11,59,0,38.9,7.09,49.51,7.09,49.51s5.31,3.54,10.62,0c0,0,6.18-10.61,6.18-49.51C220.29,749.25,213.31,728.46,210.18,721.07Z"/><path class="cls-12" d="M210.17,721.06a1.41,1.41,0,0,0-2.73,0c-3.12,7.37-11,28.08-11,58.79,0,38.75,7.06,49.32,7.06,49.32s5.29,3.53,10.58,0c0,0,6.16-10.57,6.16-49.32C220.24,749.14,213.3,728.43,210.17,721.06Z"/><path class="cls-13" d="M210.16,721.06a1.4,1.4,0,0,0-2.71,0c-3.12,7.34-11,28-11,58.56,0,38.61,7,49.14,7,49.14s5.27,3.51,10.54,0c0,0,6.14-10.53,6.14-49.14C220.19,749,213.28,728.4,210.16,721.06Z"/><path class="cls-14" d="M210.16,721.05a1.4,1.4,0,0,0-2.71,0c-3.1,7.32-10.94,27.87-10.94,58.34,0,38.46,7,49,7,49s5.25,3.5,10.5,0c0,0,6.11-10.49,6.11-49C220.13,748.92,213.26,728.37,210.16,721.05Z"/><path class="cls-14" d="M210.15,721.05a1.39,1.39,0,0,0-2.7,0c-3.09,7.28-10.9,27.76-10.9,58.11,0,38.31,7,48.76,7,48.76s5.23,3.49,10.46,0c0,0,6.09-10.45,6.09-48.76C220.08,748.81,213.24,728.33,210.15,721.05Z"/><path class="cls-15" d="M210.15,721.05a1.39,1.39,0,0,0-2.69,0c-3.08,7.25-10.87,27.64-10.87,57.88,0,38.17,6.95,48.58,6.95,48.58s5.21,3.47,10.41,0c0,0,6.07-10.41,6.07-48.58C220,748.69,213.22,728.3,210.15,721.05Z"/><path class="cls-16" d="M210.14,721a1.38,1.38,0,0,0-2.68,0c-3.06,7.23-10.84,27.54-10.84,57.67,0,38,6.93,48.38,6.93,48.38s5.19,3.46,10.37,0c0,0,6.05-10.37,6.05-48.38C220,748.58,213.2,728.27,210.14,721Z"/><path class="cls-17" d="M210.13,721a1.37,1.37,0,0,0-2.66,0c-3.06,7.2-10.81,27.43-10.81,57.44,0,37.87,6.9,48.19,6.9,48.19s5.16,3.45,10.33,0c0,0,6-10.32,6-48.19C219.91,748.47,213.19,728.24,210.13,721Z"/><path class="cls-18" d="M210.13,721a1.37,1.37,0,0,0-2.66,0c-3,7.18-10.78,27.33-10.78,57.22,0,37.72,6.88,48,6.88,48s5.14,3.43,10.29,0c0,0,6-10.29,6-48C219.86,748.36,213.17,728.21,210.13,721Z"/><path class="cls-19" d="M210.12,721a1.37,1.37,0,0,0-2.65,0c-3,7.14-10.74,27.22-10.74,57,0,37.57,6.85,47.82,6.85,47.82s5.12,3.42,10.25,0c0,0,6-10.25,6-47.82C219.8,748.25,213.15,728.17,210.12,721Z"/><path class="cls-19" d="M210.11,721a1.36,1.36,0,0,0-2.63,0c-3,7.11-10.71,27.11-10.71,56.76,0,37.43,6.82,47.63,6.82,47.63s5.1,3.4,10.21,0c0,0,5.95-10.2,5.95-47.63C219.75,748.14,213.13,728.14,210.11,721Z"/><path class="cls-20" d="M210.11,721a1.36,1.36,0,0,0-2.63,0c-3,7.09-10.68,27-10.68,56.54,0,37.28,6.79,47.45,6.79,47.45s5.09,3.38,10.18,0c0,0,5.93-10.17,5.93-47.45C219.7,748,213.11,728.11,210.11,721Z"/><path class="cls-21" d="M210.1,721a1.34,1.34,0,0,0-2.61,0c-3,7.06-10.65,26.9-10.65,56.32,0,37.12,6.76,47.25,6.76,47.25s5.07,3.37,10.14,0c0,0,5.9-10.13,5.9-47.25C219.64,747.92,213.1,728.08,210.1,721Z"/><path class="cls-22" d="M210.09,721a1.34,1.34,0,0,0-2.6,0c-3,7-10.61,26.79-10.61,56.1,0,37,6.73,47.06,6.73,47.06s5,3.36,10.1,0c0,0,5.88-10.08,5.88-47.06C219.59,747.8,213.08,728,210.09,721Z"/><path class="cls-23" d="M210.09,721a1.34,1.34,0,0,0-2.6,0c-3,7-10.58,26.68-10.58,55.87,0,36.83,6.71,46.88,6.71,46.88s5,3.34,10.06,0c0,0,5.85-10,5.85-46.88C219.53,747.69,213.06,728,210.09,721Z"/><path class="cls-24" d="M210.08,721a1.33,1.33,0,0,0-2.58,0c-3,7-10.55,26.57-10.55,55.64,0,36.68,6.68,46.69,6.68,46.69s5,3.33,10,0c0,0,5.83-10,5.83-46.69C219.48,747.58,213,728,210.08,721Z"/><path class="cls-25" d="M210.08,721a1.33,1.33,0,0,0-2.58,0c-2.94,7-10.51,26.47-10.51,55.42,0,36.54,6.65,46.5,6.65,46.5s5,3.32,10,0c0,0,5.81-10,5.81-46.5C219.42,747.47,213,728,210.08,721Z"/><path class="cls-26" d="M210.07,721a1.32,1.32,0,0,0-2.56,0c-2.94,6.92-10.49,26.36-10.49,55.19,0,36.39,6.63,46.32,6.63,46.32s5,3.3,9.93,0c0,0,5.79-9.93,5.79-46.32C219.37,747.36,213,727.92,210.07,721Z"/><path class="cls-27" d="M210.06,721a1.32,1.32,0,0,0-2.55,0c-2.92,6.89-10.45,26.26-10.45,55,0,36.25,6.6,46.13,6.6,46.13s5,3.29,9.89,0c0,0,5.76-9.88,5.76-46.13C219.31,747.25,213,727.88,210.06,721Z"/><path class="cls-28" d="M210.06,721a1.31,1.31,0,0,0-2.54,0c-2.92,6.86-10.42,26.15-10.42,54.75,0,36.09,6.57,45.93,6.57,45.93s4.93,3.28,9.85,0c0,0,5.74-9.84,5.74-45.93C219.26,747.14,213,727.85,210.06,721Z"/><path class="cls-28" d="M210.05,721a1.3,1.3,0,0,0-2.53,0c-2.9,6.83-10.39,26-10.39,54.52,0,35.94,6.55,45.75,6.55,45.75s4.91,3.26,9.81,0c0,0,5.72-9.81,5.72-45.75C219.21,747,213,727.82,210.05,721Z"/><path class="cls-29" d="M210,721a1.3,1.3,0,0,0-2.52,0c-2.88,6.81-10.35,25.93-10.35,54.3,0,35.8,6.52,45.56,6.52,45.56s4.88,3.25,9.77,0c0,0,5.69-9.76,5.69-45.56C219.15,746.91,212.93,727.79,210,721Z"/><path class="cls-30" d="M210,721a1.29,1.29,0,0,0-2.51,0c-2.88,6.77-10.33,25.82-10.33,54.07,0,35.65,6.5,45.37,6.5,45.37s4.86,3.24,9.73,0c0,0,5.67-9.72,5.67-45.37C219.1,746.8,212.91,727.75,210,721Z"/><path class="cls-31" d="M210,721a1.29,1.29,0,0,0-2.5,0c-2.86,6.75-10.29,25.72-10.29,53.85,0,35.5,6.47,45.19,6.47,45.19s4.84,3.22,9.69,0c0,0,5.64-9.69,5.64-45.19C219,746.69,212.89,727.72,210,721Z"/><path class="cls-32" d="M210,721a1.28,1.28,0,0,0-2.48,0c-2.86,6.72-10.26,25.61-10.26,53.62,0,35.36,6.44,45,6.44,45s4.82,3.21,9.65,0c0,0,5.62-9.64,5.62-45C219,746.58,212.88,727.69,210,721Z"/><path class="cls-33" d="M210,721a1.28,1.28,0,0,0-2.48,0c-2.84,6.69-10.23,25.5-10.23,53.4,0,35.2,6.42,44.8,6.42,44.8s4.8,3.2,9.61,0c0,0,5.59-9.6,5.59-44.8C218.93,746.47,212.86,727.66,210,721Z"/><path class="cls-34" d="M210,721a1.27,1.27,0,0,0-2.47,0c-2.82,6.67-10.19,25.4-10.19,53.18,0,35.05,6.39,44.62,6.39,44.62s4.78,3.18,9.57,0c0,0,5.57-9.57,5.57-44.62C218.88,746.36,212.84,727.63,210,721Z"/><path class="cls-35" d="M210,721a1.27,1.27,0,0,0-2.46,0c-2.82,6.63-10.16,25.29-10.16,52.95,0,34.91,6.36,44.43,6.36,44.43s4.76,3.17,9.52,0c0,0,5.56-9.52,5.56-44.43C218.83,746.25,212.82,727.59,210,721Z"/><path class="cls-36" d="M210,721a1.26,1.26,0,0,0-2.45,0c-2.8,6.61-10.13,25.19-10.13,52.73,0,34.76,6.34,44.24,6.34,44.24s4.74,3.16,9.48,0c0,0,5.53-9.48,5.53-44.24C218.77,746.14,212.8,727.56,210,721Z"/><path class="cls-37" d="M210,721a1.25,1.25,0,0,0-2.43,0c-2.8,6.58-10.1,25.07-10.1,52.5,0,34.62,6.31,44.06,6.31,44.06s4.72,3.14,9.44,0c0,0,5.51-9.44,5.51-44.06C218.72,746,212.78,727.53,210,721Z"/><path class="cls-38" d="M210,720.94a1.26,1.26,0,0,0-2.43,0c-2.78,6.56-10.06,25-10.06,52.28,0,34.47,6.28,43.87,6.28,43.87s4.7,3.13,9.4,0c0,0,5.48-9.4,5.48-43.87C218.66,745.91,212.77,727.5,210,720.94Z"/><path class="cls-39" d="M210,720.94a1.25,1.25,0,0,0-2.42,0c-2.76,6.53-10,24.86-10,52.06,0,34.31,6.25,43.67,6.25,43.67s4.69,3.12,9.37,0c0,0,5.46-9.36,5.46-43.67C218.61,745.8,212.75,727.47,210,720.94Z"/><path class="cls-40" d="M210,720.94a1.24,1.24,0,0,0-2.4,0c-2.76,6.49-10,24.75-10,51.83,0,34.17,6.22,43.49,6.22,43.49s4.67,3.1,9.33,0c0,0,5.43-9.32,5.43-43.49C218.55,745.69,212.73,727.43,210,720.94Z"/><path class="cls-41" d="M210,720.93a1.24,1.24,0,0,0-2.4,0c-2.74,6.47-10,24.65-10,51.61,0,34,6.19,43.3,6.19,43.3s4.65,3.09,9.29,0c0,0,5.41-9.28,5.41-43.3C218.5,745.58,212.71,727.4,210,720.93Z"/><path class="cls-42" d="M210,720.93a1.23,1.23,0,0,0-2.38,0c-2.74,6.44-9.94,24.54-9.94,51.38,0,33.87,6.17,43.11,6.17,43.11s4.63,3.08,9.25,0c0,0,5.38-9.24,5.38-43.11C218.44,745.47,212.69,727.37,210,720.93Z"/><path class="cls-43" d="M210,720.92a1.23,1.23,0,0,0-2.38,0c-2.72,6.42-9.9,24.44-9.9,51.16,0,33.73,6.14,42.93,6.14,42.93s4.61,3.06,9.21,0c0,0,5.36-9.2,5.36-42.93C218.39,745.36,212.68,727.34,210,720.92Z"/><path class="cls-44" d="M210,720.92a1.22,1.22,0,0,0-2.37,0c-2.7,6.38-9.86,24.33-9.86,50.93,0,33.58,6.11,42.74,6.11,42.74s4.58,3,9.17,0c0,0,5.34-9.16,5.34-42.74C218.34,745.25,212.66,727.3,210,720.92Z"/><path class="cls-45" d="M209.94,720.92a1.21,1.21,0,0,0-2.35,0c-2.7,6.35-9.84,24.22-9.84,50.7,0,33.43,6.09,42.55,6.09,42.55s4.56,3,9.13,0c0,0,5.31-9.12,5.31-42.55C218.28,745.14,212.64,727.27,209.94,720.92Z"/><path class="cls-46" d="M209.94,720.91a1.21,1.21,0,0,0-2.35,0c-2.68,6.33-9.8,24.11-9.8,50.49,0,33.28,6.06,42.36,6.06,42.36s4.54,3,9.09,0c0,0,5.29-9.08,5.29-42.36C218.23,745,212.62,727.24,209.94,720.91Z"/><path class="cls-47" d="M209.93,720.91a1.2,1.2,0,0,0-2.33,0c-2.68,6.3-9.78,24-9.78,50.26,0,33.13,6,42.17,6,42.17s4.52,3,9,0c0,0,5.27-9,5.27-42.17C218.17,744.91,212.6,727.21,209.93,720.91Z"/><path class="cls-48" d="M209.92,720.9a1.2,1.2,0,0,0-2.32,0c-2.66,6.28-9.74,23.9-9.74,50,0,33,6,42,6,42s4.5,3,9,0c0,0,5.25-9,5.25-42C218.12,744.8,212.58,727.18,209.92,720.9Z"/><path class="cls-48" d="M209.92,720.9a1.19,1.19,0,0,0-2.31,0c-2.65,6.24-9.71,23.79-9.71,49.81,0,32.84,6,41.8,6,41.8s4.48,3,9,0c0,0,5.22-9,5.22-41.8C218.06,744.69,212.57,727.14,209.92,720.9Z"/><path class="cls-49" d="M209.91,720.9a1.18,1.18,0,0,0-2.3,0c-2.64,6.21-9.68,23.68-9.68,49.58,0,32.69,6,41.61,6,41.61s4.46,3,8.92,0c0,0,5.2-8.92,5.2-41.61C218,744.58,212.55,727.11,209.91,720.9Z"/><path class="cls-50" d="M209.9,720.89a1.18,1.18,0,0,0-2.29,0C205,727.08,198,744.47,198,770.25c0,32.55,5.93,41.42,5.93,41.42s4.44,3,8.88,0c0,0,5.18-8.87,5.18-41.42C218,744.47,212.53,727.08,209.9,720.89Z"/><path class="cls-51" d="M209.9,720.89a1.17,1.17,0,0,0-2.28,0C205,727.05,198,744.36,198,770c0,32.39,5.9,41.23,5.9,41.23s4.42,2.94,8.84,0c0,0,5.15-8.84,5.15-41.23C217.9,744.36,212.51,727.05,209.9,720.89Z"/><path class="cls-52" d="M209.89,720.88a1.17,1.17,0,0,0-2.27,0C205,727,198,744.25,198,769.8c0,32.24,5.88,41,5.88,41s4.4,2.93,8.8,0c0,0,5.13-8.8,5.13-41C217.85,744.25,212.49,727,209.89,720.88Z"/><path class="cls-53" d="M209.89,720.88a1.17,1.17,0,0,0-2.26,0c-2.59,6.1-9.55,23.25-9.55,48.69,0,32.1,5.85,40.85,5.85,40.85s4.38,2.92,8.76,0c0,0,5.1-8.75,5.1-40.85C217.79,744.13,212.47,727,209.89,720.88Z"/><path class="cls-54" d="M209.88,720.88a1.16,1.16,0,0,0-2.25,0c-2.58,6.07-9.51,23.14-9.51,48.46,0,31.95,5.82,40.67,5.82,40.67s4.36,2.9,8.72,0c0,0,5.08-8.72,5.08-40.67C217.74,744,212.46,727,209.88,720.88Z"/><path class="cls-55" d="M209.87,720.87a1.16,1.16,0,0,0-2.24,0c-2.56,6-9.48,23-9.48,48.24,0,31.8,5.8,40.48,5.8,40.48s4.34,2.89,8.68,0c0,0,5.05-8.68,5.05-40.48C217.68,743.91,212.44,726.92,209.87,720.87Z"/><path class="cls-56" d="M209.87,720.87a1.15,1.15,0,0,0-2.23,0c-2.55,6-9.45,22.93-9.45,48,0,31.66,5.77,40.29,5.77,40.29s4.32,2.88,8.64,0c0,0,5-8.63,5-40.29C217.63,743.8,212.42,726.89,209.87,720.87Z"/><path class="cls-57" d="M209.86,720.86a1.15,1.15,0,0,0-2.22,0c-2.54,6-9.41,22.83-9.41,47.79,0,31.51,5.74,40.11,5.74,40.11s4.3,2.86,8.59,0c0,0,5-8.6,5-40.11C217.57,743.69,212.4,726.85,209.86,720.86Z"/><path class="cls-58" d="M209.85,720.86a1.13,1.13,0,0,0-2.2,0c-2.53,6-9.39,22.72-9.39,47.57,0,31.36,5.71,39.91,5.71,39.91s4.28,2.85,8.56,0c0,0,5-8.55,5-39.91C217.52,743.58,212.38,726.82,209.85,720.86Z"/><path class="cls-59" d="M209.85,720.86a1.13,1.13,0,0,0-2.2,0c-2.52,5.93-9.35,22.61-9.35,47.34,0,31.21,5.68,39.72,5.68,39.72s4.26,2.84,8.52,0c0,0,5-8.51,5-39.72C217.47,743.47,212.36,726.79,209.85,720.86Z"/><path class="cls-60" d="M209.84,720.85a1.13,1.13,0,0,0-2.19,0c-2.5,5.91-9.32,22.51-9.32,47.12,0,31.06,5.66,39.54,5.66,39.54s4.24,2.82,8.48,0c0,0,4.94-8.48,4.94-39.54C217.41,743.36,212.35,726.76,209.84,720.85Z"/><path class="cls-61" d="M209.84,720.85a1.12,1.12,0,0,0-2.18,0c-2.49,5.88-9.29,22.39-9.29,46.89,0,30.92,5.63,39.35,5.63,39.35s4.22,2.81,8.44,0c0,0,4.92-8.43,4.92-39.35C217.36,743.24,212.33,726.73,209.84,720.85Z"/><path class="cls-62" d="M209.83,720.84a1.12,1.12,0,0,0-2.17,0c-2.48,5.85-9.25,22.29-9.25,46.67,0,30.77,5.6,39.16,5.6,39.16s4.2,2.8,8.4,0c0,0,4.89-8.39,4.89-39.16C217.3,743.13,212.31,726.69,209.83,720.84Z"/><path class="cls-63" d="M209.82,720.84a1.11,1.11,0,0,0-2.15,0c-2.47,5.82-9.23,22.18-9.23,46.44,0,30.62,5.58,39,5.58,39s4.18,2.79,8.36,0c0,0,4.87-8.35,4.87-39C217.25,743,212.29,726.66,209.82,720.84Z"/><path class="cls-64" d="M209.82,720.84a1.11,1.11,0,0,0-2.15,0c-2.46,5.79-9.19,22.07-9.19,46.22,0,30.47,5.55,38.78,5.55,38.78s4.16,2.77,8.32,0c0,0,4.84-8.31,4.84-38.78C217.19,742.91,212.27,726.63,209.82,720.84Z"/><path class="cls-65" d="M209.81,720.83a1.1,1.1,0,0,0-2.14,0c-2.44,5.77-9.15,22-9.15,46,0,30.32,5.52,38.59,5.52,38.59s4.14,2.76,8.28,0c0,0,4.82-8.27,4.82-38.59C217.14,742.8,212.26,726.6,209.81,720.83Z"/><path class="cls-66" d="M209.8,720.83a1.09,1.09,0,0,0-2.12,0c-2.43,5.73-9.13,21.86-9.13,45.77,0,30.18,5.5,38.4,5.5,38.4s4.12,2.75,8.24,0c0,0,4.79-8.22,4.79-38.4C217.08,742.69,212.24,726.56,209.8,720.83Z"/><path class="cls-66" d="M209.8,720.82a1.1,1.1,0,0,0-2.12,0,113.5,113.5,0,0,0-9.09,45.55c0,30,5.47,38.22,5.47,38.22s4.1,2.73,8.2,0c0,0,4.77-8.19,4.77-38.22C217,742.58,212.22,726.53,209.8,720.82Z"/><path class="cls-67" d="M209.79,720.82a1.08,1.08,0,0,0-2.1,0,112.79,112.79,0,0,0-9.06,45.32c0,29.88,5.44,38,5.44,38s4.08,2.72,8.16,0c0,0,4.75-8.15,4.75-38C217,742.47,212.2,726.5,209.79,720.82Z"/><path class="cls-68" d="M209.78,720.82a1.08,1.08,0,0,0-2.09,0,112,112,0,0,0-9,45.09c0,29.74,5.42,37.84,5.42,37.84s4.06,2.71,8.11,0c0,0,4.73-8.1,4.73-37.84C216.92,742.35,212.18,726.47,209.78,720.82Z"/><path class="cls-69" d="M209.78,720.81a1.07,1.07,0,0,0-2.08,0,111.45,111.45,0,0,0-9,44.88c0,29.58,5.39,37.65,5.39,37.65s4,2.69,8.07,0c0,0,4.71-8.07,4.71-37.65C216.87,742.24,212.16,726.44,209.78,720.81Z"/><path class="cls-70" d="M209.77,720.81a1.07,1.07,0,0,0-2.07,0,110.93,110.93,0,0,0-9,44.65c0,29.43,5.36,37.46,5.36,37.46s4,2.68,8,0c0,0,4.68-8,4.68-37.46C216.81,742.13,212.15,726.4,209.77,720.81Z"/><path class="cls-71" d="M209.77,720.8a1.07,1.07,0,0,0-2.07,0,110.34,110.34,0,0,0-8.93,44.43c0,29.29,5.34,37.27,5.34,37.27s4,2.67,8,0c0,0,4.66-8,4.66-37.27C216.76,742,212.13,726.37,209.77,720.8Z"/><path class="cls-72" d="M209.76,720.8a1.06,1.06,0,0,0-2,0,109.63,109.63,0,0,0-8.9,44.2c0,29.14,5.31,37.09,5.31,37.09a7.48,7.48,0,0,0,7.95,0s4.63-8,4.63-37.09C216.7,741.91,212.11,726.34,209.76,720.8Z"/><path class="cls-73" d="M209.75,720.79a1.05,1.05,0,0,0-2,0,109,109,0,0,0-8.87,44c0,29,5.29,36.9,5.29,36.9a7.43,7.43,0,0,0,7.91,0s4.61-7.91,4.61-36.9C216.65,741.8,212.09,726.31,209.75,720.79Z"/><path class="cls-74" d="M209.75,720.79a1,1,0,0,0-2,0,108.28,108.28,0,0,0-8.84,43.75c0,28.85,5.26,36.71,5.26,36.71a7.39,7.39,0,0,0,7.87,0s4.59-7.86,4.59-36.71C216.6,741.69,212.07,726.27,209.75,720.79Z"/><path class="cls-75" d="M209.74,720.79a1,1,0,0,0-2,0,107.81,107.81,0,0,0-8.8,43.52c0,28.7,5.23,36.53,5.23,36.53a7.36,7.36,0,0,0,7.83,0s4.56-7.83,4.56-36.53C216.54,741.58,212.05,726.24,209.74,720.79Z"/><path class="cls-76" d="M209.73,720.78a1,1,0,0,0-2,0A107.18,107.18,0,0,0,199,764.09c0,28.55,5.21,36.33,5.21,36.33a7.32,7.32,0,0,0,7.79,0s4.54-7.78,4.54-36.33C216.49,741.46,212,726.21,209.73,720.78Z"/><path class="cls-77" d="M209.73,720.78a1,1,0,0,0-2,0A106.47,106.47,0,0,0,199,763.86c0,28.4,5.17,36.14,5.17,36.14a7.29,7.29,0,0,0,7.76,0s4.51-7.74,4.51-36.14C216.43,741.35,212,726.18,209.73,720.78Z"/><path class="cls-77" d="M209.72,720.77a1,1,0,0,0-2,0,105.93,105.93,0,0,0-8.7,42.86c0,28.25,5.14,36,5.14,36a7.27,7.27,0,0,0,7.72,0s4.49-7.71,4.49-36C216.38,741.24,212,726.15,209.72,720.77Z"/><path class="cls-78" d="M209.71,720.77a1,1,0,0,0-2,0,105.12,105.12,0,0,0-8.68,42.63c0,28.11,5.12,35.77,5.12,35.77a7.21,7.21,0,0,0,7.67,0s4.47-7.66,4.47-35.77C216.32,741.13,212,726.11,209.71,720.77Z"/><path class="cls-79" d="M209.71,720.77a1,1,0,0,0-2,0,104.65,104.65,0,0,0-8.64,42.4c0,28,5.09,35.58,5.09,35.58a7.16,7.16,0,0,0,7.63,0s4.45-7.62,4.45-35.58C216.27,741,212,726.08,209.71,720.77Z"/><path class="cls-80" d="M209.7,720.76a1,1,0,0,0-2,0,104.11,104.11,0,0,0-8.6,42.18c0,27.81,5.06,35.4,5.06,35.4a7.14,7.14,0,0,0,7.59,0s4.42-7.59,4.42-35.4C216.21,740.91,211.94,726.05,209.7,720.76Z"/><path class="cls-80" d="M209.7,720.76a1,1,0,0,0-1.95,0,103.37,103.37,0,0,0-8.58,42c0,27.66,5,35.2,5,35.2a7.1,7.1,0,0,0,7.55,0s4.4-7.54,4.4-35.2C216.16,740.8,211.93,726,209.7,720.76Z"/><path class="cls-81" d="M209.69,720.75a1,1,0,0,0-1.94,0,102.83,102.83,0,0,0-8.54,41.74c0,27.51,5,35,5,35a7.05,7.05,0,0,0,7.51,0s4.38-7.5,4.38-35C216.11,740.69,211.91,726,209.69,720.75Z"/><path class="cls-82" d="M209.68,720.75a1,1,0,0,0-1.92,0,102.07,102.07,0,0,0-8.51,41.51c0,27.36,5,34.83,5,34.83a7,7,0,0,0,7.47,0s4.35-7.47,4.35-34.83C216.05,740.58,211.89,726,209.68,720.75Z"/><path class="cls-83" d="M209.68,720.75a1,1,0,0,0-1.92,0A101.5,101.5,0,0,0,199.28,762c0,27.22,5,34.64,5,34.64a7,7,0,0,0,7.43,0S216,789.25,216,762C216,740.46,211.87,725.92,209.68,720.75Z"/><path class="cls-84" d="M209.67,720.74a1,1,0,0,0-1.91,0,101,101,0,0,0-8.44,41.06c0,27.07,4.93,34.45,4.93,34.45a6.93,6.93,0,0,0,7.39,0s4.3-7.38,4.3-34.45C215.94,740.35,211.85,725.89,209.67,720.74Z"/><path class="cls-85" d="M209.66,720.74a1,1,0,0,0-1.89,0,100.26,100.26,0,0,0-8.41,40.83c0,26.93,4.9,34.27,4.9,34.27a6.91,6.91,0,0,0,7.35,0s4.28-7.34,4.28-34.27C215.89,740.24,211.84,725.86,209.66,720.74Z"/><path class="cls-86" d="M209.66,720.73a1,1,0,0,0-1.89,0,99.63,99.63,0,0,0-8.38,40.62c0,26.77,4.88,34.07,4.88,34.07a6.87,6.87,0,0,0,7.31,0s4.25-7.3,4.25-34.07C215.83,740.13,211.82,725.82,209.66,720.73Z"/><path class="cls-87" d="M209.65,720.73a1,1,0,0,0-1.87,0,98.93,98.93,0,0,0-8.35,40.39c0,26.62,4.85,33.88,4.85,33.88a6.84,6.84,0,0,0,7.27,0s4.23-7.26,4.23-33.88C215.78,740,211.8,725.79,209.65,720.73Z"/><path class="cls-88" d="M209.65,720.73a1,1,0,0,0-1.87,0,98.4,98.4,0,0,0-8.32,40.16c0,26.48,4.83,33.7,4.83,33.7a6.82,6.82,0,0,0,7.23,0s4.21-7.22,4.21-33.7C215.73,739.91,211.78,725.76,209.65,720.73Z"/><path class="cls-89" d="M209.64,720.72a1,1,0,0,0-1.86,0,97.86,97.86,0,0,0-8.28,39.94c0,26.33,4.8,33.51,4.8,33.51a6.76,6.76,0,0,0,7.18,0s4.19-7.18,4.19-33.51C215.67,739.8,211.76,725.73,209.64,720.72Z"/><path class="cls-89" d="M209.63,720.72a1,1,0,0,0-1.84,0,97.16,97.16,0,0,0-8.25,39.71c0,26.18,4.77,33.32,4.77,33.32a6.72,6.72,0,0,0,7.14,0s4.17-7.14,4.17-33.32C215.62,739.69,211.74,725.7,209.63,720.72Z"/><path class="cls-90" d="M209.63,720.71a1,1,0,0,0-1.84,0,96.47,96.47,0,0,0-8.22,39.49c0,26,4.75,33.14,4.75,33.14a6.69,6.69,0,0,0,7.1,0s4.14-7.1,4.14-33.14C215.56,739.57,211.73,725.66,209.63,720.71Z"/><path class="cls-91" d="M209.62,720.71a.94.94,0,0,0-1.82,0A95.77,95.77,0,0,0,199.61,760c0,25.89,4.72,32.95,4.72,32.95a6.65,6.65,0,0,0,7.06,0s4.12-7.06,4.12-32.95C215.51,739.46,211.71,725.63,209.62,720.71Z"/><path class="cls-92" d="M209.61,720.71a.93.93,0,0,0-1.81,0,95.31,95.31,0,0,0-8.15,39c0,25.73,4.69,32.75,4.69,32.75a6.6,6.6,0,0,0,7,0s4.09-7,4.09-32.75C215.45,739.35,211.69,725.6,209.61,720.71Z"/><path class="cls-93" d="M209.61,720.7a.93.93,0,0,0-1.8,0,94.5,94.5,0,0,0-8.13,38.82c0,25.59,4.67,32.57,4.67,32.57a6.58,6.58,0,0,0,7,0s4.07-7,4.07-32.57C215.4,739.24,211.67,725.57,209.61,720.7Z"/><path class="cls-94" d="M209.6,720.7a.92.92,0,0,0-1.79,0,94,94,0,0,0-8.09,38.59c0,25.44,4.63,32.38,4.63,32.38a6.56,6.56,0,0,0,7,0s4-6.94,4-32.38C215.34,739.13,211.65,725.53,209.6,720.7Z"/><path class="cls-95" d="M209.59,720.69a.92.92,0,0,0-1.78,0,93.44,93.44,0,0,0-8.05,38.37c0,25.3,4.6,32.19,4.6,32.19a6.51,6.51,0,0,0,6.91,0s4-6.89,4-32.19C215.29,739,211.63,725.5,209.59,720.69Z"/><path class="cls-95" d="M209.59,720.69a.91.91,0,0,0-1.77,0,92.68,92.68,0,0,0-8,38.14c0,25.15,4.58,32,4.58,32a6.49,6.49,0,0,0,6.87,0s4-6.86,4-32C215.24,738.91,211.62,725.47,209.59,720.69Z"/><path class="cls-96" d="M209.58,720.69a.91.91,0,0,0-1.76,0,92.21,92.21,0,0,0-8,37.91c0,25,4.55,31.82,4.55,31.82a6.44,6.44,0,0,0,6.83,0s4-6.82,4-31.82C215.18,738.8,211.6,725.44,209.58,720.69Z"/><path class="cls-97" d="M209.58,720.68a.9.9,0,0,0-1.75,0,91.42,91.42,0,0,0-8,37.7c0,24.85,4.52,31.62,4.52,31.62a6.39,6.39,0,0,0,6.79,0s3.95-6.77,3.95-31.62C215.13,738.68,211.58,725.41,209.58,720.68Z"/><path class="cls-98" d="M209.57,720.68a.9.9,0,0,0-1.74,0,90.84,90.84,0,0,0-7.93,37.47c0,24.7,4.5,31.44,4.5,31.44a6.36,6.36,0,0,0,6.74,0s3.93-6.74,3.93-31.44C215.07,738.57,211.56,725.37,209.57,720.68Z"/><path class="cls-99" d="M209.56,720.67a.89.89,0,0,0-1.73,0,90.3,90.3,0,0,0-7.89,37.25c0,24.55,4.47,31.25,4.47,31.25a6.31,6.31,0,0,0,6.7,0s3.91-6.7,3.91-31.25C215,738.46,211.54,725.34,209.56,720.67Z"/><path class="cls-100" d="M209.56,720.67a.89.89,0,0,0-1.72,0,89.55,89.55,0,0,0-7.87,37c0,24.41,4.45,31.06,4.45,31.06a6.27,6.27,0,0,0,6.66,0S215,782.1,215,757.69C215,738.35,211.52,725.31,209.56,720.67Z"/><path class="cls-100" d="M209.55,720.67a.88.88,0,0,0-1.71,0A89.08,89.08,0,0,0,200,757.46c0,24.26,4.42,30.88,4.42,30.88a6.24,6.24,0,0,0,6.62,0s3.86-6.62,3.86-30.88C214.91,738.24,211.51,725.28,209.55,720.67Z"/><path class="cls-101" d="M209.54,720.66a.87.87,0,0,0-1.69,0,88.32,88.32,0,0,0-7.8,36.57c0,24.11,4.39,30.69,4.39,30.69a6.2,6.2,0,0,0,6.58,0s3.83-6.58,3.83-30.69C214.85,738.13,211.49,725.25,209.54,720.66Z"/><path class="cls-102" d="M209.54,720.66a.87.87,0,0,0-1.69,0A87.76,87.76,0,0,0,200.08,757c0,24,4.37,30.49,4.37,30.49a6.15,6.15,0,0,0,6.54,0S214.8,781,214.8,757C214.8,738,211.47,725.21,209.54,720.66Z"/><path class="cls-103" d="M209.53,720.65a.87.87,0,0,0-1.68,0,87.22,87.22,0,0,0-7.73,36.13c0,23.81,4.34,30.31,4.34,30.31a6.13,6.13,0,0,0,6.5,0s3.79-6.5,3.79-30.31C214.75,737.91,211.45,725.18,209.53,720.65Z"/><path class="cls-104" d="M209.52,720.65a.85.85,0,0,0-1.66,0,86.48,86.48,0,0,0-7.7,35.9c0,23.67,4.31,30.12,4.31,30.12a6.09,6.09,0,0,0,6.46,0s3.76-6.45,3.76-30.12C214.69,737.79,211.43,725.15,209.52,720.65Z"/><path class="cls-105" d="M209.52,720.64a.86.86,0,0,0-1.66,0,86.06,86.06,0,0,0-7.67,35.68c0,23.52,4.29,29.93,4.29,29.93a6,6,0,0,0,6.42,0s3.74-6.41,3.74-29.93C214.64,737.68,211.42,725.12,209.52,720.64Z"/><path class="cls-106" d="M209.51,720.64a.85.85,0,0,0-1.64,0,85.15,85.15,0,0,0-7.64,35.45c0,23.37,4.26,29.75,4.26,29.75a6,6,0,0,0,6.38,0s3.71-6.38,3.71-29.75C214.58,737.57,211.4,725.08,209.51,720.64Z"/><path class="cls-107" d="M209.51,720.64a.85.85,0,0,0-1.64,0,84.67,84.67,0,0,0-7.6,35.22c0,23.23,4.23,29.56,4.23,29.56a6,6,0,0,0,6.34,0s3.69-6.33,3.69-29.56C214.53,737.46,211.38,725.05,209.51,720.64Z"/><path class="cls-108" d="M209.5,720.63a.84.84,0,0,0-1.63,0,84.09,84.09,0,0,0-7.57,35c0,23.08,4.21,29.37,4.21,29.37a5.93,5.93,0,0,0,6.3,0s3.66-6.29,3.66-29.37C214.47,737.35,211.36,725,209.5,720.63Z"/><path class="cls-109" d="M209.49,720.63a.83.83,0,0,0-1.61,0,83.41,83.41,0,0,0-7.54,34.78c0,22.92,4.18,29.18,4.18,29.18a5.89,5.89,0,0,0,6.25,0s3.65-6.26,3.65-29.18C214.42,737.24,211.34,725,209.49,720.63Z"/><path class="cls-110" d="M209.49,720.62a.83.83,0,0,0-1.61,0,83,83,0,0,0-7.5,34.56c0,22.78,4.15,29,4.15,29a5.84,5.84,0,0,0,6.21,0s3.63-6.21,3.63-29C214.37,737.13,211.32,725,209.49,720.62Z"/><path class="cls-111" d="M209.48,720.62a.82.82,0,0,0-1.59,0A82.09,82.09,0,0,0,200.41,755c0,22.63,4.13,28.8,4.13,28.8a5.79,5.79,0,0,0,6.17,0s3.6-6.17,3.6-28.8C214.31,737,211.31,724.92,209.48,720.62Z"/><path class="cls-112" d="M209.47,720.62a.81.81,0,0,0-1.58,0,81.61,81.61,0,0,0-7.44,34.1c0,22.48,4.09,28.62,4.09,28.62a5.79,5.79,0,0,0,6.14,0s3.58-6.14,3.58-28.62C214.26,736.91,211.29,724.89,209.47,720.62Z"/><path class="cls-113" d="M209.47,720.61a.81.81,0,0,0-1.57,0,80.81,80.81,0,0,0-7.41,33.88c0,22.34,4.06,28.43,4.06,28.43a5.75,5.75,0,0,0,6.1,0s3.55-6.09,3.55-28.43C214.2,736.79,211.27,724.86,209.47,720.61Z"/><path class="cls-114" d="M209.46,720.61a.8.8,0,0,0-1.56,0,80.28,80.28,0,0,0-7.38,33.65c0,22.19,4,28.24,4,28.24a5.7,5.7,0,0,0,6.06,0s3.53-6,3.53-28.24C214.15,736.68,211.25,724.83,209.46,720.61Z"/><path class="cls-115" d="M209.46,720.6a.81.81,0,0,0-1.56,0A79.88,79.88,0,0,0,200.56,754c0,22,4,28.05,4,28.05a5.68,5.68,0,0,0,6,0s3.5-6,3.5-28.05C214.09,736.57,211.23,724.79,209.46,720.6Z"/><path class="cls-115" d="M209.45,720.6a.79.79,0,0,0-1.54,0,79,79,0,0,0-7.32,33.21c0,21.89,4,27.86,4,27.86a5.63,5.63,0,0,0,6,0s3.48-6,3.48-27.86C214,736.46,211.21,724.76,209.45,720.6Z"/><path class="cls-116" d="M209.44,720.6a.79.79,0,0,0-1.53,0,78.5,78.5,0,0,0-7.28,33c0,21.74,4,27.67,4,27.67a5.59,5.59,0,0,0,5.94,0s3.45-5.93,3.45-27.67C214,736.35,211.2,724.73,209.44,720.6Z"/><path class="cls-117" d="M209.44,720.59a.78.78,0,0,0-1.52,0,77.76,77.76,0,0,0-7.25,32.76c0,21.6,3.93,27.49,3.93,27.49a5.57,5.57,0,0,0,5.9,0s3.43-5.89,3.43-27.49C213.93,736.24,211.18,724.7,209.44,720.59Z"/><path class="cls-118" d="M209.43,720.59a.78.78,0,0,0-1.51,0,77.23,77.23,0,0,0-7.22,32.53c0,21.45,3.91,27.3,3.91,27.3a5.52,5.52,0,0,0,5.86,0s3.41-5.85,3.41-27.3C213.88,736.13,211.16,724.67,209.43,720.59Z"/><path class="cls-119" d="M209.42,720.58a.78.78,0,0,0-1.5,0,76.81,76.81,0,0,0-7.18,32.31c0,21.3,3.88,27.11,3.88,27.11a5.46,5.46,0,0,0,5.81,0s3.39-5.81,3.39-27.11C213.82,736,211.14,724.63,209.42,720.58Z"/><path class="cls-120" d="M209.42,720.58a.77.77,0,0,0-1.49,0,75.93,75.93,0,0,0-7.15,32.09c0,21.15,3.85,26.92,3.85,26.92a5.44,5.44,0,0,0,5.77,0s3.37-5.77,3.37-26.92C213.77,735.9,211.12,724.6,209.42,720.58Z"/><path class="cls-121" d="M209.41,720.58a.76.76,0,0,0-1.48,0,75.4,75.4,0,0,0-7.12,31.86c0,21,3.83,26.73,3.83,26.73a5.39,5.39,0,0,0,5.73,0s3.34-5.73,3.34-26.73C213.71,735.79,211.1,724.57,209.41,720.58Z"/><path class="cls-122" d="M209.4,720.57a.75.75,0,0,0-1.46,0,74.66,74.66,0,0,0-7.09,31.64c0,20.86,3.8,26.54,3.8,26.54a5.35,5.35,0,0,0,5.69,0s3.32-5.68,3.32-26.54C213.66,735.68,211.09,724.54,209.4,720.57Z"/><path class="cls-123" d="M209.4,720.57a.75.75,0,0,0-1.46,0A74.13,74.13,0,0,0,200.89,752c0,20.71,3.77,26.36,3.77,26.36a5.32,5.32,0,0,0,5.65,0s3.29-5.65,3.29-26.36C213.6,735.57,211.07,724.5,209.4,720.57Z"/><path class="cls-124" d="M209.39,720.56a.75.75,0,0,0-1.45,0,73.71,73.71,0,0,0-7,31.19c0,20.56,3.75,26.17,3.75,26.17a5.28,5.28,0,0,0,5.61,0s3.27-5.61,3.27-26.17C213.55,735.46,211.05,724.47,209.39,720.56Z"/><path class="cls-124" d="M209.39,720.56a.74.74,0,0,0-1.44,0,72.87,72.87,0,0,0-7,31c0,20.42,3.72,26,3.72,26a5.23,5.23,0,0,0,5.57,0s3.25-5.56,3.25-26C213.5,735.35,211,724.44,209.39,720.56Z"/><path class="cls-1" d="M202.46,835a188.47,188.47,0,0,1-4.47-22.7,218.19,218.19,0,0,1-2-23.6,174.57,174.57,0,0,1,1.26-27.54c.23-1.78.16-5.31,1.94-6.06,3.23-1.36,10.16,6.92,13.45,12.18,0,0,2.18,3.5,3.28,13.82a139.45,139.45,0,0,1,.44,21,303.73,303.73,0,0,1-3.61,33.79h0C211.4,835.62,208.24,838.47,202.46,835Z"/><path class="cls-2" d="M202.44,834.44A185.91,185.91,0,0,1,198,811.89a215.39,215.39,0,0,1-2-23.44,173.1,173.1,0,0,1,1.26-27.53c.23-1.79.16-5.29,1.93-6.06,3.21-1.4,10.07,6.8,13.32,12.07,0,0,2.16,3.51,3.25,13.74a142.09,142.09,0,0,1,.43,20.9,301.08,301.08,0,0,1-3.58,33.78h0C211.31,835.11,208.17,837.94,202.44,834.44Z"/><path class="cls-3" d="M202.42,833.93A186.84,186.84,0,0,1,198,811.54a215.72,215.72,0,0,1-2-23.29,172.78,172.78,0,0,1,1.25-27.52c.23-1.8.18-5.28,1.93-6.07,3.19-1.43,10,6.69,13.19,12,0,.06,2.13,3.52,3.21,13.66a141.67,141.67,0,0,1,.43,20.76,300.64,300.64,0,0,1-3.54,33.79h0C211.21,834.59,208.11,837.4,202.42,833.93Z"/><path class="cls-4" d="M202.4,833.42a185.28,185.28,0,0,1-4.34-22.24,213.09,213.09,0,0,1-2-23.13,172.46,172.46,0,0,1,1.24-27.51c.24-1.81.19-5.26,1.93-6.07,3.17-1.46,9.87,6.57,13.06,11.86,0,.08,2.1,3.54,3.17,13.57a141.43,141.43,0,0,1,.43,20.63,298.16,298.16,0,0,1-3.51,33.79h0C211.12,834.08,208,836.87,202.4,833.42Z"/><path class="cls-125" d="M202.37,832.92a185.65,185.65,0,0,1-4.29-22.1,213.22,213.22,0,0,1-2-23,171,171,0,0,1,1.24-27.5c.24-1.81.19-5.25,1.92-6.07,3.16-1.5,9.78,6.45,12.92,11.75,0,.11,2.09,3.55,3.14,13.49a141.11,141.11,0,0,1,.43,20.5,296.25,296.25,0,0,1-3.48,33.79h0C211,833.57,208,836.33,202.37,832.92Z"/><path class="cls-5" d="M202.35,832.41a186.59,186.59,0,0,1-4.25-21.95,212.92,212.92,0,0,1-1.94-22.81,171.88,171.88,0,0,1,1.23-27.49c.24-1.82.21-5.24,1.92-6.07,3.14-1.54,9.68,6.34,12.79,11.64,0,.13,2.06,3.56,3.1,13.4a139.74,139.74,0,0,1,.42,20.37,291.3,291.3,0,0,1-3.43,33.79h0C210.93,833.05,207.91,835.8,202.35,832.41Z"/><path class="cls-6" d="M202.33,831.9a185.09,185.09,0,0,1-4.21-21.79,218.51,218.51,0,0,1-1.93-22.66A171.6,171.6,0,0,1,197.42,760c.25-1.83.22-5.22,1.92-6.07,3.12-1.57,9.58,6.22,12.66,11.53,0,.16,2,3.58,3.06,13.32a142.37,142.37,0,0,1,.42,20.24,296.37,296.37,0,0,1-3.4,33.79h0C210.83,832.54,207.84,835.26,202.33,831.9Z"/><path class="cls-7" d="M202.31,831.39a185,185,0,0,1-4.16-21.64,215.6,215.6,0,0,1-1.92-22.5,170.18,170.18,0,0,1,1.23-27.47c.24-1.84.23-5.21,1.9-6.07,3.11-1.61,9.5,6.1,12.54,11.42,0,.19,2,3.59,3,13.23a144,144,0,0,1,.41,20.11A296.18,296.18,0,0,1,212,832.26h0C210.74,832,207.77,834.73,202.31,831.39Z"/><path class="cls-8" d="M202.29,830.88a183.44,183.44,0,0,1-4.12-21.49,212.89,212.89,0,0,1-1.9-22.34,171,171,0,0,1,1.22-27.46c.25-1.85.24-5.2,1.9-6.08,3.1-1.64,9.4,6,12.41,11.32,0,.21,2,3.6,3,13.15a145.19,145.19,0,0,1,.41,20,294.63,294.63,0,0,1-3.33,33.8h0C210.64,831.51,207.71,834.19,202.29,830.88Z"/><path class="cls-8" d="M202.26,830.38A184,184,0,0,1,198.19,809a213.59,213.59,0,0,1-1.88-22.19,170.67,170.67,0,0,1,1.21-27.45c.25-1.85.26-5.18,1.9-6.08,3.08-1.68,9.3,5.87,12.28,11.21,0,.24,2,3.62,3,13.07a145,145,0,0,1,.41,19.84,294.94,294.94,0,0,1-3.29,33.79h0C210.55,831,207.64,833.66,202.26,830.38Z"/><path class="cls-9" d="M202.24,829.87a185,185,0,0,1-4-21.19,213.66,213.66,0,0,1-1.86-22,169.38,169.38,0,0,1,1.21-27.45c.25-1.86.26-5.17,1.89-6.08,3.06-1.72,9.21,5.76,12.14,11.1,0,.27,1.95,3.63,2.92,13a143.46,143.46,0,0,1,.4,19.71,293.44,293.44,0,0,1-3.25,33.8h0C210.45,830.49,207.57,833.12,202.24,829.87Z"/><path class="cls-9" d="M202.22,829.36a183.45,183.45,0,0,1-4-21,213.72,213.72,0,0,1-1.84-21.86,169.09,169.09,0,0,1,1.2-27.44c.25-1.87.28-5.16,1.89-6.08,3.05-1.76,9.11,5.64,12,11,0,.29,1.92,3.64,2.88,12.9a144.81,144.81,0,0,1,.4,19.57,293.73,293.73,0,0,1-3.21,33.8h0C210.36,830,207.51,832.59,202.22,829.36Z"/><path class="cls-10" d="M202.2,828.85A181.86,181.86,0,0,1,198.25,808a213.81,213.81,0,0,1-1.82-21.7,168.8,168.8,0,0,1,1.19-27.43c.26-1.88.29-5.14,1.89-6.08,3-1.79,9,5.52,11.88,10.88,0,.32,1.92,3.65,2.84,12.81a143.14,143.14,0,0,1,.4,19.45,292.65,292.65,0,0,1-3.18,33.8h0C210.26,829.46,207.44,832.05,202.2,828.85Z"/><path class="cls-11" d="M202.17,828.34a183.53,183.53,0,0,1-3.89-20.73,208.49,208.49,0,0,1-1.81-21.55,168.53,168.53,0,0,1,1.19-27.42c.26-1.88.3-5.13,1.88-6.09,3-1.82,8.92,5.41,11.75,10.78,0,.34,1.89,3.67,2.81,12.73a146.49,146.49,0,0,1,.39,19.31,295.62,295.62,0,0,1-3.14,33.8h0C210.17,829,207.37,831.52,202.17,828.34Z"/><path class="cls-12" d="M202.15,827.84a182.47,182.47,0,0,1-3.85-20.59,208.54,208.54,0,0,1-1.79-21.39,167.13,167.13,0,0,1,1.18-27.41c.26-1.89.31-5.12,1.87-6.09,3-1.86,8.83,5.29,11.63,10.67,0,.37,1.87,3.68,2.77,12.64a146.42,146.42,0,0,1,.39,19.18,294.67,294.67,0,0,1-3.11,33.81h0C210.07,828.44,207.31,831,202.15,827.84Z"/><path class="cls-13" d="M202.13,827.33a180.88,180.88,0,0,1-3.81-20.44,208.62,208.62,0,0,1-1.77-21.23,165.78,165.78,0,0,1,1.18-27.4c.26-1.9.32-5.11,1.86-6.09,3-1.9,8.74,5.18,11.5,10.56,0,.4,1.84,3.69,2.73,12.56a144.49,144.49,0,0,1,.39,19.05,295.46,295.46,0,0,1-3.07,33.8h0C210,827.92,207.24,830.45,202.13,827.33Z"/><path class="cls-126" d="M202.11,826.82a182.1,182.1,0,0,1-3.77-20.29,208.73,208.73,0,0,1-1.75-21.07,166.59,166.59,0,0,1,1.17-27.39c.26-1.91.33-5.09,1.86-6.09,3-1.94,8.64,5.06,11.36,10.45,0,.42,1.83,3.71,2.7,12.48a142.79,142.79,0,0,1,.38,18.91,292.23,292.23,0,0,1-3,33.81h0C209.88,827.41,207.17,829.91,202.11,826.82Z"/><path class="cls-14" d="M202.08,826.31a182.25,182.25,0,0,1-3.72-20.13c-.81-6.09-1.49-13.23-1.74-20.92a167.44,167.44,0,0,1,1.17-27.38c.27-1.91.35-5.08,1.86-6.09,3-2,8.54,4.94,11.23,10.34a44.1,44.1,0,0,1,2.66,12.39,144.59,144.59,0,0,1,.38,18.79,295.68,295.68,0,0,1-3,33.8h0C209.79,826.9,207.11,829.38,202.08,826.31Z"/><path class="cls-15" d="M202.06,825.81a180,180,0,0,1-3.67-20,206.38,206.38,0,0,1-1.73-20.76,166.08,166.08,0,0,1,1.17-27.37c.26-1.92.35-5.07,1.85-6.1,2.94-2,8.45,4.83,11.1,10.24a44.65,44.65,0,0,1,2.62,12.31,144.38,144.38,0,0,1,.38,18.65,295.14,295.14,0,0,1-3,33.81h0C209.69,826.38,207,828.84,202.06,825.81Z"/><path class="cls-15" d="M202,825.3a181.31,181.31,0,0,1-3.63-19.84c-.79-6-1.47-13-1.71-20.6a165.8,165.8,0,0,1,1.16-27.36c.27-1.93.37-5.06,1.85-6.1,2.92-2,8.35,4.72,11,10.13a45.25,45.25,0,0,1,2.59,12.22,146.51,146.51,0,0,1,.37,18.52,296.38,296.38,0,0,1-2.92,33.81h0C209.6,825.87,207,828.31,202,825.3Z"/><path class="cls-16" d="M202,824.79a179.71,179.71,0,0,1-3.59-19.69c-.78-6-1.45-12.92-1.69-20.44a165.53,165.53,0,0,1,1.15-27.35c.28-1.94.38-5,1.85-6.1,2.91-2.09,8.25,4.6,10.84,10a46.49,46.49,0,0,1,2.55,12.14,148.35,148.35,0,0,1,.37,18.39,293.79,293.79,0,0,1-2.89,33.81h0C209.5,825.36,206.91,827.77,202,824.79Z"/><path class="cls-18" d="M202,824.28a179.92,179.92,0,0,1-3.54-19.53c-.77-5.91-1.43-12.83-1.67-20.29a165.27,165.27,0,0,1,1.15-27.34c.27-1.94.39-5,1.83-6.1,2.9-2.13,9.14,4.12,10.72,9.91.14.54,1.71,3.77,2.51,12.05a144.8,144.8,0,0,1,.36,18.26,295.48,295.48,0,0,1-2.84,33.81h0C209.41,824.84,206.84,827.24,202,824.28Z"/><path class="cls-127" d="M202,823.77a181.37,181.37,0,0,1-3.5-19.38c-.76-5.87-1.41-12.73-1.65-20.13A163.93,163.93,0,0,1,198,756.93c.28-1.95.4-5,1.83-6.1,2.88-2.18,9,4,10.59,9.8.15.56,1.68,3.78,2.47,12a144.59,144.59,0,0,1,.36,18.12,295.34,295.34,0,0,1-2.81,33.82h0C209.31,824.33,206.77,826.7,202,823.77Z"/><path class="cls-19" d="M202,823.27A180.32,180.32,0,0,1,198.49,804c-.75-5.82-1.4-12.63-1.63-20A163.66,163.66,0,0,1,198,756.74c.28-2,.41-5,1.83-6.11,2.87-2.21,8.91,3.92,10.45,9.7.16.59,1.67,3.8,2.44,11.89a146.48,146.48,0,0,1,.36,18A297.08,297.08,0,0,1,210.3,824h0C209.22,823.82,206.71,826.17,202,823.27Z"/><path class="cls-128" d="M201.93,822.76a177.43,177.43,0,0,1-3.41-19.09c-.75-5.77-1.39-12.53-1.62-19.8A163.49,163.49,0,0,1,198,756.55c.28-2,.42-5,1.82-6.11,2.85-2.25,8.8,3.81,10.32,9.59.16.62,1.65,3.81,2.4,11.8a146.61,146.61,0,0,1,.36,17.86,297.13,297.13,0,0,1-2.74,33.82h0C209.12,823.31,206.64,825.63,201.93,822.76Z"/><path class="cls-21" d="M201.9,822.25a180.9,180.9,0,0,1-3.36-18.93c-.74-5.73-1.37-12.44-1.6-19.65a162.17,162.17,0,0,1,1.12-27.31c.28-2,.43-5,1.82-6.11,2.83-2.29,8.69,3.7,10.19,9.48.17.64,1.62,3.82,2.37,11.72a146.9,146.9,0,0,1,.35,17.73,301.67,301.67,0,0,1-2.7,33.81h0C209,822.79,206.57,825.1,201.9,822.25Z"/><path class="cls-21" d="M201.88,821.74A179.28,179.28,0,0,1,198.56,803c-.73-5.68-1.35-12.34-1.58-19.49a161.93,161.93,0,0,1,1.12-27.3c.28-2,.44-5,1.81-6.11,2.81-2.33,8.58,3.59,10.06,9.37a44.34,44.34,0,0,1,2.33,11.63,147.32,147.32,0,0,1,.34,17.6c-.33,11.31-1.22,24.71-2.66,33.82h0C208.93,822.28,206.51,824.56,201.88,821.74Z"/><path class="cls-23" d="M201.86,821.23a181,181,0,0,1-3.28-18.63c-.72-5.64-1.33-12.23-1.57-19.33A162.73,162.73,0,0,1,198.13,756c.28-2,.45-5,1.81-6.11,2.8-2.37,8.46,3.49,9.93,9.26a45.23,45.23,0,0,1,2.29,11.55,147.22,147.22,0,0,1,.34,17.46c-.33,11.4-1.21,24.89-2.62,33.82h0C208.84,821.77,206.44,824,201.86,821.23Z"/><path class="cls-23" d="M201.84,820.73a179.92,179.92,0,0,1-3.24-18.49c-.71-5.59-1.32-12.13-1.55-19.17a162.48,162.48,0,0,1,1.11-27.28c.29-2,.47-5,1.8-6.12,2.79-2.41,8.36,3.39,9.81,9.16A45.22,45.22,0,0,1,212,770.3a147.25,147.25,0,0,1,.34,17.33c-.33,11.48-1.21,25.06-2.59,33.82h0C208.74,821.25,206.37,823.49,201.84,820.73Z"/><path class="cls-24" d="M201.81,820.22a180.38,180.38,0,0,1-3.19-18.33c-.7-5.55-1.3-12-1.53-19a161.19,161.19,0,0,1,1.11-27.27c.29-2,.47-5,1.79-6.12,2.77-2.45,8.25,3.28,9.67,9a45.41,45.41,0,0,1,2.22,11.38,147.42,147.42,0,0,1,.34,17.2c-.33,11.57-1.2,25.24-2.55,33.82h0C208.65,820.74,206.31,823,201.81,820.22Z"/><path class="cls-129" d="M201.79,819.71a180.8,180.8,0,0,1-3.14-18.18c-.7-5.5-1.29-11.94-1.52-18.86a160.94,160.94,0,0,1,1.1-27.26c.29-2,.48-4.94,1.79-6.12,2.75-2.49,8.14,3.17,9.54,8.94a45.93,45.93,0,0,1,2.18,11.3,147.36,147.36,0,0,1,.34,17.06c-.32,11.67-1.19,25.42-2.52,33.83h0C208.55,820.23,206.24,822.43,201.79,819.71Z"/><path class="cls-27" d="M201.77,819.2a179.17,179.17,0,0,1-3.1-18c-.68-5.46-1.27-11.84-1.5-18.7a159.67,159.67,0,0,1,1.09-27.25c.29-2,.5-4.93,1.79-6.12,2.74-2.54,8,3.06,9.41,8.83a47.3,47.3,0,0,1,2.15,11.21,148.43,148.43,0,0,1,.32,16.94c-.31,11.75-1.17,25.59-2.47,33.82h0C208.46,819.71,206.17,821.89,201.77,819.2Z"/><path class="cls-27" d="M201.75,818.69a177.54,177.54,0,0,1-3.06-17.88c-.67-5.41-1.26-11.74-1.48-18.54A158.37,158.37,0,0,1,198.3,755c.29-2,.5-4.92,1.78-6.12,2.72-2.58,7.91,3,9.28,8.72a47.09,47.09,0,0,1,2.11,11.13,150.83,150.83,0,0,1,.32,16.8c-.31,11.84-1.17,25.77-2.44,33.83h0C208.36,819.2,206.11,821.36,201.75,818.69Z"/><path class="cls-28" d="M201.72,818.19s-1.68-7.07-3-17.73c-.66-5.37-1.24-11.65-1.46-18.39a157.18,157.18,0,0,1,1.08-27.23c.29-2,.52-4.91,1.78-6.13,2.7-2.61,7.8,2.86,9.15,8.62a48.4,48.4,0,0,1,2.07,11,148.7,148.7,0,0,1,.32,16.67c-.31,11.93-1.16,26-2.4,33.83h0C208.27,818.69,206,820.82,201.72,818.19Z"/><path class="cls-130" d="M201.7,817.68s-1.66-7-3-17.58c-.65-5.32-1.22-11.54-1.44-18.23a157.94,157.94,0,0,1,1.07-27.22c.3-2,.53-4.9,1.78-6.13,2.68-2.66,7.68,2.75,9,8.51a49,49,0,0,1,2,11,148.93,148.93,0,0,1,.32,16.54c-.31,12-1.15,26.12-2.37,33.83h0C208.17,818.17,206,820.29,201.7,817.68Z"/><path class="cls-131" d="M201.68,817.17s-1.64-6.95-2.92-17.43c-.65-5.27-1.21-11.44-1.43-18.07a156.71,156.71,0,0,1,1.07-27.21c.29-2.05.53-4.89,1.76-6.13,2.67-2.7,7.58,2.64,8.89,8.4a49,49,0,0,1,2,10.88,151.54,151.54,0,0,1,.32,16.4c-.31,12.11-1.14,26.3-2.33,33.83h0C208.08,817.66,205.91,819.75,201.68,817.17Z"/><path class="cls-30" d="M201.66,816.66s-1.61-6.89-2.88-17.28c-.64-5.23-1.19-11.34-1.41-17.91a157.48,157.48,0,0,1,1.06-27.2c.3-2.06.55-4.88,1.76-6.13,2.66-2.74,7.47,2.53,8.76,8.29a49.74,49.74,0,0,1,2,10.79,147.32,147.32,0,0,1,.31,16.28c-.29,12.19-1.13,26.47-2.29,33.83h0C208,817.15,205.84,819.22,201.66,816.66Z"/><path class="cls-32" d="M201.63,816.16s-1.58-6.84-2.83-17.13c-.63-5.19-1.18-11.25-1.39-17.76a156.26,156.26,0,0,1,1.05-27.19c.31-2.06.56-4.87,1.76-6.13,2.64-2.79,7.35,2.42,8.63,8.18a51.43,51.43,0,0,1,1.93,10.71,153.07,153.07,0,0,1,.3,16.14c-.29,12.28-1.12,26.65-2.25,33.83h0C207.89,816.64,205.77,818.68,201.63,816.16Z"/><path class="cls-132" d="M201.61,815.65s-1.56-6.78-2.79-17c-.62-5.14-1.16-11.15-1.38-17.59a156.1,156.1,0,0,1,1.06-27.19c.3-2.07.57-4.86,1.75-6.14,2.62-2.82,7.24,2.32,8.5,8.08a51.85,51.85,0,0,1,1.89,10.62,153.56,153.56,0,0,1,.3,16c-.29,12.38-1.11,26.83-2.22,33.84h0C207.79,816.12,205.71,818.15,201.61,815.65Z"/><path class="cls-33" d="M201.59,815.14s-1.53-6.72-2.75-16.83c-.61-5.09-1.14-11-1.36-17.43a156.86,156.86,0,0,1,1.05-27.18c.31-2.08.58-4.85,1.75-6.14,2.6-2.87,7.13,2.21,8.37,8a52.64,52.64,0,0,1,1.85,10.54,151.16,151.16,0,0,1,.3,15.88c-.29,12.46-1.1,27-2.18,33.83h0C207.7,815.61,205.64,817.61,201.59,815.14Z"/><path class="cls-133" d="M201.57,814.63S200.06,808,198.86,798c-.6-5.05-1.12-11-1.34-17.27a155.64,155.64,0,0,1,1-27.17c.3-2.09.58-4.84,1.74-6.14,2.58-2.91,7,2.1,8.24,7.86a53.24,53.24,0,0,1,1.81,10.45,154.51,154.51,0,0,1,.3,15.75c-.28,12.55-1.1,27.18-2.15,33.84h0C207.6,815.1,205.57,817.08,201.57,814.63Z"/><path class="cls-36" d="M201.55,814.12s-1.49-6.6-2.66-16.52c-.6-5-1.11-10.86-1.33-17.12a154.45,154.45,0,0,1,1-27.16c.31-2.09.6-4.83,1.74-6.14,2.56-3,6.9,2,8.11,7.75a54.55,54.55,0,0,1,1.77,10.37,154.85,154.85,0,0,1,.3,15.61c-.28,12.64-1.09,27.36-2.11,33.84h0C207.51,814.58,205.51,816.54,201.55,814.12Z"/><path class="cls-134" d="M201.52,813.62s-1.45-6.55-2.61-16.38c-.59-5-1.1-10.75-1.31-17a155.2,155.2,0,0,1,1-27.15c.31-2.1.61-4.82,1.73-6.14,2.55-3,6.8,1.88,8,7.64a54,54,0,0,1,1.74,10.29,149.87,149.87,0,0,1,.29,15.48c-.27,12.73-1.07,27.53-2.07,33.84h0C207.41,814.07,205.44,816,201.52,813.62Z"/><path class="cls-37" d="M201.5,813.11s-1.43-6.49-2.57-16.23c-.58-4.91-1.08-10.65-1.29-16.8a154,154,0,0,1,1-27.14c.31-2.11.61-4.81,1.72-6.14,2.53-3,6.68,1.77,7.85,7.53a56.06,56.06,0,0,1,1.71,10.2c.33,4.13.41,9.23.28,15.35-.27,12.82-1.07,27.71-2,33.84h0C207.32,813.56,205.38,815.47,201.5,813.11Z"/><path class="cls-38" d="M201.48,812.6s-1.41-6.43-2.53-16.08c-.56-4.86-1.06-10.55-1.27-16.64a153.8,153.8,0,0,1,1-27.13c.31-2.12.62-4.8,1.72-6.15,2.51-3.08,6.57,1.67,7.72,7.43a56.48,56.48,0,0,1,1.67,10.12c.33,4.1.4,9.16.28,15.21-.26,12.91-1.06,27.89-2,33.85h0C207.22,813,205.31,814.94,201.48,812.6Z"/><path class="cls-39" d="M201.46,812.09s-1.38-6.37-2.49-15.92c-.55-4.83-1-10.46-1.25-16.49a153.59,153.59,0,0,1,1-27.12c.32-2.13.64-4.79,1.72-6.15,2.49-3.13,6.46,1.56,7.59,7.32a58.15,58.15,0,0,1,1.63,10c.33,4.08.4,9.1.28,15.09-.26,13-1,28.06-2,33.84h0C207.13,812.53,205.24,814.4,201.46,812.09Z"/><path class="cls-41" d="M201.43,811.58s-1.35-6.31-2.44-15.77c-.54-4.78-1-10.36-1.23-16.33-.34-9-.24-18.79,1-27.11.32-2.13.64-4.78,1.71-6.15,2.47-3.17,6.34,1.45,7.46,7.21a58.78,58.78,0,0,1,1.59,10c.32,4,.39,9,.28,15-.26,13.09-1,28.24-1.93,33.85h0C207,812,205.18,813.87,201.43,811.58Z"/><path class="cls-135" d="M201.41,811.08s-1.33-6.26-2.39-15.63c-.54-4.73-1-10.26-1.22-16.17a154.11,154.11,0,0,1,1-27.1c.33-2.14.65-4.77,1.71-6.15,2.45-3.22,6.23,1.33,7.33,7.1a60.58,60.58,0,0,1,1.55,9.86c.32,4,.38,9,.27,14.83-.24,13.17-1,28.41-1.88,33.84h0C206.94,811.51,205.11,813.33,201.41,811.08Z"/><path class="cls-42" d="M201.39,810.57s-1.3-6.2-2.35-15.48c-.53-4.68-1-10.16-1.21-16a154.86,154.86,0,0,1,1-27.09c.33-2.15.67-4.76,1.71-6.15,2.43-3.26,6.12,1.22,7.19,7a59.45,59.45,0,0,1,1.52,9.78c.31,4,.38,8.9.27,14.69-.24,13.26-1,28.59-1.85,33.85h0C206.84,811,205,812.8,201.39,810.57Z"/><path class="cls-44" d="M201.37,810.06s-1.28-6.14-2.31-15.32c-.52-4.65-1-10.06-1.19-15.86-.34-9-.23-18.83,1-27.08.33-2.15.67-4.75,1.69-6.16,2.42-3.3,6,1.12,7.07,6.89a62,62,0,0,1,1.49,9.7c.3,4,.36,8.83.26,14.55-.24,13.36-1,28.77-1.81,33.85h0C206.75,810.48,205,812.26,201.37,810.06Z"/><path class="cls-136" d="M201.34,809.55s-1.24-6.08-2.26-15.17c-.51-4.6-1-10-1.17-15.7-.34-9-.23-18.85,1-27.07.33-2.16.68-4.74,1.69-6.16,2.4-3.34,5.9,1,6.94,6.78a62.58,62.58,0,0,1,1.45,9.61c.3,4,.36,8.77.26,14.43-.23,13.44-1,28.94-1.78,33.85h0C206.65,810,204.91,811.73,201.34,809.55Z"/><path class="cls-46" d="M201.32,809s-1.22-6-2.22-15c-.5-4.55-.94-9.86-1.15-15.54-.34-9-.24-18.86,1-27.06.33-2.17.68-4.73,1.68-6.16,2.37-3.39,5.79.9,6.81,6.67a66,66,0,0,1,1.41,9.53c.29,3.93.35,8.71.26,14.29-.23,13.53-1,29.12-1.74,33.85h0C206.56,809.45,204.84,811.19,201.32,809Z"/><path class="cls-46" d="M201.3,808.54s-1.2-6-2.18-14.88c-.49-4.5-.93-9.76-1.13-15.37-.35-9-.25-18.89,1-27.06.33-2.18.7-4.72,1.68-6.16,2.35-3.44,5.67.79,6.68,6.56a68.27,68.27,0,0,1,1.37,9.44c.29,3.91.34,8.65.25,14.16-.22,13.62-1,29.3-1.7,33.86h0C206.46,808.94,204.78,810.66,201.3,808.54Z"/><path class="cls-47" d="M201.28,808s-1.17-5.91-2.13-14.72c-.49-4.46-.92-9.67-1.12-15.22-.35-9-.25-18.9,1-27.05.34-2.18.71-4.71,1.68-6.16,2.33-3.48,5.56.67,6.55,6.45a68.83,68.83,0,0,1,1.33,9.36c.29,3.88.34,8.58.25,14-.21,13.71-1,29.47-1.66,33.85h0C206.37,808.43,204.71,810.12,201.28,808Z"/><path class="cls-48" d="M201.25,807.52s-1.14-5.85-2.08-14.57c-.48-4.42-.9-9.57-1.1-15.06-.35-9-.26-18.92,1-27,.34-2.19.71-4.71,1.67-6.17,2.31-3.52,5.45.57,6.42,6.35a71.15,71.15,0,0,1,1.29,9.28c.28,3.86.33,8.51.25,13.89-.21,13.8-1,29.65-1.63,33.86h0C206.27,807.91,204.64,809.59,201.25,807.52Z"/><path class="cls-137" d="M201.23,807s-1.12-5.79-2-14.42c-.47-4.37-.88-9.47-1.08-14.9-.35-9-.27-18.93,1-27,.34-2.2.72-4.7,1.67-6.17,2.28-3.56,5.33.46,6.28,6.24a70.56,70.56,0,0,1,1.27,9.19c.27,3.84.32,8.45.24,13.76-.2,13.89-1,29.83-1.59,33.86h0C206.18,807.4,204.58,809.05,201.23,807Z"/><path class="cls-49" d="M201.21,806.5s-1.09-5.73-2-14.26c-.46-4.33-.86-9.37-1.06-14.75-.36-9-.27-19,.95-27,.35-2.21.73-4.69,1.66-6.17,2.27-3.61,5.23.35,6.16,6.13a72.6,72.6,0,0,1,1.23,9.11c.26,3.81.31,8.38.24,13.63-.2,14-.95,30-1.56,33.86h0C206.08,806.89,204.51,808.52,201.21,806.5Z"/><path class="cls-50" d="M201.19,806s-1.07-5.68-2-14.12c-.44-4.28-.85-9.27-1-14.59-.36-9-.28-19,.95-27,.34-2.22.74-4.68,1.65-6.17,2.25-3.66,5.11.23,6,6a75.08,75.08,0,0,1,1.19,9c.26,3.79.3,8.32.23,13.5-.18,14.07-.93,30.19-1.51,33.86h0C206,806.37,204.44,808,201.19,806Z"/><path class="cls-51" d="M201.16,805.49s-1-5.62-1.9-14c-.44-4.24-.84-9.17-1-14.43-.35-9-.28-19,.95-27,.35-2.22.75-4.67,1.65-6.17,2.23-3.7,5,.12,5.9,5.91a78,78,0,0,1,1.15,8.94c.25,3.76.3,8.25.23,13.37-.18,14.15-.93,30.36-1.48,33.86h0C205.89,805.86,204.38,807.45,201.16,805.49Z"/><path class="cls-52" d="M201.14,805s-1-5.56-1.86-13.82c-.43-4.19-.82-9.07-1-14.27-.35-9-.28-19,.94-27,.35-2.23.76-4.66,1.65-6.18,2.2-3.74,4.89,0,5.77,5.81a80.37,80.37,0,0,1,1.11,8.85c.25,3.74.29,8.19.23,13.24-.17,14.24-.92,30.54-1.44,33.86h0C205.8,805.35,204.31,806.91,201.14,805Z"/><path class="cls-54" d="M201.12,804.47s-1-5.5-1.82-13.66c-.42-4.15-.8-9-1-14.12-.36-9-.29-19,.94-27a19.67,19.67,0,0,1,1.64-6.18c2.18-3.78,4.77-.1,5.64,5.7a83.16,83.16,0,0,1,1.07,8.77c.25,3.72.29,8.12.23,13.1-.17,14.33-.91,30.72-1.41,33.87h0C205.7,804.84,204.24,806.38,201.12,804.47Z"/><path class="cls-54" d="M201.1,804s-1-5.45-1.78-13.52c-.41-4.1-.79-8.88-1-14-.36-9-.29-19,.93-27a20,20,0,0,1,1.64-6.18c2.15-3.83,4.66-.21,5.5,5.59a81.75,81.75,0,0,1,1.05,8.69c.23,3.69.27,8,.22,13-.16,14.42-.9,30.89-1.37,33.86h0C205.61,804.32,204.18,805.84,201.1,804Z"/><path class="cls-55" d="M201.07,803.46s-.93-5.39-1.73-13.37c-.4-4.05-.77-8.78-1-13.8-.36-9-.3-19,.93-27a20.32,20.32,0,0,1,1.63-6.18c2.13-3.88,4.54-.32,5.37,5.48.23,1.62.74,4.31,1,8.6.23,3.67.27,8,.22,12.84-.16,14.51-.9,31.07-1.34,33.87h0C205.51,803.81,204.11,805.31,201.07,803.46Z"/><path class="cls-56" d="M201.05,803s-.91-5.33-1.69-13.22c-.39-4-.75-8.67-.94-13.64-.37-9-.31-19.05.92-27A21.23,21.23,0,0,1,201,743c2.12-3.92,4.44-.44,5.25,5.37.23,1.65.71,4.32,1,8.52.22,3.64.26,7.92.21,12.7-.14,14.6-.88,31.25-1.29,33.87h0C205.42,803.3,204,804.77,201.05,803Z"/><path class="cls-138" d="M201,802.44s-.89-5.27-1.64-13.06c-.39-4-.74-8.58-.93-13.49-.37-9-.31-19.07.91-26.94a22,22,0,0,1,1.62-6.19c2.09-4,4.33-.54,5.12,5.27.23,1.68.69,4.34.93,8.43.22,3.62.26,7.86.21,12.58-.14,14.68-.87,31.42-1.26,33.87h0C205.32,802.78,204,804.24,201,802.44Z"/><path class="cls-58" d="M201,801.93s-.86-5.21-1.6-12.91c-.38-3.92-.72-8.48-.91-13.33-.37-9.05-.32-19.09.91-26.93a22.31,22.31,0,0,1,1.61-6.19c2.07-4,4.21-.65,5,5.16.22,1.7.66,4.35.89,8.35.21,3.59.25,7.79.21,12.44-.13,14.78-.86,31.6-1.22,33.87h0C205.23,802.27,203.91,803.7,201,801.93Z"/><path class="cls-59" d="M201,801.43s-.83-5.16-1.55-12.77c-.37-3.87-.71-8.38-.89-13.16-.37-9.07-.33-19.11.9-26.93a22.76,22.76,0,0,1,1.61-6.19c2-4,4.1-.77,4.86,5,.22,1.73.63,4.36.86,8.26.2,3.58.23,7.73.2,12.31-.12,14.87-.86,31.78-1.19,33.88h0C205.13,801.76,203.84,803.17,201,801.43Z"/><path class="cls-60" d="M201,800.92s-.81-5.1-1.51-12.62c-.36-3.83-.69-8.28-.87-13-.38-9.07-.33-19.13.89-26.92a23.51,23.51,0,0,1,1.61-6.19c2-4.1,4-.88,4.72,4.94.23,1.76.62,4.38.83,8.18.19,3.55.23,7.66.2,12.18-.11,15-.85,32-1.15,33.87h0C205,801.24,203.78,802.63,201,800.92Z"/><path class="cls-61" d="M200.94,800.41s-.78-5-1.47-12.46c-.35-3.79-.67-8.19-.85-12.85-.38-9.08-.34-19.14.89-26.91a23.53,23.53,0,0,1,1.6-6.19c2-4.15,3.87-1,4.59,4.83.22,1.78.59,4.39.79,8.1.19,3.52.22,7.6.19,12-.1,15-.83,32.13-1.11,33.88h0C204.94,800.73,203.71,802.1,200.94,800.41Z"/><path class="cls-139" d="M200.92,799.9s-.76-5-1.43-12.31c-.33-3.74-.65-8.09-.84-12.69-.37-9.08-.33-19.16.89-26.9a24.53,24.53,0,0,1,1.6-6.2c2-4.18,3.76-1.1,4.46,4.73.22,1.81.56,4.4.75,8s.22,7.54.19,11.92c-.09,15.13-.83,32.3-1.07,33.87h0C204.85,800.22,203.64,801.56,200.92,799.9Z"/><path class="cls-63" d="M200.9,799.39s-.74-4.92-1.38-12.16c-.33-3.69-.64-8-.83-12.53-.37-9.09-.34-19.17.88-26.89a25.54,25.54,0,0,1,1.59-6.2c2-4.23,3.65-1.22,4.34,4.62.22,1.84.54,4.42.71,7.93s.21,7.47.19,11.78c-.08,15.22-.82,32.48-1,33.88h0C204.75,799.71,203.58,801,200.9,799.39Z"/><path class="cls-64" d="M200.87,798.89s-.7-4.87-1.33-12c-.32-3.64-.63-7.88-.81-12.37-.38-9.09-.35-19.19.88-26.88a26,26,0,0,1,1.58-6.2c1.92-4.27,3.54-1.33,4.21,4.51.21,1.86.51,4.43.67,7.84s.21,7.41.19,11.65c-.07,15.31-.81,32.66-1,33.88h0C204.66,799.19,203.51,800.49,200.87,798.89Z"/><path class="cls-65" d="M200.85,798.38s-.68-4.81-1.29-11.86c-.31-3.61-.61-7.79-.79-12.22-.38-9.1-.35-19.2.87-26.87a27,27,0,0,1,1.58-6.2c1.9-4.32,3.42-1.45,4.08,4.4.21,1.89.48,4.44.64,7.76s.19,7.34.18,11.52c-.06,15.4-.8,32.83-1,33.88h0C204.56,798.68,203.44,800,200.85,798.38Z"/><path class="cls-66" d="M200.83,797.87s-.65-4.75-1.25-11.71c-.3-3.56-.59-7.69-.77-12.06-.38-9.1-.36-19.22.86-26.86a27.54,27.54,0,0,1,1.58-6.2c1.87-4.37,3.31-1.56,3.95,4.29.2,1.92.45,4.46.6,7.68.15,3.4.19,7.27.17,11.38,0,15.49-.79,33-.92,33.89h0C204.47,798.17,203.38,799.42,200.83,797.87Z"/><path class="cls-66" d="M200.81,797.36s-.63-4.69-1.21-11.56c-.29-3.51-.57-7.59-.75-11.9-.38-9.11-.37-19.23.86-26.85a29.09,29.09,0,0,1,1.57-6.21c1.84-4.4,3.2-1.67,3.81,4.19.21,2,.44,4.47.57,7.59.14,3.38.19,7.21.17,11.25,0,15.58-.78,33.19-.89,33.89h0C204.37,797.65,203.31,798.89,200.81,797.36Z"/><path class="cls-67" d="M200.78,796.85s-.6-4.63-1.16-11.41c-.28-3.46-.55-7.49-.73-11.74-.39-9.11-.37-19.25.85-26.84a29.7,29.7,0,0,1,1.57-6.21c1.82-4.45,3.08-1.78,3.68,4.08.2,2,.41,4.48.53,7.51.14,3.35.18,7.14.17,11.12,0,15.66-.77,33.36-.85,33.89h0C204.28,797.14,203.24,798.35,200.78,796.85Z"/><path class="cls-68" d="M200.76,796.35s-.57-4.58-1.11-11.26c-.28-3.42-.55-7.4-.72-11.59-.39-9.11-.38-19.26.85-26.83a30.37,30.37,0,0,1,1.56-6.21c1.79-4.5,3-1.9,3.55,4,.2,2,.37,4.5.49,7.42.12,3.33.18,7.08.17,11,0,15.76-.76,33.54-.82,33.89h0C204.18,796.63,203.18,797.82,200.76,796.35Z"/><path class="cls-69" d="M200.74,795.84s-.55-4.52-1.07-11.11c-.27-3.38-.53-7.3-.7-11.43-.39-9.12-.38-19.28.84-26.82a30.37,30.37,0,0,1,1.56-6.21c1.75-4.54,2.85-2,3.42,3.86.19,2,.35,4.51.45,7.34.12,3.31.17,7,.17,10.86,0,15.84-.76,33.71-.78,33.89h0C204.09,796.11,203.11,797.28,200.74,795.84Z"/><path class="cls-70" d="M200.72,795.33s-1.2-10.21-1.71-22.23-.35-25.82,2.38-33c3.08-8.11,3.86,5.8,3.87,21.73s-.74,33.89-.74,33.89C204,795.6,203,796.75,200.72,795.33Z"/><path class="cls-1" d="M215.9,835a157,157,0,0,0,4.69-23,202.73,202.73,0,0,0,1.86-24.8,185.1,185.1,0,0,0-2-30.16c-.76-5-4.17-18.87-4.76-19-2.95-.61-8.81,13.24-11.6,36.42a100.76,100.76,0,0,0-2.14,22c0,8.09.43,18.93.54,38.53.66-.13,1.46.92,3.37,1.48S210.77,837.05,215.9,835Z"/><path class="cls-2" d="M215.71,738.24c-2.91-.74-8.73,13.09-11.49,36.1-.34,1.75-.63,3.36-.88,4.88a98.77,98.77,0,0,0-1.26,17c0,8.1.41,18.89.52,38.24.65-.12,1.44.92,3.34,1.47s4.89.61,10-1.47a155,155,0,0,0,4.65-22.79,201.32,201.32,0,0,0,1.85-24.58,184.73,184.73,0,0,0-2-30C219.66,752.12,216.3,738.39,215.71,738.24Z"/><path class="cls-3" d="M215.76,738.49c-2.87-.86-8.64,12.94-11.39,35.79-.34,1.73-.63,3.33-.87,4.84A98.38,98.38,0,0,0,202.25,796c0,8.1.38,18.86.49,38,.65-.12,1.43.91,3.3,1.45s4.86.61,9.89-1.46a155.54,155.54,0,0,0,4.6-22.58A201.58,201.58,0,0,0,222.37,787a183.26,183.26,0,0,0-2-29.77C219.67,752.27,216.35,738.66,215.76,738.49Z"/><path class="cls-4" d="M215.81,738.73c-2.82-1-8.56,12.8-11.29,35.49-.33,1.71-.62,3.3-.86,4.81a97.87,97.87,0,0,0-1.24,16.73c0,8.11.35,18.83.46,37.68.64-.12,1.42.89,3.27,1.43s4.81.61,9.79-1.45a153.09,153.09,0,0,0,4.56-22.37,198,198,0,0,0,1.82-24.11,181.7,181.7,0,0,0-1.91-29.57C219.67,752.42,216.4,738.93,215.81,738.73Z"/><path class="cls-125" d="M215.86,739c-2.77-1.09-8.47,12.65-11.18,35.17-.33,1.71-.62,3.28-.86,4.78a97.37,97.37,0,0,0-1.23,16.6c-.06,8.12.32,18.81.43,37.4.63-.11,1.4.89,3.24,1.43s4.76.59,9.7-1.44a154.08,154.08,0,0,0,4.51-22.16,198.76,198.76,0,0,0,1.81-23.88,181.36,181.36,0,0,0-1.88-29.38C219.68,752.57,216.45,739.21,215.86,739Z"/><path class="cls-5" d="M215.91,739.23c-2.72-1.2-8.39,12.51-11.08,34.86-.33,1.69-.61,3.25-.84,4.74a99.13,99.13,0,0,0-1.24,16.48c-.05,8.13.3,18.78.41,37.12.62-.12,1.39.88,3.21,1.41s4.72.59,9.6-1.43a152,152,0,0,0,4.47-21.95,199.11,199.11,0,0,0,1.8-23.65,182.08,182.08,0,0,0-1.84-29.18C219.68,752.72,216.51,739.49,215.91,739.23Z"/><path class="cls-6" d="M216,739.47c-2.67-1.29-8.31,12.37-11,34.56-.32,1.67-.6,3.23-.83,4.7a98.85,98.85,0,0,0-1.23,16.36c-.06,8.14.27,18.74.37,36.84.63-.12,1.38.86,3.18,1.39s4.68.58,9.52-1.42a149.87,149.87,0,0,0,4.41-21.73,193.58,193.58,0,0,0,1.79-23.43,179.35,179.35,0,0,0-1.8-29C219.69,752.86,216.56,739.76,216,739.47Z"/><path class="cls-7" d="M216,739.72c-2.62-1.39-8.22,12.22-10.87,34.24-.32,1.67-.6,3.21-.83,4.67a98.44,98.44,0,0,0-1.22,16.23c-.07,8.15.24,18.72.34,36.57.62-.12,1.37.85,3.15,1.37s4.63.58,9.42-1.41a149.48,149.48,0,0,0,4.37-21.52,193.88,193.88,0,0,0,1.78-23.19,180.39,180.39,0,0,0-1.76-28.8C219.7,753,216.62,740,216,739.72Z"/><path class="cls-8" d="M216.07,740c-2.58-1.49-8.15,12.07-10.78,33.93-.32,1.65-.59,3.18-.82,4.63a100.4,100.4,0,0,0-1.22,16.11c-.07,8.16.22,18.69.32,36.28.61-.11,1.36.85,3.12,1.36s4.59.57,9.33-1.4a148.44,148.44,0,0,0,4.32-21.3,190.59,190.59,0,0,0,1.76-23,177.59,177.59,0,0,0-1.71-28.6C219.7,753.16,216.67,740.32,216.07,740Z"/><path class="cls-8" d="M216.12,740.21c-2.53-1.57-8.06,11.94-10.67,33.63-.32,1.63-.59,3.15-.82,4.59a100,100,0,0,0-1.21,16c-.08,8.17.19,18.66.29,36,.61-.11,1.34.84,3.09,1.34s4.54.57,9.23-1.38a148,148,0,0,0,4.28-21.1,191.09,191.09,0,0,0,1.75-22.73,177.35,177.35,0,0,0-1.68-28.41C219.71,753.31,216.73,740.6,216.12,740.21Z"/><path class="cls-9" d="M216.17,740.46c-2.48-1.66-8,11.79-10.57,33.31-.31,1.63-.58,3.13-.81,4.56a99.68,99.68,0,0,0-1.2,15.86c-.1,8.18.16,18.64.26,35.73.6-.12,1.33.82,3.05,1.32s4.5.57,9.14-1.37A146,146,0,0,0,220.28,809,189.7,189.7,0,0,0,222,786.48a176.87,176.87,0,0,0-1.64-28.21C219.71,753.46,216.79,740.88,216.17,740.46Z"/><path class="cls-9" d="M216.22,740.71c-2.43-1.75-7.89,11.64-10.47,33-.31,1.61-.57,3.1-.79,4.52A99.32,99.32,0,0,0,203.75,794c-.1,8.19.14,18.6.24,35.44.59-.11,1.32.82,3,1.31s4.46.56,9.05-1.36a144.92,144.92,0,0,0,4.19-20.67A188.13,188.13,0,0,0,222,786.42a177.78,177.78,0,0,0-1.6-28C219.71,753.61,216.84,741.16,216.22,740.71Z"/><path class="cls-10" d="M216.27,741c-2.39-1.82-7.81,11.5-10.36,32.7-.31,1.59-.57,3.07-.79,4.48a100.29,100.29,0,0,0-1.2,15.62c-.11,8.19.11,18.57.2,35.16.59-.11,1.31.81,3,1.29s4.41.56,8.95-1.35a144.57,144.57,0,0,0,4.15-20.46,188.55,188.55,0,0,0,1.71-22,178.62,178.62,0,0,0-1.56-27.82C219.71,753.76,216.9,741.44,216.27,741Z"/><path class="cls-11" d="M216.32,741.2c-2.34-1.9-7.72,11.35-10.26,32.38-.3,1.59-.56,3.06-.78,4.46a99.81,99.81,0,0,0-1.19,15.48c-.12,8.21.08,18.55.17,34.89.59-.11,1.3.79,3,1.27s4.36.55,8.86-1.34a143.13,143.13,0,0,0,4.1-20.24,187.18,187.18,0,0,0,1.7-21.82,177.28,177.28,0,0,0-1.53-27.63C219.72,753.91,217,741.72,216.32,741.2Z"/><path class="cls-12" d="M216.37,741.45c-2.29-2-7.64,11.21-10.16,32.07-.29,1.57-.55,3-.77,4.42a100.64,100.64,0,0,0-1.19,15.36c-.12,8.22.06,18.52.15,34.6.58-.11,1.29.79,2.93,1.27s4.33.54,8.77-1.33a142.46,142.46,0,0,0,4.05-20,185.63,185.63,0,0,0,1.69-21.58,178.23,178.23,0,0,0-1.48-27.44C219.72,754.06,217,742,216.37,741.45Z"/><path class="cls-13" d="M216.42,741.69c-2.25-2-7.55,11.07-10,31.77-.3,1.55-.55,3-.77,4.38a100.45,100.45,0,0,0-1.18,15.24c-.14,8.22,0,18.49.12,34.32.57-.11,1.27.78,2.9,1.25s4.28.53,8.68-1.32a141.44,141.44,0,0,0,4-19.82,186.51,186.51,0,0,0,1.68-21.36,178,178,0,0,0-1.45-27.24C219.73,754.21,217.06,742.28,216.42,741.69Z"/><path class="cls-126" d="M216.47,741.94c-2.21-2.11-7.47,10.92-9.95,31.45-.29,1.54-.54,3-.76,4.35a101.47,101.47,0,0,0-1.17,15.12c-.15,8.23,0,18.46.09,34,.56-.11,1.26.76,2.87,1.23s4.23.53,8.58-1.31a138.91,138.91,0,0,0,4-19.61,187.09,187.09,0,0,0,1.67-21.12A179,179,0,0,0,220.35,759C219.73,754.36,217.12,742.56,216.47,741.94Z"/><path class="cls-14" d="M216.52,742.19c-2.17-2.18-7.38,10.77-9.85,31.14-.28,1.53-.53,2.95-.75,4.31a102.63,102.63,0,0,0-1.17,15c-.15,8.25,0,18.43.07,33.76.56-.1,1.24.76,2.84,1.22s4.19.53,8.49-1.3a139.7,139.7,0,0,0,3.91-19.39,183.63,183.63,0,0,0,1.65-20.9,177.32,177.32,0,0,0-1.36-26.85C219.74,754.51,217.17,742.85,216.52,742.19Z"/><path class="cls-15" d="M216.57,742.44c-2.13-2.25-7.3,10.63-9.74,30.83-.29,1.51-.53,2.92-.74,4.27a102.36,102.36,0,0,0-1.17,14.87c-.16,8.25,0,18.4,0,33.48.56-.1,1.24.75,2.81,1.2s4.15.52,8.4-1.28A138,138,0,0,0,220,806.62,184.44,184.44,0,0,0,221.67,786a177.22,177.22,0,0,0-1.33-26.66C219.75,754.66,217.23,743.13,216.57,742.44Z"/><path class="cls-15" d="M216.62,742.68c-2.09-2.31-7.21,10.49-9.64,30.52-.28,1.5-.52,2.9-.73,4.24a102.12,102.12,0,0,0-1.16,14.75c-.18,8.26-.08,18.37,0,33.2.55-.11,1.23.73,2.78,1.18s4.1.52,8.31-1.27a138.39,138.39,0,0,0,3.82-19,185.55,185.55,0,0,0,1.63-20.44,178.48,178.48,0,0,0-1.29-26.47C219.75,754.81,217.28,743.42,216.62,742.68Z"/><path class="cls-16" d="M216.67,742.93c-2-2.37-7.13,10.34-9.53,30.21-.28,1.49-.52,2.88-.73,4.2A103.42,103.42,0,0,0,205.25,792c-.18,8.27-.1,18.35,0,32.92.55-.1,1.21.73,2.75,1.17s4.06.51,8.21-1.26A136.25,136.25,0,0,0,220,806a181.62,181.62,0,0,0,1.61-20.2,177,177,0,0,0-1.25-26.28C219.76,755,217.33,743.7,216.67,742.93Z"/><path class="cls-18" d="M216.72,743.18c-2-2.44-7,10.19-9.43,29.9-.28,1.47-.51,2.85-.72,4.16a103.21,103.21,0,0,0-1.15,14.5c-.19,8.28-.13,18.32,0,32.64.54-.1,1.2.72,2.72,1.15s4,.51,8.12-1.25a134.49,134.49,0,0,0,3.72-18.54,180.12,180.12,0,0,0,1.61-20,176.69,176.69,0,0,0-1.21-26.08C219.76,755.11,217.39,744,216.72,743.18Z"/><path class="cls-127" d="M216.77,743.42c-2-2.49-7,10.05-9.33,29.59-.27,1.46-.5,2.83-.71,4.14a104.4,104.4,0,0,0-1.14,14.37c-.2,8.29-.16,18.28-.08,32.36.53-.1,1.19.7,2.68,1.13s4,.5,8-1.24a133.79,133.79,0,0,0,3.68-18.33,181.09,181.09,0,0,0,1.6-19.75,175.21,175.21,0,0,0-1.18-25.88C219.77,755.26,217.44,744.27,216.77,743.42Z"/><path class="cls-19" d="M216.82,743.67c-1.94-2.56-6.88,9.91-9.22,29.28-.27,1.45-.5,2.8-.71,4.1a105.8,105.8,0,0,0-1.14,14.24c-.21,8.3-.18,18.26-.1,32.08.52-.09,1.17.7,2.65,1.13s3.93.49,7.94-1.23a133.17,133.17,0,0,0,3.63-18.13,177.13,177.13,0,0,0,1.58-19.51,175,175,0,0,0-1.13-25.69C219.77,755.4,217.49,744.56,216.82,743.67Z"/><path class="cls-128" d="M216.87,743.92c-1.91-2.62-6.79,9.76-9.12,29-.27,1.43-.5,2.77-.69,4.06a104,104,0,0,0-1.14,14.12c-.22,8.31-.21,18.23-.14,31.8.53-.1,1.17.69,2.63,1.11s3.88.49,7.84-1.22a133,133,0,0,0,3.59-17.91,178.34,178.34,0,0,0,1.57-19.29,174.81,174.81,0,0,0-1.09-25.49C219.78,755.55,217.54,744.84,216.87,743.92Z"/><path class="cls-21" d="M216.92,744.16c-1.88-2.68-6.71,9.62-9,28.66-.26,1.42-.49,2.75-.68,4a104,104,0,0,0-1.13,14c-.23,8.32-.24,18.2-.17,31.52.52-.1,1.16.67,2.6,1.09s3.83.48,7.75-1.21a131.52,131.52,0,0,0,3.54-17.7,179.27,179.27,0,0,0,1.56-19,174.76,174.76,0,0,0-1.06-25.3C219.78,755.7,217.59,745.13,216.92,744.16Z"/><path class="cls-21" d="M217,744.41c-1.85-2.74-6.62,9.47-8.91,28.35-.26,1.41-.49,2.72-.68,4a105.5,105.5,0,0,0-1.13,13.87c-.23,8.33-.26,18.18-.19,31.25.51-.1,1.14.66,2.56,1.07s3.8.48,7.66-1.2a129.39,129.39,0,0,0,3.5-17.48,175.62,175.62,0,0,0,1.54-18.83,174.7,174.7,0,0,0-1-25.11C219.79,755.85,217.64,745.41,217,744.41Z"/><path class="cls-23" d="M217,744.66c-1.82-2.8-6.54,9.33-8.81,28-.25,1.39-.48,2.7-.67,3.95a105.54,105.54,0,0,0-1.12,13.75c-.25,8.34-.29,18.15-.22,31,.5-.09,1.13.66,2.53,1.06s3.75.47,7.57-1.19A130.37,130.37,0,0,0,219.75,804a176.83,176.83,0,0,0,1.53-18.59,173.23,173.23,0,0,0-1-24.92C219.79,756,217.7,745.7,217,744.66Z"/><path class="cls-23" d="M217.07,744.9c-1.79-2.86-6.45,9.19-8.71,27.73-.25,1.38-.47,2.68-.66,3.92a105.45,105.45,0,0,0-1.11,13.63c-.26,8.35-.32,18.11-.25,30.68.5-.1,1.11.64,2.5,1s3.7.47,7.47-1.17a127.38,127.38,0,0,0,3.4-17.06,175.4,175.4,0,0,0,1.53-18.37,174.6,174.6,0,0,0-.94-24.72C219.8,756.15,217.75,746,217.07,744.9Z"/><path class="cls-24" d="M217.12,745.15c-1.76-2.92-6.37,9-8.6,27.42-.25,1.37-.47,2.65-.66,3.88A107.19,107.19,0,0,0,206.75,790c-.26,8.35-.34,18.08-.28,30.4.5-.1,1.11.63,2.48,1s3.66.46,7.38-1.16a128.4,128.4,0,0,0,3.35-16.85,171.27,171.27,0,0,0,1.51-18.14,173,173,0,0,0-.9-24.52C219.8,756.3,217.79,746.27,217.12,745.15Z"/><path class="cls-129" d="M217.17,745.4c-1.73-3-6.28,8.89-8.5,27.11-.24,1.35-.46,2.62-.64,3.84a105.27,105.27,0,0,0-1.11,13.38c-.28,8.37-.38,18.06-.31,30.12.49-.09,1.1.63,2.44,1s3.62.46,7.29-1.15a126.25,126.25,0,0,0,3.31-16.63,178.08,178.08,0,0,0,.64-42.24C219.81,756.45,217.84,746.56,217.17,745.4Z"/><path class="cls-27" d="M217.22,745.65c-1.71-3-6.2,8.74-8.39,26.79-.25,1.34-.46,2.6-.64,3.81a107.28,107.28,0,0,0-1.1,13.26c-.29,8.37-.41,18-.34,29.84.49-.09,1.08.61,2.41,1s3.57.45,7.2-1.14a127.37,127.37,0,0,0,3.26-16.42,174.48,174.48,0,0,0,1.49-17.68,172.91,172.91,0,0,0-.83-24.13C219.81,756.6,217.89,746.84,217.22,745.65Z"/><path class="cls-27" d="M217.27,745.89c-1.68-3.1-6.11,8.61-8.29,26.49-.24,1.32-.45,2.57-.63,3.78a109.11,109.11,0,0,0-1.1,13.13c-.29,8.38-.43,18-.36,29.56.48-.09,1.07.6,2.38,1s3.53.45,7.1-1.13a124.67,124.67,0,0,0,3.22-16.21A170.25,170.25,0,0,0,221.06,785a173.09,173.09,0,0,0-.78-23.95C219.82,756.75,217.94,747.13,217.27,745.89Z"/><path class="cls-28" d="M217.32,746.14c-1.65-3.16-6,8.46-8.19,26.18-.23,1.31-.44,2.55-.62,3.74a109.18,109.18,0,0,0-1.09,13c-.31,8.4-.46,18-.39,29.28.47-.09,1.06.6,2.35,1s3.48.44,7-1.12a124.2,124.2,0,0,0,3.17-16A172,172,0,0,0,221,785a173,173,0,0,0-.74-23.75C219.82,756.9,218,747.42,217.32,746.14Z"/><path class="cls-130" d="M217.37,746.39c-1.63-3.22-5.94,8.31-8.08,25.86-.24,1.3-.44,2.53-.62,3.71a109.27,109.27,0,0,0-1.08,12.88c-.32,8.4-.49,17.94-.42,29,.46-.09,1,.58,2.31.95s3.44.43,6.92-1.11a124.13,124.13,0,0,0,3.13-15.79,167.72,167.72,0,0,0,1.44-17,170,170,0,0,0-.7-23.56C219.83,757.05,218,747.7,217.37,746.39Z"/><path class="cls-131" d="M217.42,746.63c-1.6-3.28-5.86,8.17-8,25.56-.23,1.28-.43,2.5-.61,3.67a109.37,109.37,0,0,0-1.07,12.76c-.34,8.41-.52,17.91-.46,28.72.47-.09,1,.57,2.29.93s3.4.43,6.83-1.1a122.75,122.75,0,0,0,3.08-15.57c.66-4.8,1.2-10.48,1.43-16.76a171.49,171.49,0,0,0-.66-23.36C219.83,757.2,218.08,748,217.42,746.63Z"/><path class="cls-30" d="M217.47,746.88c-1.58-3.34-5.77,8-7.88,25.25-.22,1.27-.42,2.47-.59,3.63a109.67,109.67,0,0,0-1.08,12.63c-.34,8.43-.54,17.89-.48,28.44.46-.08,1,.57,2.26.92s3.35.42,6.73-1.09a121.82,121.82,0,0,0,3-15.36c.66-4.73,1.19-10.34,1.43-16.53a170,170,0,0,0-.63-23.16C219.84,757.35,218.13,748.28,217.47,746.88Z"/><path class="cls-32" d="M217.52,747.13c-1.56-3.4-5.69,7.88-7.77,24.93-.23,1.26-.42,2.45-.59,3.6a109.83,109.83,0,0,0-1.07,12.51c-.35,8.43-.57,17.86-.51,28.16.45-.08,1,.55,2.23.9s3.3.42,6.64-1.07a121.42,121.42,0,0,0,3-15.15c.65-4.67,1.18-10.2,1.41-16.3a170,170,0,0,0-.58-23C219.85,757.49,218.18,748.56,217.52,747.13Z"/><path class="cls-132" d="M217.57,747.37C216,743.91,212,755.11,209.9,772c-.22,1.24-.41,2.42-.58,3.56A110.22,110.22,0,0,0,208.26,788c-.37,8.44-.6,17.82-.54,27.88.44-.09,1,.54,2.19.88s3.27.41,6.55-1.06a118.66,118.66,0,0,0,2.94-14.94c.64-4.6,1.16-10.05,1.4-16.07a170.13,170.13,0,0,0-.55-22.77C219.85,757.64,218.23,748.85,217.57,747.37Z"/><path class="cls-33" d="M217.62,747.62c-1.51-3.52-5.52,7.59-7.56,24.32-.22,1.23-.41,2.39-.58,3.52a113.12,113.12,0,0,0-1.06,12.26c-.37,8.46-.62,17.8-.56,27.6.44-.08,1,.54,2.16.87s3.22.41,6.46-1.05a120.11,120.11,0,0,0,2.89-14.72c.63-4.54,1.15-9.91,1.39-15.84a170.52,170.52,0,0,0-.51-22.59C219.86,757.79,218.27,749.14,217.62,747.62Z"/><path class="cls-133" d="M217.67,747.87c-1.49-3.59-5.44,7.44-7.46,24-.21,1.22-.4,2.38-.57,3.49a113.22,113.22,0,0,0-1,12.14c-.39,8.46-.65,17.77-.59,27.32.43-.08,1,.52,2.13.85s3.17.41,6.36-1a117.84,117.84,0,0,0,2.85-14.51c.62-4.47,1.13-9.77,1.37-15.61a170.51,170.51,0,0,0-.46-22.39C219.86,757.94,218.32,749.42,217.67,747.87Z"/><path class="cls-36" d="M217.72,748.11c-1.47-3.64-5.35,7.31-7.36,23.7-.21,1.2-.39,2.35-.56,3.46a113.39,113.39,0,0,0-1,12c-.4,8.47-.68,17.74-.63,27,.43-.08,1,.51,2.11.83s3.13.4,6.27-1a118.83,118.83,0,0,0,2.8-14.3c.61-4.4,1.11-9.62,1.36-15.37a169.12,169.12,0,0,0-.43-22.2C219.87,758.09,218.36,749.71,217.72,748.11Z"/><path class="cls-134" d="M217.77,748.36c-1.44-3.71-5.27,7.16-7.25,23.39-.21,1.19-.39,2.32-.56,3.42a116.53,116.53,0,0,0-1,11.89c-.4,8.47-.7,17.71-.65,26.75.43-.07.95.51,2.07.83s3.09.39,6.18-1a117.09,117.09,0,0,0,2.76-14.09c.6-4.34,1.1-9.48,1.35-15.15a171,171,0,0,0-.39-22C219.87,758.24,218.41,750,217.77,748.36Z"/><path class="cls-37" d="M217.82,748.61c-1.42-3.77-5.18,7-7.15,23.07-.2,1.18-.38,2.3-.54,3.39a114.47,114.47,0,0,0-1,11.76c-.42,8.49-.73,17.69-.68,26.48.42-.08.94.49,2,.81s3,.38,6.09-1a115.25,115.25,0,0,0,2.7-13.88c.6-4.27,1.09-9.33,1.34-14.91a167.79,167.79,0,0,0-.35-21.81C219.88,758.39,218.46,750.28,217.82,748.61Z"/><path class="cls-38" d="M217.87,748.85c-1.4-3.83-5.1,6.87-7.05,22.77-.2,1.16-.37,2.27-.53,3.35a115,115,0,0,0-1,11.64c-.43,8.5-.76,17.65-.71,26.2.41-.08.93.48,2,.79s3,.38,6-1a114.93,114.93,0,0,0,2.66-13.66c.59-4.21,1.08-9.19,1.33-14.69a167.94,167.94,0,0,0-.31-21.61A93.62,93.62,0,0,0,217.87,748.85Z"/><path class="cls-39" d="M217.92,749.1c-1.38-3.89-5,6.73-6.94,22.45-.2,1.15-.37,2.25-.53,3.32-.58,3.94-.81,7.38-1,11.52-.44,8.5-.78,17.62-.73,25.91.4-.07.91.48,2,.78s3,.37,5.9-1a114.12,114.12,0,0,0,2.61-13.45c.58-4.14,1.06-9,1.32-14.46a168.43,168.43,0,0,0-.28-21.42A92.91,92.91,0,0,0,217.92,749.1Z"/><path class="cls-41" d="M218,749.35c-1.36-4-4.93,6.58-6.84,22.14-.19,1.14-.37,2.22-.52,3.28-.57,3.9-.8,7.31-1,11.39-.45,8.52-.81,17.6-.76,25.64.4-.07.9.46,1.94.76s2.91.37,5.81-1a114.46,114.46,0,0,0,2.57-13.23c.57-4.08,1-8.91,1.3-14.23a166.88,166.88,0,0,0-.23-21.23A93,93,0,0,0,218,749.35Z"/><path class="cls-135" d="M218,749.6c-1.34-4-4.84,6.43-6.74,21.83q-.28,1.68-.51,3.24c-.56,3.85-.79,7.24-1,11.27-.47,8.53-.84,17.57-.8,25.36.4-.08.89.45,1.92.74s2.87.37,5.72-1a113.65,113.65,0,0,0,2.52-13c.56-4,1-8.76,1.29-14a167.23,167.23,0,0,0-.2-21A92.19,92.19,0,0,0,218,749.6Z"/><path class="cls-42" d="M218.07,749.84c-1.32-4.08-4.76,6.29-6.63,21.52q-.28,1.67-.51,3.21c-.55,3.81-.78,7.17-1,11.15-.47,8.53-.86,17.54-.82,25.08.39-.08.88.44,1.89.72s2.82.36,5.62-.95a111.36,111.36,0,0,0,2.48-12.81c.55-4,1-8.62,1.28-13.77a167.69,167.69,0,0,0-.16-20.84A92.93,92.93,0,0,0,218.07,749.84Z"/><path class="cls-44" d="M218.12,750.09c-1.3-4.15-4.67,6.14-6.53,21.21-.18,1.1-.35,2.15-.49,3.17-.55,3.76-.78,7.1-1,11-.49,8.55-.89,17.51-.85,24.8.38-.07.87.43,1.86.71s2.77.36,5.53-.94a113.44,113.44,0,0,0,2.43-12.6c.54-3.88,1-8.48,1.26-13.54a166,166,0,0,0-.11-20.64A94.51,94.51,0,0,0,218.12,750.09Z"/><path class="cls-136" d="M218.17,750.34c-1.28-4.22-4.59,6-6.42,20.9-.19,1.08-.35,2.12-.49,3.13-.54,3.72-.78,7-1,10.9-.51,8.56-.92,17.48-.88,24.52.38-.07.85.42,1.82.69s2.74.35,5.44-.93A110,110,0,0,0,219,797.17c.54-3.82,1-8.34,1.26-13.31a164.64,164.64,0,0,0-.08-20.45A91.87,91.87,0,0,0,218.17,750.34Z"/><path class="cls-46" d="M218.22,750.58c-1.26-4.27-4.5,5.86-6.32,20.59-.18,1.07-.34,2.1-.48,3.11-.53,3.66-.77,6.94-1,10.77-.51,8.56-.94,17.45-.9,24.24.37-.07.84.41,1.79.68s2.69.34,5.34-.93A109.83,109.83,0,0,0,219,796.87c.53-3.75,1-8.19,1.25-13.08a167.19,167.19,0,0,0,0-20.26A92.42,92.42,0,0,0,218.22,750.58Z"/><path class="cls-46" d="M218.27,750.83c-1.24-4.34-4.42,5.71-6.22,20.28-.17,1.06-.33,2.07-.47,3.07-.52,3.62-.76,6.87-1,10.64-.53,8.58-1,17.43-.93,24,.36-.07.83.4,1.76.67s2.64.33,5.25-.91a109.76,109.76,0,0,0,2.29-12c.52-3.68,1-8,1.23-12.85a163.58,163.58,0,0,0,0-20.06A91.42,91.42,0,0,0,218.27,750.83Z"/><path class="cls-47" d="M218.32,751.08c-1.22-4.41-4.33,5.56-6.11,20-.17,1-.33,2-.47,3-.51,3.58-.75,6.8-1,10.52-.54,8.58-1,17.4-1,23.68.37-.07.82.39,1.74.65s2.6.33,5.15-.9a107.44,107.44,0,0,0,2.25-11.75c.51-3.62.95-7.91,1.22-12.62a166.24,166.24,0,0,0,0-19.87A91.69,91.69,0,0,0,218.32,751.08Z"/><path class="cls-48" d="M218.37,751.32c-1.21-4.47-4.25,5.43-6,19.66-.17,1-.32,2-.46,3-.5,3.53-.74,6.73-1,10.4-.55,8.59-1,17.36-1,23.4.36-.07.81.38,1.7.63s2.56.33,5.07-.89A109.27,109.27,0,0,0,218.9,796c.5-3.55.93-7.76,1.21-12.39a166.87,166.87,0,0,0,.07-19.67A90.78,90.78,0,0,0,218.37,751.32Z"/><path class="cls-137" d="M218.42,751.57c-1.19-4.54-4.17,5.28-5.91,19.35-.16,1-.31,2-.44,3-.5,3.49-.74,6.65-1,10.28-.57,8.6-1.05,17.33-1,23.11.35-.06.8.37,1.67.62s2.51.32,5-.88a106.93,106.93,0,0,0,2.16-11.32c.49-3.49.92-7.62,1.19-12.16a163.25,163.25,0,0,0,.12-19.48A91,91,0,0,0,218.42,751.57Z"/><path class="cls-49" d="M218.47,751.82c-1.17-4.6-4.08,5.13-5.8,19-.16,1-.31,2-.44,2.92-.49,3.44-.73,6.58-1,10.15-.58,8.61-1.08,17.31-1,22.84.34-.06.78.36,1.64.6s2.47.32,4.88-.87a109.79,109.79,0,0,0,2.11-11.11c.48-3.42.9-7.47,1.18-11.93a163.81,163.81,0,0,0,.16-19.28A91,91,0,0,0,218.47,751.82Z"/><path class="cls-50" d="M218.52,752.06c-1.15-4.66-4,5-5.7,18.73-.16,1-.3,2-.43,2.89-.48,3.4-.72,6.51-1,10-.59,8.62-1.1,17.28-1.07,22.56.34-.07.77.35,1.61.58s2.42.31,4.78-.85a105.94,105.94,0,0,0,2.06-10.9c.48-3.36.89-7.33,1.17-11.7a162.46,162.46,0,0,0,.2-19.09A91.8,91.8,0,0,0,218.52,752.06Z"/><path class="cls-51" d="M218.57,752.31c-1.13-4.73-3.91,4.84-5.6,18.42-.15,1-.29,1.92-.42,2.85-.47,3.35-.71,6.44-1,9.91-.61,8.63-1.13,17.25-1.1,22.27.33-.06.75.34,1.57.57s2.38.31,4.7-.84a105.52,105.52,0,0,0,2-10.69c.47-3.29.88-7.19,1.16-11.47a163.22,163.22,0,0,0,.24-18.9A90.4,90.4,0,0,0,218.57,752.31Z"/><path class="cls-52" d="M218.62,752.56c-1.11-4.8-3.83,4.7-5.49,18.11-.15,1-.29,1.89-.42,2.81-.46,3.31-.71,6.36-1,9.78-.63,8.64-1.16,17.23-1.14,22,.33-.06.75.33,1.55.55s2.34.3,4.6-.83c0,0,1-4.06,2-10.47.46-3.23.86-7,1.15-11.25a161.75,161.75,0,0,0,.27-18.7A88.86,88.86,0,0,0,218.62,752.56Z"/><path class="cls-54" d="M218.68,752.81c-1.11-4.87-3.75,4.55-5.4,17.79-.15.95-.28,1.88-.41,2.78-.45,3.27-.7,6.29-1,9.66-.63,8.65-1.18,17.19-1.16,21.72.33-.06.74.32,1.52.53s2.29.3,4.51-.82c0,0,1-4,1.92-10.26.45-3.16.85-6.9,1.13-11a160.29,160.29,0,0,0,.32-18.51A92.55,92.55,0,0,0,218.68,752.81Z"/><path class="cls-54" d="M218.73,753.05c-1.09-4.93-3.67,4.41-5.29,17.49-.15.93-.28,1.85-.41,2.75-.44,3.21-.69,6.21-.94,9.53-.65,8.65-1.21,17.16-1.19,21.43.32-.06.72.31,1.49.53s2.24.29,4.41-.81c0,0,1-3.9,1.88-10.06.44-3.09.84-6.75,1.12-10.78a161.12,161.12,0,0,0,.35-18.31A89.53,89.53,0,0,0,218.73,753.05Z"/><path class="cls-55" d="M218.78,753.3c-1.07-5-3.58,4.26-5.19,17.18-.14.92-.27,1.82-.39,2.71-.44,3.17-.69,6.14-.94,9.4-.67,8.67-1.24,17.14-1.22,21.16.31-.06.71.3,1.45.51s2.21.28,4.33-.8c0,0,1-3.82,1.83-9.84.43-3,.82-6.62,1.11-10.55a162.18,162.18,0,0,0,.39-18.12A89.36,89.36,0,0,0,218.78,753.3Z"/><path class="cls-56" d="M218.83,753.55c-1.05-5.07-3.5,4.12-5.09,16.86-.14.91-.26,1.8-.38,2.68-.43,3.12-.68,6.07-.94,9.28-.68,8.68-1.26,17.11-1.24,20.88.3-.06.7.29,1.42.49s2.16.28,4.23-.79c0,0,.94-3.73,1.79-9.63.42-3,.81-6.47,1.09-10.32a158.29,158.29,0,0,0,.43-17.92A89.33,89.33,0,0,0,218.83,753.55Z"/><path class="cls-138" d="M218.88,753.79c-1-5.13-3.41,4-5,16.56-.14.89-.26,1.77-.38,2.64-.42,3.08-.67,6-.93,9.16-.7,8.68-1.29,17.08-1.27,20.59.3,0,.68.28,1.39.48s2.11.27,4.14-.78c0,0,.9-3.65,1.74-9.41.41-2.9.79-6.33,1.08-10.09a159.45,159.45,0,0,0,.47-17.74A87.94,87.94,0,0,0,218.88,753.79Z"/><path class="cls-58" d="M218.93,754c-1-5.2-3.33,3.83-4.88,16.25-.13.88-.25,1.74-.37,2.6-.41,3-.67,5.92-.92,9-.72,8.7-1.32,17.05-1.31,20.32.3,0,.68.27,1.37.46s2.07.27,4-.77c0,0,.88-3.57,1.69-9.2.41-2.83.79-6.18,1.08-9.86a160.41,160.41,0,0,0,.51-17.54A87.65,87.65,0,0,0,218.93,754Z"/><path class="cls-59" d="M219,754.29c-1-5.27-3.24,3.68-4.78,15.93-.12.87-.24,1.72-.36,2.57-.4,3-.66,5.85-.91,8.91-.74,8.7-1.36,17-1.34,20,.29-.06.67.26,1.33.44a5.29,5.29,0,0,0,4-.75s.84-3.49,1.64-9c.4-2.77.77-6,1.06-9.63a156.71,156.71,0,0,0,.55-17.35A87.67,87.67,0,0,0,219,754.29Z"/><path class="cls-60" d="M219,754.53c-1-5.33-3.16,3.54-4.67,15.63-.13.85-.25,1.7-.36,2.53-.39,2.95-.65,5.78-.91,8.79-.75,8.71-1.38,17-1.36,19.76.28-.06.65.24,1.3.42a5.07,5.07,0,0,0,3.86-.74s.82-3.41,1.6-8.78c.39-2.7.76-5.9,1-9.4a157.72,157.72,0,0,0,.59-17.15A86,86,0,0,0,219,754.53Z"/><path class="cls-61" d="M219.08,754.78c-1-5.4-3.07,3.4-4.57,15.32-.12.84-.24,1.67-.34,2.49-.39,2.9-.65,5.71-.91,8.66-.77,8.73-1.41,17-1.39,19.48.28-.05.64.24,1.27.41a4.93,4.93,0,0,0,3.77-.73s.78-3.33,1.55-8.56c.38-2.64.74-5.76,1-9.18a158.82,158.82,0,0,0,.62-16.95A84,84,0,0,0,219.08,754.78Z"/><path class="cls-139" d="M219.13,755c-.95-5.47-3,3.25-4.46,15-.12.83-.24,1.65-.34,2.46-.38,2.86-.64,5.63-.9,8.54-.79,8.73-1.44,16.94-1.42,19.2.27-.05.62.23,1.24.39a4.76,4.76,0,0,0,3.67-.72s.76-3.25,1.51-8.35c.37-2.57.73-5.61,1-8.94a155,155,0,0,0,.67-16.76A85.43,85.43,0,0,0,219.13,755Z"/><path class="cls-63" d="M219.18,755.27c-.93-5.53-2.9,3.11-4.36,14.7q-.18,1.21-.33,2.43c-.37,2.8-.64,5.55-.9,8.41-.8,8.74-1.46,16.91-1.44,18.92.26-.05.61.21,1.2.38a4.65,4.65,0,0,0,3.59-.72s.73-3.16,1.46-8.14c.36-2.5.72-5.46,1-8.71a153.7,153.7,0,0,0,.7-16.57A83.51,83.51,0,0,0,219.18,755.27Z"/><path class="cls-64" d="M219.23,755.52c-.91-5.6-2.82,3-4.26,14.39-.11.8-.22,1.59-.32,2.39-.36,2.76-.63,5.48-.89,8.29-.82,8.74-1.49,16.87-1.48,18.63.27-.05.61.21,1.18.37a4.55,4.55,0,0,0,3.49-.7s.7-3.09,1.42-7.93c.35-2.44.7-5.32,1-8.48a157.92,157.92,0,0,0,.74-16.38A81.26,81.26,0,0,0,219.23,755.52Z"/><path class="cls-65" d="M219.28,755.77c-.89-5.67-2.74,2.82-4.15,14.07-.11.79-.22,1.57-.32,2.36-.35,2.72-.62,5.41-.88,8.16-.84,8.76-1.52,16.85-1.51,18.36.26-.05.59.2,1.15.35a4.37,4.37,0,0,0,3.4-.69s.67-3,1.36-7.72c.35-2.37.7-5.18,1-8.25a153.56,153.56,0,0,0,.79-16.18A80.57,80.57,0,0,0,219.28,755.77Z"/><path class="cls-66" d="M219.33,756c-.88-5.73-2.65,2.68-4.05,13.77-.11.77-.21,1.54-.31,2.32-.34,2.67-.61,5.33-.88,8-.86,8.76-1.54,16.82-1.53,18.08.25-.05.58.18,1.12.33a4.24,4.24,0,0,0,3.3-.68s.64-2.92,1.32-7.5c.34-2.31.68-5,1-8a152.58,152.58,0,0,0,.82-16A80.36,80.36,0,0,0,219.33,756Z"/><path class="cls-66" d="M219.38,756.26c-.86-5.8-2.57,2.53-3.95,13.46-.1.75-.2,1.52-.29,2.28-.34,2.63-.61,5.26-.88,7.92-.88,8.77-1.57,16.79-1.56,17.79.24,0,.57.18,1.08.32a4.07,4.07,0,0,0,3.22-.67s.61-2.84,1.27-7.29c.33-2.24.67-4.89,1-7.79a153.81,153.81,0,0,0,.86-15.79A79.55,79.55,0,0,0,219.38,756.26Z"/><path class="cls-67" d="M219.43,756.51c-.84-5.87-2.48,2.38-3.84,13.14-.1.75-.2,1.5-.29,2.25-.33,2.58-.61,5.19-.87,7.79-.9,8.78-1.6,16.77-1.59,17.52.24-.05.55.17,1,.3a3.87,3.87,0,0,0,3.12-.66s.59-2.76,1.23-7.07c.32-2.18.66-4.75.95-7.57a147.11,147.11,0,0,0,.9-15.59A75.3,75.3,0,0,0,219.43,756.51Z"/><path class="cls-68" d="M219.48,756.76c-.83-6-2.4,2.23-3.74,12.83-.1.73-.19,1.47-.28,2.21-.32,2.54-.6,5.12-.87,7.67-.92,8.79-1.62,16.73-1.62,17.24.24-.05.55.15,1,.28a3.8,3.8,0,0,0,3-.64s.55-2.68,1.18-6.87c.31-2.11.65-4.6.94-7.33a145.92,145.92,0,0,0,.94-15.4A74.35,74.35,0,0,0,219.48,756.76Z"/><path class="cls-69" d="M219.53,757c-.82-6-2.31,2.1-3.64,12.53-.09.71-.18,1.44-.27,2.17-.31,2.49-.6,5-.86,7.55-.95,8.79-1.65,16.7-1.65,17,.23,0,.54.15,1,.27a3.59,3.59,0,0,0,2.93-.63s.53-2.6,1.14-6.65c.3-2.05.63-4.47.93-7.11a144.65,144.65,0,0,0,1-15.21A73.69,73.69,0,0,0,219.53,757Z"/><path class="cls-70" d="M217.06,795.33s1.12-5.7,2-13.31,1.51-17.13.52-24.77c-.85-6.5-2.43,3.12-3.8,14.35s-2.53,24.1-2.53,24.1C213.78,795.6,214.73,796.75,217.06,795.33Z"/></g><g id="Pink_Detail" data-name="Pink Detail"><ellipse class="cls-140" cx="206.85" cy="819.61" rx="0.58" ry="0.71"/><ellipse class="cls-140" cx="211.49" cy="823.96" rx="0.58" ry="0.52"/><ellipse class="cls-140" cx="206.56" cy="825.34" rx="0.58" ry="0.52"/><ellipse class="cls-140" cx="215.66" cy="788.88" rx="0.58" ry="0.52"/><ellipse class="cls-140" cx="207.55" cy="798.51" rx="0.58" ry="0.52"/><ellipse class="cls-140" cx="211.02" cy="799.21" rx="0.58" ry="0.52"/><ellipse class="cls-140" cx="219.72" cy="773.75" rx="0.58" ry="0.52"/><ellipse class="cls-140" cx="218.32" cy="778.57" rx="0.58" ry="0.52"/><ellipse class="cls-140" cx="214.27" cy="786.82" rx="0.58" ry="0.52"/><ellipse class="cls-140" cx="219.38" cy="786.82" rx="0.58" ry="0.52"/><ellipse class="cls-140" cx="214.74" cy="798.51" rx="0.58" ry="0.52"/><ellipse class="cls-140" cx="210.09" cy="803.05" rx="0.58" ry="0.52"/><ellipse class="cls-140" cx="203.71" cy="809.11" rx="0.58" ry="0.52"/><ellipse class="cls-140" cx="200.81" cy="802" rx="0.58" ry="0.52"/><ellipse class="cls-140" cx="201.27" cy="803.91" rx="0.58" ry="0.52"/><ellipse class="cls-140" cx="203.02" cy="801.91" rx="0.58" ry="0.52"/><ellipse class="cls-140" cx="208.7" cy="784.2" rx="0.58" ry="0.52"/><ellipse class="cls-140" cx="198.24" cy="810.66" rx="0.58" ry="0.52"/><ellipse class="cls-140" cx="199.42" cy="817.49" rx="0.58" ry="0.52"/><ellipse class="cls-140" cx="204.53" cy="806.54" rx="0.58" ry="0.52"/><ellipse class="cls-140" cx="218.45" cy="813.09" rx="0.58" ry="0.52"/><ellipse class="cls-140" cx="218.45" cy="813.09" rx="0.58" ry="0.52"/><ellipse class="cls-140" cx="208.7" cy="817.22" rx="0.58" ry="0.52"/><ellipse class="cls-140" cx="213.34" cy="798.92" rx="0.58" ry="0.52"/><ellipse class="cls-140" cx="213.34" cy="816.81" rx="0.58" ry="0.52"/><ellipse class="cls-140" cx="199.42" cy="794.13" rx="0.58" ry="0.52"/><ellipse class="cls-140" cx="204.06" cy="786.68" rx="0.58" ry="0.52"/><ellipse class="cls-140" cx="208.7" cy="778.02" rx="0.58" ry="0.52"/><ellipse class="cls-140" cx="204.06" cy="773.89" rx="0.58" ry="0.52"/><ellipse class="cls-140" cx="199.42" cy="780.52" rx="0.58" ry="0.52"/><ellipse class="cls-140" cx="199.42" cy="767.29" rx="0.58" ry="0.52"/><ellipse class="cls-140" cx="197.1" cy="791.6" rx="0.58" ry="0.52"/><ellipse class="cls-140" cx="202.33" cy="790.01" rx="0.58" ry="0.52"/><ellipse class="cls-140" cx="213.93" cy="790.54" rx="0.58" ry="0.52"/><ellipse class="cls-140" cx="216.59" cy="787.64" rx="0.58" ry="0.52"/><ellipse class="cls-140" cx="214.6" cy="781.45" rx="0.58" ry="0.52"/><ellipse class="cls-140" cx="210.56" cy="809.52" rx="0.58" ry="0.52"/><ellipse class="cls-140" cx="219.84" cy="798.51" rx="0.58" ry="0.52"/><ellipse class="cls-140" cx="217.87" cy="771.69" rx="0.58" ry="0.52"/><ellipse class="cls-140" cx="209.17" cy="756.98" rx="0.58" ry="0.52"/><ellipse class="cls-140" cx="212.42" cy="748.74" rx="0.58" ry="0.52"/><ellipse class="cls-140" cx="201.28" cy="761.11" rx="0.58" ry="0.52"/><ellipse class="cls-140" cx="214.27" cy="768.94" rx="0.58" ry="0.52"/><ellipse class="cls-140" cx="219.84" cy="760.7" rx="0.58" ry="0.52"/><ellipse class="cls-140" cx="200.81" cy="746.68" rx="0.58" ry="0.52"/><ellipse class="cls-140" cx="207.77" cy="733.48" rx="0.58" ry="0.52"/></g></svg>