<svg xmlns="http://www.w3.org/2000/svg" viewBox="0 0 432 846"><defs><style>.cls-1{fill:#be1e2d;}.cls-2{fill:#231f20;}.cls-3{fill:#242122;}.cls-4{fill:#262223;}.cls-5{fill:#272425;}.cls-6{fill:#282526;}.cls-7{fill:#292627;}.cls-8{fill:#2b2829;}.cls-9{fill:#2c292a;}.cls-10{fill:#2d2b2c;}.cls-11{fill:#2e2c2d;}.cls-12{fill:#2f2d2f;}.cls-13{fill:#312f30;}.cls-14{fill:#323031;}.cls-15{fill:#333133;}.cls-16{fill:#343334;}.cls-17{fill:#353435;}.cls-18{fill:#363537;}.cls-19{fill:#383638;}.cls-20{fill:#393839;}.cls-21{fill:#3a393a;}.cls-22{fill:#3b3a3c;}.cls-23{fill:#3c3b3d;}.cls-24{fill:#3d3c3e;}.cls-25{fill:#3e3d3f;}.cls-26{fill:#3f3e40;}.cls-27{fill:#404041;}.cls-28{fill:#414142;}.cls-29{fill:#424243;}.cls-30{fill:#434344;}.cls-31{fill:#444445;}.cls-32{fill:#454546;}.cls-33{fill:#464647;}.cls-34{fill:#474749;}.cls-35{fill:#48484a;}.cls-36{fill:#49494b;}.cls-37{fill:#4a4a4c;}.cls-38{fill:#4a4b4d;}.cls-39{fill:#4b4c4d;}.cls-40{fill:#4c4d4e;}.cls-41{fill:#4d4d4f;}.cls-42{fill:#4e4e50;}.cls-43{fill:#4f4f51;}.cls-44{fill:#505052;}.cls-45{fill:#515153;}.cls-46{fill:#525254;}.cls-47{fill:#535355;}.cls-48{fill:#535456;}.cls-49{fill:#545557;}.cls-50{fill:#555658;}.cls-51{fill:#565759;}.cls-52{fill:#57585a;}.cls-53{fill:#58595b;}.cls-54{fill:#59595c;}.cls-55{fill:#595a5d;}.cls-56{fill:#5a5b5e;}.cls-57{fill:#5b5c5e;}.cls-58{fill:#5c5d5f;}.cls-59{fill:#5d5e60;}.cls-60{fill:#5e5f61;}.cls-61{fill:#5f6062;}.cls-62{fill:#5f6063;}.cls-63{fill:#606164;}.cls-64{fill:#616264;}.cls-65{fill:#626365;}.cls-66{fill:#636466;}.cls-67{fill:#646567;}.cls-68{fill:#646668;}.cls-69{fill:#656669;}.cls-70{fill:#66676a;}.cls-71{fill:#67686a;}.cls-72{fill:#68696b;}.cls-73{fill:#686a6c;}.cls-74{fill:#696a6d;}.cls-75{fill:#6a6b6e;}.cls-76{fill:#6b6c6e;}.cls-77{fill:#6b6d6f;}.cls-78{fill:#6c6e70;}.cls-79{fill:#6d6e71;}</style></defs><g id="Green_Leaf" data-name="Green Leaf"><path class="cls-1" d="M218.61,394.23a1.53,1.53,0,0,0-1.92,0,28.59,28.59,0,0,0-7.67,18.9l0,1.9a41.2,41.2,0,0,0,16.8,0v-1.9A28.2,28.2,0,0,0,218.61,394.23Z"/><path class="cls-2" d="M219.1,413.85l6.7,1.18s-.06,3.57-.51,7.27-1.31,7.54-2.87,8.1a19.67,19.67,0,0,1-10,0c-1.57-.56-2.42-4.4-2.87-8.1S209,415,209,415l6.7-1.18,0-.59,1.68.29,1.68-.29Z"/><path class="cls-3" d="M209,414.85s6.65-1.23,6.67-1.25l0-.46V413l1.68.29s1.66-.28,1.67-.27l0,.59s6.64,1.2,6.66,1.23a70.92,70.92,0,0,1-.49,7.24,22.79,22.79,0,0,1-1.59,6.76,2.5,2.5,0,0,1-1.23,1.35,15,15,0,0,1-5,.65,20.42,20.42,0,0,1-2.64-.12,12,12,0,0,1-2.45-.53,2.51,2.51,0,0,1-1.23-1.34,23.58,23.58,0,0,1-1.59-6.77C209.08,418.41,209,414.87,209,414.85Z"/><path class="cls-4" d="M209.08,414.66c0-.07,6.61-1.27,6.64-1.31l0-.46v-.13s1.67.28,1.68.29,1.65-.27,1.66-.26l0,.59s6.59,1.23,6.61,1.28a66.85,66.85,0,0,1-.45,7.22,23.74,23.74,0,0,1-1.56,6.77A2.49,2.49,0,0,1,222.5,430a15.06,15.06,0,0,1-5.05.65,20.7,20.7,0,0,1-2.67-.11,12.35,12.35,0,0,1-2.48-.54,2.41,2.41,0,0,1-1.21-1.35,23.08,23.08,0,0,1-1.56-6.77A66.85,66.85,0,0,1,209.08,414.66Z"/><path class="cls-5" d="M209.12,414.48c.06-.12,6.56-1.33,6.61-1.38s0-.45,0-.45v-.13s1.66.27,1.68.28,1.64-.25,1.65-.24l0,.59c0,.05,6.53,1.24,6.57,1.33a64.66,64.66,0,0,1-.42,7.2,24,24,0,0,1-1.53,6.76,2.42,2.42,0,0,1-1.2,1.36,15.21,15.21,0,0,1-5.07.65,19.55,19.55,0,0,1-2.71-.11,11.33,11.33,0,0,1-2.51-.54,2.36,2.36,0,0,1-1.2-1.36,23.9,23.9,0,0,1-1.53-6.76A63.29,63.29,0,0,1,209.12,414.48Z"/><path class="cls-6" d="M209.16,414.29c.08-.15,6.52-1.37,6.58-1.44s0-.45,0-.45v-.13s1.66.26,1.68.28,1.63-.24,1.65-.22l0,.58c.06.07,6.47,1.27,6.52,1.38a60.06,60.06,0,0,1-.39,7.18,24.53,24.53,0,0,1-1.49,6.76,2.37,2.37,0,0,1-1.19,1.37,15.55,15.55,0,0,1-5.08.66,20.13,20.13,0,0,1-2.75-.12,12,12,0,0,1-2.55-.54,2.37,2.37,0,0,1-1.18-1.36,24.69,24.69,0,0,1-1.49-6.77A61.3,61.3,0,0,1,209.16,414.29Z"/><path class="cls-7" d="M209.2,414.11c.1-.19,6.47-1.43,6.54-1.51s0-.44,0-.45V412s1.67.25,1.69.28,1.61-.23,1.63-.2,0,.57,0,.58,6.41,1.29,6.47,1.43a57.15,57.15,0,0,1-.35,7.15A24.83,24.83,0,0,1,223.8,428a2.31,2.31,0,0,1-1.16,1.37,15.76,15.76,0,0,1-5.11.66,20.56,20.56,0,0,1-2.78-.12,11.69,11.69,0,0,1-2.58-.54A2.32,2.32,0,0,1,211,428a24.89,24.89,0,0,1-1.45-6.77A57.15,57.15,0,0,1,209.2,414.11Z"/><path class="cls-8" d="M209.24,413.93c.11-.23,6.43-1.48,6.51-1.58s0-.44,0-.45l0-.13a16.54,16.54,0,0,1,1.69.28s1.59-.22,1.62-.19,0,.57,0,.58,6.35,1.32,6.43,1.49a54.66,54.66,0,0,1-.33,7.13,25.12,25.12,0,0,1-1.43,6.76,2.3,2.3,0,0,1-1.15,1.38,16.1,16.1,0,0,1-5.12.66,21,21,0,0,1-2.82-.11,12.26,12.26,0,0,1-2.62-.55,2.26,2.26,0,0,1-1.14-1.38,25.12,25.12,0,0,1-1.43-6.76A54.7,54.7,0,0,1,209.24,413.93Z"/><path class="cls-9" d="M209.28,413.74c.13-.26,6.38-1.53,6.48-1.64s0-.44.05-.45v-.13a13.85,13.85,0,0,1,1.69.28s1.58-.21,1.61-.17,0,.56,0,.58,6.29,1.34,6.38,1.53a52.37,52.37,0,0,1-.29,7.11,25.68,25.68,0,0,1-1.4,6.76c-.34.8-.7,1.24-1.14,1.39a16.15,16.15,0,0,1-5.14.66,19.89,19.89,0,0,1-2.85-.11,12,12,0,0,1-2.65-.55c-.44-.15-.8-.59-1.13-1.39a25.32,25.32,0,0,1-1.39-6.76A51.49,51.49,0,0,1,209.28,413.74Z"/><path class="cls-10" d="M209.32,413.56c.15-.3,6.33-1.58,6.45-1.71s0-.44,0-.45v-.13a12.3,12.3,0,0,1,1.7.28s1.56-.2,1.6-.15,0,.56.06.57,6.22,1.37,6.33,1.59a49.34,49.34,0,0,1-.26,7.08,26.8,26.8,0,0,1-1.37,6.76c-.34.81-.69,1.25-1.12,1.4a16.65,16.65,0,0,1-5.16.67,22,22,0,0,1-2.89-.12,12.3,12.3,0,0,1-2.68-.55c-.43-.15-.79-.59-1.12-1.39a26.48,26.48,0,0,1-1.36-6.77A47.8,47.8,0,0,1,209.32,413.56Z"/><path class="cls-11" d="M209.36,413.37c.17-.34,6.29-1.62,6.42-1.77s0-.43.05-.45,0-.12,0-.12a9.75,9.75,0,0,1,1.69.27s1.56-.19,1.6-.13,0,.55.06.57,6.16,1.38,6.28,1.63a46.76,46.76,0,0,1-.23,7.06,26.3,26.3,0,0,1-1.34,6.77c-.33.82-.67,1.25-1.1,1.4a16.74,16.74,0,0,1-5.18.67,24.28,24.28,0,0,1-2.92-.11,12.88,12.88,0,0,1-2.72-.56c-.42-.15-.77-.58-1.1-1.4a26.79,26.79,0,0,1-1.32-6.77A45.39,45.39,0,0,1,209.36,413.37Z"/><path class="cls-12" d="M209.4,413.19c.19-.38,6.24-1.68,6.39-1.84s0-.43.05-.45a.5.5,0,0,0,0-.12,9,9,0,0,1,1.7.27s1.54-.17,1.58-.12.05.55.07.57,6.1,1.41,6.23,1.69a45.21,45.21,0,0,1-.19,7,26.92,26.92,0,0,1-1.31,6.76c-.32.84-.67,1.26-1.08,1.41a16.64,16.64,0,0,1-5.2.67,21.26,21.26,0,0,1-3-.11,12.54,12.54,0,0,1-2.75-.56c-.42-.15-.76-.57-1.08-1.41a27,27,0,0,1-1.3-6.76A43.93,43.93,0,0,1,209.4,413.19Z"/><path class="cls-13" d="M209.44,413c.21-.42,6.2-1.73,6.36-1.91,0,0,0-.43.06-.44a.51.51,0,0,1,0-.13,8.86,8.86,0,0,1,1.69.26c.05,0,1.53-.15,1.58-.09s0,.55.07.57c.14.18,6,1.43,6.19,1.74a43.57,43.57,0,0,1-.17,7,27.22,27.22,0,0,1-1.27,6.76c-.32.86-.66,1.28-1.07,1.42a16.66,16.66,0,0,1-5.21.67,21.78,21.78,0,0,1-3-.11,13.19,13.19,0,0,1-2.79-.56c-.41-.14-.74-.56-1.06-1.41a27.43,27.43,0,0,1-1.26-6.77A41.81,41.81,0,0,1,209.44,413Z"/><path class="cls-14" d="M209.48,412.82c.23-.45,6.15-1.78,6.33-2,0,0,0-.43.06-.44a.59.59,0,0,1,0-.13,8.23,8.23,0,0,1,1.7.26s1.51-.14,1.57-.07.05.54.07.56c.15.2,6,1.46,6.14,1.79a42.28,42.28,0,0,1-.13,7,28.06,28.06,0,0,1-1.24,6.77c-.32.87-.65,1.28-1.06,1.42a17.11,17.11,0,0,1-5.23.68,26,26,0,0,1-3-.11,13.54,13.54,0,0,1-2.82-.57c-.41-.14-.73-.55-1.05-1.42a27.65,27.65,0,0,1-1.22-6.77A40,40,0,0,1,209.48,412.82Z"/><path class="cls-15" d="M209.52,412.64c.25-.49,6.11-1.83,6.29-2,0,0,.06-.42.07-.44a.59.59,0,0,0,0-.13,7.69,7.69,0,0,1,1.71.26s1.49-.13,1.55-.05.06.53.08.56c.16.21,5.92,1.48,6.1,1.84a40.35,40.35,0,0,1-.1,7,28.86,28.86,0,0,1-1.21,6.77c-.32.89-.64,1.29-1,1.43a17.27,17.27,0,0,1-5.25.68,22.68,22.68,0,0,1-3.07-.11,13.2,13.2,0,0,1-2.85-.57c-.4-.14-.72-.54-1-1.43a28.93,28.93,0,0,1-1.19-6.77A38.87,38.87,0,0,1,209.52,412.64Z"/><path class="cls-16" d="M209.56,412.45c.27-.52,6.06-1.87,6.26-2.1,0,0,.06-.42.07-.44s0-.12,0-.13a7.07,7.07,0,0,1,1.7.26c0,.06,1.49-.12,1.55,0s.06.54.08.56c.17.23,5.86,1.5,6.05,1.89a38.81,38.81,0,0,1-.07,6.95,28.55,28.55,0,0,1-1.18,6.76c-.31.9-.62,1.3-1,1.44a17.36,17.36,0,0,1-5.27.68,23.12,23.12,0,0,1-3.1-.11,13.89,13.89,0,0,1-2.89-.57c-.39-.14-.7-.53-1-1.43a28.29,28.29,0,0,1-1.16-6.77A37.45,37.45,0,0,1,209.56,412.45Z"/><path class="cls-17" d="M209.6,412.27c.29-.57,6-1.93,6.23-2.17,0,0,.06-.42.08-.44a.43.43,0,0,1,0-.12,6.67,6.67,0,0,1,1.71.25c.05.06,1.47-.11,1.54,0s.06.53.08.55c.19.25,5.81,1.53,6,1.95a37.77,37.77,0,0,1,0,6.92,29.45,29.45,0,0,1-1.15,6.77c-.31.91-.62,1.31-1,1.44a17.52,17.52,0,0,1-5.29.68,22.08,22.08,0,0,1-3.14-.11,13.56,13.56,0,0,1-2.92-.57c-.39-.13-.69-.53-1-1.44a29.52,29.52,0,0,1-1.13-6.77A36.49,36.49,0,0,1,209.6,412.27Z"/><path class="cls-18" d="M209.64,412.09c.31-.61,6-2,6.2-2.24,0,0,.06-.42.08-.44s0-.12,0-.12a5.83,5.83,0,0,1,1.7.25c.06.06,1.46-.09,1.53,0s.06.52.09.55c.2.26,5.75,1.55,6,2a37.2,37.2,0,0,1,0,6.89,30.31,30.31,0,0,1-1.12,6.77c-.31.93-.61,1.32-1,1.45a18,18,0,0,1-5.31.69,26,26,0,0,1-3.17-.11,14.15,14.15,0,0,1-3-.58c-.38-.13-.68-.52-1-1.45a29.76,29.76,0,0,1-1.09-6.77A35.08,35.08,0,0,1,209.64,412.09Z"/><path class="cls-19" d="M209.68,411.9c.33-.64,5.92-2,6.17-2.3,0,0,.06-.41.08-.44s0-.11,0-.12a5.9,5.9,0,0,1,1.71.25c.06.07,1.44-.08,1.52,0s.06.52.09.55c.21.28,5.69,1.58,5.91,2a35,35,0,0,1,0,6.87,30.56,30.56,0,0,1-1.08,6.77c-.31.95-.6,1.33-1,1.46a18.06,18.06,0,0,1-5.32.69,24.66,24.66,0,0,1-3.21-.11,14,14,0,0,1-3-.58c-.37-.13-.67-.51-1-1.45a30.73,30.73,0,0,1-1.06-6.78A34.36,34.36,0,0,1,209.68,411.9Z"/><path class="cls-20" d="M209.72,411.72c.34-.68,5.88-2.08,6.14-2.37,0,0,.06-.41.09-.44a.6.6,0,0,1,0-.12,5.64,5.64,0,0,1,1.72.25c.06.07,1.42-.07,1.51,0s.06.52.09.55c.23.29,5.63,1.6,5.87,2.1a35.5,35.5,0,0,1,.06,6.85,30.34,30.34,0,0,1-1.06,6.77c-.3,1-.58,1.34-.95,1.47a18.55,18.55,0,0,1-5.34.68,23.49,23.49,0,0,1-3.25-.11,14.57,14.57,0,0,1-3-.57c-.37-.13-.66-.51-.95-1.47a30.45,30.45,0,0,1-1-6.77A33.24,33.24,0,0,1,209.72,411.72Z"/><path class="cls-21" d="M209.76,411.53c.36-.71,5.83-2.12,6.11-2.43,0,0,.06-.41.09-.44s0-.11,0-.12a5,5,0,0,1,1.71.25c.07.07,1.41-.06,1.5,0s.07.51.1.54c.24.31,5.57,1.62,5.82,2.15a33.53,33.53,0,0,1,.09,6.83,30.57,30.57,0,0,1-1,6.77c-.3,1-.58,1.35-.94,1.48a18.62,18.62,0,0,1-5.36.69,27.59,27.59,0,0,1-3.28-.11,15.2,15.2,0,0,1-3.06-.58c-.36-.13-.64-.5-.93-1.48a30.68,30.68,0,0,1-1-6.77A32.24,32.24,0,0,1,209.76,411.53Z"/><path class="cls-22" d="M209.8,411.35c.38-.76,5.78-2.18,6.08-2.5,0,0,.07-.41.09-.43s0-.12,0-.13a5.09,5.09,0,0,1,1.72.25c.07.07,1.4-.05,1.49.07s.07.5.1.54c.25.32,5.51,1.64,5.77,2.2a32.82,32.82,0,0,1,.13,6.8,31.48,31.48,0,0,1-1,6.77c-.29,1-.57,1.36-.92,1.49a19.2,19.2,0,0,1-5.38.69,26.19,26.19,0,0,1-3.32-.11,14.86,14.86,0,0,1-3.09-.58c-.36-.13-.63-.49-.92-1.49a41.17,41.17,0,0,1-.79-13.57Z"/><path class="cls-23" d="M209.84,411.17c.4-.8,5.74-2.23,6-2.57,0,0,.07-.4.09-.43s0-.12,0-.12a4.57,4.57,0,0,1,1.72.24c.08.08,1.39,0,1.48.08s.08.51.11.54c.26.35,5.45,1.67,5.73,2.26a41.45,41.45,0,0,1-.8,13.55c-.29,1-.56,1.36-.91,1.49a19.29,19.29,0,0,1-5.4.69,24.9,24.9,0,0,1-3.35-.11,15.66,15.66,0,0,1-3.13-.58c-.35-.13-.61-.48-.9-1.49a32,32,0,0,1-.92-6.77A30.65,30.65,0,0,1,209.84,411.17Z"/><path class="cls-24" d="M209.88,411c.42-.83,5.69-2.28,6-2.63,0,0,.08-.4.11-.43a.53.53,0,0,1,0-.12,4.4,4.4,0,0,1,1.72.23c.08.09,1.37,0,1.47.11s.08.5.11.54c.28.36,5.39,1.69,5.68,2.3a31,31,0,0,1,.19,6.76,32.78,32.78,0,0,1-.92,6.77c-.29,1-.55,1.38-.9,1.5a19.41,19.41,0,0,1-5.41.69,25.44,25.44,0,0,1-3.39-.11,15.47,15.47,0,0,1-3.16-.58c-.34-.12-.6-.47-.88-1.5a32.19,32.19,0,0,1-.9-6.77A29.65,29.65,0,0,1,209.88,411Z"/><path class="cls-25" d="M209.92,410.8c.44-.87,5.65-2.33,6-2.71,0,0,.08-.39.11-.42s0-.11,0-.12a4.37,4.37,0,0,1,1.72.23c.09.09,1.36,0,1.47.13s.08.49.11.53c.29.38,5.33,1.72,5.64,2.36a31.33,31.33,0,0,1,.22,6.73,32.37,32.37,0,0,1-.9,6.77c-.28,1-.53,1.39-.87,1.51a20,20,0,0,1-5.43.7,27.82,27.82,0,0,1-3.43-.11,15.67,15.67,0,0,1-3.19-.59c-.34-.12-.59-.47-.87-1.51a31.86,31.86,0,0,1-.86-6.77C209.53,414.32,209.67,411.27,209.92,410.8Z"/><path class="cls-26" d="M210,410.61c.46-.9,5.6-2.38,5.95-2.77,0,0,.08-.39.11-.42s0-.11,0-.12a4.22,4.22,0,0,1,1.72.23c.09.1,1.34,0,1.45.15s.08.48.12.53c.3.39,5.27,1.74,5.59,2.4a29.86,29.86,0,0,1,.25,6.71,33.29,33.29,0,0,1-.86,6.77c-.28,1.06-.53,1.4-.86,1.52a20,20,0,0,1-5.45.7,26.39,26.39,0,0,1-3.46-.11,16.52,16.52,0,0,1-3.23-.59c-.33-.12-.58-.46-.85-1.51a33.52,33.52,0,0,1-.83-6.78C209.55,414.13,209.7,411.11,210,410.61Z"/><path class="cls-27" d="M210,410.43c.48-.94,5.56-2.43,5.92-2.84,0,0,.08-.38.11-.42s0-.11,0-.12a4.1,4.1,0,0,1,1.73.23c.09.1,1.33,0,1.44.16s.08.49.12.53c.31.41,5.21,1.76,5.55,2.46a29.73,29.73,0,0,1,.28,6.69,33.69,33.69,0,0,1-.83,6.77c-.28,1.07-.52,1.4-.84,1.52a20.28,20.28,0,0,1-5.47.7,27,27,0,0,1-3.5-.11,16.18,16.18,0,0,1-3.26-.59c-.33-.12-.57-.45-.84-1.52a33.75,33.75,0,0,1-.79-6.77C209.57,414,209.73,411,210,410.43Z"/><path class="cls-28" d="M210,410.25c.5-1,5.51-2.48,5.89-2.91,0,0,.08-.38.12-.42s0-.11,0-.12a3.93,3.93,0,0,1,1.73.23c.1.1,1.32,0,1.44.18s.08.48.12.53c.33.42,5.15,1.78,5.5,2.51a28.62,28.62,0,0,1,.32,6.66,33.89,33.89,0,0,1-.8,6.77c-.27,1.09-.51,1.42-.83,1.53a20.37,20.37,0,0,1-5.49.7,27.44,27.44,0,0,1-3.53-.1,16.83,16.83,0,0,1-3.3-.6c-.31-.11-.55-.44-.81-1.53a33.32,33.32,0,0,1-.76-6.77C209.59,413.76,209.76,410.78,210,410.25Z"/><path class="cls-29" d="M210.08,410.06c.52-1,5.46-2.53,5.86-3,0,0,.08-.38.12-.42s0-.1,0-.11a3.67,3.67,0,0,1,1.73.22c.1.11,1.3,0,1.42.2s.09.47.13.52c.34.44,5.09,1.81,5.45,2.56a28,28,0,0,1,.35,6.64,34.09,34.09,0,0,1-.77,6.77c-.26,1.11-.49,1.43-.81,1.54a20.88,20.88,0,0,1-5.5.71,28,28,0,0,1-3.57-.11,16.65,16.65,0,0,1-3.33-.6c-.31-.11-.54-.43-.8-1.53a34.44,34.44,0,0,1-.73-6.78C209.61,413.58,209.79,410.62,210.08,410.06Z"/><path class="cls-30" d="M210.12,409.88c.54-1.06,5.42-2.58,5.83-3,0,0,.09-.38.12-.41s0-.11,0-.12a3.65,3.65,0,0,1,1.73.22c.1.11,1.29.06,1.42.22s.09.47.13.52c.35.45,5,1.83,5.41,2.61a28.46,28.46,0,0,1,.38,6.61,34.57,34.57,0,0,1-.74,6.78c-.26,1.12-.49,1.43-.79,1.54a21.09,21.09,0,0,1-5.53.71,28.46,28.46,0,0,1-3.6-.11,16.33,16.33,0,0,1-3.36-.6c-.31-.11-.53-.42-.79-1.54a34,34,0,0,1-.69-6.78C209.63,413.39,209.82,410.46,210.12,409.88Z"/><path class="cls-31" d="M210.16,409.69c.56-1.09,5.37-2.63,5.8-3.1,0,0,.09-.37.12-.41s0-.11,0-.12a3.43,3.43,0,0,1,1.73.22c.1.11,1.27.07,1.41.23s.09.47.13.52c.37.47,5,1.86,5.36,2.66.29.6.47,3.52.42,6.6a35.53,35.53,0,0,1-.71,6.77c-.26,1.14-.48,1.44-.78,1.55a20.8,20.8,0,0,1-5.54.71,29,29,0,0,1-3.64-.1,17,17,0,0,1-3.4-.61c-.3-.11-.52-.41-.77-1.55a35.72,35.72,0,0,1-.66-6.77C209.65,413.21,209.85,410.29,210.16,409.69Z"/><path class="cls-32" d="M210.2,409.51c.57-1.13,5.33-2.68,5.77-3.17,0,0,.09-.37.13-.41s0-.11,0-.12a3.31,3.31,0,0,1,1.73.22c.11.12,1.26.08,1.4.25s.1.46.14.52c.38.49,4.92,1.87,5.32,2.71a27.25,27.25,0,0,1,.44,6.57,35.77,35.77,0,0,1-.67,6.77c-.26,1.16-.47,1.46-.76,1.56a21,21,0,0,1-5.56.71,27.79,27.79,0,0,1-3.68-.1,17.39,17.39,0,0,1-3.43-.61c-.3-.1-.51-.4-.76-1.55a35.26,35.26,0,0,1-.62-6.78C209.67,413,209.88,410.13,210.2,409.51Z"/><path class="cls-33" d="M210.24,409.33c.59-1.17,5.28-2.73,5.73-3.24.05,0,.1-.37.14-.41s0-.11,0-.12a3.35,3.35,0,0,1,1.74.22c.11.12,1.25.09,1.39.27s.1.46.14.51c.39.51,4.86,1.9,5.27,2.77.31.64.5,3.5.48,6.54a36.24,36.24,0,0,1-.64,6.78c-.25,1.17-.46,1.46-.75,1.56a21.49,21.49,0,0,1-5.58.72,30.05,30.05,0,0,1-3.71-.11,17.53,17.53,0,0,1-3.47-.61c-.28-.1-.49-.39-.73-1.56a35.48,35.48,0,0,1-.6-6.78C209.69,412.83,209.91,410,210.24,409.33Z"/><path class="cls-34" d="M210.28,409.14c.61-1.21,5.24-2.78,5.7-3.3.05,0,.1-.37.14-.41s0-.1,0-.11a3.08,3.08,0,0,1,1.74.21c.11.12,1.23.1,1.38.28s.09.46.14.51c.4.53,4.8,1.93,5.22,2.82.32.66.53,3.51.51,6.53a35.49,35.49,0,0,1-.61,6.77c-.24,1.18-.45,1.47-.73,1.57a21.61,21.61,0,0,1-5.59.72,28.77,28.77,0,0,1-3.75-.11A17.52,17.52,0,0,1,211,424c-.28-.1-.48-.38-.72-1.57a35.66,35.66,0,0,1-.56-6.77C209.71,412.65,209.94,409.8,210.28,409.14Z"/><path class="cls-35" d="M210.32,409c.63-1.25,5.19-2.83,5.67-3.37,0,0,.1-.36.14-.41s0-.1.05-.11a3.06,3.06,0,0,1,1.74.2c.12.13,1.22.12,1.37.31s.1.45.15.51c.42.54,4.74,2,5.18,2.87a25.94,25.94,0,0,1,.54,6.5,35.74,35.74,0,0,1-.58,6.77c-.24,1.2-.44,1.48-.71,1.58a21.83,21.83,0,0,1-5.62.72,29.28,29.28,0,0,1-3.78-.1,17.7,17.7,0,0,1-3.53-.62c-.28-.1-.47-.38-.71-1.58a35.87,35.87,0,0,1-.52-6.77C209.73,412.46,210,409.64,210.32,409Z"/><path class="cls-36" d="M210.36,408.77c.65-1.28,5.14-2.88,5.64-3.43.05,0,.1-.36.15-.41s0-.1,0-.11a3.09,3.09,0,0,1,1.75.2c.12.14,1.2.14,1.36.33s.1.44.15.5c.43.56,4.68,2,5.13,2.92.34.71.56,3.51.58,6.48a36.94,36.94,0,0,1-.55,6.78c-.24,1.21-.43,1.49-.7,1.58a22.35,22.35,0,0,1-5.63.72,29.81,29.81,0,0,1-3.82-.1,18.66,18.66,0,0,1-3.57-.62c-.27-.09-.46-.37-.69-1.58a36.28,36.28,0,0,1-.49-6.78C209.75,412.28,210,409.48,210.36,408.77Z"/><path class="cls-37" d="M210.4,408.59c.67-1.32,5.1-2.93,5.61-3.5.05-.06.11-.36.15-.41s0-.1.05-.11a3,3,0,0,1,1.74.2c.13.14,1.19.15,1.35.35s.11.44.16.5c.44.57,4.62,2,5.09,3a25,25,0,0,1,.6,6.45,37.15,37.15,0,0,1-.51,6.78c-.24,1.23-.42,1.5-.68,1.59a23.08,23.08,0,0,1-5.66.73,30.23,30.23,0,0,1-3.85-.11,18.48,18.48,0,0,1-3.6-.62c-.26-.09-.45-.36-.67-1.59a36.44,36.44,0,0,1-.46-6.78C209.77,412.09,210,409.31,210.4,408.59Z"/><path class="cls-38" d="M210.44,408.41c.69-1.36,5.05-3,5.58-3.57,0-.06.11-.36.15-.4a.61.61,0,0,0,.05-.12,2.86,2.86,0,0,1,1.75.2c.13.14,1.18.16,1.34.36s.11.44.16.5c.46.59,4.56,2,5,3,.36.74.6,3.5.64,6.43a37.34,37.34,0,0,1-.48,6.77c-.23,1.25-.41,1.51-.67,1.6a23.16,23.16,0,0,1-5.67.73,30.87,30.87,0,0,1-3.89-.1,19,19,0,0,1-3.64-.63c-.25-.09-.43-.35-.65-1.6a36.55,36.55,0,0,1-.43-6.77C209.79,411.91,210.06,409.15,210.44,408.41Z"/><path class="cls-39" d="M210.48,408.22c.71-1.4,5-3,5.55-3.63.05-.06.11-.35.16-.4a.61.61,0,0,1,.05-.12,2.82,2.82,0,0,1,1.74.2c.14.15,1.17.17,1.34.38s.11.43.16.5c.47.6,4.5,2,5,3.07.37.77.62,3.5.67,6.41a36.78,36.78,0,0,1-.45,6.78c-.22,1.26-.4,1.52-.65,1.6a23.3,23.3,0,0,1-5.68.73,31.46,31.46,0,0,1-3.93-.1,18.82,18.82,0,0,1-3.67-.63c-.25-.08-.42-.34-.64-1.6a36.9,36.9,0,0,1-.39-6.78C209.81,411.72,210.08,409,210.48,408.22Z"/><path class="cls-40" d="M210.52,408c.73-1.44,5-3.08,5.52-3.7.05-.06.11-.35.16-.4s0-.1.05-.11A2.71,2.71,0,0,1,218,404c.14.15,1.15.18,1.32.4.05.06.12.43.17.49.48.62,4.44,2.07,4.95,3.13a24.14,24.14,0,0,1,.7,6.38,36.92,36.92,0,0,1-.42,6.78c-.22,1.28-.39,1.53-.63,1.61a23.5,23.5,0,0,1-5.71.74,31.88,31.88,0,0,1-4-.11,18.5,18.5,0,0,1-3.7-.63c-.25-.08-.42-.33-.63-1.61a37,37,0,0,1-.36-6.78C209.83,411.53,210.11,408.82,210.52,408Z"/><path class="cls-41" d="M210.56,407.85c.75-1.47,4.92-3.13,5.48-3.76.06-.06.12-.35.17-.4s0-.1,0-.11a2.61,2.61,0,0,1,1.76.19c.14.15,1.13.19,1.31.42,0,.06.12.42.17.49.49.63,4.38,2.09,4.9,3.17.39.81.66,3.5.74,6.36a38,38,0,0,1-.39,6.78c-.22,1.3-.38,1.54-.62,1.62a23.64,23.64,0,0,1-5.72.74,32.5,32.5,0,0,1-4-.1,19.17,19.17,0,0,1-3.74-.64c-.23-.08-.4-.32-.6-1.62a37.22,37.22,0,0,1-.33-6.78C209.84,411.35,210.14,408.66,210.56,407.85Z"/><path class="cls-42" d="M210.6,407.67c.77-1.51,4.87-3.18,5.45-3.83.06-.06.12-.35.17-.4s0-.1.06-.11a2.58,2.58,0,0,1,1.75.19c.15.16,1.12.21,1.31.43s.11.42.17.49c.51.66,4.32,2.11,4.86,3.23a24,24,0,0,1,.76,6.34,38.07,38.07,0,0,1-.35,6.77c-.21,1.32-.37,1.55-.6,1.63a23.88,23.88,0,0,1-5.75.74,31.11,31.11,0,0,1-4-.1,19.84,19.84,0,0,1-3.77-.64c-.23-.08-.39-.31-.59-1.62a36.58,36.58,0,0,1-.29-6.78C209.86,411.16,210.17,408.5,210.6,407.67Z"/><path class="cls-43" d="M210.64,407.49c.79-1.55,4.82-3.24,5.42-3.9.06-.07.12-.34.18-.4a.54.54,0,0,1,0-.11,2.56,2.56,0,0,1,1.76.19c.15.16,1.1.22,1.29.45.06.07.12.41.18.49.52.67,4.26,2.13,4.81,3.28.41.84.7,3.49.8,6.31a37.45,37.45,0,0,1-.33,6.78c-.2,1.33-.36,1.56-.58,1.63a24,24,0,0,1-5.76.74,31.68,31.68,0,0,1-4.07-.1,19.85,19.85,0,0,1-3.81-.64c-.22-.07-.37-.3-.57-1.63a37.62,37.62,0,0,1-.26-6.78C209.88,411,210.2,408.33,210.64,407.49Z"/><path class="cls-44" d="M210.68,407.3c.8-1.58,4.78-3.28,5.39-4,.06-.07.13-.34.18-.4a.6.6,0,0,1,.06-.11,2.47,2.47,0,0,1,1.75.19c.16.16,1.1.23,1.29.47.05.07.12.41.18.48.53.69,4.21,2.16,4.76,3.33a23.2,23.2,0,0,1,.84,6.29,37.56,37.56,0,0,1-.3,6.78c-.2,1.35-.35,1.57-.57,1.65a25.09,25.09,0,0,1-5.77.74,32.19,32.19,0,0,1-4.11-.11,21,21,0,0,1-3.84-.63c-.22-.08-.37-.3-.56-1.65a36.82,36.82,0,0,1-.22-6.78C209.9,410.79,210.23,408.17,210.68,407.3Z"/><path class="cls-45" d="M210.71,407.12c.83-1.63,4.74-3.33,5.37-4,.06-.07.13-.34.18-.4s0-.09.06-.11a2.45,2.45,0,0,1,1.76.19c.16.16,1.08.24,1.28.49,0,.07.12.4.18.48.55.7,4.15,2.18,4.72,3.38a23.05,23.05,0,0,1,.86,6.26,37.69,37.69,0,0,1-.26,6.78c-.19,1.36-.34,1.58-.55,1.66a25.33,25.33,0,0,1-5.8.74,32.75,32.75,0,0,1-4.14-.1,22.13,22.13,0,0,1-3.87-.64c-.22-.08-.36-.29-.54-1.65a37,37,0,0,1-.2-6.79A22.53,22.53,0,0,1,210.71,407.12Z"/><path class="cls-46" d="M210.75,406.93c.85-1.66,4.7-3.38,5.34-4.09.06-.07.13-.34.18-.4s0-.09.06-.1a2.39,2.39,0,0,1,1.76.17c.16.18,1.07.26,1.27.51.06.07.13.4.19.48.56.72,4.09,2.21,4.67,3.43a22.75,22.75,0,0,1,.9,6.25,38.81,38.81,0,0,1-.23,6.78c-.19,1.37-.33,1.58-.54,1.66a25.49,25.49,0,0,1-5.81.74,33.34,33.34,0,0,1-4.18-.1,22.32,22.32,0,0,1-3.91-.64c-.2-.08-.34-.29-.52-1.66a37.08,37.08,0,0,1-.16-6.78A22.43,22.43,0,0,1,210.75,406.93Z"/><path class="cls-47" d="M210.79,406.75c.87-1.7,4.65-3.43,5.31-4.16.06-.07.13-.33.19-.39s0-.1.06-.11a2.39,2.39,0,0,1,1.76.17c.16.18,1,.27,1.26.53.06.07.13.4.19.48.57.73,4,2.23,4.63,3.48a23,23,0,0,1,.92,6.22,38,38,0,0,1-.19,6.78c-.19,1.39-.32,1.6-.52,1.67a25.74,25.74,0,0,1-5.84.74,32,32,0,0,1-4.21-.1,22.12,22.12,0,0,1-3.94-.64c-.2-.07-.34-.28-.51-1.67a37.16,37.16,0,0,1-.13-6.78A22.46,22.46,0,0,1,210.79,406.75Z"/><path class="cls-48" d="M210.83,406.57c.89-1.74,4.6-3.49,5.28-4.23.06-.08.13-.33.19-.39s0-.09.06-.11a2.32,2.32,0,0,1,1.77.17c.16.18,1,.29,1.24.55.07.07.14.39.2.47.58.75,4,2.25,4.58,3.54a22.66,22.66,0,0,1,1,6.19,38.05,38.05,0,0,1-.17,6.78c-.18,1.41-.31,1.61-.5,1.68a26.36,26.36,0,0,1-5.85.75,34.38,34.38,0,0,1-4.25-.1,21.7,21.7,0,0,1-4-.65c-.19-.07-.32-.27-.49-1.68a37.26,37.26,0,0,1-.09-6.78A21.84,21.84,0,0,1,210.83,406.57Z"/><path class="cls-49" d="M210.87,406.38c.91-1.77,4.56-3.53,5.25-4.29.06-.08.13-.33.19-.39s0-.09.06-.11a2.27,2.27,0,0,1,1.77.17c.17.19,1,.3,1.24.56.06.08.14.39.2.48.6.76,3.91,2.27,4.53,3.58a22.41,22.41,0,0,1,1,6.18,38.17,38.17,0,0,1-.14,6.78c-.17,1.42-.3,1.61-.49,1.68a26,26,0,0,1-5.87.75,34.88,34.88,0,0,1-4.28-.1,22.7,22.7,0,0,1-4-.65c-.19-.07-.31-.26-.47-1.68a36.47,36.47,0,0,1-.06-6.78A21.8,21.8,0,0,1,210.87,406.38Z"/><path class="cls-50" d="M210.91,406.2c.93-1.82,4.51-3.58,5.21-4.36.07-.08.14-.32.2-.39s.05-.09.07-.11a2.28,2.28,0,0,1,1.77.17c.17.19,1,.31,1.23.58.06.08.13.39.2.47.61.78,3.85,2.3,4.49,3.64a22.34,22.34,0,0,1,1,6.15,37.31,37.31,0,0,1-.1,6.78c-.17,1.44-.29,1.62-.47,1.69a26.19,26.19,0,0,1-5.89.75,35.49,35.49,0,0,1-4.32-.1,22.32,22.32,0,0,1-4-.65c-.18-.07-.3-.25-.46-1.69a37.4,37.4,0,0,1,0-6.78A21.88,21.88,0,0,1,210.91,406.2Z"/><path class="cls-51" d="M211,406c1-1.85,4.47-3.63,5.18-4.43.07-.07.14-.31.21-.38s0-.09.06-.11a2.19,2.19,0,0,1,1.77.17c.18.19,1,.32,1.22.6.07.08.14.38.21.46.62.81,3.79,2.33,4.44,3.69a22.2,22.2,0,0,1,1.06,6.13,37.37,37.37,0,0,1-.07,6.78c-.17,1.46-.28,1.64-.46,1.7a26.94,26.94,0,0,1-5.9.75,32.42,32.42,0,0,1-4.36-.1,22.53,22.53,0,0,1-4.08-.65c-.17-.06-.29-.24-.44-1.7a36.57,36.57,0,0,1,0-6.78A21.85,21.85,0,0,1,211,406Z"/><path class="cls-52" d="M211,405.83c1-1.89,4.42-3.68,5.15-4.5.07-.07.15-.31.21-.38s0-.09.07-.1a2.12,2.12,0,0,1,1.77.16c.18.2,1,.33,1.21.62.07.08.14.37.21.46.64.82,3.73,2.35,4.4,3.74a22.55,22.55,0,0,1,1.08,6.1,36.63,36.63,0,0,1,0,6.79c-.15,1.47-.27,1.64-.43,1.7a27.78,27.78,0,0,1-5.93.76,36.56,36.56,0,0,1-4.39-.1,24,24,0,0,1-4.11-.66c-.17-.06-.28-.23-.43-1.7a36.71,36.71,0,0,1,0-6.79A22.06,22.06,0,0,1,211,405.83Z"/><path class="cls-53" d="M211,405.65c1-1.93,4.38-3.74,5.12-4.57.07-.08.15-.31.21-.38l.07-.1a2.11,2.11,0,0,1,1.77.16c.19.2,1,.34,1.21.63.06.09.14.37.21.46.65.84,3.67,2.37,4.35,3.8a22.2,22.2,0,0,1,1.12,6.08,37.44,37.44,0,0,1,0,6.78c-.15,1.49-.26,1.65-.42,1.71a28,28,0,0,1-5.94.76,35.19,35.19,0,0,1-4.43-.1,24,24,0,0,1-4.15-.66c-.16-.06-.26-.22-.4-1.71a35.77,35.77,0,0,1,.07-6.78A21.46,21.46,0,0,1,211,405.65Z"/><path class="cls-54" d="M211.07,405.46c1-2,4.33-3.78,5.09-4.63.07-.08.15-.3.21-.38l.07-.1a2.06,2.06,0,0,1,1.78.16c.19.2.95.36,1.19.65.07.09.15.37.22.46.66.85,3.61,2.39,4.3,3.84a22.21,22.21,0,0,1,1.16,6.06,37.46,37.46,0,0,1,0,6.78c-.15,1.51-.25,1.66-.41,1.72a28.05,28.05,0,0,1-6,.76,33.86,33.86,0,0,1-4.46-.1,23.78,23.78,0,0,1-4.18-.66c-.16-.06-.26-.21-.39-1.72a36.62,36.62,0,0,1,.1-6.78A21.51,21.51,0,0,1,211.07,405.46Z"/><path class="cls-55" d="M211.11,405.28c1-2,4.28-3.83,5.06-4.7.07-.08.15-.3.22-.37s0-.09.07-.11a2,2,0,0,1,1.78.16c.19.2.94.37,1.18.67.07.09.15.36.22.45.67.87,3.55,2.42,4.26,3.9a22.14,22.14,0,0,1,1.18,6,37.58,37.58,0,0,1,.06,6.79c-.14,1.52-.24,1.67-.39,1.72a28.31,28.31,0,0,1-6,.76,36.39,36.39,0,0,1-4.5-.09,25.08,25.08,0,0,1-4.21-.67c-.15-.05-.25-.2-.38-1.72a36.73,36.73,0,0,1,.14-6.79A21.39,21.39,0,0,1,211.11,405.28Z"/><path class="cls-56" d="M211.15,405.09c1-2,4.24-3.88,5-4.76.07-.08.15-.3.22-.37a1.05,1.05,0,0,1,.07-.11,2,2,0,0,1,1.78.16c.2.21.93.38,1.18.69.07.08.15.35.22.45.69.88,3.49,2.44,4.21,3.94a22,22,0,0,1,1.22,6,37.57,37.57,0,0,1,.09,6.79c-.14,1.53-.23,1.68-.38,1.73a29.12,29.12,0,0,1-6,.77,34.9,34.9,0,0,1-4.53-.1,24.19,24.19,0,0,1-4.25-.67c-.14-.05-.23-.19-.36-1.73a35.86,35.86,0,0,1,.18-6.79A21.37,21.37,0,0,1,211.15,405.09Z"/><path class="cls-57" d="M211.19,404.91c1.06-2.08,4.19-3.93,5-4.83.07-.08.15-.3.22-.37a.76.76,0,0,1,.08-.11,2,2,0,0,1,1.78.15c.2.22.91.4,1.16.71.08.09.16.36.23.45.7.9,3.43,2.47,4.17,4a22.38,22.38,0,0,1,1.25,6,36.55,36.55,0,0,1,.11,6.78c-.13,1.55-.22,1.69-.35,1.74a29.39,29.39,0,0,1-6,.77,35.44,35.44,0,0,1-4.57-.1,24,24,0,0,1-4.28-.67c-.14-.05-.23-.19-.34-1.74a34.93,34.93,0,0,1,.2-6.78A21.68,21.68,0,0,1,211.19,404.91Z"/><path class="cls-58" d="M211.23,404.73c1.08-2.12,4.15-4,5-4.9.08-.09.16-.29.23-.37s.05-.08.08-.1a2,2,0,0,1,1.78.14c.21.22.9.41,1.16.73.07.09.15.35.23.45.71.91,3.38,2.48,4.12,4.05a22.28,22.28,0,0,1,1.28,6,35.69,35.69,0,0,1,.15,6.78c-.12,1.57-.21,1.71-.34,1.75a29.56,29.56,0,0,1-6,.77,38.08,38.08,0,0,1-4.61-.09,25.72,25.72,0,0,1-4.32-.68c-.13,0-.21-.18-.32-1.74a35,35,0,0,1,.24-6.79A21.25,21.25,0,0,1,211.23,404.73Z"/><path class="cls-59" d="M211.27,404.54c1.1-2.15,4.1-4,4.93-5,.08-.09.17-.29.24-.37l.07-.1a2,2,0,0,1,1.79.14c.21.23.88.42,1.15.75.07.09.15.34.23.44.73.93,3.32,2.51,4.07,4.1a21.93,21.93,0,0,1,1.32,5.94,36.59,36.59,0,0,1,.18,6.79c-.12,1.58-.2,1.71-.33,1.75a29.71,29.71,0,0,1-6,.78,36.51,36.51,0,0,1-4.64-.1,25.52,25.52,0,0,1-4.35-.68c-.12,0-.2-.17-.31-1.75a34.94,34.94,0,0,1,.27-6.79A21.68,21.68,0,0,1,211.27,404.54Z"/><path class="cls-60" d="M211.31,404.36c1.12-2.19,4.06-4.09,4.9-5,.08-.09.17-.29.24-.37s.05-.08.08-.1a1.9,1.9,0,0,1,1.78.14c.22.23.87.44,1.14.77.08.09.16.33.24.44.74.94,3.26,2.53,4,4.15a22.32,22.32,0,0,1,1.34,5.91,35.71,35.71,0,0,1,.22,6.79c-.12,1.6-.19,1.72-.31,1.76a29.89,29.89,0,0,1-6.07.78,37.1,37.1,0,0,1-4.68-.1,25.11,25.11,0,0,1-4.38-.68c-.12,0-.2-.16-.3-1.76a34.9,34.9,0,0,1,.31-6.79A21.65,21.65,0,0,1,211.31,404.36Z"/><path class="cls-61" d="M211.35,404.17c1.14-2.22,4-4.13,4.87-5.09.08-.09.17-.29.24-.37s0-.08.08-.1a1.9,1.9,0,0,1,1.79.14c.22.23.86.45,1.13.78.08.1.16.34.24.44.75,1,3.2,2.56,4,4.2a22.1,22.1,0,0,1,1.38,5.9,34.72,34.72,0,0,1,.24,6.78c-.1,1.62-.18,1.73-.29,1.77a30.08,30.08,0,0,1-6.09.78,37.59,37.59,0,0,1-4.71-.1,24.3,24.3,0,0,1-4.42-.68c-.11,0-.18-.15-.27-1.77a34.69,34.69,0,0,1,.33-6.78A22.25,22.25,0,0,1,211.35,404.17Z"/><path class="cls-62" d="M211.39,404c1.16-2.27,4-4.18,4.84-5.16.08-.09.17-.28.25-.37l.08-.1a1.87,1.87,0,0,1,1.79.14c.21.24.84.46,1.11.8.08.1.17.33.25.44.76,1,3.14,2.58,3.94,4.25a22.78,22.78,0,0,1,1.41,5.87,35.54,35.54,0,0,1,.27,6.79c-.1,1.63-.17,1.74-.27,1.77a30.35,30.35,0,0,1-6.11.78,36.43,36.43,0,0,1-4.75-.09,25.73,25.73,0,0,1-4.45-.69c-.11,0-.17-.14-.26-1.77a33.93,33.93,0,0,1,.37-6.79A21.77,21.77,0,0,1,211.39,404Z"/><path class="cls-63" d="M211.43,403.81c1.18-2.31,3.92-4.24,4.81-5.23.08-.1.17-.28.25-.36a.39.39,0,0,1,.08-.1,1.82,1.82,0,0,1,1.79.13c.22.24.83.47,1.11.82.08.1.17.32.25.43.78,1,3.08,2.61,3.89,4.31a22.37,22.37,0,0,1,1.44,5.84,34.65,34.65,0,0,1,.31,6.79c-.1,1.65-.16,1.75-.26,1.78A31.33,31.33,0,0,1,219,419a38.76,38.76,0,0,1-4.79-.1,25.78,25.78,0,0,1-4.49-.69c-.1,0-.16-.13-.24-1.78a33.2,33.2,0,0,1,.41-6.79A21.8,21.8,0,0,1,211.43,403.81Z"/><path class="cls-64" d="M211.47,403.62c1.2-2.34,3.87-4.28,4.78-5.29.09-.1.17-.28.25-.36a.39.39,0,0,1,.08-.1,1.81,1.81,0,0,1,1.8.13c.22.24.81.48,1.1.84.08.1.17.32.25.43.79,1,3,2.62,3.84,4.35a22.63,22.63,0,0,1,1.48,5.83,35.27,35.27,0,0,1,.34,6.78c-.09,1.67-.15,1.76-.25,1.79a31.33,31.33,0,0,1-6.14.79,39.25,39.25,0,0,1-4.82-.1,25.61,25.61,0,0,1-4.52-.69c-.09,0-.15-.12-.23-1.79a33.67,33.67,0,0,1,.44-6.78A22.48,22.48,0,0,1,211.47,403.62Z"/><path class="cls-65" d="M211.51,403.44c1.22-2.38,3.83-4.34,4.75-5.36.09-.1.17-.28.25-.36a.9.9,0,0,1,.09-.1,1.77,1.77,0,0,1,1.79.13,11,11,0,0,1,1.09.85c.09.1.18.32.26.43.8,1,3,2.65,3.8,4.41a22.6,22.6,0,0,1,1.5,5.8,34.47,34.47,0,0,1,.38,6.79c-.09,1.68-.14,1.76-.23,1.79a32.4,32.4,0,0,1-6.16.79,40,40,0,0,1-4.86-.09,27.37,27.37,0,0,1-4.55-.7c-.09,0-.15-.11-.21-1.79a32.26,32.26,0,0,1,.47-6.79A22.43,22.43,0,0,1,211.51,403.44Z"/><path class="cls-66" d="M211.55,403.25c1.24-2.41,3.78-4.38,4.72-5.42.09-.1.17-.27.26-.36a.39.39,0,0,1,.08-.1,1.76,1.76,0,0,1,1.8.13,13.31,13.31,0,0,1,1.08.87c.08.1.17.31.26.43.82,1,2.9,2.67,3.75,4.45A22.94,22.94,0,0,1,225,409a33.62,33.62,0,0,1,.4,6.79c-.08,1.69-.13,1.78-.21,1.8a32.6,32.6,0,0,1-6.18.79,38.56,38.56,0,0,1-4.89-.09,27.41,27.41,0,0,1-4.59-.7c-.08,0-.13-.11-.19-1.8a32.14,32.14,0,0,1,.5-6.79A22.83,22.83,0,0,1,211.55,403.25Z"/><path class="cls-67" d="M211.59,403.07c1.25-2.46,3.74-4.43,4.68-5.49.1-.1.19-.27.27-.36l.08-.1a1.76,1.76,0,0,1,1.8.13,12,12,0,0,1,1.08.89c.08.1.17.31.26.42.83,1.06,2.84,2.7,3.71,4.51a23.46,23.46,0,0,1,1.57,5.75,33.54,33.54,0,0,1,.43,6.79c-.07,1.71-.12,1.79-.19,1.82a34.63,34.63,0,0,1-6.2.79,39,39,0,0,1-4.93-.1,29.22,29.22,0,0,1-4.62-.69c-.08,0-.12-.11-.18-1.82a32.73,32.73,0,0,1,.54-6.79A23,23,0,0,1,211.59,403.07Z"/><path class="cls-68" d="M211.63,402.89c1.27-2.5,3.69-4.49,4.65-5.56.1-.11.19-.27.27-.36l.09-.1a1.74,1.74,0,0,1,1.8.12c.24.26.76.54,1.06.91.09.11.18.31.27.43.84,1.07,2.78,2.72,3.66,4.56a23.41,23.41,0,0,1,1.6,5.73,32.6,32.6,0,0,1,.47,6.79c-.07,1.72-.11,1.79-.18,1.82a33.84,33.84,0,0,1-6.22.79,39.47,39.47,0,0,1-5-.1,30.7,30.7,0,0,1-4.66-.69c-.06,0-.11-.1-.16-1.82a32.54,32.54,0,0,1,.57-6.79A22.89,22.89,0,0,1,211.63,402.89Z"/><path class="cls-69" d="M211.67,402.7c1.29-2.53,3.64-4.53,4.62-5.62.1-.11.19-.27.27-.36a.76.76,0,0,1,.09-.09,1.71,1.71,0,0,1,1.81.11c.24.27.74.55,1,.93.09.11.18.3.27.42.85,1.09,2.72,2.74,3.61,4.61a23.42,23.42,0,0,1,1.64,5.71,33.2,33.2,0,0,1,.5,6.79c-.07,1.74-.1,1.8-.17,1.83a33.94,33.94,0,0,1-6.23.79,40.22,40.22,0,0,1-5-.09,31.14,31.14,0,0,1-4.69-.7c-.06,0-.1-.09-.14-1.83a31.1,31.1,0,0,1,.6-6.79A23,23,0,0,1,211.67,402.7Z"/><path class="cls-70" d="M211.71,402.52c1.31-2.57,3.6-4.59,4.59-5.69.1-.11.19-.26.28-.36a.26.26,0,0,1,.09-.09,1.7,1.7,0,0,1,1.8.11c.25.27.73.56,1.05.95.09.11.18.29.27.41.87,1.12,2.66,2.77,3.57,4.67A24.53,24.53,0,0,1,225,408.2a32.43,32.43,0,0,1,.52,6.79c-.05,1.76-.09,1.82-.14,1.84a34.36,34.36,0,0,1-6.25.79,39,39,0,0,1-5-.09,29.45,29.45,0,0,1-4.72-.7c-.06,0-.09-.08-.13-1.84a30.4,30.4,0,0,1,.64-6.79A23.2,23.2,0,0,1,211.71,402.52Z"/><path class="cls-71" d="M211.75,402.33a26.45,26.45,0,0,1,4.56-5.75c.1-.11.19-.26.28-.36s.06-.07.09-.09a1.67,1.67,0,0,1,1.81.11c.25.27.71.57,1,1,.09.11.19.29.28.41a25.58,25.58,0,0,1,3.52,4.71A24.5,24.5,0,0,1,225,408a31.7,31.7,0,0,1,.56,6.8c-.05,1.77-.08,1.82-.13,1.84a35.42,35.42,0,0,1-6.27.8,41.18,41.18,0,0,1-5.07-.1,30.92,30.92,0,0,1-4.76-.7s-.08-.07-.11-1.84a31,31,0,0,1,.67-6.8A24.1,24.1,0,0,1,211.75,402.33Z"/><path class="cls-72" d="M211.79,402.15a27,27,0,0,1,4.53-5.82c.1-.11.19-.26.28-.35l.09-.1a1.67,1.67,0,0,1,1.81.11c.26.28.71.59,1,1,.09.12.19.29.28.41a26.35,26.35,0,0,1,3.48,4.77,24.69,24.69,0,0,1,1.73,5.64,31.46,31.46,0,0,1,.59,6.79c0,1.79-.07,1.83-.11,1.85a35.63,35.63,0,0,1-6.29.8,42,42,0,0,1-5.11-.09,31.34,31.34,0,0,1-4.79-.71c-.05,0-.07-.06-.1-1.85a30.1,30.1,0,0,1,.71-6.79A23.85,23.85,0,0,1,211.79,402.15Z"/><path class="cls-73" d="M211.83,402a26.79,26.79,0,0,1,4.5-5.89c.1-.12.19-.26.28-.35l.1-.1a1.65,1.65,0,0,1,1.81.11c.26.28.69.6,1,1,.09.12.19.28.28.41a25.76,25.76,0,0,1,3.43,4.82,25,25,0,0,1,1.76,5.61,30.67,30.67,0,0,1,.63,6.79c0,1.81-.06,1.84-.1,1.86a35.84,35.84,0,0,1-6.31.8,40.47,40.47,0,0,1-5.14-.09,31.39,31.39,0,0,1-4.83-.71s-.06-.05-.07-1.86a29.39,29.39,0,0,1,.73-6.79A24.6,24.6,0,0,1,211.83,402Z"/><path class="cls-74" d="M211.87,401.78a27.22,27.22,0,0,1,4.47-5.95l.29-.35.09-.1a1.63,1.63,0,0,1,1.81.11,14,14,0,0,1,1,1c.1.12.2.28.29.4a26.46,26.46,0,0,1,3.39,4.87,25.54,25.54,0,0,1,1.79,5.59,30.56,30.56,0,0,1,.66,6.79c0,1.83,0,1.86-.09,1.87a37,37,0,0,1-6.32.81,42.89,42.89,0,0,1-5.18-.1,31.16,31.16,0,0,1-4.86-.71s-.05,0-.06-1.87a28.75,28.75,0,0,1,.77-6.79A25.23,25.23,0,0,1,211.87,401.78Z"/><path class="cls-75" d="M211.91,401.6a28,28,0,0,1,4.43-6l.3-.35a.43.43,0,0,1,.1-.09,1.6,1.6,0,0,1,1.81.1c.27.28.66.62,1,1,.09.11.19.27.29.4A21.26,21.26,0,0,1,225,407.16a29.87,29.87,0,0,1,.68,6.8,9.4,9.4,0,0,1-.06,1.87,37.43,37.43,0,0,1-6.35.81,43.56,43.56,0,0,1-5.21-.09,33.13,33.13,0,0,1-4.89-.72,8,8,0,0,1-.05-1.87,29.54,29.54,0,0,1,.8-6.79A25.53,25.53,0,0,1,211.91,401.6Z"/><path class="cls-76" d="M212,401.41a28.81,28.81,0,0,1,4.4-6.09c.11-.11.21-.24.3-.34a.43.43,0,0,1,.1-.09,1.59,1.59,0,0,1,1.82.1c.27.29.64.63,1,1.05.1.12.2.27.3.4a27,27,0,0,1,3.29,5A26.5,26.5,0,0,1,225,407a29.59,29.59,0,0,1,.72,6.79,11.16,11.16,0,0,1-.05,1.88,37.41,37.41,0,0,1-6.36.81,42.17,42.17,0,0,1-5.25-.09,33.17,33.17,0,0,1-4.93-.72,11.05,11.05,0,0,1,0-1.88,28.88,28.88,0,0,1,.84-6.79A26.48,26.48,0,0,1,212,401.41Z"/><path class="cls-77" d="M212,401.23a29.25,29.25,0,0,1,4.37-6.16c.11-.11.21-.24.3-.34l.1-.09a1.58,1.58,0,0,1,1.82.1,13.88,13.88,0,0,1,1,1.07c.1.12.2.27.3.4A24.2,24.2,0,0,1,225,406.75a29.42,29.42,0,0,1,.75,6.79,18.06,18.06,0,0,1,0,1.89,36.77,36.77,0,0,1-6.38.81,42.79,42.79,0,0,1-5.29-.09,32.92,32.92,0,0,1-5-.72,13.44,13.44,0,0,1,0-1.89,27.29,27.29,0,0,1,.87-6.79A26.79,26.79,0,0,1,212,401.23Z"/><path class="cls-78" d="M212,401.05a29.35,29.35,0,0,1,4.34-6.23l.31-.34.1-.09a1.56,1.56,0,0,1,1.82.1c.27.29.62.66,1,1.09l.3.39A26.08,26.08,0,0,1,225,406.54a28.27,28.27,0,0,1,.79,6.8c0,1.88,0,1.89,0,1.89a38,38,0,0,1-6.4.82A41.2,41.2,0,0,1,214,416a34.64,34.64,0,0,1-5-.72s0,0,0-1.89a27.67,27.67,0,0,1,3-12.29Z"/><path class="cls-79" d="M218.61,394.23a1.53,1.53,0,0,0-1.92,0,29.86,29.86,0,0,0-4.62,6.63,28.45,28.45,0,0,0-2.11,5.48,27,27,0,0,0-.94,6.79l0,1.9a33.4,33.4,0,0,0,5,.73,43.87,43.87,0,0,0,5.36.09,38.16,38.16,0,0,0,6.41-.82v-1.9A28.42,28.42,0,0,0,223,400.86,27.08,27.08,0,0,0,218.61,394.23Z"/></g></svg>