<svg xmlns="http://www.w3.org/2000/svg" viewBox="0 0 432 846"><defs><style>.cls-1{fill:#82c341;}.cls-2{fill:#83c441;}.cls-3{fill:#83c442;}.cls-4{fill:#84c442;}.cls-5{fill:#85c443;}.cls-6{fill:#86c444;}.cls-7{fill:#86c544;}.cls-8{fill:#87c545;}.cls-9{fill:#88c546;}.cls-10{fill:#89c547;}.cls-11{fill:#89c648;}.cls-12{fill:#8ac648;}.cls-13{fill:#8ac649;}.cls-14{fill:#8bc64a;}.cls-15{fill:#8cc74b;}.cls-16{fill:#8cc74c;}.cls-17{fill:#8dc74c;}.cls-18{fill:#8dc74d;}.cls-19{fill:#8ec74e;}.cls-20{fill:#8fc84f;}.cls-21{fill:#8fc850;}.cls-22{fill:#90c850;}.cls-23{fill:#90c851;}.cls-24{fill:#91c852;}.cls-25{fill:#91c952;}.cls-26{fill:#92c953;}.cls-27{fill:#92c954;}.cls-28{fill:#93c955;}.cls-29{fill:#94c956;}.cls-30{fill:#94ca57;}.cls-31{fill:#95ca57;}.cls-32{fill:#95ca58;}.cls-33{fill:#96ca59;}.cls-34{fill:#96ca5a;}.cls-35{fill:#97cb5a;}.cls-36{fill:#97cb5b;}.cls-37{fill:#98cb5c;}.cls-38{fill:#98cb5d;}.cls-39{fill:#99cb5e;}.cls-40{fill:#99cc5e;}.cls-41{fill:#99cc5f;}.cls-42{fill:#9acc60;}.cls-43{fill:#9acc61;}.cls-44{fill:#9bcc61;}.cls-45{fill:#9bcd62;}.cls-46{fill:#9ccd63;}.cls-47{fill:#9ccd64;}.cls-48{fill:#9dcd65;}.cls-49{fill:#9ece66;}.cls-50{fill:#9ece67;}.cls-51{fill:#9fce68;}.cls-52{fill:#9fce69;}.cls-53{fill:#a0ce69;}.cls-54{fill:#a0cf6a;}.cls-55{fill:#a1cf6b;}.cls-56{fill:#a1cf6c;}.cls-57{fill:#a1cf6d;}.cls-58{fill:#a2d06d;}.cls-59{fill:#a2d06e;}.cls-60{fill:#a3d06f;}.cls-61{fill:#a3d070;}.cls-62{fill:#a4d070;}.cls-63{fill:#a4d171;}.cls-64{fill:#a5d172;}.cls-65{fill:#a5d173;}.cls-66{fill:#a6d174;}.cls-67{fill:#a7d275;}.cls-68{fill:#a7d276;}.cls-69{fill:#a8d277;}.cls-70{fill:#a8d278;}.cls-71{fill:#a9d378;}.cls-72{fill:#a9d379;}.cls-73{fill:#aad37a;}.cls-74{fill:#aad37b;}.cls-75{fill:#abd37b;}.cls-76{fill:#abd47c;}.cls-77{fill:#acd47d;}.cls-78{fill:#add47e;}.cls-79{fill:#add47f;}.cls-80{fill:#aed580;}.cls-81{fill:#afd581;}.cls-82{fill:#afd582;}.cls-83{fill:#b0d682;}.cls-84{fill:#b0d683;}.cls-85{fill:#b1d684;}.cls-86{fill:#b1d685;}.cls-87{fill:#b2d685;}.cls-88{fill:#b2d786;}.cls-89{fill:#b3d787;}.cls-90{fill:#b4d788;}.cls-91{fill:#b4d889;}.cls-92{fill:#b5d889;}.cls-93{fill:#b5d88a;}.cls-94{fill:#b5d88b;}.cls-95{fill:#b6d98c;}.cls-96{fill:#b7d98d;}.cls-97{fill:#b7d98e;}.cls-98{fill:#b8d98e;}.cls-99{fill:#b8da8f;}.cls-100{fill:#b9da90;}.cls-101{fill:#bada91;}.cls-102{fill:#badb92;}.cls-103{fill:#bbdb92;}.cls-104{fill:#bbdb93;}.cls-105{fill:#bcdb94;}.cls-106{fill:#bcdc94;}.cls-107{fill:#bddc95;}.cls-108{fill:#bddc96;}.cls-109{fill:#bedc96;}.cls-110{fill:#bedc97;}.cls-111{fill:#bfdd98;}.cls-112{fill:#bfdd99;}.cls-113{fill:#c0dd99;}.cls-114{fill:#c0dd9a;}.cls-115{fill:#c1de9b;}.cls-116{fill:#c2de9c;}.cls-117{fill:#c2de9d;}.cls-118{fill:#c3df9d;}.cls-119{fill:#c3df9e;}.cls-120{fill:#c4df9f;}.cls-121{fill:#c4dfa0;}.cls-122{fill:#c5e0a0;}.cls-123{fill:#c5e0a1;}.cls-124{fill:#c6e0a2;}.cls-125{fill:#fffbdd;opacity:0.57;}</style></defs><g id="Green_Leaf" data-name="Green Leaf"><path class="cls-1" d="M210.08,815.34a1.53,1.53,0,0,0-1.92,0,28.54,28.54,0,0,0-7.67,18.9l0,1.9a41.2,41.2,0,0,0,16.8,0v-1.9A28.2,28.2,0,0,0,210.08,815.34Z"/><path class="cls-2" d="M210.08,815.34a1.53,1.53,0,0,0-1.92,0,28.55,28.55,0,0,0-7.65,18.83c0,1.93,0,1.94,0,1.94a41,41,0,0,0,16.71,0s0,0,0-1.94A28.17,28.17,0,0,0,210.08,815.34Z"/><path class="cls-3" d="M210.07,815.34a1.52,1.52,0,0,0-1.91,0,28.38,28.38,0,0,0-7.62,18.76c0,2,0,2,0,2a40.75,40.75,0,0,0,16.62,0s0,0,0-2A28,28,0,0,0,210.07,815.34Z"/><path class="cls-4" d="M210.07,815.34a1.51,1.51,0,0,0-1.9,0A28.24,28.24,0,0,0,200.56,834a10.72,10.72,0,0,0,0,2,40.47,40.47,0,0,0,16.52,0,16.14,16.14,0,0,0,0-2A27.92,27.92,0,0,0,210.07,815.34Z"/><path class="cls-5" d="M210.07,815.34a1.51,1.51,0,0,0-1.9,0A28.15,28.15,0,0,0,200.59,834a9.8,9.8,0,0,0,0,2.08,40.41,40.41,0,0,0,16.42,0,9.88,9.88,0,0,0,.07-2.08A27.81,27.81,0,0,0,210.07,815.34Z"/><path class="cls-5" d="M210.06,815.34a1.49,1.49,0,0,0-1.89,0,28,28,0,0,0-7.56,18.55,8.07,8.07,0,0,0,.07,2.12A40,40,0,0,0,217,836a9.13,9.13,0,0,0,.08-2.12A27.67,27.67,0,0,0,210.06,815.34Z"/><path class="cls-6" d="M210.06,815.34a1.49,1.49,0,0,0-1.89,0,27.89,27.89,0,0,0-7.53,18.48,7.66,7.66,0,0,0,.08,2.16A39.75,39.75,0,0,0,217,836a8.56,8.56,0,0,0,.09-2.16A27.63,27.63,0,0,0,210.06,815.34Z"/><path class="cls-7" d="M210.05,815.33a1.49,1.49,0,0,0-1.87,0,27.83,27.83,0,0,0-7.52,18.42c0,2.12.11,2.21.11,2.21a39.45,39.45,0,0,0,16.14,0,7.57,7.57,0,0,0,.11-2.21A27.52,27.52,0,0,0,210.05,815.33Z"/><path class="cls-8" d="M210.05,815.33a1.49,1.49,0,0,0-1.87,0,27.69,27.69,0,0,0-7.49,18.35c0,2.15.12,2.25.12,2.25a39.23,39.23,0,0,0,16.05,0,7.3,7.3,0,0,0,.12-2.25A27.44,27.44,0,0,0,210.05,815.33Z"/><path class="cls-8" d="M210,815.33a1.48,1.48,0,0,0-1.86,0,27.6,27.6,0,0,0-7.47,18.28c0,2.19.14,2.3.14,2.3a39,39,0,0,0,16,0s.15-.11.15-2.3A27.3,27.3,0,0,0,210,815.33Z"/><path class="cls-9" d="M210,815.33a1.46,1.46,0,0,0-1.85,0,27.48,27.48,0,0,0-7.46,18.21c0,2.22.16,2.34.16,2.34a38.73,38.73,0,0,0,15.86,0s.16-.12.16-2.34A27.24,27.24,0,0,0,210,815.33Z"/><path class="cls-9" d="M210,815.33a1.46,1.46,0,0,0-1.85,0,27.34,27.34,0,0,0-7.43,18.14c0,2.25.18,2.39.18,2.39a38.45,38.45,0,0,0,15.76,0s.17-.14.17-2.39A27.16,27.16,0,0,0,210,815.33Z"/><path class="cls-10" d="M210,815.33a1.45,1.45,0,0,0-1.84,0,27.3,27.3,0,0,0-7.41,18.07c0,2.28.2,2.43.2,2.43a38.23,38.23,0,0,0,15.67,0s.19-.15.19-2.43A27,27,0,0,0,210,815.33Z"/><path class="cls-11" d="M210,815.33a1.45,1.45,0,0,0-1.84,0,27.13,27.13,0,0,0-7.38,18c0,2.31.21,2.47.21,2.47a38,38,0,0,0,15.57,0s.21-.16.21-2.47A26.9,26.9,0,0,0,210,815.33Z"/><path class="cls-12" d="M210,815.33a1.42,1.42,0,0,0-1.82,0,27,27,0,0,0-7.37,17.94c0,2.34.24,2.51.24,2.51a37.68,37.68,0,0,0,15.47,0s.22-.17.22-2.51A26.77,26.77,0,0,0,210,815.33Z"/><path class="cls-13" d="M210,815.32a1.45,1.45,0,0,0-1.82,0,27,27,0,0,0-7.34,17.88c0,2.37.25,2.55.25,2.55a37.45,37.45,0,0,0,15.38,0s.24-.18.24-2.55A26.77,26.77,0,0,0,210,815.32Z"/><path class="cls-14" d="M210,815.32a1.43,1.43,0,0,0-1.81,0,26.89,26.89,0,0,0-7.32,17.81c0,2.4.27,2.6.27,2.6a37.23,37.23,0,0,0,15.29,0s.25-.2.25-2.6A26.63,26.63,0,0,0,210,815.32Z"/><path class="cls-14" d="M210,815.32a1.43,1.43,0,0,0-1.81,0,26.76,26.76,0,0,0-7.29,17.74c0,2.43.28,2.64.28,2.64a37,37,0,0,0,15.2,0s.26-.21.26-2.64A26.55,26.55,0,0,0,210,815.32Z"/><path class="cls-15" d="M210,815.32a1.42,1.42,0,0,0-1.8,0A26.63,26.63,0,0,0,200.93,833c0,2.46.31,2.69.31,2.69a36.68,36.68,0,0,0,15.09,0s.29-.23.29-2.69A26.43,26.43,0,0,0,210,815.32Z"/><path class="cls-16" d="M210,815.32a1.4,1.4,0,0,0-1.79,0,26.54,26.54,0,0,0-7.26,17.6c0,2.5.33,2.73.33,2.73a36.45,36.45,0,0,0,15,0s.3-.23.3-2.73A26.35,26.35,0,0,0,210,815.32Z"/><path class="cls-17" d="M210,815.32a1.4,1.4,0,0,0-1.79,0A26.4,26.4,0,0,0,201,832.85c0,2.53.34,2.77.34,2.77a36,36,0,0,0,14.91,0s.31-.24.31-2.77A26.26,26.26,0,0,0,210,815.32Z"/><path class="cls-18" d="M210,815.32a1.38,1.38,0,0,0-1.77,0A26.28,26.28,0,0,0,201,832.78c0,2.56.36,2.82.36,2.82a36,36,0,0,0,14.82,0s.33-.26.33-2.82A26.09,26.09,0,0,0,210,815.32Z"/><path class="cls-19" d="M210,815.32a1.38,1.38,0,0,0-1.77,0A26.15,26.15,0,0,0,201,832.71c0,2.59.38,2.86.38,2.86a35.72,35.72,0,0,0,14.72,0s.34-.27.34-2.86A26,26,0,0,0,210,815.32Z"/><path class="cls-19" d="M210,815.31a1.43,1.43,0,0,0-1.77,0,26.11,26.11,0,0,0-7.17,17.33c0,2.62.4,2.91.4,2.91a35.45,35.45,0,0,0,14.62,0s.37-.29.37-2.91A26,26,0,0,0,210,815.31Z"/><path class="cls-20" d="M210,815.31a1.41,1.41,0,0,0-1.76,0,26,26,0,0,0-7.14,17.26c0,2.66.41,2.95.41,2.95a35.23,35.23,0,0,0,14.53,0s.38-.29.38-2.95A25.87,25.87,0,0,0,210,815.31Z"/><path class="cls-21" d="M210,815.31a1.4,1.4,0,0,0-1.75,0,25.85,25.85,0,0,0-7.13,17.19c0,2.69.43,3,.43,3a35,35,0,0,0,14.44,0s.39-.31.39-3A25.78,25.78,0,0,0,210,815.31Z"/><path class="cls-22" d="M210,815.31a1.38,1.38,0,0,0-1.74,0,25.81,25.81,0,0,0-7.11,17.12c0,2.72.46,3,.46,3a34.7,34.7,0,0,0,14.34,0s.41-.32.41-3A25.62,25.62,0,0,0,210,815.31Z"/><path class="cls-23" d="M210,815.31a1.38,1.38,0,0,0-1.74,0,25.65,25.65,0,0,0-7.08,17.05c0,2.75.47,3.09.47,3.09a34.44,34.44,0,0,0,14.24,0s.43-.34.43-3.09A25.53,25.53,0,0,0,210,815.31Z"/><path class="cls-24" d="M210,815.31a1.37,1.37,0,0,0-1.73,0,25.55,25.55,0,0,0-7.06,17c0,2.78.49,3.13.49,3.13a34.21,34.21,0,0,0,14.15,0s.44-.35.44-3.13A25.44,25.44,0,0,0,210,815.31Z"/><path class="cls-25" d="M210,815.31a1.36,1.36,0,0,0-1.72,0,25.44,25.44,0,0,0-7,16.91c0,2.82.5,3.17.5,3.17a34,34,0,0,0,14.06,0s.46-.35.46-3.17A25.33,25.33,0,0,0,210,815.31Z"/><path class="cls-26" d="M210,815.31a1.36,1.36,0,0,0-1.72,0,25.25,25.25,0,0,0-7,16.84c0,2.85.53,3.22.53,3.22a33.7,33.7,0,0,0,14,0s.47-.37.47-3.22A25.25,25.25,0,0,0,210,815.31Z"/><path class="cls-27" d="M210,815.3a1.37,1.37,0,0,0-1.71,0,25.21,25.21,0,0,0-7,16.78c0,2.88.54,3.26.54,3.26a33.48,33.48,0,0,0,13.87,0s.48-.38.48-3.26A25.17,25.17,0,0,0,210,815.3Z"/><path class="cls-28" d="M210,815.3a1.35,1.35,0,0,0-1.7,0,25,25,0,0,0-7,16.71c0,2.91.56,3.31.56,3.31a33.21,33.21,0,0,0,13.77,0s.51-.4.51-3.31A25.06,25.06,0,0,0,210,815.3Z"/><path class="cls-28" d="M209.94,815.3a1.34,1.34,0,0,0-1.69,0,24.91,24.91,0,0,0-6.95,16.64c0,2.94.57,3.35.57,3.35a33,33,0,0,0,13.68,0s.52-.41.52-3.35A25,25,0,0,0,209.94,815.3Z"/><path class="cls-29" d="M209.94,815.3a1.34,1.34,0,0,0-1.69,0,24.87,24.87,0,0,0-6.93,16.58c0,3,.6,3.39.6,3.39a32.71,32.71,0,0,0,13.58,0s.53-.42.53-3.39A24.89,24.89,0,0,0,209.94,815.3Z"/><path class="cls-30" d="M209.93,815.3a1.33,1.33,0,0,0-1.68,0,24.75,24.75,0,0,0-6.91,16.51c0,3,.62,3.43.62,3.43a32.48,32.48,0,0,0,13.49,0s.55-.43.55-3.43A24.72,24.72,0,0,0,209.93,815.3Z"/><path class="cls-31" d="M209.93,815.3a1.31,1.31,0,0,0-1.67,0,24.56,24.56,0,0,0-6.89,16.44c0,3,.63,3.47.63,3.47a32.06,32.06,0,0,0,13.4,0s.56-.44.56-3.47A24.64,24.64,0,0,0,209.93,815.3Z"/><path class="cls-32" d="M209.93,815.3a1.31,1.31,0,0,0-1.67,0,24.5,24.5,0,0,0-6.87,16.37c0,3.06.65,3.52.65,3.52a32,32,0,0,0,13.3,0s.59-.46.59-3.52A24.58,24.58,0,0,0,209.93,815.3Z"/><path class="cls-33" d="M209.92,815.3a1.3,1.3,0,0,0-1.66,0,24.36,24.36,0,0,0-6.84,16.3c0,3.09.67,3.56.67,3.56a31.71,31.71,0,0,0,13.2,0s.6-.47.6-3.56A24.44,24.44,0,0,0,209.92,815.3Z"/><path class="cls-34" d="M209.92,815.29a1.32,1.32,0,0,0-1.66,0,24.32,24.32,0,0,0-6.82,16.24c0,3.13.69,3.61.69,3.61a31.48,31.48,0,0,0,13.11,0s.61-.48.61-3.61A24.42,24.42,0,0,0,209.92,815.29Z"/><path class="cls-35" d="M209.91,815.29a1.3,1.3,0,0,0-1.64,0,24.16,24.16,0,0,0-6.8,16.17c0,3.16.7,3.65.7,3.65a31.26,31.26,0,0,0,13,0s.63-.49.63-3.65A24.25,24.25,0,0,0,209.91,815.29Z"/><path class="cls-36" d="M209.91,815.29a1.3,1.3,0,0,0-1.64,0,24.07,24.07,0,0,0-6.78,16.1c0,3.19.73,3.7.73,3.7a30.94,30.94,0,0,0,12.91,0s.65-.51.65-3.7A24.17,24.17,0,0,0,209.91,815.29Z"/><path class="cls-37" d="M209.9,815.29a1.28,1.28,0,0,0-1.63,0c-1.87,2-6.7,7.64-6.75,16,0,3.22.74,3.74.74,3.74a30.71,30.71,0,0,0,12.82,0s.66-.52.66-3.74A24.08,24.08,0,0,0,209.9,815.29Z"/><path class="cls-38" d="M209.9,815.29a1.27,1.27,0,0,0-1.62,0c-1.86,2-6.68,7.6-6.74,16,0,3.25.76,3.78.76,3.78A30.28,30.28,0,0,0,215,835s.68-.53.68-3.78A24,24,0,0,0,209.9,815.29Z"/><path class="cls-39" d="M209.9,815.29a1.27,1.27,0,0,0-1.62,0c-1.85,2-6.66,7.57-6.72,15.89,0,3.29.78,3.83.78,3.83A30.25,30.25,0,0,0,215,835s.69-.54.69-3.83A23.88,23.88,0,0,0,209.9,815.29Z"/><path class="cls-40" d="M209.89,815.29a1.25,1.25,0,0,0-1.61,0c-1.84,2-6.64,7.54-6.69,15.82,0,3.32.8,3.87.8,3.87a30,30,0,0,0,12.54,0s.7-.55.7-3.87A23.74,23.74,0,0,0,209.89,815.29Z"/><path class="cls-41" d="M209.89,815.29a1.25,1.25,0,0,0-1.61,0c-1.83,2-6.61,7.5-6.67,15.75,0,3.35.82,3.92.82,3.92a29.7,29.7,0,0,0,12.44,0s.73-.57.73-3.92A23.68,23.68,0,0,0,209.89,815.29Z"/><path class="cls-42" d="M209.88,815.28a1.28,1.28,0,0,0-1.59,0c-1.83,2-6.6,7.48-6.65,15.69,0,3.38.83,4,.83,4a29.48,29.48,0,0,0,12.35,0s.74-.58.74-4A23.6,23.6,0,0,0,209.88,815.28Z"/><path class="cls-43" d="M209.88,815.28a1.28,1.28,0,0,0-1.59,0c-1.82,2-6.58,7.44-6.63,15.62,0,3.41.85,4,.85,4a29.25,29.25,0,0,0,12.26,0s.76-.6.76-4A23.49,23.49,0,0,0,209.88,815.28Z"/><path class="cls-44" d="M209.87,815.28a1.26,1.26,0,0,0-1.58,0c-1.81,2-6.55,7.41-6.6,15.55,0,3.45.87,4,.87,4a29,29,0,0,0,12.16,0s.77-.6.77-4A23.37,23.37,0,0,0,209.87,815.28Z"/><path class="cls-45" d="M209.87,815.28a1.25,1.25,0,0,0-1.57,0c-1.81,2-6.54,7.38-6.59,15.48,0,3.48.89,4.09.89,4.09a28.55,28.55,0,0,0,12.07,0s.78-.61.78-4.09A23.29,23.29,0,0,0,209.87,815.28Z"/><path class="cls-46" d="M209.87,815.28a1.25,1.25,0,0,0-1.57,0c-1.8,1.94-6.51,7.34-6.57,15.41,0,3.51.91,4.14.91,4.14a28.48,28.48,0,0,0,12,0s.81-.63.81-4.14A23.23,23.23,0,0,0,209.87,815.28Z"/><path class="cls-47" d="M209.86,815.28a1.23,1.23,0,0,0-1.56,0c-1.79,1.93-6.49,7.31-6.54,15.34,0,3.54.92,4.18.92,4.18a28.06,28.06,0,0,0,11.88,0s.82-.64.82-4.18A23.09,23.09,0,0,0,209.86,815.28Z"/><path class="cls-48" d="M209.86,815.28a1.23,1.23,0,0,0-1.56,0c-1.78,1.92-6.47,7.28-6.52,15.27,0,3.57.95,4.23.95,4.23a28,28,0,0,0,11.78,0s.83-.66.83-4.23A23,23,0,0,0,209.86,815.28Z"/><path class="cls-48" d="M209.85,815.28a1.21,1.21,0,0,0-1.54,0c-1.78,1.91-6.45,7.24-6.5,15.2,0,3.61,1,4.27,1,4.27a27.75,27.75,0,0,0,11.69,0s.85-.66.85-4.27A22.84,22.84,0,0,0,209.85,815.28Z"/><path class="cls-49" d="M209.85,815.27a1.23,1.23,0,0,0-1.54,0c-1.77,1.91-6.43,7.22-6.48,15.15,0,3.63,1,4.31,1,4.31a27.48,27.48,0,0,0,11.59,0s.87-.68.87-4.31A22.88,22.88,0,0,0,209.85,815.27Z"/><path class="cls-50" d="M209.85,815.27a1.23,1.23,0,0,0-1.54,0c-1.76,1.9-6.41,7.19-6.45,15.08,0,3.66,1,4.35,1,4.35a27.26,27.26,0,0,0,11.5,0s.88-.69.88-4.35A22.8,22.8,0,0,0,209.85,815.27Z"/><path class="cls-51" d="M209.84,815.27a1.22,1.22,0,0,0-1.53,0c-1.74,1.89-6.38,7.15-6.43,15,0,3.69,1,4.4,1,4.4a27,27,0,0,0,11.4,0s.9-.71.9-4.4A22.63,22.63,0,0,0,209.84,815.27Z"/><path class="cls-52" d="M209.84,815.27a1.2,1.2,0,0,0-1.52,0c-1.74,1.88-6.37,7.12-6.41,14.94,0,3.72,1,4.44,1,4.44a26.75,26.75,0,0,0,11.31,0s.91-.72.91-4.44A22.55,22.55,0,0,0,209.84,815.27Z"/><path class="cls-53" d="M209.83,815.27a1.19,1.19,0,0,0-1.51,0c-1.73,1.87-6.35,7.08-6.39,14.87,0,3.76,1,4.48,1,4.48a26.34,26.34,0,0,0,11.22,0s.92-.72.92-4.48A22.38,22.38,0,0,0,209.83,815.27Z"/><path class="cls-54" d="M209.83,815.27a1.19,1.19,0,0,0-1.51,0c-1.72,1.86-6.32,7.05-6.37,14.8,0,3.79,1.07,4.53,1.07,4.53a26.25,26.25,0,0,0,11.12,0s1-.74,1-4.53A22.35,22.35,0,0,0,209.83,815.27Z"/><path class="cls-55" d="M209.82,815.27a1.16,1.16,0,0,0-1.49,0c-1.72,1.85-6.31,7-6.35,14.73,0,3.82,1.09,4.57,1.09,4.57a25.78,25.78,0,0,0,11,0s1-.75,1-4.57A22.21,22.21,0,0,0,209.82,815.27Z"/><path class="cls-56" d="M209.82,815.27a1.16,1.16,0,0,0-1.49,0c-1.71,1.84-6.28,7-6.33,14.66,0,3.85,1.11,4.62,1.11,4.62a25.75,25.75,0,0,0,10.93,0s1-.77,1-4.62A22.1,22.1,0,0,0,209.82,815.27Z"/><path class="cls-57" d="M209.82,815.26a1.19,1.19,0,0,0-1.49,0c-1.7,1.84-6.26,7-6.3,14.6,0,3.88,1.12,4.66,1.12,4.66a25.52,25.52,0,0,0,10.84,0s1-.78,1-4.66A22.07,22.07,0,0,0,209.82,815.26Z"/><path class="cls-58" d="M209.81,815.26a1.17,1.17,0,0,0-1.48,0c-1.69,1.83-6.24,6.93-6.28,14.53,0,3.92,1.14,4.71,1.14,4.71a25.3,25.3,0,0,0,10.75,0s1-.79,1-4.71A22,22,0,0,0,209.81,815.26Z"/><path class="cls-59" d="M209.81,815.26a1.16,1.16,0,0,0-1.47,0c-1.69,1.82-6.22,6.89-6.26,14.46,0,3.95,1.16,4.75,1.16,4.75a25,25,0,0,0,10.64,0s1-.8,1-4.75A21.87,21.87,0,0,0,209.81,815.26Z"/><path class="cls-60" d="M209.8,815.26a1.15,1.15,0,0,0-1.46,0c-1.68,1.81-6.2,6.86-6.24,14.39,0,4,1.18,4.79,1.18,4.79a24.57,24.57,0,0,0,10.55,0s1-.81,1-4.79A21.73,21.73,0,0,0,209.8,815.26Z"/><path class="cls-61" d="M209.8,815.26a1.15,1.15,0,0,0-1.46,0c-1.67,1.8-6.18,6.83-6.22,14.32,0,4,1.2,4.84,1.2,4.84a24.53,24.53,0,0,0,10.46,0s1.05-.83,1.05-4.84A21.65,21.65,0,0,0,209.8,815.26Z"/><path class="cls-62" d="M209.79,815.26a1.13,1.13,0,0,0-1.45,0c-1.66,1.79-6.15,6.79-6.19,14.25,0,4,1.22,4.88,1.22,4.88a24.06,24.06,0,0,0,10.36,0s1.07-.84,1.07-4.88A21.48,21.48,0,0,0,209.79,815.26Z"/><path class="cls-63" d="M209.79,815.26a1.12,1.12,0,0,0-1.44,0c-1.66,1.78-6.14,6.76-6.18,14.18,0,4.08,1.24,4.93,1.24,4.93a24,24,0,0,0,10.26,0s1.09-.85,1.09-4.93A21.45,21.45,0,0,0,209.79,815.26Z"/><path class="cls-64" d="M209.79,815.26a1.12,1.12,0,0,0-1.44,0c-1.65,1.77-6.11,6.72-6.15,14.11,0,4.11,1.25,5,1.25,5a23.76,23.76,0,0,0,10.17,0s1.1-.86,1.1-5A21.35,21.35,0,0,0,209.79,815.26Z"/><path class="cls-65" d="M209.78,815.25a1.16,1.16,0,0,0-1.43,0c-1.63,1.77-6.09,6.7-6.13,14,0,4.14,1.27,5,1.27,5a23.54,23.54,0,0,0,10.08,0s1.12-.88,1.12-5A21.26,21.26,0,0,0,209.78,815.25Z"/><path class="cls-66" d="M209.78,815.25a1.14,1.14,0,0,0-1.42,0c-1.63,1.76-6.08,6.67-6.11,14,0,4.17,1.29,5.06,1.29,5.06a23.26,23.26,0,0,0,10,0s1.13-.89,1.13-5.06A21.18,21.18,0,0,0,209.78,815.25Z"/><path class="cls-66" d="M209.77,815.25a1.13,1.13,0,0,0-1.41,0c-1.62,1.75-6.05,6.63-6.09,13.91,0,4.2,1.31,5.1,1.31,5.1a22.85,22.85,0,0,0,9.89,0s1.15-.9,1.15-5.1A21.06,21.06,0,0,0,209.77,815.25Z"/><path class="cls-67" d="M209.77,815.25a1.13,1.13,0,0,0-1.41,0c-1.61,1.74-6,6.6-6.06,13.84,0,4.24,1.32,5.15,1.32,5.15a22.77,22.77,0,0,0,9.79,0s1.17-.91,1.17-5.15A21,21,0,0,0,209.77,815.25Z"/><path class="cls-68" d="M209.76,815.25a1.11,1.11,0,0,0-1.4,0c-1.6,1.73-6,6.57-6,13.78,0,4.26,1.34,5.18,1.34,5.18a22.36,22.36,0,0,0,9.7,0s1.18-.92,1.18-5.18A20.85,20.85,0,0,0,209.76,815.25Z"/><path class="cls-69" d="M209.76,815.25a1.1,1.1,0,0,0-1.39,0c-1.6,1.72-6,6.53-6,13.71,0,4.29,1.37,5.23,1.37,5.23a22.27,22.27,0,0,0,9.6,0s1.2-.94,1.2-5.23A20.74,20.74,0,0,0,209.76,815.25Z"/><path class="cls-70" d="M209.76,815.25a1.1,1.1,0,0,0-1.39,0c-1.59,1.71-6,6.5-6,13.64,0,4.32,1.38,5.27,1.38,5.27a21.86,21.86,0,0,0,9.51,0s1.21-.95,1.21-5.27A20.66,20.66,0,0,0,209.76,815.25Z"/><path class="cls-71" d="M209.75,815.25a1.09,1.09,0,0,0-1.38,0c-1.58,1.7-5.94,6.47-6,13.57,0,4.35,1.4,5.32,1.4,5.32a21.8,21.8,0,0,0,9.42,0s1.22-1,1.22-5.32A20.57,20.57,0,0,0,209.75,815.25Z"/><path class="cls-72" d="M209.75,815.24a1.11,1.11,0,0,0-1.38,0c-1.57,1.7-5.92,6.44-6,13.51,0,4.39,1.41,5.36,1.41,5.36a21.54,21.54,0,0,0,9.32,0s1.25-1,1.25-5.36A20.52,20.52,0,0,0,209.75,815.24Z"/><path class="cls-73" d="M209.74,815.24a1.08,1.08,0,0,0-1.36,0c-1.57,1.69-5.91,6.41-5.94,13.44,0,4.42,1.44,5.4,1.44,5.4a21.08,21.08,0,0,0,9.22,0s1.26-1,1.26-5.4A20.38,20.38,0,0,0,209.74,815.24Z"/><path class="cls-74" d="M209.74,815.24a1.08,1.08,0,0,0-1.36,0c-1.56,1.68-5.88,6.37-5.91,13.37,0,4.45,1.45,5.45,1.45,5.45a21,21,0,0,0,9.13,0s1.27-1,1.27-5.45A20.28,20.28,0,0,0,209.74,815.24Z"/><path class="cls-75" d="M209.74,815.24a1.08,1.08,0,0,0-1.36,0c-1.55,1.67-5.86,6.34-5.89,13.3C202.47,833,204,834,204,834a20.64,20.64,0,0,0,9,0s1.29-1,1.29-5.49A20.24,20.24,0,0,0,209.74,815.24Z"/><path class="cls-76" d="M209.73,815.24a1.06,1.06,0,0,0-1.34,0c-1.55,1.66-5.85,6.31-5.87,13.23C202.5,833,204,834,204,834a20.55,20.55,0,0,0,8.94,0s1.31-1,1.31-5.54A20.1,20.1,0,0,0,209.73,815.24Z"/><path class="cls-77" d="M209.73,815.24a1.06,1.06,0,0,0-1.34,0c-1.54,1.65-5.82,6.27-5.85,13.16,0,4.55,1.51,5.58,1.51,5.58a20.1,20.1,0,0,0,8.84,0s1.32-1,1.32-5.58A20,20,0,0,0,209.73,815.24Z"/><path class="cls-77" d="M209.72,815.24a1,1,0,0,0-1.33,0c-1.52,1.64-5.8,6.24-5.83,13.09,0,4.58,1.53,5.63,1.53,5.63a20.05,20.05,0,0,0,8.75,0s1.34-1.05,1.34-5.63A19.85,19.85,0,0,0,209.72,815.24Z"/><path class="cls-78" d="M209.72,815.24a1,1,0,0,0-1.33,0c-1.51,1.63-5.77,6.21-5.8,13,0,4.61,1.54,5.67,1.54,5.67a19.65,19.65,0,0,0,8.66,0s1.35-1.06,1.35-5.67A19.77,19.77,0,0,0,209.72,815.24Z"/><path class="cls-79" d="M209.71,815.23a1,1,0,0,0-1.31,0c-1.51,1.63-5.76,6.18-5.79,13,0,4.64,1.56,5.72,1.56,5.72a19.6,19.6,0,0,0,8.57,0s1.37-1.08,1.37-5.72A19.71,19.71,0,0,0,209.71,815.23Z"/><path class="cls-80" d="M209.71,815.23a1,1,0,0,0-1.31,0c-1.5,1.62-5.74,6.15-5.76,12.89,0,4.67,1.58,5.76,1.58,5.76a19.29,19.29,0,0,0,8.46,0s1.39-1.09,1.39-5.76A19.63,19.63,0,0,0,209.71,815.23Z"/><path class="cls-80" d="M209.71,815.23a1,1,0,0,0-1.31,0c-1.49,1.61-5.71,6.12-5.74,12.82,0,4.71,1.6,5.8,1.6,5.8a18.89,18.89,0,0,0,8.37,0s1.4-1.09,1.4-5.8A19.56,19.56,0,0,0,209.71,815.23Z"/><path class="cls-81" d="M209.7,815.23a1,1,0,0,0-1.3,0c-1.48,1.6-5.69,6.08-5.71,12.75,0,4.74,1.61,5.85,1.61,5.85a18.84,18.84,0,0,0,8.28,0S214,832.72,214,828C214,821.31,211.19,816.83,209.7,815.23Z"/><path class="cls-82" d="M209.7,815.23a1,1,0,0,0-1.29,0c-1.48,1.59-5.68,6-5.7,12.68,0,4.77,1.63,5.89,1.63,5.89a18.45,18.45,0,0,0,8.19,0s1.43-1.12,1.43-5.89A19.36,19.36,0,0,0,209.7,815.23Z"/><path class="cls-83" d="M209.69,815.23a1,1,0,0,0-1.28,0c-1.47,1.58-5.65,6-5.68,12.61,0,4.8,1.66,5.94,1.66,5.94a18.31,18.31,0,0,0,8.08,0s1.45-1.14,1.45-5.94C213.92,821.24,211.16,816.81,209.69,815.23Z"/><path class="cls-84" d="M209.69,815.23a1,1,0,0,0-1.28,0c-1.46,1.57-5.63,6-5.65,12.54,0,4.83,1.67,6,1.67,6a17.91,17.91,0,0,0,8,0s1.47-1.15,1.47-6C213.89,821.21,211.15,816.8,209.69,815.23Z"/><path class="cls-85" d="M209.68,815.23a1,1,0,0,0-1.26,0c-1.46,1.56-5.61,5.95-5.64,12.47,0,4.87,1.69,6,1.69,6a17.86,17.86,0,0,0,7.9,0s1.48-1.16,1.48-6C213.85,821.18,211.14,816.79,209.68,815.23Z"/><path class="cls-86" d="M209.68,815.22a1,1,0,0,0-1.26,0c-1.45,1.56-5.58,5.92-5.61,12.41,0,4.9,1.71,6.07,1.71,6.07a17.58,17.58,0,0,0,7.8,0s1.49-1.17,1.49-6.07C213.81,821.14,211.13,816.78,209.68,815.22Z"/><path class="cls-87" d="M209.68,815.22a1,1,0,0,0-1.26,0c-1.44,1.55-5.55,5.89-5.59,12.35,0,4.92,1.73,6.1,1.73,6.1a17.18,17.18,0,0,0,7.71,0s1.51-1.18,1.51-6.1C213.78,821.11,211.11,816.77,209.68,815.22Z"/><path class="cls-88" d="M209.67,815.22a1,1,0,0,0-1.25,0c-1.43,1.54-5.53,5.86-5.56,12.28,0,5,1.74,6.15,1.74,6.15a17.09,17.09,0,0,0,7.61,0s1.53-1.2,1.53-6.15C213.74,821.08,211.1,816.76,209.67,815.22Z"/><path class="cls-89" d="M209.67,815.22a1,1,0,0,0-1.24,0c-1.42,1.53-5.52,5.82-5.55,12.21,0,5,1.76,6.19,1.76,6.19a16.69,16.69,0,0,0,7.52,0s1.54-1.21,1.54-6.19C213.7,821,211.09,816.75,209.67,815.22Z"/><path class="cls-89" d="M209.66,815.22a1,1,0,0,0-1.23,0c-1.41,1.52-5.49,5.79-5.52,12.14,0,5,1.78,6.24,1.78,6.24a16.59,16.59,0,0,0,7.42,0s1.56-1.23,1.56-6.24C213.67,821,211.08,816.74,209.66,815.22Z"/><path class="cls-90" d="M209.66,815.22a1,1,0,0,0-1.23,0c-1.4,1.51-5.47,5.76-5.5,12.07,0,5.05,1.8,6.28,1.8,6.28a16.2,16.2,0,0,0,7.33,0s1.57-1.23,1.57-6.28C213.63,821,211.06,816.73,209.66,815.22Z"/><path class="cls-91" d="M209.65,815.22a1,1,0,0,0-1.22,0c-1.39,1.5-5.45,5.72-5.48,12,0,5.08,1.82,6.33,1.82,6.33a16.14,16.14,0,0,0,7.24,0s1.59-1.25,1.59-6.33C213.6,820.94,211.05,816.72,209.65,815.22Z"/><path class="cls-92" d="M209.65,815.22a1,1,0,0,0-1.21,0c-1.39,1.49-5.43,5.69-5.46,11.93,0,5.11,1.83,6.37,1.83,6.37a15.72,15.72,0,0,0,7.14,0s1.61-1.26,1.61-6.37C213.56,820.91,211,816.71,209.65,815.22Z"/><path class="cls-93" d="M209.65,815.21a1,1,0,0,0-1.21,0c-1.38,1.49-5.41,5.66-5.44,11.87,0,5.14,1.86,6.41,1.86,6.41a15.45,15.45,0,0,0,7,0s1.62-1.27,1.62-6.41C213.52,820.87,211,816.7,209.65,815.21Z"/><path class="cls-94" d="M209.64,815.21a1,1,0,0,0-1.2,0c-1.37,1.48-5.38,5.63-5.41,11.8,0,5.17,1.87,6.46,1.87,6.46a15.39,15.39,0,0,0,6.95,0s1.64-1.29,1.64-6.46C213.49,820.84,211,816.69,209.64,815.21Z"/><path class="cls-95" d="M209.64,815.21a1,1,0,0,0-1.19,0c-1.37,1.47-5.37,5.6-5.4,11.73,0,5.21,1.89,6.5,1.89,6.5a15,15,0,0,0,6.86,0s1.65-1.29,1.65-6.5C213.45,820.81,211,816.68,209.64,815.21Z"/><path class="cls-95" d="M209.63,815.21a.93.93,0,0,0-1.18,0c-1.36,1.46-5.35,5.56-5.37,11.66,0,5.24,1.9,6.55,1.9,6.55a14.91,14.91,0,0,0,6.76,0s1.67-1.31,1.67-6.55C213.41,820.77,211,816.67,209.63,815.21Z"/><path class="cls-96" d="M209.63,815.21a.93.93,0,0,0-1.18,0c-1.35,1.45-5.32,5.53-5.35,11.59,0,5.27,1.93,6.59,1.93,6.59a14.47,14.47,0,0,0,6.66,0s1.69-1.32,1.69-6.59C213.38,820.74,211,816.66,209.63,815.21Z"/><path class="cls-97" d="M209.62,815.21a.92.92,0,0,0-1.17,0c-1.34,1.44-5.3,5.5-5.32,11.52,0,5.3,1.94,6.64,1.94,6.64a14.41,14.41,0,0,0,6.57,0s1.7-1.34,1.7-6.64C213.34,820.71,211,816.65,209.62,815.21Z"/><path class="cls-98" d="M209.62,815.21a.91.91,0,0,0-1.16,0c-1.34,1.43-5.29,5.46-5.31,11.45,0,5.33,2,6.68,2,6.68a14,14,0,0,0,6.48,0s1.71-1.35,1.71-6.68C213.3,820.67,211,816.64,209.62,815.21Z"/><path class="cls-99" d="M209.62,815.21a.91.91,0,0,0-1.16,0c-1.33,1.42-5.26,5.43-5.29,11.38,0,5.37,2,6.72,2,6.72a13.81,13.81,0,0,0,6.39,0s1.73-1.35,1.73-6.72C213.27,820.64,210.94,816.63,209.62,815.21Z"/><path class="cls-100" d="M209.61,815.2a.92.92,0,0,0-1.15,0c-1.32,1.42-5.24,5.4-5.26,11.32,0,5.4,2,6.77,2,6.77a13.51,13.51,0,0,0,6.28,0s1.75-1.37,1.75-6.77C213.23,820.6,210.93,816.62,209.61,815.2Z"/><path class="cls-100" d="M209.61,815.2a.92.92,0,0,0-1.15,0c-1.3,1.41-5.22,5.37-5.24,11.25,0,5.43,2,6.81,2,6.81a13.28,13.28,0,0,0,6.19,0s1.77-1.38,1.77-6.81C213.2,820.57,210.92,816.61,209.61,815.2Z"/><path class="cls-101" d="M209.6,815.2a.89.89,0,0,0-1.13,0c-1.3,1.4-5.2,5.34-5.22,11.18,0,5.46,2,6.86,2,6.86a13.22,13.22,0,0,0,6.1,0s1.78-1.4,1.78-6.86C213.16,820.54,210.91,816.6,209.6,815.2Z"/><path class="cls-102" d="M209.6,815.2a.89.89,0,0,0-1.13,0c-1.29,1.4-5.18,5.3-5.2,11.11,0,5.49,2,6.9,2,6.9a12.83,12.83,0,0,0,6,0s1.79-1.41,1.79-6.9C213.12,820.5,210.89,816.6,209.6,815.2Z"/><path class="cls-103" d="M209.6,815.2a.89.89,0,0,0-1.13,0c-1.28,1.39-5.16,5.27-5.17,11,0,5.53,2.07,7,2.07,7a12.72,12.72,0,0,0,5.91,0s1.81-1.42,1.81-7C213.09,820.47,210.88,816.59,209.6,815.2Z"/><path class="cls-104" d="M209.59,815.2a.86.86,0,0,0-1.11,0c-1.28,1.38-5.14,5.24-5.16,11,0,5.55,2.09,7,2.09,7a12.31,12.31,0,0,0,5.81,0s1.83-1.43,1.83-7C213.05,820.44,210.87,816.58,209.59,815.2Z"/><path class="cls-105" d="M209.59,815.2a.86.86,0,0,0-1.11,0c-1.27,1.37-5.12,5.2-5.14,10.91s2.11,7,2.11,7a12.24,12.24,0,0,0,5.72,0s1.84-1.45,1.84-7S210.86,816.57,209.59,815.2Z"/><path class="cls-106" d="M209.58,815.2a.85.85,0,0,0-1.1,0c-1.26,1.36-5.09,5.17-5.11,10.84s2.12,7.07,2.12,7.07a11.87,11.87,0,0,0,5.63,0S213,831.65,213,826,210.84,816.56,209.58,815.2Z"/><path class="cls-107" d="M209.58,815.19a.9.9,0,0,0-1.1,0c-1.25,1.36-5.07,5.15-5.09,10.78s2.15,7.11,2.15,7.11a11.6,11.6,0,0,0,5.53,0s1.87-1.47,1.87-7.11S210.83,816.55,209.58,815.19Z"/><path class="cls-108" d="M209.57,815.19a.87.87,0,0,0-1.08,0c-1.25,1.35-5.06,5.11-5.07,10.71s2.16,7.16,2.16,7.16a11.5,11.5,0,0,0,5.43,0s1.89-1.48,1.89-7.16S210.82,816.54,209.57,815.19Z"/><path class="cls-109" d="M209.57,815.19a.87.87,0,0,0-1.08,0c-1.24,1.34-5,5.08-5.05,10.64s2.18,7.2,2.18,7.2a11.13,11.13,0,0,0,5.34,0s1.91-1.49,1.91-7.2S210.81,816.53,209.57,815.19Z"/><path class="cls-110" d="M209.57,815.19a.87.87,0,0,0-1.08,0c-1.23,1.33-5,5-5,10.57,0,5.74,2.2,7.25,2.2,7.25a11,11,0,0,0,5.24,0s1.92-1.51,1.92-7.25C212.83,820.23,210.8,816.52,209.57,815.19Z"/><path class="cls-111" d="M209.56,815.19a.86.86,0,0,0-1.07,0c-1.22,1.32-5,5-5,10.5,0,5.77,2.22,7.29,2.22,7.29a10.65,10.65,0,0,0,5.15,0s1.93-1.52,1.93-7.29C212.79,820.2,210.78,816.51,209.56,815.19Z"/><path class="cls-112" d="M209.56,815.19a.84.84,0,0,0-1.06,0c-1.22,1.31-5,5-5,10.43,0,5.8,2.23,7.34,2.23,7.34a10.57,10.57,0,0,0,5.06,0s1.95-1.54,1.95-7.34C212.76,820.17,210.77,816.5,209.56,815.19Z"/><path class="cls-113" d="M209.55,815.19a.83.83,0,0,0-1.05,0c-1.21,1.3-4.95,4.94-5,10.36,0,5.84,2.25,7.38,2.25,7.38a10.18,10.18,0,0,0,5,0s2-1.54,2-7.38C212.72,820.13,210.76,816.49,209.55,815.19Z"/><path class="cls-114" d="M209.55,815.19a.83.83,0,0,0-1.05,0c-1.19,1.29-4.93,4.91-4.94,10.29,0,5.87,2.28,7.42,2.28,7.42a9.91,9.91,0,0,0,4.86,0s2-1.55,2-7.42C212.69,820.1,210.75,816.48,209.55,815.19Z"/><path class="cls-115" d="M209.54,815.18a.83.83,0,0,0-1,0c-1.19,1.29-4.91,4.89-4.92,10.23,0,5.9,2.29,7.47,2.29,7.47a9.7,9.7,0,0,0,4.77,0s2-1.57,2-7.47C212.65,820.07,210.73,816.47,209.54,815.18Z"/><path class="cls-115" d="M209.54,815.18a.83.83,0,0,0-1,0c-1.18,1.28-4.89,4.85-4.9,10.16,0,5.93,2.31,7.51,2.31,7.51a9.48,9.48,0,0,0,4.68,0s2-1.58,2-7.51C212.61,820,210.72,816.46,209.54,815.18Z"/><path class="cls-116" d="M209.54,815.18a.83.83,0,0,0-1,0c-1.17,1.27-4.87,4.82-4.87,10.09,0,6,2.32,7.56,2.32,7.56a9.4,9.4,0,0,0,4.59,0s2-1.6,2-7.56C212.58,820,210.71,816.45,209.54,815.18Z"/><path class="cls-117" d="M209.53,815.18a.81.81,0,0,0-1,0c-1.16,1.26-4.84,4.79-4.85,10,0,6,2.35,7.6,2.35,7.6a9,9,0,0,0,4.48,0s2-1.6,2-7.6C212.54,820,210.7,816.44,209.53,815.18Z"/><path class="cls-118" d="M209.53,815.18a.8.8,0,0,0-1,0c-1.16,1.25-4.83,4.75-4.83,10,0,6,2.36,7.65,2.36,7.65a8.89,8.89,0,0,0,4.39,0s2.06-1.62,2.06-7.65C212.5,819.93,210.69,816.43,209.53,815.18Z"/><path class="cls-119" d="M209.52,815.18a.78.78,0,0,0-1,0c-1.15,1.24-4.8,4.72-4.81,9.88,0,6.06,2.38,7.69,2.38,7.69a8.53,8.53,0,0,0,4.3,0s2.08-1.63,2.08-7.69C212.47,819.9,210.67,816.42,209.52,815.18Z"/><path class="cls-120" d="M209.52,815.18a.78.78,0,0,0-1,0c-1.14,1.23-4.78,4.68-4.78,9.81,0,6.09,2.39,7.73,2.39,7.73a8.31,8.31,0,0,0,4.21,0s2.09-1.64,2.09-7.73C212.43,819.86,210.66,816.41,209.52,815.18Z"/><path class="cls-121" d="M209.51,815.18a.77.77,0,0,0-1,0c-1.13,1.22-4.76,4.65-4.76,9.74,0,6.12,2.42,7.78,2.42,7.78a8,8,0,0,0,4.1,0s2.11-1.66,2.11-7.78C212.39,819.83,210.65,816.4,209.51,815.18Z"/><path class="cls-122" d="M209.51,815.17a.78.78,0,0,0-1,0c-1.13,1.22-4.74,4.63-4.75,9.68,0,6.16,2.44,7.82,2.44,7.82a7.81,7.81,0,0,0,4,0s2.13-1.66,2.13-7.82C212.36,819.8,210.64,816.39,209.51,815.17Z"/><path class="cls-123" d="M209.51,815.17a.78.78,0,0,0-1,0c-1.12,1.21-4.72,4.59-4.72,9.62,0,6.18,2.45,7.86,2.45,7.86a7.59,7.59,0,0,0,3.92,0s2.14-1.68,2.14-7.86C212.32,819.76,210.62,816.38,209.51,815.17Z"/><path class="cls-124" d="M209.5,815.17a.77.77,0,0,0-1,0c-1.11,1.2-4.7,4.56-4.7,9.55,0,6.21,2.47,7.9,2.47,7.9a7.38,7.38,0,0,0,3.83,0s2.15-1.69,2.15-7.9C212.28,819.73,210.61,816.37,209.5,815.17Z"/><path class="cls-124" d="M209.5,815.17a.75.75,0,0,0-1,0c-1.11,1.19-4.68,4.53-4.68,9.48,0,6.24,2.49,8,2.49,8a7.25,7.25,0,0,0,3.73,0s2.17-1.71,2.17-8C212.25,819.7,210.6,816.36,209.5,815.17Z"/></g><g id="Pink_Detail" data-name="Pink Detail"><ellipse class="cls-125" cx="211.23" cy="831.68" rx="0.32" ry="0.26"/><ellipse class="cls-125" cx="213.16" cy="832.03" rx="0.32" ry="0.26"/><ellipse class="cls-125" cx="213.62" cy="831.45" rx="0.22" ry="0.16"/><ellipse class="cls-125" cx="213.1" cy="832.92" rx="0.22" ry="0.16"/><ellipse class="cls-125" cx="212.65" cy="833.95" rx="0.32" ry="0.26"/><ellipse class="cls-125" cx="207.49" cy="833.42" rx="0.32" ry="0.26"/><ellipse class="cls-125" cx="207.74" cy="834.37" rx="0.32" ry="0.26"/><ellipse class="cls-125" cx="208.71" cy="833.38" rx="0.32" ry="0.26"/><ellipse class="cls-125" cx="209.52" cy="834.65" rx="0.22" ry="0.16"/><ellipse class="cls-125" cx="206.71" cy="829.5" rx="0.32" ry="0.26"/><ellipse class="cls-125" cx="209.29" cy="825.79" rx="0.32" ry="0.26"/><ellipse class="cls-125" cx="209.52" cy="832.75" rx="0.22" ry="0.16"/><ellipse class="cls-125" cx="207.79" cy="831.49" rx="0.22" ry="0.16"/><ellipse class="cls-125" cx="206.06" cy="833.52" rx="0.22" ry="0.16"/><ellipse class="cls-125" cx="206.06" cy="829.47" rx="0.22" ry="0.16"/><ellipse class="cls-125" cx="205.42" cy="828.25" rx="0.32" ry="0.26"/><ellipse class="cls-125" cx="208.33" cy="827.45" rx="0.32" ry="0.26"/><ellipse class="cls-125" cx="211.71" cy="833.8" rx="0.22" ry="0.16"/><ellipse class="cls-125" cx="212.93" cy="830.82" rx="0.22" ry="0.16"/><ellipse class="cls-125" cx="209.69" cy="826.32" rx="0.22" ry="0.16"/><ellipse class="cls-125" cx="210.9" cy="823.79" rx="0.22" ry="0.16"/><ellipse class="cls-125" cx="206.75" cy="827.58" rx="0.22" ry="0.16"/><ellipse class="cls-125" cx="211.59" cy="829.98" rx="0.22" ry="0.16"/><ellipse class="cls-125" cx="213.66" cy="827.45" rx="0.22" ry="0.16"/><ellipse class="cls-125" cx="206.58" cy="823.16" rx="0.22" ry="0.16"/><ellipse class="cls-125" cx="209.17" cy="819.12" rx="0.22" ry="0.16"/></g></svg>