<svg xmlns="http://www.w3.org/2000/svg" viewBox="0 0 432 846"><defs><style>.cls-1{fill:#82c341;}.cls-2{fill:#83c442;}.cls-3{fill:#84c442;}.cls-4{fill:#85c443;}.cls-5{fill:#86c444;}.cls-6{fill:#87c545;}.cls-7{fill:#88c546;}.cls-8{fill:#89c647;}.cls-9{fill:#8ac648;}.cls-10{fill:#8bc649;}.cls-11{fill:#8bc64b;}.cls-12{fill:#8cc74c;}.cls-13{fill:#8dc74d;}.cls-14{fill:#8ec74e;}.cls-15{fill:#8fc84f;}.cls-16{fill:#8fc850;}.cls-17{fill:#90c851;}.cls-18{fill:#91c852;}.cls-19{fill:#92c953;}.cls-20{fill:#92c954;}.cls-21{fill:#93c955;}.cls-22{fill:#94ca57;}.cls-23{fill:#95ca58;}.cls-24{fill:#96ca59;}.cls-25{fill:#96cb5a;}.cls-26{fill:#97cb5b;}.cls-27{fill:#98cb5d;}.cls-28{fill:#99cb5e;}.cls-29{fill:#99cc5f;}.cls-30{fill:#9acc60;}.cls-31{fill:#9bcc62;}.cls-32{fill:#9ccd63;}.cls-33{fill:#9ccd64;}.cls-34{fill:#9dcd65;}.cls-35{fill:#9ece67;}.cls-36{fill:#9fce68;}.cls-37{fill:#9fce69;}.cls-38{fill:#a0cf6a;}.cls-39{fill:#a1cf6c;}.cls-40{fill:#a2cf6d;}.cls-41{fill:#a2d06e;}.cls-42{fill:#a3d06f;}.cls-43{fill:#a4d071;}.cls-44{fill:#a5d172;}.cls-45{fill:#a5d173;}.cls-46{fill:#a6d174;}.cls-47{fill:#a7d276;}.cls-48{fill:#a8d277;}.cls-49{fill:#a9d278;}.cls-50{fill:#a9d379;}.cls-51{fill:#aad37a;}.cls-52{fill:#abd37c;}.cls-53{fill:#acd47d;}.cls-54{fill:#acd47e;}.cls-55{fill:#add57f;}.cls-56{fill:#aed580;}.cls-57{fill:#afd581;}.cls-58{fill:#b0d682;}.cls-59{fill:#b0d684;}.cls-60{fill:#b1d685;}.cls-61{fill:#b2d786;}.cls-62{fill:#b3d787;}.cls-63{fill:#b3d788;}.cls-64{fill:#b4d889;}.cls-65{fill:#b5d88a;}.cls-66{fill:#b6d88b;}.cls-67{fill:#b7d98c;}.cls-68{fill:#b7d98d;}.cls-69{fill:#b8da8f;}.cls-70{fill:#b9da90;}.cls-71{fill:#bada91;}.cls-72{fill:#badb92;}.cls-73{fill:#bbdb93;}.cls-74{fill:#bcdb94;}.cls-75{fill:#bddc95;}.cls-76{fill:#bedc96;}.cls-77{fill:#bedc97;}.cls-78{fill:#bfdd98;}.cls-79{fill:#c0dd99;}.cls-80{fill:#c1de9b;}.cls-81{fill:#c1de9c;}.cls-82{fill:#c2de9d;}.cls-83{fill:#c3df9e;}.cls-84{fill:#c4df9f;}.cls-85{fill:#c5e0a0;}.cls-86{fill:#c5e0a1;}.cls-87{fill:#c6e0a2;}</style></defs><g id="Green_Leaf" data-name="Green Leaf"><path class="cls-1" d="M210.08,827.68a1.53,1.53,0,0,0-1.92,0c-2.21,2.38-4.67,4.44-4.67,7.9,0,1.9,10.78,1.9,10.78,0C214.27,832.36,212.29,830.06,210.08,827.68Z"/><path class="cls-2" d="M210.08,827.68a1.53,1.53,0,0,0-1.92,0c-2.21,2.38-4.65,4.44-4.65,7.85,0,1.9,10.74,1.9,10.74,0C214.25,832.35,212.29,830.06,210.08,827.68Z"/><path class="cls-3" d="M210.08,827.68a1.53,1.53,0,0,0-1.92,0c-2.21,2.38-4.62,4.43-4.62,7.81,0,1.9,10.69,1.9,10.69,0C214.23,832.34,212.29,830.06,210.08,827.68Z"/><path class="cls-4" d="M210.08,827.68a1.53,1.53,0,0,0-1.92,0c-2.21,2.38-4.6,4.42-4.6,7.76,0,1.9,10.64,1.9,10.64,0C214.2,832.33,212.29,830.06,210.08,827.68Z"/><path class="cls-5" d="M210.08,827.68a1.53,1.53,0,0,0-1.92,0c-2.21,2.38-4.58,4.42-4.58,7.72,0,1.9,10.6,1.9,10.6,0C214.18,832.33,212.29,830.06,210.08,827.68Z"/><path class="cls-6" d="M210.08,827.68a1.53,1.53,0,0,0-1.92,0c-2.21,2.38-4.55,4.41-4.55,7.67,0,1.9,10.55,1.9,10.55,0C214.16,832.32,212.29,830.06,210.08,827.68Z"/><path class="cls-6" d="M210.08,827.68a1.53,1.53,0,0,0-1.92,0c-2.21,2.38-4.53,4.4-4.53,7.62,0,1.9,10.5,1.9,10.5,0C214.13,832.31,212.29,830.06,210.08,827.68Z"/><path class="cls-7" d="M210.08,827.68a1.53,1.53,0,0,0-1.92,0c-2.21,2.38-4.51,4.4-4.51,7.58,0,1.9,10.46,1.9,10.46,0C214.11,832.3,212.29,830.06,210.08,827.68Z"/><path class="cls-8" d="M210.08,827.68a1.53,1.53,0,0,0-1.92,0c-2.21,2.38-4.49,4.39-4.49,7.53,0,1.9,10.42,1.9,10.42,0C214.09,832.29,212.29,830.06,210.08,827.68Z"/><path class="cls-9" d="M210.08,827.68a1.53,1.53,0,0,0-1.92,0c-2.21,2.38-4.46,4.39-4.46,7.49,0,1.9,10.37,1.9,10.37,0C214.07,832.28,212.29,830.06,210.08,827.68Z"/><path class="cls-10" d="M210.08,827.68a1.53,1.53,0,0,0-1.92,0c-2.21,2.38-4.44,4.38-4.44,7.44,0,1.9,10.32,1.9,10.32,0C214,832.27,212.29,830.06,210.08,827.68Z"/><path class="cls-11" d="M210.08,827.68a1.53,1.53,0,0,0-1.92,0c-2.21,2.38-4.42,4.37-4.42,7.39,0,1.9,10.28,1.9,10.28,0C214,832.26,212.29,830.06,210.08,827.68Z"/><path class="cls-12" d="M210.08,827.68a1.53,1.53,0,0,0-1.92,0c-2.21,2.38-4.39,4.37-4.39,7.35,0,1.9,10.23,1.9,10.23,0C214,832.25,212.29,830.06,210.08,827.68Z"/><path class="cls-13" d="M210.08,827.68a1.53,1.53,0,0,0-1.92,0c-2.21,2.38-4.37,4.36-4.37,7.3,0,1.9,10.18,1.9,10.18,0C214,832.24,212.29,830.06,210.08,827.68Z"/><path class="cls-14" d="M210.08,827.68a1.53,1.53,0,0,0-1.92,0c-2.21,2.38-4.35,4.35-4.35,7.26,0,1.9,10.14,1.9,10.14,0C214,832.24,212.29,830.06,210.08,827.68Z"/><path class="cls-15" d="M210.08,827.68a1.53,1.53,0,0,0-1.92,0c-2.21,2.38-4.32,4.35-4.32,7.21,0,1.9,10.09,1.9,10.09,0C213.93,832.23,212.29,830.06,210.08,827.68Z"/><path class="cls-16" d="M210.08,827.68a1.53,1.53,0,0,0-1.92,0c-2.21,2.38-4.3,4.34-4.3,7.16,0,1.9,10,1.9,10,0C213.91,832.22,212.29,830.06,210.08,827.68Z"/><path class="cls-17" d="M210.08,827.68a1.53,1.53,0,0,0-1.92,0c-2.21,2.38-4.28,4.34-4.28,7.12,0,1.9,10,1.9,10,0C213.88,832.21,212.29,830.06,210.08,827.68Z"/><path class="cls-18" d="M210.08,827.68a1.53,1.53,0,0,0-1.92,0c-2.21,2.38-4.26,4.33-4.26,7.07,0,1.9,10,1.9,10,0C213.86,832.2,212.29,830.06,210.08,827.68Z"/><path class="cls-19" d="M210.08,827.68a1.53,1.53,0,0,0-1.92,0c-2.21,2.38-4.23,4.32-4.23,7,0,1.9,9.91,1.9,9.91,0C213.84,832.19,212.29,830.06,210.08,827.68Z"/><path class="cls-20" d="M210.08,827.68a1.53,1.53,0,0,0-1.92,0c-2.21,2.38-4.21,4.32-4.21,7,0,1.9,9.86,1.9,9.86,0C213.81,832.18,212.29,830.06,210.08,827.68Z"/><path class="cls-21" d="M210.08,827.68a1.53,1.53,0,0,0-1.92,0C206,830.06,204,832,204,834.61c0,1.9,9.82,1.9,9.82,0C213.79,832.17,212.29,830.06,210.08,827.68Z"/><path class="cls-22" d="M210.08,827.68a1.53,1.53,0,0,0-1.92,0C206,830.06,204,832,204,834.57c0,1.9,9.77,1.9,9.77,0C213.77,832.16,212.29,830.06,210.08,827.68Z"/><path class="cls-23" d="M210.08,827.68a1.53,1.53,0,0,0-1.92,0C206,830.06,204,832,204,834.52c0,1.9,9.72,1.9,9.72,0C213.74,832.15,212.29,830.06,210.08,827.68Z"/><path class="cls-24" d="M210.08,827.68a1.53,1.53,0,0,0-1.92,0C206,830.06,204,832,204,834.48c0,1.9,9.68,1.9,9.68,0C213.72,832.15,212.29,830.06,210.08,827.68Z"/><path class="cls-25" d="M210.08,827.68a1.53,1.53,0,0,0-1.92,0c-2.21,2.38-4.09,4.29-4.09,6.75,0,1.9,9.63,1.9,9.63,0C213.7,832.14,212.29,830.06,210.08,827.68Z"/><path class="cls-26" d="M210.08,827.68a1.53,1.53,0,0,0-1.92,0c-2.21,2.38-4.07,4.28-4.07,6.7,0,1.9,9.59,1.9,9.59,0C213.68,832.13,212.29,830.06,210.08,827.68Z"/><path class="cls-27" d="M210.08,827.68a1.53,1.53,0,0,0-1.92,0c-2.21,2.38-4,4.27-4,6.66,0,1.9,9.54,1.9,9.54,0C213.65,832.12,212.29,830.06,210.08,827.68Z"/><path class="cls-28" d="M210.08,827.68a1.53,1.53,0,0,0-1.92,0c-2.21,2.38-4,4.27-4,6.61,0,1.9,9.5,1.9,9.5,0C213.63,832.11,212.29,830.06,210.08,827.68Z"/><path class="cls-29" d="M210.08,827.68a1.53,1.53,0,0,0-1.92,0c-2.21,2.38-4,4.26-4,6.57,0,1.9,9.45,1.9,9.45,0C213.61,832.1,212.29,830.06,210.08,827.68Z"/><path class="cls-30" d="M210.08,827.68a1.53,1.53,0,0,0-1.92,0c-2.21,2.38-4,4.25-4,6.52,0,1.9,9.4,1.9,9.4,0C213.58,832.09,212.29,830.06,210.08,827.68Z"/><path class="cls-31" d="M210.08,827.68a1.53,1.53,0,0,0-1.92,0c-2.21,2.38-4,4.25-4,6.47,0,1.9,9.36,1.9,9.36,0C213.56,832.08,212.29,830.06,210.08,827.68Z"/><path class="cls-32" d="M210.08,827.68a1.53,1.53,0,0,0-1.92,0c-2.21,2.38-3.93,4.24-3.93,6.43,0,1.9,9.31,1.9,9.31,0S212.29,830.06,210.08,827.68Z"/><path class="cls-33" d="M210.08,827.68a1.53,1.53,0,0,0-1.92,0c-2.21,2.38-3.91,4.24-3.91,6.38,0,1.9,9.26,1.9,9.26,0S212.29,830.06,210.08,827.68Z"/><path class="cls-34" d="M210.08,827.68a1.53,1.53,0,0,0-1.92,0c-2.21,2.38-3.89,4.23-3.89,6.34,0,1.9,9.22,1.9,9.22,0S212.29,830.06,210.08,827.68Z"/><path class="cls-35" d="M210.08,827.68a1.53,1.53,0,0,0-1.92,0c-2.21,2.38-3.87,4.22-3.87,6.29,0,1.9,9.18,1.9,9.18,0S212.29,830.06,210.08,827.68Z"/><path class="cls-36" d="M210.08,827.68a1.53,1.53,0,0,0-1.92,0c-2.21,2.38-3.84,4.22-3.84,6.24s9.13,1.9,9.13,0S212.29,830.06,210.08,827.68Z"/><path class="cls-37" d="M210.08,827.68a1.53,1.53,0,0,0-1.92,0c-2.21,2.38-3.82,4.21-3.82,6.2s9.08,1.9,9.08,0S212.29,830.06,210.08,827.68Z"/><path class="cls-38" d="M210.08,827.68a1.53,1.53,0,0,0-1.92,0c-2.21,2.38-3.8,4.2-3.8,6.15s9,1.9,9,0S212.29,830.06,210.08,827.68Z"/><path class="cls-39" d="M210.08,827.68a1.53,1.53,0,0,0-1.92,0c-2.21,2.38-3.77,4.2-3.77,6.11s9,1.9,9,0S212.29,830.06,210.08,827.68Z"/><path class="cls-40" d="M210.08,827.68a1.53,1.53,0,0,0-1.92,0c-2.21,2.38-3.75,4.19-3.75,6.06s8.94,1.9,8.94,0C213.35,832,212.29,830.06,210.08,827.68Z"/><path class="cls-41" d="M210.08,827.68a1.53,1.53,0,0,0-1.92,0c-2.21,2.38-3.73,4.19-3.73,6s8.9,1.9,8.9,0C213.33,832,212.29,830.06,210.08,827.68Z"/><path class="cls-42" d="M210.08,827.68a1.53,1.53,0,0,0-1.92,0c-2.21,2.38-3.7,4.18-3.7,6s8.85,1.9,8.85,0C213.31,832,212.29,830.06,210.08,827.68Z"/><path class="cls-43" d="M210.08,827.68a1.53,1.53,0,0,0-1.92,0c-2.21,2.38-3.68,4.17-3.68,5.92s8.8,1.9,8.8,0C213.28,832,212.29,830.06,210.08,827.68Z"/><path class="cls-44" d="M210.08,827.68a1.53,1.53,0,0,0-1.92,0c-2.21,2.38-3.66,4.17-3.66,5.88,0,1.9,8.76,1.9,8.76,0C213.26,832,212.29,830.06,210.08,827.68Z"/><path class="cls-45" d="M210.08,827.68a1.53,1.53,0,0,0-1.92,0c-2.21,2.38-3.64,4.16-3.64,5.83,0,1.9,8.72,1.9,8.72,0C213.24,832,212.29,830.06,210.08,827.68Z"/><path class="cls-46" d="M210.08,827.68a1.53,1.53,0,0,0-1.92,0c-2.21,2.38-3.61,4.15-3.61,5.78,0,1.9,8.67,1.9,8.67,0C213.22,832,212.29,830.06,210.08,827.68Z"/><path class="cls-47" d="M210.08,827.68a1.53,1.53,0,0,0-1.92,0c-2.21,2.38-3.59,4.15-3.59,5.74,0,1.9,8.62,1.9,8.62,0C213.19,831.94,212.29,830.06,210.08,827.68Z"/><path class="cls-48" d="M210.08,827.68a1.53,1.53,0,0,0-1.92,0c-2.21,2.38-3.57,4.14-3.57,5.69,0,1.9,8.58,1.9,8.58,0C213.17,831.93,212.29,830.06,210.08,827.68Z"/><path class="cls-49" d="M210.08,827.68a1.53,1.53,0,0,0-1.92,0c-2.21,2.38-3.54,4.14-3.54,5.65,0,1.9,8.53,1.9,8.53,0C213.15,831.92,212.29,830.06,210.08,827.68Z"/><path class="cls-50" d="M210.08,827.68a1.53,1.53,0,0,0-1.92,0c-2.21,2.38-3.52,4.13-3.52,5.6,0,1.9,8.48,1.9,8.48,0C213.12,831.91,212.29,830.06,210.08,827.68Z"/><path class="cls-51" d="M210.08,827.68a1.53,1.53,0,0,0-1.92,0c-2.21,2.38-3.5,4.12-3.5,5.55,0,1.9,8.44,1.9,8.44,0C213.1,831.9,212.29,830.06,210.08,827.68Z"/><path class="cls-52" d="M210.08,827.68a1.53,1.53,0,0,0-1.92,0c-2.21,2.38-3.47,4.12-3.47,5.51,0,1.9,8.39,1.9,8.39,0C213.08,831.89,212.29,830.06,210.08,827.68Z"/><path class="cls-53" d="M210.08,827.68a1.53,1.53,0,0,0-1.92,0c-2.21,2.38-3.45,4.11-3.45,5.46,0,1.9,8.34,1.9,8.34,0C213.05,831.89,212.29,830.06,210.08,827.68Z"/><path class="cls-54" d="M210.08,827.68a1.53,1.53,0,0,0-1.92,0c-2.21,2.38-3.43,4.11-3.43,5.42,0,1.9,8.3,1.9,8.3,0C213,831.88,212.29,830.06,210.08,827.68Z"/><path class="cls-55" d="M210.08,827.68a1.53,1.53,0,0,0-1.92,0c-2.21,2.38-3.41,4.1-3.41,5.37,0,1.9,8.26,1.9,8.26,0C213,831.87,212.29,830.06,210.08,827.68Z"/><path class="cls-56" d="M210.08,827.68a1.53,1.53,0,0,0-1.92,0c-2.21,2.38-3.38,4.09-3.38,5.32,0,1.9,8.21,1.9,8.21,0C213,831.86,212.29,830.06,210.08,827.68Z"/><path class="cls-57" d="M210.08,827.68a1.53,1.53,0,0,0-1.92,0c-2.21,2.38-3.36,4.09-3.36,5.28,0,1.9,8.16,1.9,8.16,0C213,831.85,212.29,830.06,210.08,827.68Z"/><path class="cls-58" d="M210.08,827.68a1.53,1.53,0,0,0-1.92,0c-2.21,2.38-3.34,4.08-3.34,5.23,0,1.9,8.12,1.9,8.12,0C212.94,831.84,212.29,830.06,210.08,827.68Z"/><path class="cls-59" d="M210.08,827.68a1.53,1.53,0,0,0-1.92,0c-2.21,2.38-3.31,4.07-3.31,5.19,0,1.9,8.07,1.9,8.07,0C212.92,831.83,212.29,830.06,210.08,827.68Z"/><path class="cls-60" d="M210.08,827.68a1.53,1.53,0,0,0-1.92,0c-2.21,2.38-3.29,4.07-3.29,5.14,0,1.9,8,1.9,8,0C212.89,831.82,212.29,830.06,210.08,827.68Z"/><path class="cls-61" d="M210.08,827.68a1.53,1.53,0,0,0-1.92,0c-2.21,2.38-3.27,4.06-3.27,5.09,0,1.91,8,1.9,8,0C212.87,831.81,212.29,830.06,210.08,827.68Z"/><path class="cls-62" d="M210.08,827.68a1.53,1.53,0,0,0-1.92,0c-2.21,2.38-3.24,4.06-3.24,5.05,0,1.9,7.93,1.9,7.93,0C212.85,831.8,212.29,830.06,210.08,827.68Z"/><path class="cls-63" d="M210.08,827.68a1.53,1.53,0,0,0-1.92,0c-2.21,2.38-3.22,4.05-3.22,5,0,1.9,7.88,1.9,7.88,0C212.82,831.8,212.29,830.06,210.08,827.68Z"/><path class="cls-64" d="M210.08,827.68a1.53,1.53,0,0,0-1.92,0c-2.21,2.38-3.2,4-3.2,5,0,1.9,7.84,1.9,7.84,0C212.8,831.79,212.29,830.06,210.08,827.68Z"/><path class="cls-65" d="M210.08,827.68a1.53,1.53,0,0,0-1.92,0c-2.21,2.38-3.18,4-3.18,4.91,0,1.9,7.8,1.9,7.8,0C212.78,831.78,212.29,830.06,210.08,827.68Z"/><path class="cls-66" d="M210.08,827.68a1.53,1.53,0,0,0-1.92,0c-2.21,2.38-3.15,4-3.15,4.87,0,1.9,7.75,1.9,7.75,0C212.76,831.77,212.29,830.06,210.08,827.68Z"/><path class="cls-67" d="M210.08,827.68a1.53,1.53,0,0,0-1.92,0c-2.21,2.38-3.13,4-3.13,4.82,0,1.9,7.7,1.9,7.7,0C212.73,831.76,212.29,830.06,210.08,827.68Z"/><path class="cls-68" d="M210.08,827.68a1.53,1.53,0,0,0-1.92,0c-2.21,2.38-3.11,4-3.11,4.77,0,1.9,7.66,1.9,7.66,0C212.71,831.75,212.29,830.06,210.08,827.68Z"/><path class="cls-69" d="M210.08,827.68a1.53,1.53,0,0,0-1.92,0c-2.21,2.38-3.08,4-3.08,4.73,0,1.9,7.61,1.9,7.61,0C212.69,831.74,212.29,830.06,210.08,827.68Z"/><path class="cls-70" d="M210.08,827.68a1.53,1.53,0,0,0-1.92,0c-2.21,2.38-3.06,4-3.06,4.68,0,1.9,7.56,1.9,7.56,0C212.66,831.73,212.29,830.06,210.08,827.68Z"/><path class="cls-71" d="M210.08,827.68a1.53,1.53,0,0,0-1.92,0c-2.21,2.38-3,4-3,4.64,0,1.9,7.52,1.9,7.52,0C212.64,831.72,212.29,830.06,210.08,827.68Z"/><path class="cls-72" d="M210.08,827.68a1.53,1.53,0,0,0-1.92,0c-2.21,2.38-3,4-3,4.59,0,1.9,7.47,1.9,7.47,0C212.62,831.71,212.29,830.06,210.08,827.68Z"/><path class="cls-73" d="M210.08,827.68a1.53,1.53,0,0,0-1.92,0c-2.21,2.38-3,4-3,4.54,0,1.9,7.42,1.9,7.42,0C212.59,831.71,212.29,830.06,210.08,827.68Z"/><path class="cls-74" d="M210.08,827.68a1.53,1.53,0,0,0-1.92,0c-2.21,2.38-3,4-3,4.5,0,1.9,7.38,1.9,7.38,0C212.57,831.7,212.29,830.06,210.08,827.68Z"/><path class="cls-75" d="M210.08,827.68a1.53,1.53,0,0,0-1.92,0c-2.21,2.38-2.95,4-2.95,4.45,0,1.9,7.34,1.9,7.34,0C212.55,831.69,212.29,830.06,210.08,827.68Z"/><path class="cls-76" d="M210.08,827.68a1.53,1.53,0,0,0-1.92,0c-2.21,2.38-2.92,4-2.92,4.41,0,1.9,7.29,1.9,7.29,0C212.53,831.68,212.29,830.06,210.08,827.68Z"/><path class="cls-77" d="M210.08,827.68a1.53,1.53,0,0,0-1.92,0c-2.21,2.38-2.9,4-2.9,4.36,0,1.9,7.24,1.9,7.24,0C212.5,831.67,212.29,830.06,210.08,827.68Z"/><path class="cls-78" d="M210.08,827.68a1.53,1.53,0,0,0-1.92,0c-2.21,2.38-2.88,4-2.88,4.31,0,1.9,7.2,1.9,7.2,0C212.48,831.66,212.29,830.06,210.08,827.68Z"/><path class="cls-79" d="M210.08,827.68a1.53,1.53,0,0,0-1.92,0c-2.21,2.38-2.85,4-2.85,4.27,0,1.9,7.15,1.9,7.15,0C212.46,831.65,212.29,830.06,210.08,827.68Z"/><path class="cls-80" d="M210.08,827.68a1.53,1.53,0,0,0-1.92,0c-2.21,2.38-2.83,3.94-2.83,4.22,0,1.9,7.1,1.9,7.1,0C212.43,831.64,212.29,830.06,210.08,827.68Z"/><path class="cls-81" d="M210.08,827.68a1.53,1.53,0,0,0-1.92,0c-2.21,2.38-2.81,3.94-2.81,4.18,0,1.9,7.06,1.9,7.06,0C212.41,831.63,212.29,830.06,210.08,827.68Z"/><path class="cls-82" d="M210.08,827.68a1.53,1.53,0,0,0-1.92,0c-2.21,2.38-2.78,3.93-2.78,4.13,0,1.9,7,1.9,7,0C212.39,831.62,212.29,830.06,210.08,827.68Z"/><path class="cls-83" d="M210.08,827.68a1.53,1.53,0,0,0-1.92,0c-2.21,2.38-2.76,3.92-2.76,4.08,0,1.9,7,1.9,7,0C212.36,831.62,212.29,830.06,210.08,827.68Z"/><path class="cls-84" d="M210.08,827.68a1.53,1.53,0,0,0-1.92,0c-2.21,2.38-2.74,3.92-2.74,4,0,1.9,6.92,1.9,6.92,0C212.34,831.61,212.29,830.06,210.08,827.68Z"/><path class="cls-85" d="M210.08,827.68a1.53,1.53,0,0,0-1.92,0,11.32,11.32,0,0,0-2.72,4c0,1.9,6.88,1.9,6.88,0C212.32,831.6,212.29,830.06,210.08,827.68Z"/><path class="cls-86" d="M210.08,827.68a1.53,1.53,0,0,0-1.92,0,11.38,11.38,0,0,0-2.69,4c0,1.9,6.83,1.9,6.83,0C212.3,831.59,212.29,830.06,210.08,827.68Z"/><path class="cls-87" d="M210.08,827.68a1.53,1.53,0,0,0-1.92,0,11.66,11.66,0,0,0-2.67,3.9c0,1.9,6.78,1.9,6.78,0C212.27,831.58,212.29,830.06,210.08,827.68Z"/></g></svg>