<svg xmlns="http://www.w3.org/2000/svg" viewBox="0 0 432 846"><defs><style>.cls-1{fill:#82c341;}.cls-2{fill:#83c441;}.cls-3{fill:#83c442;}.cls-4{fill:#84c442;}.cls-5{fill:#85c443;}.cls-6{fill:#86c444;}.cls-7{fill:#86c544;}.cls-8{fill:#87c545;}.cls-9{fill:#88c546;}.cls-10{fill:#89c547;}.cls-11{fill:#89c648;}.cls-12{fill:#8ac648;}.cls-13{fill:#8ac649;}.cls-14{fill:#8bc64a;}.cls-15{fill:#8cc74b;}.cls-16{fill:#8cc74c;}.cls-17{fill:#8dc74c;}.cls-18{fill:#8dc74d;}.cls-19{fill:#8ec74e;}.cls-20{fill:#8fc84f;}.cls-21{fill:#8fc850;}.cls-22{fill:#90c850;}.cls-23{fill:#90c851;}.cls-24{fill:#91c852;}.cls-25{fill:#91c952;}.cls-26{fill:#92c953;}.cls-27{fill:#92c954;}.cls-28{fill:#93c955;}.cls-29{fill:#94c956;}.cls-30{fill:#94ca57;}.cls-31{fill:#95ca57;}.cls-32{fill:#95ca58;}.cls-33{fill:#96ca59;}.cls-34{fill:#96ca5a;}.cls-35{fill:#97cb5a;}.cls-36{fill:#97cb5b;}.cls-37{fill:#98cb5c;}.cls-38{fill:#98cb5d;}.cls-39{fill:#99cb5e;}.cls-40{fill:#99cc5e;}.cls-41{fill:#99cc5f;}.cls-42{fill:#9acc60;}.cls-43{fill:#9acc61;}.cls-44{fill:#9bcc61;}.cls-45{fill:#9bcd62;}.cls-46{fill:#9ccd63;}.cls-47{fill:#9ccd64;}.cls-48{fill:#9dcd65;}.cls-49{fill:#9ece66;}.cls-50{fill:#9ece67;}.cls-51{fill:#9fce68;}.cls-52{fill:#9fce69;}.cls-53{fill:#a0ce69;}.cls-54{fill:#a0cf6a;}.cls-55{fill:#a1cf6b;}.cls-56{fill:#a1cf6c;}.cls-57{fill:#a1cf6d;}.cls-58{fill:#a2d06d;}.cls-59{fill:#a2d06e;}.cls-60{fill:#a3d06f;}.cls-61{fill:#a3d070;}.cls-62{fill:#a4d070;}.cls-63{fill:#a4d171;}.cls-64{fill:#a5d172;}.cls-65{fill:#a5d173;}.cls-66{fill:#a6d174;}.cls-67{fill:#a7d275;}.cls-68{fill:#a7d276;}.cls-69{fill:#a8d277;}.cls-70{fill:#a8d278;}.cls-71{fill:#a9d378;}.cls-72{fill:#a9d379;}.cls-73{fill:#aad37a;}.cls-74{fill:#aad37b;}.cls-75{fill:#abd37b;}.cls-76{fill:#abd47c;}.cls-77{fill:#acd47d;}.cls-78{fill:#add47e;}.cls-79{fill:#add47f;}.cls-80{fill:#aed580;}.cls-81{fill:#afd581;}.cls-82{fill:#afd582;}.cls-83{fill:#b0d682;}.cls-84{fill:#b0d683;}.cls-85{fill:#b1d684;}.cls-86{fill:#b1d685;}.cls-87{fill:#b2d685;}.cls-88{fill:#b2d786;}.cls-89{fill:#b3d787;}.cls-90{fill:#b4d788;}.cls-91{fill:#b4d889;}.cls-92{fill:#b5d889;}.cls-93{fill:#b5d88a;}.cls-94{fill:#b5d88b;}.cls-95{fill:#b6d98c;}.cls-96{fill:#b7d98d;}.cls-97{fill:#b7d98e;}.cls-98{fill:#b8d98e;}.cls-99{fill:#b8da8f;}.cls-100{fill:#b9da90;}.cls-101{fill:#bada91;}.cls-102{fill:#badb92;}.cls-103{fill:#bbdb92;}.cls-104{fill:#bbdb93;}.cls-105{fill:#bcdb94;}.cls-106{fill:#bcdc94;}.cls-107{fill:#bddc95;}.cls-108{fill:#bddc96;}.cls-109{fill:#bedc96;}.cls-110{fill:#bedc97;}.cls-111{fill:#bfdd98;}.cls-112{fill:#bfdd99;}.cls-113{fill:#c0dd99;}.cls-114{fill:#c0dd9a;}.cls-115{fill:#c1de9b;}.cls-116{fill:#c2de9c;}.cls-117{fill:#c2de9d;}.cls-118{fill:#c3df9d;}.cls-119{fill:#c3df9e;}.cls-120{fill:#c4df9f;}.cls-121{fill:#c4dfa0;}.cls-122{fill:#c5e0a0;}.cls-123{fill:#c5e0a1;}.cls-124{fill:#c6e0a2;}.cls-125{fill:#84c443;}.cls-126{fill:#8bc649;}.cls-127{fill:#8dc74e;}.cls-128{fill:#8ec84f;}.cls-129{fill:#91c953;}.cls-130{fill:#93c956;}.cls-131{fill:#94ca56;}.cls-132{fill:#95ca59;}.cls-133{fill:#96cb5a;}.cls-134{fill:#97cb5c;}.cls-135{fill:#9acc5f;}.cls-136{fill:#9bcc62;}.cls-137{fill:#9dcd66;}.cls-138{fill:#a2cf6d;}.cls-139{fill:#a4d071;}.cls-140{fill:#fffbdd;opacity:0.57;}</style></defs><g id="Green_Leaf" data-name="Green Leaf"><path class="cls-1" d="M209.43,765.69a1,1,0,0,0-1.93,0c-2.2,4.77-7.66,18.18-7.66,38.06,0,25.09,5,31.93,5,31.93a7.55,7.55,0,0,0,7.46,0s4.35-6.84,4.35-31.93C216.62,783.87,211.63,770.46,209.43,765.69Z"/><path class="cls-2" d="M209.42,765.69a1,1,0,0,0-1.91,0c-2.2,4.75-7.65,18.11-7.65,37.92,0,25,5,31.82,5,31.82a7.52,7.52,0,0,0,7.43,0s4.33-6.82,4.33-31.82C216.58,783.8,211.62,770.44,209.42,765.69Z"/><path class="cls-3" d="M209.42,765.68a1,1,0,0,0-1.91,0c-2.19,4.74-7.62,18.05-7.62,37.79,0,24.91,4.94,31.7,4.94,31.7a7.47,7.47,0,0,0,7.4,0s4.32-6.79,4.32-31.7C216.55,783.73,211.61,770.42,209.42,765.68Z"/><path class="cls-4" d="M209.42,765.68a1,1,0,0,0-1.91,0c-2.18,4.72-7.6,18-7.6,37.65,0,24.82,4.92,31.58,4.92,31.58a7.46,7.46,0,0,0,7.38,0s4.3-6.76,4.3-31.58C216.51,783.66,211.6,770.4,209.42,765.68Z"/><path class="cls-5" d="M209.41,765.68a1,1,0,0,0-1.89,0c-2.18,4.7-7.59,17.91-7.59,37.51,0,24.72,4.91,31.47,4.91,31.47a7.43,7.43,0,0,0,7.35,0s4.28-6.75,4.28-31.47C216.47,783.59,211.58,770.38,209.41,765.68Z"/><path class="cls-5" d="M209.41,765.68a1,1,0,0,0-1.89,0c-2.17,4.68-7.56,17.84-7.56,37.37,0,24.63,4.89,31.35,4.89,31.35a7.4,7.4,0,0,0,7.32,0s4.27-6.72,4.27-31.35C216.44,783.52,211.57,770.36,209.41,765.68Z"/><path class="cls-6" d="M209.4,765.67a1,1,0,0,0-1.88,0c-2.16,4.67-7.54,17.79-7.54,37.24,0,24.54,4.87,31.24,4.87,31.24a7.39,7.39,0,0,0,7.3,0s4.25-6.7,4.25-31.24C216.4,783.46,211.56,770.34,209.4,765.67Z"/><path class="cls-7" d="M209.4,765.67a1,1,0,0,0-1.88,0c-2.14,4.65-7.51,17.72-7.51,37.1,0,24.45,4.85,31.12,4.85,31.12a7.36,7.36,0,0,0,7.27,0s4.23-6.67,4.23-31.12C216.36,783.39,211.55,770.32,209.4,765.67Z"/><path class="cls-8" d="M209.39,765.67a1,1,0,0,0-1.86,0c-2.14,4.63-7.5,17.65-7.5,37,0,24.37,4.84,31,4.84,31a7.31,7.31,0,0,0,7.24,0s4.22-6.64,4.22-31C216.33,783.32,211.53,770.3,209.39,765.67Z"/><path class="cls-8" d="M209.39,765.67a1,1,0,0,0-1.86,0c-2.13,4.61-7.47,17.58-7.47,36.81,0,24.28,4.81,30.9,4.81,30.9a7.33,7.33,0,0,0,7.22,0s4.2-6.62,4.2-30.9C216.29,783.25,211.52,770.28,209.39,765.67Z"/><path class="cls-9" d="M209.39,765.66a1,1,0,0,0-1.86,0c-2.12,4.6-7.45,17.52-7.45,36.68,0,24.19,4.8,30.78,4.8,30.78a7.27,7.27,0,0,0,7.19,0s4.18-6.59,4.18-30.78C216.25,783.18,211.51,770.26,209.39,765.66Z"/><path class="cls-9" d="M209.38,765.66a1,1,0,0,0-1.85,0c-2.11,4.58-7.43,17.45-7.43,36.54,0,24.1,4.78,30.67,4.78,30.67a7.26,7.26,0,0,0,7.17,0s4.17-6.57,4.17-30.67C216.22,783.11,211.5,770.24,209.38,765.66Z"/><path class="cls-10" d="M209.38,765.66a1,1,0,0,0-1.84,0c-2.11,4.56-7.41,17.39-7.41,36.4,0,24,4.76,30.55,4.76,30.55a7.23,7.23,0,0,0,7.14,0s4.15-6.55,4.15-30.55C216.18,783.05,211.49,770.22,209.38,765.66Z"/><path class="cls-11" d="M209.37,765.66a1,1,0,0,0-1.83,0c-2.1,4.54-7.39,17.32-7.39,36.26,0,23.91,4.75,30.43,4.75,30.43a7.17,7.17,0,0,0,7.11,0s4.14-6.52,4.14-30.43C216.15,783,211.47,770.2,209.37,765.66Z"/><path class="cls-12" d="M209.37,765.65a1,1,0,0,0-1.83,0c-2.09,4.53-7.36,17.26-7.36,36.13,0,23.82,4.72,30.32,4.72,30.32a7.18,7.18,0,0,0,7.08,0s4.13-6.5,4.13-30.32C216.11,782.91,211.46,770.18,209.37,765.65Z"/><path class="cls-13" d="M209.36,765.65a1,1,0,0,0-1.81,0c-2.09,4.51-7.35,17.19-7.35,36,0,23.73,4.71,30.2,4.71,30.2a7.12,7.12,0,0,0,7.05,0s4.11-6.47,4.11-30.2C216.07,782.84,211.45,770.16,209.36,765.65Z"/><path class="cls-14" d="M209.36,765.65a1,1,0,0,0-1.81,0c-2.08,4.49-7.32,17.12-7.32,35.85,0,23.64,4.69,30.09,4.69,30.09a7.12,7.12,0,0,0,7,0s4.1-6.45,4.1-30.09C216,782.77,211.44,770.14,209.36,765.65Z"/><path class="cls-14" d="M209.36,765.65a1,1,0,0,0-1.81,0c-2.07,4.47-7.3,17.05-7.3,35.71,0,23.55,4.67,30,4.67,30a7.08,7.08,0,0,0,7,0s4.08-6.42,4.08-30C216,782.7,211.42,770.12,209.36,765.65Z"/><path class="cls-15" d="M209.35,765.64a1,1,0,0,0-1.8,0c-2.06,4.46-7.27,17-7.27,35.58,0,23.46,4.65,29.85,4.65,29.85a7,7,0,0,0,7,0s4.06-6.39,4.06-29.85C216,782.64,211.41,770.1,209.35,765.64Z"/><path class="cls-16" d="M209.35,765.64a1,1,0,0,0-1.79,0c-2.06,4.44-7.26,16.93-7.26,35.44,0,23.36,4.64,29.74,4.64,29.74a7,7,0,0,0,6.94,0s4.05-6.38,4.05-29.74C215.93,782.57,211.4,770.08,209.35,765.64Z"/><path class="cls-17" d="M209.34,765.64a.94.94,0,0,0-1.78,0c-2.05,4.42-7.24,16.86-7.24,35.3,0,23.27,4.62,29.62,4.62,29.62a7,7,0,0,0,6.92,0s4-6.35,4-29.62C215.89,782.5,211.39,770.06,209.34,765.64Z"/><path class="cls-18" d="M209.34,765.64a.94.94,0,0,0-1.78,0c-2,4.4-7.21,16.79-7.21,35.16,0,23.18,4.6,29.5,4.6,29.5a7,7,0,0,0,6.89,0s4-6.32,4-29.5C215.85,782.43,211.38,770,209.34,765.64Z"/><path class="cls-19" d="M209.34,765.63a.94.94,0,0,0-1.78,0c-2,4.39-7.19,16.73-7.19,35,0,23.09,4.58,29.39,4.58,29.39a7,7,0,0,0,6.87,0s4-6.3,4-29.39C215.82,782.36,211.36,770,209.34,765.63Z"/><path class="cls-19" d="M209.33,765.63a.93.93,0,0,0-1.76,0c-2,4.37-7.17,16.66-7.17,34.89,0,23,4.56,29.27,4.56,29.27a6.92,6.92,0,0,0,6.84,0s4-6.27,4-29.27C215.78,782.29,211.35,770,209.33,765.63Z"/><path class="cls-20" d="M209.33,765.63a.93.93,0,0,0-1.76,0c-2,4.35-7.15,16.6-7.15,34.75,0,22.91,4.55,29.16,4.55,29.16a6.89,6.89,0,0,0,6.81,0s4-6.25,4-29.16C215.75,782.23,211.34,770,209.33,765.63Z"/><path class="cls-21" d="M209.32,765.63a.92.92,0,0,0-1.75,0c-2,4.33-7.12,16.53-7.12,34.61,0,22.82,4.52,29,4.52,29a6.89,6.89,0,0,0,6.79,0s4-6.22,4-29C215.71,782.16,211.33,770,209.32,765.63Z"/><path class="cls-22" d="M209.32,765.62a.92.92,0,0,0-1.74,0c-2,4.32-7.11,16.47-7.11,34.48C200.47,822.83,205,829,205,829a6.83,6.83,0,0,0,6.76,0s3.93-6.19,3.93-28.92C215.67,782.09,211.31,769.94,209.32,765.62Z"/><path class="cls-23" d="M209.31,765.62a.91.91,0,0,0-1.73,0c-2,4.3-7.09,16.4-7.09,34.34,0,22.63,4.5,28.81,4.5,28.81a6.8,6.8,0,0,0,6.73,0s3.92-6.18,3.92-28.81C215.64,782,211.3,769.92,209.31,765.62Z"/><path class="cls-24" d="M209.31,765.62a.91.91,0,0,0-1.73,0c-2,4.28-7.06,16.33-7.06,34.2,0,22.54,4.47,28.69,4.47,28.69a6.79,6.79,0,0,0,6.71,0s3.9-6.15,3.9-28.69C215.6,782,211.29,769.9,209.31,765.62Z"/><path class="cls-25" d="M209.31,765.62a.91.91,0,0,0-1.73,0c-2,4.26-7,16.26-7,34.06,0,22.45,4.46,28.58,4.46,28.58a6.75,6.75,0,0,0,6.67,0s3.89-6.13,3.89-28.58C215.56,781.88,211.28,769.88,209.31,765.62Z"/><path class="cls-26" d="M209.3,765.61a.91.91,0,0,0-1.71,0c-2,4.26-7,16.21-7,33.93C200.57,821.9,205,828,205,828a6.72,6.72,0,0,0,6.64,0s3.88-6.1,3.88-28.46C215.53,781.82,211.27,769.87,209.3,765.61Z"/><path class="cls-27" d="M209.3,765.61a.91.91,0,0,0-1.71,0c-2,4.24-7,16.14-7,33.79,0,22.27,4.42,28.34,4.42,28.34a6.68,6.68,0,0,0,6.62,0s3.86-6.07,3.86-28.34C215.49,781.75,211.25,769.85,209.3,765.61Z"/><path class="cls-28" d="M209.29,765.61a.9.9,0,0,0-1.7,0c-2,4.22-7,16.07-7,33.65,0,22.18,4.4,28.23,4.4,28.23a6.68,6.68,0,0,0,6.59,0s3.84-6,3.84-28.23C215.45,781.68,211.24,769.83,209.29,765.61Z"/><path class="cls-28" d="M209.29,765.61a.9.9,0,0,0-1.7,0c-1.94,4.2-7,16-7,33.51,0,22.09,4.38,28.11,4.38,28.11a6.65,6.65,0,0,0,6.57,0s3.83-6,3.83-28.11C215.42,781.61,211.23,769.81,209.29,765.61Z"/><path class="cls-29" d="M209.28,765.6a.89.89,0,0,0-1.68,0c-1.94,4.19-6.93,15.94-6.93,33.37,0,22,4.36,28,4.36,28a6.62,6.62,0,0,0,6.54,0s3.81-6,3.81-28C215.38,781.54,211.22,769.79,209.28,765.6Z"/><path class="cls-30" d="M209.28,765.6a.89.89,0,0,0-1.68,0c-1.92,4.17-6.91,15.87-6.91,33.23,0,21.91,4.35,27.89,4.35,27.89a6.59,6.59,0,0,0,6.51,0s3.79-6,3.79-27.89C215.34,781.47,211.2,769.77,209.28,765.6Z"/><path class="cls-31" d="M209.28,765.6a.89.89,0,0,0-1.68,0c-1.91,4.15-6.89,15.8-6.89,33.09,0,21.82,4.33,27.77,4.33,27.77a6.55,6.55,0,0,0,6.49,0s3.78-6,3.78-27.77C215.31,781.4,211.19,769.75,209.28,765.6Z"/><path class="cls-32" d="M209.27,765.6a.87.87,0,0,0-1.66,0c-1.91,4.13-6.87,15.74-6.87,32.95,0,21.73,4.31,27.66,4.31,27.66a6.55,6.55,0,0,0,6.46,0s3.76-5.93,3.76-27.66C215.27,781.34,211.18,769.73,209.27,765.6Z"/><path class="cls-33" d="M209.27,765.59a.88.88,0,0,0-1.66,0c-1.9,4.12-6.85,15.68-6.85,32.82,0,21.64,4.3,27.54,4.3,27.54a6.49,6.49,0,0,0,6.43,0s3.75-5.9,3.75-27.54C215.24,781.27,211.17,769.71,209.27,765.59Z"/><path class="cls-34" d="M209.26,765.59a.87.87,0,0,0-1.65,0c-1.89,4.1-6.82,15.61-6.82,32.68,0,21.55,4.27,27.43,4.27,27.43a6.52,6.52,0,0,0,6.41,0s3.73-5.88,3.73-27.43C215.2,781.2,211.16,769.69,209.26,765.59Z"/><path class="cls-35" d="M209.26,765.59a.87.87,0,0,0-1.65,0,76.86,76.86,0,0,0-6.8,32.54c0,21.46,4.26,27.31,4.26,27.31a6.46,6.46,0,0,0,6.38,0s3.71-5.85,3.71-27.31C215.16,781.13,211.14,769.67,209.26,765.59Z"/><path class="cls-36" d="M209.25,765.59a.86.86,0,0,0-1.63,0c-1.88,4.06-6.78,15.47-6.78,32.4,0,21.37,4.24,27.19,4.24,27.19a6.4,6.4,0,0,0,6.35,0s3.7-5.82,3.7-27.19C215.13,781.06,211.13,769.65,209.25,765.59Z"/><path class="cls-37" d="M209.25,765.58a.86.86,0,0,0-1.63,0,76.06,76.06,0,0,0-6.76,32.27c0,21.27,4.22,27.08,4.22,27.08a6.42,6.42,0,0,0,6.33,0s3.68-5.81,3.68-27.08C215.09,781,211.12,769.63,209.25,765.58Z"/><path class="cls-38" d="M209.25,765.58a.86.86,0,0,0-1.63,0,75.78,75.78,0,0,0-6.73,32.13c0,21.18,4.2,27,4.2,27a6.36,6.36,0,0,0,6.3,0s3.66-5.78,3.66-27C215.05,780.93,211.11,769.61,209.25,765.58Z"/><path class="cls-39" d="M209.24,765.58a.86.86,0,0,0-1.62,0,75.41,75.41,0,0,0-6.71,32c0,21.09,4.18,26.84,4.18,26.84a6.34,6.34,0,0,0,6.27,0s3.66-5.75,3.66-26.84C215,780.86,211.09,769.59,209.24,765.58Z"/><path class="cls-40" d="M209.24,765.58a.85.85,0,0,0-1.61,0,74.84,74.84,0,0,0-6.7,31.85c0,21,4.17,26.73,4.17,26.73a6.31,6.31,0,0,0,6.24,0s3.64-5.73,3.64-26.73C215,780.79,211.08,769.57,209.24,765.58Z"/><path class="cls-41" d="M209.23,765.57a.85.85,0,0,0-1.6,0A74.62,74.62,0,0,0,201,797.29c0,20.91,4.15,26.61,4.15,26.61a6.28,6.28,0,0,0,6.21,0s3.62-5.7,3.62-26.61C214.94,780.72,211.07,769.55,209.23,765.57Z"/><path class="cls-42" d="M209.23,765.57a.85.85,0,0,0-1.6,0A74.25,74.25,0,0,0,201,797.15c0,20.82,4.13,26.5,4.13,26.5a6.27,6.27,0,0,0,6.19,0s3.61-5.68,3.61-26.5C214.91,780.65,211.06,769.53,209.23,765.57Z"/><path class="cls-43" d="M209.23,765.57a.84.84,0,0,0-1.59,0A73.72,73.72,0,0,0,201,797c0,20.73,4.11,26.38,4.11,26.38a6.24,6.24,0,0,0,6.16,0s3.59-5.65,3.59-26.38C214.87,780.58,211.05,769.51,209.23,765.57Z"/><path class="cls-44" d="M209.22,765.57a.83.83,0,0,0-1.58,0,73.56,73.56,0,0,0-6.61,31.3c0,20.64,4.1,26.26,4.1,26.26a6.18,6.18,0,0,0,6.13,0s3.57-5.62,3.57-26.26C214.83,780.52,211,769.49,209.22,765.57Z"/><path class="cls-45" d="M209.22,765.56a.84.84,0,0,0-1.58,0,73.34,73.34,0,0,0-6.58,31.17c0,20.54,4.07,26.15,4.07,26.15a6.18,6.18,0,0,0,6.11,0s3.56-5.61,3.56-26.15C214.8,780.45,211,769.47,209.22,765.56Z"/><path class="cls-46" d="M209.21,765.56a.83.83,0,0,0-1.57,0,73,73,0,0,0-6.56,31c0,20.45,4.06,26,4.06,26a6.15,6.15,0,0,0,6.08,0s3.54-5.58,3.54-26C214.76,780.38,211,769.45,209.21,765.56Z"/><path class="cls-47" d="M209.21,765.56a.82.82,0,0,0-1.56,0,72.39,72.39,0,0,0-6.55,30.89c0,20.36,4.05,25.92,4.05,25.92a6.12,6.12,0,0,0,6,0s3.53-5.56,3.53-25.92C214.73,780.31,211,769.43,209.21,765.56Z"/><path class="cls-48" d="M209.2,765.56a.82.82,0,0,0-1.55,0,72.07,72.07,0,0,0-6.52,30.75c0,20.27,4,25.8,4,25.8a6.11,6.11,0,0,0,6,0s3.51-5.53,3.51-25.8C214.69,780.24,211,769.41,209.2,765.56Z"/><path class="cls-48" d="M209.2,765.55a.82.82,0,0,0-1.55,0,71.81,71.81,0,0,0-6.5,30.62c0,20.18,4,25.68,4,25.68a6.06,6.06,0,0,0,6,0s3.49-5.5,3.49-25.68C214.65,780.17,211,769.39,209.2,765.55Z"/><path class="cls-49" d="M209.2,765.55a.82.82,0,0,0-1.55,0A71.53,71.53,0,0,0,201.18,796c0,20.09,4,25.57,4,25.57a6.07,6.07,0,0,0,6,0s3.48-5.48,3.48-25.57C214.62,780.11,211,769.37,209.2,765.55Z"/><path class="cls-50" d="M209.19,765.55a.81.81,0,0,0-1.53,0,71,71,0,0,0-6.46,30.34c0,20,4,25.45,4,25.45a6,6,0,0,0,6,0s3.46-5.45,3.46-25.45C214.58,780,211,769.35,209.19,765.55Z"/><path class="cls-51" d="M209.19,765.55a.81.81,0,0,0-1.53,0,70.63,70.63,0,0,0-6.43,30.2c0,19.91,4,25.34,4,25.34a6,6,0,0,0,5.92,0s3.44-5.43,3.44-25.34C214.54,780,210.94,769.33,209.19,765.55Z"/><path class="cls-52" d="M209.18,765.54a.8.8,0,0,0-1.52,0,70.37,70.37,0,0,0-6.41,30.07c0,19.81,3.93,25.22,3.93,25.22a6,6,0,0,0,5.9,0s3.43-5.41,3.43-25.22C214.51,779.9,210.92,769.31,209.18,765.54Z"/><path class="cls-53" d="M209.18,765.54a.8.8,0,0,0-1.51,0,69.83,69.83,0,0,0-6.39,29.92c0,19.73,3.91,25.11,3.91,25.11a5.91,5.91,0,0,0,5.86,0s3.42-5.38,3.42-25.11C214.47,779.83,210.91,769.29,209.18,765.54Z"/><path class="cls-54" d="M209.17,765.54a.79.79,0,0,0-1.5,0,69.46,69.46,0,0,0-6.37,29.78c0,19.64,3.9,25,3.9,25a5.91,5.91,0,0,0,5.83,0s3.4-5.36,3.4-25C214.43,779.76,210.9,769.27,209.17,765.54Z"/><path class="cls-55" d="M209.17,765.54a.79.79,0,0,0-1.5,0,69.13,69.13,0,0,0-6.35,29.64c0,19.55,3.88,24.88,3.88,24.88a5.87,5.87,0,0,0,5.81,0s3.39-5.33,3.39-24.88C214.4,779.7,210.89,769.25,209.17,765.54Z"/><path class="cls-56" d="M209.17,765.53a.79.79,0,0,0-1.5,0A69.07,69.07,0,0,0,201.35,795c0,19.46,3.86,24.76,3.86,24.76a5.84,5.84,0,0,0,5.78,0s3.37-5.3,3.37-24.76C214.36,779.63,210.87,769.23,209.17,765.53Z"/><path class="cls-57" d="M209.16,765.53a.78.78,0,0,0-1.48,0,68.5,68.5,0,0,0-6.31,29.37c0,19.37,3.85,24.65,3.85,24.65a5.81,5.81,0,0,0,5.75,0s3.36-5.28,3.36-24.65C214.33,779.56,210.86,769.21,209.16,765.53Z"/><path class="cls-58" d="M209.16,765.53a.78.78,0,0,0-1.48,0,68.18,68.18,0,0,0-6.28,29.23c0,19.28,3.82,24.53,3.82,24.53a5.81,5.81,0,0,0,5.73,0s3.34-5.25,3.34-24.53C214.29,779.49,210.85,769.19,209.16,765.53Z"/><path class="cls-59" d="M209.15,765.53a.77.77,0,0,0-1.47,0,67.81,67.81,0,0,0-6.26,29.09c0,19.19,3.81,24.42,3.81,24.42a5.77,5.77,0,0,0,5.7,0s3.32-5.23,3.32-24.42C214.25,779.42,210.84,769.17,209.15,765.53Z"/><path class="cls-60" d="M209.15,765.52a.78.78,0,0,0-1.47,0,67.59,67.59,0,0,0-6.23,29c0,19.09,3.78,24.3,3.78,24.3a5.74,5.74,0,0,0,5.68,0s3.31-5.21,3.31-24.3C214.22,779.35,210.83,769.15,209.15,765.52Z"/><path class="cls-61" d="M209.14,765.52a.77.77,0,0,0-1.45,0,67.06,67.06,0,0,0-6.22,28.82c0,19,3.77,24.18,3.77,24.18a5.71,5.71,0,0,0,5.65,0s3.29-5.18,3.29-24.18C214.18,779.29,210.81,769.13,209.14,765.52Z"/><path class="cls-62" d="M209.14,765.52a.77.77,0,0,0-1.45,0,66.74,66.74,0,0,0-6.19,28.68c0,18.91,3.75,24.07,3.75,24.07a5.68,5.68,0,0,0,5.62,0s3.27-5.16,3.27-24.07C214.14,779.22,210.8,769.11,209.14,765.52Z"/><path class="cls-63" d="M209.14,765.52a.77.77,0,0,0-1.45,0,66.38,66.38,0,0,0-6.17,28.54c0,18.82,3.73,24,3.73,24a5.67,5.67,0,0,0,5.6,0s3.26-5.13,3.26-24C214.11,779.15,210.79,769.09,209.14,765.52Z"/><path class="cls-64" d="M209.13,765.51a.76.76,0,0,0-1.43,0,65.91,65.91,0,0,0-6.16,28.41c0,18.73,3.72,23.84,3.72,23.84a5.64,5.64,0,0,0,5.57,0s3.24-5.11,3.24-23.84C214.07,779.08,210.78,769.07,209.13,765.51Z"/><path class="cls-65" d="M209.13,765.51a.76.76,0,0,0-1.43,0,65.59,65.59,0,0,0-6.13,28.27c0,18.64,3.7,23.72,3.7,23.72a5.62,5.62,0,0,0,5.54,0s3.22-5.08,3.22-23.72C214,779,210.76,769.05,209.13,765.51Z"/><path class="cls-66" d="M209.12,765.51a.75.75,0,0,0-1.42,0,65.22,65.22,0,0,0-6.11,28.13c0,18.55,3.68,23.6,3.68,23.6a5.58,5.58,0,0,0,5.52,0s3.21-5,3.21-23.6C214,778.94,210.75,769,209.12,765.51Z"/><path class="cls-66" d="M209.12,765.51a.75.75,0,0,0-1.42,0,64.94,64.94,0,0,0-6.08,28c0,18.45,3.66,23.49,3.66,23.49a5.55,5.55,0,0,0,5.49,0S214,812,214,793.5C214,778.88,210.74,769,209.12,765.51Z"/><path class="cls-67" d="M209.11,765.5a.74.74,0,0,0-1.4,0,64.48,64.48,0,0,0-6.07,27.86c0,18.36,3.65,23.37,3.65,23.37a5.5,5.5,0,0,0,5.45,0s3.18-5,3.18-23.37C213.92,778.81,210.73,769,209.11,765.5Z"/><path class="cls-68" d="M209.11,765.5a.74.74,0,0,0-1.4,0,64.2,64.2,0,0,0-6,27.72c0,18.27,3.62,23.26,3.62,23.26a5.5,5.5,0,0,0,5.43,0s3.17-5,3.17-23.26C213.89,778.74,210.72,769,209.11,765.5Z"/><path class="cls-69" d="M209.11,765.5a.74.74,0,0,0-1.4,0,64,64,0,0,0-6,27.58c0,18.18,3.61,23.14,3.61,23.14a5.47,5.47,0,0,0,5.4,0s3.15-5,3.15-23.14C213.85,778.67,210.7,769,209.11,765.5Z"/><path class="cls-70" d="M209.1,765.5a.73.73,0,0,0-1.39,0,63.62,63.62,0,0,0-6,27.44c0,18.09,3.59,23,3.59,23a5.43,5.43,0,0,0,5.38,0s3.14-4.93,3.14-23C213.82,778.6,210.69,768.94,209.1,765.5Z"/><path class="cls-71" d="M209.1,765.49a.73.73,0,0,0-1.38,0,63.2,63.2,0,0,0-6,27.31c0,18,3.57,22.91,3.57,22.91a5.43,5.43,0,0,0,5.35,0s3.12-4.91,3.12-22.91C213.78,778.53,210.68,768.92,209.1,765.49Z"/><path class="cls-72" d="M209.09,765.49a.73.73,0,0,0-1.37,0,62.87,62.87,0,0,0-6,27.17c0,17.91,3.56,22.79,3.56,22.79a5.37,5.37,0,0,0,5.32,0s3.1-4.88,3.1-22.79C213.74,778.47,210.67,768.9,209.09,765.49Z"/><path class="cls-73" d="M209.09,765.49a.73.73,0,0,0-1.37,0,62.55,62.55,0,0,0-5.93,27c0,17.82,3.53,22.68,3.53,22.68a5.36,5.36,0,0,0,5.3,0s3.09-4.86,3.09-22.68C213.71,778.4,210.65,768.88,209.09,765.49Z"/><path class="cls-74" d="M209.09,765.49a.72.72,0,0,0-1.36,0,62,62,0,0,0-5.92,26.89c0,17.72,3.52,22.56,3.52,22.56a5.33,5.33,0,0,0,5.27,0s3.07-4.84,3.07-22.56C213.67,778.33,210.64,768.86,209.09,765.49Z"/><path class="cls-75" d="M209.08,765.48a.71.71,0,0,0-1.35,0,61.77,61.77,0,0,0-5.89,26.76c0,17.63,3.5,22.44,3.5,22.44a5.28,5.28,0,0,0,5.24,0s3-4.81,3-22.44C213.63,778.26,210.63,768.84,209.08,765.48Z"/><path class="cls-76" d="M209.08,765.48a.71.71,0,0,0-1.35,0,61.4,61.4,0,0,0-5.87,26.62c0,17.54,3.48,22.33,3.48,22.33a5.3,5.3,0,0,0,5.22,0s3-4.79,3-22.33C213.6,778.19,210.62,768.82,209.08,765.48Z"/><path class="cls-77" d="M209.07,765.48a.71.71,0,0,0-1.34,0A61.08,61.08,0,0,0,201.89,792c0,17.45,3.46,22.21,3.46,22.21a5.24,5.24,0,0,0,5.19,0s3-4.76,3-22.21C213.56,778.12,210.61,768.8,209.07,765.48Z"/><path class="cls-77" d="M209.07,765.48a.7.7,0,0,0-1.33,0,60.54,60.54,0,0,0-5.83,26.33c0,17.37,3.45,22.1,3.45,22.1a5.21,5.21,0,0,0,5.16,0s3-4.73,3-22.1C213.52,778.06,210.59,768.78,209.07,765.48Z"/><path class="cls-78" d="M209.06,765.47a.7.7,0,0,0-1.32,0,60.28,60.28,0,0,0-5.81,26.2c0,17.28,3.43,22,3.43,22a5.2,5.2,0,0,0,5.14,0s3-4.71,3-22C213.49,778,210.58,768.76,209.06,765.47Z"/><path class="cls-79" d="M209.06,765.47a.7.7,0,0,0-1.32,0A60,60,0,0,0,202,791.53c0,17.19,3.41,21.87,3.41,21.87a5.17,5.17,0,0,0,5.11,0s3-4.68,3-21.87C213.45,777.92,210.57,768.74,209.06,765.47Z"/><path class="cls-80" d="M209.06,765.47a.7.7,0,0,0-1.32,0A59.59,59.59,0,0,0,202,791.39c0,17.1,3.39,21.76,3.39,21.76a5.16,5.16,0,0,0,5.09,0s2.95-4.66,2.95-21.76C213.41,777.85,210.56,768.72,209.06,765.47Z"/><path class="cls-80" d="M209.05,765.47a.68.68,0,0,0-1.3,0A59.07,59.07,0,0,0,202,791.25c0,17,3.37,21.64,3.37,21.64a5.1,5.1,0,0,0,5.05,0s2.95-4.64,2.95-21.64C213.38,777.78,210.54,768.7,209.05,765.47Z"/><path class="cls-81" d="M209.05,765.46a.69.69,0,0,0-1.3,0A59,59,0,0,0,202,791.11c0,16.91,3.36,21.52,3.36,21.52a5.06,5.06,0,0,0,5,0s2.93-4.61,2.93-21.52C213.34,777.71,210.53,768.68,209.05,765.46Z"/><path class="cls-82" d="M209,765.46a.68.68,0,0,0-1.29,0A58.68,58.68,0,0,0,202.06,791c0,16.82,3.33,21.41,3.33,21.41a5.06,5.06,0,0,0,5,0s2.92-4.59,2.92-21.41C213.31,777.65,210.52,768.66,209,765.46Z"/><path class="cls-83" d="M209,765.46a.68.68,0,0,0-1.28,0,58.12,58.12,0,0,0-5.68,25.37c0,16.73,3.32,21.29,3.32,21.29a5,5,0,0,0,5,0s2.9-4.56,2.9-21.29C213.27,777.58,210.51,768.64,209,765.46Z"/><path class="cls-84" d="M209,765.46a.67.67,0,0,0-1.27,0,57.8,57.8,0,0,0-5.65,25.23c0,16.64,3.3,21.18,3.3,21.18a5,5,0,0,0,4.94,0s2.88-4.54,2.88-21.18C213.23,777.51,210.5,768.62,209,765.46Z"/><path class="cls-85" d="M209,765.45a.67.67,0,0,0-1.27,0,57.53,57.53,0,0,0-5.63,25.1c0,16.55,3.28,21.06,3.28,21.06a5,5,0,0,0,4.92,0s2.87-4.51,2.87-21.06C213.2,777.44,210.48,768.6,209,765.45Z"/><path class="cls-86" d="M209,765.45a.67.67,0,0,0-1.27,0,57.16,57.16,0,0,0-5.61,25c0,16.46,3.27,20.94,3.27,20.94a4.93,4.93,0,0,0,4.89,0s2.85-4.48,2.85-20.94C213.16,777.37,210.47,768.58,209,765.45Z"/><path class="cls-87" d="M209,765.45a.66.66,0,0,0-1.25,0,56.65,56.65,0,0,0-5.59,24.82c0,16.36,3.25,20.83,3.25,20.83a4.91,4.91,0,0,0,4.86,0s2.83-4.47,2.83-20.83C213.12,777.3,210.46,768.56,209,765.45Z"/><path class="cls-88" d="M209,765.45a.66.66,0,0,0-1.25,0,56.33,56.33,0,0,0-5.57,24.68c0,16.27,3.23,20.71,3.23,20.71a4.9,4.9,0,0,0,4.84,0s2.82-4.44,2.82-20.71C213.09,777.24,210.45,768.54,209,765.45Z"/><path class="cls-89" d="M209,765.44a.66.66,0,0,0-1.24,0A56.11,56.11,0,0,0,202.23,790c0,16.18,3.21,20.6,3.21,20.6a4.87,4.87,0,0,0,4.81,0s2.8-4.42,2.8-20.6C213.05,777.17,210.43,768.52,209,765.44Z"/><path class="cls-89" d="M209,765.44a.66.66,0,0,0-1.24,0,55.74,55.74,0,0,0-5.52,24.41c0,16.09,3.19,20.48,3.19,20.48a4.86,4.86,0,0,0,4.79,0s2.78-4.39,2.78-20.48C213,777.1,210.42,768.5,209,765.44Z"/><path class="cls-90" d="M209,765.44a.64.64,0,0,0-1.22,0,55.23,55.23,0,0,0-5.5,24.27c0,16,3.17,20.36,3.17,20.36a4.8,4.8,0,0,0,4.76,0s2.77-4.36,2.77-20.36C213,777,210.41,768.48,209,765.44Z"/><path class="cls-91" d="M209,765.44a.64.64,0,0,0-1.22,0,54.86,54.86,0,0,0-5.48,24.13c0,15.91,3.16,20.25,3.16,20.25a4.8,4.8,0,0,0,4.73,0s2.75-4.34,2.75-20.25C212.94,777,210.4,768.46,209,765.44Z"/><path class="cls-92" d="M209,765.43a.65.65,0,0,0-1.22,0,54.6,54.6,0,0,0-5.46,24c0,15.82,3.14,20.13,3.14,20.13a4.76,4.76,0,0,0,4.71,0s2.74-4.31,2.74-20.13C212.91,776.89,210.39,768.44,209,765.43Z"/><path class="cls-93" d="M209,765.43a.63.63,0,0,0-1.2,0,54.13,54.13,0,0,0-5.44,23.86c0,15.73,3.12,20,3.12,20a4.74,4.74,0,0,0,4.68,0s2.72-4.28,2.72-20C212.87,776.83,210.37,768.42,209,765.43Z"/><path class="cls-94" d="M209,765.43a.63.63,0,0,0-1.2,0,53.91,53.91,0,0,0-5.42,23.72c0,15.63,3.11,19.9,3.11,19.9a4.69,4.69,0,0,0,4.64,0s2.71-4.27,2.71-19.9C212.83,776.76,210.36,768.4,209,765.43Z"/><path class="cls-95" d="M209,765.43a.63.63,0,0,0-1.19,0A53.59,53.59,0,0,0,202.4,789c0,15.54,3.08,19.78,3.08,19.78a4.65,4.65,0,0,0,4.62,0s2.7-4.24,2.7-19.78C212.8,776.69,210.35,768.38,209,765.43Z"/><path class="cls-95" d="M209,765.42a.63.63,0,0,0-1.19,0,53.32,53.32,0,0,0-5.37,23.45c0,15.45,3.07,19.67,3.07,19.67a4.66,4.66,0,0,0,4.59,0s2.68-4.22,2.68-19.67C212.76,776.62,210.34,768.36,209,765.42Z"/><path class="cls-96" d="M209,765.42a.62.62,0,0,0-1.18,0,52.81,52.81,0,0,0-5.35,23.31c0,15.36,3.05,19.55,3.05,19.55a4.6,4.6,0,0,0,4.56,0s2.66-4.19,2.66-19.55C212.72,776.55,210.32,768.34,209,765.42Z"/><path class="cls-97" d="M209,765.42a.62.62,0,0,0-1.17,0,52.45,52.45,0,0,0-5.33,23.17c0,15.27,3,19.43,3,19.43a4.59,4.59,0,0,0,4.54,0s2.65-4.16,2.65-19.43C212.69,776.48,210.31,768.32,209,765.42Z"/><path class="cls-98" d="M209,765.42a.62.62,0,0,0-1.17,0,52.17,52.17,0,0,0-5.3,23c0,15.18,3,19.32,3,19.32a4.56,4.56,0,0,0,4.51,0s2.63-4.14,2.63-19.32C212.65,776.42,210.3,768.3,209,765.42Z"/><path class="cls-99" d="M209,765.41a.61.61,0,0,0-1.15,0,51.7,51.7,0,0,0-5.29,22.89c0,15.1,3,19.21,3,19.21a4.55,4.55,0,0,0,4.49,0s2.61-4.11,2.61-19.21C212.61,776.35,210.29,768.28,209,765.41Z"/><path class="cls-100" d="M209,765.41a.61.61,0,0,0-1.15,0,51.34,51.34,0,0,0-5.27,22.75c0,15,3,19.1,3,19.1a4.52,4.52,0,0,0,4.46,0s2.6-4.09,2.6-19.1C212.58,776.28,210.28,768.26,209,765.41Z"/><path class="cls-100" d="M209,765.41a.6.6,0,0,0-1.14,0A51,51,0,0,0,202.57,788c0,14.91,3,19,3,19a4.46,4.46,0,0,0,4.43,0s2.58-4.07,2.58-19C212.54,776.21,210.26,768.24,209,765.41Z"/><path class="cls-101" d="M209,765.41a.6.6,0,0,0-1.14,0,50.65,50.65,0,0,0-5.22,22.47c0,14.82,2.94,18.86,2.94,18.86a4.46,4.46,0,0,0,4.41,0s2.56-4,2.56-18.86C212.5,776.14,210.25,768.22,209,765.41Z"/><path class="cls-102" d="M209,765.4a.6.6,0,0,0-1.13,0,50.24,50.24,0,0,0-5.2,22.34c0,14.73,2.92,18.75,2.92,18.75a4.43,4.43,0,0,0,4.38,0s2.55-4,2.55-18.75C212.47,776.07,210.24,768.2,209,765.4Z"/><path class="cls-103" d="M208.94,765.4a.59.59,0,0,0-1.12,0,49.92,49.92,0,0,0-5.18,22.2c0,14.64,2.91,18.63,2.91,18.63a4.4,4.4,0,0,0,4.35,0s2.53-4,2.53-18.63C212.43,776,210.23,768.18,208.94,765.4Z"/><path class="cls-104" d="M208.94,765.4a.59.59,0,0,0-1.12,0,49.6,49.6,0,0,0-5.15,22.06c0,14.55,2.88,18.52,2.88,18.52a4.39,4.39,0,0,0,4.33,0s2.52-4,2.52-18.52C212.4,775.94,210.21,768.16,208.94,765.4Z"/><path class="cls-105" d="M208.93,765.4a.59.59,0,0,0-1.11,0,49.24,49.24,0,0,0-5.13,21.92c0,14.46,2.87,18.4,2.87,18.4a4.36,4.36,0,0,0,4.3,0s2.5-3.94,2.5-18.4C212.36,775.87,210.2,768.14,208.93,765.4Z"/><path class="cls-106" d="M208.93,765.39a.58.58,0,0,0-1.1,0,49,49,0,0,0-5.11,21.79c0,14.37,2.85,18.28,2.85,18.28a4.31,4.31,0,0,0,4.27,0s2.48-3.91,2.48-18.28C212.32,775.8,210.19,768.12,208.93,765.39Z"/><path class="cls-107" d="M208.92,765.39a.58.58,0,0,0-1.09,0A48.61,48.61,0,0,0,202.74,787c0,14.27,2.83,18.17,2.83,18.17a4.31,4.31,0,0,0,4.24,0s2.48-3.9,2.48-18.17C212.29,775.73,210.18,768.1,208.92,765.39Z"/><path class="cls-108" d="M208.92,765.39a.58.58,0,0,0-1.09,0,48.29,48.29,0,0,0-5.07,21.51c0,14.18,2.82,18.05,2.82,18.05a4.25,4.25,0,0,0,4.21,0s2.46-3.87,2.46-18.05C212.25,775.66,210.17,768.09,208.92,765.39Z"/><path class="cls-109" d="M208.92,765.39a.57.57,0,0,0-1.08,0,47.78,47.78,0,0,0-5.05,21.37c0,14.09,2.79,17.94,2.79,17.94a4.25,4.25,0,0,0,4.19,0s2.44-3.85,2.44-17.94C212.21,775.59,210.15,768.07,208.92,765.39Z"/><path class="cls-110" d="M208.91,765.38a.57.57,0,0,0-1.07,0,47.56,47.56,0,0,0-5,21.24c0,14,2.78,17.82,2.78,17.82a4.21,4.21,0,0,0,4.16,0s2.43-3.82,2.43-17.82C212.18,775.53,210.14,768.05,208.91,765.38Z"/><path class="cls-111" d="M208.91,765.38a.57.57,0,0,0-1.07,0,47.24,47.24,0,0,0-5,21.1c0,13.91,2.76,17.7,2.76,17.7a4.16,4.16,0,0,0,4.13,0s2.41-3.79,2.41-17.7C212.14,775.46,210.13,768,208.91,765.38Z"/><path class="cls-112" d="M208.9,765.38a.56.56,0,0,0-1.06,0,46.88,46.88,0,0,0-5,21c0,13.82,2.74,17.59,2.74,17.59a4.18,4.18,0,0,0,4.11,0s2.39-3.77,2.39-17.59C212.1,775.39,210.12,768,208.9,765.38Z"/><path class="cls-113" d="M208.9,765.38a.55.55,0,0,0-1.05,0,46.37,46.37,0,0,0-5,20.82c0,13.73,2.72,17.47,2.72,17.47a4.12,4.12,0,0,0,4.08,0s2.38-3.74,2.38-17.47C212.07,775.32,210.1,768,208.9,765.38Z"/><path class="cls-114" d="M208.89,765.37a.55.55,0,0,0-1,0,46.11,46.11,0,0,0-4.94,20.69c0,13.64,2.71,17.35,2.71,17.35a4.09,4.09,0,0,0,4,0S212,799.7,212,786.06C212,775.25,210.09,768,208.89,765.37Z"/><path class="cls-115" d="M208.89,765.37a.55.55,0,0,0-1,0,45.75,45.75,0,0,0-4.92,20.55c0,13.54,2.69,17.24,2.69,17.24a4.09,4.09,0,0,0,4,0s2.34-3.7,2.34-17.24C212,775.18,210.08,768,208.89,765.37Z"/><path class="cls-115" d="M208.89,765.37a.55.55,0,0,0-1,0A45.47,45.47,0,0,0,203,785.78c0,13.45,2.67,17.12,2.67,17.12a4,4,0,0,0,4,0s2.33-3.67,2.33-17.12C212,775.12,210.07,767.93,208.89,765.37Z"/><path class="cls-116" d="M208.88,765.37a.54.54,0,0,0-1,0A44.93,44.93,0,0,0,203,785.64c0,13.36,2.66,17,2.66,17a4,4,0,0,0,4,0s2.31-3.65,2.31-17C211.92,775.05,210.06,767.91,208.88,765.37Z"/><path class="cls-117" d="M208.88,765.36a.54.54,0,0,0-1,0A44.71,44.71,0,0,0,203,785.5c0,13.27,2.63,16.89,2.63,16.89a4,4,0,0,0,4,0s2.3-3.62,2.3-16.89C211.89,775,210,767.89,208.88,765.36Z"/><path class="cls-118" d="M208.87,765.36a.53.53,0,0,0-1,0,44.34,44.34,0,0,0-4.83,20c0,13.18,2.62,16.77,2.62,16.77a4,4,0,0,0,3.92,0s2.28-3.59,2.28-16.77C211.85,774.91,210,767.87,208.87,765.36Z"/><path class="cls-119" d="M208.87,765.36a.53.53,0,0,0-1,0,44,44,0,0,0-4.81,19.86c0,13.09,2.59,16.66,2.59,16.66a4,4,0,0,0,3.9,0s2.26-3.57,2.26-16.66C211.81,774.84,210,767.85,208.87,765.36Z"/><path class="cls-120" d="M208.86,765.36a.52.52,0,0,0-1,0,43.62,43.62,0,0,0-4.79,19.72c0,13,2.58,16.54,2.58,16.54a3.92,3.92,0,0,0,3.87,0s2.25-3.54,2.25-16.54C211.78,774.77,210,767.83,208.86,765.36Z"/><path class="cls-121" d="M208.86,765.35a.52.52,0,0,0-1,0,43.44,43.44,0,0,0-4.76,19.59c0,12.91,2.56,16.43,2.56,16.43a3.88,3.88,0,0,0,3.83,0s2.24-3.52,2.24-16.43C211.74,774.71,210,767.81,208.86,765.35Z"/><path class="cls-122" d="M208.86,765.35a.52.52,0,0,0-1,0,43.08,43.08,0,0,0-4.74,19.45c0,12.81,2.54,16.31,2.54,16.31a3.84,3.84,0,0,0,3.81,0s2.22-3.5,2.22-16.31C211.7,774.64,210,767.79,208.86,765.35Z"/><path class="cls-123" d="M208.85,765.35a.51.51,0,0,0-1,0,42.53,42.53,0,0,0-4.73,19.3c0,12.73,2.53,16.2,2.53,16.2a3.81,3.81,0,0,0,3.78,0s2.21-3.47,2.21-16.2C211.67,774.57,210,767.77,208.85,765.35Z"/><path class="cls-124" d="M208.85,765.35a.51.51,0,0,0-1,0,42.21,42.21,0,0,0-4.7,19.16c0,12.64,2.51,16.09,2.51,16.09a3.78,3.78,0,0,0,3.75,0s2.19-3.45,2.19-16.09C211.63,774.5,210,767.75,208.85,765.35Z"/><path class="cls-124" d="M208.84,765.34a.51.51,0,0,0-1,0,41.94,41.94,0,0,0-4.68,19c0,12.55,2.49,16,2.49,16a3.78,3.78,0,0,0,3.73,0s2.17-3.42,2.17-16C211.59,774.43,210,767.73,208.84,765.34Z"/><path class="cls-1" d="M215.2,835.65a104.47,104.47,0,0,0,2.15-14.14,134.08,134.08,0,0,0-1.12-33.78c-.51-3.08-5.36-19.49-5.75-19.57-2-.38-7.59,12.67-9.45,26.92A142.67,142.67,0,0,0,199.84,813a116.48,116.48,0,0,0,2.37,22.62c-.09-.44,1.84.15,4.44.55S212.55,836.82,215.2,835.65Z"/><path class="cls-2" d="M216.22,787.73c-.51-3.08-5.3-19.23-5.69-19.28-1.53-.18-5.17,7.4-7.61,17.4a89.49,89.49,0,0,0-1.74,9.29A140.22,140.22,0,0,0,200,812.92a114.52,114.52,0,0,0,2.33,22.42c-.08-.44,1.83.15,4.42.54s5.83.59,8.44-.59A95.62,95.62,0,0,0,217,824.18c.11-.93.21-1.9.3-2.92A132.43,132.43,0,0,0,216.22,787.73Z"/><path class="cls-3" d="M216.22,787.74c-.51-3.08-5.25-19-5.65-19-1.51-.07-5.11,7.34-7.52,17.25a87.57,87.57,0,0,0-1.72,9.19,140,140,0,0,0-1.17,17.63A112.48,112.48,0,0,0,202.45,835c-.08-.43,1.81.15,4.39.53s5.76.57,8.35-.63a98.75,98.75,0,0,0,1.81-11c.1-.92.2-1.88.3-2.9A132,132,0,0,0,216.22,787.74Z"/><path class="cls-4" d="M216.21,787.74c-.51-3.07-5.18-18.71-5.59-18.7-1.5,0-5.06,7.3-7.43,17.1a86,86,0,0,0-1.71,9.11,141.21,141.21,0,0,0-1.17,17.46,111.31,111.31,0,0,0,2.26,22c-.08-.42,1.8.15,4.37.52s5.68.55,8.24-.67a98,98,0,0,0,1.8-10.94c.1-.91.2-1.87.29-2.88A130.85,130.85,0,0,0,216.21,787.74Z"/><path class="cls-125" d="M216.2,787.74c-.5-3.07-5.13-18.53-5.54-18.41-1.46-.19-5,7.25-7.34,16.95a87.12,87.12,0,0,0-1.69,9,138.62,138.62,0,0,0-1.16,17.3,110.65,110.65,0,0,0,2.21,21.8c-.06-.42,1.8.15,4.35.51s5.61.52,8.14-.7A96.54,96.54,0,0,0,217,823.36c.11-.91.21-1.86.3-2.86A130.2,130.2,0,0,0,216.2,787.74Z"/><path class="cls-5" d="M216.19,787.74c-.5-3.06-5.08-18.29-5.48-18.12-1.45-.16-4.94,7.2-7.26,16.8a85.6,85.6,0,0,0-1.67,9,140,140,0,0,0-1.15,17.13,108.67,108.67,0,0,0,2.17,21.6c-.06-.41,1.79.15,4.32.5s5.54.5,8-.74a99.87,99.87,0,0,0,1.76-10.78c.11-.9.2-1.84.3-2.83A128.62,128.62,0,0,0,216.19,787.74Z"/><path class="cls-6" d="M216.19,787.74c-.51-3.06-5-18-5.44-17.82-1.43-.14-4.87,7.15-7.17,16.64a87.55,87.55,0,0,0-1.65,8.86,137.85,137.85,0,0,0-1.14,17,106.69,106.69,0,0,0,2.13,21.39c0-.41,1.78.15,4.3.49s5.47.47,7.94-.78a99.08,99.08,0,0,0,1.75-10.69c.1-.89.2-1.83.29-2.81A127.84,127.84,0,0,0,216.19,787.74Z"/><path class="cls-7" d="M216.18,787.75c-.5-3.06-5-17.82-5.38-17.54-1.42-.12-4.82,7.1-7.08,16.49a85.46,85.46,0,0,0-1.64,8.78,139.22,139.22,0,0,0-1.14,16.81,105.54,105.54,0,0,0,2.1,21.19c0-.4,1.76.15,4.27.48s5.4.45,7.84-.81a98.83,98.83,0,0,0,1.74-10.61c.1-.89.2-1.82.29-2.79A127.1,127.1,0,0,0,216.18,787.75Z"/><path class="cls-8" d="M216.17,787.75c-.5-3.06-4.91-17.57-5.33-17.25-1.4-.09-4.75,7.06-7,16.34a84.42,84.42,0,0,0-1.62,8.7,138.75,138.75,0,0,0-1.13,16.65,103.59,103.59,0,0,0,2.06,21c0-.4,1.75.15,4.25.47,2.34.31,5.32.42,7.73-.85a95,95,0,0,0,1.73-10.53c.1-.88.19-1.8.28-2.76A125.93,125.93,0,0,0,216.17,787.75Z"/><path class="cls-8" d="M216.16,787.75c-.49-3-4.85-17.33-5.27-17-1.39-.07-4.7,7-6.91,16.18a85.92,85.92,0,0,0-1.6,8.61,138.58,138.58,0,0,0-1.12,16.49,103.86,103.86,0,0,0,2,20.78c0-.39,1.75.15,4.23.47,2.31.29,5.25.39,7.64-.9a100.33,100.33,0,0,0,1.7-10.44c.1-.87.2-1.79.29-2.75A124.27,124.27,0,0,0,216.16,787.75Z"/><path class="cls-9" d="M216.16,787.75c-.5-3-4.8-17.09-5.23-16.66-1.37,0-4.63,6.95-6.82,16-.64,2.71-1.19,5.59-1.58,8.53A138.14,138.14,0,0,0,201.42,812a101.92,101.92,0,0,0,2,20.57c0-.38,1.74.15,4.2.46,2.29.28,5.18.36,7.54-.94a95.78,95.78,0,0,0,1.69-10.35c.1-.87.2-1.78.28-2.73A123.49,123.49,0,0,0,216.16,787.75Z"/><path class="cls-9" d="M216.15,787.75c-.49-3-4.75-16.85-5.17-16.37-1.36,0-4.58,6.91-6.73,15.88a82.76,82.76,0,0,0-1.57,8.45,135.55,135.55,0,0,0-1.1,16.16,100.74,100.74,0,0,0,1.93,20.37c0-.38,1.73.15,4.18.45,2.25.27,5.11.34,7.43-1a99.24,99.24,0,0,0,1.68-10.28c.1-.86.19-1.76.28-2.7A122.85,122.85,0,0,0,216.15,787.75Z"/><path class="cls-10" d="M216.14,787.76c-.49-3-4.69-16.61-5.12-16.09-1.34,0-4.52,6.86-6.64,15.74a83.58,83.58,0,0,0-1.55,8.35,139.55,139.55,0,0,0-1.1,16,99.76,99.76,0,0,0,1.9,20.17c0-.38,1.71.14,4.15.43,2.22.26,5,.31,7.33-1a94.69,94.69,0,0,0,1.67-10.19c.1-.85.19-1.75.28-2.68A121.64,121.64,0,0,0,216.14,787.76Z"/><path class="cls-11" d="M216.14,787.76c-.5-3-4.64-16.37-5.07-15.79-1.33,0-4.46,6.81-6.56,15.58-.62,2.62-1.15,5.42-1.53,8.27a139.16,139.16,0,0,0-1.09,15.84,97.89,97.89,0,0,0,1.86,20c0-.38,1.7.14,4.12.42,2.19.25,5,.29,7.24-1a99,99,0,0,0,1.65-10.1c.09-.85.19-1.74.27-2.66A120.88,120.88,0,0,0,216.14,787.76Z"/><path class="cls-12" d="M216.13,787.76c-.49-3-4.58-16.13-5-15.5-1.31.06-4.4,6.76-6.47,15.43-.61,2.6-1.14,5.37-1.51,8.19a136.67,136.67,0,0,0-1.08,15.68,96.71,96.71,0,0,0,1.82,19.76c0-.37,1.69.14,4.1.41,2.15.24,4.89.26,7.13-1.09a96.06,96.06,0,0,0,1.63-10c.1-.84.19-1.71.28-2.63A119.77,119.77,0,0,0,216.13,787.76Z"/><path class="cls-13" d="M216.12,787.76c-.49-3-4.52-15.89-5-15.21-1.29.08-4.34,6.71-6.38,15.28a82,82,0,0,0-1.5,8.1,136.62,136.62,0,0,0-1.07,15.52A95.53,95.53,0,0,0,204,831c0-.37,1.69.14,4.08.4,2.12.23,4.82.24,7-1.12a95.82,95.82,0,0,0,1.62-9.94q.15-1.25.27-2.61A118.59,118.59,0,0,0,216.12,787.76Z"/><path class="cls-126" d="M216.11,787.76c-.48-3-4.46-15.64-4.91-14.92-1.27.11-4.28,6.67-6.29,15.13a80.91,80.91,0,0,0-1.48,8,136.15,136.15,0,0,0-1.07,15.36,94.42,94.42,0,0,0,1.74,19.35c0-.36,1.67.14,4.06.39a10.88,10.88,0,0,0,6.93-1.16c0-.27.92-3.95,1.6-9.86.09-.82.19-1.68.27-2.58A117.48,117.48,0,0,0,216.11,787.76Z"/><path class="cls-14" d="M216.11,787.77c-.49-3-4.42-15.41-4.87-14.63-1.25.13-4.21,6.61-6.2,15a79.34,79.34,0,0,0-1.45,7.94,133.35,133.35,0,0,0-1.07,15.19,93.3,93.3,0,0,0,1.7,19.15c0-.36,1.66.14,4,.38a10.56,10.56,0,0,0,6.83-1.2,95.42,95.42,0,0,0,1.59-9.77c.09-.82.18-1.67.27-2.57A117.09,117.09,0,0,0,216.11,787.77Z"/><path class="cls-15" d="M216.1,787.77c-.48-3-4.36-15.17-4.81-14.34-1.24.16-4.16,6.57-6.12,14.82-.58,2.5-1.08,5.15-1.43,7.85a133.35,133.35,0,0,0-1.06,15,91.47,91.47,0,0,0,1.66,18.94c0-.35,1.65.14,4,.37a10.25,10.25,0,0,0,6.73-1.24c.05-.3.91-3.91,1.58-9.68.09-.81.18-1.66.26-2.55A115.92,115.92,0,0,0,216.1,787.77Z"/><path class="cls-15" d="M216.09,787.77c-.48-3-4.3-14.93-4.76-14-1.22.18-4.09,6.52-6,14.67a76.48,76.48,0,0,0-1.42,7.77,133,133,0,0,0-1,14.87,89.7,89.7,0,0,0,1.62,18.74c0-.34,1.64.14,4,.36a10,10,0,0,0,6.62-1.27,93.46,93.46,0,0,0,1.56-9.61q.15-1.2.27-2.52A114.8,114.8,0,0,0,216.09,787.77Z"/><path class="cls-16" d="M216.09,787.77c-.49-3-4.25-14.69-4.71-13.76-1.21.21-4,6.47-5.94,14.52-.57,2.45-1.06,5.05-1.4,7.69a134.85,134.85,0,0,0-1,14.71,89.29,89.29,0,0,0,1.59,18.53c0-.34,1.62.14,3.95.35a9.71,9.71,0,0,0,6.53-1.31c.05-.33.89-3.89,1.54-9.52.09-.8.18-1.63.26-2.5A113.58,113.58,0,0,0,216.09,787.77Z"/><path class="cls-18" d="M216.08,787.77c-.48-3-4.19-14.44-4.66-13.46-1.19.23-4,6.42-5.85,14.37-.56,2.41-1,5-1.38,7.6a132.08,132.08,0,0,0-1,14.54,88.19,88.19,0,0,0,1.54,18.33c0-.33,1.62.14,3.94.34a9.45,9.45,0,0,0,6.42-1.35c.06-.35.89-3.87,1.53-9.43.09-.79.18-1.62.26-2.48A112.94,112.94,0,0,0,216.08,787.77Z"/><path class="cls-127" d="M216.07,787.78c-.48-3-4.14-14.21-4.6-13.18-1.18.26-3.92,6.37-5.77,14.22-.55,2.39-1,4.93-1.36,7.51a132.17,132.17,0,0,0-1,14.38,86.45,86.45,0,0,0,1.5,18.13c0-.33,1.61.14,3.91.34a9.28,9.28,0,0,0,6.32-1.39c.06-.37.88-3.86,1.52-9.36.09-.78.17-1.6.26-2.45A112.21,112.21,0,0,0,216.07,787.78Z"/><path class="cls-19" d="M216.06,787.78c-.47-3-4.08-14-4.55-12.89-1.16.28-3.86,6.32-5.67,14.07a75.4,75.4,0,0,0-1.35,7.43,129.41,129.41,0,0,0-1,14.22,85.37,85.37,0,0,0,1.46,17.92c0-.32,1.59.14,3.88.33a9.06,9.06,0,0,0,6.22-1.43,93.87,93.87,0,0,0,1.5-9.27c.09-.78.18-1.59.26-2.43A110.12,110.12,0,0,0,216.06,787.78Z"/><path class="cls-128" d="M216.06,787.78c-.48-3-4-13.73-4.5-12.6-1.15.31-3.8,6.28-5.59,13.92-.54,2.34-1,4.82-1.33,7.35a129.13,129.13,0,0,0-1,14,84.34,84.34,0,0,0,1.42,17.72c0-.32,1.58.14,3.86.32a8.81,8.81,0,0,0,6.12-1.47c.06-.4.86-3.82,1.48-9.18.09-.77.18-1.58.26-2.42A109.81,109.81,0,0,0,216.06,787.78Z"/><path class="cls-21" d="M216.05,787.78c-.47-3-4-13.48-4.45-12.3-1.13.33-3.75,6.22-5.5,13.76-.53,2.31-1,4.77-1.31,7.26a134.49,134.49,0,0,0-1,13.9,83.49,83.49,0,0,0,1.39,17.52c.05-.32,1.62-.22,3.83.3a7.43,7.43,0,0,0,6-1.51c.07-.41.86-3.8,1.47-9.1.09-.76.17-1.56.25-2.39A108.64,108.64,0,0,0,216.05,787.78Z"/><path class="cls-21" d="M216,787.78c-.48-3-3.91-13.24-4.39-12-1.12.36-3.7,6.17-5.42,13.61-.52,2.28-1,4.71-1.29,7.18a131.6,131.6,0,0,0-1,13.73,82.46,82.46,0,0,0,1.34,17.32c.06-.32,1.62-.24,3.82.29a7.19,7.19,0,0,0,5.91-1.54c.08-.44.85-3.79,1.46-9,.09-.76.17-1.55.25-2.37A109,109,0,0,0,216,787.78Z"/><path class="cls-23" d="M216,787.79c-.47-3-3.85-13-4.34-11.73-1.1.38-3.63,6.13-5.32,13.46-.52,2.26-1,4.66-1.28,7.1a131.26,131.26,0,0,0-1,13.57,81.42,81.42,0,0,0,1.3,17.11c.07-.31,1.61-.25,3.79.28A7,7,0,0,0,215,826c.07-.45.84-3.77,1.44-8.93.08-.75.17-1.53.25-2.35A107.76,107.76,0,0,0,216,787.79Z"/><path class="cls-23" d="M216,787.79c-.48-3-3.81-12.77-4.29-11.44-1.09.41-3.58,6.08-5.24,13.31-.51,2.23-.95,4.61-1.26,7a128.77,128.77,0,0,0-1,13.41A79.77,79.77,0,0,0,205.52,827c.07-.3,1.6-.27,3.76.27a6.78,6.78,0,0,0,5.72-1.62c.08-.47.83-3.75,1.42-8.85.09-.74.17-1.51.25-2.32A106.54,106.54,0,0,0,216,787.79Z"/><path class="cls-24" d="M216,787.79c-.47-3-3.75-12.52-4.24-11.14-1.06.43-3.52,6-5.15,13.15-.5,2.21-.93,4.55-1.24,6.93a131.38,131.38,0,0,0-1,13.25,78.72,78.72,0,0,0,1.23,16.7c.08-.3,1.59-.28,3.74.26a6.6,6.6,0,0,0,5.61-1.66c.08-.48.83-3.73,1.41-8.76.09-.74.17-1.5.25-2.3A105.91,105.91,0,0,0,216,787.79Z"/><path class="cls-129" d="M216,787.79c-.47-3-3.69-12.28-4.18-10.85-1.05.46-3.46,6-5.07,13-.49,2.18-.91,4.5-1.22,6.85-.48,4.07-.88,8.37-1,13.08a77.76,77.76,0,0,0,1.19,16.5c.08-.29,1.57-.29,3.71.25a6.42,6.42,0,0,0,5.51-1.69c.09-.51.83-3.72,1.4-8.68q.13-1.1.24-2.28A104.75,104.75,0,0,0,216,787.79Z"/><path class="cls-27" d="M216,787.8c-.48-3-3.64-12-4.14-10.57-1,.48-3.4,5.93-5,12.86-.49,2.15-.91,4.43-1.21,6.75a128.8,128.8,0,0,0-1,12.93,76.12,76.12,0,0,0,1.15,16.29c.08-.29,1.56-.31,3.69.24a6.24,6.24,0,0,0,5.41-1.73c.08-.52.81-3.7,1.38-8.6.08-.72.16-1.47.24-2.26A104.39,104.39,0,0,0,216,787.8Z"/><path class="cls-27" d="M216,787.8c-.47-3-3.58-11.81-4.08-10.28-1,.51-3.34,5.89-4.89,12.71-.48,2.12-.89,4.38-1.19,6.67-.47,4-.86,8.18-1,12.76a75.2,75.2,0,0,0,1.1,16.09c.1-.28,1.56-.32,3.67.23a6,6,0,0,0,5.31-1.77c.09-.53.81-3.68,1.37-8.51.08-.72.16-1.46.23-2.24A102.75,102.75,0,0,0,216,787.8Z"/><path class="cls-28" d="M216,787.8c-.47-3-3.52-11.56-4-10-1,.53-3.28,5.83-4.8,12.55-.47,2.1-.87,4.33-1.17,6.59a125.79,125.79,0,0,0-.94,12.6,74.24,74.24,0,0,0,1.06,15.88c.1-.28,1.55-.34,3.64.22a5.85,5.85,0,0,0,5.21-1.81c.09-.55.8-3.66,1.35-8.43.09-.7.17-1.44.24-2.21A101.65,101.65,0,0,0,216,787.8Z"/><path class="cls-130" d="M216,787.8c-.46-2.95-3.47-11.32-4-9.69-1,.56-3.23,5.78-4.72,12.4-.46,2.07-.86,4.27-1.15,6.5-.46,3.89-.83,8-.94,12.44a73.38,73.38,0,0,0,1,15.68c.1-.27,1.54-.35,3.62.21,1.43.39,3.45-.24,5.1-1.84.1-.57.8-3.65,1.34-8.35q.12-1,.24-2.19A101,101,0,0,0,216,787.8Z"/><path class="cls-131" d="M216,787.8c-.47-2.95-3.42-11.08-3.93-9.4-1,.58-3.16,5.74-4.62,12.25-.46,2.05-.85,4.22-1.14,6.42-.46,3.84-.82,7.88-.93,12.28a71.8,71.8,0,0,0,1,15.47c.11-.27,1.53-.36,3.59.21,1.4.38,3.38-.27,5-1.89.1-.59.78-3.63,1.32-8.26.08-.7.16-1.42.23-2.17A100.29,100.29,0,0,0,216,787.8Z"/><path class="cls-30" d="M216,787.81c-.47-2.95-3.36-10.85-3.87-9.12-1,.61-3.11,5.69-4.54,12.1-.45,2-.83,4.17-1.11,6.34-.46,3.79-.82,7.78-.93,12.11a70.3,70.3,0,0,0,.95,15.27c.11-.26,1.51-.38,3.56.2,1.37.38,3.32-.3,4.91-1.93.1-.6.78-3.61,1.31-8.18.08-.68.16-1.4.23-2.14A99.11,99.11,0,0,0,216,787.81Z"/><path class="cls-32" d="M216,787.81c-.46-2.94-3.3-10.6-3.82-8.82-.94.63-3,5.64-4.45,11.94-.44,2-.82,4.11-1.09,6.26-.45,3.74-.81,7.68-.92,11.95a70.06,70.06,0,0,0,.9,15.06c.13-.25,1.51-.39,3.55.19,1.33.38,3.24-.32,4.8-2,.11-.61.77-3.59,1.3-8.09.08-.68.15-1.39.22-2.12A97.48,97.48,0,0,0,216,787.81Z"/><path class="cls-132" d="M216,787.81c-.47-2.94-3.25-10.36-3.77-8.53-.93.66-3,5.59-4.37,11.79-.43,2-.8,4.06-1.07,6.17-.45,3.7-.8,7.59-.92,11.79a69.35,69.35,0,0,0,.87,14.87c.13-.26,1.5-.42,3.52.17,1.3.37,3.17-.35,4.71-2,.1-.64.76-3.58,1.27-8,.08-.67.16-1.38.23-2.1A97.29,97.29,0,0,0,216,787.81Z"/><path class="cls-33" d="M216,787.81c-.46-2.93-3.19-10.12-3.72-8.24-.91.68-2.93,5.54-4.27,11.64-.43,1.95-.79,4-1.06,6.09-.44,3.65-.79,7.49-.91,11.63a67.84,67.84,0,0,0,.83,14.66c.13-.25,1.49-.43,3.5.16,1.26.37,3.09-.37,4.6-2,.11-.65.75-3.56,1.26-7.93.08-.66.16-1.36.23-2.08A96.11,96.11,0,0,0,216,787.81Z"/><path class="cls-133" d="M215.94,787.81c-.46-2.93-3.14-9.88-3.67-7.95-.89.71-2.86,5.5-4.18,11.5-.42,1.91-.78,3.94-1,6-.44,3.6-.78,7.39-.9,11.46a66.42,66.42,0,0,0,.79,14.46c.14-.25,1.47-.45,3.47.15,1.23.37,3-.4,4.5-2.08.11-.67.75-3.54,1.25-7.84.08-.66.15-1.34.22-2.06A95,95,0,0,0,215.94,787.81Z"/><path class="cls-36" d="M215.93,787.82c-.45-2.93-3.08-9.64-3.61-7.66-.88.73-2.81,5.44-4.1,11.34-.41,1.89-.76,3.89-1,5.91-.43,3.56-.77,7.3-.89,11.31a65.56,65.56,0,0,0,.75,14.25c.14-.24,1.46-.46,3.44.14,1.2.36,3-.42,4.4-2.11.12-.69.74-3.53,1.24-7.76.07-.65.15-1.33.22-2A94.26,94.26,0,0,0,215.93,787.82Z"/><path class="cls-134" d="M215.93,787.82c-.46-2.92-3-9.4-3.57-7.37-.85.76-2.74,5.39-4,11.19-.4,1.86-.74,3.83-1,5.83-.42,3.51-.76,7.2-.89,11.14a64.8,64.8,0,0,0,.72,14c.15-.24,1.45-.48,3.42.13,1.16.36,2.88-.45,4.3-2.15.11-.7.73-3.51,1.22-7.68q.1-1,.21-2A93.08,93.08,0,0,0,215.93,787.82Z"/><path class="cls-37" d="M215.92,787.82c-.46-2.92-3-9.16-3.51-7.08-.84.78-2.69,5.35-3.92,11-.4,1.84-.74,3.78-1,5.75-.42,3.46-.75,7.09-.88,11a64.06,64.06,0,0,0,.67,13.84c.16-.23,1.44-.49,3.4.12,1.13.35,2.81-.47,4.2-2.19.12-.72.72-3.49,1.2-7.59.08-.64.15-1.3.22-2A92,92,0,0,0,215.92,787.82Z"/><path class="cls-38" d="M215.91,787.82c-.45-2.91-2.91-8.92-3.46-6.79-.82.81-2.62,5.3-3.83,10.89-.39,1.81-.72,3.73-1,5.66-.41,3.42-.74,7-.87,10.82a62.73,62.73,0,0,0,.63,13.64c.16-.23,1.43-.51,3.38.11,1.09.35,2.73-.5,4.09-2.23.13-.73.72-3.47,1.19-7.5.08-.63.15-1.29.22-2A91.37,91.37,0,0,0,215.91,787.82Z"/><path class="cls-39" d="M215.9,787.82c-.45-2.91-2.86-8.67-3.4-6.49-.81.83-2.57,5.25-3.75,10.73-.38,1.79-.7,3.67-.95,5.58-.41,3.37-.73,6.9-.86,10.66a62,62,0,0,0,.59,13.43c.17-.22,1.42-.52,3.35.1,1.06.35,2.66-.52,4-2.26.13-.76.71-3.46,1.18-7.43.07-.62.14-1.27.21-1.94A90.23,90.23,0,0,0,215.9,787.82Z"/><path class="cls-41" d="M215.9,787.83c-.45-2.91-2.81-8.44-3.36-6.21-.79.86-2.51,5.2-3.66,10.58-.37,1.76-.69,3.62-.93,5.5-.4,3.32-.72,6.8-.85,10.49a60.71,60.71,0,0,0,.55,13.23c.17-.21,1.41-.53,3.32.09,1,.34,2.6-.55,3.9-2.3.13-.77.7-3.44,1.16-7.34.07-.62.14-1.26.21-1.93A89.91,89.91,0,0,0,215.9,787.83Z"/><path class="cls-135" d="M215.89,787.83c-.45-2.9-2.75-8.2-3.3-5.92-.78.88-2.45,5.15-3.57,10.43-.37,1.74-.68,3.56-.92,5.41-.39,3.28-.71,6.71-.85,10.34a60,60,0,0,0,.52,13c.18-.21,1.39-.55,3.3.08,1,.34,2.52-.57,3.79-2.34.13-.78.7-3.42,1.15-7.25.07-.61.14-1.25.2-1.91A87.8,87.8,0,0,0,215.89,787.83Z"/><path class="cls-42" d="M215.88,787.83c-.44-2.9-2.69-8-3.25-5.63-.76.91-2.39,5.11-3.48,10.28-.36,1.71-.66,3.51-.9,5.33-.39,3.24-.7,6.61-.84,10.17-.2,4.9-.19,9.52.48,12.82.18-.2,1.38-.56,3.27.08,1,.32,2.45-.6,3.69-2.39.14-.8.69-3.4,1.13-7.17.07-.6.14-1.23.21-1.88A87.19,87.19,0,0,0,215.88,787.83Z"/><path class="cls-44" d="M215.88,787.83c-.45-2.89-2.64-7.71-3.2-5.33-.75.93-2.33,5-3.4,10.13-.35,1.68-.65,3.45-.88,5.24-.38,3.19-.69,6.51-.83,10-.2,4.86-.21,9.42.43,12.61.19-.2,1.31.46,3.26.07,1,.15,2.37-.63,3.59-2.42.13-.82.68-3.39,1.11-7.09q.1-.9.21-1.86A87,87,0,0,0,215.88,787.83Z"/><path class="cls-136" d="M215.87,787.83c-.45-2.89-2.58-7.47-3.15-5-.73,1-2.27,5-3.31,10-.34,1.65-.63,3.39-.86,5.16-.38,3.14-.68,6.41-.82,9.84-.21,4.83-.23,9.33.39,12.41.2-.19,1.3.47,3.23.06.94.14,2.31-.65,3.49-2.46.14-.84.67-3.37,1.1-7,.07-.58.14-1.2.2-1.83A85.42,85.42,0,0,0,215.87,787.83Z"/><path class="cls-46" d="M215.86,787.84c-.44-2.89-2.53-7.24-3.09-4.76-.72,1-2.21,5-3.22,9.83-.34,1.63-.63,3.34-.85,5.07-.37,3.1-.67,6.31-.82,9.69-.21,4.78-.24,9.23.36,12.21.2-.2,1.28.47,3.2,0,.91.14,2.24-.68,3.39-2.5.14-.85.67-3.36,1.09-6.92.07-.58.13-1.19.2-1.81A84.25,84.25,0,0,0,215.86,787.84Z"/><path class="cls-46" d="M215.85,787.84c-.44-2.89-2.47-7-3-4.47-.7,1-2.15,4.91-3.13,9.68-.33,1.6-.61,3.29-.83,5-.36,3.05-.66,6.21-.81,9.52-.22,4.75-.26,9.14.32,12,.2-.19,1.27.48,3.18,0,.87.13,2.16-.7,3.28-2.54.15-.86.66-3.34,1.07-6.83.07-.58.14-1.18.2-1.79A83.13,83.13,0,0,0,215.85,787.84Z"/><path class="cls-47" d="M215.85,787.84c-.44-2.88-2.42-6.76-3-4.17-.69,1-2.09,4.86-3.05,9.52-.32,1.58-.59,3.23-.81,4.91-.36,3-.65,6.11-.8,9.36-.23,4.71-.28,9,.28,11.8.21-.19,1.26.48,3.15,0,.84.13,2.09-.73,3.19-2.57.15-.89.65-3.33,1.05-6.76.07-.56.14-1.16.2-1.76A82.5,82.5,0,0,0,215.85,787.84Z"/><path class="cls-48" d="M215.84,787.84c-.44-2.87-1.91-6.37-2.94-3.88a51.43,51.43,0,0,0-3,9.37c-.31,1.55-.58,3.18-.79,4.82-.35,3-.64,6-.79,9.2-.23,4.68-.3,9,.23,11.6.22-.18,1.25.49,3.13,0,.81.12,2-.75,3.09-2.61.15-.9.64-3.31,1-6.67.07-.56.13-1.14.19-1.75A81.31,81.31,0,0,0,215.84,787.84Z"/><path class="cls-137" d="M215.83,787.85c-.43-2.88-1.87-6.15-2.88-3.6a52,52,0,0,0-2.87,9.22c-.31,1.53-.57,3.13-.78,4.74-.35,2.91-.63,5.92-.79,9-.23,4.64-.31,8.86.2,11.39.23-.17,1.24.5,3.11,0,.77.12,2-.78,3-2.65.16-.92.64-3.29,1-6.58.07-.56.13-1.13.19-1.73A80.63,80.63,0,0,0,215.83,787.85Z"/><path class="cls-49" d="M215.83,787.85c-.44-2.87-1.84-5.91-2.84-3.31a53.13,53.13,0,0,0-2.78,9.07c-.3,1.5-.55,3.07-.75,4.66-.35,2.86-.63,5.82-.79,8.87-.24,4.61-.33,8.77.16,11.19.23-.17,1.23.5,3.08,0,.74.11,1.88-.8,2.89-2.68.15-.94.62-3.28,1-6.51.06-.54.13-1.11.19-1.7A79.52,79.52,0,0,0,215.83,787.85Z"/><path class="cls-50" d="M215.82,787.85c-.44-2.87-1.8-5.68-2.78-3a54.59,54.59,0,0,0-2.7,8.91c-.29,1.48-.54,3-.73,4.57-.35,2.82-.62,5.73-.78,8.72-.25,4.57-.34,8.67.12,11,.23-.16,1.22.51,3.06,0,.7.11,1.8-.83,2.78-2.72.16-.95.62-3.26,1-6.42.07-.54.13-1.1.19-1.68A78.42,78.42,0,0,0,215.82,787.85Z"/><path class="cls-51" d="M215.81,787.85c-.43-2.86-1.75-5.45-2.73-2.72a56.39,56.39,0,0,0-2.61,8.76c-.28,1.45-.52,3-.71,4.49-.34,2.77-.61,5.63-.77,8.55-.26,4.54-.36,8.58.08,10.78.24-.16,1.2.52,3,0,.67.11,1.73-.85,2.68-2.76.16-1,.61-3.24,1-6.33.07-.54.13-1.09.19-1.66A77.83,77.83,0,0,0,215.81,787.85Z"/><path class="cls-52" d="M215.8,787.85c-.43-2.85-1.71-5.21-2.67-2.43a55.46,55.46,0,0,0-2.52,8.62c-.28,1.41-.51,2.9-.7,4.4-.33,2.72-.6,5.52-.76,8.39-.27,4.49-.38,8.48,0,10.57.24-.15,1.19.53,3,0,.64.1,1.66-.88,2.58-2.8.17-1,.61-3.22,1-6.25.06-.52.13-1.07.18-1.63A76.24,76.24,0,0,0,215.8,787.85Z"/><path class="cls-54" d="M215.8,787.86c-.43-2.86-1.68-5-2.63-2.15a60,60,0,0,0-2.43,8.47c-.27,1.39-.5,2.85-.68,4.31-.33,2.68-.59,5.43-.76,8.23-.27,4.46-.39,8.39,0,10.37.26-.15,1.19.53,3-.05.6.1,1.59-.9,2.48-2.83.16-1,.59-3.21.95-6.17.06-.52.12-1.06.18-1.61A76.05,76.05,0,0,0,215.8,787.86Z"/><path class="cls-54" d="M215.79,787.86c-.43-2.85-1.64-4.75-2.57-1.85a59.44,59.44,0,0,0-2.35,8.31c-.26,1.36-.48,2.79-.66,4.23-.32,2.63-.58,5.33-.75,8.06-.28,4.43-.41,8.3,0,10.17.26-.14,1.18.54,3,0,.57.08,1.52-.94,2.38-2.88.17-1,.59-3.19.94-6.08.06-.52.12-1,.18-1.6A74.9,74.9,0,0,0,215.79,787.86Z"/><path class="cls-55" d="M215.78,787.86c-.42-2.85-1.6-4.51-2.52-1.56a63.49,63.49,0,0,0-2.26,8.16c-.25,1.34-.46,2.74-.64,4.15-.32,2.58-.57,5.23-.74,7.9-.28,4.39-.43,8.2-.08,10,.26-.13,1.16.55,2.94-.06.53.08,1.44-1,2.27-2.92.18-1,.58-3.17.92-6,.07-.5.13-1,.18-1.57A73.32,73.32,0,0,0,215.78,787.86Z"/><path class="cls-56" d="M215.77,787.86c-.42-2.84-1.56-4.28-2.46-1.27a64.54,64.54,0,0,0-2.17,8c-.25,1.31-.46,2.69-.63,4.06-.31,2.54-.56,5.14-.73,7.74-.29,4.36-.45,8.11-.12,9.76.27-.13,1.15.55,2.91-.07.5.07,1.37-1,2.17-3,.18-1,.58-3.15.91-5.91.06-.5.12-1,.18-1.55A72.75,72.75,0,0,0,215.77,787.86Z"/><path class="cls-138" d="M215.77,787.86c-.42-2.83-1.53-4-2.42-1a69.1,69.1,0,0,0-2.08,7.86c-.24,1.29-.44,2.63-.61,4-.3,2.49-.55,5-.73,7.58-.29,4.32-.46,8-.15,9.55a5,5,0,0,0,2.88-.08c.47.07,1.3-1,2.08-3,.18-1.07.57-3.14.89-5.83.06-.5.12-1,.17-1.53A72.14,72.14,0,0,0,215.77,787.86Z"/><path class="cls-58" d="M215.76,787.87c-.42-2.84-1.49-3.82-2.37-.69a72.4,72.4,0,0,0-2,7.7c-.23,1.26-.42,2.58-.59,3.9-.3,2.44-.54,4.94-.72,7.41-.3,4.29-.48,7.92-.2,9.36.29-.13,1.14.56,2.87-.1.43.07,1.23-1,2-3,.18-1.09.56-3.12.88-5.75.06-.48.11-1,.17-1.5A70.51,70.51,0,0,0,215.76,787.87Z"/><path class="cls-59" d="M215.75,787.87c-.42-2.83-1.45-3.58-2.31-.4-.37,1.39-1.31,4.23-1.91,7.55-.22,1.24-.41,2.52-.57,3.82-.29,2.39-.53,4.83-.71,7.25-.31,4.25-.5,7.83-.24,9.15.29-.12,1.12.57,2.84-.11.4.06,1.16-1.06,1.87-3.07.19-1.1.56-3.1.87-5.66,0-.48.11-1,.17-1.48A70,70,0,0,0,215.75,787.87Z"/><path class="cls-60" d="M215.75,787.87c-.42-2.83-1.42-3.34-2.27-.11-.36,1.41-1.24,4.18-1.81,7.4-.22,1.21-.4,2.47-.56,3.73-.29,2.35-.52,4.74-.7,7.09-.32,4.21-.52,7.74-.28,8.95.29-.12,1.11.57,2.82-.12.36.06,1.08-1.08,1.77-3.11.18-1.12.54-3.08.84-5.58.06-.47.12-1,.17-1.45A69.37,69.37,0,0,0,215.75,787.87Z"/><path class="cls-61" d="M215.74,787.87c-.42-2.82-1.39-3.11-2.21.18-.36,1.44-1.19,4.14-1.73,7.26-.21,1.18-.38,2.41-.54,3.64-.28,2.3-.52,4.64-.7,6.93a55.12,55.12,0,0,0-.31,8.74,4.29,4.29,0,0,0,2.79-.13c.33,0,1-1.11,1.67-3.14.19-1.14.54-3.07.83-5.5.06-.46.11-.94.17-1.44A68.24,68.24,0,0,0,215.74,787.87Z"/><path class="cls-139" d="M215.73,787.87c-.41-2.82-1.35-2.87-2.16.48-.35,1.45-1.12,4.08-1.64,7.1-.2,1.15-.37,2.35-.52,3.56-.27,2.25-.51,4.54-.69,6.76a56.18,56.18,0,0,0-.35,8.54c.3-.11,1.09.59,2.76-.14.3.05.94-1.13,1.57-3.18.19-1.15.53-3,.82-5.41.06-.46.11-.93.16-1.42A66.68,66.68,0,0,0,215.73,787.87Z"/><path class="cls-63" d="M215.72,787.88c-.4-2.82-1.31-2.64-2.1.76-.35,1.48-1.07,4-1.56,7-.18,1.13-.35,2.3-.5,3.47-.27,2.21-.5,4.45-.68,6.61a57.59,57.59,0,0,0-.39,8.33,3.94,3.94,0,0,0,2.74-.15c.26,0,.87-1.16,1.46-3.22.2-1.17.53-3,.81-5.33.05-.45.11-.91.16-1.39A65.56,65.56,0,0,0,215.72,787.88Z"/><path class="cls-64" d="M215.72,787.88c-.41-2.81-1.28-2.4-2.06,1-.33,1.5-1,4-1.46,6.8-.18,1.1-.34,2.25-.49,3.39-.26,2.16-.49,4.35-.67,6.44a60.59,60.59,0,0,0-.44,8.13,3.74,3.74,0,0,0,2.72-.16c.24,0,.8-1.18,1.37-3.25.2-1.19.51-3,.79-5.25.05-.44.1-.9.16-1.37A65,65,0,0,0,215.72,787.88Z"/><path class="cls-65" d="M215.71,787.88c-.4-2.81-1.24-2.17-2,1.34-.33,1.52-1,3.95-1.38,6.65-.17,1.08-.33,2.19-.47,3.31-.26,2.11-.48,4.25-.66,6.28a63.84,63.84,0,0,0-.48,7.92,3.6,3.6,0,0,0,2.7-.17c.2,0,.72-1.21,1.26-3.29.2-1.21.51-3,.77-5.16.06-.44.11-.89.16-1.35A64,64,0,0,0,215.71,787.88Z"/><path class="cls-66" d="M215.7,787.88c-.4-2.8-1.2-1.93-1.95,1.64-.32,1.54-.88,3.89-1.29,6.49-.16,1-.31,2.14-.45,3.22-.25,2.07-.47,4.16-.66,6.12a70.39,70.39,0,0,0-.51,7.72,3.45,3.45,0,0,0,2.67-.18c.17,0,.65-1.23,1.16-3.33.21-1.22.5-3,.76-5.08,0-.43.11-.87.16-1.32A63.45,63.45,0,0,0,215.7,787.88Z"/><path class="cls-66" d="M215.7,787.88c-.41-2.8-1.18-1.69-1.9,1.93-.32,1.57-.82,3.84-1.2,6.34-.16,1-.3,2.08-.44,3.14-.24,2-.46,4.05-.65,6-.38,4-.64,7.07-.55,7.51a3.33,3.33,0,0,0,2.64-.18c.14,0,.58-1.27,1.06-3.38.21-1.23.5-3,.75-5,.05-.42.1-.86.15-1.3A62.94,62.94,0,0,0,215.7,787.88Z"/><path class="cls-67" d="M215.69,787.89c-.4-2.8-1.14-1.46-1.85,2.21-.3,1.59-.76,3.8-1.11,6.19-.15,1-.29,2-.42,3.06-.24,2-.46,3.95-.64,5.79-.39,3.92-.66,7-.59,7.31a3.17,3.17,0,0,0,2.62-.19,13.89,13.89,0,0,0,1-3.41c.21-1.26.48-3,.73-4.91l.15-1.28A61.33,61.33,0,0,0,215.69,787.89Z"/><path class="cls-68" d="M215.68,787.89c-.4-2.8-1.1-1.22-1.79,2.5-.3,1.62-.7,3.75-1,6-.14,1-.27,2-.39,3-.24,1.93-.46,3.86-.64,5.64-.41,3.88-.68,6.88-.63,7.1a3,3,0,0,0,2.59-.2,18.81,18.81,0,0,0,.86-3.45c.21-1.27.48-2.93.72-4.83,0-.41.1-.83.14-1.26A60.23,60.23,0,0,0,215.68,787.89Z"/><path class="cls-69" d="M215.67,787.89c-.39-2.79-1.06-1-1.74,2.8-.29,1.63-.63,3.7-.94,5.88-.13.95-.25,1.92-.37,2.89-.24,1.88-.45,3.76-.64,5.47-.42,3.85-.69,6.79-.67,6.9a2.94,2.94,0,0,0,2.57-.21,29.17,29.17,0,0,0,.76-3.49c.22-1.29.47-2.91.7-4.74,0-.4.1-.82.15-1.24A59.74,59.74,0,0,0,215.67,787.89Z"/><path class="cls-70" d="M214,811.3s.75-3.51,1.34-8.18a62.11,62.11,0,0,0,.35-15.23c-.57-4-1.63,1.92-2.54,8.83s-1.7,14.81-1.7,14.81A2.9,2.9,0,0,0,214,811.3Z"/></g><g id="Pink_Detail" data-name="Pink Detail"><ellipse class="cls-140" cx="210.77" cy="819.61" rx="0.58" ry="0.71"/><ellipse class="cls-140" cx="215.41" cy="823.96" rx="0.58" ry="0.52"/><ellipse class="cls-140" cx="210.49" cy="825.34" rx="0.58" ry="0.52"/><ellipse class="cls-140" cx="211.47" cy="798.51" rx="0.58" ry="0.52"/><ellipse class="cls-140" cx="214.95" cy="799.21" rx="0.58" ry="0.52"/><ellipse class="cls-140" cx="215.76" cy="798.04" rx="0.39" ry="0.32"/><ellipse class="cls-140" cx="214.83" cy="800.99" rx="0.39" ry="0.32"/><ellipse class="cls-140" cx="214.02" cy="803.05" rx="0.58" ry="0.52"/><ellipse class="cls-140" cx="207.63" cy="809.11" rx="0.58" ry="0.52"/><ellipse class="cls-140" cx="204.74" cy="802" rx="0.58" ry="0.52"/><ellipse class="cls-140" cx="205.2" cy="803.91" rx="0.58" ry="0.52"/><ellipse class="cls-140" cx="206.94" cy="801.91" rx="0.58" ry="0.52"/><ellipse class="cls-140" cx="208.39" cy="804.46" rx="0.39" ry="0.32"/><ellipse class="cls-140" cx="202.17" cy="810.66" rx="0.58" ry="0.52"/><ellipse class="cls-140" cx="203.35" cy="817.49" rx="0.58" ry="0.52"/><ellipse class="cls-140" cx="208.45" cy="806.54" rx="0.58" ry="0.52"/><ellipse class="cls-140" cx="212.63" cy="817.22" rx="0.58" ry="0.52"/><ellipse class="cls-140" cx="203.35" cy="794.13" rx="0.58" ry="0.52"/><ellipse class="cls-140" cx="207.99" cy="786.68" rx="0.58" ry="0.52"/><ellipse class="cls-140" cx="208.39" cy="800.66" rx="0.39" ry="0.32"/><ellipse class="cls-140" cx="205.28" cy="798.12" rx="0.39" ry="0.32"/><ellipse class="cls-140" cx="202.17" cy="802.2" rx="0.39" ry="0.32"/><ellipse class="cls-140" cx="202.17" cy="794.07" rx="0.39" ry="0.32"/><ellipse class="cls-140" cx="201.03" cy="791.6" rx="0.58" ry="0.52"/><ellipse class="cls-140" cx="206.26" cy="790.01" rx="0.58" ry="0.52"/><ellipse class="cls-140" cx="212.34" cy="802.77" rx="0.39" ry="0.32"/><ellipse class="cls-140" cx="214.48" cy="809.52" rx="0.58" ry="0.52"/><ellipse class="cls-140" cx="214.52" cy="796.77" rx="0.39" ry="0.32"/><ellipse class="cls-140" cx="208.7" cy="787.73" rx="0.39" ry="0.32"/><ellipse class="cls-140" cx="210.87" cy="782.66" rx="0.39" ry="0.32"/><ellipse class="cls-140" cx="203.42" cy="790.27" rx="0.39" ry="0.32"/><ellipse class="cls-140" cx="212.11" cy="795.08" rx="0.39" ry="0.32"/><ellipse class="cls-140" cx="215.84" cy="790.01" rx="0.39" ry="0.32"/><ellipse class="cls-140" cx="203.11" cy="781.39" rx="0.39" ry="0.32"/><ellipse class="cls-140" cx="207.77" cy="773.28" rx="0.39" ry="0.32"/></g></svg>