<svg xmlns="http://www.w3.org/2000/svg" viewBox="0 0 432 846"><defs><style>.cls-1{fill:#be1e2d;}.cls-2{fill:#be202d;}.cls-3{fill:#be212d;}.cls-4{fill:#be222e;}.cls-5{fill:#bf232e;}.cls-6{fill:#bf252e;}.cls-7{fill:#bf262e;}.cls-8{fill:#bf272e;}.cls-9{fill:#bf282e;}.cls-10{fill:#bf2a2e;}.cls-11{fill:#bf2b2f;}.cls-12{fill:#bf2c2f;}.cls-13{fill:#bf2d2f;}.cls-14{fill:#bf2e2f;}.cls-15{fill:#bf2f2f;}.cls-16{fill:#bf3030;}.cls-17{fill:#bf3130;}.cls-18{fill:#bf3230;}.cls-19{fill:#bf3330;}.cls-20{fill:#bf3430;}.cls-21{fill:#bf3530;}.cls-22{fill:#bf3631;}.cls-23{fill:#bf3731;}.cls-24{fill:#bf3831;}.cls-25{fill:#bf3931;}.cls-26{fill:#bf3a31;}.cls-27{fill:#bf3b31;}.cls-28{fill:#bf3c32;}.cls-29{fill:#bf3d32;}.cls-30{fill:#bf3e32;}.cls-31{fill:#bf3f32;}.cls-32{fill:#bf4033;}.cls-33{fill:#bf4133;}.cls-34{fill:#c04233;}.cls-35{fill:#c04333;}.cls-36{fill:#c04433;}.cls-37{fill:#c04534;}.cls-38{fill:#c04634;}.cls-39{fill:#c04734;}.cls-40{fill:#c04834;}.cls-41{fill:#c04935;}.cls-42{fill:#c04a35;}.cls-43{fill:#c04b35;}.cls-44{fill:#c04c35;}.cls-45{fill:#c04d36;}.cls-46{fill:#c04e36;}.cls-47{fill:#c04f36;}.cls-48{fill:#c05037;}.cls-49{fill:#c05137;}.cls-50{fill:#c05237;}.cls-51{fill:#c05337;}.cls-52{fill:#c05338;}.cls-53{fill:#c15438;}.cls-54{fill:#c15538;}.cls-55{fill:#c15639;}.cls-56{fill:#c15739;}.cls-57{fill:#c15839;}.cls-58{fill:#c15939;}.cls-59{fill:#c15a3a;}.cls-60{fill:#c15b3a;}</style></defs><g id="Green_Leaf" data-name="Green Leaf"><path class="cls-1" d="M218.61,430.71a1.53,1.53,0,0,1-1.92,0,28.59,28.59,0,0,1-7.67-18.9l0-1.9a41.2,41.2,0,0,1,16.8,0v1.9A28.2,28.2,0,0,1,218.61,430.71Z"/><path class="cls-1" d="M219.1,411.09l6.7-1.18s-.06-3.56-.51-7.27-1.31-7.54-2.87-8.1a20,20,0,0,0-10,0c-1.57.56-2.42,4.4-2.87,8.1s-.52,7.27-.52,7.27l6.7,1.18,0,.59,1.68-.29,1.68.29Z"/><path class="cls-2" d="M212.34,394.77a11.83,11.83,0,0,1,2.45-.53,20.42,20.42,0,0,1,2.64-.12,15.27,15.27,0,0,1,5,.65,2.54,2.54,0,0,1,1.23,1.35,23.13,23.13,0,0,1,1.58,6.76c.44,3.68.49,7.22.48,7.24s-6.63,1.22-6.64,1.24l0,.59s-1.67-.28-1.67-.27l-1.68.29v-.16l0-.43s-6.64-1.21-6.66-1.26a67.66,67.66,0,0,1,.47-7.24,23.1,23.1,0,0,1,1.59-6.76A2.47,2.47,0,0,1,212.34,394.77Z"/><path class="cls-3" d="M212.29,395a12.15,12.15,0,0,1,2.49-.54,20.78,20.78,0,0,1,2.68-.11,15.15,15.15,0,0,1,5.06.65,2.47,2.47,0,0,1,1.21,1.36,23.44,23.44,0,0,1,1.55,6.76,68.1,68.1,0,0,1,.44,7.21c0,.07-6.56,1.26-6.59,1.3s0,.58,0,.59-1.64-.27-1.65-.26-1.67.3-1.68.29v-.15l0-.44s-6.58-1.24-6.63-1.33a68.1,68.1,0,0,1,.44-7.21,23.43,23.43,0,0,1,1.55-6.77A2.44,2.44,0,0,1,212.29,395Z"/><path class="cls-4" d="M212.24,395.23a12,12,0,0,1,2.53-.54,19.69,19.69,0,0,1,2.72-.11,15.27,15.27,0,0,1,5.08.65,2.41,2.41,0,0,1,1.19,1.37,24,24,0,0,1,1.51,6.76,60.34,60.34,0,0,1,.41,7.19c-.05.09-6.5,1.29-6.54,1.35s0,.58,0,.58-1.63-.24-1.64-.23-1.67.3-1.69.29v-.16s0-.42,0-.43-6.53-1.27-6.59-1.4a59.15,59.15,0,0,1,.4-7.19,24.11,24.11,0,0,1,1.51-6.77A2.35,2.35,0,0,1,212.24,395.23Z"/><path class="cls-5" d="M212.19,395.46a11.59,11.59,0,0,1,2.57-.54,20.27,20.27,0,0,1,2.76-.12,15.94,15.94,0,0,1,5.1.66,2.35,2.35,0,0,1,1.17,1.37,24.44,24.44,0,0,1,1.48,6.77,59.6,59.6,0,0,1,.37,7.16c-.06.12-6.43,1.33-6.49,1.41s0,.57,0,.58-1.62-.23-1.64-.21-1.65.3-1.68.28v-.15s0-.42,0-.43-6.47-1.31-6.56-1.48a58.45,58.45,0,0,1,.36-7.16,24.75,24.75,0,0,1,1.47-6.77A2.33,2.33,0,0,1,212.19,395.46Z"/><path class="cls-6" d="M212.14,395.69a12.06,12.06,0,0,1,2.6-.55,22.73,22.73,0,0,1,2.81-.11,16.06,16.06,0,0,1,5.12.66,2.33,2.33,0,0,1,1.15,1.38,25.09,25.09,0,0,1,1.44,6.76,55.85,55.85,0,0,1,.34,7.14c-.08.16-6.36,1.37-6.44,1.47s0,.57,0,.58-1.61-.21-1.63-.19a16.35,16.35,0,0,1-1.68.28l0-.16s0-.41,0-.42-6.41-1.34-6.52-1.56a53.86,53.86,0,0,1,.32-7.14,25.42,25.42,0,0,1,1.43-6.76A2.27,2.27,0,0,1,212.14,395.69Z"/><path class="cls-7" d="M212.08,395.92a12.65,12.65,0,0,1,2.65-.55,19.89,19.89,0,0,1,2.85-.11,16.22,16.22,0,0,1,5.14.66c.44.15.8.6,1.14,1.39a25.68,25.68,0,0,1,1.4,6.76,53.32,53.32,0,0,1,.3,7.11c-.09.19-6.3,1.42-6.38,1.53s-.05.56-.06.58-1.58-.2-1.61-.17a16.09,16.09,0,0,1-1.69.28.78.78,0,0,0,0-.16s0-.41,0-.43-6.35-1.37-6.48-1.63a49.77,49.77,0,0,1,.28-7.11,25.32,25.32,0,0,1,1.39-6.76C211.29,396.52,211.65,396.07,212.08,395.92Z"/><path class="cls-8" d="M212,396.15a12.53,12.53,0,0,1,2.69-.55,22,22,0,0,1,2.89-.12,16.65,16.65,0,0,1,5.16.67c.43.15.78.59,1.12,1.4a26.37,26.37,0,0,1,1.37,6.76,50.22,50.22,0,0,1,.25,7.08c-.1.22-6.22,1.46-6.32,1.59s-.05.56-.06.57-1.57-.18-1.6-.14a12.13,12.13,0,0,1-1.69.27.77.77,0,0,1,0-.15s0-.42,0-.43-6.29-1.4-6.45-1.71a49.41,49.41,0,0,1,.24-7.08,26.57,26.57,0,0,1,1.36-6.77C211.25,396.74,211.6,396.3,212,396.15Z"/><path class="cls-9" d="M212,396.38a12.85,12.85,0,0,1,2.73-.56,24.37,24.37,0,0,1,2.93-.11,16.78,16.78,0,0,1,5.18.67c.42.15.77.58,1.1,1.4a26.85,26.85,0,0,1,1.33,6.77,47.43,47.43,0,0,1,.22,7.05c-.12.26-6.15,1.5-6.27,1.65s0,.55-.06.57-1.56-.16-1.59-.13a11,11,0,0,1-1.7.28.88.88,0,0,0,0-.16s0-.41-.05-.42-6.24-1.44-6.41-1.79a44.6,44.6,0,0,1,.2-7.05,26.79,26.79,0,0,1,1.32-6.77C211.22,397,211.56,396.53,212,396.38Z"/><path class="cls-10" d="M211.93,396.61a13.38,13.38,0,0,1,2.77-.56,21.4,21.4,0,0,1,3-.11,16.57,16.57,0,0,1,5.2.67c.42.15.76.57,1.08,1.41a27.12,27.12,0,0,1,1.3,6.77,45.71,45.71,0,0,1,.18,7c-.13.29-6.09,1.54-6.22,1.71s-.05.55-.06.57-1.55-.15-1.59-.11a8.76,8.76,0,0,1-1.69.27.68.68,0,0,1,0-.15s0-.41-.06-.42c-.15-.17-6.18-1.48-6.38-1.87a43.68,43.68,0,0,1,.17-7,26.74,26.74,0,0,1,1.28-6.77C211.18,397.18,211.52,396.76,211.93,396.61Z"/><path class="cls-11" d="M211.88,396.84a13,13,0,0,1,2.81-.56,23.67,23.67,0,0,1,3-.12,17,17,0,0,1,5.22.68c.41.14.74.56,1.06,1.42a27.43,27.43,0,0,1,1.26,6.77,43.56,43.56,0,0,1,.15,7c-.15.31-6,1.57-6.17,1.76,0,0-.05.55-.07.56s-1.53-.12-1.57-.08a8.76,8.76,0,0,1-1.69.27s0-.15,0-.15,0-.41-.06-.43c-.17-.18-6.12-1.5-6.34-1.93a41.83,41.83,0,0,1,.12-7,28.37,28.37,0,0,1,1.24-6.77C211.14,397.4,211.47,397,211.88,396.84Z"/><path class="cls-12" d="M211.83,397.07a13.47,13.47,0,0,1,2.85-.57,24.19,24.19,0,0,1,3-.11,17.17,17.17,0,0,1,5.24.68c.4.14.73.55,1.05,1.43a28.64,28.64,0,0,1,1.22,6.76,42.28,42.28,0,0,1,.11,7c-.17.35-6,1.61-6.12,1.82,0,0,0,.54-.07.56s-1.51-.11-1.56-.06a7.52,7.52,0,0,1-1.7.26l0-.15s0-.4-.07-.42c-.18-.2-6.06-1.54-6.31-2a40,40,0,0,1,.09-7,28.38,28.38,0,0,1,1.2-6.77C211.11,397.62,211.43,397.21,211.83,397.07Z"/><path class="cls-13" d="M211.78,397.3a13.91,13.91,0,0,1,2.88-.57,23.12,23.12,0,0,1,3.1-.11,17.3,17.3,0,0,1,5.26.68c.4.14.71.54,1,1.43a28.64,28.64,0,0,1,1.18,6.77,40.39,40.39,0,0,1,.08,6.95c-.18.38-5.89,1.65-6.06,1.88,0,0-.06.54-.08.56s-1.5-.1-1.55,0a7.52,7.52,0,0,1-1.7.26s0-.14,0-.15,0-.4-.07-.42c-.2-.22-6-1.57-6.27-2.09a37.89,37.89,0,0,1,0-6.95,28.7,28.7,0,0,1,1.16-6.77C211.07,397.84,211.39,397.44,211.78,397.3Z"/><path class="cls-14" d="M211.73,397.53a13.83,13.83,0,0,1,2.92-.57,22.08,22.08,0,0,1,3.14-.11,17.46,17.46,0,0,1,5.28.68c.39.13.7.53,1,1.44a29.45,29.45,0,0,1,1.15,6.77,39.27,39.27,0,0,1,0,6.92c-.2.41-5.82,1.7-6,1.94,0,0-.06.53-.08.56s-1.49-.08-1.54,0a6.6,6.6,0,0,1-1.7.25.7.7,0,0,1,0-.14s-.06-.4-.08-.42c-.22-.25-6-1.61-6.23-2.17a36.49,36.49,0,0,1,0-6.92,29.43,29.43,0,0,1,1.13-6.77C211,398.06,211.34,397.66,211.73,397.53Z"/><path class="cls-15" d="M211.68,397.76a13.52,13.52,0,0,1,3-.58,24.21,24.21,0,0,1,3.18-.11,17.93,17.93,0,0,1,5.3.69c.38.13.68.52,1,1.45a29.24,29.24,0,0,1,1.11,6.77,37.63,37.63,0,0,1,0,6.89c-.22.45-5.76,1.74-6,2,0,0-.06.53-.09.55s-1.47-.06-1.52,0a6.27,6.27,0,0,1-1.71.26s0-.14,0-.15-.06-.39-.08-.41c-.23-.27-5.89-1.64-6.2-2.25a36,36,0,0,1,0-6.89,29.86,29.86,0,0,1,1.09-6.77C211,398.28,211.3,397.89,211.68,397.76Z"/><path class="cls-16" d="M211.63,398a14.75,14.75,0,0,1,3-.57,24.76,24.76,0,0,1,3.22-.11,18.38,18.38,0,0,1,5.32.68c.38.14.67.52,1,1.47a30.08,30.08,0,0,1,1.08,6.77,35.39,35.39,0,0,1,0,6.86c-.22.48-5.68,1.78-5.9,2.06,0,0-.06.52-.09.55s-1.45-.05-1.52,0a5.74,5.74,0,0,1-1.7.26.8.8,0,0,1,0-.15s-.06-.39-.09-.42c-.25-.28-5.83-1.67-6.16-2.32a34.28,34.28,0,0,1-.07-6.86,29.54,29.54,0,0,1,1-6.77C211,398.5,211.26,398.12,211.63,398Z"/><path class="cls-17" d="M211.58,398.21a14.54,14.54,0,0,1,3-.57,23.63,23.63,0,0,1,3.26-.11,18.17,18.17,0,0,1,5.34.68c.37.13.66.51,1,1.48a31.52,31.52,0,0,1,1,6.76,34.82,34.82,0,0,1-.08,6.85c-.24.5-5.61,1.81-5.85,2.11,0,0-.07.52-.09.55s-1.44,0-1.51,0a5.49,5.49,0,0,1-1.71.25s0-.14,0-.15-.06-.38-.09-.41c-.27-.3-5.77-1.7-6.13-2.39a33.77,33.77,0,0,1-.11-6.85,31.84,31.84,0,0,1,1-6.77C210.93,398.72,211.21,398.34,211.58,398.21Z"/><path class="cls-18" d="M211.53,398.44a15,15,0,0,1,3.08-.58,25.87,25.87,0,0,1,3.3-.11,18.77,18.77,0,0,1,5.37.69c.35.13.63.5.93,1.48a31.44,31.44,0,0,1,1,6.77,33.62,33.62,0,0,1-.11,6.82c-.26.54-5.55,1.85-5.79,2.17,0,0-.08.51-.1.55s-1.43,0-1.5.06a5.53,5.53,0,0,1-1.71.25s0-.14,0-.15-.06-.38-.09-.41c-.28-.32-5.71-1.74-6.09-2.47a41.62,41.62,0,0,1,.82-13.59C210.89,398.94,211.17,398.57,211.53,398.44Z"/><path class="cls-19" d="M211.48,398.67a15.54,15.54,0,0,1,3.11-.58,24.9,24.9,0,0,1,3.35-.11,18.91,18.91,0,0,1,5.39.69c.35.13.62.49.91,1.49a31.65,31.65,0,0,1,1,6.77,33,33,0,0,1-.15,6.79c-.27.57-5.48,1.89-5.74,2.23,0,0-.08.51-.11.54s-1.41,0-1.48.09a5,5,0,0,1-1.71.24s0-.13,0-.14-.07-.38-.1-.41c-.3-.34-5.66-1.77-6-2.55a31,31,0,0,1-.19-6.79,31.8,31.8,0,0,1,.93-6.77C210.86,399.15,211.13,398.8,211.48,398.67Z"/><path class="cls-20" d="M211.43,398.9a15.88,15.88,0,0,1,3.15-.59,27.25,27.25,0,0,1,3.39-.1,19.41,19.41,0,0,1,5.41.69c.34.12.6.48.89,1.5a41.72,41.72,0,0,1,.75,13.53c-.29.6-5.41,1.93-5.69,2.29,0,0-.08.5-.11.54s-1.39,0-1.47.11a4.78,4.78,0,0,1-1.72.24s0-.13,0-.15-.07-.37-.1-.41c-.32-.35-5.6-1.8-6-2.62a30.47,30.47,0,0,1-.23-6.76,32.09,32.09,0,0,1,.9-6.77C210.82,399.37,211.08,399,211.43,398.9Z"/><path class="cls-21" d="M211.38,399.13a15.67,15.67,0,0,1,3.19-.59,25.89,25.89,0,0,1,3.42-.11,20,20,0,0,1,5.44.7c.33.12.59.47.87,1.51a32.37,32.37,0,0,1,.9,6.77,31.37,31.37,0,0,1-.22,6.73c-.31.64-5.35,2-5.64,2.35,0,0-.08.5-.11.54s-1.38,0-1.47.12a4.16,4.16,0,0,1-1.71.24s0-.13,0-.14-.08-.37-.11-.41c-.33-.37-5.54-1.83-6-2.7a28.79,28.79,0,0,1-.27-6.73,31.87,31.87,0,0,1,.86-6.78C210.79,399.59,211,399.25,211.38,399.13Z"/><path class="cls-22" d="M211.33,399.36a16.21,16.21,0,0,1,3.23-.59,26.39,26.39,0,0,1,3.46-.11,20.16,20.16,0,0,1,5.46.7c.33.12.58.45.86,1.51a32.83,32.83,0,0,1,.85,6.78,30.46,30.46,0,0,1-.25,6.7c-.32.67-5.28,2-5.59,2.41,0,0-.08.49-.11.53s-1.37.06-1.46.15a4.16,4.16,0,0,1-1.71.24s0-.13,0-.14-.07-.37-.11-.41c-.35-.39-5.48-1.87-5.95-2.78a29.21,29.21,0,0,1-.3-6.7,32.94,32.94,0,0,1,.82-6.78C210.75,399.81,211,399.48,211.33,399.36Z"/><path class="cls-23" d="M211.28,399.59a16,16,0,0,1,3.27-.6,28.87,28.87,0,0,1,3.5-.1,20.3,20.3,0,0,1,5.48.7c.32.11.56.44.84,1.52a34.56,34.56,0,0,1,.82,6.77,29.14,29.14,0,0,1-.3,6.68c-.33.7-5.2,2.06-5.52,2.47,0,.05-.09.49-.13.53s-1.35.07-1.44.17a4,4,0,0,1-1.72.24s0-.13,0-.15-.08-.36-.12-.4c-.37-.41-5.43-1.9-5.91-2.86-.27-.52-.43-3.51-.35-6.68a34,34,0,0,1,.78-6.77C210.71,400,211,399.7,211.28,399.59Z"/><path class="cls-24" d="M211.23,399.82a15.8,15.8,0,0,1,3.31-.6,27.57,27.57,0,0,1,3.54-.11,20.88,20.88,0,0,1,5.5.71c.31.11.55.43.82,1.53a34.05,34.05,0,0,1,.78,6.77,28.54,28.54,0,0,1-.33,6.66c-.35.73-5.14,2.09-5.47,2.52,0,.05-.09.49-.13.53s-1.34.09-1.43.19a3.88,3.88,0,0,1-1.72.23s0-.13,0-.14-.08-.36-.12-.41c-.38-.43-5.37-1.93-5.88-2.92-.28-.55-.45-3.52-.38-6.66a34.21,34.21,0,0,1,.74-6.77C210.68,400.25,210.91,399.93,211.23,399.82Z"/><path class="cls-25" d="M211.17,400.05a16.78,16.78,0,0,1,3.36-.6,28.14,28.14,0,0,1,3.58-.11,20.61,20.61,0,0,1,5.52.71c.31.11.54.42.8,1.54a34.34,34.34,0,0,1,.75,6.77,28.19,28.19,0,0,1-.37,6.63c-.36.76-5.07,2.13-5.42,2.58,0,.05-.09.48-.13.53s-1.32.1-1.42.21a3.75,3.75,0,0,1-1.72.23s0-.13-.05-.14-.09-.36-.13-.41c-.4-.45-5.31-2-5.84-3-.29-.57-.48-3.52-.43-6.63a34.49,34.49,0,0,1,.71-6.77C210.64,400.47,210.87,400.16,211.17,400.05Z"/><path class="cls-26" d="M211.12,400.28a17,17,0,0,1,3.39-.61,27.13,27.13,0,0,1,3.63-.1,20.75,20.75,0,0,1,5.54.71c.3.1.52.41.78,1.55a35.32,35.32,0,0,1,.72,6.77,27.88,27.88,0,0,1-.41,6.6c-.38.79-5,2.17-5.37,2.64,0,.05-.09.48-.13.52s-1.31.12-1.42.24a3.6,3.6,0,0,1-1.72.22s0-.12,0-.14-.09-.35-.13-.4c-.42-.47-5.25-2-5.8-3.08-.31-.6-.5-3.51-.47-6.6a34.91,34.91,0,0,1,.67-6.78C210.6,400.69,210.82,400.38,211.12,400.28Z"/><path class="cls-27" d="M211.07,400.51a17,17,0,0,1,3.43-.61,29.46,29.46,0,0,1,3.67-.11,21.34,21.34,0,0,1,5.56.72c.29.1.51.4.76,1.55a35,35,0,0,1,.68,6.78c0,3.06-.14,6-.44,6.57-.4.83-4.94,2.21-5.32,2.7,0,.06-.1.47-.14.52s-1.29.14-1.4.25a3.37,3.37,0,0,1-1.72.23s0-.13-.06-.14a3.7,3.7,0,0,0-.13-.4c-.43-.49-5.19-2-5.77-3.16-.31-.62-.52-3.51-.5-6.57a34.44,34.44,0,0,1,.63-6.78C210.57,400.91,210.78,400.61,211.07,400.51Z"/><path class="cls-28" d="M211,400.74a17.53,17.53,0,0,1,3.47-.61,28.21,28.21,0,0,1,3.71-.11,21.49,21.49,0,0,1,5.58.72c.29.1.5.39.75,1.56a36.16,36.16,0,0,1,.64,6.78c0,3-.17,5.9-.48,6.54-.41.86-4.87,2.25-5.27,2.76,0,.06-.1.47-.14.52s-1.28.15-1.39.27a3.3,3.3,0,0,1-1.73.22s0-.12,0-.14-.09-.34-.14-.39c-.45-.51-5.14-2.07-5.73-3.24-.33-.64-.55-3.51-.55-6.54a35.48,35.48,0,0,1,.6-6.78C210.53,401.13,210.74,400.84,211,400.74Z"/><path class="cls-29" d="M211,401a18,18,0,0,1,3.51-.62,28.82,28.82,0,0,1,3.75-.1,21.63,21.63,0,0,1,5.6.72c.28.1.48.38.73,1.57a36.35,36.35,0,0,1,.6,6.77c0,3-.19,5.86-.51,6.52-.43.9-4.81,2.3-5.21,2.82-.05.06-.11.46-.15.52s-1.26.16-1.38.29a3.3,3.3,0,0,1-1.73.22s0-.12-.06-.14-.09-.35-.14-.4c-.47-.52-5.08-2.09-5.7-3.31-.34-.66-.57-3.5-.58-6.52a35.7,35.7,0,0,1,.55-6.77C210.49,401.35,210.69,401.06,211,401Z"/><path class="cls-30" d="M210.92,401.2a17.86,17.86,0,0,1,3.55-.62,31.25,31.25,0,0,1,3.79-.11,22.31,22.31,0,0,1,5.62.73c.28.09.47.37.71,1.58a36.69,36.69,0,0,1,.57,6.77c0,3-.22,5.8-.55,6.49-.45.93-4.74,2.34-5.16,2.88,0,.06-.11.46-.15.51s-1.25.19-1.37.32a3.11,3.11,0,0,1-1.73.21s0-.12-.06-.13-.1-.35-.15-.4c-.48-.54-5-2.13-5.66-3.39-.35-.69-.59-3.5-.62-6.49a35.33,35.33,0,0,1,.51-6.78C210.46,401.57,210.65,401.29,210.92,401.2Z"/><path class="cls-30" d="M210.87,401.43a17.7,17.7,0,0,1,3.59-.62,29.91,29.91,0,0,1,3.83-.11,22.46,22.46,0,0,1,5.64.73c.27.09.46.36.69,1.58a36.22,36.22,0,0,1,.53,6.78c0,3-.24,5.75-.59,6.47-.45.95-4.66,2.37-5.1,2.93-.05.06-.11.45-.16.51s-1.23.2-1.36.34a3.1,3.1,0,0,1-1.73.21s0-.12-.06-.14-.1-.34-.15-.39c-.5-.56-5-2.16-5.62-3.46-.37-.72-.62-3.51-.67-6.47a37.18,37.18,0,0,1,.48-6.78C210.42,401.79,210.61,401.52,210.87,401.43Z"/><path class="cls-31" d="M210.82,401.65a19.14,19.14,0,0,1,3.63-.62,30.55,30.55,0,0,1,3.87-.1,22.58,22.58,0,0,1,5.66.72c.26.1.44.36.67,1.6a36.44,36.44,0,0,1,.5,6.78c0,2.94-.27,5.7-.63,6.44-.47,1-4.6,2.41-5.05,3-.05.07-.11.45-.16.51s-1.22.22-1.35.36a3,3,0,0,1-1.73.21.84.84,0,0,1-.06-.14s-.11-.34-.16-.39c-.52-.58-4.9-2.2-5.59-3.54-.38-.74-.64-3.5-.7-6.44a36.63,36.63,0,0,1,.44-6.78C210.38,402,210.56,401.75,210.82,401.65Z"/><path class="cls-32" d="M210.77,401.88a19.14,19.14,0,0,1,3.66-.62,31.29,31.29,0,0,1,3.92-.11,23.24,23.24,0,0,1,5.68.73c.26.09.43.35.66,1.61a38.51,38.51,0,0,1,.46,6.78c-.05,2.91-.3,5.65-.67,6.41-.48,1-4.53,2.45-5,3.05,0,.07-.11.44-.16.51s-1.2.23-1.34.37a2.85,2.85,0,0,1-1.73.21s-.05-.11-.07-.13-.1-.34-.16-.4c-.53-.59-4.85-2.22-5.55-3.61-.39-.76-.67-3.5-.74-6.41a36.81,36.81,0,0,1,.4-6.78C210.34,402.23,210.52,402,210.77,401.88Z"/><path class="cls-33" d="M210.72,402.11a20.4,20.4,0,0,1,3.7-.63,32,32,0,0,1,4-.1,23.39,23.39,0,0,1,5.7.73c.25.09.42.34.64,1.62a37.76,37.76,0,0,1,.42,6.78c-.06,2.88-.32,5.59-.7,6.38-.5,1.05-4.46,2.49-4.94,3.11-.06.07-.12.44-.17.5-.18.22-1.19.25-1.33.4a2.74,2.74,0,0,1-1.74.21.84.84,0,0,1-.06-.14c0-.05-.11-.33-.17-.39-.55-.62-4.79-2.26-5.52-3.69-.4-.79-.69-3.5-.78-6.39a37,37,0,0,1,.37-6.77C210.31,402.45,210.48,402.2,210.72,402.11Z"/><path class="cls-34" d="M210.67,402.34a20.39,20.39,0,0,1,3.74-.63,30.64,30.64,0,0,1,4-.1,24.2,24.2,0,0,1,5.73.73c.23.09.4.33.61,1.63a37,37,0,0,1,.39,6.77c-.08,2.87-.35,5.55-.74,6.36-.52,1.09-4.4,2.53-4.89,3.17-.06.07-.12.43-.18.5-.18.22-1.17.27-1.31.42a2.68,2.68,0,0,1-1.74.2s-.05-.11-.07-.13-.11-.33-.17-.39c-.57-.64-4.73-2.29-5.48-3.77-.41-.81-.71-3.49-.82-6.36a37.32,37.32,0,0,1,.33-6.78C210.27,402.67,210.43,402.43,210.67,402.34Z"/><path class="cls-35" d="M210.62,402.57a20,20,0,0,1,3.78-.63,31.21,31.21,0,0,1,4-.1,24.36,24.36,0,0,1,5.75.73c.23.08.38.32.59,1.63a36.43,36.43,0,0,1,.35,6.78,23.43,23.43,0,0,1-.77,6.33c-.53,1.12-4.33,2.58-4.84,3.23-.06.08-.12.43-.18.5-.19.23-1.16.28-1.31.44a2.58,2.58,0,0,1-1.73.2.37.37,0,0,1-.07-.14c-.06-.05-.12-.32-.18-.38-.58-.66-4.67-2.33-5.45-3.85-.42-.83-.73-3.49-.85-6.33a37.49,37.49,0,0,1,.28-6.78C210.23,402.89,210.39,402.65,210.62,402.57Z"/><path class="cls-36" d="M210.57,402.8a21.52,21.52,0,0,1,3.82-.64,33.78,33.78,0,0,1,4.08-.1,25.09,25.09,0,0,1,5.77.74c.22.08.37.31.57,1.64a37.48,37.48,0,0,1,.32,6.78,23.43,23.43,0,0,1-.81,6.3c-.55,1.15-4.26,2.62-4.79,3.29-.06.08-.13.42-.18.49-.19.24-1.15.3-1.3.47a2.54,2.54,0,0,1-1.74.19s-.05-.11-.07-.13-.12-.32-.18-.39c-.6-.67-4.61-2.35-5.41-3.92-.44-.85-.76-3.49-.9-6.3a37.64,37.64,0,0,1,.25-6.78C210.19,403.11,210.35,402.88,210.57,402.8Z"/><path class="cls-37" d="M210.52,403a20.39,20.39,0,0,1,3.86-.64,32.43,32.43,0,0,1,4.12-.1,25.32,25.32,0,0,1,5.79.74c.21.08.36.3.56,1.65a37.63,37.63,0,0,1,.27,6.78,23.25,23.25,0,0,1-.84,6.28c-.57,1.18-4.2,2.65-4.74,3.34-.06.08-.13.42-.18.49-.2.24-1.13.32-1.29.49a2.49,2.49,0,0,1-1.74.19s-.05-.11-.08-.13-.12-.32-.18-.39c-.62-.69-4.56-2.39-5.37-4-.45-.88-.79-3.49-.94-6.28a37.78,37.78,0,0,1,.21-6.78C210.16,403.33,210.3,403.11,210.52,403Z"/><path class="cls-37" d="M210.47,403.26a20.4,20.4,0,0,1,3.9-.64,31.24,31.24,0,0,1,4.16-.1,24.94,24.94,0,0,1,5.81.74c.21.07.35.29.54,1.66a37.77,37.77,0,0,1,.24,6.78,22.85,22.85,0,0,1-.89,6.25c-.57,1.21-4.12,2.69-4.67,3.4-.07.08-.14.42-.2.49-.2.25-1.11.33-1.27.5a2.46,2.46,0,0,1-1.75.2s-.05-.11-.07-.14-.12-.31-.19-.38c-.63-.71-4.5-2.43-5.34-4.07a22.08,22.08,0,0,1-1-6.25,37,37,0,0,1,.17-6.78C210.12,403.54,210.26,403.33,210.47,403.26Z"/><path class="cls-38" d="M210.42,403.49a21.69,21.69,0,0,1,3.93-.65,33.78,33.78,0,0,1,4.21-.1,25.69,25.69,0,0,1,5.83.75c.2.07.33.27.52,1.66a37.06,37.06,0,0,1,.2,6.78,22.26,22.26,0,0,1-.92,6.23c-.59,1.24-4.06,2.73-4.62,3.46-.07.08-.14.41-.2.49-.21.25-1.1.35-1.26.52a2.37,2.37,0,0,1-1.75.19s-.05-.11-.08-.13-.12-.31-.19-.38c-.65-.73-4.44-2.46-5.3-4.15a21.73,21.73,0,0,1-1-6.23,36.27,36.27,0,0,1,.14-6.78C210.08,403.76,210.22,403.56,210.42,403.49Z"/><path class="cls-39" d="M210.37,403.72a21.51,21.51,0,0,1,4-.65,34.38,34.38,0,0,1,4.25-.1,25.93,25.93,0,0,1,5.85.75c.19.07.32.26.5,1.67a38.08,38.08,0,0,1,.17,6.78,22.28,22.28,0,0,1-1,6.2c-.61,1.28-4,2.77-4.57,3.52-.07.09-.14.41-.2.48-.22.27-1.09.37-1.25.55a2.37,2.37,0,0,1-1.75.19s-.06-.11-.08-.13-.13-.31-.2-.38c-.67-.75-4.38-2.5-5.27-4.23a21.86,21.86,0,0,1-1.05-6.2,36.37,36.37,0,0,1,.1-6.78C210,404,210.17,403.79,210.37,403.72Z"/><path class="cls-40" d="M210.31,404a21.72,21.72,0,0,1,4-.65,31.42,31.42,0,0,1,4.29-.1,26,26,0,0,1,5.87.75c.19.06.31.25.48,1.68a38.17,38.17,0,0,1,.14,6.78,22.4,22.4,0,0,1-1,6.17c-.62,1.31-3.92,2.81-4.52,3.58-.07.09-.14.4-.2.48-.22.27-1.07.38-1.25.57a2.31,2.31,0,0,1-1.75.18s0-.1-.08-.13-.13-.3-.2-.38c-.68-.76-4.32-2.52-5.23-4.3a21.63,21.63,0,0,1-1.09-6.17,36.47,36.47,0,0,1,.05-6.78C210,404.2,210.13,404,210.31,404Z"/><path class="cls-41" d="M210.26,404.18a23.29,23.29,0,0,1,4.06-.66,35.6,35.6,0,0,1,4.33-.1,26.82,26.82,0,0,1,5.89.76c.18.06.3.24.47,1.69a38.25,38.25,0,0,1,.09,6.78,22.31,22.31,0,0,1-1,6.14c-.64,1.34-3.86,2.85-4.47,3.64-.07.09-.14.4-.21.48-.22.27-1,.4-1.23.59a2.27,2.27,0,0,1-1.75.18s-.06-.11-.08-.13-.14-.3-.21-.38c-.7-.79-4.27-2.56-5.19-4.38a21.43,21.43,0,0,1-1.14-6.14,36.53,36.53,0,0,1,0-6.78C210,404.42,210.08,404.24,210.26,404.18Z"/><path class="cls-41" d="M210.21,404.41a23.1,23.1,0,0,1,4.1-.66,36.22,36.22,0,0,1,4.37-.1,27,27,0,0,1,5.91.76c.17.06.29.23.45,1.7a37.38,37.38,0,0,1,.06,6.78A22.57,22.57,0,0,1,224,419c-.66,1.37-3.79,2.89-4.42,3.69-.07.09-.14.39-.21.48-.23.28-1,.41-1.22.61a2.22,2.22,0,0,1-1.75.17s-.06-.1-.09-.12-.14-.3-.21-.38c-.72-.81-4.21-2.59-5.16-4.45a21.77,21.77,0,0,1-1.17-6.12,36.69,36.69,0,0,1,0-6.79C209.93,404.64,210,404.47,210.21,404.41Z"/><path class="cls-42" d="M210.16,404.64a22,22,0,0,1,4.14-.66,33.09,33.09,0,0,1,4.41-.1,27.24,27.24,0,0,1,5.93.76c.17.05.27.22.43,1.7a36.65,36.65,0,0,1,0,6.79,22.07,22.07,0,0,1-1.1,6.09c-.67,1.4-3.72,2.93-4.36,3.75-.08.1-.15.39-.22.47-.24.29-1,.44-1.21.63a2.17,2.17,0,0,1-1.76.18s-.06-.1-.08-.13-.14-.29-.22-.37c-.73-.83-4.15-2.63-5.12-4.53a21.26,21.26,0,0,1-1.21-6.09,35.87,35.87,0,0,1-.06-6.79C209.89,404.86,210,404.69,210.16,404.64Z"/><path class="cls-43" d="M210.11,404.87a23.29,23.29,0,0,1,4.18-.67,37.48,37.48,0,0,1,4.45-.1,27.45,27.45,0,0,1,5.95.77c.16.05.26.21.41,1.71a36.57,36.57,0,0,1,0,6.78,21.83,21.83,0,0,1-1.15,6.07c-.68,1.43-3.65,3-4.3,3.81-.07.1-.15.38-.23.47-.23.3-1,.45-1.19.65a2.13,2.13,0,0,1-1.76.17s-.06-.09-.09-.12-.14-.29-.22-.38c-.75-.84-4.09-2.65-5.09-4.6a21.86,21.86,0,0,1-1.25-6.07,35.77,35.77,0,0,1-.09-6.78C209.85,405.08,210,404.92,210.11,404.87Z"/><path class="cls-44" d="M210.06,405.09a24.7,24.7,0,0,1,4.21-.66,34.43,34.43,0,0,1,4.5-.1,28.22,28.22,0,0,1,6,.76c.15.06.25.21.39,1.73a36.58,36.58,0,0,1,0,6.78,21.76,21.76,0,0,1-1.18,6c-.7,1.47-3.58,3-4.25,3.87-.07.1-.16.38-.23.47-.24.3-1,.46-1.19.67a2,2,0,0,1-1.76.17s-.06-.1-.09-.13-.14-.28-.22-.37c-.77-.86-4-2.69-5-4.68a21.39,21.39,0,0,1-1.29-6,35.77,35.77,0,0,1-.13-6.78C209.81,405.3,209.91,405.15,210.06,405.09Z"/><path class="cls-45" d="M210,405.32a23.64,23.64,0,0,1,4.25-.66,35,35,0,0,1,4.54-.1,28.4,28.4,0,0,1,6,.76c.15.05.24.2.38,1.74a37.47,37.47,0,0,1-.09,6.78,22,22,0,0,1-1.22,6c-.71,1.5-3.51,3-4.2,3.93-.07.1-.16.37-.23.46-.25.31-1,.49-1.18.7a2.05,2.05,0,0,1-1.76.17s-.06-.1-.09-.13-.15-.28-.23-.37c-.78-.88-4-2.72-5-4.76a21.37,21.37,0,0,1-1.32-6,35.77,35.77,0,0,1-.18-6.78C209.78,405.52,209.87,405.37,210,405.32Z"/><path class="cls-45" d="M210,405.55a25.11,25.11,0,0,1,4.29-.67,35.44,35.44,0,0,1,4.57-.1,29.39,29.39,0,0,1,6,.77c.14.05.23.19.36,1.74a36.66,36.66,0,0,1-.13,6.79,22,22,0,0,1-1.25,6c-.73,1.53-3.45,3.09-4.15,4-.07.1-.16.37-.23.46-.26.32-1,.5-1.17.72a2,2,0,0,1-1.76.16s-.07-.09-.1-.12-.15-.28-.23-.37c-.8-.9-3.92-2.76-5-4.84a21.62,21.62,0,0,1-1.37-6,35.82,35.82,0,0,1-.21-6.79C209.74,405.74,209.82,405.6,210,405.55Z"/><path class="cls-46" d="M209.91,405.78a25.14,25.14,0,0,1,4.33-.67,36,36,0,0,1,4.61-.1,29.48,29.48,0,0,1,6,.77c.13.05.22.18.34,1.75a36.64,36.64,0,0,1-.16,6.79,21.83,21.83,0,0,1-1.29,5.95c-.75,1.57-3.38,3.13-4.09,4.05-.08.11-.17.36-.25.46-.26.32-.95.51-1.15.74a2,2,0,0,1-1.77.16s-.06-.1-.09-.13-.16-.28-.24-.37c-.82-.91-3.86-2.78-4.94-4.91a21.14,21.14,0,0,1-1.41-5.95,35.8,35.8,0,0,1-.25-6.79C209.7,406,209.78,405.83,209.91,405.78Z"/><path class="cls-47" d="M209.86,406a25.31,25.31,0,0,1,4.37-.68,38.76,38.76,0,0,1,4.65-.09,30.38,30.38,0,0,1,6.06.77c.13.05.2.17.32,1.76a35.75,35.75,0,0,1-.19,6.79,22.36,22.36,0,0,1-1.33,5.93c-.76,1.59-3.31,3.17-4,4.1-.08.11-.17.36-.25.46-.26.33-.93.53-1.14.76a1.94,1.94,0,0,1-1.77.15s-.07-.09-.1-.12-.15-.28-.24-.37c-.83-.93-3.8-2.82-4.91-5a21.37,21.37,0,0,1-1.44-5.93,34.94,34.94,0,0,1-.29-6.79C209.66,406.18,209.74,406.06,209.86,406Z"/><path class="cls-48" d="M209.81,406.24a26.53,26.53,0,0,1,4.41-.68,37.27,37.27,0,0,1,4.69-.1,31.37,31.37,0,0,1,6.08.78c.12,0,.19.16.3,1.77a34.72,34.72,0,0,1-.23,6.78,22.5,22.5,0,0,1-1.36,5.91c-.78,1.62-3.25,3.21-4,4.16-.08.11-.17.36-.25.45-.27.34-.92.55-1.14.78a1.89,1.89,0,0,1-1.76.16,1.06,1.06,0,0,1-.1-.12c-.08-.08-.16-.28-.25-.37-.85-.95-3.74-2.85-4.87-5.06a21.8,21.8,0,0,1-1.49-5.91,34,34,0,0,1-.32-6.78C209.62,406.4,209.69,406.28,209.81,406.24Z"/><path class="cls-48" d="M209.76,406.47a26.33,26.33,0,0,1,4.44-.68,38,38,0,0,1,4.74-.1,31.86,31.86,0,0,1,6.11.78c.1,0,.17.15.28,1.78a35.47,35.47,0,0,1-.27,6.78,22.41,22.41,0,0,1-1.4,5.88c-.8,1.66-3.18,3.25-3.94,4.22-.08.11-.17.35-.25.45-.28.34-.91.57-1.13.8a1.88,1.88,0,0,1-1.77.15,1.27,1.27,0,0,1-.1-.12c-.07-.08-.16-.27-.25-.36-.87-1-3.69-2.89-4.84-5.14a21.8,21.8,0,0,1-1.52-5.88,33.21,33.21,0,0,1-.36-6.79C209.58,406.62,209.65,406.51,209.76,406.47Z"/><path class="cls-49" d="M209.71,406.7a27,27,0,0,1,4.48-.69,38.77,38.77,0,0,1,4.78-.09,31.28,31.28,0,0,1,6.13.78c.1,0,.16.14.26,1.78a35.44,35.44,0,0,1-.31,6.79,22.06,22.06,0,0,1-1.44,5.85c-.8,1.69-3.11,3.29-3.88,4.28a4.83,4.83,0,0,1-.26.45c-.28.35-.89.58-1.11.82a1.85,1.85,0,0,1-1.77.15,1.06,1.06,0,0,1-.1-.12c-.08-.09-.17-.27-.26-.36-.88-1-3.63-2.92-4.8-5.22a22.22,22.22,0,0,1-1.57-5.85,33.84,33.84,0,0,1-.4-6.79C209.55,406.84,209.61,406.74,209.71,406.7Z"/><path class="cls-50" d="M209.66,406.93a26.76,26.76,0,0,1,4.52-.69,39.25,39.25,0,0,1,4.82-.1,32.3,32.3,0,0,1,6.15.79c.09,0,.15.13.24,1.79a35.37,35.37,0,0,1-.34,6.79,22.42,22.42,0,0,1-1.48,5.82c-.82,1.72-3,3.33-3.82,4.34-.09.12-.18.34-.27.45-.29.35-.87.59-1.1.84a1.86,1.86,0,0,1-1.77.15.69.69,0,0,1-.11-.13c-.08-.08-.17-.26-.26-.36-.9-1-3.57-2.95-4.76-5.29a22,22,0,0,1-1.61-5.82,33.77,33.77,0,0,1-.44-6.79C209.51,407.06,209.56,407,209.66,406.93Z"/><path class="cls-51" d="M209.61,407.16a26.59,26.59,0,0,1,4.56-.69,38,38,0,0,1,4.86-.1,32.5,32.5,0,0,1,6.17.79c.08,0,.14.12.22,1.8a33.72,33.72,0,0,1-.38,6.79,22.69,22.69,0,0,1-1.51,5.79c-.84,1.76-3,3.37-3.77,4.4-.09.12-.18.34-.27.44a13.31,13.31,0,0,1-1.09.87,1.82,1.82,0,0,1-1.78.14,1.06,1.06,0,0,1-.1-.12c-.09-.09-.17-.26-.27-.36-.92-1-3.51-3-4.73-5.37a22.15,22.15,0,0,1-1.64-5.79,32.93,32.93,0,0,1-.48-6.79C209.47,407.28,209.52,407.19,209.61,407.16Z"/><path class="cls-52" d="M209.56,407.39a27,27,0,0,1,4.6-.7,38.72,38.72,0,0,1,4.9-.09,32.8,32.8,0,0,1,6.19.79c.08,0,.13.11.2,1.81A33.61,33.61,0,0,1,225,416a22.83,22.83,0,0,1-1.55,5.76c-.85,1.79-2.91,3.41-3.72,4.46-.09.12-.19.33-.27.44a13.92,13.92,0,0,1-1.09.89,1.8,1.8,0,0,1-1.77.14,1.2,1.2,0,0,1-.11-.12c-.08-.09-.17-.26-.27-.36-.93-1.05-3.45-3-4.69-5.45a22.66,22.66,0,0,1-1.69-5.77,32.71,32.71,0,0,1-.51-6.78C209.43,407.5,209.48,407.42,209.56,407.39Z"/><path class="cls-53" d="M209.51,407.62a28.26,28.26,0,0,1,4.64-.7,39.28,39.28,0,0,1,4.94-.09,32.9,32.9,0,0,1,6.21.79c.07,0,.11.1.18,1.81a32.72,32.72,0,0,1-.45,6.79,23.11,23.11,0,0,1-1.58,5.75c-.87,1.81-2.84,3.45-3.67,4.51-.09.12-.19.33-.28.44a12.2,12.2,0,0,1-1.07.9,1.74,1.74,0,0,1-1.78.14,1.31,1.31,0,0,1-.11-.12c-.08-.09-.17-.25-.27-.35-1-1.07-3.4-3.05-4.66-5.52a23,23,0,0,1-1.72-5.75,32,32,0,0,1-.55-6.79C209.39,407.71,209.43,407.64,209.51,407.62Z"/><path class="cls-54" d="M209.46,407.85a28.08,28.08,0,0,1,4.68-.7,39.75,39.75,0,0,1,5-.1,34,34,0,0,1,6.23.8c.06,0,.1.08.17,1.82a33.27,33.27,0,0,1-.49,6.79,23.77,23.77,0,0,1-1.62,5.72c-.88,1.85-2.77,3.49-3.62,4.57-.09.13-.19.32-.28.44-.31.38-.82.66-1.06.92a1.74,1.74,0,0,1-1.78.14.63.63,0,0,1-.11-.12c-.09-.09-.18-.25-.28-.36-1-1.08-3.34-3.08-4.62-5.59a22.85,22.85,0,0,1-1.76-5.72,30.56,30.56,0,0,1-.59-6.79C209.35,407.93,209.39,407.87,209.46,407.85Z"/><path class="cls-54" d="M209.4,408.08a29.2,29.2,0,0,1,4.72-.71,40.71,40.71,0,0,1,5-.09,34.2,34.2,0,0,1,6.25.8c.06,0,.09.07.15,1.83a32.43,32.43,0,0,1-.52,6.79,24.18,24.18,0,0,1-1.66,5.69c-.9,1.88-2.71,3.53-3.56,4.63-.1.13-.2.32-.29.43a13.66,13.66,0,0,1-1.05.95,1.7,1.7,0,0,1-1.78.13l-.12-.11c-.08-.1-.18-.25-.28-.36-1-1.1-3.28-3.11-4.59-5.67a24.19,24.19,0,0,1-1.8-5.69,31.7,31.7,0,0,1-.63-6.79C209.31,408.15,209.35,408.1,209.4,408.08Z"/><path class="cls-55" d="M209.35,408.31a30.11,30.11,0,0,1,4.76-.71,39.43,39.43,0,0,1,5.07-.09,33.65,33.65,0,0,1,6.27.8c.05,0,.08.06.13,1.84a31.61,31.61,0,0,1-.56,6.79,23.88,23.88,0,0,1-1.7,5.66,25.82,25.82,0,0,1-3.5,4.69c-.1.13-.2.31-.29.43-.32.39-.79.7-1,1a1.7,1.7,0,0,1-1.79.13.63.63,0,0,1-.11-.12c-.09-.09-.19-.24-.29-.35a26.77,26.77,0,0,1-4.55-5.75,23.94,23.94,0,0,1-1.84-5.66,30.85,30.85,0,0,1-.67-6.79C209.27,408.37,209.3,408.32,209.35,408.31Z"/><path class="cls-56" d="M209.3,408.54a28.83,28.83,0,0,1,4.8-.71,41.8,41.8,0,0,1,5.11-.1,34.77,34.77,0,0,1,6.29.81s.07,0,.11,1.84a31.49,31.49,0,0,1-.59,6.8,24.72,24.72,0,0,1-1.74,5.63,25.33,25.33,0,0,1-3.45,4.75c-.1.13-.2.31-.3.43-.32.4-.77.71-1,1a1.68,1.68,0,0,1-1.79.13l-.12-.12c-.09-.1-.18-.24-.29-.35a26.9,26.9,0,0,1-4.51-5.83,23.89,23.89,0,0,1-1.88-5.63,30.13,30.13,0,0,1-.71-6.8C209.23,408.59,209.26,408.55,209.3,408.54Z"/><path class="cls-57" d="M209.25,408.76a31.4,31.4,0,0,1,4.84-.71,40.59,40.59,0,0,1,5.15-.09,35.84,35.84,0,0,1,6.31.8s.06.05.09,1.86a30.61,30.61,0,0,1-.63,6.79,24.43,24.43,0,0,1-1.77,5.61,26.13,26.13,0,0,1-3.4,4.81c-.1.13-.2.3-.3.42-.33.41-.76.73-1,1a1.64,1.64,0,0,1-1.78.12.65.65,0,0,1-.12-.11c-.09-.1-.19-.24-.3-.36a27.18,27.18,0,0,1-4.48-5.9,25.25,25.25,0,0,1-1.92-5.61,29.88,29.88,0,0,1-.74-6.79C209.2,408.81,209.22,408.78,209.25,408.76Z"/><path class="cls-57" d="M209.2,409a33,33,0,0,1,4.88-.71,41.23,41.23,0,0,1,5.19-.09,36.05,36.05,0,0,1,6.33.8s.05,0,.08,1.87a31,31,0,0,1-.67,6.79,25.4,25.4,0,0,1-1.81,5.58,26.49,26.49,0,0,1-3.35,4.87c-.1.14-.2.3-.3.42a14.36,14.36,0,0,1-1,1,1.63,1.63,0,0,1-1.79.13l-.12-.12-.3-.35a27.67,27.67,0,0,1-4.44-6,24.78,24.78,0,0,1-2-5.58,29.15,29.15,0,0,1-.78-6.79A8,8,0,0,1,209.2,409Z"/><path class="cls-58" d="M209.15,409.22a32.77,32.77,0,0,1,4.92-.71,41.69,41.69,0,0,1,5.23-.1,37.43,37.43,0,0,1,6.35.81,9.33,9.33,0,0,1,.06,1.88,29.67,29.67,0,0,1-.71,6.79,25.87,25.87,0,0,1-1.84,5.56,26.28,26.28,0,0,1-3.3,4.92c-.1.14-.2.3-.3.42-.34.42-.73.76-1,1a1.6,1.6,0,0,1-1.79.12.43.43,0,0,1-.12-.11c-.1-.1-.2-.23-.3-.35a28.22,28.22,0,0,1-4.42-6.05,26.2,26.2,0,0,1-2-5.56,28,28,0,0,1-.82-6.79A11.05,11.05,0,0,1,209.15,409.22Z"/><path class="cls-59" d="M209.1,409.45a33.21,33.21,0,0,1,5-.72,42.46,42.46,0,0,1,5.27-.09,38.57,38.57,0,0,1,6.37.81,11,11,0,0,1,0,1.89,29.56,29.56,0,0,1-.74,6.79,26.87,26.87,0,0,1-1.88,5.53,27.39,27.39,0,0,1-3.24,5c-.11.14-.21.29-.32.42-.34.42-.71.78-1,1.07a1.6,1.6,0,0,1-1.79.12l-.13-.12c-.1-.1-.2-.22-.3-.34a28.43,28.43,0,0,1-4.38-6.13,26.67,26.67,0,0,1-2-5.53,28.34,28.34,0,0,1-.86-6.79A18.29,18.29,0,0,1,209.1,409.45Z"/><path class="cls-59" d="M209.05,409.68a34.63,34.63,0,0,1,5-.72,43.24,43.24,0,0,1,5.32-.09,38.79,38.79,0,0,1,6.39.81,17.69,17.69,0,0,1,0,1.89,28.86,28.86,0,0,1-.78,6.8,27,27,0,0,1-1.91,5.5,27.86,27.86,0,0,1-3.19,5l-.32.41c-.35.44-.7.8-1,1.1a1.58,1.58,0,0,1-1.8.11.69.69,0,0,1-.13-.11l-.3-.34a28.92,28.92,0,0,1-4.34-6.21,26.86,26.86,0,0,1-2.08-5.5,27.68,27.68,0,0,1-.9-6.8C209,409.69,209,409.68,209.05,409.68Z"/><path class="cls-60" d="M218.61,430.71a1.53,1.53,0,0,1-1.92,0,29.86,29.86,0,0,1-4.62-6.63,28.1,28.1,0,0,1-2.11-5.47,27,27,0,0,1-.94-6.8l0-1.9a35.08,35.08,0,0,1,5-.73,43.87,43.87,0,0,1,5.36-.09,39.22,39.22,0,0,1,6.41.82v1.9a28.62,28.62,0,0,1-.81,6.8,28.17,28.17,0,0,1-2,5.47A27.08,27.08,0,0,1,218.61,430.71Z"/></g></svg>