<svg xmlns="http://www.w3.org/2000/svg" viewBox="0 0 432 846"><defs><style>.cls-1{fill:#82c341;}.cls-2{fill:#83c441;}.cls-3{fill:#83c442;}.cls-4{fill:#84c442;}.cls-5{fill:#85c443;}.cls-6{fill:#86c444;}.cls-7{fill:#86c544;}.cls-8{fill:#87c545;}.cls-9{fill:#88c546;}.cls-10{fill:#89c547;}.cls-11{fill:#89c648;}.cls-12{fill:#8ac648;}.cls-13{fill:#8ac649;}.cls-14{fill:#8bc64a;}.cls-15{fill:#8cc74b;}.cls-16{fill:#8cc74c;}.cls-17{fill:#8dc74c;}.cls-18{fill:#8dc74d;}.cls-19{fill:#8ec74e;}.cls-20{fill:#8fc84f;}.cls-21{fill:#8fc850;}.cls-22{fill:#90c850;}.cls-23{fill:#90c851;}.cls-24{fill:#91c852;}.cls-25{fill:#91c952;}.cls-26{fill:#92c953;}.cls-27{fill:#92c954;}.cls-28{fill:#93c955;}.cls-29{fill:#94c956;}.cls-30{fill:#94ca57;}.cls-31{fill:#95ca57;}.cls-32{fill:#95ca58;}.cls-33{fill:#96ca59;}.cls-34{fill:#96ca5a;}.cls-35{fill:#97cb5a;}.cls-36{fill:#97cb5b;}.cls-37{fill:#98cb5c;}.cls-38{fill:#98cb5d;}.cls-39{fill:#99cb5e;}.cls-40{fill:#99cc5e;}.cls-41{fill:#99cc5f;}.cls-42{fill:#9acc60;}.cls-43{fill:#9acc61;}.cls-44{fill:#9bcc61;}.cls-45{fill:#9bcd62;}.cls-46{fill:#9ccd63;}.cls-47{fill:#9ccd64;}.cls-48{fill:#9dcd65;}.cls-49{fill:#9ece66;}.cls-50{fill:#9ece67;}.cls-51{fill:#9fce68;}.cls-52{fill:#9fce69;}.cls-53{fill:#a0ce69;}.cls-54{fill:#a0cf6a;}.cls-55{fill:#a1cf6b;}.cls-56{fill:#a1cf6c;}.cls-57{fill:#a1cf6d;}.cls-58{fill:#a2d06d;}.cls-59{fill:#a2d06e;}.cls-60{fill:#a3d06f;}.cls-61{fill:#a3d070;}.cls-62{fill:#a4d070;}.cls-63{fill:#a4d171;}.cls-64{fill:#a5d172;}.cls-65{fill:#a5d173;}.cls-66{fill:#a6d174;}.cls-67{fill:#a7d275;}.cls-68{fill:#a7d276;}.cls-69{fill:#a8d277;}.cls-70{fill:#a8d278;}.cls-71{fill:#a9d378;}.cls-72{fill:#a9d379;}.cls-73{fill:#aad37a;}.cls-74{fill:#aad37b;}.cls-75{fill:#abd37b;}.cls-76{fill:#abd47c;}.cls-77{fill:#acd47d;}.cls-78{fill:#add47e;}.cls-79{fill:#add47f;}.cls-80{fill:#aed580;}.cls-81{fill:#afd581;}.cls-82{fill:#afd582;}.cls-83{fill:#b0d682;}.cls-84{fill:#b0d683;}.cls-85{fill:#b1d684;}.cls-86{fill:#b1d685;}.cls-87{fill:#b2d685;}.cls-88{fill:#b2d786;}.cls-89{fill:#b3d787;}.cls-90{fill:#b4d788;}.cls-91{fill:#b4d889;}.cls-92{fill:#b5d889;}.cls-93{fill:#b5d88a;}.cls-94{fill:#b5d88b;}.cls-95{fill:#b6d98c;}.cls-96{fill:#b7d98d;}.cls-97{fill:#b7d98e;}.cls-98{fill:#b8d98e;}.cls-99{fill:#b8da8f;}.cls-100{fill:#b9da90;}.cls-101{fill:#bada91;}.cls-102{fill:#badb92;}.cls-103{fill:#bbdb92;}.cls-104{fill:#bbdb93;}.cls-105{fill:#bcdb94;}.cls-106{fill:#bcdc94;}.cls-107{fill:#bddc95;}.cls-108{fill:#bddc96;}.cls-109{fill:#bedc96;}.cls-110{fill:#bedc97;}.cls-111{fill:#bfdd98;}.cls-112{fill:#bfdd99;}.cls-113{fill:#c0dd99;}.cls-114{fill:#c0dd9a;}.cls-115{fill:#c1de9b;}.cls-116{fill:#c2de9c;}.cls-117{fill:#c2de9d;}.cls-118{fill:#c3df9d;}.cls-119{fill:#c3df9e;}.cls-120{fill:#c4df9f;}.cls-121{fill:#c4dfa0;}.cls-122{fill:#c5e0a0;}.cls-123{fill:#c5e0a1;}.cls-124{fill:#c6e0a2;}.cls-125{fill:#fffbdd;opacity:0.57;}</style></defs><g id="Green_Leaf" data-name="Green Leaf"><path class="cls-1" d="M210.08,801.34a1.53,1.53,0,0,0-1.92,0,28.16,28.16,0,0,0-7.67,18.95c0,12.49,0,15.9,0,15.9a41.2,41.2,0,0,0,16.8,0v-15.9A28.36,28.36,0,0,0,210.08,801.34Z"/><path class="cls-2" d="M210.08,801.34a1.53,1.53,0,0,0-1.92,0,28.12,28.12,0,0,0-7.65,18.88v15.84a41,41,0,0,0,16.71,0s0-3.39,0-15.84A28.33,28.33,0,0,0,210.08,801.34Z"/><path class="cls-3" d="M210.07,801.34a1.52,1.52,0,0,0-1.91,0,28,28,0,0,0-7.62,18.81c0,12.4,0,15.79,0,15.79a40.75,40.75,0,0,0,16.62,0s0-3.39,0-15.79A28.16,28.16,0,0,0,210.07,801.34Z"/><path class="cls-4" d="M210.07,801.34a1.51,1.51,0,0,0-1.9,0,27.86,27.86,0,0,0-7.61,18.74c0,12.36,0,15.73,0,15.73a40.47,40.47,0,0,0,16.52,0s0-3.37,0-15.73A28.08,28.08,0,0,0,210.07,801.34Z"/><path class="cls-5" d="M210.07,801.34a1.51,1.51,0,0,0-1.9,0A27.77,27.77,0,0,0,200.59,820c0,12.31,0,15.67,0,15.67a40.2,40.2,0,0,0,16.42,0s.07-3.36.07-15.67A28,28,0,0,0,210.07,801.34Z"/><path class="cls-5" d="M210.06,801.34a1.49,1.49,0,0,0-1.89,0,27.65,27.65,0,0,0-7.56,18.6c0,12.27.07,15.61.07,15.61a40,40,0,0,0,16.33,0s.08-3.34.08-15.61A27.83,27.83,0,0,0,210.06,801.34Z"/><path class="cls-6" d="M210.06,801.34a1.49,1.49,0,0,0-1.89,0,27.56,27.56,0,0,0-7.53,18.53c0,12.22.08,15.56.08,15.56a39.75,39.75,0,0,0,16.24,0s.09-3.34.09-15.56A27.8,27.8,0,0,0,210.06,801.34Z"/><path class="cls-7" d="M210.05,801.33a1.49,1.49,0,0,0-1.87,0,27.45,27.45,0,0,0-7.52,18.47c0,12.18.11,15.5.11,15.5a39.45,39.45,0,0,0,16.14,0s.11-3.32.11-15.5A27.68,27.68,0,0,0,210.05,801.33Z"/><path class="cls-8" d="M210.05,801.33a1.49,1.49,0,0,0-1.87,0,27.36,27.36,0,0,0-7.49,18.4c0,12.13.12,15.44.12,15.44a39.23,39.23,0,0,0,16.05,0s.12-3.31.12-15.44A27.6,27.6,0,0,0,210.05,801.33Z"/><path class="cls-8" d="M210,801.33a1.48,1.48,0,0,0-1.86,0,27.27,27.27,0,0,0-7.47,18.33c0,12.09.14,15.38.14,15.38a39,39,0,0,0,16,0s.15-3.29.15-15.38A27.46,27.46,0,0,0,210,801.33Z"/><path class="cls-9" d="M210,801.33a1.46,1.46,0,0,0-1.85,0,27.1,27.1,0,0,0-7.46,18.26c0,12,.16,15.33.16,15.33a38.73,38.73,0,0,0,15.86,0s.16-3.29.16-15.33A27.4,27.4,0,0,0,210,801.33Z"/><path class="cls-9" d="M210,801.33a1.46,1.46,0,0,0-1.85,0,27,27,0,0,0-7.43,18.19c0,12,.18,15.27.18,15.27a38.45,38.45,0,0,0,15.76,0s.17-3.27.17-15.27A27.32,27.32,0,0,0,210,801.33Z"/><path class="cls-10" d="M210,801.33a1.45,1.45,0,0,0-1.84,0,26.89,26.89,0,0,0-7.41,18.12c0,11.95.2,15.21.2,15.21a38.23,38.23,0,0,0,15.67,0s.19-3.26.19-15.21A27.15,27.15,0,0,0,210,801.33Z"/><path class="cls-11" d="M210,801.33a1.45,1.45,0,0,0-1.84,0,26.81,26.81,0,0,0-7.38,18c0,11.91.21,15.15.21,15.15a38,38,0,0,0,15.57,0s.21-3.24.21-15.15A27.07,27.07,0,0,0,210,801.33Z"/><path class="cls-12" d="M210,801.33a1.42,1.42,0,0,0-1.82,0,26.66,26.66,0,0,0-7.37,18c0,11.86.24,15.1.24,15.1a37.68,37.68,0,0,0,15.47,0s.22-3.24.22-15.1A26.93,26.93,0,0,0,210,801.33Z"/><path class="cls-13" d="M210,801.32a1.45,1.45,0,0,0-1.82,0,26.65,26.65,0,0,0-7.34,17.92c0,11.82.25,15,.25,15a37.45,37.45,0,0,0,15.38,0s.24-3.22.24-15A26.92,26.92,0,0,0,210,801.32Z"/><path class="cls-14" d="M210,801.32a1.43,1.43,0,0,0-1.81,0,26.56,26.56,0,0,0-7.32,17.85c0,11.77.27,15,.27,15a37.23,37.23,0,0,0,15.29,0s.25-3.21.25-15A26.78,26.78,0,0,0,210,801.32Z"/><path class="cls-14" d="M210,801.32a1.43,1.43,0,0,0-1.81,0,26.45,26.45,0,0,0-7.29,17.78c0,11.73.28,14.92.28,14.92a37,37,0,0,0,15.2,0s.26-3.19.26-14.92A26.68,26.68,0,0,0,210,801.32Z"/><path class="cls-15" d="M210,801.32a1.42,1.42,0,0,0-1.8,0A26.3,26.3,0,0,0,200.93,819c0,11.68.31,14.87.31,14.87a36.68,36.68,0,0,0,15.09,0s.29-3.19.29-14.87A26.59,26.59,0,0,0,210,801.32Z"/><path class="cls-16" d="M210,801.32a1.4,1.4,0,0,0-1.79,0A26.21,26.21,0,0,0,201,819c0,11.64.33,14.81.33,14.81a36.45,36.45,0,0,0,15,0s.3-3.17.3-14.81A26.5,26.5,0,0,0,210,801.32Z"/><path class="cls-17" d="M210,801.32a1.4,1.4,0,0,0-1.79,0A26.1,26.1,0,0,0,201,818.89c0,11.59.34,14.75.34,14.75a36.23,36.23,0,0,0,14.91,0s.31-3.16.31-14.75A26.39,26.39,0,0,0,210,801.32Z"/><path class="cls-18" d="M210,801.32a1.38,1.38,0,0,0-1.77,0,26,26,0,0,0-7.22,17.5c0,11.55.36,14.69.36,14.69a36,36,0,0,0,14.82,0s.33-3.14.33-14.69A26.25,26.25,0,0,0,210,801.32Z"/><path class="cls-19" d="M210,801.32a1.38,1.38,0,0,0-1.77,0A25.84,25.84,0,0,0,201,818.75c0,11.5.38,14.64.38,14.64a35.72,35.72,0,0,0,14.72,0s.34-3.14.34-14.64A26.14,26.14,0,0,0,210,801.32Z"/><path class="cls-19" d="M210,801.31a1.43,1.43,0,0,0-1.77,0,25.8,25.8,0,0,0-7.17,17.37c0,11.46.4,14.58.4,14.58a35.45,35.45,0,0,0,14.62,0s.37-3.12.37-14.58A26.11,26.11,0,0,0,210,801.31Z"/><path class="cls-20" d="M210,801.31a1.41,1.41,0,0,0-1.76,0,25.71,25.71,0,0,0-7.14,17.3c0,11.41.41,14.52.41,14.52a35.23,35.23,0,0,0,14.53,0s.38-3.11.38-14.52A26,26,0,0,0,210,801.31Z"/><path class="cls-21" d="M210,801.31a1.4,1.4,0,0,0-1.75,0,25.55,25.55,0,0,0-7.13,17.23c0,11.37.43,14.46.43,14.46A35,35,0,0,0,216,833s.39-3.09.39-14.46A25.92,25.92,0,0,0,210,801.31Z"/><path class="cls-22" d="M210,801.31a1.38,1.38,0,0,0-1.74,0c-2,2.15-7.11,8.2-7.11,17.16,0,11.32.46,14.41.46,14.41a34.7,34.7,0,0,0,14.34,0s.41-3.09.41-14.41A25.77,25.77,0,0,0,210,801.31Z"/><path class="cls-23" d="M210,801.31a1.38,1.38,0,0,0-1.74,0,25.34,25.34,0,0,0-7.08,17.09c0,11.28.47,14.35.47,14.35a34.44,34.44,0,0,0,14.24,0s.43-3.07.43-14.35A25.66,25.66,0,0,0,210,801.31Z"/><path class="cls-24" d="M210,801.31a1.37,1.37,0,0,0-1.73,0c-2,2.13-7.06,8.13-7.06,17,0,11.23.49,14.29.49,14.29a34.21,34.21,0,0,0,14.15,0s.44-3.06.44-14.29A25.58,25.58,0,0,0,210,801.31Z"/><path class="cls-25" d="M210,801.31a1.36,1.36,0,0,0-1.72,0c-2,2.12-7,8.1-7,17,0,11.19.5,14.23.5,14.23a34,34,0,0,0,14.06,0s.46-3,.46-14.23A25.49,25.49,0,0,0,210,801.31Z"/><path class="cls-26" d="M210,801.31a1.36,1.36,0,0,0-1.72,0c-2,2.11-7,8.06-7,16.89,0,11.13.53,14.17.53,14.17a33.7,33.7,0,0,0,14,0s.47-3,.47-14.17A25.39,25.39,0,0,0,210,801.31Z"/><path class="cls-27" d="M210,801.3a1.37,1.37,0,0,0-1.71,0c-2,2.11-7,8-7,16.83,0,11.08.54,14.11.54,14.11a33.48,33.48,0,0,0,13.87,0s.48-3,.48-14.11A25.31,25.31,0,0,0,210,801.3Z"/><path class="cls-28" d="M210,801.3a1.35,1.35,0,0,0-1.7,0c-1.95,2.1-7,8-7,16.76,0,11,.56,14.05.56,14.05a33.21,33.21,0,0,0,13.77,0s.51-3,.51-14.05A25.19,25.19,0,0,0,210,801.3Z"/><path class="cls-28" d="M209.94,801.3a1.34,1.34,0,0,0-1.69,0c-1.94,2.09-6.95,8-6.95,16.69,0,11,.57,14,.57,14a32.79,32.79,0,0,0,13.68,0s.52-3,.52-14A25.11,25.11,0,0,0,209.94,801.3Z"/><path class="cls-29" d="M209.94,801.3a1.34,1.34,0,0,0-1.69,0c-1.93,2.08-6.93,7.94-6.93,16.62,0,11,.6,13.94.6,13.94a32.71,32.71,0,0,0,13.58,0s.53-3,.53-13.94A25,25,0,0,0,209.94,801.3Z"/><path class="cls-30" d="M209.93,801.3a1.33,1.33,0,0,0-1.68,0c-1.92,2.07-6.91,7.9-6.91,16.55,0,10.9.62,13.88.62,13.88a32.48,32.48,0,0,0,13.49,0s.55-3,.55-13.88A24.86,24.86,0,0,0,209.93,801.3Z"/><path class="cls-31" d="M209.93,801.3a1.31,1.31,0,0,0-1.67,0c-1.92,2.06-6.89,7.87-6.89,16.48,0,10.86.63,13.82.63,13.82a32.26,32.26,0,0,0,13.4,0s.56-3,.56-13.82A24.77,24.77,0,0,0,209.93,801.3Z"/><path class="cls-32" d="M209.93,801.3a1.31,1.31,0,0,0-1.67,0c-1.91,2.05-6.87,7.83-6.87,16.41,0,10.81.65,13.76.65,13.76a31.79,31.79,0,0,0,13.3,0s.59-3,.59-13.76A24.71,24.71,0,0,0,209.93,801.3Z"/><path class="cls-33" d="M209.92,801.3a1.3,1.3,0,0,0-1.66,0c-1.9,2-6.84,7.8-6.84,16.34,0,10.77.67,13.71.67,13.71a31.71,31.71,0,0,0,13.2,0s.6-2.94.6-13.71A24.57,24.57,0,0,0,209.92,801.3Z"/><path class="cls-34" d="M209.92,801.29a1.32,1.32,0,0,0-1.66,0c-1.89,2-6.82,7.78-6.82,16.28,0,10.72.69,13.65.69,13.65a31.48,31.48,0,0,0,13.11,0s.61-2.93.61-13.65A24.55,24.55,0,0,0,209.92,801.29Z"/><path class="cls-35" d="M209.91,801.29a1.3,1.3,0,0,0-1.64,0c-1.89,2-6.8,7.74-6.8,16.21,0,10.68.7,13.59.7,13.59a31.26,31.26,0,0,0,13,0s.63-2.91.63-13.59A24.38,24.38,0,0,0,209.91,801.29Z"/><path class="cls-36" d="M209.91,801.29a1.3,1.3,0,0,0-1.64,0c-1.88,2-6.78,7.71-6.78,16.14,0,10.63.73,13.53.73,13.53a30.74,30.74,0,0,0,12.91,0s.65-2.9.65-13.53A24.3,24.3,0,0,0,209.91,801.29Z"/><path class="cls-37" d="M209.9,801.29a1.28,1.28,0,0,0-1.63,0c-1.87,2-6.75,7.67-6.75,16.07,0,10.59.74,13.48.74,13.48a30.71,30.71,0,0,0,12.82,0s.66-2.89.66-13.48A24.18,24.18,0,0,0,209.9,801.29Z"/><path class="cls-38" d="M209.9,801.29a1.27,1.27,0,0,0-1.62,0c-1.86,2-6.74,7.64-6.74,16,0,10.54.76,13.42.76,13.42a30.47,30.47,0,0,0,12.73,0s.68-2.88.68-13.42A24.1,24.1,0,0,0,209.9,801.29Z"/><path class="cls-39" d="M209.9,801.29a1.27,1.27,0,0,0-1.62,0c-1.85,2-6.72,7.61-6.72,15.93,0,10.5.78,13.36.78,13.36a30.25,30.25,0,0,0,12.64,0s.69-2.86.69-13.36A24,24,0,0,0,209.9,801.29Z"/><path class="cls-40" d="M209.89,801.29a1.25,1.25,0,0,0-1.61,0c-1.84,2-6.69,7.57-6.69,15.86,0,10.45.8,13.3.8,13.3a29.77,29.77,0,0,0,12.54,0s.7-2.85.7-13.3A23.85,23.85,0,0,0,209.89,801.29Z"/><path class="cls-41" d="M209.89,801.29a1.25,1.25,0,0,0-1.61,0c-1.83,2-6.67,7.54-6.67,15.79,0,10.41.82,13.25.82,13.25a29.7,29.7,0,0,0,12.44,0s.73-2.84.73-13.25A23.82,23.82,0,0,0,209.89,801.29Z"/><path class="cls-42" d="M209.88,801.28a1.28,1.28,0,0,0-1.59,0c-1.83,2-6.65,7.51-6.65,15.73,0,10.36.83,13.19.83,13.19a29.48,29.48,0,0,0,12.35,0s.74-2.83.74-13.19A23.71,23.71,0,0,0,209.88,801.28Z"/><path class="cls-43" d="M209.88,801.28a1.28,1.28,0,0,0-1.59,0c-1.82,2-6.63,7.48-6.63,15.66,0,10.32.85,13.13.85,13.13a29.25,29.25,0,0,0,12.26,0s.76-2.81.76-13.13A23.62,23.62,0,0,0,209.88,801.28Z"/><path class="cls-44" d="M209.87,801.28a1.26,1.26,0,0,0-1.58,0c-1.81,2-6.6,7.45-6.6,15.59,0,10.27.87,13.07.87,13.07a28.78,28.78,0,0,0,12.16,0s.77-2.8.77-13.07A23.51,23.51,0,0,0,209.87,801.28Z"/><path class="cls-45" d="M209.87,801.28a1.25,1.25,0,0,0-1.57,0c-1.81,2-6.59,7.41-6.59,15.52,0,10.23.89,13,.89,13a28.74,28.74,0,0,0,12.07,0s.78-2.79.78-13A23.4,23.4,0,0,0,209.87,801.28Z"/><path class="cls-46" d="M209.87,801.28a1.25,1.25,0,0,0-1.57,0c-1.8,1.94-6.57,7.38-6.57,15.45,0,10.18.91,13,.91,13a28.48,28.48,0,0,0,12,0s.81-2.78.81-13A23.37,23.37,0,0,0,209.87,801.28Z"/><path class="cls-47" d="M209.86,801.28a1.23,1.23,0,0,0-1.56,0c-1.79,1.93-6.54,7.34-6.54,15.38,0,10.14.92,12.9.92,12.9a28.25,28.25,0,0,0,11.88,0s.82-2.76.82-12.9A23.2,23.2,0,0,0,209.86,801.28Z"/><path class="cls-48" d="M209.86,801.28a1.23,1.23,0,0,0-1.56,0c-1.78,1.92-6.52,7.31-6.52,15.31,0,10.09.95,12.84.95,12.84a27.78,27.78,0,0,0,11.78,0s.83-2.75.83-12.84A23.12,23.12,0,0,0,209.86,801.28Z"/><path class="cls-48" d="M209.85,801.28a1.21,1.21,0,0,0-1.54,0c-1.78,1.91-6.5,7.28-6.5,15.24,0,10.05,1,12.79,1,12.79a27.75,27.75,0,0,0,11.69,0s.85-2.74.85-12.79A23,23,0,0,0,209.85,801.28Z"/><path class="cls-49" d="M209.85,801.27a1.23,1.23,0,0,0-1.54,0c-1.77,1.91-6.48,7.25-6.48,15.18,0,10,1,12.73,1,12.73a27.48,27.48,0,0,0,11.59,0s.87-2.73.87-12.73A23,23,0,0,0,209.85,801.27Z"/><path class="cls-50" d="M209.85,801.27a1.23,1.23,0,0,0-1.54,0c-1.76,1.9-6.45,7.22-6.45,15.11,0,10,1,12.67,1,12.67a27.26,27.26,0,0,0,11.5,0s.88-2.71.88-12.67A22.9,22.9,0,0,0,209.85,801.27Z"/><path class="cls-51" d="M209.84,801.27a1.22,1.22,0,0,0-1.53,0c-1.74,1.89-6.43,7.18-6.43,15,0,9.91,1,12.61,1,12.61a26.79,26.79,0,0,0,11.4,0s.9-2.7.9-12.61A22.73,22.73,0,0,0,209.84,801.27Z"/><path class="cls-52" d="M209.84,801.27a1.2,1.2,0,0,0-1.52,0c-1.74,1.88-6.41,7.15-6.41,15,0,9.87,1,12.56,1,12.56a26.75,26.75,0,0,0,11.31,0s.91-2.69.91-12.56A22.65,22.65,0,0,0,209.84,801.27Z"/><path class="cls-53" d="M209.83,801.27a1.19,1.19,0,0,0-1.51,0c-1.73,1.87-6.39,7.12-6.39,14.9,0,9.82,1,12.5,1,12.5a26.53,26.53,0,0,0,11.22,0s.92-2.68.92-12.5A22.51,22.51,0,0,0,209.83,801.27Z"/><path class="cls-54" d="M209.83,801.27a1.19,1.19,0,0,0-1.51,0c-1.72,1.86-6.37,7.08-6.37,14.83,0,9.78,1.07,12.44,1.07,12.44a26.25,26.25,0,0,0,11.12,0s1-2.66,1-12.44A22.45,22.45,0,0,0,209.83,801.27Z"/><path class="cls-55" d="M209.82,801.27a1.16,1.16,0,0,0-1.49,0c-1.72,1.85-6.35,7.05-6.35,14.76,0,9.73,1.09,12.38,1.09,12.38a25.78,25.78,0,0,0,11,0s1-2.65,1-12.38A22.31,22.31,0,0,0,209.82,801.27Z"/><path class="cls-56" d="M209.82,801.27a1.16,1.16,0,0,0-1.49,0c-1.71,1.84-6.33,7-6.33,14.69,0,9.68,1.11,12.33,1.11,12.33a25.75,25.75,0,0,0,10.93,0s1-2.65,1-12.33A22.2,22.2,0,0,0,209.82,801.27Z"/><path class="cls-57" d="M209.82,801.26a1.19,1.19,0,0,0-1.49,0c-1.7,1.84-6.3,7-6.3,14.63,0,9.64,1.12,12.27,1.12,12.27a25.52,25.52,0,0,0,10.84,0s1-2.63,1-12.27A22.17,22.17,0,0,0,209.82,801.26Z"/><path class="cls-58" d="M209.81,801.26a1.17,1.17,0,0,0-1.48,0c-1.69,1.83-6.28,7-6.28,14.56,0,9.59,1.14,12.21,1.14,12.21a25.3,25.3,0,0,0,10.75,0s1-2.62,1-12.21A22.06,22.06,0,0,0,209.81,801.26Z"/><path class="cls-59" d="M209.81,801.26a1.16,1.16,0,0,0-1.47,0c-1.69,1.82-6.26,6.92-6.26,14.49,0,9.55,1.16,12.15,1.16,12.15a24.79,24.79,0,0,0,10.64,0s1-2.6,1-12.15A22,22,0,0,0,209.81,801.26Z"/><path class="cls-60" d="M209.8,801.26a1.15,1.15,0,0,0-1.46,0c-1.68,1.81-6.24,6.89-6.24,14.42,0,9.5,1.18,12.1,1.18,12.1a24.75,24.75,0,0,0,10.55,0s1-2.6,1-12.1A21.83,21.83,0,0,0,209.8,801.26Z"/><path class="cls-61" d="M209.8,801.26a1.15,1.15,0,0,0-1.46,0c-1.67,1.8-6.22,6.85-6.22,14.35,0,9.46,1.2,12,1.2,12a24.53,24.53,0,0,0,10.46,0s1.05-2.58,1.05-12A21.73,21.73,0,0,0,209.8,801.26Z"/><path class="cls-62" d="M209.79,801.26a1.13,1.13,0,0,0-1.45,0c-1.66,1.79-6.19,6.82-6.19,14.28,0,9.41,1.22,12,1.22,12a24.25,24.25,0,0,0,10.36,0s1.07-2.57,1.07-12A21.58,21.58,0,0,0,209.79,801.26Z"/><path class="cls-63" d="M209.79,801.26a1.12,1.12,0,0,0-1.44,0c-1.66,1.78-6.18,6.78-6.18,14.21,0,9.37,1.24,11.92,1.24,11.92a23.8,23.8,0,0,0,10.26,0s1.09-2.55,1.09-11.92A21.53,21.53,0,0,0,209.79,801.26Z"/><path class="cls-64" d="M209.79,801.26a1.12,1.12,0,0,0-1.44,0C206.7,803,202.2,808,202.2,815.4c0,9.32,1.25,11.87,1.25,11.87a23.76,23.76,0,0,0,10.17,0s1.1-2.55,1.1-11.87A21.45,21.45,0,0,0,209.79,801.26Z"/><path class="cls-65" d="M209.78,801.25a1.16,1.16,0,0,0-1.43,0c-1.63,1.77-6.13,6.73-6.13,14.08,0,9.28,1.27,11.81,1.27,11.81a23.54,23.54,0,0,0,10.08,0s1.12-2.53,1.12-11.81A21.36,21.36,0,0,0,209.78,801.25Z"/><path class="cls-66" d="M209.78,801.25a1.14,1.14,0,0,0-1.42,0c-1.63,1.76-6.11,6.69-6.11,14,0,9.23,1.29,11.75,1.29,11.75a23.26,23.26,0,0,0,10,0s1.13-2.52,1.13-11.75A21.26,21.26,0,0,0,209.78,801.25Z"/><path class="cls-66" d="M209.77,801.25a1.13,1.13,0,0,0-1.41,0c-1.62,1.75-6.09,6.66-6.09,13.94,0,9.19,1.31,11.69,1.31,11.69a22.85,22.85,0,0,0,9.89,0s1.15-2.5,1.15-11.69A21.16,21.16,0,0,0,209.77,801.25Z"/><path class="cls-67" d="M209.77,801.25a1.13,1.13,0,0,0-1.41,0c-1.61,1.74-6.06,6.62-6.06,13.87,0,9.14,1.32,11.64,1.32,11.64a22.77,22.77,0,0,0,9.79,0s1.17-2.5,1.17-11.64A21.06,21.06,0,0,0,209.77,801.25Z"/><path class="cls-68" d="M209.76,801.25a1.11,1.11,0,0,0-1.4,0c-1.6,1.73-6,6.59-6,13.8,0,9.1,1.34,11.58,1.34,11.58a22.55,22.55,0,0,0,9.7,0s1.18-2.48,1.18-11.58A20.92,20.92,0,0,0,209.76,801.25Z"/><path class="cls-69" d="M209.76,801.25a1.1,1.1,0,0,0-1.39,0c-1.6,1.72-6,6.56-6,13.73,0,9,1.37,11.52,1.37,11.52a22.09,22.09,0,0,0,9.6,0s1.2-2.47,1.2-11.52A20.83,20.83,0,0,0,209.76,801.25Z"/><path class="cls-70" d="M209.76,801.25a1.1,1.1,0,0,0-1.39,0c-1.59,1.71-6,6.52-6,13.66,0,9,1.38,11.46,1.38,11.46a21.86,21.86,0,0,0,9.51,0s1.21-2.45,1.21-11.46A20.73,20.73,0,0,0,209.76,801.25Z"/><path class="cls-71" d="M209.75,801.25a1.09,1.09,0,0,0-1.38,0c-1.58,1.7-6,6.49-6,13.59,0,9,1.4,11.41,1.4,11.41a21.8,21.8,0,0,0,9.42,0s1.22-2.45,1.22-11.41A20.64,20.64,0,0,0,209.75,801.25Z"/><path class="cls-72" d="M209.75,801.24a1.11,1.11,0,0,0-1.38,0c-1.57,1.7-6,6.46-6,13.53,0,8.92,1.41,11.35,1.41,11.35a21.54,21.54,0,0,0,9.32,0s1.25-2.43,1.25-11.35A20.59,20.59,0,0,0,209.75,801.24Z"/><path class="cls-73" d="M209.74,801.24a1.08,1.08,0,0,0-1.36,0c-1.57,1.69-5.94,6.43-5.94,13.46,0,8.87,1.44,11.29,1.44,11.29a21.08,21.08,0,0,0,9.22,0s1.26-2.42,1.26-11.29A20.45,20.45,0,0,0,209.74,801.24Z"/><path class="cls-74" d="M209.74,801.24a1.08,1.08,0,0,0-1.36,0c-1.56,1.68-5.91,6.4-5.91,13.39,0,8.83,1.45,11.23,1.45,11.23a20.86,20.86,0,0,0,9.13,0s1.27-2.4,1.27-11.23A20.37,20.37,0,0,0,209.74,801.24Z"/><path class="cls-75" d="M209.74,801.24a1.08,1.08,0,0,0-1.36,0c-1.55,1.67-5.89,6.36-5.89,13.32,0,8.78,1.47,11.18,1.47,11.18a20.82,20.82,0,0,0,9,0s1.29-2.4,1.29-11.18A20.31,20.31,0,0,0,209.74,801.24Z"/><path class="cls-76" d="M209.73,801.24a1.06,1.06,0,0,0-1.34,0c-1.55,1.66-5.87,6.33-5.87,13.25,0,8.74,1.48,11.12,1.48,11.12a20.55,20.55,0,0,0,8.94,0s1.31-2.38,1.31-11.12A20.17,20.17,0,0,0,209.73,801.24Z"/><path class="cls-77" d="M209.73,801.24a1.06,1.06,0,0,0-1.34,0c-1.54,1.65-5.85,6.29-5.85,13.18,0,8.69,1.51,11.06,1.51,11.06a20.1,20.1,0,0,0,8.84,0s1.32-2.37,1.32-11.06A20.07,20.07,0,0,0,209.73,801.24Z"/><path class="cls-77" d="M209.72,801.24a1,1,0,0,0-1.33,0c-1.52,1.64-5.83,6.26-5.83,13.11,0,8.65,1.53,11,1.53,11a19.88,19.88,0,0,0,8.75,0s1.34-2.35,1.34-11A19.92,19.92,0,0,0,209.72,801.24Z"/><path class="cls-78" d="M209.72,801.24a1,1,0,0,0-1.33,0c-1.51,1.63-5.8,6.23-5.8,13,0,8.6,1.54,11,1.54,11a19.83,19.83,0,0,0,8.66,0s1.35-2.35,1.35-11A19.84,19.84,0,0,0,209.72,801.24Z"/><path class="cls-79" d="M209.71,801.23a1,1,0,0,0-1.31,0c-1.51,1.63-5.79,6.2-5.79,13,0,8.56,1.56,10.89,1.56,10.89a19.6,19.6,0,0,0,8.57,0s1.37-2.33,1.37-10.89A19.78,19.78,0,0,0,209.71,801.23Z"/><path class="cls-80" d="M209.71,801.23a1,1,0,0,0-1.31,0c-1.5,1.62-5.76,6.17-5.76,12.91,0,8.51,1.58,10.83,1.58,10.83a19.12,19.12,0,0,0,8.46,0s1.39-2.32,1.39-10.83A19.7,19.7,0,0,0,209.71,801.23Z"/><path class="cls-80" d="M209.71,801.23a1,1,0,0,0-1.31,0c-1.49,1.61-5.74,6.13-5.74,12.84,0,8.47,1.6,10.77,1.6,10.77a18.89,18.89,0,0,0,8.37,0s1.4-2.3,1.4-10.77C214,807.36,211.2,802.84,209.71,801.23Z"/><path class="cls-81" d="M209.7,801.23a1,1,0,0,0-1.3,0c-1.48,1.6-5.71,6.1-5.71,12.77,0,8.42,1.61,10.72,1.61,10.72a18.84,18.84,0,0,0,8.28,0S214,822.42,214,814C214,807.33,211.19,802.83,209.7,801.23Z"/><path class="cls-82" d="M209.7,801.23a1,1,0,0,0-1.29,0c-1.48,1.59-5.7,6.07-5.7,12.7,0,8.38,1.63,10.66,1.63,10.66a18.62,18.62,0,0,0,8.19,0s1.43-2.28,1.43-10.66A19.43,19.43,0,0,0,209.7,801.23Z"/><path class="cls-83" d="M209.69,801.23a1,1,0,0,0-1.28,0c-1.47,1.58-5.68,6-5.68,12.63,0,8.33,1.66,10.6,1.66,10.6a18.13,18.13,0,0,0,8.08,0s1.45-2.27,1.45-10.6C213.92,807.26,211.16,802.81,209.69,801.23Z"/><path class="cls-84" d="M209.69,801.23a1,1,0,0,0-1.28,0c-1.46,1.57-5.65,6-5.65,12.56,0,8.28,1.67,10.54,1.67,10.54a17.91,17.91,0,0,0,8,0s1.47-2.26,1.47-10.54C213.89,807.23,211.15,802.8,209.69,801.23Z"/><path class="cls-85" d="M209.68,801.23a1,1,0,0,0-1.26,0c-1.46,1.56-5.64,6-5.64,12.49,0,8.24,1.69,10.49,1.69,10.49a17.86,17.86,0,0,0,7.9,0s1.48-2.25,1.48-10.49C213.85,807.19,211.14,802.79,209.68,801.23Z"/><path class="cls-86" d="M209.68,801.22a1,1,0,0,0-1.26,0c-1.45,1.56-5.61,5.94-5.61,12.43,0,8.19,1.71,10.43,1.71,10.43a17.58,17.58,0,0,0,7.8,0s1.49-2.24,1.49-10.43C213.81,807.16,211.13,802.78,209.68,801.22Z"/><path class="cls-87" d="M209.68,801.22a1,1,0,0,0-1.26,0c-1.44,1.55-5.59,5.91-5.59,12.36,0,8.15,1.73,10.37,1.73,10.37a17.18,17.18,0,0,0,7.71,0s1.51-2.22,1.51-10.37C213.78,807.13,211.11,802.77,209.68,801.22Z"/><path class="cls-88" d="M209.67,801.22a1,1,0,0,0-1.25,0c-1.43,1.54-5.56,5.87-5.56,12.29,0,8.1,1.74,10.31,1.74,10.31a16.92,16.92,0,0,0,7.61,0s1.53-2.21,1.53-10.31C213.74,807.09,211.1,802.76,209.67,801.22Z"/><path class="cls-89" d="M209.67,801.22a1,1,0,0,0-1.24,0c-1.42,1.53-5.55,5.84-5.55,12.22,0,8.06,1.76,10.26,1.76,10.26a16.86,16.86,0,0,0,7.52,0s1.54-2.2,1.54-10.26C213.7,807.06,211.09,802.75,209.67,801.22Z"/><path class="cls-89" d="M209.66,801.22a1,1,0,0,0-1.23,0c-1.41,1.52-5.52,5.8-5.52,12.15,0,8,1.78,10.2,1.78,10.2a16.59,16.59,0,0,0,7.42,0s1.56-2.19,1.56-10.2C213.67,807,211.08,802.74,209.66,801.22Z"/><path class="cls-90" d="M209.66,801.22a1,1,0,0,0-1.23,0c-1.4,1.51-5.5,5.77-5.5,12.08,0,8,1.8,10.14,1.8,10.14a16.2,16.2,0,0,0,7.33,0s1.57-2.17,1.57-10.14C213.63,807,211.06,802.73,209.66,801.22Z"/><path class="cls-91" d="M209.65,801.22a1,1,0,0,0-1.22,0c-1.39,1.5-5.48,5.74-5.48,12,0,7.92,1.82,10.08,1.82,10.08a16,16,0,0,0,7.24,0s1.59-2.16,1.59-10.08C213.6,807,211.05,802.72,209.65,801.22Z"/><path class="cls-92" d="M209.65,801.22a1,1,0,0,0-1.21,0c-1.39,1.49-5.46,5.7-5.46,11.94,0,7.88,1.83,10,1.83,10a15.88,15.88,0,0,0,7.14,0s1.61-2.15,1.61-10C213.56,806.92,211,802.71,209.65,801.22Z"/><path class="cls-93" d="M209.65,801.21a1,1,0,0,0-1.21,0c-1.38,1.49-5.44,5.68-5.44,11.88,0,7.83,1.86,10,1.86,10a15.61,15.61,0,0,0,7,0s1.62-2.14,1.62-10C213.52,806.89,211,802.7,209.65,801.21Z"/><path class="cls-94" d="M209.64,801.21a1,1,0,0,0-1.2,0c-1.37,1.48-5.41,5.64-5.41,11.81,0,7.79,1.87,9.91,1.87,9.91a15.22,15.22,0,0,0,6.95,0s1.64-2.12,1.64-9.91C213.49,806.85,211,802.69,209.64,801.21Z"/><path class="cls-95" d="M209.64,801.21a1,1,0,0,0-1.19,0c-1.37,1.47-5.4,5.61-5.4,11.74,0,7.74,1.89,9.85,1.89,9.85a15,15,0,0,0,6.86,0s1.65-2.11,1.65-9.85C213.45,806.82,211,802.68,209.64,801.21Z"/><path class="cls-95" d="M209.63,801.21a.93.93,0,0,0-1.18,0c-1.36,1.46-5.37,5.58-5.37,11.67,0,7.7,1.9,9.8,1.9,9.8a14.91,14.91,0,0,0,6.76,0s1.67-2.1,1.67-9.8C213.41,806.79,211,802.67,209.63,801.21Z"/><path class="cls-96" d="M209.63,801.21a.93.93,0,0,0-1.18,0c-1.35,1.45-5.35,5.54-5.35,11.6,0,7.65,1.93,9.74,1.93,9.74a14.64,14.64,0,0,0,6.66,0s1.69-2.09,1.69-9.74C213.38,806.75,211,802.66,209.63,801.21Z"/><path class="cls-97" d="M209.62,801.21a.92.92,0,0,0-1.17,0c-1.34,1.44-5.32,5.51-5.32,11.53,0,7.61,1.94,9.68,1.94,9.68a14.25,14.25,0,0,0,6.57,0s1.7-2.07,1.7-9.68C213.34,806.72,211,802.65,209.62,801.21Z"/><path class="cls-98" d="M209.62,801.21a.91.91,0,0,0-1.16,0c-1.34,1.43-5.31,5.47-5.31,11.46,0,7.56,2,9.62,2,9.62a14,14,0,0,0,6.48,0s1.71-2.06,1.71-9.62C213.3,806.68,211,802.64,209.62,801.21Z"/><path class="cls-99" d="M209.62,801.21a.91.91,0,0,0-1.16,0c-1.33,1.42-5.29,5.44-5.29,11.39,0,7.52,2,9.57,2,9.57a14,14,0,0,0,6.39,0s1.73-2,1.73-9.57C213.27,806.65,210.94,802.63,209.62,801.21Z"/><path class="cls-100" d="M209.61,801.2a.92.92,0,0,0-1.15,0c-1.32,1.42-5.26,5.42-5.26,11.33,0,7.47,2,9.51,2,9.51a13.66,13.66,0,0,0,6.28,0s1.75-2,1.75-9.51C213.23,806.62,210.93,802.62,209.61,801.2Z"/><path class="cls-100" d="M209.61,801.2a.92.92,0,0,0-1.15,0c-1.3,1.41-5.24,5.38-5.24,11.26,0,7.43,2,9.45,2,9.45a13.28,13.28,0,0,0,6.19,0s1.77-2,1.77-9.45C213.2,806.58,210.92,802.61,209.61,801.2Z"/><path class="cls-101" d="M209.6,801.2a.89.89,0,0,0-1.13,0c-1.3,1.4-5.22,5.35-5.22,11.19,0,7.38,2,9.39,2,9.39a13.06,13.06,0,0,0,6.1,0s1.78-2,1.78-9.39C213.16,806.55,210.91,802.6,209.6,801.2Z"/><path class="cls-102" d="M209.6,801.2a.89.89,0,0,0-1.13,0c-1.29,1.4-5.2,5.31-5.2,11.12,0,7.34,2,9.34,2,9.34a13,13,0,0,0,6,0s1.79-2,1.79-9.34C213.12,806.51,210.89,802.6,209.6,801.2Z"/><path class="cls-103" d="M209.6,801.2a.89.89,0,0,0-1.13,0c-1.28,1.39-5.17,5.28-5.17,11,0,7.29,2.07,9.28,2.07,9.28a12.56,12.56,0,0,0,5.91,0s1.81-2,1.81-9.28C213.09,806.48,210.88,802.59,209.6,801.2Z"/><path class="cls-104" d="M209.59,801.2a.86.86,0,0,0-1.11,0c-1.28,1.38-5.16,5.25-5.16,11,0,7.25,2.09,9.22,2.09,9.22a12.31,12.31,0,0,0,5.81,0s1.83-2,1.83-9.22C213.05,806.45,210.87,802.58,209.59,801.2Z"/><path class="cls-105" d="M209.59,801.2a.86.86,0,0,0-1.11,0c-1.27,1.37-5.14,5.21-5.14,10.91,0,7.2,2.11,9.16,2.11,9.16a12.09,12.09,0,0,0,5.72,0s1.84-2,1.84-9.16C213,806.41,210.86,802.57,209.59,801.2Z"/><path class="cls-106" d="M209.58,801.2a.85.85,0,0,0-1.1,0c-1.26,1.36-5.11,5.18-5.11,10.84,0,7.16,2.12,9.11,2.12,9.11a12,12,0,0,0,5.63,0S213,819.2,213,812C213,806.38,210.84,802.56,209.58,801.2Z"/><path class="cls-107" d="M209.58,801.19a.9.9,0,0,0-1.1,0c-1.25,1.36-5.09,5.15-5.09,10.78,0,7.11,2.15,9,2.15,9a11.6,11.6,0,0,0,5.53,0s1.87-1.94,1.87-9C212.94,806.34,210.83,802.55,209.58,801.19Z"/><path class="cls-108" d="M209.57,801.19a.87.87,0,0,0-1.08,0c-1.25,1.35-5.07,5.12-5.07,10.71,0,7.07,2.16,9,2.16,9a11.35,11.35,0,0,0,5.43,0s1.89-1.92,1.89-9C212.9,806.31,210.82,802.54,209.57,801.19Z"/><path class="cls-109" d="M209.57,801.19a.87.87,0,0,0-1.08,0c-1.24,1.34-5.05,5.09-5.05,10.64,0,7,2.18,8.93,2.18,8.93a11.13,11.13,0,0,0,5.34,0s1.91-1.91,1.91-8.93C212.87,806.28,210.81,802.53,209.57,801.19Z"/><path class="cls-110" d="M209.57,801.19a.87.87,0,0,0-1.08,0c-1.23,1.33-5,5-5,10.57,0,7,2.2,8.88,2.2,8.88a11,11,0,0,0,5.24,0s1.92-1.9,1.92-8.88C212.83,806.24,210.8,802.52,209.57,801.19Z"/><path class="cls-111" d="M209.56,801.19a.86.86,0,0,0-1.07,0c-1.22,1.32-5,5-5,10.5,0,6.93,2.22,8.82,2.22,8.82a10.65,10.65,0,0,0,5.15,0s1.93-1.89,1.93-8.82C212.79,806.21,210.78,802.51,209.56,801.19Z"/><path class="cls-112" d="M209.56,801.19a.84.84,0,0,0-1.06,0c-1.22,1.31-5,5-5,10.43,0,6.88,2.23,8.76,2.23,8.76a10.43,10.43,0,0,0,5.06,0s1.95-1.88,1.95-8.76C212.76,806.17,210.77,802.5,209.56,801.19Z"/><path class="cls-113" d="M209.55,801.19a.83.83,0,0,0-1.05,0c-1.21,1.3-5,4.95-5,10.36,0,6.84,2.25,8.7,2.25,8.7a10.18,10.18,0,0,0,5,0s2-1.86,2-8.7C212.72,806.14,210.76,802.49,209.55,801.19Z"/><path class="cls-114" d="M209.55,801.19a.83.83,0,0,0-1.05,0c-1.19,1.29-4.94,4.91-4.94,10.29,0,6.79,2.28,8.65,2.28,8.65a10.05,10.05,0,0,0,4.86,0s2-1.86,2-8.65C212.69,806.1,210.75,802.48,209.55,801.19Z"/><path class="cls-115" d="M209.54,801.18a.83.83,0,0,0-1,0c-1.19,1.29-4.92,4.89-4.92,10.23,0,6.75,2.29,8.59,2.29,8.59a9.7,9.7,0,0,0,4.77,0s2-1.84,2-8.59C212.65,806.07,210.73,802.47,209.54,801.18Z"/><path class="cls-115" d="M209.54,801.18a.83.83,0,0,0-1,0c-1.18,1.28-4.9,4.86-4.9,10.16,0,6.7,2.31,8.53,2.31,8.53a9.48,9.48,0,0,0,4.68,0s2-1.83,2-8.53C212.61,806,210.72,802.46,209.54,801.18Z"/><path class="cls-116" d="M209.54,801.18a.83.83,0,0,0-1,0c-1.17,1.27-4.87,4.82-4.87,10.1,0,6.65,2.32,8.46,2.32,8.46a9.26,9.26,0,0,0,4.59,0s2-1.81,2-8.46C212.58,806,210.71,802.45,209.54,801.18Z"/><path class="cls-117" d="M209.53,801.18a.81.81,0,0,0-1,0c-1.16,1.26-4.85,4.79-4.85,10,0,6.6,2.35,8.41,2.35,8.41a9.1,9.1,0,0,0,4.48,0s2-1.81,2-8.41C212.54,806,210.7,802.44,209.53,801.18Z"/><path class="cls-118" d="M209.53,801.18a.8.8,0,0,0-1,0c-1.16,1.25-4.83,4.75-4.83,10,0,6.56,2.36,8.35,2.36,8.35a8.75,8.75,0,0,0,4.39,0s2.06-1.79,2.06-8.35C212.5,805.93,210.69,802.43,209.53,801.18Z"/><path class="cls-119" d="M209.52,801.18a.78.78,0,0,0-1,0c-1.15,1.24-4.81,4.72-4.81,9.89,0,6.51,2.38,8.29,2.38,8.29a8.53,8.53,0,0,0,4.3,0s2.08-1.78,2.08-8.29C212.47,805.9,210.67,802.42,209.52,801.18Z"/><path class="cls-120" d="M209.52,801.18a.78.78,0,0,0-1,0c-1.14,1.23-4.78,4.69-4.78,9.82,0,6.47,2.39,8.23,2.39,8.23a8.31,8.31,0,0,0,4.21,0s2.09-1.76,2.09-8.23C212.43,805.87,210.66,802.41,209.52,801.18Z"/><path class="cls-121" d="M209.51,801.18a.77.77,0,0,0-1,0c-1.13,1.22-4.76,4.65-4.76,9.75,0,6.42,2.42,8.18,2.42,8.18a8.15,8.15,0,0,0,4.1,0s2.11-1.76,2.11-8.18C212.39,805.83,210.65,802.4,209.51,801.18Z"/><path class="cls-122" d="M209.51,801.17a.78.78,0,0,0-1,0c-1.13,1.22-4.75,4.63-4.75,9.69,0,6.38,2.44,8.12,2.44,8.12a7.81,7.81,0,0,0,4,0s2.13-1.74,2.13-8.12C212.36,805.8,210.64,802.39,209.51,801.17Z"/><path class="cls-123" d="M209.51,801.17a.78.78,0,0,0-1,0c-1.12,1.21-4.72,4.59-4.72,9.62,0,6.33,2.45,8.06,2.45,8.06a7.59,7.59,0,0,0,3.92,0s2.14-1.73,2.14-8.06C212.32,805.76,210.62,802.38,209.51,801.17Z"/><path class="cls-124" d="M209.5,801.17a.77.77,0,0,0-1,0c-1.11,1.2-4.7,4.56-4.7,9.55,0,6.29,2.47,8,2.47,8a7.38,7.38,0,0,0,3.83,0s2.15-1.71,2.15-8C212.28,805.73,210.61,802.37,209.5,801.17Z"/><path class="cls-124" d="M209.5,801.17a.75.75,0,0,0-1,0c-1.11,1.19-4.68,4.53-4.68,9.48,0,6.24,2.49,8,2.49,8a7.25,7.25,0,0,0,3.73,0s2.17-1.71,2.17-8C212.25,805.7,210.6,802.36,209.5,801.17Z"/></g><g id="Pink_Detail" data-name="Pink Detail"><ellipse class="cls-125" cx="211.48" cy="830.19" rx="0.41" ry="0.35"/><ellipse class="cls-125" cx="214.8" cy="832.35" rx="0.41" ry="0.26"/><ellipse class="cls-125" cx="211.28" cy="833.04" rx="0.41" ry="0.26"/><ellipse class="cls-125" cx="211.98" cy="819.68" rx="0.41" ry="0.26"/><ellipse class="cls-125" cx="214.47" cy="820.03" rx="0.41" ry="0.26"/><ellipse class="cls-125" cx="215.05" cy="819.45" rx="0.28" ry="0.16"/><ellipse class="cls-125" cx="214.38" cy="820.92" rx="0.28" ry="0.16"/><ellipse class="cls-125" cx="213.8" cy="821.95" rx="0.41" ry="0.26"/><ellipse class="cls-125" cx="209.24" cy="824.96" rx="0.41" ry="0.26"/><ellipse class="cls-125" cx="207.17" cy="821.42" rx="0.41" ry="0.26"/><ellipse class="cls-125" cx="207.5" cy="822.37" rx="0.41" ry="0.26"/><ellipse class="cls-125" cx="208.74" cy="821.38" rx="0.41" ry="0.26"/><ellipse class="cls-125" cx="209.78" cy="822.65" rx="0.28" ry="0.16"/><ellipse class="cls-125" cx="205.33" cy="825.73" rx="0.41" ry="0.26"/><ellipse class="cls-125" cx="206.17" cy="829.14" rx="0.41" ry="0.26"/><ellipse class="cls-125" cx="209.82" cy="823.68" rx="0.41" ry="0.26"/><ellipse class="cls-125" cx="212.81" cy="829" rx="0.41" ry="0.26"/><ellipse class="cls-125" cx="206.17" cy="817.5" rx="0.41" ry="0.26"/><ellipse class="cls-125" cx="209.49" cy="813.79" rx="0.41" ry="0.26"/><ellipse class="cls-125" cx="209.78" cy="820.75" rx="0.28" ry="0.16"/><ellipse class="cls-125" cx="207.56" cy="819.49" rx="0.28" ry="0.16"/><ellipse class="cls-125" cx="205.34" cy="821.52" rx="0.28" ry="0.16"/><ellipse class="cls-125" cx="205.34" cy="817.47" rx="0.28" ry="0.16"/><ellipse class="cls-125" cx="204.52" cy="816.25" rx="0.41" ry="0.26"/><ellipse class="cls-125" cx="208.25" cy="815.45" rx="0.41" ry="0.26"/><ellipse class="cls-125" cx="212.6" cy="821.8" rx="0.28" ry="0.16"/><ellipse class="cls-125" cx="214.13" cy="825.17" rx="0.41" ry="0.26"/><ellipse class="cls-125" cx="214.16" cy="818.82" rx="0.28" ry="0.16"/><ellipse class="cls-125" cx="210" cy="814.32" rx="0.28" ry="0.16"/><ellipse class="cls-125" cx="211.55" cy="811.79" rx="0.28" ry="0.16"/><ellipse class="cls-125" cx="206.22" cy="815.58" rx="0.28" ry="0.16"/><ellipse class="cls-125" cx="212.44" cy="817.98" rx="0.28" ry="0.16"/><ellipse class="cls-125" cx="215.1" cy="815.45" rx="0.28" ry="0.16"/><ellipse class="cls-125" cx="206" cy="811.16" rx="0.28" ry="0.16"/><ellipse class="cls-125" cx="209.33" cy="807.12" rx="0.28" ry="0.16"/></g></svg>