<svg xmlns="http://www.w3.org/2000/svg" viewBox="0 0 432 846"><defs><style>.cls-1{fill:#001600;}.cls-2{fill:#001700;}.cls-3{fill:#001800;}.cls-4{fill:#001900;}.cls-5{fill:#001a00;}.cls-6{fill:#001b00;}.cls-7{fill:#001c00;}.cls-8{fill:#001d00;}.cls-9{fill:#001e00;}.cls-10{fill:#001f00;}.cls-11{fill:#002000;}.cls-12{fill:#002100;}.cls-13{fill:#020;}.cls-14{fill:#002300;}.cls-15{fill:#002400;}.cls-16{fill:#002500;}.cls-17{fill:#002501;}.cls-18{fill:#002601;}.cls-19{fill:#002702;}.cls-20{fill:#002803;}.cls-21{fill:#002904;}.cls-22{fill:#002905;}.cls-23{fill:#002a05;}.cls-24{fill:#002a06;}.cls-25{fill:#002b06;}.cls-26{fill:#002b07;}.cls-27{fill:#002c07;}.cls-28{fill:#002c08;}.cls-29{fill:#002d09;}.cls-30{fill:#002e0a;}.cls-31{fill:#002f0b;}.cls-32{fill:#002f0c;}.cls-33{fill:#00300c;}.cls-34{fill:#00300d;}.cls-35{fill:#00310d;}.cls-36{fill:#00310e;}.cls-37{fill:#00320e;}.cls-38{fill:#01320f;}.cls-39{fill:#02330f;}.cls-40{fill:#033310;}.cls-41{fill:#053410;}.cls-42{fill:#063410;}.cls-43{fill:#073411;}.cls-44{fill:#093511;}.cls-45{fill:#0a3512;}.cls-46{fill:#0b3612;}.cls-47{fill:#0d3612;}.cls-48{fill:#0e3713;}.cls-49{fill:#0f3713;}.cls-50{fill:#103714;}.cls-51{fill:#113814;}.cls-52{fill:#123814;}.cls-53{fill:#133915;}.cls-54{fill:#143915;}.cls-55{fill:#153a15;}.cls-56{fill:#163a16;}.cls-57{fill:#173a16;}.cls-58{fill:#183b16;}.cls-59{fill:#193b17;}.cls-60{fill:#1a3c17;}.cls-61{fill:#1b3c17;}.cls-62{fill:#1c3c18;}.cls-63{fill:#1c3d18;}.cls-64{fill:#1d3d18;}.cls-65{fill:#1e3e19;}.cls-66{fill:#1f3e19;}.cls-67{fill:#203e19;}.cls-68{fill:#213f1a;}.cls-69{fill:#223f1a;}.cls-70{fill:#23401a;}.cls-71{fill:#24401b;}.cls-72{fill:#25411b;}.cls-73{fill:#26411c;}.cls-74{fill:#27421c;}.cls-75{fill:#28421c;}.cls-76{fill:#28421d;}.cls-77{fill:#29431d;}.cls-78{fill:#2a431d;}.cls-79{fill:#2b441d;}.cls-80{fill:#2b441e;}.cls-81{fill:#2c441e;}.cls-82{fill:#2d451e;}.cls-83{fill:#2e451e;}.cls-84{fill:#2e451f;}.cls-85{fill:#2f461f;}.cls-86{fill:#30461f;}.cls-87{fill:#31461f;}.cls-88{fill:#314720;}.cls-89{fill:#324720;}.cls-90{fill:#334820;}.cls-91{fill:#344820;}.cls-92{fill:#344821;}.cls-93{fill:#354921;}.cls-94{fill:#364921;}.cls-95{fill:#374921;}.cls-96{fill:#374a22;}.cls-97{fill:#384a22;}.cls-98{fill:#394a22;}.cls-99{fill:#231f20;}</style></defs><g id="Green_Leaf" data-name="Green Leaf"><path class="cls-1" d="M209.43,765.69a1,1,0,0,0-1.93,0c-2.2,4.77-7.66,18.18-7.66,38.06,0,25.09,5,31.93,5,31.93a7.55,7.55,0,0,0,7.46,0s4.35-6.84,4.35-31.93C216.62,783.87,211.63,770.46,209.43,765.69Z"/><path class="cls-1" d="M209.42,765.68a1,1,0,0,0-1.91,0c-2.2,4.75-7.64,18.1-7.64,37.89,0,25,4.95,31.79,4.95,31.79a7.52,7.52,0,0,0,7.43,0s4.32-6.81,4.32-31.79C216.57,783.78,211.62,770.43,209.42,765.68Z"/><path class="cls-2" d="M209.42,765.68a1,1,0,0,0-1.91,0c-2.18,4.73-7.61,18-7.61,37.72,0,24.86,4.93,31.64,4.93,31.64a7.48,7.48,0,0,0,7.39,0s4.31-6.78,4.31-31.64C216.53,783.69,211.6,770.41,209.42,765.68Z"/><path class="cls-3" d="M209.41,765.68a1,1,0,0,0-1.9,0c-2.17,4.7-7.58,17.93-7.58,37.54,0,24.75,4.91,31.5,4.91,31.5a7.45,7.45,0,0,0,7.36,0s4.28-6.75,4.28-31.5C216.48,783.61,211.59,770.38,209.41,765.68Z"/><path class="cls-4" d="M209.41,765.68a1,1,0,0,0-1.89,0C205.35,770.36,200,783.52,200,803c0,24.64,4.89,31.36,4.89,31.36a7.4,7.4,0,0,0,7.32,0s4.27-6.72,4.27-31.36C216.44,783.52,211.57,770.36,209.41,765.68Z"/><path class="cls-5" d="M209.4,765.67a1,1,0,0,0-1.88,0c-2.15,4.66-7.53,17.77-7.53,37.2,0,24.52,4.86,31.21,4.86,31.21a7.38,7.38,0,0,0,7.29,0s4.25-6.69,4.25-31.21C216.39,783.44,211.56,770.33,209.4,765.67Z"/><path class="cls-5" d="M209.4,765.67a1,1,0,0,0-1.88,0c-2.14,4.64-7.5,17.68-7.5,37,0,24.41,4.84,31.07,4.84,31.07a7.37,7.37,0,0,0,7.26,0s4.22-6.66,4.22-31.07C216.34,783.35,211.54,770.31,209.4,765.67Z"/><path class="cls-6" d="M209.39,765.67a1,1,0,0,0-1.86,0c-2.14,4.61-7.48,17.6-7.48,36.85,0,24.29,4.82,30.91,4.82,30.91a7.3,7.3,0,0,0,7.22,0s4.21-6.62,4.21-30.91C216.3,783.27,211.52,770.28,209.39,765.67Z"/><path class="cls-7" d="M209.39,765.66a1,1,0,0,0-1.86,0c-2.12,4.6-7.45,17.52-7.45,36.68,0,24.18,4.8,30.77,4.8,30.77a7.27,7.27,0,0,0,7.19,0s4.18-6.59,4.18-30.77C216.25,783.18,211.51,770.26,209.39,765.66Z"/><path class="cls-7" d="M209.38,765.66a1,1,0,0,0-1.84,0c-2.12,4.58-7.43,17.43-7.43,36.5,0,24.07,4.78,30.63,4.78,30.63a7.22,7.22,0,0,0,7.15,0s4.17-6.56,4.17-30.63C216.21,783.09,211.49,770.24,209.38,765.66Z"/><path class="cls-8" d="M209.38,765.66a1,1,0,0,0-1.84,0c-2.11,4.55-7.4,17.35-7.4,36.33,0,24,4.75,30.48,4.75,30.48a7.2,7.2,0,0,0,7.12,0s4.15-6.53,4.15-30.48C216.16,783,211.48,770.21,209.38,765.66Z"/><path class="cls-9" d="M209.37,765.65a1,1,0,0,0-1.83,0c-2.09,4.54-7.37,17.27-7.37,36.16,0,23.84,4.73,30.34,4.73,30.34a7.17,7.17,0,0,0,7.09,0s4.13-6.5,4.13-30.34C216.12,782.92,211.46,770.19,209.37,765.65Z"/><path class="cls-10" d="M209.36,765.65a1,1,0,0,0-1.81,0c-2.09,4.51-7.35,17.19-7.35,36,0,23.73,4.71,30.2,4.71,30.2a7.15,7.15,0,0,0,7.05,0s4.11-6.47,4.11-30.2C216.07,782.84,211.45,770.16,209.36,765.65Z"/><path class="cls-10" d="M209.36,765.65a1,1,0,0,0-1.81,0c-2.07,4.49-7.32,17.1-7.32,35.81,0,23.61,4.69,30,4.69,30a7.12,7.12,0,0,0,7,0s4.09-6.44,4.09-30C216,782.75,211.43,770.14,209.36,765.65Z"/><path class="cls-11" d="M209.35,765.64a1,1,0,0,0-1.8,0c-2.06,4.47-7.29,17-7.29,35.64,0,23.5,4.67,29.9,4.67,29.9a7,7,0,0,0,7,0s4.07-6.4,4.07-29.9C216,782.67,211.42,770.11,209.35,765.64Z"/><path class="cls-12" d="M209.35,765.64a1,1,0,0,0-1.79,0c-2.06,4.45-7.26,16.94-7.26,35.47,0,23.38,4.63,29.75,4.63,29.75a7,7,0,0,0,6.95,0s4.05-6.37,4.05-29.75C215.93,782.58,211.4,770.09,209.35,765.64Z"/><path class="cls-12" d="M209.34,765.64a.94.94,0,0,0-1.78,0c-2,4.42-7.23,16.85-7.23,35.29,0,23.27,4.61,29.61,4.61,29.61a7,7,0,0,0,6.92,0s4-6.34,4-29.61C215.89,782.49,211.39,770.06,209.34,765.64Z"/><path class="cls-13" d="M209.34,765.63a.94.94,0,0,0-1.78,0c-2,4.41-7.2,16.78-7.2,35.12,0,23.16,4.59,29.47,4.59,29.47a6.94,6.94,0,0,0,6.88,0s4-6.31,4-29.47C215.84,782.41,211.37,770,209.34,765.63Z"/><path class="cls-13" d="M209.33,765.63a.93.93,0,0,0-1.76,0c-2,4.38-7.18,16.69-7.18,35,0,23,4.57,29.32,4.57,29.32a6.94,6.94,0,0,0,6.85,0s4-6.28,4-29.32C215.8,782.32,211.36,770,209.33,765.63Z"/><path class="cls-14" d="M209.33,765.63a.93.93,0,0,0-1.76,0c-2,4.36-7.15,16.61-7.15,34.77,0,22.93,4.55,29.18,4.55,29.18a6.89,6.89,0,0,0,6.81,0s4-6.25,4-29.18C215.75,782.24,211.34,770,209.33,765.63Z"/><path class="cls-15" d="M209.32,765.63a.92.92,0,0,0-1.75,0c-2,4.33-7.12,16.52-7.12,34.6,0,22.81,4.52,29,4.52,29a6.88,6.88,0,0,0,6.79,0s4-6.22,4-29C215.71,782.15,211.33,770,209.32,765.63Z"/><path class="cls-15" d="M209.32,765.62a.92.92,0,0,0-1.74,0c-2,4.32-7.1,16.44-7.1,34.43,0,22.7,4.5,28.89,4.5,28.89a6.84,6.84,0,0,0,6.75,0s3.93-6.19,3.93-28.89C215.66,782.06,211.31,769.94,209.32,765.62Z"/><path class="cls-16" d="M209.31,765.62a.91.91,0,0,0-1.73,0c-2,4.29-7.07,16.36-7.07,34.25,0,22.59,4.48,28.74,4.48,28.74a6.77,6.77,0,0,0,6.71,0s3.91-6.15,3.91-28.74C215.61,782,211.29,769.91,209.31,765.62Z"/><path class="cls-17" d="M209.31,765.62a.91.91,0,0,0-1.73,0c-2,4.27-7,16.27-7,34.08,0,22.47,4.46,28.59,4.46,28.59a6.74,6.74,0,0,0,6.68,0s3.89-6.12,3.89-28.59C215.57,781.89,211.28,769.89,209.31,765.62Z"/><path class="cls-18" d="M209.3,765.61a.91.91,0,0,0-1.71,0c-2,4.25-7,16.2-7,33.91C200.57,821.88,205,828,205,828a6.72,6.72,0,0,0,6.64,0s3.87-6.09,3.87-28.45C215.52,781.81,211.26,769.86,209.3,765.61Z"/><path class="cls-19" d="M209.3,765.61a.91.91,0,0,0-1.71,0c-2,4.23-7,16.11-7,33.73,0,22.25,4.41,28.31,4.41,28.31a6.71,6.71,0,0,0,6.62,0s3.85-6.06,3.85-28.31C215.48,781.72,211.25,769.84,209.3,765.61Z"/><path class="cls-19" d="M209.29,765.61a.9.9,0,0,0-1.7,0c-1.94,4.2-7,16-7,33.56,0,22.13,4.39,28.16,4.39,28.16a6.66,6.66,0,0,0,6.58,0s3.83-6,3.83-28.16C215.43,781.64,211.23,769.81,209.29,765.61Z"/><path class="cls-20" d="M209.28,765.6a.89.89,0,0,0-1.68,0c-1.94,4.19-6.94,15.95-6.94,33.39,0,22,4.37,28,4.37,28a6.62,6.62,0,0,0,6.54,0s3.82-6,3.82-28C215.39,781.55,211.22,769.79,209.28,765.6Z"/><path class="cls-20" d="M209.28,765.6a.89.89,0,0,0-1.68,0c-1.92,4.16-6.91,15.86-6.91,33.22,0,21.89,4.35,27.87,4.35,27.87a6.59,6.59,0,0,0,6.51,0s3.79-6,3.79-27.87C215.34,781.46,211.2,769.76,209.28,765.6Z"/><path class="cls-21" d="M209.27,765.6a.88.88,0,0,0-1.67,0c-1.91,4.14-6.88,15.78-6.88,33,0,21.78,4.33,27.73,4.33,27.73a6.54,6.54,0,0,0,6.47,0s3.77-6,3.77-27.73C215.29,781.38,211.19,769.74,209.27,765.6Z"/><path class="cls-22" d="M209.27,765.59a.88.88,0,0,0-1.66,0c-1.91,4.12-6.86,15.7-6.86,32.87,0,21.67,4.3,27.58,4.3,27.58a6.53,6.53,0,0,0,6.45,0s3.75-5.91,3.75-27.58C215.25,781.29,211.17,769.71,209.27,765.59Z"/><path class="cls-23" d="M209.26,765.59a.87.87,0,0,0-1.65,0c-1.89,4.1-6.82,15.62-6.82,32.7,0,21.55,4.27,27.43,4.27,27.43a6.49,6.49,0,0,0,6.41,0s3.73-5.88,3.73-27.43C215.2,781.21,211.16,769.69,209.26,765.59Z"/><path class="cls-24" d="M209.26,765.59a.87.87,0,0,0-1.65,0c-1.88,4.07-6.79,15.53-6.79,32.52,0,21.44,4.25,27.29,4.25,27.29a6.44,6.44,0,0,0,6.37,0s3.72-5.85,3.72-27.29C215.16,781.12,211.14,769.66,209.26,765.59Z"/><path class="cls-25" d="M209.25,765.58a.86.86,0,0,0-1.63,0c-1.88,4.06-6.77,15.46-6.77,32.36,0,21.32,4.23,27.14,4.23,27.14a6.41,6.41,0,0,0,6.34,0s3.69-5.82,3.69-27.14C215.11,781,211.13,769.64,209.25,765.58Z"/><path class="cls-26" d="M209.25,765.58a.86.86,0,0,0-1.63,0,75.91,75.91,0,0,0-6.74,32.18c0,21.21,4.21,27,4.21,27a6.36,6.36,0,0,0,6.3,0s3.68-5.79,3.68-27C215.07,781,211.11,769.61,209.25,765.58Z"/><path class="cls-27" d="M209.24,765.58a.86.86,0,0,0-1.62,0,75.43,75.43,0,0,0-6.71,32c0,21.1,4.18,26.86,4.18,26.86a6.35,6.35,0,0,0,6.28,0s3.65-5.76,3.65-26.86C215,780.86,211.1,769.59,209.24,765.58Z"/><path class="cls-28" d="M209.24,765.58a.85.85,0,0,0-1.61,0,74.81,74.81,0,0,0-6.69,31.83c0,21,4.16,26.71,4.16,26.71a6.34,6.34,0,0,0,6.24,0s3.63-5.73,3.63-26.71C215,780.78,211.08,769.57,209.24,765.58Z"/><path class="cls-29" d="M209.23,765.57a.85.85,0,0,0-1.6,0A74.55,74.55,0,0,0,201,797.23c0,20.87,4.14,26.57,4.14,26.57a6.29,6.29,0,0,0,6.2,0s3.62-5.7,3.62-26.57C214.93,780.69,211.06,769.54,209.23,765.57Z"/><path class="cls-29" d="M209.23,765.57a.85.85,0,0,0-1.6,0A74.14,74.14,0,0,0,201,797.06c0,20.75,4.12,26.41,4.12,26.41a6.23,6.23,0,0,0,6.17,0s3.59-5.66,3.59-26.41C214.88,780.61,211.05,769.52,209.23,765.57Z"/><path class="cls-30" d="M209.22,765.57a.83.83,0,0,0-1.58,0A73.41,73.41,0,0,0,201,796.88c0,20.64,4.1,26.27,4.1,26.27a6.18,6.18,0,0,0,6.13,0s3.58-5.63,3.58-26.27C214.84,780.52,211,769.49,209.22,765.57Z"/><path class="cls-30" d="M209.22,765.56a.84.84,0,0,0-1.58,0,73.25,73.25,0,0,0-6.58,31.14c0,20.53,4.07,26.13,4.07,26.13a6.18,6.18,0,0,0,6.11,0s3.55-5.6,3.55-26.13C214.79,780.44,211,769.47,209.22,765.56Z"/><path class="cls-31" d="M209.21,765.56a.83.83,0,0,0-1.57,0,72.74,72.74,0,0,0-6.55,31c0,20.41,4,26,4,26a6.13,6.13,0,0,0,6.07,0s3.54-5.57,3.54-26C214.75,780.35,211,769.44,209.21,765.56Z"/><path class="cls-32" d="M209.21,765.56a.82.82,0,0,0-1.56,0,72.22,72.22,0,0,0-6.53,30.79c0,20.3,4,25.84,4,25.84a6.11,6.11,0,0,0,6,0s3.52-5.54,3.52-25.84C214.7,780.26,211,769.42,209.21,765.56Z"/><path class="cls-33" d="M209.2,765.55a.82.82,0,0,0-1.55,0,71.85,71.85,0,0,0-6.5,30.62c0,20.19,4,25.7,4,25.7a6.08,6.08,0,0,0,6,0s3.49-5.51,3.49-25.7C214.65,780.18,211,769.39,209.2,765.55Z"/><path class="cls-34" d="M209.19,765.55a.81.81,0,0,0-1.53,0A71.19,71.19,0,0,0,201.18,796c0,20.07,4,25.55,4,25.55a6,6,0,0,0,6,0s3.48-5.48,3.48-25.55C214.61,780.09,211,769.37,209.19,765.55Z"/><path class="cls-35" d="M209.19,765.55a.81.81,0,0,0-1.53,0,70.87,70.87,0,0,0-6.45,30.27c0,20,4,25.41,4,25.41a6,6,0,0,0,5.94,0s3.45-5.45,3.45-25.41C214.56,780,210.94,769.34,209.19,765.55Z"/><path class="cls-36" d="M209.18,765.54a.8.8,0,0,0-1.52,0,70.52,70.52,0,0,0-6.42,30.11c0,19.84,3.94,25.25,3.94,25.25a6,6,0,0,0,5.9,0s3.44-5.41,3.44-25.25C214.52,779.92,210.93,769.32,209.18,765.54Z"/><path class="cls-37" d="M209.18,765.54a.8.8,0,0,0-1.51,0,69.84,69.84,0,0,0-6.4,29.93c0,19.73,3.92,25.11,3.92,25.11a5.92,5.92,0,0,0,5.87,0s3.41-5.38,3.41-25.11C214.47,779.84,210.91,769.29,209.18,765.54Z"/><path class="cls-38" d="M209.17,765.54a.79.79,0,0,0-1.5,0,69.57,69.57,0,0,0-6.36,29.75c0,19.62,3.89,25,3.89,25a5.9,5.9,0,0,0,5.83,0s3.4-5.35,3.4-25C214.43,779.75,210.9,769.27,209.17,765.54Z"/><path class="cls-39" d="M209.17,765.53a.79.79,0,0,0-1.5,0,69.17,69.17,0,0,0-6.33,29.59c0,19.5,3.87,24.82,3.87,24.82a5.86,5.86,0,0,0,5.79,0s3.38-5.32,3.38-24.82C214.38,779.66,210.88,769.24,209.17,765.53Z"/><path class="cls-40" d="M209.16,765.53a.78.78,0,0,0-1.48,0,68.54,68.54,0,0,0-6.31,29.41c0,19.39,3.84,24.68,3.84,24.68a5.85,5.85,0,0,0,5.77,0s3.35-5.29,3.35-24.68C214.33,779.58,210.87,769.22,209.16,765.53Z"/><path class="cls-41" d="M209.16,765.53a.78.78,0,0,0-1.48,0,68.19,68.19,0,0,0-6.28,29.24c0,19.27,3.82,24.53,3.82,24.53a5.81,5.81,0,0,0,5.73,0s3.34-5.26,3.34-24.53C214.29,779.49,210.85,769.19,209.16,765.53Z"/><path class="cls-42" d="M209.15,765.53a.77.77,0,0,0-1.47,0,67.77,67.77,0,0,0-6.25,29.06c0,19.16,3.8,24.39,3.8,24.39a5.77,5.77,0,0,0,5.7,0s3.31-5.23,3.31-24.39C214.24,779.41,210.83,769.17,209.15,765.53Z"/><path class="cls-43" d="M209.15,765.52a.77.77,0,0,0-1.46,0,67.15,67.15,0,0,0-6.23,28.89c0,19.05,3.78,24.24,3.78,24.24a5.7,5.7,0,0,0,5.66,0s3.3-5.19,3.3-24.24C214.2,779.32,210.82,769.14,209.15,765.52Z"/><path class="cls-44" d="M209.14,765.52a.77.77,0,0,0-1.45,0,66.89,66.89,0,0,0-6.2,28.72c0,18.93,3.76,24.09,3.76,24.09a5.68,5.68,0,0,0,5.62,0s3.28-5.16,3.28-24.09C214.15,779.24,210.8,769.12,209.14,765.52Z"/><path class="cls-45" d="M209.14,765.52a.77.77,0,0,0-1.45,0,66.38,66.38,0,0,0-6.17,28.54c0,18.82,3.73,24,3.73,24a5.67,5.67,0,0,0,5.6,0s3.26-5.13,3.26-24C214.11,779.15,210.79,769.09,209.14,765.52Z"/><path class="cls-46" d="M209.13,765.51a.76.76,0,0,0-1.43,0,65.8,65.8,0,0,0-6.15,28.37c0,18.71,3.71,23.81,3.71,23.81a5.63,5.63,0,0,0,5.56,0s3.24-5.1,3.24-23.81C214.06,779.06,210.77,769.07,209.13,765.51Z"/><path class="cls-47" d="M209.13,765.51a.76.76,0,0,0-1.43,0,65.5,65.5,0,0,0-6.12,28.2c0,18.59,3.69,23.66,3.69,23.66a5.59,5.59,0,0,0,5.53,0S214,812.3,214,793.71C214,779,210.76,769,209.13,765.51Z"/><path class="cls-48" d="M209.12,765.51a.75.75,0,0,0-1.42,0,65,65,0,0,0-6.09,28c0,18.48,3.67,23.52,3.67,23.52a5.55,5.55,0,0,0,5.49,0s3.2-5,3.2-23.52C214,778.89,210.74,769,209.12,765.51Z"/><path class="cls-49" d="M209.11,765.5a.74.74,0,0,0-1.4,0,64.48,64.48,0,0,0-6.07,27.86c0,18.36,3.65,23.37,3.65,23.37a5.5,5.5,0,0,0,5.45,0s3.18-5,3.18-23.37C213.92,778.81,210.73,769,209.11,765.5Z"/><path class="cls-50" d="M209.11,765.5a.74.74,0,0,0-1.4,0,64.16,64.16,0,0,0-6,27.68c0,18.25,3.62,23.23,3.62,23.23a5.53,5.53,0,0,0,5.43,0s3.16-5,3.16-23.23C213.88,778.72,210.71,769,209.11,765.5Z"/><path class="cls-51" d="M209.1,765.5a.73.73,0,0,0-1.39,0,63.64,63.64,0,0,0-6,27.5c0,18.14,3.6,23.08,3.6,23.08a5.45,5.45,0,0,0,5.39,0s3.14-4.94,3.14-23.08C213.83,778.63,210.7,768.94,209.1,765.5Z"/><path class="cls-52" d="M209.1,765.49a.73.73,0,0,0-1.38,0,63.13,63.13,0,0,0-6,27.34c0,18,3.58,22.93,3.58,22.93a5.42,5.42,0,0,0,5.36,0s3.12-4.91,3.12-22.93C213.79,778.55,210.68,768.92,209.1,765.49Z"/><path class="cls-53" d="M209.09,765.49a.73.73,0,0,0-1.37,0,62.81,62.81,0,0,0-6,27.16c0,17.91,3.56,22.79,3.56,22.79a5.37,5.37,0,0,0,5.32,0s3.1-4.88,3.1-22.79C213.74,778.46,210.67,768.9,209.09,765.49Z"/><path class="cls-54" d="M209.09,765.49a.73.73,0,0,0-1.37,0,62.4,62.4,0,0,0-5.92,27c0,17.79,3.53,22.64,3.53,22.64a5.33,5.33,0,0,0,5.28,0s3.09-4.85,3.09-22.64C213.7,778.38,210.65,768.87,209.09,765.49Z"/><path class="cls-55" d="M209.08,765.48a.71.71,0,0,0-1.35,0,61.84,61.84,0,0,0-5.9,26.82c0,17.68,3.5,22.5,3.5,22.5a5.32,5.32,0,0,0,5.26,0s3.06-4.82,3.06-22.5C213.65,778.29,210.64,768.85,209.08,765.48Z"/><path class="cls-56" d="M209.08,765.48a.71.71,0,0,0-1.35,0,61.52,61.52,0,0,0-5.87,26.64c0,17.57,3.48,22.36,3.48,22.36a5.3,5.3,0,0,0,5.22,0s3-4.79,3-22.36C213.6,778.21,210.62,768.82,209.08,765.48Z"/><path class="cls-57" d="M209.07,765.48a.71.71,0,0,0-1.34,0A61.06,61.06,0,0,0,201.89,792c0,17.45,3.46,22.21,3.46,22.21a5.27,5.27,0,0,0,5.19,0s3-4.76,3-22.21C213.56,778.12,210.6,768.8,209.07,765.48Z"/><path class="cls-58" d="M209.07,765.48a.7.7,0,0,0-1.33,0,60.35,60.35,0,0,0-5.82,26.29c0,17.34,3.44,22.07,3.44,22.07a5.22,5.22,0,0,0,5.15,0s3-4.73,3-22.07C213.51,778,210.59,768.77,209.07,765.48Z"/><path class="cls-59" d="M209.06,765.47a.7.7,0,0,0-1.32,0A60.19,60.19,0,0,0,202,791.6c0,17.22,3.42,21.91,3.42,21.91a5.15,5.15,0,0,0,5.11,0s3-4.69,3-21.91C213.47,778,210.57,768.75,209.06,765.47Z"/><path class="cls-60" d="M209.06,765.47a.7.7,0,0,0-1.32,0A59.68,59.68,0,0,0,202,791.42c0,17.11,3.39,21.77,3.39,21.77a5.14,5.14,0,0,0,5.09,0s3-4.66,3-21.77C213.42,777.86,210.56,768.72,209.06,765.47Z"/><path class="cls-61" d="M209.05,765.47a.68.68,0,0,0-1.3,0A59.21,59.21,0,0,0,202,791.24c0,17,3.37,21.63,3.37,21.63a5.1,5.1,0,0,0,5.05,0s2.95-4.63,2.95-21.63C213.38,777.78,210.54,768.7,209.05,765.47Z"/><path class="cls-62" d="M209.05,765.46a.69.69,0,0,0-1.3,0A58.81,58.81,0,0,0,202,791.07c0,16.88,3.35,21.48,3.35,21.48a5.09,5.09,0,0,0,5,0s2.92-4.6,2.92-21.48C213.33,777.69,210.53,768.67,209.05,765.46Z"/><path class="cls-63" d="M209,765.46a.68.68,0,0,0-1.29,0,58.38,58.38,0,0,0-5.68,25.43c0,16.77,3.33,21.34,3.33,21.34a5,5,0,0,0,5,0s2.9-4.57,2.9-21.34C213.28,777.61,210.51,768.65,209,765.46Z"/><path class="cls-64" d="M209,765.46a.68.68,0,0,0-1.28,0,57.83,57.83,0,0,0-5.66,25.25c0,16.66,3.31,21.2,3.31,21.2a5,5,0,0,0,5,0s2.88-4.54,2.88-21.2C213.24,777.52,210.5,768.62,209,765.46Z"/><path class="cls-65" d="M209,765.45a.67.67,0,0,0-1.27,0,57.47,57.47,0,0,0-5.63,25.09c0,16.54,3.28,21.05,3.28,21.05a5,5,0,0,0,4.92,0s2.86-4.51,2.86-21.05C213.19,777.43,210.48,768.6,209,765.45Z"/><path class="cls-66" d="M209,765.45a.66.66,0,0,0-1.25,0,56.81,56.81,0,0,0-5.61,24.91c0,16.43,3.26,20.91,3.26,20.91a4.94,4.94,0,0,0,4.88,0s2.85-4.48,2.85-20.91C213.15,777.35,210.47,768.57,209,765.45Z"/><path class="cls-67" d="M209,765.45a.66.66,0,0,0-1.25,0,56.5,56.5,0,0,0-5.58,24.74c0,16.31,3.24,20.75,3.24,20.75a4.88,4.88,0,0,0,4.85,0s2.82-4.44,2.82-20.75C213.1,777.26,210.45,768.55,209,765.45Z"/><path class="cls-68" d="M209,765.44a.66.66,0,0,0-1.24,0A56.14,56.14,0,0,0,202.22,790c0,16.2,3.22,20.61,3.22,20.61a4.87,4.87,0,0,0,4.81,0s2.81-4.41,2.81-20.61C213.06,777.18,210.44,768.52,209,765.44Z"/><path class="cls-68" d="M209,765.44a.65.65,0,0,0-1.23,0,55.48,55.48,0,0,0-5.53,24.39c0,16.09,3.2,20.47,3.2,20.47a4.84,4.84,0,0,0,4.78,0s2.78-4.38,2.78-20.47C213,777.09,210.42,768.5,209,765.44Z"/><path class="cls-69" d="M209,765.44a.64.64,0,0,0-1.22,0,55.17,55.17,0,0,0-5.5,24.22c0,16,3.17,20.32,3.17,20.32a4.82,4.82,0,0,0,4.75,0s2.76-4.35,2.76-20.32C213,777,210.41,768.47,209,765.44Z"/><path class="cls-70" d="M209,765.43a.65.65,0,0,0-1.22,0,54.84,54.84,0,0,0-5.46,24.05c0,15.86,3.14,20.18,3.14,20.18a4.77,4.77,0,0,0,4.71,0s2.75-4.32,2.75-20.18C212.92,776.92,210.39,768.45,209,765.43Z"/><path class="cls-71" d="M209,765.43a.63.63,0,0,0-1.2,0,54.16,54.16,0,0,0-5.44,23.88c0,15.73,3.12,20,3.12,20a4.74,4.74,0,0,0,4.68,0s2.72-4.3,2.72-20C212.87,776.83,210.37,768.42,209,765.43Z"/><path class="cls-72" d="M209,765.43a.63.63,0,0,0-1.2,0,53.88,53.88,0,0,0-5.41,23.7c0,15.62,3.1,19.89,3.1,19.89a4.69,4.69,0,0,0,4.64,0s2.71-4.27,2.71-19.89C212.83,776.75,210.36,768.4,209,765.43Z"/><path class="cls-72" d="M209,765.43a.63.63,0,0,0-1.19,0A53.37,53.37,0,0,0,202.41,789c0,15.51,3.07,19.74,3.07,19.74a4.65,4.65,0,0,0,4.62,0s2.68-4.23,2.68-19.74C212.78,776.66,210.34,768.37,209,765.43Z"/><path class="cls-73" d="M209,765.42a.62.62,0,0,0-1.18,0,52.87,52.87,0,0,0-5.36,23.36c0,15.39,3.05,19.59,3.05,19.59a4.63,4.63,0,0,0,4.58,0s2.67-4.2,2.67-19.59C212.74,776.58,210.33,768.35,209,765.42Z"/><path class="cls-74" d="M209,765.42a.62.62,0,0,0-1.17,0,52.5,52.5,0,0,0-5.33,23.18c0,15.28,3,19.45,3,19.45a4.59,4.59,0,0,0,4.54,0s2.65-4.17,2.65-19.45C212.69,776.49,210.31,768.32,209,765.42Z"/><path class="cls-75" d="M209,765.42a.62.62,0,0,0-1.17,0,52.08,52.08,0,0,0-5.3,23c0,15.17,3,19.31,3,19.31a4.56,4.56,0,0,0,4.51,0s2.62-4.14,2.62-19.31C212.64,776.41,210.3,768.3,209,765.42Z"/><path class="cls-76" d="M209,765.41a.61.61,0,0,0-1.15,0,51.54,51.54,0,0,0-5.28,22.84c0,15,3,19.16,3,19.16a4.51,4.51,0,0,0,4.47,0s2.61-4.11,2.61-19.16C212.6,776.32,210.28,768.28,209,765.41Z"/><path class="cls-77" d="M209,765.41a.61.61,0,0,0-1.15,0,51.18,51.18,0,0,0-5.25,22.66c0,14.94,3,19,3,19a4.51,4.51,0,0,0,4.45,0s2.58-4.08,2.58-19C212.55,776.23,210.27,768.25,209,765.41Z"/><path class="cls-78" d="M209,765.41a.6.6,0,0,0-1.14,0,50.77,50.77,0,0,0-5.22,22.49c0,14.82,2.94,18.87,2.94,18.87a4.46,4.46,0,0,0,4.41,0s2.57-4,2.57-18.87C212.51,776.15,210.25,768.23,209,765.41Z"/><path class="cls-79" d="M208.94,765.4a.59.59,0,0,0-1.12,0,50.17,50.17,0,0,0-5.2,22.32c0,14.71,2.92,18.73,2.92,18.73a4.44,4.44,0,0,0,4.37,0s2.55-4,2.55-18.73C212.46,776.06,210.24,768.2,208.94,765.4Z"/><path class="cls-80" d="M208.94,765.4a.59.59,0,0,0-1.12,0,49.89,49.89,0,0,0-5.17,22.14c0,14.6,2.9,18.58,2.9,18.58a4.38,4.38,0,0,0,4.34,0s2.53-4,2.53-18.58C212.42,776,210.22,768.18,208.94,765.4Z"/><path class="cls-81" d="M208.93,765.4a.59.59,0,0,0-1.11,0,49.4,49.4,0,0,0-5.14,22c0,14.48,2.88,18.43,2.88,18.43a4.34,4.34,0,0,0,4.3,0s2.51-3.95,2.51-18.43C212.37,775.89,210.21,768.15,208.93,765.4Z"/><path class="cls-82" d="M208.93,765.39a.58.58,0,0,0-1.1,0,48.85,48.85,0,0,0-5.12,21.8c0,14.37,2.85,18.29,2.85,18.29a4.33,4.33,0,0,0,4.28,0s2.49-3.92,2.49-18.29C212.33,775.8,210.19,768.13,208.93,765.39Z"/><path class="cls-83" d="M208.92,765.39a.58.58,0,0,0-1.09,0A48.54,48.54,0,0,0,202.74,787c0,14.25,2.83,18.14,2.83,18.14a4.28,4.28,0,0,0,4.24,0s2.47-3.89,2.47-18.14C212.28,775.72,210.18,768.1,208.92,765.39Z"/><path class="cls-84" d="M208.92,765.39a.58.58,0,0,0-1.09,0,48.07,48.07,0,0,0-5.06,21.45c0,14.14,2.81,18,2.81,18a4.23,4.23,0,0,0,4.2,0s2.45-3.86,2.45-18C212.23,775.63,210.16,768.08,208.92,765.39Z"/><path class="cls-85" d="M208.91,765.38a.57.57,0,0,0-1.07,0,47.56,47.56,0,0,0-5,21.28c0,14,2.78,17.86,2.78,17.86a4.23,4.23,0,0,0,4.17,0s2.43-3.83,2.43-17.86C212.19,775.55,210.14,768.05,208.91,765.38Z"/><path class="cls-86" d="M208.91,765.38a.57.57,0,0,0-1.07,0,47.25,47.25,0,0,0-5,21.11c0,13.91,2.76,17.71,2.76,17.71a4.18,4.18,0,0,0,4.13,0s2.41-3.8,2.41-17.71C212.14,775.46,210.13,768,208.91,765.38Z"/><path class="cls-87" d="M208.9,765.38a.56.56,0,0,0-1.06,0,46.79,46.79,0,0,0-5,20.93c0,13.8,2.73,17.57,2.73,17.57a4.18,4.18,0,0,0,4.11,0s2.39-3.77,2.39-17.57C212.1,775.38,210.11,768,208.9,765.38Z"/><path class="cls-88" d="M208.9,765.38a.55.55,0,0,0-1.05,0,46.3,46.3,0,0,0-4.95,20.76c0,13.68,2.71,17.41,2.71,17.41a4.1,4.1,0,0,0,4.07,0s2.37-3.73,2.37-17.41C212.05,775.29,210.1,768,208.9,765.38Z"/><path class="cls-89" d="M208.89,765.37a.55.55,0,0,0-1,0A45.89,45.89,0,0,0,202.93,786c0,13.57,2.69,17.27,2.69,17.27a4.07,4.07,0,0,0,4,0S212,799.53,212,786C212,775.2,210.08,768,208.89,765.37Z"/><path class="cls-90" d="M208.89,765.37a.55.55,0,0,0-1,0A45.47,45.47,0,0,0,203,785.78c0,13.46,2.67,17.13,2.67,17.13a4,4,0,0,0,4,0s2.33-3.67,2.33-17.13C212,775.12,210.07,767.93,208.89,765.37Z"/><path class="cls-91" d="M208.88,765.37a.54.54,0,0,0-1,0A44.94,44.94,0,0,0,203,785.61c0,13.34,2.65,17,2.65,17a4,4,0,0,0,4,0s2.31-3.64,2.31-17C211.91,775,210.05,767.9,208.88,765.37Z"/><path class="cls-92" d="M208.88,765.36a.54.54,0,0,0-1,0A44.62,44.62,0,0,0,203,785.43c0,13.23,2.62,16.84,2.62,16.84a4,4,0,0,0,3.94,0s2.29-3.61,2.29-16.84C211.87,775,210,767.88,208.88,765.36Z"/><path class="cls-93" d="M208.87,765.36a.53.53,0,0,0-1,0,44.11,44.11,0,0,0-4.81,19.89c0,13.12,2.6,16.7,2.6,16.7a4,4,0,0,0,3.9,0s2.27-3.58,2.27-16.7C211.82,774.86,210,767.85,208.87,765.36Z"/><path class="cls-94" d="M208.86,765.36a.52.52,0,0,0-1,0,43.66,43.66,0,0,0-4.79,19.72c0,13,2.58,16.55,2.58,16.55a3.92,3.92,0,0,0,3.87,0s2.25-3.55,2.25-16.55C211.78,774.78,210,767.83,208.86,765.36Z"/><path class="cls-95" d="M208.86,765.35a.52.52,0,0,0-1,0,43.26,43.26,0,0,0-4.76,19.55c0,12.89,2.56,16.41,2.56,16.41a3.88,3.88,0,0,0,3.83,0s2.23-3.52,2.23-16.41C211.73,774.69,210,767.8,208.86,765.35Z"/><path class="cls-96" d="M208.85,765.35a.52.52,0,0,0-1,0,42.81,42.81,0,0,0-4.73,19.38c0,12.77,2.54,16.25,2.54,16.25a3.81,3.81,0,0,0,3.79,0s2.22-3.48,2.22-16.25C211.69,774.6,210,767.78,208.85,765.35Z"/><path class="cls-97" d="M208.85,765.35a.51.51,0,0,0-1,0,42.31,42.31,0,0,0-4.71,19.2c0,12.66,2.51,16.11,2.51,16.11a3.82,3.82,0,0,0,3.77,0s2.19-3.45,2.19-16.11C211.64,774.52,210,767.75,208.85,765.35Z"/><path class="cls-98" d="M208.84,765.34a.51.51,0,0,0-1,0,41.94,41.94,0,0,0-4.68,19c0,12.55,2.49,16,2.49,16a3.78,3.78,0,0,0,3.73,0s2.17-3.42,2.17-16C211.59,774.43,210,767.73,208.84,765.34Z"/><path class="cls-1" d="M215.2,835.65a104.47,104.47,0,0,0,2.15-14.14,134.08,134.08,0,0,0-1.12-33.78c-.51-3.08-5.36-19.49-5.75-19.57-2-.38-7.59,12.67-9.45,26.92A142.67,142.67,0,0,0,199.84,813a116.48,116.48,0,0,0,2.37,22.62c-.09-.44,1.84.15,4.44.55S212.55,836.82,215.2,835.65Z"/><path class="cls-1" d="M216.22,787.73c-.51-3.08-5.31-19.31-5.7-19.36-1.53-.21-5.2,7.41-7.64,17.44a87.29,87.29,0,0,0-1.75,9.31A144.87,144.87,0,0,0,200,813a116,116,0,0,0,2.34,22.48c-.08-.44,1.83.15,4.43.54s5.85.61,8.48-.58A97.77,97.77,0,0,0,217,824.26c.1-.93.2-1.91.3-2.93A133.05,133.05,0,0,0,216.22,787.73Z"/><path class="cls-2" d="M216.22,787.73c-.51-3.07-5.28-19.12-5.67-19.15-1.53-.14-5.15,7.37-7.57,17.33a86.16,86.16,0,0,0-1.74,9.25,143.14,143.14,0,0,0-1.18,17.72,114.06,114.06,0,0,0,2.32,22.33c-.08-.43,1.82.15,4.41.54s5.79.58,8.4-.61A94.15,94.15,0,0,0,217,824.06q.17-1.38.3-2.91A132.43,132.43,0,0,0,216.22,787.73Z"/><path class="cls-3" d="M216.21,787.74c-.5-3.08-5.23-18.94-5.63-19-1.51,0-5.11,7.34-7.51,17.23a85.06,85.06,0,0,0-1.72,9.19,139.47,139.47,0,0,0-1.17,17.6A112.83,112.83,0,0,0,202.46,835c-.07-.43,1.82.15,4.39.53s5.75.57,8.34-.63a99.35,99.35,0,0,0,1.81-11c.1-.92.2-1.89.29-2.9A130.86,130.86,0,0,0,216.21,787.74Z"/><path class="cls-4" d="M216.21,787.74c-.51-3.08-5.19-18.75-5.6-18.75-1.5,0-5.06,7.31-7.45,17.12a89.06,89.06,0,0,0-1.71,9.13,141.68,141.68,0,0,0-1.16,17.49,111.66,111.66,0,0,0,2.26,22c-.08-.42,1.8.15,4.37.52s5.7.55,8.26-.66a97.37,97.37,0,0,0,1.8-11c.1-.92.2-1.88.3-2.89A130.76,130.76,0,0,0,216.21,787.74Z"/><path class="cls-5" d="M216.2,787.74c-.5-3.07-5.16-18.64-5.56-18.54-1.47-.2-5,7.27-7.38,17a86.25,86.25,0,0,0-1.7,9.07,139.93,139.93,0,0,0-1.16,17.37,111.2,111.2,0,0,0,2.23,21.9c-.07-.42,1.8.15,4.36.52s5.64.53,8.19-.69a99.28,99.28,0,0,0,1.78-10.9c.11-.91.21-1.86.3-2.86A129.8,129.8,0,0,0,216.2,787.74Z"/><path class="cls-5" d="M216.2,787.74c-.51-3.07-5.12-18.47-5.53-18.33-1.46-.19-5,7.23-7.32,16.9a85.13,85.13,0,0,0-1.68,9,140,140,0,0,0-1.16,17.26,110,110,0,0,0,2.2,21.75c-.06-.42,1.8.15,4.34.51s5.6.51,8.12-.71A99.57,99.57,0,0,0,217,823.29c.1-.91.2-1.86.29-2.85A129.18,129.18,0,0,0,216.2,787.74Z"/><path class="cls-6" d="M216.19,787.74c-.5-3.06-5.08-18.3-5.48-18.13-1.45-.16-4.94,7.21-7.26,16.8a86.56,86.56,0,0,0-1.68,9,140.36,140.36,0,0,0-1.15,17.15,108.14,108.14,0,0,0,2.18,21.6c-.06-.41,1.78.15,4.32.5s5.54.5,8-.74a99.87,99.87,0,0,0,1.76-10.78c.11-.9.2-1.84.3-2.83A128.68,128.68,0,0,0,216.19,787.74Z"/><path class="cls-7" d="M216.19,787.74c-.5-3.06-5-18.13-5.45-17.92-1.44-.15-4.9,7.17-7.2,16.69a85.42,85.42,0,0,0-1.66,8.89,136.89,136.89,0,0,0-1.14,17,106.88,106.88,0,0,0,2.14,21.46c0-.41,1.78.15,4.31.5s5.49.47,8-.77a97.71,97.71,0,0,0,1.76-10.72c.1-.89.2-1.84.29-2.82A128.06,128.06,0,0,0,216.19,787.74Z"/><path class="cls-7" d="M216.18,787.74c-.5-3-5-18-5.41-17.71-1.43-.13-4.85,7.13-7.14,16.58a87,87,0,0,0-1.64,8.83,137.11,137.11,0,0,0-1.14,16.92A105.74,105.74,0,0,0,203,833.67c-.06-.4,1.77.15,4.28.49s5.44.46,7.91-.79a101.72,101.72,0,0,0,1.74-10.66c.1-.89.2-1.83.29-2.81A127,127,0,0,0,216.18,787.74Z"/><path class="cls-8" d="M216.18,787.75c-.5-3.06-5-17.79-5.38-17.51-1.42-.12-4.81,7.09-7.07,16.47a85.77,85.77,0,0,0-1.64,8.77,137.28,137.28,0,0,0-1.13,16.8,105.29,105.29,0,0,0,2.09,21.17c-.05-.4,1.76.15,4.27.48s5.39.45,7.83-.82a98.3,98.3,0,0,0,1.74-10.6c.1-.88.19-1.81.28-2.79A126.35,126.35,0,0,0,216.18,787.75Z"/><path class="cls-9" d="M216.17,787.75c-.5-3.06-4.92-17.62-5.34-17.31-1.4-.09-4.76,7.07-7,16.37a85.12,85.12,0,0,0-1.62,8.71,135.55,135.55,0,0,0-1.13,16.69,104.1,104.1,0,0,0,2.06,21c0-.4,1.76.15,4.26.48s5.34.42,7.76-.85a99.17,99.17,0,0,0,1.72-10.54c.1-.88.2-1.81.29-2.77A125.92,125.92,0,0,0,216.17,787.75Z"/><path class="cls-10" d="M216.17,787.75c-.5-3-4.89-17.45-5.31-17.1-1.39-.08-4.72,7-6.94,16.26a84,84,0,0,0-1.61,8.65,137.79,137.79,0,0,0-1.13,16.57,103.88,103.88,0,0,0,2,20.89c0-.4,1.75.14,4.23.46s5.29.41,7.69-.87a98.74,98.74,0,0,0,1.71-10.49c.11-.87.2-1.79.29-2.75A125.3,125.3,0,0,0,216.17,787.75Z"/><path class="cls-10" d="M216.16,787.75c-.49-3-4.84-17.28-5.26-16.89-1.39-.06-4.69,7-6.89,16.15a85.19,85.19,0,0,0-1.6,8.6,142.19,142.19,0,0,0-1.12,16.45,103.42,103.42,0,0,0,2,20.74c0-.4,1.74.14,4.22.46,2.31.29,5.24.38,7.61-.91a95.49,95.49,0,0,0,1.71-10.42c.1-.87.19-1.78.28-2.74A124.27,124.27,0,0,0,216.16,787.75Z"/><path class="cls-11" d="M216.16,787.75c-.5-3-4.81-17.11-5.23-16.68-1.37-.05-4.64,7-6.83,16a84.55,84.55,0,0,0-1.58,8.54A138.14,138.14,0,0,0,201.41,812a102.27,102.27,0,0,0,2,20.6c0-.39,1.74.14,4.21.45,2.28.29,5.18.37,7.54-.93a96.88,96.88,0,0,0,1.69-10.36c.1-.87.2-1.78.29-2.73A124.18,124.18,0,0,0,216.16,787.75Z"/><path class="cls-12" d="M216.15,787.75c-.49-3-4.76-16.93-5.19-16.48-1.36,0-4.6,6.93-6.76,15.94a83.36,83.36,0,0,0-1.57,8.48,138.48,138.48,0,0,0-1.11,16.22,101.14,101.14,0,0,0,1.95,20.45c0-.39,1.73.14,4.18.44,2.26.28,5.14.35,7.47-.95a97.18,97.18,0,0,0,1.69-10.31c.1-.86.19-1.76.28-2.71A123.16,123.16,0,0,0,216.15,787.75Z"/><path class="cls-12" d="M216.15,787.75c-.5-3-4.73-16.76-5.16-16.27-1.35,0-4.55,6.89-6.7,15.83a85,85,0,0,0-1.56,8.42,139,139,0,0,0-1.1,16.1,100.72,100.72,0,0,0,1.92,20.31c0-.38,1.72.14,4.17.44,2.24.27,5.08.33,7.4-1a97.51,97.51,0,0,0,1.67-10.24c.1-.86.19-1.76.28-2.69A122.62,122.62,0,0,0,216.15,787.75Z"/><path class="cls-13" d="M216.14,787.76c-.49-3-4.69-16.6-5.12-16.07-1.33,0-4.51,6.85-6.63,15.72a83.78,83.78,0,0,0-1.55,8.36,137.12,137.12,0,0,0-1.1,16,99.6,99.6,0,0,0,1.9,20.16c0-.38,1.71.14,4.15.43,2.21.26,5,.31,7.32-1a94.69,94.69,0,0,0,1.67-10.19c.09-.85.19-1.74.28-2.67A122,122,0,0,0,216.14,787.76Z"/><path class="cls-13" d="M216.14,787.76c-.49-3-4.65-16.43-5.09-15.86-1.32,0-4.47,6.82-6.57,15.61a83.13,83.13,0,0,0-1.53,8.3,137.35,137.35,0,0,0-1.1,15.88,99.16,99.16,0,0,0,1.87,20c0-.38,1.71.14,4.13.42,2.19.26,5,.3,7.26-1A99.37,99.37,0,0,0,216.76,821c.1-.85.19-1.73.28-2.66A121.42,121.42,0,0,0,216.14,787.76Z"/><path class="cls-14" d="M216.13,787.76c-.49-3-4.61-16.26-5-15.66-1.32,0-4.43,6.79-6.52,15.51a81.93,81.93,0,0,0-1.52,8.24A135.72,135.72,0,0,0,202,811.61a98,98,0,0,0,1.83,19.87c0-.37,1.7.14,4.12.42,2.17.25,4.93.28,7.18-1.07a95.36,95.36,0,0,0,1.65-10.06c.09-.84.18-1.73.27-2.65A119.93,119.93,0,0,0,216.13,787.76Z"/><path class="cls-15" d="M216.13,787.76c-.49-3-4.57-16.09-5-15.45-1.3.06-4.39,6.75-6.45,15.4a80.74,80.74,0,0,0-1.51,8.18,136.12,136.12,0,0,0-1.08,15.65,96.17,96.17,0,0,0,1.81,19.72c0-.37,1.69.14,4.1.41,2.14.24,4.88.26,7.11-1.09a97.35,97.35,0,0,0,1.63-10c.1-.83.19-1.71.27-2.63A119.31,119.31,0,0,0,216.13,787.76Z"/><path class="cls-15" d="M216.12,787.76c-.49-3-4.53-15.91-5-15.24-1.29.08-4.34,6.72-6.39,15.29a79.58,79.58,0,0,0-1.49,8.12,134.11,134.11,0,0,0-1.08,15.53A95.76,95.76,0,0,0,204,831c0-.36,1.68.14,4.08.4a11.09,11.09,0,0,0,7-1.11,93.17,93.17,0,0,0,1.62-10c.1-.83.19-1.71.28-2.62A118.81,118.81,0,0,0,216.12,787.76Z"/><path class="cls-16" d="M216.12,787.76c-.49-3-4.49-15.74-4.94-15-1.28.09-4.3,6.68-6.32,15.18a81.71,81.71,0,0,0-1.49,8.06,137.1,137.1,0,0,0-1.07,15.42,95.39,95.39,0,0,0,1.75,19.43c0-.36,1.68.14,4.07.4a11,11,0,0,0,7-1.15,98.08,98.08,0,0,0,1.61-9.89c.09-.82.18-1.69.27-2.59A118.27,118.27,0,0,0,216.12,787.76Z"/><path class="cls-17" d="M216.11,787.76c-.49-3-4.45-15.57-4.9-14.83-1.27.12-4.25,6.65-6.26,15.08a80.52,80.52,0,0,0-1.47,8,135.21,135.21,0,0,0-1.07,15.3,94.33,94.33,0,0,0,1.73,19.29c0-.36,1.67.14,4.05.39a10.71,10.71,0,0,0,6.89-1.17,93.77,93.77,0,0,0,1.6-9.83q.15-1.23.27-2.58A117.25,117.25,0,0,0,216.11,787.76Z"/><path class="cls-18" d="M216.11,787.77c-.49-3-4.42-15.41-4.86-14.63-1.26.13-4.22,6.62-6.21,15a79.34,79.34,0,0,0-1.45,7.94,135.69,135.69,0,0,0-1.07,15.19,93.91,93.91,0,0,0,1.7,19.14c0-.35,1.66.14,4,.39a10.62,10.62,0,0,0,6.83-1.2,96.67,96.67,0,0,0,1.59-9.77c.09-.82.18-1.68.27-2.57A117.08,117.08,0,0,0,216.11,787.77Z"/><path class="cls-19" d="M216.1,787.77c-.48-3-4.37-15.24-4.82-14.42-1.25.15-4.18,6.58-6.14,14.86-.59,2.51-1.09,5.17-1.45,7.88a133.85,133.85,0,0,0-1.05,15.07,92.12,92.12,0,0,0,1.67,19c0-.35,1.65.14,4,.38a10.36,10.36,0,0,0,6.75-1.23,94.41,94.41,0,0,0,1.58-9.71q.14-1.22.27-2.55A116.06,116.06,0,0,0,216.1,787.77Z"/><path class="cls-19" d="M216.1,787.77c-.49-3-4.34-15.06-4.79-14.21-1.24.16-4.13,6.54-6.08,14.75-.58,2.49-1.08,5.13-1.43,7.82a134.34,134.34,0,0,0-1.05,15A91.17,91.17,0,0,0,204.39,830c0-.35,1.65.13,4,.36a10.19,10.19,0,0,0,6.68-1.25,97.44,97.44,0,0,0,1.57-9.65c.09-.81.18-1.65.26-2.54A115.45,115.45,0,0,0,216.1,787.77Z"/><path class="cls-20" d="M216.09,787.77c-.48-3-4.29-14.89-4.75-14-1.22.19-4.09,6.51-6,14.65-.58,2.47-1.07,5.09-1.42,7.76a132.44,132.44,0,0,0-1,14.84,90.1,90.1,0,0,0,1.61,18.72c0-.35,1.64.13,4,.36a10,10,0,0,0,6.61-1.28,92.93,92.93,0,0,0,1.56-9.6c.09-.8.18-1.64.26-2.52A114.43,114.43,0,0,0,216.09,787.77Z"/><path class="cls-20" d="M216.09,787.77c-.49-3-4.26-14.72-4.72-13.8-1.21.2-4,6.48-6,14.54a77.94,77.94,0,0,0-1.4,7.7A133,133,0,0,0,203,810.94a89,89,0,0,0,1.59,18.57c0-.34,1.63.13,4,.35a9.8,9.8,0,0,0,6.54-1.31c.05-.33.89-3.89,1.54-9.53.1-.8.18-1.63.27-2.5A114.41,114.41,0,0,0,216.09,787.77Z"/><path class="cls-21" d="M216.08,787.77c-.48-3-4.21-14.55-4.68-13.59-1.2.22-4,6.44-5.89,14.43-.56,2.43-1,5-1.39,7.64a133.42,133.42,0,0,0-1,14.62,88.63,88.63,0,0,0,1.56,18.42c0-.34,1.62.13,4,.34a9.6,9.6,0,0,0,6.46-1.33c.06-.35.89-3.88,1.54-9.47.09-.8.18-1.63.26-2.49A113.4,113.4,0,0,0,216.08,787.77Z"/><path class="cls-22" d="M216.08,787.78c-.48-3-4.18-14.39-4.64-13.39-1.19.24-4,6.4-5.83,14.32-.56,2.41-1,5-1.38,7.58a129.21,129.21,0,0,0-1,14.5,87,87,0,0,0,1.53,18.28c0-.34,1.61.13,3.92.34a9.47,9.47,0,0,0,6.4-1.36c.06-.36.88-3.87,1.52-9.42.09-.78.18-1.61.26-2.47A112.71,112.71,0,0,0,216.08,787.78Z"/><path class="cls-23" d="M216.07,787.78c-.48-3-4.14-14.21-4.6-13.19-1.18.26-3.92,6.38-5.77,14.22-.55,2.39-1,4.94-1.36,7.52a132.18,132.18,0,0,0-1,14.39,86.56,86.56,0,0,0,1.5,18.13c0-.33,1.6.13,3.91.33a9.28,9.28,0,0,0,6.32-1.39c.06-.37.88-3.85,1.52-9.35.09-.78.17-1.6.26-2.46A112.22,112.22,0,0,0,216.07,787.78Z"/><path class="cls-24" d="M216.07,787.78c-.48-3-4.1-14-4.57-13-1.17.28-3.88,6.34-5.7,14.11-.55,2.38-1,4.9-1.36,7.46a132.7,132.7,0,0,0-1,14.27,86.21,86.21,0,0,0,1.47,18c0-.33,1.6.13,3.89.32a9.1,9.1,0,0,0,6.26-1.41c.06-.38.87-3.84,1.5-9.3.09-.77.18-1.59.26-2.44A111.61,111.61,0,0,0,216.07,787.78Z"/><path class="cls-25" d="M216.06,787.78c-.48-3-4.06-13.87-4.53-12.77-1.15.29-3.83,6.3-5.64,14-.54,2.36-1,4.86-1.34,7.4a133.34,133.34,0,0,0-1,14.16A85.16,85.16,0,0,0,205,828.41c0-.32,1.59.13,3.87.32a8.93,8.93,0,0,0,6.18-1.45c.07-.39.87-3.82,1.5-9.23.09-.77.17-1.58.25-2.42A110.66,110.66,0,0,0,216.06,787.78Z"/><path class="cls-26" d="M216.06,787.78c-.48-3-4-13.7-4.5-12.57-1.14.32-3.79,6.28-5.58,13.9-.53,2.34-1,4.82-1.32,7.34a131.38,131.38,0,0,0-1,14,84.15,84.15,0,0,0,1.42,17.7c.05-.32,1.58.13,3.86.31A8.78,8.78,0,0,0,215,827c.06-.4.86-3.81,1.48-9.17.09-.77.18-1.58.25-2.41A109.59,109.59,0,0,0,216.06,787.78Z"/><path class="cls-27" d="M216.05,787.78c-.47-3-4-13.53-4.46-12.36-1.13.33-3.76,6.23-5.51,13.79-.54,2.32-1,4.78-1.32,7.28a134.9,134.9,0,0,0-1,13.93A83.77,83.77,0,0,0,205.14,828c.06-.32,1.63-.21,3.84.31a7.45,7.45,0,0,0,6-1.5c.07-.42.86-3.81,1.47-9.12.09-.76.18-1.56.26-2.39A109.09,109.09,0,0,0,216.05,787.78Z"/><path class="cls-28" d="M216.05,787.78c-.48-3-3.94-13.36-4.42-12.15-1.13.35-3.73,6.2-5.46,13.68-.53,2.3-1,4.74-1.3,7.22a130.3,130.3,0,0,0-1,13.81,82.11,82.11,0,0,0,1.36,17.41c.06-.31,1.62-.22,3.82.3a7.3,7.3,0,0,0,6-1.53c.07-.42.85-3.79,1.46-9,.09-.76.17-1.55.25-2.38A108.49,108.49,0,0,0,216.05,787.78Z"/><path class="cls-29" d="M216,787.79c-.48-3-3.9-13.19-4.38-11.95-1.11.36-3.68,6.16-5.4,13.57-.52,2.28-1,4.7-1.28,7.16a131,131,0,0,0-1,13.7,81.73,81.73,0,0,0,1.33,17.26c.06-.31,1.62-.23,3.81.29a7.13,7.13,0,0,0,5.89-1.55c.07-.44.85-3.78,1.45-9,.09-.75.18-1.54.25-2.36A107.86,107.86,0,0,0,216,787.79Z"/><path class="cls-29" d="M216,787.79c-.48-3-3.87-13-4.35-11.75-1.1.39-3.64,6.13-5.33,13.47-.52,2.26-1,4.66-1.28,7.1a131.88,131.88,0,0,0-1,13.58,80.81,80.81,0,0,0,1.31,17.12c.06-.3,1.6-.24,3.78.29A7.06,7.06,0,0,0,215,826c.07-.45.84-3.77,1.44-8.94.08-.75.17-1.53.25-2.35A107.79,107.79,0,0,0,216,787.79Z"/><path class="cls-30" d="M216,787.79c-.48-3-3.82-12.85-4.31-11.54-1.09.4-3.6,6.1-5.27,13.36-.51,2.24-.95,4.63-1.26,7a129.86,129.86,0,0,0-1,13.47,80.45,80.45,0,0,0,1.28,17c.07-.3,1.6-.25,3.77.28a6.84,6.84,0,0,0,5.75-1.61c.08-.46.84-3.75,1.43-8.87.09-.75.17-1.52.25-2.33A106.84,106.84,0,0,0,216,787.79Z"/><path class="cls-30" d="M216,787.79c-.48-3-3.79-12.68-4.28-11.33-1.07.42-3.55,6.06-5.2,13.25-.51,2.23-.94,4.59-1.25,7a130.43,130.43,0,0,0-1,13.36,80.24,80.24,0,0,0,1.25,16.83c.08-.31,1.6-.27,3.76.26a6.71,6.71,0,0,0,5.68-1.63c.08-.47.83-3.74,1.42-8.82.08-.74.17-1.51.24-2.31A106.25,106.25,0,0,0,216,787.79Z"/><path class="cls-31" d="M216,787.79c-.47-3-3.74-12.51-4.23-11.12-1.07.43-3.52,6-5.15,13.14-.5,2.21-.93,4.55-1.24,6.92a128.65,128.65,0,0,0-1,13.24,78,78,0,0,0,1.22,16.69c.07-.3,1.58-.28,3.73.26a6.6,6.6,0,0,0,5.61-1.66c.08-.49.83-3.73,1.41-8.76.09-.73.17-1.5.25-2.3A105.75,105.75,0,0,0,216,787.79Z"/><path class="cls-32" d="M216,787.79c-.47-3-3.7-12.33-4.19-10.92-1.06.46-3.47,6-5.09,13-.49,2.19-.92,4.51-1.22,6.87a129,129,0,0,0-1,13.12,77.62,77.62,0,0,0,1.19,16.54c.08-.3,1.58-.29,3.72.25A6.47,6.47,0,0,0,215,825c.08-.49.82-3.71,1.4-8.69.08-.73.16-1.5.24-2.29A104.73,104.73,0,0,0,216,787.79Z"/><path class="cls-33" d="M216,787.79c-.47-3-3.67-12.16-4.16-10.71-1,.47-3.43,6-5,12.93-.49,2.17-.91,4.47-1.21,6.81a126.79,126.79,0,0,0-1,13,76.68,76.68,0,0,0,1.17,16.4c.08-.29,1.57-.3,3.7.24a6.31,6.31,0,0,0,5.46-1.71c.09-.51.82-3.71,1.39-8.64.08-.72.17-1.48.24-2.27A104.13,104.13,0,0,0,216,787.79Z"/><path class="cls-34" d="M216,787.8c-.47-3-3.62-12-4.12-10.51-1,.49-3.39,5.92-5,12.82-.49,2.15-.9,4.43-1.2,6.75a127.74,127.74,0,0,0-1,12.89A76.35,76.35,0,0,0,205.9,826c.09-.29,1.56-.31,3.68.24a6.2,6.2,0,0,0,5.4-1.74c.08-.52.81-3.7,1.37-8.58.09-.72.17-1.47.24-2.26A103,103,0,0,0,216,787.8Z"/><path class="cls-35" d="M216,787.8c-.47-3-3.59-11.83-4.09-10.3-1,.5-3.34,5.88-4.89,12.71-.49,2.13-.89,4.39-1.19,6.69-.48,4-.86,8.18-1,12.77A76.08,76.08,0,0,0,206,825.78c.1-.28,1.56-.32,3.67.23a6.05,6.05,0,0,0,5.32-1.77c.09-.53.81-3.68,1.37-8.52.08-.71.16-1.46.24-2.23A103,103,0,0,0,216,787.8Z"/><path class="cls-36" d="M216,787.8c-.47-3-3.54-11.66-4.05-10.1-1,.53-3.3,5.86-4.83,12.61-.48,2.11-.88,4.35-1.17,6.63a126.58,126.58,0,0,0-1,12.66,74.49,74.49,0,0,0,1.09,16c.09-.28,1.55-.33,3.65.23A5.94,5.94,0,0,0,215,824c.1-.54.81-3.67,1.36-8.46q.13-1.06.24-2.22A102,102,0,0,0,216,787.8Z"/><path class="cls-37" d="M216,787.8c-.47-3-3.51-11.48-4-9.89-1,.54-3.27,5.82-4.78,12.5-.47,2.1-.87,4.32-1.16,6.57-.47,3.91-.84,8-.94,12.54a73.6,73.6,0,0,0,1.05,15.82c.1-.28,1.54-.34,3.63.22a5.86,5.86,0,0,0,5.18-1.82c.09-.56.8-3.66,1.35-8.4.08-.71.16-1.45.23-2.21A101.43,101.43,0,0,0,216,787.8Z"/><path class="cls-38" d="M216,787.8c-.46-2.95-3.46-11.31-4-9.68-1,.56-3.22,5.78-4.71,12.39-.47,2.08-.86,4.28-1.15,6.51-.47,3.88-.84,8-.94,12.43a72.65,72.65,0,0,0,1,15.67c.11-.27,1.54-.35,3.62.21a5.69,5.69,0,0,0,5.1-1.85c.1-.56.8-3.64,1.34-8.34q.12-1,.24-2.19A100.94,100.94,0,0,0,216,787.8Z"/><path class="cls-39" d="M216,787.8c-.47-2.95-3.43-11.14-3.94-9.47-1,.57-3.18,5.75-4.65,12.28-.46,2.06-.85,4.24-1.13,6.45-.46,3.85-.83,7.91-.94,12.31a71.75,71.75,0,0,0,1,15.53c.11-.27,1.53-.36,3.6.21,1.41.38,3.4-.27,5-1.88.1-.58.79-3.63,1.33-8.28.08-.7.16-1.42.23-2.18A100.35,100.35,0,0,0,216,787.8Z"/><path class="cls-40" d="M216,787.8c-.46-2.94-3.39-11-3.9-9.27-1,.6-3.13,5.72-4.58,12.18-.46,2-.84,4.2-1.13,6.39-.45,3.82-.82,7.84-.93,12.2a71.46,71.46,0,0,0,1,15.38c.12-.26,1.52-.37,3.58.2,1.39.39,3.35-.28,5-1.9.1-.6.79-3.62,1.32-8.23.08-.69.16-1.41.23-2.15A99.4,99.4,0,0,0,216,787.8Z"/><path class="cls-41" d="M216,787.81c-.47-2.95-3.35-10.81-3.87-9.07-.95.61-3.09,5.68-4.52,12.07-.45,2-.83,4.16-1.11,6.33-.45,3.78-.82,7.77-.93,12.09a70.52,70.52,0,0,0,1,15.23c.11-.26,1.51-.38,3.56.19,1.36.39,3.3-.3,4.89-1.93.1-.6.77-3.61,1.3-8.16.08-.69.16-1.4.23-2.14A98.74,98.74,0,0,0,216,787.81Z"/><path class="cls-42" d="M216,787.81c-.46-2.94-3.31-10.63-3.83-8.86-.94.63-3,5.64-4.46,12-.44,2-.82,4.12-1.09,6.27-.45,3.75-.81,7.7-.92,12a69.68,69.68,0,0,0,.91,15.09c.12-.26,1.51-.39,3.55.19,1.33.38,3.25-.32,4.81-2,.11-.62.77-3.6,1.3-8.1.08-.68.16-1.39.23-2.13A98.25,98.25,0,0,0,216,787.81Z"/><path class="cls-43" d="M216,787.81c-.46-2.94-3.27-10.46-3.79-8.65-.93.64-3,5.61-4.4,11.85-.44,2-.81,4.08-1.09,6.21-.44,3.72-.8,7.63-.91,11.86a69.42,69.42,0,0,0,.88,14.94c.13-.25,1.5-.4,3.53.18,1.32.38,3.2-.33,4.75-2,.1-.63.76-3.59,1.28-8.05.08-.67.16-1.38.23-2.11A97.67,97.67,0,0,0,216,787.81Z"/><path class="cls-44" d="M216,787.81c-.46-2.94-3.23-10.29-3.75-8.45-.92.67-3,5.58-4.34,11.75-.43,2-.8,4-1.07,6.15-.44,3.69-.79,7.56-.91,11.74a68.1,68.1,0,0,0,.86,14.81c.13-.26,1.49-.42,3.51.16,1.29.38,3.15-.35,4.67-2,.11-.64.76-3.57,1.28-8,.08-.67.15-1.37.22-2.1A96.65,96.65,0,0,0,216,787.81Z"/><path class="cls-45" d="M216,787.81c-.46-2.93-3.19-10.12-3.72-8.24-.91.68-2.93,5.54-4.27,11.64-.43,1.95-.79,4-1.06,6.09-.44,3.65-.79,7.49-.91,11.63a67.84,67.84,0,0,0,.83,14.66c.13-.25,1.49-.43,3.5.16,1.26.37,3.09-.37,4.6-2,.11-.65.75-3.56,1.26-7.93.08-.66.16-1.36.23-2.08A96.11,96.11,0,0,0,216,787.81Z"/><path class="cls-46" d="M215.94,787.81c-.46-2.93-3.15-9.95-3.68-8-.89.7-2.88,5.51-4.21,11.53-.42,1.93-.78,4-1.05,6-.43,3.62-.78,7.42-.9,11.51a67.66,67.66,0,0,0,.8,14.52c.14-.25,1.48-.44,3.48.15,1.24.37,3.05-.39,4.53-2.06.12-.67.75-3.55,1.26-7.87.07-.66.15-1.35.22-2.06A95.17,95.17,0,0,0,215.94,787.81Z"/><path class="cls-47" d="M215.94,787.82c-.46-2.93-3.12-9.79-3.65-7.83-.88.71-2.84,5.47-4.15,11.42-.41,1.91-.77,3.93-1,6-.43,3.59-.77,7.35-.89,11.4a66.17,66.17,0,0,0,.77,14.37c.14-.24,1.47-.45,3.46.15,1.22.36,3-.41,4.46-2.1.11-.67.74-3.53,1.24-7.8.08-.66.15-1.34.22-2A94.51,94.51,0,0,0,215.94,787.82Z"/><path class="cls-48" d="M215.93,787.82c-.46-2.93-3.07-9.61-3.6-7.63-.88.74-2.8,5.44-4.09,11.32-.41,1.89-.76,3.89-1,5.91-.43,3.55-.77,7.28-.89,11.28a66,66,0,0,0,.74,14.23c.15-.24,1.46-.46,3.45.14,1.19.36,2.94-.43,4.38-2.12.12-.69.74-3.53,1.23-7.75.08-.65.16-1.33.22-2A93.5,93.5,0,0,0,215.93,787.82Z"/><path class="cls-49" d="M215.93,787.82c-.46-2.92-3-9.44-3.57-7.42-.86.75-2.76,5.4-4,11.21-.41,1.87-.75,3.85-1,5.85-.42,3.52-.75,7.21-.88,11.17a64.49,64.49,0,0,0,.72,14.08c.15-.24,1.45-.47,3.42.13,1.17.36,2.9-.44,4.32-2.14.12-.7.73-3.52,1.22-7.69.08-.65.15-1.32.22-2A93.44,93.44,0,0,0,215.93,787.82Z"/><path class="cls-50" d="M215.92,787.82c-.45-2.92-3-9.27-3.53-7.21-.85.77-2.72,5.37-4,11.1-.41,1.85-.74,3.81-1,5.79-.42,3.49-.75,7.14-.88,11a64.35,64.35,0,0,0,.69,13.94c.15-.23,1.45-.48,3.41.13,1.14.35,2.84-.46,4.24-2.18.12-.71.73-3.5,1.21-7.63.08-.64.15-1.3.22-2A92.43,92.43,0,0,0,215.92,787.82Z"/><path class="cls-51" d="M215.92,787.82c-.46-2.92-3-9.1-3.5-7-.84.79-2.67,5.33-3.9,11-.4,1.84-.73,3.77-1,5.73-.42,3.46-.75,7.07-.88,10.94a64.17,64.17,0,0,0,.66,13.79c.16-.23,1.44-.49,3.4.12,1.12.35,2.79-.48,4.17-2.2.12-.72.72-3.49,1.2-7.57.07-.64.15-1.3.21-2A91.86,91.86,0,0,0,215.92,787.82Z"/><path class="cls-52" d="M215.91,787.82c-.45-2.91-2.92-8.93-3.46-6.8-.83.81-2.63,5.3-3.84,10.89-.39,1.82-.72,3.73-1,5.67-.41,3.42-.73,7-.87,10.83a63.35,63.35,0,0,0,.64,13.64c.16-.22,1.43-.5,3.37.11,1.1.35,2.74-.49,4.1-2.22.13-.74.72-3.48,1.19-7.51.08-.64.15-1.29.22-2A91.45,91.45,0,0,0,215.91,787.82Z"/><path class="cls-53" d="M215.91,787.82c-.46-2.91-2.88-8.75-3.43-6.59-.81.83-2.58,5.27-3.77,10.78-.39,1.8-.71,3.69-1,5.61-.41,3.39-.73,6.94-.86,10.71a62.67,62.67,0,0,0,.6,13.5c.17-.22,1.42-.51,3.36.11,1.07.34,2.69-.52,4-2.26.12-.74.71-3.46,1.18-7.45.07-.62.14-1.28.21-2A90.88,90.88,0,0,0,215.91,787.82Z"/><path class="cls-54" d="M215.9,787.83c-.45-2.91-2.84-8.59-3.38-6.39-.81.84-2.55,5.23-3.72,10.67-.38,1.78-.7,3.66-.94,5.55-.41,3.36-.73,6.87-.86,10.6a61.83,61.83,0,0,0,.58,13.35c.16-.22,1.41-.52,3.34.1,1.05.34,2.63-.53,4-2.28.13-.76.71-3.45,1.17-7.39.07-.62.15-1.27.21-1.94A89.78,89.78,0,0,0,215.9,787.83Z"/><path class="cls-55" d="M215.9,787.83c-.45-2.91-2.8-8.42-3.35-6.18-.8.86-2.51,5.19-3.65,10.56-.38,1.76-.69,3.62-.94,5.49-.4,3.33-.71,6.8-.85,10.48a60.49,60.49,0,0,0,.55,13.21c.17-.21,1.41-.53,3.32.09,1,.34,2.59-.55,3.89-2.3.13-.77.7-3.44,1.16-7.34q.1-.92.21-1.92A89.74,89.74,0,0,0,215.9,787.83Z"/><path class="cls-56" d="M215.89,787.83c-.45-2.91-2.76-8.25-3.31-6-.78.88-2.46,5.17-3.59,10.46-.37,1.74-.68,3.58-.92,5.43-.4,3.29-.71,6.73-.85,10.37a60.36,60.36,0,0,0,.52,13.06c.18-.21,1.4-.54,3.31.09,1,.33,2.53-.57,3.81-2.34.13-.78.7-3.43,1.15-7.27.07-.61.14-1.25.21-1.91A88.73,88.73,0,0,0,215.89,787.83Z"/><path class="cls-57" d="M215.89,787.83c-.45-2.9-2.72-8.08-3.28-5.77-.77.9-2.42,5.13-3.53,10.35-.36,1.72-.67,3.54-.9,5.37-.39,3.26-.7,6.66-.85,10.25-.19,4.92-.18,9.57.5,12.92.18-.2,1.39-.56,3.29.08,1,.33,2.48-.59,3.74-2.36.13-.79.69-3.42,1.13-7.21q.12-.91.21-1.89A88.25,88.25,0,0,0,215.89,787.83Z"/><path class="cls-58" d="M215.88,787.83c-.45-2.9-2.68-7.9-3.24-5.56-.76.91-2.37,5.09-3.46,10.24-.36,1.71-.66,3.5-.9,5.31-.38,3.23-.69,6.59-.83,10.14-.2,4.89-.2,9.5.46,12.78.19-.21,1.38-.58,3.27.07,1,.32,2.44-.61,3.67-2.39.14-.81.69-3.41,1.13-7.16.07-.6.14-1.23.2-1.87A87.23,87.23,0,0,0,215.88,787.83Z"/><path class="cls-59" d="M215.88,787.83c-.45-2.89-2.65-7.73-3.21-5.35-.74.93-2.33,5-3.4,10.13-.35,1.69-.65,3.46-.88,5.25-.38,3.19-.69,6.52-.83,10-.21,4.87-.21,9.44.43,12.64.19-.21,1.31.46,3.26.06,1,.15,2.38-.62,3.6-2.42.13-.81.68-3.39,1.11-7.09q.1-.9.21-1.86A86.71,86.71,0,0,0,215.88,787.83Z"/><path class="cls-60" d="M215.87,787.83c-.44-2.89-2.6-7.56-3.16-5.15-.74,1-2.3,5-3.34,10-.35,1.67-.65,3.42-.87,5.19-.38,3.16-.68,6.45-.83,9.91-.21,4.84-.22,9.36.41,12.49.19-.2,1.3.46,3.24.05.94.15,2.33-.64,3.52-2.44.14-.83.68-3.38,1.11-7,.07-.59.14-1.2.2-1.84A85.7,85.7,0,0,0,215.87,787.83Z"/><path class="cls-61" d="M215.87,787.84c-.45-2.89-2.57-7.4-3.13-5-.73,1-2.25,5-3.28,9.92-.34,1.65-.63,3.38-.86,5.13-.37,3.13-.67,6.38-.82,9.79-.21,4.82-.23,9.3.38,12.35.2-.2,1.29.47,3.22,0,.93.14,2.28-.66,3.46-2.47.14-.85.67-3.37,1.09-7,.07-.59.14-1.2.2-1.83A85.06,85.06,0,0,0,215.87,787.84Z"/><path class="cls-62" d="M215.86,787.84c-.44-2.89-2.52-7.23-3.09-4.74-.71,1-2.21,4.95-3.22,9.81-.33,1.63-.62,3.34-.84,5.08-.37,3.09-.67,6.3-.82,9.67-.21,4.79-.24,9.23.36,12.2.2-.19,1.28.47,3.2,0,.9.14,2.23-.68,3.38-2.5.14-.85.67-3.35,1.09-6.91.07-.59.13-1.19.2-1.82A84.58,84.58,0,0,0,215.86,787.84Z"/><path class="cls-63" d="M215.86,787.84c-.45-2.89-2.49-7.06-3.06-4.54-.7,1-2.16,4.93-3.15,9.71-.33,1.61-.61,3.31-.83,5-.37,3.05-.66,6.23-.82,9.56-.21,4.76-.25,9.16.33,12,.21-.19,1.27.48,3.18,0,.88.14,2.18-.69,3.32-2.52.14-.87.66-3.35,1.07-6.86.07-.58.14-1.17.2-1.79A84.11,84.11,0,0,0,215.86,787.84Z"/><path class="cls-64" d="M215.85,787.84c-.44-2.88-2.44-6.88-3-4.33-.69,1-2.12,4.89-3.09,9.6-.32,1.6-.6,3.27-.82,5-.36,3-.65,6.16-.8,9.44-.23,4.74-.27,9.1.29,11.91.21-.18,1.27.48,3.17,0,.85.13,2.13-.72,3.24-2.55.15-.88.65-3.34,1.06-6.8.07-.57.14-1.17.2-1.78A83.1,83.1,0,0,0,215.85,787.84Z"/><path class="cls-65" d="M215.85,787.84c-.44-2.88-2.41-6.71-3-4.12-.69,1-2.08,4.85-3,9.49-.33,1.58-.6,3.23-.81,4.9-.36,3-.65,6.09-.8,9.33-.23,4.71-.28,9,.27,11.76.21-.18,1.26.49,3.15,0,.83.13,2.08-.73,3.17-2.58.15-.89.64-3.32,1.05-6.74.07-.56.13-1.15.19-1.76A82.56,82.56,0,0,0,215.85,787.84Z"/><path class="cls-66" d="M215.84,787.84c-.44-2.87-1.92-6.4-2.94-3.91a50.3,50.3,0,0,0-3,9.38c-.32,1.56-.58,3.19-.79,4.84-.36,3-.64,6-.8,9.21-.23,4.69-.29,9,.24,11.62.22-.18,1.25.49,3.13,0,.81.13,2-.75,3.1-2.6.15-.9.64-3.31,1-6.68.07-.56.14-1.15.2-1.75A82.07,82.07,0,0,0,215.84,787.84Z"/><path class="cls-67" d="M215.84,787.84c-.44-2.87-1.89-6.23-2.91-3.71a51.54,51.54,0,0,0-2.91,9.28c-.31,1.54-.57,3.15-.78,4.78-.35,2.92-.63,6-.79,9.1-.23,4.66-.3,8.9.22,11.47.22-.17,1.24.5,3.11,0,.78.12,2-.77,3-2.63.15-.92.63-3.3,1-6.62.06-.56.13-1.14.19-1.74A81.53,81.53,0,0,0,215.84,787.84Z"/><path class="cls-68" d="M215.83,787.85c-.44-2.88-1.86-6.08-2.87-3.51a52.64,52.64,0,0,0-2.84,9.17c-.31,1.52-.56,3.11-.77,4.72-.35,2.89-.63,5.89-.79,9-.24,4.64-.31,8.84.19,11.33.22-.17,1.24.5,3.1,0,.76.12,1.92-.78,3-2.66.16-.92.63-3.28,1-6.56.07-.55.13-1.12.19-1.72A80,80,0,0,0,215.83,787.85Z"/><path class="cls-68" d="M215.83,787.85c-.44-2.87-1.84-5.91-2.84-3.3a53.56,53.56,0,0,0-2.78,9.06c-.3,1.5-.55,3.07-.75,4.66-.35,2.86-.62,5.82-.78,8.87-.25,4.61-.33,8.76.15,11.18.23-.16,1.23.51,3.08,0,.74.11,1.88-.81,2.89-2.69.15-.94.62-3.27,1-6.5.06-.55.13-1.12.19-1.7A80,80,0,0,0,215.83,787.85Z"/><path class="cls-69" d="M215.82,787.85c-.43-2.87-1.81-5.74-2.8-3.09a54.17,54.17,0,0,0-2.71,9c-.3,1.48-.55,3-.75,4.6-.34,2.83-.61,5.75-.77,8.75-.25,4.59-.34,8.7.13,11,.23-.16,1.22.51,3.06,0,.71.11,1.82-.82,2.81-2.71.16-1,.62-3.26,1-6.45.07-.54.13-1.1.19-1.68A78.53,78.53,0,0,0,215.82,787.85Z"/><path class="cls-70" d="M215.82,787.85c-.44-2.86-1.78-5.58-2.76-2.89a54.41,54.41,0,0,0-2.66,8.85c-.29,1.47-.53,3-.73,4.54-.34,2.79-.61,5.68-.77,8.64-.25,4.56-.35,8.63.1,10.89.24-.16,1.21.52,3.05,0,.69.11,1.77-.84,2.73-2.74.17-1,.62-3.25,1-6.38.07-.54.13-1.1.19-1.67A78,78,0,0,0,215.82,787.85Z"/><path class="cls-71" d="M215.81,787.85c-.43-2.86-1.75-5.41-2.72-2.68a56.62,56.62,0,0,0-2.6,8.74c-.28,1.45-.52,3-.71,4.48-.34,2.76-.6,5.61-.77,8.52-.26,4.54-.36,8.57.07,10.76.25-.16,1.21.51,3,0,.67.1,1.72-.86,2.67-2.77.16-1,.61-3.24,1-6.32.06-.54.13-1.09.18-1.66A77,77,0,0,0,215.81,787.85Z"/><path class="cls-72" d="M215.8,787.85c-.43-2.85-1.72-5.24-2.68-2.47a57.61,57.61,0,0,0-2.53,8.64c-.28,1.42-.51,2.91-.71,4.41-.33,2.73-.59,5.54-.76,8.41-.26,4.51-.37,8.5,0,10.61.24-.16,1.2.52,3,0,.64.1,1.67-.88,2.59-2.79.17-1,.61-3.23,1-6.27.07-.53.13-1.07.19-1.64A76.51,76.51,0,0,0,215.8,787.85Z"/><path class="cls-72" d="M215.8,787.85c-.43-2.85-1.7-5.08-2.65-2.26a57.64,57.64,0,0,0-2.47,8.53c-.27,1.4-.5,2.87-.69,4.35-.33,2.69-.59,5.47-.76,8.3-.26,4.48-.39,8.43,0,10.46.25-.15,1.19.52,3-.05.61.1,1.62-.89,2.52-2.82.17-1,.6-3.21,1-6.2.06-.52.12-1.07.18-1.62A76.06,76.06,0,0,0,215.8,787.85Z"/><path class="cls-73" d="M215.79,787.86c-.42-2.86-1.66-4.92-2.61-2.07a60,60,0,0,0-2.4,8.43c-.27,1.38-.5,2.83-.68,4.29-.32,2.66-.58,5.4-.75,8.18-.28,4.46-.41,8.37,0,10.32.25-.15,1.18.53,3,0,.6.09,1.57-.91,2.45-2.85.17-1,.6-3.2,1-6.15.06-.51.13-1.05.18-1.6A75,75,0,0,0,215.79,787.86Z"/><path class="cls-74" d="M215.79,787.86c-.43-2.85-1.64-4.75-2.58-1.86a62,62,0,0,0-2.34,8.32c-.26,1.36-.48,2.79-.67,4.23-.31,2.63-.57,5.33-.74,8.07-.28,4.42-.42,8.3,0,10.17.26-.14,1.17.54,3-.06.57.09,1.52-.93,2.38-2.87.17-1,.59-3.19.94-6.09q.09-.76.18-1.59A75,75,0,0,0,215.79,787.86Z"/><path class="cls-75" d="M215.78,787.86c-.42-2.85-1.61-4.59-2.53-1.65a63.3,63.3,0,0,0-2.29,8.21c-.25,1.34-.47,2.75-.65,4.17-.31,2.6-.57,5.26-.74,7.95-.28,4.4-.43,8.23-.07,10,.27-.14,1.17.54,2.95-.07.54.09,1.46-.94,2.3-2.9.18-1,.59-3.17.93-6,.06-.51.12-1,.18-1.58A74,74,0,0,0,215.78,787.86Z"/><path class="cls-76" d="M215.78,787.86c-.43-2.84-1.59-4.42-2.5-1.44a63.84,63.84,0,0,0-2.22,8.1c-.25,1.33-.46,2.71-.64,4.11-.31,2.56-.57,5.19-.74,7.84-.28,4.37-.44,8.16-.09,9.88.26-.14,1.16.55,2.92-.07.53.08,1.42-1,2.24-2.93.17-1,.58-3.16.92-6,.06-.5.12-1,.17-1.56A73.47,73.47,0,0,0,215.78,787.86Z"/><path class="cls-77" d="M215.77,787.86c-.42-2.84-1.56-4.25-2.46-1.24a67.15,67.15,0,0,0-2.16,8c-.24,1.31-.45,2.68-.62,4-.31,2.53-.56,5.12-.74,7.72-.29,4.35-.45,8.1-.12,9.74.27-.13,1.15.55,2.91-.08.5.08,1.36-1,2.16-2.95.18-1.06.58-3.16.91-5.91.06-.5.12-1,.18-1.55A72.5,72.5,0,0,0,215.77,787.86Z"/><path class="cls-78" d="M215.77,787.86c-.42-2.84-1.54-4.08-2.43-1a68.35,68.35,0,0,0-2.09,7.89c-.24,1.29-.45,2.64-.62,4-.3,2.5-.55,5.06-.72,7.61-.3,4.32-.47,8-.16,9.59.28-.13,1.15.56,2.9-.08.47.07,1.31-1,2.09-3,.18-1.06.57-3.14.89-5.84l.18-1.53A72.07,72.07,0,0,0,215.77,787.86Z"/><path class="cls-79" d="M215.76,787.87c-.42-2.84-1.51-3.93-2.39-.83a73.06,73.06,0,0,0-2,7.78c-.23,1.27-.43,2.6-.6,3.93-.3,2.47-.55,5-.72,7.49-.3,4.3-.48,8-.18,9.45a5,5,0,0,0,2.87-.09c.45.07,1.27-1,2-3,.18-1.08.57-3.13.89-5.79.06-.49.12-1,.17-1.51A71,71,0,0,0,215.76,787.87Z"/><path class="cls-80" d="M215.76,787.87c-.42-2.84-1.49-3.76-2.35-.62a70.19,70.19,0,0,0-2,7.67c-.22,1.25-.42,2.56-.58,3.87-.3,2.43-.54,4.92-.72,7.38-.31,4.27-.49,7.9-.21,9.3.28-.12,1.13.57,2.86-.1.43.07,1.21-1,1.95-3,.18-1.09.56-3.11.87-5.72.06-.49.12-1,.17-1.5A70.5,70.5,0,0,0,215.76,787.87Z"/><path class="cls-81" d="M215.75,787.87c-.42-2.83-1.46-3.59-2.31-.42a72.45,72.45,0,0,0-1.91,7.57c-.22,1.23-.41,2.52-.58,3.81-.29,2.4-.53,4.85-.71,7.26-.31,4.25-.5,7.84-.23,9.16.28-.12,1.12.57,2.84-.1.4.06,1.16-1.06,1.87-3.07.19-1.1.56-3.1.87-5.67.06-.48.11-1,.17-1.48A70,70,0,0,0,215.75,787.87Z"/><path class="cls-82" d="M215.75,787.87c-.42-2.83-1.43-3.42-2.28-.21-.37,1.4-1.27,4.2-1.85,7.46-.21,1.21-.4,2.48-.56,3.75-.29,2.37-.53,4.78-.71,7.15-.31,4.22-.51,7.77-.26,9a4.45,4.45,0,0,0,2.82-.11c.38.06,1.11-1.07,1.81-3.09.19-1.12.55-3.09.85-5.61.06-.48.12-1,.17-1.47A69.53,69.53,0,0,0,215.75,787.87Z"/><path class="cls-83" d="M215.74,787.87c-.41-2.83-1.4-3.26-2.24,0-.36,1.42-1.23,4.16-1.78,7.35-.22,1.2-.4,2.44-.55,3.69-.29,2.33-.53,4.71-.71,7-.32,4.19-.52,7.69-.29,8.86a4.39,4.39,0,0,0,2.81-.12c.36.06,1.06-1.09,1.73-3.12.19-1.12.55-3.07.85-5.54.05-.47.11-1,.16-1.46A68.55,68.55,0,0,0,215.74,787.87Z"/><path class="cls-84" d="M215.74,787.87c-.42-2.82-1.38-3.09-2.21.21-.36,1.43-1.18,4.13-1.72,7.24-.21,1.18-.38,2.4-.54,3.63-.28,2.3-.51,4.64-.69,6.92a54.19,54.19,0,0,0-.32,8.73,4.29,4.29,0,0,0,2.79-.13c.33,0,1-1.11,1.66-3.15.19-1.14.54-3.07.83-5.49.06-.46.11-.94.17-1.43A68.67,68.67,0,0,0,215.74,787.87Z"/><path class="cls-85" d="M215.73,787.87c-.41-2.82-1.35-2.92-2.17.41-.35,1.45-1.14,4.1-1.66,7.14-.2,1.16-.37,2.36-.52,3.57-.28,2.27-.51,4.57-.69,6.81a55.21,55.21,0,0,0-.35,8.58,4.2,4.2,0,0,0,2.77-.14c.31,0,1-1.13,1.59-3.17.2-1.15.54-3.06.82-5.43.06-.46.12-.94.17-1.42A66.68,66.68,0,0,0,215.73,787.87Z"/><path class="cls-86" d="M215.73,787.88c-.41-2.82-1.33-2.76-2.13.61-.35,1.47-1.1,4.06-1.6,7-.2,1.14-.36,2.33-.51,3.51-.28,2.24-.51,4.5-.69,6.69a56.13,56.13,0,0,0-.37,8.44c.3-.11,1.08.59,2.75-.15.28,0,.9-1.14,1.52-3.2.19-1.16.52-3,.81-5.37.05-.45.11-.92.16-1.4A66.12,66.12,0,0,0,215.73,787.88Z"/><path class="cls-87" d="M215.72,787.88c-.4-2.82-1.3-2.59-2.09.82-.34,1.48-1.06,4-1.54,6.92-.19,1.12-.35,2.29-.5,3.45-.27,2.2-.5,4.43-.68,6.58a57.76,57.76,0,0,0-.4,8.29,3.94,3.94,0,0,0,2.74-.15c.26,0,.85-1.17,1.44-3.23.2-1.17.52-3,.8-5.31.06-.45.11-.91.16-1.39A65.15,65.15,0,0,0,215.72,787.88Z"/><path class="cls-88" d="M215.72,787.88c-.41-2.82-1.28-2.42-2.06,1-.34,1.49-1,4-1.47,6.81-.19,1.1-.35,2.25-.49,3.39-.27,2.17-.49,4.36-.68,6.46a61.88,61.88,0,0,0-.43,8.15c.32-.1,1.07.6,2.72-.16.24,0,.81-1.18,1.38-3.25.2-1.19.51-3,.79-5.25.05-.45.11-.91.16-1.38A65.18,65.18,0,0,0,215.72,787.88Z"/><path class="cls-89" d="M215.71,787.88c-.4-2.81-1.25-2.26-2,1.23-.33,1.51-1,4-1.41,6.71-.18,1.09-.33,2.21-.47,3.33-.27,2.14-.49,4.29-.67,6.35a62.79,62.79,0,0,0-.46,8,3.68,3.68,0,0,0,2.7-.16c.21,0,.75-1.21,1.3-3.29.2-1.19.51-3,.78-5.19.06-.44.11-.89.16-1.35A64.29,64.29,0,0,0,215.71,787.88Z"/><path class="cls-90" d="M215.71,787.88c-.41-2.81-1.23-2.09-2,1.44-.32,1.53-.92,3.93-1.35,6.6-.17,1.07-.32,2.17-.46,3.28-.26,2.1-.48,4.21-.66,6.22a66.64,66.64,0,0,0-.49,7.86,3.58,3.58,0,0,0,2.69-.17c.19,0,.7-1.22,1.23-3.31.2-1.21.5-3,.77-5.13l.15-1.34A63.82,63.82,0,0,0,215.71,787.88Z"/><path class="cls-91" d="M215.7,787.88c-.4-2.8-1.2-1.92-1.95,1.65-.32,1.54-.88,3.89-1.28,6.49-.17,1.05-.32,2.13-.45,3.22-.25,2.06-.48,4.14-.66,6.11a74.41,74.41,0,0,0-.52,7.71,3.46,3.46,0,0,0,2.67-.18c.17,0,.65-1.23,1.16-3.33.21-1.22.5-3,.76-5.08,0-.43.11-.87.16-1.32A63.37,63.37,0,0,0,215.7,787.88Z"/><path class="cls-92" d="M215.7,787.88c-.4-2.8-1.18-1.75-1.91,1.86-.32,1.55-.84,3.85-1.23,6.38-.16,1-.3,2.09-.43,3.16-.25,2-.47,4.07-.66,6a73.48,73.48,0,0,0-.54,7.57,3.35,3.35,0,0,0,2.65-.18c.14,0,.6-1.26,1.09-3.37.2-1.23.49-3,.74-5,.06-.43.11-.86.16-1.31A62.92,62.92,0,0,0,215.7,787.88Z"/><path class="cls-93" d="M215.69,787.89c-.4-2.8-1.15-1.59-1.87,2.05-.31,1.58-.8,3.83-1.16,6.28-.16,1-.3,2-.43,3.1-.24,2-.46,4-.65,5.88-.38,3.94-.65,7-.57,7.42a3.31,3.31,0,0,0,2.64-.19,12.48,12.48,0,0,0,1-3.39c.21-1.24.49-3,.74-4.95l.15-1.3A61.88,61.88,0,0,0,215.69,787.89Z"/><path class="cls-94" d="M215.69,787.89c-.4-2.8-1.13-1.42-1.84,2.26-.31,1.59-.75,3.79-1.1,6.17-.15,1-.28,2-.41,3-.24,2-.46,3.94-.65,5.77-.39,3.91-.66,7-.59,7.27a3.13,3.13,0,0,0,2.61-.2,14,14,0,0,0,.95-3.41c.21-1.26.48-2.95.72-4.9.06-.41.11-.84.15-1.28A61.44,61.44,0,0,0,215.69,787.89Z"/><path class="cls-95" d="M215.68,787.89c-.4-2.8-1.1-1.25-1.8,2.47-.3,1.61-.7,3.75-1,6.06-.14,1-.27,2-.39,3-.24,1.93-.46,3.87-.64,5.65-.41,3.89-.68,6.9-.63,7.13a3.11,3.11,0,0,0,2.6-.2,18,18,0,0,0,.87-3.45c.21-1.26.48-2.93.72-4.83l.15-1.26A61.09,61.09,0,0,0,215.68,787.89Z"/><path class="cls-96" d="M215.68,787.89c-.4-2.79-1.08-1.08-1.77,2.68-.29,1.62-.66,3.72-1,5.95-.14,1-.27,1.94-.39,2.92-.23,1.9-.45,3.8-.63,5.54-.41,3.86-.69,6.83-.66,7a3,3,0,0,0,2.59-.21,27.29,27.29,0,0,0,.8-3.47c.21-1.28.47-2.92.7-4.78.05-.4.1-.82.15-1.24A60.65,60.65,0,0,0,215.68,787.89Z"/><path class="cls-97" d="M215.67,787.89c-.39-2.79-1-.91-1.72,2.88-.3,1.64-.62,3.69-.92,5.85-.13.94-.25,1.9-.37,2.86-.23,1.87-.45,3.73-.63,5.42-.42,3.84-.7,6.77-.68,6.84a2.87,2.87,0,0,0,2.56-.22,33.56,33.56,0,0,0,.73-3.49c.22-1.29.47-2.91.7-4.72,0-.4.1-.81.14-1.23A59.7,59.7,0,0,0,215.67,787.89Z"/><path class="cls-98" d="M214,811.3s.75-3.51,1.34-8.18a62.11,62.11,0,0,0,.35-15.23c-.57-4-1.63,1.92-2.54,8.83s-1.7,14.81-1.7,14.81A2.9,2.9,0,0,0,214,811.3Z"/></g><g id="Pink_Detail" data-name="Pink Detail"><ellipse class="cls-99" cx="210.77" cy="819.61" rx="0.58" ry="0.71"/><ellipse class="cls-99" cx="215.41" cy="823.96" rx="0.58" ry="0.52"/><ellipse class="cls-99" cx="210.49" cy="825.34" rx="0.58" ry="0.52"/><ellipse class="cls-99" cx="211.47" cy="798.51" rx="0.58" ry="0.52"/><ellipse class="cls-99" cx="214.95" cy="799.21" rx="0.58" ry="0.52"/><ellipse class="cls-99" cx="215.76" cy="798.04" rx="0.39" ry="0.32"/><ellipse class="cls-99" cx="214.83" cy="800.99" rx="0.39" ry="0.32"/><ellipse class="cls-99" cx="214.02" cy="803.05" rx="0.58" ry="0.52"/><ellipse class="cls-99" cx="207.63" cy="809.11" rx="0.58" ry="0.52"/><ellipse class="cls-99" cx="204.74" cy="802" rx="0.58" ry="0.52"/><ellipse class="cls-99" cx="205.2" cy="803.91" rx="0.58" ry="0.52"/><ellipse class="cls-99" cx="206.94" cy="801.91" rx="0.58" ry="0.52"/><ellipse class="cls-99" cx="208.39" cy="804.46" rx="0.39" ry="0.32"/><ellipse class="cls-99" cx="202.17" cy="810.66" rx="0.58" ry="0.52"/><ellipse class="cls-99" cx="203.35" cy="817.49" rx="0.58" ry="0.52"/><ellipse class="cls-99" cx="208.45" cy="806.54" rx="0.58" ry="0.52"/><ellipse class="cls-99" cx="212.63" cy="817.22" rx="0.58" ry="0.52"/><ellipse class="cls-99" cx="203.35" cy="794.13" rx="0.58" ry="0.52"/><ellipse class="cls-99" cx="207.99" cy="786.68" rx="0.58" ry="0.52"/><ellipse class="cls-99" cx="208.39" cy="800.66" rx="0.39" ry="0.32"/><ellipse class="cls-99" cx="205.28" cy="798.12" rx="0.39" ry="0.32"/><ellipse class="cls-99" cx="202.17" cy="802.2" rx="0.39" ry="0.32"/><ellipse class="cls-99" cx="202.17" cy="794.07" rx="0.39" ry="0.32"/><ellipse class="cls-99" cx="206.42" cy="791.6" rx="0.58" ry="0.52"/><ellipse class="cls-99" cx="206.26" cy="790.01" rx="0.58" ry="0.52"/><ellipse class="cls-99" cx="212.34" cy="802.77" rx="0.39" ry="0.32"/><ellipse class="cls-99" cx="214.48" cy="809.52" rx="0.58" ry="0.52"/><ellipse class="cls-99" cx="214.52" cy="796.77" rx="0.39" ry="0.32"/><ellipse class="cls-99" cx="208.7" cy="787.73" rx="0.39" ry="0.32"/><ellipse class="cls-99" cx="210.87" cy="782.66" rx="0.39" ry="0.32"/><ellipse class="cls-99" cx="203.42" cy="790.27" rx="0.39" ry="0.32"/><ellipse class="cls-99" cx="212.11" cy="795.08" rx="0.39" ry="0.32"/><ellipse class="cls-99" cx="215.84" cy="790.01" rx="0.39" ry="0.32"/><ellipse class="cls-99" cx="203.11" cy="781.39" rx="0.39" ry="0.32"/><ellipse class="cls-99" cx="207.77" cy="773.28" rx="0.39" ry="0.32"/></g></svg>