<svg xmlns="http://www.w3.org/2000/svg" viewBox="0 0 432 846"><defs><style>.cls-1{fill:#001600;}.cls-2{fill:#001700;}.cls-3{fill:#001800;}.cls-4{fill:#001900;}.cls-5{fill:#001a00;}.cls-6{fill:#001b00;}.cls-7{fill:#001c00;}.cls-8{fill:#001d00;}.cls-9{fill:#001e00;}.cls-10{fill:#001f00;}.cls-11{fill:#002000;}.cls-12{fill:#002100;}.cls-13{fill:#020;}.cls-14{fill:#002300;}.cls-15{fill:#002400;}.cls-16{fill:#002500;}.cls-17{fill:#002501;}.cls-18{fill:#002601;}.cls-19{fill:#002702;}.cls-20{fill:#002803;}.cls-21{fill:#002904;}.cls-22{fill:#002905;}.cls-23{fill:#002a05;}.cls-24{fill:#002a06;}.cls-25{fill:#002b06;}.cls-26{fill:#002b07;}.cls-27{fill:#002c07;}.cls-28{fill:#002c08;}.cls-29{fill:#002d09;}.cls-30{fill:#002e0a;}.cls-31{fill:#002f0b;}.cls-32{fill:#002f0c;}.cls-33{fill:#00300c;}.cls-34{fill:#00300d;}.cls-35{fill:#00310d;}.cls-36{fill:#00310e;}.cls-37{fill:#00320e;}.cls-38{fill:#01320f;}.cls-39{fill:#02330f;}.cls-40{fill:#033310;}.cls-41{fill:#053410;}.cls-42{fill:#063410;}.cls-43{fill:#073411;}.cls-44{fill:#093511;}.cls-45{fill:#0a3512;}.cls-46{fill:#0b3612;}.cls-47{fill:#0d3612;}.cls-48{fill:#0e3713;}.cls-49{fill:#0f3713;}.cls-50{fill:#103714;}.cls-51{fill:#113814;}.cls-52{fill:#123814;}.cls-53{fill:#133915;}.cls-54{fill:#143915;}.cls-55{fill:#153a15;}.cls-56{fill:#163a16;}.cls-57{fill:#173a16;}.cls-58{fill:#183b16;}.cls-59{fill:#193b17;}.cls-60{fill:#1a3c17;}.cls-61{fill:#1b3c17;}.cls-62{fill:#1c3c18;}.cls-63{fill:#1c3d18;}.cls-64{fill:#1d3d18;}.cls-65{fill:#1e3e19;}.cls-66{fill:#1f3e19;}.cls-67{fill:#203e19;}.cls-68{fill:#213f1a;}.cls-69{fill:#223f1a;}.cls-70{fill:#23401a;}.cls-71{fill:#24401b;}.cls-72{fill:#25411b;}.cls-73{fill:#26411c;}.cls-74{fill:#27421c;}.cls-75{fill:#28421c;}.cls-76{fill:#28421d;}.cls-77{fill:#29431d;}.cls-78{fill:#2a431d;}.cls-79{fill:#2b441d;}.cls-80{fill:#2b441e;}.cls-81{fill:#2c441e;}.cls-82{fill:#2d451e;}.cls-83{fill:#2e451e;}.cls-84{fill:#2e451f;}.cls-85{fill:#2f461f;}.cls-86{fill:#30461f;}.cls-87{fill:#31461f;}.cls-88{fill:#314720;}.cls-89{fill:#324720;}.cls-90{fill:#334820;}.cls-91{fill:#344820;}.cls-92{fill:#344821;}.cls-93{fill:#354921;}.cls-94{fill:#364921;}.cls-95{fill:#374921;}.cls-96{fill:#374a22;}.cls-97{fill:#384a22;}.cls-98{fill:#394a22;}.cls-99{fill:#231f20;}</style></defs><g id="Green_Leaf" data-name="Green Leaf"><path class="cls-1" d="M210.08,801.34a1.53,1.53,0,0,0-1.92,0,28.16,28.16,0,0,0-7.67,18.95c0,12.49,0,15.9,0,15.9a41.2,41.2,0,0,0,16.8,0v-15.9A28.36,28.36,0,0,0,210.08,801.34Z"/><path class="cls-1" d="M210.08,801.34a1.53,1.53,0,0,0-1.92,0,28.08,28.08,0,0,0-7.64,18.86V836a40.88,40.88,0,0,0,16.69,0s0-3.39,0-15.83A28.29,28.29,0,0,0,210.08,801.34Z"/><path class="cls-2" d="M210.07,801.34a1.51,1.51,0,0,0-1.9,0,27.89,27.89,0,0,0-7.62,18.78c0,12.38,0,15.75,0,15.75a40.46,40.46,0,0,0,16.56,0s0-3.37,0-15.75A28.1,28.1,0,0,0,210.07,801.34Z"/><path class="cls-3" d="M210.07,801.34a1.51,1.51,0,0,0-1.9,0A27.73,27.73,0,0,0,200.58,820c0,12.32,0,15.68,0,15.68a40.34,40.34,0,0,0,16.45,0s.06-3.36.06-15.68A28,28,0,0,0,210.07,801.34Z"/><path class="cls-4" d="M210.06,801.34a1.49,1.49,0,0,0-1.89,0,27.65,27.65,0,0,0-7.56,18.6c0,12.27.07,15.61.07,15.61a40,40,0,0,0,16.33,0s.08-3.34.08-15.61A27.88,27.88,0,0,0,210.06,801.34Z"/><path class="cls-5" d="M210.06,801.33a1.5,1.5,0,0,0-1.88,0,27.53,27.53,0,0,0-7.54,18.52c0,12.21.1,15.54.1,15.54a39.6,39.6,0,0,0,16.21,0s.09-3.33.09-15.54A27.82,27.82,0,0,0,210.06,801.33Z"/><path class="cls-5" d="M210.05,801.33a1.49,1.49,0,0,0-1.87,0,27.43,27.43,0,0,0-7.51,18.44c0,12.15.12,15.46.12,15.46a39.22,39.22,0,0,0,16.09,0s.12-3.31.12-15.46A27.67,27.67,0,0,0,210.05,801.33Z"/><path class="cls-6" d="M210.05,801.33a1.49,1.49,0,0,0-1.87,0,27.28,27.28,0,0,0-7.48,18.35c0,12.09.14,15.39.14,15.39a39.06,39.06,0,0,0,16,0s.14-3.3.14-15.39A27.53,27.53,0,0,0,210.05,801.33Z"/><path class="cls-7" d="M210,801.33a1.46,1.46,0,0,0-1.85,0,27.1,27.1,0,0,0-7.45,18.26c0,12,.16,15.32.16,15.32a38.68,38.68,0,0,0,15.85,0s.16-3.28.16-15.32A27.4,27.4,0,0,0,210,801.33Z"/><path class="cls-7" d="M210,801.33a1.45,1.45,0,0,0-1.84,0,27,27,0,0,0-7.42,18.17c0,12,.18,15.25.18,15.25a38.31,38.31,0,0,0,15.73,0s.18-3.27.18-15.25A27.23,27.23,0,0,0,210,801.33Z"/><path class="cls-8" d="M210,801.33a1.45,1.45,0,0,0-1.84,0,26.88,26.88,0,0,0-7.39,18.09c0,11.92.2,15.17.2,15.17a38,38,0,0,0,15.62,0s.2-3.25.2-15.17A27.14,27.14,0,0,0,210,801.33Z"/><path class="cls-9" d="M210,801.33a1.42,1.42,0,0,0-1.82,0,26.68,26.68,0,0,0-7.37,18c0,11.87.23,15.1.23,15.1a37.77,37.77,0,0,0,15.49,0s.22-3.23.22-15.1A26.94,26.94,0,0,0,210,801.33Z"/><path class="cls-10" d="M210,801.32a1.45,1.45,0,0,0-1.82,0,26.65,26.65,0,0,0-7.34,17.92c0,11.81.25,15,.25,15a37.45,37.45,0,0,0,15.38,0s.23-3.22.23-15A26.93,26.93,0,0,0,210,801.32Z"/><path class="cls-10" d="M210,801.32a1.43,1.43,0,0,0-1.81,0,26.52,26.52,0,0,0-7.31,17.83c0,11.76.27,15,.27,15a37.09,37.09,0,0,0,15.26,0s.26-3.2.26-15A26.75,26.75,0,0,0,210,801.32Z"/><path class="cls-11" d="M210,801.32a1.42,1.42,0,0,0-1.8,0,26.32,26.32,0,0,0-7.29,17.74c0,11.7.3,14.89.3,14.89a36.71,36.71,0,0,0,15.14,0s.27-3.19.27-14.89A26.66,26.66,0,0,0,210,801.32Z"/><path class="cls-12" d="M210,801.32a1.4,1.4,0,0,0-1.79,0A26.22,26.22,0,0,0,201,819c0,11.64.32,14.81.32,14.81a36.55,36.55,0,0,0,15,0s.3-3.17.3-14.81A26.46,26.46,0,0,0,210,801.32Z"/><path class="cls-12" d="M210,801.32a1.4,1.4,0,0,0-1.79,0A26.1,26.1,0,0,0,201,818.89c0,11.58.34,14.74.34,14.74a36.23,36.23,0,0,0,14.91,0s.31-3.16.31-14.74A26.39,26.39,0,0,0,210,801.32Z"/><path class="cls-13" d="M210,801.32a1.38,1.38,0,0,0-1.77,0A25.92,25.92,0,0,0,201,818.8c0,11.53.37,14.67.37,14.67a35.81,35.81,0,0,0,14.78,0s.34-3.14.34-14.67A26.21,26.21,0,0,0,210,801.32Z"/><path class="cls-13" d="M210,801.31a1.43,1.43,0,0,0-1.77,0c-2,2.19-7.18,8.31-7.18,17.4,0,11.47.39,14.6.39,14.6a35.48,35.48,0,0,0,14.67,0s.35-3.13.35-14.6A26.18,26.18,0,0,0,210,801.31Z"/><path class="cls-14" d="M210,801.31a1.41,1.41,0,0,0-1.76,0,25.72,25.72,0,0,0-7.15,17.32c0,11.41.41,14.52.41,14.52a35.32,35.32,0,0,0,14.55,0s.38-3.11.38-14.52A26,26,0,0,0,210,801.31Z"/><path class="cls-15" d="M210,801.31a1.4,1.4,0,0,0-1.75,0,25.55,25.55,0,0,0-7.13,17.23c0,11.36.44,14.45.44,14.45A34.89,34.89,0,0,0,216,833s.4-3.09.4-14.45A25.92,25.92,0,0,0,210,801.31Z"/><path class="cls-15" d="M210,801.31a1.38,1.38,0,0,0-1.74,0c-2,2.15-7.1,8.19-7.1,17.14,0,11.3.46,14.38.46,14.38a34.57,34.57,0,0,0,14.31,0s.41-3.08.41-14.38A25.79,25.79,0,0,0,210,801.31Z"/><path class="cls-16" d="M210,801.31a1.38,1.38,0,0,0-1.74,0c-2,2.14-7.07,8.14-7.07,17.05,0,11.25.48,14.31.48,14.31a34.2,34.2,0,0,0,14.19,0s.44-3.06.44-14.31A25.64,25.64,0,0,0,210,801.31Z"/><path class="cls-17" d="M210,801.31a1.36,1.36,0,0,0-1.72,0,25.12,25.12,0,0,0-7.05,17c0,11.18.51,14.23.51,14.23a34,34,0,0,0,14.07,0s.45-3,.45-14.23A25.5,25.5,0,0,0,210,801.31Z"/><path class="cls-18" d="M210,801.31a1.34,1.34,0,0,0-1.71,0c-2,2.11-7,8.06-7,16.88,0,11.13.53,14.16.53,14.16a33.66,33.66,0,0,0,13.95,0s.48-3,.48-14.16A25.32,25.32,0,0,0,210,801.31Z"/><path class="cls-19" d="M210,801.3a1.37,1.37,0,0,0-1.71,0c-2,2.11-7,8-7,16.8,0,11.07.54,14.09.54,14.09a33.34,33.34,0,0,0,13.84,0s.49-3,.49-14.09A25.31,25.31,0,0,0,210,801.3Z"/><path class="cls-19" d="M209.94,801.3a1.34,1.34,0,0,0-1.69,0c-1.95,2.1-7,8-7,16.71,0,11,.57,14,.57,14a32.93,32.93,0,0,0,13.71,0s.52-3,.52-14A25.11,25.11,0,0,0,209.94,801.3Z"/><path class="cls-20" d="M209.94,801.3a1.34,1.34,0,0,0-1.69,0c-1.93,2.08-6.93,7.94-6.93,16.62,0,11,.59,14,.59,14a32.6,32.6,0,0,0,13.6,0s.53-3,.53-14A25,25,0,0,0,209.94,801.3Z"/><path class="cls-20" d="M209.93,801.3a1.33,1.33,0,0,0-1.68,0c-1.92,2.07-6.9,7.9-6.9,16.54,0,10.9.61,13.87.61,13.87a32.44,32.44,0,0,0,13.48,0s.55-3,.55-13.87A24.85,24.85,0,0,0,209.93,801.3Z"/><path class="cls-21" d="M209.93,801.3a1.31,1.31,0,0,0-1.67,0c-1.92,2.06-6.88,7.85-6.88,16.45,0,10.85.64,13.8.64,13.8a32.06,32.06,0,0,0,13.36,0s.57-2.95.57-13.8A24.76,24.76,0,0,0,209.93,801.3Z"/><path class="cls-22" d="M209.92,801.3a1.3,1.3,0,0,0-1.66,0c-1.9,2.05-6.85,7.81-6.85,16.36,0,10.79.66,13.73.66,13.73a31.7,31.7,0,0,0,13.24,0s.59-2.94.59-13.73A24.58,24.58,0,0,0,209.92,801.3Z"/><path class="cls-23" d="M209.92,801.29a1.32,1.32,0,0,0-1.66,0c-1.89,2-6.82,7.78-6.82,16.28,0,10.74.69,13.66.69,13.66a31.29,31.29,0,0,0,13.11,0s.62-2.92.62-13.66A24.54,24.54,0,0,0,209.92,801.29Z"/><path class="cls-24" d="M209.91,801.29a1.3,1.3,0,0,0-1.64,0c-1.89,2-6.8,7.74-6.8,16.2,0,10.67.71,13.58.71,13.58a31.16,31.16,0,0,0,13,0s.63-2.91.63-13.58A24.38,24.38,0,0,0,209.91,801.29Z"/><path class="cls-25" d="M209.91,801.29a1.3,1.3,0,0,0-1.64,0c-1.87,2-6.77,7.69-6.77,16.11,0,10.62.73,13.51.73,13.51a30.8,30.8,0,0,0,12.88,0s.66-2.89.66-13.51A24.28,24.28,0,0,0,209.91,801.29Z"/><path class="cls-26" d="M209.9,801.29a1.28,1.28,0,0,0-1.63,0c-1.86,2-6.74,7.65-6.74,16,0,10.56.76,13.44.76,13.44a30.41,30.41,0,0,0,12.76,0s.67-2.88.67-13.44A24.16,24.16,0,0,0,209.9,801.29Z"/><path class="cls-27" d="M209.9,801.29a1.27,1.27,0,0,0-1.62,0c-1.85,2-6.72,7.61-6.72,15.93,0,10.51.78,13.37.78,13.37a30.05,30.05,0,0,0,12.64,0s.69-2.86.69-13.37A24,24,0,0,0,209.9,801.29Z"/><path class="cls-28" d="M209.89,801.29a1.25,1.25,0,0,0-1.61,0c-1.84,2-6.69,7.57-6.69,15.85,0,10.44.8,13.29.8,13.29a29.93,29.93,0,0,0,12.53,0s.71-2.85.71-13.29A23.9,23.9,0,0,0,209.89,801.29Z"/><path class="cls-29" d="M209.89,801.28a1.29,1.29,0,0,0-1.6,0c-1.84,2-6.67,7.53-6.67,15.77,0,10.39.83,13.22.83,13.22a29.51,29.51,0,0,0,12.4,0s.73-2.83.73-13.22A23.81,23.81,0,0,0,209.89,801.28Z"/><path class="cls-29" d="M209.88,801.28a1.28,1.28,0,0,0-1.59,0c-1.82,2-6.64,7.49-6.64,15.68,0,10.33.85,13.15.85,13.15a29.19,29.19,0,0,0,12.29,0s.75-2.82.75-13.15A23.68,23.68,0,0,0,209.88,801.28Z"/><path class="cls-30" d="M209.88,801.28a1.28,1.28,0,0,0-1.59,0c-1.81,2-6.61,7.45-6.61,15.59,0,10.28.87,13.08.87,13.08a28.83,28.83,0,0,0,12.17,0s.77-2.8.77-13.08A23.56,23.56,0,0,0,209.88,801.28Z"/><path class="cls-30" d="M209.87,801.28a1.25,1.25,0,0,0-1.57,0c-1.81,1.94-6.59,7.41-6.59,15.5,0,10.23.9,13,.9,13a28.65,28.65,0,0,0,12,0s.79-2.78.79-13A23.41,23.41,0,0,0,209.87,801.28Z"/><path class="cls-31" d="M209.86,801.28a1.23,1.23,0,0,0-1.56,0c-1.79,1.93-6.55,7.36-6.55,15.42,0,10.16.91,12.93.91,12.93a28.29,28.29,0,0,0,11.93,0s.81-2.77.81-12.93A23.22,23.22,0,0,0,209.86,801.28Z"/><path class="cls-32" d="M209.86,801.28a1.23,1.23,0,0,0-1.56,0c-1.78,1.92-6.52,7.32-6.52,15.33,0,10.11.93,12.86.93,12.86a27.93,27.93,0,0,0,11.81,0s.83-2.75.83-12.86A23.16,23.16,0,0,0,209.86,801.28Z"/><path class="cls-33" d="M209.85,801.28a1.21,1.21,0,0,0-1.54,0c-1.78,1.91-6.5,7.28-6.5,15.24,0,10.05,1,12.79,1,12.79a27.56,27.56,0,0,0,11.69,0s.85-2.74.85-12.79A23,23,0,0,0,209.85,801.28Z"/><path class="cls-34" d="M209.85,801.27a1.23,1.23,0,0,0-1.54,0c-1.76,1.9-6.47,7.24-6.47,15.16,0,10,1,12.72,1,12.72a27.39,27.39,0,0,0,11.57,0s.87-2.72.87-12.72A22.92,22.92,0,0,0,209.85,801.27Z"/><path class="cls-35" d="M209.84,801.27a1.22,1.22,0,0,0-1.53,0c-1.75,1.89-6.44,7.2-6.44,15.08,0,9.93,1,12.64,1,12.64a27.07,27.07,0,0,0,11.46,0s.89-2.71.89-12.64A22.75,22.75,0,0,0,209.84,801.27Z"/><path class="cls-36" d="M209.84,801.27a1.2,1.2,0,0,0-1.52,0c-1.75,1.88-6.42,7.16-6.42,15,0,9.88,1,12.57,1,12.57a26.66,26.66,0,0,0,11.33,0s.91-2.69.91-12.57A22.68,22.68,0,0,0,209.84,801.27Z"/><path class="cls-37" d="M209.83,801.27a1.19,1.19,0,0,0-1.51,0c-1.73,1.87-6.39,7.12-6.39,14.9,0,9.82,1,12.5,1,12.5a26.34,26.34,0,0,0,11.22,0s.93-2.68.93-12.5A22.5,22.5,0,0,0,209.83,801.27Z"/><path class="cls-38" d="M209.83,801.27a1.19,1.19,0,0,0-1.51,0c-1.72,1.85-6.36,7.07-6.36,14.81,0,9.77,1.07,12.43,1.07,12.43a26.16,26.16,0,0,0,11.1,0s1-2.66,1-12.43A22.39,22.39,0,0,0,209.83,801.27Z"/><path class="cls-39" d="M209.82,801.27a1.16,1.16,0,0,0-1.49,0c-1.72,1.84-6.34,7-6.34,14.73,0,9.71,1.1,12.35,1.1,12.35a25.78,25.78,0,0,0,11,0s1-2.64,1-12.35A22.27,22.27,0,0,0,209.82,801.27Z"/><path class="cls-40" d="M209.82,801.26a1.19,1.19,0,0,0-1.49,0c-1.7,1.84-6.31,7-6.31,14.65,0,9.65,1.12,12.28,1.12,12.28a25.43,25.43,0,0,0,10.86,0s1-2.63,1-12.28A22.21,22.21,0,0,0,209.82,801.26Z"/><path class="cls-41" d="M209.81,801.26a1.17,1.17,0,0,0-1.48,0c-1.69,1.83-6.28,7-6.28,14.56,0,9.6,1.14,12.21,1.14,12.21a25.11,25.11,0,0,0,10.75,0s1-2.61,1-12.21A22.09,22.09,0,0,0,209.81,801.26Z"/><path class="cls-42" d="M209.81,801.26a1.16,1.16,0,0,0-1.47,0c-1.69,1.82-6.26,6.91-6.26,14.47,0,9.54,1.17,12.14,1.17,12.14a24.88,24.88,0,0,0,10.62,0s1-2.6,1-12.14A21.94,21.94,0,0,0,209.81,801.26Z"/><path class="cls-43" d="M209.8,801.26a1.15,1.15,0,0,0-1.46,0c-1.67,1.8-6.23,6.87-6.23,14.38,0,9.49,1.19,12.07,1.19,12.07a24.57,24.57,0,0,0,10.51,0s1-2.58,1-12.07A21.79,21.79,0,0,0,209.8,801.26Z"/><path class="cls-44" d="M209.8,801.26a1.15,1.15,0,0,0-1.46,0c-1.66,1.79-6.2,6.83-6.2,14.3,0,9.42,1.21,12,1.21,12a24.21,24.21,0,0,0,10.39,0s1.07-2.57,1.07-12A21.68,21.68,0,0,0,209.8,801.26Z"/><path class="cls-45" d="M209.79,801.26a1.12,1.12,0,0,0-1.44,0c-1.66,1.78-6.18,6.78-6.18,14.21,0,9.37,1.24,11.92,1.24,11.92a23.8,23.8,0,0,0,10.26,0s1.09-2.55,1.09-11.92A21.53,21.53,0,0,0,209.79,801.26Z"/><path class="cls-46" d="M209.78,801.26a1.1,1.1,0,0,0-1.43,0c-1.64,1.77-6.15,6.74-6.15,14.12,0,9.31,1.26,11.85,1.26,11.85a23.67,23.67,0,0,0,10.15,0s1.11-2.54,1.11-11.85A21.35,21.35,0,0,0,209.78,801.26Z"/><path class="cls-47" d="M209.78,801.25a1.16,1.16,0,0,0-1.43,0c-1.63,1.76-6.12,6.71-6.12,14,0,9.26,1.28,11.78,1.28,11.78a23.31,23.31,0,0,0,10,0s1.13-2.52,1.13-11.78A21.32,21.32,0,0,0,209.78,801.25Z"/><path class="cls-48" d="M209.77,801.25a1.13,1.13,0,0,0-1.41,0c-1.63,1.75-6.09,6.67-6.09,14,0,9.2,1.3,11.7,1.3,11.7a22.94,22.94,0,0,0,9.91,0s1.14-2.5,1.14-11.7A21.15,21.15,0,0,0,209.77,801.25Z"/><path class="cls-49" d="M209.77,801.25a1.13,1.13,0,0,0-1.41,0c-1.61,1.74-6.06,6.62-6.06,13.87,0,9.14,1.32,11.63,1.32,11.63a22.59,22.59,0,0,0,9.79,0s1.17-2.49,1.17-11.63A21.06,21.06,0,0,0,209.77,801.25Z"/><path class="cls-50" d="M209.76,801.25a1.11,1.11,0,0,0-1.4,0c-1.6,1.73-6,6.58-6,13.78,0,9.09,1.34,11.56,1.34,11.56a22.27,22.27,0,0,0,9.68,0s1.18-2.47,1.18-11.56A20.88,20.88,0,0,0,209.76,801.25Z"/><path class="cls-51" d="M209.76,801.25a1.1,1.1,0,0,0-1.39,0c-1.6,1.71-6,6.54-6,13.69,0,9,1.37,11.49,1.37,11.49a22,22,0,0,0,9.55,0s1.21-2.46,1.21-11.49A20.79,20.79,0,0,0,209.76,801.25Z"/><path class="cls-52" d="M209.75,801.25a1.09,1.09,0,0,0-1.38,0c-1.58,1.7-6,6.5-6,13.61,0,9,1.39,11.41,1.39,11.41a21.71,21.71,0,0,0,9.44,0s1.22-2.44,1.22-11.41A20.62,20.62,0,0,0,209.75,801.25Z"/><path class="cls-53" d="M209.75,801.24a1.11,1.11,0,0,0-1.38,0c-1.57,1.7-6,6.46-6,13.53,0,8.91,1.42,11.34,1.42,11.34a21.31,21.31,0,0,0,9.31,0s1.25-2.43,1.25-11.34A20.59,20.59,0,0,0,209.75,801.24Z"/><path class="cls-54" d="M209.74,801.24a1.08,1.08,0,0,0-1.36,0c-1.56,1.69-5.93,6.42-5.93,13.44,0,8.86,1.44,11.27,1.44,11.27a21,21,0,0,0,9.2,0s1.26-2.41,1.26-11.27A20.41,20.41,0,0,0,209.74,801.24Z"/><path class="cls-55" d="M209.74,801.24a1.08,1.08,0,0,0-1.36,0c-1.55,1.67-5.9,6.38-5.9,13.35,0,8.8,1.46,11.2,1.46,11.2a20.82,20.82,0,0,0,9.08,0s1.28-2.4,1.28-11.2A20.33,20.33,0,0,0,209.74,801.24Z"/><path class="cls-56" d="M209.73,801.24a1.07,1.07,0,0,0-1.35,0c-1.54,1.66-5.87,6.34-5.87,13.26,0,8.75,1.49,11.13,1.49,11.13a20.41,20.41,0,0,0,8.95,0s1.31-2.38,1.31-11.13A20.2,20.2,0,0,0,209.73,801.24Z"/><path class="cls-57" d="M209.73,801.24a1.06,1.06,0,0,0-1.34,0c-1.53,1.65-5.85,6.29-5.85,13.18,0,8.68,1.51,11.05,1.51,11.05a20.1,20.1,0,0,0,8.84,0s1.32-2.37,1.32-11.05A20.07,20.07,0,0,0,209.73,801.24Z"/><path class="cls-58" d="M209.72,801.24a1,1,0,0,0-1.33,0c-1.52,1.64-5.82,6.25-5.82,13.09,0,8.63,1.53,11,1.53,11a19.75,19.75,0,0,0,8.72,0s1.35-2.35,1.35-11A19.94,19.94,0,0,0,209.72,801.24Z"/><path class="cls-59" d="M209.72,801.24a1,1,0,0,0-1.32,0c-1.52,1.63-5.8,6.21-5.8,13,0,8.58,1.56,10.91,1.56,10.91a19.56,19.56,0,0,0,8.6,0s1.36-2.33,1.36-10.91A19.82,19.82,0,0,0,209.72,801.24Z"/><path class="cls-60" d="M209.71,801.23a1,1,0,0,0-1.31,0c-1.5,1.62-5.77,6.17-5.77,12.92,0,8.52,1.58,10.84,1.58,10.84a19.21,19.21,0,0,0,8.48,0s1.39-2.32,1.39-10.84A19.7,19.7,0,0,0,209.71,801.23Z"/><path class="cls-61" d="M209.71,801.23a1,1,0,0,0-1.31,0c-1.49,1.61-5.74,6.13-5.74,12.84,0,8.46,1.6,10.76,1.6,10.76a18.89,18.89,0,0,0,8.37,0s1.4-2.3,1.4-10.76C214,807.36,211.2,802.84,209.71,801.23Z"/><path class="cls-62" d="M209.7,801.23a1,1,0,0,0-1.29,0c-1.49,1.6-5.72,6.09-5.72,12.75,0,8.4,1.63,10.69,1.63,10.69a18.49,18.49,0,0,0,8.24,0S214,822.38,214,814C214,807.32,211.18,802.83,209.7,801.23Z"/><path class="cls-63" d="M209.69,801.23a1,1,0,0,0-1.28,0c-1.47,1.59-5.69,6-5.69,12.66,0,8.35,1.65,10.62,1.65,10.62a18.35,18.35,0,0,0,8.13,0s1.44-2.27,1.44-10.62C213.94,807.28,211.17,802.82,209.69,801.23Z"/><path class="cls-64" d="M209.69,801.23a1,1,0,0,0-1.28,0c-1.46,1.57-5.65,6-5.65,12.57,0,8.29,1.66,10.55,1.66,10.55a18,18,0,0,0,8,0s1.46-2.26,1.46-10.55C213.89,807.23,211.15,802.8,209.69,801.23Z"/><path class="cls-65" d="M209.68,801.23a1,1,0,0,0-1.26,0c-1.46,1.56-5.63,6-5.63,12.49,0,8.23,1.69,10.47,1.69,10.47a17.64,17.64,0,0,0,7.89,0s1.48-2.24,1.48-10.47C213.85,807.19,211.14,802.79,209.68,801.23Z"/><path class="cls-66" d="M209.68,801.22a1,1,0,0,0-1.26,0c-1.44,1.56-5.6,5.93-5.6,12.41,0,8.17,1.71,10.4,1.71,10.4a17.29,17.29,0,0,0,7.77,0s1.5-2.23,1.5-10.4C213.8,807.15,211.12,802.78,209.68,801.22Z"/><path class="cls-67" d="M209.67,801.22a1,1,0,0,0-1.25,0c-1.43,1.55-5.57,5.89-5.57,12.32,0,8.12,1.73,10.33,1.73,10.33a17.13,17.13,0,0,0,7.66,0s1.52-2.21,1.52-10.33C213.76,807.11,211.11,802.77,209.67,801.22Z"/><path class="cls-68" d="M209.67,801.22a1,1,0,0,0-1.24,0c-1.43,1.53-5.55,5.84-5.55,12.23,0,8.07,1.76,10.26,1.76,10.26a16.73,16.73,0,0,0,7.53,0s1.54-2.19,1.54-10.26C213.71,807.06,211.09,802.75,209.67,801.22Z"/><path class="cls-68" d="M209.66,801.22a1,1,0,0,0-1.23,0c-1.41,1.52-5.52,5.8-5.52,12.14,0,8,1.78,10.19,1.78,10.19a16.38,16.38,0,0,0,7.41,0s1.56-2.18,1.56-10.19C213.66,807,211.08,802.74,209.66,801.22Z"/><path class="cls-69" d="M209.66,801.22a1,1,0,0,0-1.23,0c-1.4,1.51-5.49,5.76-5.49,12.06,0,8,1.8,10.11,1.8,10.11a16.07,16.07,0,0,0,7.3,0s1.58-2.16,1.58-10.11C213.62,807,211.06,802.73,209.66,801.22Z"/><path class="cls-70" d="M209.65,801.22a1,1,0,0,0-1.21,0c-1.4,1.5-5.47,5.71-5.47,12,0,7.89,1.83,10,1.83,10a15.84,15.84,0,0,0,7.17,0s1.6-2.15,1.6-10C213.57,806.93,211,802.72,209.65,801.22Z"/><path class="cls-71" d="M209.65,801.21a1,1,0,0,0-1.21,0c-1.38,1.49-5.44,5.68-5.44,11.89,0,7.84,1.85,10,1.85,10a15.53,15.53,0,0,0,7.06,0s1.62-2.13,1.62-10C213.53,806.89,211,802.7,209.65,801.21Z"/><path class="cls-72" d="M209.64,801.21a1,1,0,0,0-1.2,0c-1.37,1.48-5.41,5.64-5.41,11.8,0,7.78,1.87,9.91,1.87,9.91a15.35,15.35,0,0,0,6.94,0s1.64-2.13,1.64-9.91C213.48,806.85,211,802.69,209.64,801.21Z"/><path class="cls-72" d="M209.64,801.21a1,1,0,0,0-1.19,0c-1.37,1.47-5.39,5.6-5.39,11.72,0,7.72,1.9,9.83,1.9,9.83a15,15,0,0,0,6.82,0s1.66-2.11,1.66-9.83C213.44,806.81,211,802.68,209.64,801.21Z"/><path class="cls-73" d="M209.63,801.21a.93.93,0,0,0-1.18,0c-1.35,1.46-5.36,5.55-5.36,11.63,0,7.66,1.92,9.76,1.92,9.76a14.81,14.81,0,0,0,6.7,0s1.68-2.1,1.68-9.76C213.39,806.76,211,802.67,209.63,801.21Z"/><path class="cls-74" d="M209.63,801.21a.93.93,0,0,0-1.18,0c-1.34,1.45-5.33,5.51-5.33,11.54,0,7.61,1.94,9.69,1.94,9.69a14.5,14.5,0,0,0,6.59,0s1.69-2.08,1.69-9.69C213.34,806.72,211,802.66,209.63,801.21Z"/><path class="cls-75" d="M209.62,801.21a.91.91,0,0,0-1.16,0c-1.34,1.43-5.31,5.47-5.31,11.45,0,7.56,2,9.62,2,9.62a14.11,14.11,0,0,0,6.46,0s1.72-2.06,1.72-9.62C213.3,806.68,211,802.64,209.62,801.21Z"/><path class="cls-76" d="M209.61,801.21a.89.89,0,0,0-1.15,0c-1.32,1.42-5.28,5.43-5.28,11.37,0,7.49,2,9.54,2,9.54a13.8,13.8,0,0,0,6.35,0s1.73-2,1.73-9.54C213.25,806.64,210.94,802.63,209.61,801.21Z"/><path class="cls-77" d="M209.61,801.2a.92.92,0,0,0-1.15,0c-1.31,1.42-5.25,5.39-5.25,11.29,0,7.44,2,9.47,2,9.47a13.61,13.61,0,0,0,6.23,0s1.76-2,1.76-9.47C213.21,806.59,210.92,802.62,209.61,801.2Z"/><path class="cls-78" d="M209.6,801.2a.89.89,0,0,0-1.13,0c-1.31,1.41-5.22,5.35-5.22,11.2,0,7.38,2,9.4,2,9.4a13.22,13.22,0,0,0,6.1,0s1.78-2,1.78-9.4C213.16,806.55,210.91,802.61,209.6,801.2Z"/><path class="cls-79" d="M209.6,801.2a.89.89,0,0,0-1.13,0c-1.29,1.39-5.19,5.31-5.19,11.11,0,7.33,2.05,9.33,2.05,9.33a12.9,12.9,0,0,0,6,0s1.8-2,1.8-9.33C213.12,806.51,210.89,802.59,209.6,801.2Z"/><path class="cls-80" d="M209.59,801.2a.88.88,0,0,0-1.12,0c-1.28,1.38-5.16,5.27-5.16,11,0,7.27,2.07,9.26,2.07,9.26a12.56,12.56,0,0,0,5.87,0s1.82-2,1.82-9.26C213.07,806.47,210.88,802.58,209.59,801.2Z"/><path class="cls-81" d="M209.59,801.2a.86.86,0,0,0-1.11,0c-1.27,1.37-5.14,5.22-5.14,10.94,0,7.21,2.1,9.18,2.1,9.18a12.21,12.21,0,0,0,5.75,0s1.83-2,1.83-9.18C213,806.42,210.86,802.57,209.59,801.2Z"/><path class="cls-82" d="M209.58,801.2a.85.85,0,0,0-1.1,0c-1.26,1.36-5.11,5.18-5.11,10.85,0,7.15,2.12,9.11,2.12,9.11a12,12,0,0,0,5.63,0s1.86-2,1.86-9.11C213,806.38,210.85,802.56,209.58,801.2Z"/><path class="cls-83" d="M209.58,801.19a.9.9,0,0,0-1.1,0c-1.25,1.35-5.08,5.15-5.08,10.77,0,7.1,2.14,9,2.14,9a11.72,11.72,0,0,0,5.52,0s1.87-1.94,1.87-9C212.93,806.34,210.83,802.54,209.58,801.19Z"/><path class="cls-84" d="M209.57,801.19a.87.87,0,0,0-1.08,0c-1.24,1.34-5.06,5.1-5.06,10.68,0,7,2.17,9,2.17,9a11.33,11.33,0,0,0,5.39,0s1.9-1.92,1.9-9C212.89,806.29,210.81,802.53,209.57,801.19Z"/><path class="cls-85" d="M209.57,801.19a.87.87,0,0,0-1.08,0c-1.23,1.33-5,5.06-5,10.6,0,7,2.19,8.89,2.19,8.89a11,11,0,0,0,5.28,0s1.91-1.91,1.91-8.89C212.84,806.25,210.8,802.52,209.57,801.19Z"/><path class="cls-86" d="M209.56,801.19a.86.86,0,0,0-1.07,0c-1.22,1.32-5,5-5,10.51,0,6.93,2.22,8.82,2.22,8.82a10.79,10.79,0,0,0,5.15,0s1.94-1.89,1.94-8.82C212.8,806.21,210.78,802.51,209.56,801.19Z"/><path class="cls-87" d="M209.56,801.19a.84.84,0,0,0-1.06,0c-1.21,1.3-5,5-5,10.42,0,6.87,2.24,8.75,2.24,8.75a10.49,10.49,0,0,0,5,0s1.95-1.88,1.95-8.75C212.75,806.17,210.77,802.49,209.56,801.19Z"/><path class="cls-88" d="M209.55,801.19a.83.83,0,0,0-1.05,0c-1.2,1.29-4.95,4.93-4.95,10.33,0,6.82,2.26,8.68,2.26,8.68a10.16,10.16,0,0,0,4.92,0s2-1.86,2-8.68C212.71,806.12,210.75,802.48,209.55,801.19Z"/><path class="cls-89" d="M209.55,801.19a.83.83,0,0,0-1.05,0c-1.19,1.28-4.92,4.89-4.92,10.25,0,6.75,2.29,8.6,2.29,8.6a9.78,9.78,0,0,0,4.79,0s2-1.85,2-8.6C212.66,806.08,210.74,802.47,209.55,801.19Z"/><path class="cls-90" d="M209.54,801.18a.83.83,0,0,0-1,0c-1.18,1.28-4.9,4.86-4.9,10.17,0,6.7,2.31,8.53,2.31,8.53a9.62,9.62,0,0,0,4.68,0s2-1.83,2-8.53C212.61,806,210.72,802.46,209.54,801.18Z"/><path class="cls-91" d="M209.54,801.18a.83.83,0,0,0-1,0c-1.17,1.27-4.87,4.82-4.87,10.08,0,6.64,2.33,8.46,2.33,8.46a9.29,9.29,0,0,0,4.56,0s2-1.82,2-8.46C212.57,806,210.71,802.45,209.54,801.18Z"/><path class="cls-92" d="M209.53,801.18a.8.8,0,0,0-1,0c-1.17,1.25-4.85,4.77-4.85,10,0,6.59,2.36,8.39,2.36,8.39a8.94,8.94,0,0,0,4.44,0s2.05-1.8,2.05-8.39C212.52,806,210.69,802.43,209.53,801.18Z"/><path class="cls-93" d="M209.52,801.18a.78.78,0,0,0-1,0c-1.15,1.24-4.82,4.73-4.82,9.9,0,6.53,2.38,8.32,2.38,8.32a8.6,8.6,0,0,0,4.32,0s2.08-1.79,2.08-8.32C212.48,805.91,210.68,802.42,209.52,801.18Z"/><path class="cls-94" d="M209.52,801.18a.78.78,0,0,0-1,0c-1.14,1.23-4.79,4.69-4.79,9.82,0,6.47,2.4,8.24,2.4,8.24a8.44,8.44,0,0,0,4.21,0s2.09-1.77,2.09-8.24C212.43,805.87,210.66,802.41,209.52,801.18Z"/><path class="cls-95" d="M209.51,801.18a.76.76,0,0,0-1,0c-1.14,1.22-4.76,4.64-4.76,9.73,0,6.42,2.42,8.17,2.42,8.17a8.07,8.07,0,0,0,4.08,0s2.12-1.75,2.12-8.17C212.39,805.82,210.65,802.4,209.51,801.18Z"/><path class="cls-96" d="M209.51,801.17a.78.78,0,0,0-1,0c-1.12,1.21-4.73,4.61-4.73,9.65,0,6.36,2.44,8.1,2.44,8.1a7.78,7.78,0,0,0,4,0s2.13-1.74,2.13-8.1C212.34,805.78,210.63,802.38,209.51,801.17Z"/><path class="cls-97" d="M209.5,801.17a.77.77,0,0,0-1,0c-1.11,1.2-4.7,4.57-4.7,9.56,0,6.31,2.46,8,2.46,8a7.46,7.46,0,0,0,3.85,0s2.15-1.72,2.15-8C212.29,805.74,210.62,802.37,209.5,801.17Z"/><path class="cls-98" d="M209.5,801.17a.75.75,0,0,0-1,0c-1.11,1.19-4.68,4.53-4.68,9.48,0,6.24,2.49,8,2.49,8a7.25,7.25,0,0,0,3.73,0s2.17-1.71,2.17-8C212.25,805.7,210.6,802.36,209.5,801.17Z"/></g><g id="Pink_Detail" data-name="Pink Detail"><ellipse class="cls-99" cx="211.48" cy="830.19" rx="0.41" ry="0.35"/><ellipse class="cls-99" cx="214.8" cy="832.35" rx="0.41" ry="0.26"/><ellipse class="cls-99" cx="211.28" cy="833.04" rx="0.41" ry="0.26"/><ellipse class="cls-99" cx="211.98" cy="819.68" rx="0.41" ry="0.26"/><ellipse class="cls-99" cx="214.47" cy="820.03" rx="0.41" ry="0.26"/><ellipse class="cls-99" cx="215.05" cy="819.45" rx="0.28" ry="0.16"/><ellipse class="cls-99" cx="214.38" cy="820.92" rx="0.28" ry="0.16"/><ellipse class="cls-99" cx="213.8" cy="821.95" rx="0.41" ry="0.26"/><ellipse class="cls-99" cx="209.24" cy="824.96" rx="0.41" ry="0.26"/><ellipse class="cls-99" cx="207.17" cy="821.42" rx="0.41" ry="0.26"/><ellipse class="cls-99" cx="207.5" cy="822.37" rx="0.41" ry="0.26"/><ellipse class="cls-99" cx="208.74" cy="821.38" rx="0.41" ry="0.26"/><ellipse class="cls-99" cx="209.78" cy="822.65" rx="0.28" ry="0.16"/><ellipse class="cls-99" cx="205.33" cy="825.73" rx="0.41" ry="0.26"/><ellipse class="cls-99" cx="206.17" cy="829.14" rx="0.41" ry="0.26"/><ellipse class="cls-99" cx="209.82" cy="823.68" rx="0.41" ry="0.26"/><ellipse class="cls-99" cx="212.81" cy="829" rx="0.41" ry="0.26"/><ellipse class="cls-99" cx="206.17" cy="817.5" rx="0.41" ry="0.26"/><ellipse class="cls-99" cx="209.49" cy="813.79" rx="0.41" ry="0.26"/><ellipse class="cls-99" cx="209.78" cy="820.75" rx="0.28" ry="0.16"/><ellipse class="cls-99" cx="207.56" cy="819.49" rx="0.28" ry="0.16"/><ellipse class="cls-99" cx="205.34" cy="821.52" rx="0.28" ry="0.16"/><ellipse class="cls-99" cx="205.34" cy="817.47" rx="0.28" ry="0.16"/><ellipse class="cls-99" cx="204.52" cy="816.25" rx="0.41" ry="0.26"/><ellipse class="cls-99" cx="208.25" cy="815.45" rx="0.41" ry="0.26"/><ellipse class="cls-99" cx="212.6" cy="821.8" rx="0.28" ry="0.16"/><ellipse class="cls-99" cx="214.13" cy="825.17" rx="0.41" ry="0.26"/><ellipse class="cls-99" cx="214.16" cy="818.82" rx="0.28" ry="0.16"/><ellipse class="cls-99" cx="210" cy="814.32" rx="0.28" ry="0.16"/><ellipse class="cls-99" cx="211.55" cy="811.79" rx="0.28" ry="0.16"/><ellipse class="cls-99" cx="206.22" cy="815.58" rx="0.28" ry="0.16"/><ellipse class="cls-99" cx="212.44" cy="817.98" rx="0.28" ry="0.16"/><ellipse class="cls-99" cx="215.1" cy="815.45" rx="0.28" ry="0.16"/><ellipse class="cls-99" cx="206" cy="811.16" rx="0.28" ry="0.16"/><ellipse class="cls-99" cx="209.33" cy="807.12" rx="0.28" ry="0.16"/></g></svg>