<svg xmlns="http://www.w3.org/2000/svg" viewBox="0 0 432 846"><defs><style>.cls-1{fill:#001600;}.cls-2{fill:#001700;}.cls-3{fill:#001800;}.cls-4{fill:#001900;}.cls-5{fill:#001a00;}.cls-6{fill:#001b00;}.cls-7{fill:#001c00;}.cls-8{fill:#001d00;}.cls-9{fill:#001e00;}.cls-10{fill:#001f00;}.cls-11{fill:#002000;}.cls-12{fill:#002100;}.cls-13{fill:#020;}.cls-14{fill:#002300;}.cls-15{fill:#002400;}.cls-16{fill:#002500;}.cls-17{fill:#002501;}.cls-18{fill:#002601;}.cls-19{fill:#002702;}.cls-20{fill:#002803;}.cls-21{fill:#002904;}.cls-22{fill:#002905;}.cls-23{fill:#002a05;}.cls-24{fill:#002a06;}.cls-25{fill:#002b06;}.cls-26{fill:#002b07;}.cls-27{fill:#002c07;}.cls-28{fill:#002c08;}.cls-29{fill:#002d09;}.cls-30{fill:#002e0a;}.cls-31{fill:#002f0b;}.cls-32{fill:#002f0c;}.cls-33{fill:#00300c;}.cls-34{fill:#00300d;}.cls-35{fill:#00310d;}.cls-36{fill:#00310e;}.cls-37{fill:#00320e;}.cls-38{fill:#01320f;}.cls-39{fill:#02330f;}.cls-40{fill:#033310;}.cls-41{fill:#053410;}.cls-42{fill:#063410;}.cls-43{fill:#073411;}.cls-44{fill:#093511;}.cls-45{fill:#0a3512;}.cls-46{fill:#0b3612;}.cls-47{fill:#0d3612;}.cls-48{fill:#0e3713;}.cls-49{fill:#0f3713;}.cls-50{fill:#103714;}.cls-51{fill:#113814;}.cls-52{fill:#123814;}.cls-53{fill:#133915;}.cls-54{fill:#143915;}.cls-55{fill:#153a15;}.cls-56{fill:#163a16;}.cls-57{fill:#173a16;}.cls-58{fill:#183b16;}.cls-59{fill:#193b17;}.cls-60{fill:#1a3c17;}.cls-61{fill:#1b3c17;}.cls-62{fill:#1c3c18;}.cls-63{fill:#1c3d18;}.cls-64{fill:#1d3d18;}.cls-65{fill:#1e3e19;}.cls-66{fill:#1f3e19;}.cls-67{fill:#203e19;}.cls-68{fill:#213f1a;}.cls-69{fill:#223f1a;}.cls-70{fill:#23401a;}.cls-71{fill:#24401b;}.cls-72{fill:#25411b;}.cls-73{fill:#26411c;}.cls-74{fill:#27421c;}.cls-75{fill:#28421c;}.cls-76{fill:#28421d;}.cls-77{fill:#29431d;}.cls-78{fill:#2a431d;}.cls-79{fill:#2b441d;}.cls-80{fill:#2b441e;}.cls-81{fill:#2c441e;}.cls-82{fill:#2d451e;}.cls-83{fill:#2e451e;}.cls-84{fill:#2e451f;}.cls-85{fill:#2f461f;}.cls-86{fill:#30461f;}.cls-87{fill:#31461f;}.cls-88{fill:#314720;}.cls-89{fill:#324720;}.cls-90{fill:#334820;}.cls-91{fill:#344820;}.cls-92{fill:#344821;}.cls-93{fill:#354921;}.cls-94{fill:#364921;}.cls-95{fill:#374921;}.cls-96{fill:#374a22;}.cls-97{fill:#384a22;}.cls-98{fill:#394a22;}.cls-99{fill:#002600;}.cls-100{fill:#002700;}.cls-101{fill:#002800;}.cls-102{fill:#002801;}.cls-103{fill:#002901;}.cls-104{fill:#002902;}.cls-105{fill:#002a02;}.cls-106{fill:#002b02;}.cls-107{fill:#002b03;}.cls-108{fill:#002c03;}.cls-109{fill:#002c04;}.cls-110{fill:#002d04;}.cls-111{fill:#002d05;}.cls-112{fill:#002e05;}.cls-113{fill:#022e06;}.cls-114{fill:#032f06;}.cls-115{fill:#053006;}.cls-116{fill:#063007;}.cls-117{fill:#083107;}.cls-118{fill:#0a3108;}.cls-119{fill:#0c3208;}.cls-120{fill:#0d3209;}.cls-121{fill:#0f3309;}.cls-122{fill:#10330a;}.cls-123{fill:#11340a;}.cls-124{fill:#13340b;}.cls-125{fill:#14350b;}.cls-126{fill:#15350c;}.cls-127{fill:#231f20;}</style></defs><g id="Green_Leaf" data-name="Green Leaf"><path class="cls-1" d="M210.26,721.12a1.49,1.49,0,0,0-2.88,0c-3.29,7.76-11.45,29.58-11.45,61.93,0,40.82,7.44,52,7.44,52s5.57,3.71,11.14,0c0,0,6.49-11.14,6.49-52C221,750.7,213.55,728.88,210.26,721.12Z"/><path class="cls-1" d="M210.25,721.11a1.48,1.48,0,0,0-2.86,0c-3.28,7.73-11.42,29.45-11.42,61.65,0,40.64,7.41,51.72,7.41,51.72s5.54,3.7,11.09,0c0,0,6.46-11.08,6.46-51.72C220.93,750.56,213.53,728.84,210.25,721.11Z"/><path class="cls-2" d="M210.24,721.11a1.47,1.47,0,0,0-2.85,0C204.13,728.8,196,750.42,196,782.47c0,40.46,7.37,51.49,7.37,51.49s5.52,3.68,11,0c0,0,6.43-11,6.43-51.49C220.86,750.42,213.51,728.8,210.24,721.11Z"/><path class="cls-3" d="M210.24,721.1a1.47,1.47,0,0,0-2.84,0c-3.25,7.66-11.33,29.18-11.33,61.09,0,40.27,7.33,51.25,7.33,51.25s5.5,3.66,11,0c0,0,6.41-11,6.41-51.25C220.8,750.28,213.48,728.76,210.24,721.1Z"/><path class="cls-4" d="M210.23,721.1a1.45,1.45,0,0,0-2.82,0c-3.24,7.62-11.3,29-11.3,60.8,0,40.08,7.3,51,7.3,51s5.47,3.64,10.94,0c0,0,6.38-10.94,6.38-51C220.73,750.14,213.46,728.72,210.23,721.1Z"/><path class="cls-5" d="M210.22,721.09a1.45,1.45,0,0,0-2.81,0c-3.22,7.59-11.25,28.91-11.25,60.52,0,39.9,7.27,50.78,7.27,50.78s5.44,3.63,10.89,0c0,0,6.34-10.88,6.34-50.78C220.66,750,213.44,728.68,210.22,721.09Z"/><path class="cls-5" d="M210.21,721.09a1.44,1.44,0,0,0-2.79,0c-3.21,7.55-11.22,28.77-11.22,60.24,0,39.71,7.24,50.54,7.24,50.54s5.42,3.61,10.84,0c0,0,6.31-10.83,6.31-50.54C220.59,749.86,213.41,728.64,210.21,721.09Z"/><path class="cls-6" d="M210.2,721.08a1.43,1.43,0,0,0-2.78,0c-3.19,7.52-11.17,28.64-11.17,60,0,39.53,7.2,50.31,7.2,50.31s5.39,3.59,10.79,0c0,0,6.28-10.78,6.28-50.31C220.52,749.72,213.39,728.6,210.2,721.08Z"/><path class="cls-7" d="M210.2,721.08a1.43,1.43,0,0,0-2.77,0c-3.18,7.48-11.14,28.5-11.14,59.67,0,39.35,7.17,50.07,7.17,50.07s5.37,3.58,10.74,0c0,0,6.26-10.72,6.26-50.07C220.46,749.58,213.37,728.56,210.2,721.08Z"/><path class="cls-7" d="M210.19,721.07a1.42,1.42,0,0,0-2.76,0c-3.16,7.45-11.09,28.37-11.09,59.4,0,39.15,7.13,49.83,7.13,49.83s5.35,3.56,10.69,0c0,0,6.23-10.68,6.23-49.83C220.39,749.44,213.35,728.52,210.19,721.07Z"/><path class="cls-8" d="M210.18,721.07a1.41,1.41,0,0,0-2.74,0c-3.15,7.41-11.05,28.23-11.05,59.11,0,39,7.1,49.6,7.1,49.6s5.31,3.54,10.63,0c0,0,6.2-10.63,6.2-49.6C220.32,749.3,213.32,728.48,210.18,721.07Z"/><path class="cls-9" d="M210.17,721.06a1.41,1.41,0,0,0-2.73,0c-3.13,7.38-11,28.1-11,58.83,0,38.79,7.07,49.37,7.07,49.37s5.29,3.52,10.58,0c0,0,6.17-10.58,6.17-49.37C220.25,749.16,213.3,728.44,210.17,721.06Z"/><path class="cls-10" d="M210.16,721.06a1.4,1.4,0,0,0-2.71,0c-3.12,7.34-11,28-11,58.55,0,38.6,7,49.12,7,49.12s5.27,3.51,10.54,0c0,0,6.13-10.52,6.13-49.12C220.18,749,213.28,728.4,210.16,721.06Z"/><path class="cls-10" d="M210.16,721.05a1.4,1.4,0,0,0-2.71,0c-3.1,7.31-10.93,27.83-10.93,58.27,0,38.41,7,48.89,7,48.89s5.24,3.49,10.49,0c0,0,6.1-10.48,6.1-48.89C220.11,748.88,213.25,728.36,210.16,721.05Z"/><path class="cls-11" d="M210.15,721.05a1.39,1.39,0,0,0-2.69,0c-3.09,7.27-10.89,27.69-10.89,58,0,38.23,7,48.66,7,48.66s5.22,3.47,10.44,0c0,0,6.08-10.43,6.08-48.66C220.05,748.74,213.23,728.32,210.15,721.05Z"/><path class="cls-12" d="M210.14,721a1.38,1.38,0,0,0-2.68,0c-3.07,7.24-10.85,27.56-10.85,57.71,0,38,6.94,48.42,6.94,48.42s5.19,3.45,10.38,0c0,0,6-10.38,6-48.42C220,748.6,213.21,728.28,210.14,721Z"/><path class="cls-12" d="M210.13,721a1.37,1.37,0,0,0-2.66,0c-3.06,7.2-10.81,27.42-10.81,57.42,0,37.86,6.9,48.18,6.9,48.18s5.16,3.44,10.33,0c0,0,6-10.32,6-48.18C219.91,748.46,213.18,728.24,210.13,721Z"/><path class="cls-13" d="M210.12,721a1.37,1.37,0,0,0-2.65,0c-3,7.16-10.76,27.29-10.76,57.14,0,37.68,6.86,48,6.86,48s5.14,3.42,10.28,0c0,0,6-10.27,6-48C219.84,748.32,213.16,728.19,210.12,721Z"/><path class="cls-13" d="M210.12,721a1.36,1.36,0,0,0-2.64,0c-3,7.12-10.73,27.15-10.73,56.86,0,37.48,6.83,47.71,6.83,47.71s5.12,3.4,10.23,0c0,0,6-10.23,6-47.71C219.77,748.18,213.14,728.15,210.12,721Z"/><path class="cls-14" d="M210.11,721a1.36,1.36,0,0,0-2.63,0c-3,7.09-10.68,27-10.68,56.58,0,37.3,6.79,47.47,6.79,47.47s5.09,3.4,10.18,0c0,0,5.93-10.17,5.93-47.47C219.7,748.05,213.12,728.11,210.11,721Z"/><path class="cls-15" d="M210.1,721a1.34,1.34,0,0,0-2.61,0c-3,7.05-10.65,26.89-10.65,56.29,0,37.12,6.77,47.24,6.77,47.24s5.06,3.38,10.13,0c0,0,5.9-10.12,5.9-47.24C219.64,747.91,213.09,728.07,210.1,721Z"/><path class="cls-15" d="M210.09,721a1.34,1.34,0,0,0-2.6,0c-3,7-10.6,26.76-10.6,56,0,36.93,6.73,47,6.73,47s5,3.36,10.08,0c0,0,5.87-10.07,5.87-47C219.57,747.77,213.07,728,210.09,721Z"/><path class="cls-16" d="M210.08,721a1.33,1.33,0,0,0-2.58,0c-3,7-10.56,26.62-10.56,55.73,0,36.74,6.69,46.77,6.69,46.77s5,3.34,10,0c0,0,5.84-10,5.84-46.77C219.5,747.63,213.05,728,210.08,721Z"/><path class="cls-17" d="M210.08,721a1.33,1.33,0,0,0-2.58,0c-2.95,7-10.52,26.49-10.52,55.45C197,813,203.64,823,203.64,823s5,3.33,10,0c0,0,5.81-10,5.81-46.53C219.43,747.49,213,728,210.08,721Z"/><path class="cls-18" d="M210.07,721a1.32,1.32,0,0,0-2.56,0c-2.94,6.91-10.48,26.35-10.48,55.17,0,36.37,6.62,46.29,6.62,46.29s5,3.31,9.93,0c0,0,5.78-9.92,5.78-46.29C219.36,747.35,213,727.91,210.07,721Z"/><path class="cls-19" d="M210.06,721a1.32,1.32,0,0,0-2.55,0c-2.92,6.88-10.44,26.22-10.44,54.89,0,36.19,6.59,46.06,6.59,46.06s4.94,3.29,9.88,0c0,0,5.76-9.87,5.76-46.06C219.3,747.21,213,727.87,210.06,721Z"/><path class="cls-19" d="M210.05,721a1.3,1.3,0,0,0-2.53,0c-2.91,6.84-10.4,26.08-10.4,54.61,0,36,6.56,45.81,6.56,45.81s4.91,3.28,9.82,0c0,0,5.73-9.81,5.73-45.81C219.23,747.07,213,727.83,210.05,721Z"/><path class="cls-20" d="M210,721a1.3,1.3,0,0,0-2.52,0c-2.89,6.81-10.36,25.95-10.36,54.33,0,35.81,6.53,45.58,6.53,45.58s4.89,3.26,9.77,0c0,0,5.7-9.77,5.7-45.58C219.16,746.93,212.93,727.79,210,721Z"/><path class="cls-20" d="M210,721a1.29,1.29,0,0,0-2.51,0c-2.88,6.77-10.32,25.81-10.32,54,0,35.63,6.49,45.35,6.49,45.35s4.86,3.24,9.73,0c0,0,5.66-9.72,5.66-45.35C219.09,746.79,212.91,727.75,210,721Z"/><path class="cls-21" d="M210,721a1.29,1.29,0,0,0-2.5,0c-2.86,6.74-10.27,25.68-10.27,53.77,0,35.44,6.45,45.11,6.45,45.11s4.84,3.22,9.68,0c0,0,5.63-9.67,5.63-45.11C219,746.65,212.89,727.71,210,721Z"/><path class="cls-22" d="M210,721a1.28,1.28,0,0,0-2.48,0c-2.85,6.7-10.24,25.54-10.24,53.48,0,35.26,6.42,44.87,6.42,44.87s4.82,3.21,9.63,0c0,0,5.6-9.61,5.6-44.87C219,746.51,212.86,727.67,210,721Z"/><path class="cls-23" d="M210,721a1.27,1.27,0,0,0-2.47,0c-2.82,6.67-10.19,25.41-10.19,53.2,0,35.08,6.39,44.64,6.39,44.64s4.78,3.19,9.57,0c0,0,5.58-9.56,5.58-44.64C218.89,746.37,212.84,727.63,210,721Z"/><path class="cls-24" d="M210,721a1.27,1.27,0,0,0-2.46,0c-2.81,6.63-10.16,25.27-10.16,52.92,0,34.88,6.36,44.4,6.36,44.4s4.76,3.17,9.52,0c0,0,5.55-9.52,5.55-44.4C218.82,746.23,212.82,727.59,210,721Z"/><path class="cls-25" d="M210,721a1.26,1.26,0,0,0-2.45,0c-2.79,6.6-10.11,25.14-10.11,52.64,0,34.7,6.32,44.17,6.32,44.17s4.74,3.15,9.47,0c0,0,5.52-9.47,5.52-44.17C218.75,746.09,212.8,727.55,210,721Z"/><path class="cls-26" d="M210,721a1.25,1.25,0,0,0-2.43,0c-2.78,6.56-10.08,25-10.08,52.35,0,34.52,6.29,43.93,6.29,43.93s4.71,3.14,9.42,0c0,0,5.49-9.41,5.49-43.93C218.68,746,212.77,727.51,210,721Z"/><path class="cls-27" d="M210,720.94a1.25,1.25,0,0,0-2.42,0c-2.76,6.53-10,24.87-10,52.08,0,34.33,6.25,43.69,6.25,43.69s4.69,3.12,9.37,0c0,0,5.46-9.36,5.46-43.69C218.61,745.81,212.75,727.47,210,720.94Z"/><path class="cls-28" d="M210,720.94a1.24,1.24,0,0,0-2.4,0c-2.75,6.49-10,24.73-10,51.79,0,34.14,6.22,43.46,6.22,43.46s4.66,3.1,9.32,0c0,0,5.42-9.32,5.42-43.46C218.54,745.67,212.73,727.43,210,720.94Z"/><path class="cls-29" d="M210,720.93a1.24,1.24,0,0,0-2.4,0c-2.73,6.46-9.95,24.6-9.95,51.51,0,34,6.19,43.22,6.19,43.22s4.63,3.09,9.27,0c0,0,5.4-9.26,5.4-43.22C218.48,745.53,212.7,727.39,210,720.93Z"/><path class="cls-29" d="M210,720.93a1.23,1.23,0,0,0-2.38,0c-2.72,6.42-9.91,24.46-9.91,51.23,0,33.77,6.15,43,6.15,43s4.61,3.07,9.22,0c0,0,5.37-9.21,5.37-43C218.41,745.39,212.68,727.35,210,720.93Z"/><path class="cls-30" d="M210,720.92a1.22,1.22,0,0,0-2.37,0c-2.7,6.39-9.87,24.33-9.87,51,0,33.59,6.12,42.75,6.12,42.75s4.59,3,9.17,0c0,0,5.34-9.16,5.34-42.75C218.34,745.25,212.66,727.31,210,720.92Z"/><path class="cls-30" d="M209.94,720.92a1.21,1.21,0,0,0-2.35,0c-2.69,6.35-9.83,24.19-9.83,50.66,0,33.41,6.08,42.52,6.08,42.52s4.56,3,9.12,0c0,0,5.31-9.11,5.31-42.52C218.27,745.11,212.64,727.27,209.94,720.92Z"/><path class="cls-31" d="M209.93,720.91a1.21,1.21,0,0,0-2.34,0c-2.67,6.32-9.79,24.07-9.79,50.39,0,33.21,6.06,42.27,6.06,42.27s4.53,3,9.06,0c0,0,5.28-9.06,5.28-42.27C218.2,745,212.61,727.23,209.93,720.91Z"/><path class="cls-32" d="M209.93,720.91a1.2,1.2,0,0,0-2.33,0c-2.66,6.28-9.75,23.93-9.75,50.1,0,33,6,42,6,42s4.51,3,9,0c0,0,5.26-9,5.26-42C218.14,744.84,212.59,727.19,209.93,720.91Z"/><path class="cls-33" d="M209.92,720.9a1.2,1.2,0,0,0-2.32,0c-2.64,6.25-9.7,23.8-9.7,49.82,0,32.85,6,41.81,6,41.81s4.48,3,9,0c0,0,5.23-9,5.23-41.81C218.07,744.7,212.57,727.15,209.92,720.9Z"/><path class="cls-34" d="M209.91,720.9a1.18,1.18,0,0,0-2.3,0c-2.63,6.2-9.67,23.66-9.67,49.54,0,32.66,5.95,41.57,5.95,41.57s4.46,3,8.92,0c0,0,5.19-8.91,5.19-41.57C218,744.56,212.54,727.1,209.91,720.9Z"/><path class="cls-35" d="M209.9,720.89a1.17,1.17,0,0,0-2.28,0C205,727.06,198,744.42,198,770.15c0,32.48,5.91,41.33,5.91,41.33s4.44,2.95,8.87,0c0,0,5.16-8.85,5.16-41.33C217.93,744.42,212.52,727.06,209.9,720.89Z"/><path class="cls-36" d="M209.89,720.89a1.17,1.17,0,0,0-2.27,0c-2.6,6.13-9.59,23.39-9.59,49,0,32.29,5.88,41.1,5.88,41.1s4.41,2.94,8.82,0c0,0,5.13-8.81,5.13-41.1C217.86,744.28,212.5,727,209.89,720.89Z"/><path class="cls-37" d="M209.89,720.88a1.17,1.17,0,0,0-2.26,0c-2.59,6.1-9.55,23.26-9.55,48.7,0,32.1,5.85,40.86,5.85,40.86s4.38,2.92,8.76,0c0,0,5.1-8.76,5.1-40.86C217.79,744.14,212.47,727,209.89,720.88Z"/><path class="cls-38" d="M209.88,720.88a1.16,1.16,0,0,0-2.25,0c-2.57,6.06-9.51,23.12-9.51,48.41,0,31.92,5.82,40.62,5.82,40.62s4.35,2.91,8.71,0c0,0,5.08-8.7,5.08-40.62C217.73,744,212.45,726.94,209.88,720.88Z"/><path class="cls-39" d="M209.87,720.87a1.15,1.15,0,0,0-2.23,0c-2.56,6-9.47,23-9.47,48.13,0,31.74,5.78,40.39,5.78,40.39s4.33,2.89,8.66,0c0,0,5-8.65,5-40.39C217.66,743.86,212.43,726.9,209.87,720.87Z"/><path class="cls-40" d="M209.86,720.86a1.15,1.15,0,0,0-2.22,0c-2.54,6-9.42,22.86-9.42,47.86,0,31.54,5.74,40.15,5.74,40.15s4.31,2.87,8.61,0c0,0,5-8.61,5-40.15C217.59,743.72,212.41,726.86,209.86,720.86Z"/><path class="cls-41" d="M209.85,720.86a1.13,1.13,0,0,0-2.2,0c-2.53,6-9.39,22.72-9.39,47.57,0,31.36,5.71,39.92,5.71,39.92s4.28,2.85,8.56,0c0,0,5-8.56,5-39.92C217.52,743.58,212.38,726.82,209.85,720.86Z"/><path class="cls-42" d="M209.85,720.85a1.14,1.14,0,0,0-2.2,0c-2.51,5.93-9.34,22.59-9.34,47.29,0,31.18,5.68,39.68,5.68,39.68s4.25,2.84,8.51,0c0,0,4.95-8.5,4.95-39.68C217.45,743.44,212.36,726.78,209.85,720.85Z"/><path class="cls-43" d="M209.84,720.85a1.12,1.12,0,0,0-2.18,0c-2.5,5.89-9.31,22.45-9.31,47,0,31,5.65,39.44,5.65,39.44s4.23,2.82,8.46,0c0,0,4.92-8.45,4.92-39.44C217.38,743.3,212.34,726.74,209.84,720.85Z"/><path class="cls-44" d="M209.83,720.84a1.12,1.12,0,0,0-2.17,0c-2.48,5.86-9.26,22.32-9.26,46.73,0,30.81,5.61,39.21,5.61,39.21s4.2,2.8,8.41,0c0,0,4.9-8.4,4.9-39.21C217.32,743.16,212.31,726.7,209.83,720.84Z"/><path class="cls-45" d="M209.82,720.84a1.11,1.11,0,0,0-2.15,0c-2.47,5.82-9.23,22.18-9.23,46.44,0,30.62,5.58,39,5.58,39s4.18,2.79,8.36,0c0,0,4.87-8.35,4.87-39C217.25,743,212.29,726.66,209.82,720.84Z"/><path class="cls-46" d="M209.81,720.83a1.1,1.1,0,0,0-2.14,0c-2.45,5.79-9.18,22-9.18,46.17,0,30.43,5.54,38.73,5.54,38.73s4.16,2.77,8.31,0c0,0,4.84-8.3,4.84-38.73C217.18,742.88,212.27,726.62,209.81,720.83Z"/><path class="cls-47" d="M209.81,720.83a1.1,1.1,0,0,0-2.13,0c-2.44,5.75-9.14,21.91-9.14,45.88,0,30.25,5.51,38.5,5.51,38.5s4.12,2.75,8.25,0c0,0,4.81-8.25,4.81-38.5C217.11,742.74,212.25,726.58,209.81,720.83Z"/><path class="cls-48" d="M209.8,720.82a1.1,1.1,0,0,0-2.12,0,113.67,113.67,0,0,0-9.1,45.6c0,30.07,5.48,38.27,5.48,38.27s4.1,2.73,8.2,0c0,0,4.78-8.2,4.78-38.27C217,742.6,212.22,726.54,209.8,720.82Z"/><path class="cls-49" d="M209.79,720.82a1.08,1.08,0,0,0-2.1,0,112.74,112.74,0,0,0-9.06,45.32c0,29.88,5.44,38,5.44,38s4.08,2.72,8.15,0c0,0,4.76-8.14,4.76-38C217,742.46,212.2,726.5,209.79,720.82Z"/><path class="cls-50" d="M209.78,720.81a1.08,1.08,0,0,0-2.09,0,112.09,112.09,0,0,0-9,45c0,29.69,5.41,37.79,5.41,37.79s4,2.7,8.11,0c0,0,4.72-8.1,4.72-37.79C216.91,742.32,212.18,726.46,209.78,720.81Z"/><path class="cls-51" d="M209.77,720.81a1.07,1.07,0,0,0-2.07,0,111.14,111.14,0,0,0-9,44.75c0,29.51,5.37,37.56,5.37,37.56s4,2.68,8.06,0c0,0,4.69-8,4.69-37.56C216.84,742.18,212.15,726.42,209.77,720.81Z"/><path class="cls-52" d="M209.77,720.8a1.07,1.07,0,0,0-2.07,0,110.56,110.56,0,0,0-8.94,44.48c0,29.32,5.35,37.32,5.35,37.32s4,2.66,8,0c0,0,4.66-8,4.66-37.32C216.77,742.05,212.13,726.38,209.77,720.8Z"/><path class="cls-53" d="M209.76,720.8a1.06,1.06,0,0,0-2,0,109.61,109.61,0,0,0-8.9,44.19c0,29.14,5.31,37.08,5.31,37.08a7.48,7.48,0,0,0,7.95,0s4.63-7.94,4.63-37.08C216.7,741.91,212.11,726.34,209.76,720.8Z"/><path class="cls-54" d="M209.75,720.79a1.05,1.05,0,0,0-2,0,109,109,0,0,0-8.85,43.92c0,28.94,5.27,36.84,5.27,36.84s4,2.63,7.9,0c0,0,4.6-7.9,4.6-36.84C216.63,741.77,212.09,726.3,209.75,720.79Z"/><path class="cls-55" d="M209.74,720.79a1,1,0,0,0-2,0,108,108,0,0,0-8.82,43.63c0,28.76,5.24,36.61,5.24,36.61s3.93,2.61,7.85,0c0,0,4.58-7.85,4.58-36.61C216.57,741.63,212.06,726.26,209.74,720.79Z"/><path class="cls-56" d="M209.74,720.78a1,1,0,0,0-2,0A107.44,107.44,0,0,0,199,764.13c0,28.58,5.2,36.37,5.2,36.37a7.34,7.34,0,0,0,7.8,0s4.55-7.79,4.55-36.37C216.5,741.49,212,726.22,209.74,720.78Z"/><path class="cls-57" d="M209.73,720.78a1,1,0,0,0-2,0A106.46,106.46,0,0,0,199,763.85c0,28.39,5.18,36.13,5.18,36.13a7.28,7.28,0,0,0,7.74,0s4.52-7.74,4.52-36.13C216.43,741.35,212,726.18,209.73,720.78Z"/><path class="cls-58" d="M209.72,720.77a1,1,0,0,0-2,0A105.86,105.86,0,0,0,199,763.56c0,28.21,5.14,35.9,5.14,35.9a7.26,7.26,0,0,0,7.7,0s4.48-7.69,4.48-35.9C216.36,741.21,212,726.14,209.72,720.77Z"/><path class="cls-59" d="M209.71,720.77a1,1,0,0,0-2,0,104.86,104.86,0,0,0-8.66,42.5c0,28,5.11,35.67,5.11,35.67a7.22,7.22,0,0,0,7.65,0s4.45-7.65,4.45-35.67C216.29,741.07,212,726.1,209.71,720.77Z"/><path class="cls-60" d="M209.7,720.76a1,1,0,0,0-2,0A104.28,104.28,0,0,0,199.13,763c0,27.83,5.07,35.42,5.07,35.42a7.16,7.16,0,0,0,7.6,0s4.42-7.59,4.42-35.42C216.22,740.93,212,726.06,209.7,720.76Z"/><path class="cls-61" d="M209.7,720.76a1,1,0,0,0-1.95,0,103.29,103.29,0,0,0-8.57,41.94c0,27.65,5,35.19,5,35.19a7.12,7.12,0,0,0,7.55,0s4.4-7.54,4.4-35.19C216.16,740.79,211.93,726,209.7,720.76Z"/><path class="cls-62" d="M209.69,720.75a1,1,0,0,0-1.94,0,102.64,102.64,0,0,0-8.53,41.66c0,27.47,5,35,5,35a7.08,7.08,0,0,0,7.5,0s4.37-7.49,4.37-35C216.09,740.65,211.9,726,209.69,720.75Z"/><path class="cls-63" d="M209.68,720.75a1,1,0,0,0-1.92,0,101.72,101.72,0,0,0-8.49,41.38c0,27.28,5,34.72,5,34.72a7,7,0,0,0,7.44,0s4.34-7.44,4.34-34.72C216,740.51,211.88,725.93,209.68,720.75Z"/><path class="cls-64" d="M209.67,720.74a1,1,0,0,0-1.91,0,101.07,101.07,0,0,0-8.45,41.1c0,27.09,4.94,34.48,4.94,34.48a6.94,6.94,0,0,0,7.39,0s4.31-7.39,4.31-34.48C216,740.37,211.86,725.89,209.67,720.74Z"/><path class="cls-65" d="M209.66,720.74a1,1,0,0,0-1.89,0,100.13,100.13,0,0,0-8.41,40.81c0,26.91,4.9,34.25,4.9,34.25a6.9,6.9,0,0,0,7.34,0s4.28-7.34,4.28-34.25C215.88,740.23,211.83,725.85,209.66,720.74Z"/><path class="cls-66" d="M209.66,720.73a1,1,0,0,0-1.89,0,99.49,99.49,0,0,0-8.37,40.54c0,26.72,4.87,34,4.87,34a6.88,6.88,0,0,0,7.3,0s4.25-7.29,4.25-34C215.82,740.09,211.81,725.81,209.66,720.73Z"/><path class="cls-67" d="M209.65,720.73a1,1,0,0,0-1.87,0A98.56,98.56,0,0,0,199.45,761c0,26.54,4.83,33.77,4.83,33.77a6.82,6.82,0,0,0,7.25,0s4.22-7.23,4.22-33.77C215.75,740,211.79,725.77,209.65,720.73Z"/><path class="cls-68" d="M209.64,720.72a1,1,0,0,0-1.86,0,98,98,0,0,0-8.28,40c0,26.35,4.8,33.54,4.8,33.54a6.75,6.75,0,0,0,7.19,0s4.19-7.19,4.19-33.54C215.68,739.81,211.76,725.73,209.64,720.72Z"/><path class="cls-68" d="M209.63,720.72a1,1,0,0,0-1.84,0,97,97,0,0,0-8.25,39.69c0,26.16,4.77,33.3,4.77,33.3a6.72,6.72,0,0,0,7.14,0s4.16-7.14,4.16-33.3C215.61,739.67,211.74,725.69,209.63,720.72Z"/><path class="cls-69" d="M209.62,720.71a.94.94,0,0,0-1.83,0,96.39,96.39,0,0,0-8.2,39.41c0,26,4.73,33.07,4.73,33.07a6.68,6.68,0,0,0,7.09,0s4.13-7.09,4.13-33.07C215.54,739.53,211.72,725.65,209.62,720.71Z"/><path class="cls-70" d="M209.62,720.71a.94.94,0,0,0-1.82,0,95.4,95.4,0,0,0-8.17,39.12c0,25.8,4.7,32.83,4.7,32.83a6.62,6.62,0,0,0,7,0s4.1-7,4.1-32.83C215.47,739.39,211.7,725.61,209.62,720.71Z"/><path class="cls-71" d="M209.61,720.7a.94.94,0,0,0-1.81,0,94.82,94.82,0,0,0-8.12,38.85c0,25.61,4.66,32.59,4.66,32.59a6.58,6.58,0,0,0,7,0s4.08-7,4.08-32.59C215.41,739.25,211.67,725.57,209.61,720.7Z"/><path class="cls-72" d="M209.6,720.7a.92.92,0,0,0-1.79,0,93.88,93.88,0,0,0-8.09,38.56c0,25.42,4.64,32.36,4.64,32.36a6.54,6.54,0,0,0,6.94,0s4-6.94,4-32.36C215.34,739.12,211.65,725.53,209.6,720.7Z"/><path class="cls-72" d="M209.59,720.69a.91.91,0,0,0-1.77,0,93.06,93.06,0,0,0-8,38.28c0,25.24,4.6,32.13,4.6,32.13a6.5,6.5,0,0,0,6.89,0s4-6.89,4-32.13C215.27,739,211.63,725.49,209.59,720.69Z"/><path class="cls-73" d="M209.58,720.69a.91.91,0,0,0-1.76,0,92.36,92.36,0,0,0-8,38c0,25,4.56,31.88,4.56,31.88a6.43,6.43,0,0,0,6.84,0s4-6.83,4-31.88C215.2,738.84,211.6,725.45,209.58,720.69Z"/><path class="cls-74" d="M209.58,720.68a.9.9,0,0,0-1.75,0,91.49,91.49,0,0,0-8,37.72c0,24.87,4.53,31.65,4.53,31.65a6.4,6.4,0,0,0,6.79,0s3.95-6.78,3.95-31.65C215.13,738.7,211.58,725.41,209.58,720.68Z"/><path class="cls-75" d="M209.57,720.68a.9.9,0,0,0-1.74,0,90.78,90.78,0,0,0-7.92,37.43c0,24.69,4.49,31.42,4.49,31.42a6.36,6.36,0,0,0,6.74,0s3.92-6.73,3.92-31.42C215.06,738.56,211.56,725.37,209.57,720.68Z"/><path class="cls-76" d="M209.56,720.67a.89.89,0,0,0-1.72,0A89.93,89.93,0,0,0,200,757.83c0,24.49,4.47,31.17,4.47,31.17a6.28,6.28,0,0,0,6.68,0s3.9-6.68,3.9-31.17C215,738.42,211.54,725.33,209.56,720.67Z"/><path class="cls-77" d="M209.55,720.67a.88.88,0,0,0-1.71,0A89.22,89.22,0,0,0,200,757.54c0,24.31,4.43,30.94,4.43,30.94a6.24,6.24,0,0,0,6.63,0s3.87-6.63,3.87-30.94C214.93,738.28,211.51,725.29,209.55,720.67Z"/><path class="cls-78" d="M209.54,720.66a.87.87,0,0,0-1.69,0A88.35,88.35,0,0,0,200,757.25c0,24.13,4.4,30.71,4.4,30.71a6.2,6.2,0,0,0,6.58,0s3.84-6.58,3.84-30.71C214.86,738.14,211.49,725.25,209.54,720.66Z"/><path class="cls-79" d="M209.54,720.66a.87.87,0,0,0-1.69,0A87.65,87.65,0,0,0,200.09,757c0,23.94,4.36,30.47,4.36,30.47a6.18,6.18,0,0,0,6.54,0s3.8-6.53,3.8-30.47C214.79,738,211.47,725.21,209.54,720.66Z"/><path class="cls-80" d="M209.53,720.65a.86.86,0,0,0-1.67,0,86.84,86.84,0,0,0-7.72,36c0,23.75,4.32,30.23,4.32,30.23a6.11,6.11,0,0,0,6.49,0s3.77-6.48,3.77-30.23C214.72,737.86,211.44,725.17,209.53,720.65Z"/><path class="cls-81" d="M209.52,720.65a.85.85,0,0,0-1.66,0,86.08,86.08,0,0,0-7.68,35.74c0,23.57,4.3,30,4.3,30a6.05,6.05,0,0,0,6.43,0s3.75-6.43,3.75-30C214.66,737.72,211.42,725.13,209.52,720.65Z"/><path class="cls-82" d="M209.51,720.64a.85.85,0,0,0-1.64,0,85.28,85.28,0,0,0-7.64,35.47c0,23.38,4.26,29.76,4.26,29.76a6,6,0,0,0,6.38,0s3.72-6.38,3.72-29.76C214.59,737.58,211.4,725.09,209.51,720.64Z"/><path class="cls-83" d="M209.5,720.64a.84.84,0,0,0-1.63,0,84.52,84.52,0,0,0-7.6,35.18c0,23.2,4.23,29.52,4.23,29.52a6,6,0,0,0,6.33,0s3.69-6.32,3.69-29.52C214.52,737.44,211.38,725.05,209.5,720.64Z"/><path class="cls-84" d="M209.5,720.63a.84.84,0,0,0-1.62,0,83.7,83.7,0,0,0-7.56,34.9c0,23,4.19,29.29,4.19,29.29a5.92,5.92,0,0,0,6.28,0s3.66-6.27,3.66-29.29C214.45,737.3,211.35,725,209.5,720.63Z"/><path class="cls-85" d="M209.49,720.63a.83.83,0,0,0-1.61,0,83,83,0,0,0-7.52,34.62c0,22.82,4.16,29,4.16,29a5.88,5.88,0,0,0,6.23,0s3.63-6.23,3.63-29C214.38,737.16,211.33,725,209.49,720.63Z"/><path class="cls-86" d="M209.48,720.62a.82.82,0,0,0-1.59,0A82.15,82.15,0,0,0,200.41,755c0,22.64,4.12,28.82,4.12,28.82a5.84,5.84,0,0,0,6.18,0s3.6-6.18,3.6-28.82C214.31,737,211.31,724.93,209.48,720.62Z"/><path class="cls-87" d="M209.47,720.62a.81.81,0,0,0-1.58,0,81.41,81.41,0,0,0-7.43,34.06c0,22.45,4.09,28.57,4.09,28.57a5.77,5.77,0,0,0,6.13,0s3.57-6.12,3.57-28.57C214.25,736.88,211.28,724.88,209.47,720.62Z"/><path class="cls-88" d="M209.47,720.61a.81.81,0,0,0-1.57,0,80.55,80.55,0,0,0-7.4,33.78c0,22.27,4.06,28.34,4.06,28.34a5.71,5.71,0,0,0,6.08,0s3.54-6.07,3.54-28.34C214.18,736.74,211.26,724.84,209.47,720.61Z"/><path class="cls-89" d="M209.46,720.61a.8.8,0,0,0-1.56,0,79.84,79.84,0,0,0-7.35,33.49c0,22.09,4,28.11,4,28.11a5.67,5.67,0,0,0,6,0s3.51-6,3.51-28.11C214.11,736.6,211.24,724.8,209.46,720.61Z"/><path class="cls-90" d="M209.45,720.6a.79.79,0,0,0-1.54,0,79,79,0,0,0-7.32,33.22c0,21.89,4,27.87,4,27.87a5.63,5.63,0,0,0,6,0s3.48-6,3.48-27.87C214,736.46,211.22,724.76,209.45,720.6Z"/><path class="cls-91" d="M209.44,720.6a.79.79,0,0,0-1.53,0,78.29,78.29,0,0,0-7.27,32.93c0,21.71,4,27.63,4,27.63a5.57,5.57,0,0,0,5.93,0s3.45-5.92,3.45-27.63C214,736.32,211.19,724.72,209.44,720.6Z"/><path class="cls-92" d="M209.43,720.59a.78.78,0,0,0-1.51,0,77.47,77.47,0,0,0-7.24,32.65c0,21.53,3.93,27.4,3.93,27.4a5.51,5.51,0,0,0,5.87,0s3.42-5.87,3.42-27.4C213.9,736.19,211.17,724.68,209.43,720.59Z"/><path class="cls-93" d="M209.43,720.59a.78.78,0,0,0-1.51,0A76.78,76.78,0,0,0,200.73,753c0,21.34,3.89,27.16,3.89,27.16a5.48,5.48,0,0,0,5.82,0s3.4-5.82,3.4-27.16C213.84,736.05,211.15,724.64,209.43,720.59Z"/><path class="cls-94" d="M209.42,720.58a.77.77,0,0,0-1.49,0,76,76,0,0,0-7.15,32.09c0,21.15,3.85,26.92,3.85,26.92a5.41,5.41,0,0,0,5.77,0s3.37-5.77,3.37-26.92C213.77,735.91,211.12,724.6,209.42,720.58Z"/><path class="cls-95" d="M209.41,720.57a.77.77,0,0,0-1.48,0,75.33,75.33,0,0,0-7.11,31.81c0,21,3.82,26.69,3.82,26.69a5.39,5.39,0,0,0,5.73,0s3.33-5.72,3.33-26.69C213.7,735.77,211.1,724.56,209.41,720.57Z"/><path class="cls-96" d="M209.4,720.57a.75.75,0,0,0-1.46,0,74.43,74.43,0,0,0-7.07,31.53c0,20.78,3.78,26.45,3.78,26.45a5.35,5.35,0,0,0,5.68,0s3.3-5.67,3.3-26.45C213.63,735.63,211.08,724.52,209.4,720.57Z"/><path class="cls-97" d="M209.39,720.56a.75.75,0,0,0-1.45,0,73.78,73.78,0,0,0-7,31.25c0,20.6,3.76,26.22,3.76,26.22a5.29,5.29,0,0,0,5.62,0s3.27-5.62,3.27-26.22C213.56,735.49,211.05,724.48,209.39,720.56Z"/><path class="cls-98" d="M209.39,720.56a.74.74,0,0,0-1.44,0,72.87,72.87,0,0,0-7,31c0,20.42,3.72,26,3.72,26a5.23,5.23,0,0,0,5.57,0s3.25-5.56,3.25-26C213.5,735.35,211,724.44,209.39,720.56Z"/><path class="cls-1" d="M202.46,835a188.47,188.47,0,0,1-4.47-22.7,218.19,218.19,0,0,1-2-23.6,174.57,174.57,0,0,1,1.26-27.54c.23-1.78.16-5.31,1.94-6.06,3.23-1.36,10.16,6.92,13.45,12.18,0,0,2.18,3.5,3.28,13.82a139.45,139.45,0,0,1,.44,21,303.73,303.73,0,0,1-3.61,33.79h0C211.4,835.62,208.24,838.47,202.46,835Z"/><path class="cls-1" d="M202.43,834.19a187.59,187.59,0,0,1-4.4-22.47,217.15,217.15,0,0,1-2-23.37,174.19,174.19,0,0,1,1.25-27.53c.24-1.79.17-5.28,1.94-6.06,3.19-1.41,10,6.74,13.25,12,0,0,2.14,3.52,3.23,13.7a141.13,141.13,0,0,1,.43,20.83,301.84,301.84,0,0,1-3.56,33.78h0C211.26,834.85,208.14,837.67,202.43,834.19Z"/><path class="cls-2" d="M202.4,833.42a185.28,185.28,0,0,1-4.34-22.24,213.09,213.09,0,0,1-2-23.13,172.46,172.46,0,0,1,1.24-27.51c.24-1.81.19-5.26,1.93-6.07,3.17-1.46,9.87,6.57,13.06,11.86,0,.08,2.1,3.54,3.17,13.57a141.43,141.43,0,0,1,.43,20.63,298.16,298.16,0,0,1-3.51,33.79h0C211.12,834.08,208,836.87,202.4,833.42Z"/><path class="cls-3" d="M202.36,832.66a186.85,186.85,0,0,1-4.27-22,214.36,214.36,0,0,1-2-22.89,172.1,172.1,0,0,1,1.23-27.5c.24-1.81.21-5.24,1.92-6.06,3.15-1.52,9.73,6.39,12.86,11.69,0,.12,2.08,3.56,3.12,13.44a140.42,140.42,0,0,1,.43,20.44,297.16,297.16,0,0,1-3.46,33.79h0C211,833.31,207.94,836.06,202.36,832.66Z"/><path class="cls-4" d="M202.33,831.9a185.09,185.09,0,0,1-4.21-21.79,218.51,218.51,0,0,1-1.93-22.66A171.6,171.6,0,0,1,197.42,760c.25-1.83.22-5.22,1.92-6.07,3.12-1.57,9.58,6.22,12.66,11.53,0,.16,2,3.58,3.06,13.32a142.37,142.37,0,0,1,.42,20.24,296.37,296.37,0,0,1-3.4,33.79h0C210.83,832.54,207.84,835.26,202.33,831.9Z"/><path class="cls-4" d="M202.3,831.14a184.2,184.2,0,0,1-4.14-21.57,214.36,214.36,0,0,1-1.91-22.42,171.25,171.25,0,0,1,1.22-27.47c.25-1.84.24-5.2,1.91-6.07,3.1-1.63,9.44,6,12.47,11.37,0,.2,2,3.6,3,13.19a144.58,144.58,0,0,1,.41,20A297.49,297.49,0,0,1,211.93,832h0C210.69,831.77,207.74,834.46,202.3,831.14Z"/><path class="cls-5" d="M202.26,830.38A184,184,0,0,1,198.19,809a213.59,213.59,0,0,1-1.88-22.19,170.67,170.67,0,0,1,1.21-27.45c.25-1.85.26-5.18,1.9-6.08,3.08-1.68,9.3,5.87,12.28,11.21,0,.24,2,3.62,3,13.07a145,145,0,0,1,.41,19.84,294.94,294.94,0,0,1-3.29,33.79h0C210.55,831,207.64,833.66,202.26,830.38Z"/><path class="cls-6" d="M202.23,829.61a183.69,183.69,0,0,1-4-21.11,212.41,212.41,0,0,1-1.85-21.94,169.31,169.31,0,0,1,1.2-27.45c.26-1.86.28-5.16,1.89-6.08,3.06-1.73,9.17,5.7,12.08,11.05,0,.28,1.93,3.64,2.9,12.94a144.15,144.15,0,0,1,.4,19.64,292.46,292.46,0,0,1-3.23,33.8h0C210.4,830.23,207.54,832.86,202.23,829.61Z"/><path class="cls-6" d="M202.2,828.85A181.86,181.86,0,0,1,198.25,808a213.81,213.81,0,0,1-1.82-21.7,168.8,168.8,0,0,1,1.19-27.43c.26-1.88.29-5.14,1.89-6.08,3-1.79,9,5.52,11.88,10.88,0,.32,1.92,3.65,2.84,12.81a143.14,143.14,0,0,1,.4,19.45,292.65,292.65,0,0,1-3.18,33.8h0C210.26,829.46,207.44,832.05,202.2,828.85Z"/><path class="cls-7" d="M202.16,828.09a183.3,183.3,0,0,1-3.87-20.66,209.8,209.8,0,0,1-1.8-21.47,166.27,166.27,0,0,1,1.19-27.42c.25-1.88.3-5.12,1.87-6.08,3-1.85,8.88,5.35,11.69,10.72,0,.36,1.88,3.67,2.79,12.69a145.48,145.48,0,0,1,.39,19.24,294.8,294.8,0,0,1-3.12,33.8h0C210.12,828.69,207.34,831.25,202.16,828.09Z"/><path class="cls-8" d="M202.13,827.33a180.88,180.88,0,0,1-3.81-20.44,208.62,208.62,0,0,1-1.77-21.23,165.78,165.78,0,0,1,1.18-27.4c.26-1.9.32-5.11,1.86-6.09,3-1.9,8.74,5.18,11.5,10.56,0,.4,1.84,3.69,2.73,12.56a144.49,144.49,0,0,1,.39,19.05,295.46,295.46,0,0,1-3.07,33.8h0C210,827.92,207.24,830.45,202.13,827.33Z"/><path class="cls-8" d="M202.09,826.57a183.56,183.56,0,0,1-3.74-20.22c-.81-6.11-1.5-13.27-1.75-21A167.67,167.67,0,0,1,197.78,758c.26-1.9.33-5.08,1.86-6.09,3-2,8.59,5,11.29,10.4,0,.44,1.82,3.71,2.68,12.43a145.51,145.51,0,0,1,.38,18.85,293.82,293.82,0,0,1-3,33.81h0C209.83,827.15,207.14,829.65,202.09,826.57Z"/><path class="cls-9" d="M202.06,825.81a180,180,0,0,1-3.67-20,206.38,206.38,0,0,1-1.73-20.76,166.08,166.08,0,0,1,1.17-27.37c.26-1.92.35-5.07,1.85-6.1,2.94-2,8.45,4.83,11.1,10.24a44.65,44.65,0,0,1,2.62,12.31,144.38,144.38,0,0,1,.38,18.65,295.14,295.14,0,0,1-3,33.81h0C209.69,826.38,207,828.84,202.06,825.81Z"/><path class="cls-10" d="M202,825a180.54,180.54,0,0,1-3.61-19.76c-.79-6-1.46-13-1.7-20.52a165.76,165.76,0,0,1,1.16-27.36c.27-1.93.37-5,1.84-6.09,2.92-2.08,8.31,4.65,10.91,10.07a45.68,45.68,0,0,1,2.57,12.18,147.42,147.42,0,0,1,.37,18.46,298.42,298.42,0,0,1-2.9,33.8h0C209.55,825.61,206.94,828,202,825Z"/><path class="cls-11" d="M202,824.28a179.92,179.92,0,0,1-3.54-19.53c-.77-5.91-1.43-12.83-1.67-20.29a165.27,165.27,0,0,1,1.15-27.34c.27-1.94.39-5,1.83-6.1,2.9-2.13,9.14,4.12,10.72,9.91.14.54,1.71,3.77,2.51,12.05a144.8,144.8,0,0,1,.36,18.26,295.48,295.48,0,0,1-2.84,33.81h0C209.41,824.84,206.84,827.24,202,824.28Z"/><path class="cls-11" d="M202,823.52a181.17,181.17,0,0,1-3.48-19.31c-.76-5.84-1.41-12.68-1.64-20.05A163.88,163.88,0,0,1,198,756.83c.27-2,.4-5,1.83-6.1,2.87-2.19,9,4,10.51,9.75.16.58,1.68,3.79,2.46,11.93a147.58,147.58,0,0,1,.36,18.06,297.34,297.34,0,0,1-2.79,33.81h0C209.26,824.07,206.74,826.44,202,823.52Z"/><path class="cls-12" d="M201.93,822.76a177.43,177.43,0,0,1-3.41-19.09c-.75-5.77-1.39-12.53-1.62-19.8A163.49,163.49,0,0,1,198,756.55c.28-2,.42-5,1.82-6.11,2.85-2.25,8.8,3.81,10.32,9.59.16.62,1.65,3.81,2.4,11.8a146.61,146.61,0,0,1,.36,17.86,297.13,297.13,0,0,1-2.74,33.82h0C209.12,823.31,206.64,825.63,201.93,822.76Z"/><path class="cls-12" d="M201.89,822a180.7,180.7,0,0,1-3.34-18.86c-.73-5.71-1.36-12.39-1.59-19.57a162.13,162.13,0,0,1,1.12-27.31c.28-2,.44-5,1.81-6.11,2.83-2.31,8.64,3.65,10.13,9.43a44,44,0,0,1,2.35,11.68,148.21,148.21,0,0,1,.34,17.66c-.33,11.26-1.22,24.62-2.67,33.81h0C209,822.54,206.54,824.83,201.89,822Z"/><path class="cls-13" d="M201.86,821.23a181,181,0,0,1-3.28-18.63c-.72-5.64-1.33-12.23-1.57-19.33A162.73,162.73,0,0,1,198.13,756c.28-2,.45-5,1.81-6.11,2.8-2.37,8.46,3.49,9.93,9.26a45.23,45.23,0,0,1,2.29,11.55,147.22,147.22,0,0,1,.34,17.46c-.33,11.4-1.21,24.89-2.62,33.82h0C208.84,821.77,206.44,824,201.86,821.23Z"/><path class="cls-14" d="M201.83,820.47a179.15,179.15,0,0,1-3.22-18.41c-.7-5.57-1.31-12.08-1.54-19.09a162.44,162.44,0,0,1,1.11-27.28c.29-2,.47-5,1.8-6.11,2.78-2.43,8.3,3.33,9.74,9.1A45.46,45.46,0,0,1,212,770.1a148.62,148.62,0,0,1,.34,17.27c-.33,11.53-1.2,25.15-2.57,33.82h0C208.69,821,206.34,823.23,201.83,820.47Z"/><path class="cls-14" d="M201.79,819.71a180.8,180.8,0,0,1-3.14-18.18c-.7-5.5-1.29-11.94-1.52-18.86a160.94,160.94,0,0,1,1.1-27.26c.29-2,.48-4.94,1.79-6.12,2.75-2.49,8.14,3.17,9.54,8.94a45.93,45.93,0,0,1,2.18,11.3,147.36,147.36,0,0,1,.34,17.06c-.32,11.67-1.19,25.42-2.52,33.83h0C208.55,820.23,206.24,822.43,201.79,819.71Z"/><path class="cls-15" d="M201.76,819a179,179,0,0,1-3.08-18c-.68-5.43-1.26-11.79-1.49-18.62a158.61,158.61,0,0,1,1.09-27.25c.29-2,.5-4.92,1.78-6.12,2.73-2.55,8,3,9.35,8.78A47.58,47.58,0,0,1,211.54,769a149.61,149.61,0,0,1,.32,16.87c-.31,11.79-1.17,25.68-2.45,33.82h0C208.41,819.46,206.14,821.62,201.76,819Z"/><path class="cls-16" d="M201.72,818.19s-1.68-7.07-3-17.73c-.66-5.37-1.24-11.65-1.46-18.39a157.18,157.18,0,0,1,1.08-27.23c.29-2,.52-4.91,1.78-6.13,2.7-2.61,7.8,2.86,9.15,8.62a48.4,48.4,0,0,1,2.07,11,148.7,148.7,0,0,1,.32,16.67c-.31,11.93-1.16,26-2.4,33.83h0C208.27,818.69,206,820.82,201.72,818.19Z"/><path class="cls-16" d="M201.69,817.42s-1.65-7-2.95-17.5c-.65-5.3-1.21-11.49-1.43-18.15a156.91,156.91,0,0,1,1.07-27.22c.3-2,.53-4.89,1.77-6.12,2.68-2.68,7.63,2.69,9,8.45a49.26,49.26,0,0,1,2,10.92,150.21,150.21,0,0,1,.32,16.47c-.31,12.06-1.15,26.21-2.35,33.83h0C208.12,817.92,205.94,820,201.69,817.42Z"/><path class="cls-99" d="M201.66,816.66s-1.61-6.89-2.88-17.28c-.64-5.23-1.19-11.34-1.41-17.91a157.48,157.48,0,0,1,1.06-27.2c.3-2.06.55-4.88,1.76-6.13,2.66-2.74,7.47,2.53,8.76,8.29a49.74,49.74,0,0,1,2,10.79,147.32,147.32,0,0,1,.31,16.28c-.29,12.19-1.13,26.47-2.29,33.83h0C208,817.15,205.84,819.22,201.66,816.66Z"/><path class="cls-99" d="M201.62,815.9s-1.57-6.81-2.81-17c-.62-5.16-1.17-11.2-1.39-17.68A157,157,0,0,1,198.48,754c.3-2.07.56-4.87,1.76-6.14,2.62-2.8,7.29,2.37,8.56,8.13a51.73,51.73,0,0,1,1.91,10.67,151.75,151.75,0,0,1,.3,16.07c-.29,12.33-1.12,26.74-2.23,33.84h0C207.84,816.38,205.74,818.41,201.62,815.9Z"/><path class="cls-100" d="M201.59,815.14s-1.53-6.72-2.75-16.83c-.61-5.09-1.14-11-1.36-17.43a156.86,156.86,0,0,1,1.05-27.18c.31-2.08.58-4.85,1.75-6.14,2.6-2.87,7.13,2.21,8.37,8a52.64,52.64,0,0,1,1.85,10.54,151.16,151.16,0,0,1,.3,15.88c-.29,12.46-1.1,27-2.18,33.83h0C207.7,815.61,205.64,817.61,201.59,815.14Z"/><path class="cls-101" d="M201.56,814.38s-1.5-6.64-2.69-16.6c-.59-5-1.11-10.91-1.33-17.2a155.42,155.42,0,0,1,1-27.16c.31-2.1.59-4.84,1.74-6.14,2.57-2.94,7,2,8.18,7.8a53.54,53.54,0,0,1,1.79,10.41,153.22,153.22,0,0,1,.3,15.68c-.28,12.6-1.09,27.27-2.13,33.84h0C207.55,814.84,205.54,816.81,201.56,814.38Z"/><path class="cls-102" d="M201.52,813.62s-1.45-6.55-2.61-16.38c-.59-5-1.1-10.75-1.31-17a155.2,155.2,0,0,1,1-27.15c.31-2.1.61-4.82,1.73-6.14,2.55-3,6.8,1.88,8,7.64a54,54,0,0,1,1.74,10.29,149.87,149.87,0,0,1,.29,15.48c-.27,12.73-1.07,27.53-2.07,33.84h0C207.41,814.07,205.44,816,201.52,813.62Z"/><path class="cls-103" d="M201.49,812.85s-1.42-6.46-2.55-16.15c-.57-4.89-1.07-10.6-1.28-16.72a154.8,154.8,0,0,1,1-27.13c.32-2.12.62-4.81,1.73-6.15,2.52-3.06,6.62,1.72,7.78,7.48a56.17,56.17,0,0,1,1.69,10.16c.33,4.11.41,9.2.28,15.28-.27,12.87-1.06,27.8-2,33.85h0C207.27,813.3,205.34,815.2,201.49,812.85Z"/><path class="cls-104" d="M201.46,812.09s-1.38-6.37-2.49-15.92c-.55-4.83-1-10.46-1.25-16.49a153.59,153.59,0,0,1,1-27.12c.32-2.13.64-4.79,1.72-6.15,2.49-3.13,6.46,1.56,7.59,7.32a58.15,58.15,0,0,1,1.63,10c.33,4.08.4,9.1.28,15.09-.26,13-1,28.06-2,33.84h0C207.13,812.53,205.24,814.4,201.46,812.09Z"/><path class="cls-105" d="M201.42,811.33s-1.34-6.29-2.41-15.7c-.55-4.75-1-10.31-1.23-16.25a155.16,155.16,0,0,1,1-27.1c.33-2.14.65-4.78,1.71-6.16,2.46-3.19,6.29,1.39,7.4,7.16a59.08,59.08,0,0,1,1.57,9.91c.32,4,.39,9,.27,14.88-.25,13.13-1,28.33-1.9,33.85h0C207,811.76,205.14,813.6,201.42,811.33Z"/><path class="cls-106" d="M201.39,810.57s-1.3-6.2-2.35-15.48c-.53-4.68-1-10.16-1.21-16a154.86,154.86,0,0,1,1-27.09c.33-2.15.67-4.76,1.71-6.15,2.43-3.26,6.12,1.22,7.19,7a59.45,59.45,0,0,1,1.52,9.78c.31,4,.38,8.9.27,14.69-.24,13.26-1,28.59-1.85,33.85h0C206.84,811,205,812.8,201.39,810.57Z"/><path class="cls-107" d="M201.35,809.81s-1.26-6.12-2.28-15.25c-.52-4.62-1-10-1.18-15.78-.34-9-.23-18.84,1-27.07.34-2.16.68-4.75,1.7-6.16,2.4-3.33,5.95,1.06,7,6.83a62.29,62.29,0,0,1,1.47,9.65c.3,4,.36,8.81.26,14.49-.24,13.4-1,28.86-1.8,33.86h0C206.7,810.22,204.94,812,201.35,809.81Z"/><path class="cls-108" d="M201.32,809s-1.22-6-2.22-15c-.5-4.55-.94-9.86-1.15-15.54-.34-9-.24-18.86,1-27.06.33-2.17.68-4.73,1.68-6.16,2.37-3.39,5.79.9,6.81,6.67a66,66,0,0,1,1.41,9.53c.29,3.93.35,8.71.26,14.29-.23,13.53-1,29.12-1.74,33.85h0C206.56,809.45,204.84,811.19,201.32,809Z"/><path class="cls-109" d="M201.29,808.28s-1.19-5.94-2.15-14.79c-.49-4.49-.93-9.72-1.13-15.3-.35-9-.25-18.9,1-27.05.33-2.19.7-4.72,1.67-6.17,2.35-3.45,5.62.74,6.62,6.51a68.56,68.56,0,0,1,1.35,9.4c.29,3.9.34,8.61.25,14.1-.21,13.66-1,29.38-1.68,33.85h0C206.41,808.68,204.74,810.39,201.29,808.28Z"/><path class="cls-110" d="M201.25,807.52s-1.14-5.85-2.08-14.57c-.48-4.42-.9-9.57-1.1-15.06-.35-9-.26-18.92,1-27,.34-2.19.71-4.71,1.67-6.17,2.31-3.52,5.45.57,6.42,6.35a71.15,71.15,0,0,1,1.29,9.28c.28,3.86.33,8.51.25,13.89-.21,13.8-1,29.65-1.63,33.86h0C206.27,807.91,204.64,809.59,201.25,807.52Z"/><path class="cls-111" d="M201.22,806.76s-1.11-5.77-2-14.35c-.46-4.34-.87-9.42-1.07-14.82-.36-9-.27-18.94,1-27,.34-2.21.72-4.7,1.66-6.17,2.28-3.59,5.28.4,6.22,6.18a72.39,72.39,0,0,1,1.25,9.15c.26,3.82.31,8.41.24,13.7-.2,13.93-1,29.91-1.58,33.86h0C206.13,807.14,204.54,808.79,201.22,806.76Z"/><path class="cls-112" d="M201.19,806s-1.07-5.68-2-14.12c-.44-4.28-.85-9.27-1-14.59-.36-9-.28-19,.95-27,.34-2.22.74-4.68,1.65-6.17,2.25-3.66,5.11.23,6,6a75.08,75.08,0,0,1,1.19,9c.26,3.79.3,8.32.23,13.5-.18,14.07-.93,30.19-1.51,33.86h0C206,806.37,204.44,808,201.19,806Z"/><path class="cls-113" d="M201.15,805.24s-1-5.6-1.88-13.9c-.44-4.21-.83-9.12-1-14.35-.35-9-.28-19,.95-27,.35-2.23.75-4.67,1.65-6.18,2.21-3.72,4.94.07,5.83,5.86a80.21,80.21,0,0,1,1.13,8.9c.25,3.75.3,8.21.23,13.3-.18,14.2-.92,30.45-1.46,33.86h0C205.84,805.61,204.34,807.18,201.15,805.24Z"/><path class="cls-114" d="M201.12,804.47s-1-5.5-1.82-13.66c-.42-4.15-.8-9-1-14.12-.36-9-.29-19,.94-27a19.67,19.67,0,0,1,1.64-6.18c2.18-3.78,4.77-.1,5.64,5.7a83.16,83.16,0,0,1,1.07,8.77c.25,3.72.29,8.12.23,13.1-.17,14.33-.91,30.72-1.41,33.87h0C205.7,804.84,204.24,806.38,201.12,804.47Z"/><path class="cls-115" d="M201.09,803.71s-1-5.42-1.76-13.44c-.41-4.08-.78-8.83-1-13.88-.36-9-.3-19,.93-27a20.38,20.38,0,0,1,1.63-6.19c2.15-3.85,4.61-.26,5.44,5.54a84.22,84.22,0,0,1,1,8.64c.23,3.68.27,8,.22,12.91-.16,14.46-.9,31-1.36,33.87h0C205.56,804.07,204.14,805.58,201.09,803.71Z"/><path class="cls-116" d="M201.05,803s-.91-5.33-1.69-13.22c-.39-4-.75-8.67-.94-13.64-.37-9-.31-19.05.92-27A21.23,21.23,0,0,1,201,743c2.12-3.92,4.44-.44,5.25,5.37.23,1.65.71,4.32,1,8.52.22,3.64.26,7.92.21,12.7-.14,14.6-.88,31.25-1.29,33.87h0C205.42,803.3,204,804.77,201.05,803Z"/><path class="cls-117" d="M201,802.19s-.87-5.25-1.62-13c-.38-3.94-.73-8.53-.92-13.41-.37-9-.32-19.08.91-26.93a22,22,0,0,1,1.62-6.19c2.07-4,4.26-.6,5.05,5.21.23,1.69.67,4.34.91,8.39.21,3.61.25,7.83.21,12.51-.13,14.73-.87,31.51-1.24,33.87h0C205.27,802.53,203.94,804,201,802.19Z"/><path class="cls-118" d="M201,801.43s-.83-5.16-1.55-12.77c-.37-3.87-.71-8.38-.89-13.16-.37-9.07-.33-19.11.9-26.93a22.76,22.76,0,0,1,1.61-6.19c2-4,4.1-.77,4.86,5,.22,1.73.63,4.36.86,8.26.2,3.58.23,7.73.2,12.31-.12,14.87-.86,31.78-1.19,33.88h0C205.13,801.76,203.84,803.17,201,801.43Z"/><path class="cls-119" d="M201,800.66s-.79-5.07-1.49-12.54c-.35-3.8-.68-8.23-.86-12.92-.38-9.07-.33-19.13.89-26.91a24,24,0,0,1,1.6-6.2c2-4.12,3.93-.93,4.66,4.89.23,1.77.6,4.38.81,8.14.19,3.53.23,7.63.19,12.11-.1,15-.84,32-1.13,33.88h0C205,801,203.74,802.37,201,800.66Z"/><path class="cls-120" d="M200.92,799.9s-.76-5-1.43-12.31c-.33-3.74-.65-8.09-.84-12.69-.37-9.08-.33-19.16.89-26.9a24.53,24.53,0,0,1,1.6-6.2c2-4.18,3.76-1.1,4.46,4.73.22,1.81.56,4.4.75,8s.22,7.54.19,11.92c-.09,15.13-.83,32.3-1.07,33.87h0C204.85,800.22,203.64,801.56,200.92,799.9Z"/><path class="cls-121" d="M200.88,799.14s-.71-4.9-1.35-12.09c-.33-3.67-.63-7.93-.82-12.45-.37-9.09-.34-19.18.88-26.88a25.42,25.42,0,0,1,1.59-6.2c1.93-4.26,3.59-1.28,4.27,4.56.21,1.85.52,4.42.69,7.89s.21,7.43.19,11.71c-.08,15.27-.81,32.57-1,33.88h0C204.7,799.45,203.54,800.76,200.88,799.14Z"/><path class="cls-122" d="M200.85,798.38s-.68-4.81-1.29-11.86c-.31-3.61-.61-7.79-.79-12.22-.38-9.1-.35-19.2.87-26.87a27,27,0,0,1,1.58-6.2c1.9-4.32,3.42-1.45,4.08,4.4.21,1.89.48,4.44.64,7.76s.19,7.34.18,11.52c-.06,15.4-.8,32.83-1,33.88h0C204.56,798.68,203.44,800,200.85,798.38Z"/><path class="cls-123" d="M200.82,797.62s-.64-4.73-1.23-11.64c-.3-3.53-.58-7.64-.76-12-.38-9.1-.36-19.22.86-26.85a28.33,28.33,0,0,1,1.58-6.21c1.85-4.39,3.25-1.61,3.87,4.24.21,1.93.45,4.46.59,7.63.15,3.39.18,7.24.17,11.32,0,15.53-.78,33.1-.91,33.89h0C204.42,797.91,203.34,799.16,200.82,797.62Z"/><path class="cls-124" d="M200.78,796.85s-.6-4.63-1.16-11.41c-.28-3.46-.55-7.49-.73-11.74-.39-9.11-.37-19.25.85-26.84a29.7,29.7,0,0,1,1.57-6.21c1.82-4.45,3.08-1.78,3.68,4.08.2,2,.41,4.48.53,7.51.14,3.35.18,7.14.17,11.12,0,15.66-.77,33.36-.85,33.89h0C204.28,797.14,203.24,798.35,200.78,796.85Z"/><path class="cls-125" d="M200.75,796.09s-.56-4.55-1.09-11.18c-.27-3.4-.54-7.35-.71-11.51-.39-9.12-.38-19.27.84-26.82a31.84,31.84,0,0,1,1.56-6.22c1.78-4.51,2.92-2,3.49,3.92.2,2,.36,4.5.47,7.38.12,3.32.17,7.05.17,10.92,0,15.8-.76,33.63-.8,33.89h0C204.13,796.37,203.14,797.55,200.75,796.09Z"/><path class="cls-126" d="M200.72,795.33s-1.2-10.21-1.71-22.23-.35-25.82,2.38-33c3.08-8.11,3.86,5.8,3.87,21.73s-.74,33.89-.74,33.89C204,795.6,203,796.75,200.72,795.33Z"/><path class="cls-1" d="M215.9,835a157,157,0,0,0,4.69-23,202.73,202.73,0,0,0,1.86-24.8,185.1,185.1,0,0,0-2-30.16c-.76-5-4.17-18.87-4.76-19-2.95-.61-8.81,13.24-11.6,36.42a100.76,100.76,0,0,0-2.14,22c0,8.09.43,18.93.54,38.53.66-.13,1.46.92,3.37,1.48S210.77,837.05,215.9,835Z"/><path class="cls-1" d="M215.7,738.17c-2.93-.71-8.76,13.13-11.53,36.19-.34,1.75-.63,3.36-.88,4.89a98.18,98.18,0,0,0-1.25,17c0,8.09.41,18.9.52,38.32.66-.12,1.45.92,3.35,1.47s4.91.62,10-1.47a156.66,156.66,0,0,0,4.66-22.86,200.23,200.23,0,0,0,1.85-24.64,183.14,183.14,0,0,0-2-30C219.66,752.07,216.28,738.31,215.7,738.17Z"/><path class="cls-2" d="M215.73,738.34c-2.89-.79-8.69,13-11.45,36-.34,1.74-.63,3.34-.87,4.86a98.19,98.19,0,0,0-1.26,16.93c0,8.1.4,18.88.51,38.12.65-.12,1.44.92,3.32,1.46s4.88.61,9.94-1.46a155.93,155.93,0,0,0,4.63-22.71A199.72,199.72,0,0,0,222.39,787a182.41,182.41,0,0,0-2-29.87C219.66,752.18,216.32,738.5,215.73,738.34Z"/><path class="cls-3" d="M215.77,738.52c-2.86-.88-8.64,12.92-11.38,35.75-.34,1.73-.62,3.33-.87,4.84A99.16,99.16,0,0,0,202.27,796c0,8.1.38,18.86.49,37.93.64-.12,1.43.9,3.3,1.45s4.85.6,9.87-1.46a155.19,155.19,0,0,0,4.6-22.56A199.19,199.19,0,0,0,222.36,787a182.84,182.84,0,0,0-2-29.74C219.67,752.29,216.36,738.69,215.77,738.52Z"/><path class="cls-4" d="M215.81,738.69c-2.84-1-8.58,12.83-11.31,35.54-.34,1.72-.62,3.31-.86,4.81a99.12,99.12,0,0,0-1.25,16.75c0,8.11.36,18.84.47,37.73.64-.12,1.41.9,3.27,1.44s4.82.6,9.81-1.45a153.78,153.78,0,0,0,4.56-22.41A198.53,198.53,0,0,0,222.33,787a183.25,183.25,0,0,0-1.92-29.6C219.67,752.39,216.39,738.89,215.81,738.69Z"/><path class="cls-5" d="M215.84,738.87c-2.8-1-8.52,12.72-11.23,35.31-.34,1.71-.62,3.29-.86,4.79a99.18,99.18,0,0,0-1.24,16.66c0,8.12.34,18.82.44,37.53.64-.12,1.41.89,3.26,1.43s4.79.6,9.74-1.44a153.44,153.44,0,0,0,4.53-22.26,198.18,198.18,0,0,0,1.82-24,181.43,181.43,0,0,0-1.9-29.47C219.68,752.5,216.43,739.08,215.84,738.87Z"/><path class="cls-5" d="M215.88,739c-2.77-1.11-8.46,12.62-11.16,35.1-.33,1.7-.62,3.27-.85,4.76a99.27,99.27,0,0,0-1.24,16.58c0,8.12.32,18.79.42,37.33.64-.12,1.4.88,3.24,1.41s4.75.6,9.67-1.43a152.71,152.71,0,0,0,4.5-22.11,197.52,197.52,0,0,0,1.81-23.82,181.84,181.84,0,0,0-1.87-29.33C219.68,752.6,216.47,739.28,215.88,739Z"/><path class="cls-6" d="M215.91,739.22c-2.73-1.19-8.4,12.51-11.09,34.87-.32,1.69-.6,3.26-.84,4.74a99.35,99.35,0,0,0-1.23,16.49c-.05,8.13.3,18.78.4,37.13.63-.12,1.39.88,3.21,1.4s4.73.6,9.61-1.42a152,152,0,0,0,4.47-22,195,195,0,0,0,1.8-23.66,181.12,181.12,0,0,0-1.84-29.19C219.68,752.71,216.51,739.48,215.91,739.22Z"/><path class="cls-7" d="M216,739.39c-2.7-1.26-8.34,12.42-11,34.66-.32,1.68-.6,3.23-.84,4.71a101.55,101.55,0,0,0-1.23,16.4c-.05,8.14.29,18.76.39,36.93.62-.11,1.38.87,3.19,1.4s4.69.58,9.54-1.42a151.25,151.25,0,0,0,4.44-21.81,196.72,196.72,0,0,0,1.79-23.49,180.38,180.38,0,0,0-1.81-29.06C219.69,752.82,216.55,739.67,216,739.39Z"/><path class="cls-7" d="M216,739.57c-2.65-1.34-8.27,12.31-10.94,34.43-.32,1.67-.6,3.22-.83,4.69A100.43,100.43,0,0,0,203,795c-.06,8.15.26,18.74.37,36.74.62-.12,1.37.86,3.17,1.38s4.66.58,9.47-1.41a150.24,150.24,0,0,0,4.4-21.66,194,194,0,0,0,1.79-23.33,179.71,179.71,0,0,0-1.79-28.92C219.69,752.92,216.58,739.87,216,739.57Z"/><path class="cls-8" d="M216,739.74c-2.62-1.4-8.22,12.21-10.87,34.22-.32,1.66-.59,3.2-.83,4.66a100.55,100.55,0,0,0-1.22,16.22c-.07,8.15.24,18.72.35,36.54.61-.12,1.36.86,3.14,1.37s4.63.58,9.41-1.4a149.53,149.53,0,0,0,4.37-21.5,192,192,0,0,0,1.77-23.18,178.74,178.74,0,0,0-1.75-28.77C219.7,753,216.62,740.06,216,739.74Z"/><path class="cls-9" d="M216.06,739.92c-2.59-1.47-8.16,12.1-10.8,34-.32,1.66-.59,3.19-.82,4.64a99.51,99.51,0,0,0-1.22,16.13c-.07,8.16.22,18.7.32,36.34.62-.11,1.36.85,3.13,1.36s4.59.58,9.34-1.39a148.81,148.81,0,0,0,4.34-21.35,191.47,191.47,0,0,0,1.76-23A179.23,179.23,0,0,0,220.39,758C219.7,753.13,216.66,740.26,216.06,739.92Z"/><path class="cls-10" d="M216.09,740.09c-2.55-1.53-8.1,12-10.72,33.78-.32,1.64-.59,3.16-.82,4.61a100.73,100.73,0,0,0-1.21,16c-.08,8.16.2,18.67.3,36.14.61-.12,1.35.84,3.1,1.35s4.57.57,9.28-1.39a148.49,148.49,0,0,0,4.31-21.2,193.1,193.1,0,0,0,1.75-22.85,177.41,177.41,0,0,0-1.7-28.5C219.71,753.24,216.7,740.46,216.09,740.09Z"/><path class="cls-10" d="M216.13,740.27c-2.52-1.6-8,11.9-10.65,33.55-.32,1.64-.58,3.15-.81,4.59a99.68,99.68,0,0,0-1.21,16c-.09,8.17.18,18.65.28,35.94.6-.11,1.34.83,3.08,1.34s4.53.57,9.21-1.38a147.07,147.07,0,0,0,4.27-21,188.29,188.29,0,0,0,1.75-22.69,176.62,176.62,0,0,0-1.67-28.36C219.71,753.34,216.74,740.66,216.13,740.27Z"/><path class="cls-11" d="M216.16,740.44c-2.48-1.65-8,11.8-10.57,33.34-.31,1.62-.58,3.13-.81,4.56a100.89,100.89,0,0,0-1.21,15.87c-.09,8.18.17,18.64.27,35.74.6-.11,1.33.83,3.06,1.33s4.5.56,9.14-1.37a146.34,146.34,0,0,0,4.24-20.9A188,188,0,0,0,222,786.49a177.12,177.12,0,0,0-1.64-28.23C219.71,753.45,216.78,740.86,216.16,740.44Z"/><path class="cls-12" d="M216.2,740.62c-2.45-1.72-7.92,11.69-10.5,33.11-.31,1.62-.58,3.11-.8,4.54a99.83,99.83,0,0,0-1.21,15.78c-.1,8.19.15,18.62.25,35.55.59-.12,1.32.82,3,1.31s4.47.56,9.08-1.36a145.62,145.62,0,0,0,4.21-20.75A187.49,187.49,0,0,0,222,786.44a177.64,177.64,0,0,0-1.62-28.09C219.71,753.56,216.82,741.05,216.2,740.62Z"/><path class="cls-12" d="M216.23,740.79c-2.41-1.77-7.86,11.6-10.42,32.9-.31,1.6-.57,3.09-.8,4.51a99.89,99.89,0,0,0-1.2,15.69c-.1,8.19.13,18.6.22,35.35.6-.11,1.32.81,3,1.3s4.44.56,9-1.35a145.32,145.32,0,0,0,4.18-20.6,189,189,0,0,0,1.72-22.2,178.06,178.06,0,0,0-1.59-27.95C219.71,753.66,216.86,741.25,216.23,740.79Z"/><path class="cls-13" d="M216.27,741c-2.38-1.83-7.8,11.49-10.36,32.67-.3,1.6-.56,3.08-.78,4.49a100.06,100.06,0,0,0-1.2,15.61c-.11,8.19.11,18.57.2,35.14.59-.11,1.31.81,3,1.3s4.41.55,9-1.35a144.92,144.92,0,0,0,4.13-20.45,186.39,186.39,0,0,0,1.72-22,178.68,178.68,0,0,0-1.56-27.82C219.72,753.77,216.9,741.45,216.27,741Z"/><path class="cls-13" d="M216.3,741.14c-2.34-1.88-7.73,11.39-10.28,32.46-.3,1.58-.56,3.06-.78,4.46a100.23,100.23,0,0,0-1.19,15.52c-.12,8.2.09,18.55.18,34.95.59-.11,1.3.79,3,1.28s4.38.55,8.89-1.35a143.82,143.82,0,0,0,4.1-20.29,185.94,185.94,0,0,0,1.71-21.87,178,178,0,0,0-1.54-27.68C219.72,753.88,216.94,741.65,216.3,741.14Z"/><path class="cls-14" d="M216.34,741.32c-2.31-1.93-7.68,11.28-10.21,32.23-.3,1.58-.55,3-.78,4.44a100.41,100.41,0,0,0-1.18,15.43c-.13,8.21.07,18.53.16,34.75.58-.11,1.29.79,2.95,1.27s4.34.54,8.82-1.34A143.11,143.11,0,0,0,220.17,808a187.7,187.7,0,0,0,1.7-21.71,179.56,179.56,0,0,0-1.51-27.53C219.72,754,217,741.85,216.34,741.32Z"/><path class="cls-15" d="M216.38,741.49c-2.29-2-7.62,11.19-10.14,32-.3,1.56-.55,3-.77,4.41a101.76,101.76,0,0,0-1.19,15.34c-.13,8.22.05,18.51.15,34.55.57-.11,1.28.79,2.92,1.26s4.32.54,8.76-1.33a142.82,142.82,0,0,0,4-20,187.47,187.47,0,0,0,1.69-21.54,180.2,180.2,0,0,0-1.48-27.4C219.73,754.09,217,742.05,216.38,741.49Z"/><path class="cls-15" d="M216.41,741.67c-2.25-2-7.56,11.08-10.06,31.79-.29,1.56-.55,3-.77,4.39a101.88,101.88,0,0,0-1.18,15.25c-.13,8.23,0,18.49.12,34.35.58-.1,1.28.78,2.91,1.25s4.28.54,8.69-1.32a142.12,142.12,0,0,0,4-19.84,189.19,189.19,0,0,0,1.68-21.38,180.73,180.73,0,0,0-1.45-27.26C219.73,754.19,217.06,742.25,216.41,741.67Z"/><path class="cls-16" d="M216.45,741.84c-2.22-2.08-7.5,11-10,31.58-.29,1.55-.55,3-.76,4.36a102.1,102.1,0,0,0-1.18,15.16c-.14,8.23,0,18.48.1,34.16.57-.11,1.27.77,2.89,1.24s4.25.53,8.62-1.32a140.67,140.67,0,0,0,4-19.69,184.23,184.23,0,0,0,1.67-21.22A177.44,177.44,0,0,0,220.35,759C219.73,754.3,217.1,742.45,216.45,741.84Z"/><path class="cls-17" d="M216.48,742c-2.19-2.13-7.44,10.87-9.91,31.35-.29,1.54-.54,3-.76,4.34a102.38,102.38,0,0,0-1.17,15.08c-.15,8.23,0,18.45.08,34,.57-.1,1.26.76,2.86,1.23s4.22.53,8.56-1.31a140,140,0,0,0,3.94-19.54,183.83,183.83,0,0,0,1.66-21,178.09,178.09,0,0,0-1.39-27C219.74,754.41,217.13,742.65,216.48,742Z"/><path class="cls-18" d="M216.52,742.19c-2.16-2.18-7.38,10.78-9.84,31.14-.29,1.53-.54,2.95-.75,4.31a101.26,101.26,0,0,0-1.17,15c-.16,8.24,0,18.43.06,33.75.56-.1,1.25.76,2.84,1.22s4.19.53,8.49-1.3a139.7,139.7,0,0,0,3.91-19.39A186,186,0,0,0,221.71,786a178.63,178.63,0,0,0-1.36-26.85C219.74,754.51,217.17,742.85,216.52,742.19Z"/><path class="cls-19" d="M216.55,742.37c-2.13-2.23-7.32,10.67-9.76,30.91-.29,1.52-.54,2.94-.75,4.29a102.67,102.67,0,0,0-1.17,14.9c-.16,8.25,0,18.41,0,33.56.55-.11,1.24.75,2.81,1.2s4.16.52,8.43-1.29A139,139,0,0,0,220,806.7,183.06,183.06,0,0,0,221.68,786a176.69,176.69,0,0,0-1.34-26.71C219.74,754.62,217.21,743.05,216.55,742.37Z"/><path class="cls-19" d="M216.59,742.54c-2.11-2.27-7.26,10.57-9.69,30.7-.29,1.51-.53,2.91-.74,4.26A101.53,101.53,0,0,0,205,792.31c-.16,8.26-.06,18.39,0,33.36.56-.1,1.24.74,2.8,1.19s4.13.52,8.36-1.28A137.55,137.55,0,0,0,220,806.49a180.19,180.19,0,0,0,1.64-20.56,176.12,176.12,0,0,0-1.31-26.58C219.75,754.72,217.25,743.26,216.59,742.54Z"/><path class="cls-20" d="M216.62,742.72c-2.08-2.32-7.19,10.46-9.62,30.47-.28,1.5-.52,2.9-.73,4.24a103.25,103.25,0,0,0-1.16,14.72c-.17,8.27-.08,18.37,0,33.16.55-.1,1.23.74,2.78,1.19s4.09.51,8.29-1.28A137.28,137.28,0,0,0,220,806.28a180,180,0,0,0,1.63-20.4,176.68,176.68,0,0,0-1.28-26.44C219.75,754.83,217.29,743.46,216.62,742.72Z"/><path class="cls-20" d="M216.66,742.89c-2-2.36-7.14,10.37-9.55,30.26-.28,1.49-.52,2.88-.72,4.21A102.12,102.12,0,0,0,205.23,792c-.18,8.27-.1,18.34,0,33,.55-.11,1.21.72,2.75,1.17s4.07.51,8.23-1.27A136.59,136.59,0,0,0,220,806.07a182,182,0,0,0,1.62-20.24,176,176,0,0,0-1.26-26.3C219.75,754.93,217.33,743.66,216.66,742.89Z"/><path class="cls-21" d="M216.7,743.07c-2-2.41-7.08,10.26-9.48,30-.27,1.48-.51,2.87-.72,4.19a102.44,102.44,0,0,0-1.15,14.55c-.19,8.27-.12,18.33,0,32.76.54-.1,1.2.72,2.73,1.16s4,.51,8.16-1.26A135.9,135.9,0,0,0,220,805.86a181.69,181.69,0,0,0,1.61-20.07,176.58,176.58,0,0,0-1.23-26.16C219.76,755,217.36,743.86,216.7,743.07Z"/><path class="cls-22" d="M216.73,743.24c-2-2.45-7,10.16-9.4,29.82-.27,1.47-.51,2.84-.71,4.16a101,101,0,0,0-1.15,14.46c-.2,8.28-.14,18.31-.06,32.56.53-.1,1.19.72,2.71,1.15s4,.51,8.09-1.25a135.21,135.21,0,0,0,3.72-18.49,181.38,181.38,0,0,0,1.6-19.91,177.2,177.2,0,0,0-1.2-26C219.76,755.15,217.4,744.06,216.73,743.24Z"/><path class="cls-23" d="M216.77,743.42c-2-2.5-7,10.05-9.33,29.59-.27,1.46-.51,2.83-.71,4.14a102.85,102.85,0,0,0-1.15,14.37c-.2,8.29-.16,18.29-.08,32.37.54-.1,1.19.7,2.69,1.13s4,.5,8-1.24a134.19,134.19,0,0,0,3.68-18.34,178.42,178.42,0,0,0,1.6-19.75,175.21,175.21,0,0,0-1.18-25.88C219.77,755.25,217.44,744.27,216.77,743.42Z"/><path class="cls-24" d="M216.8,743.59c-2-2.54-6.9,10-9.25,29.38-.27,1.45-.5,2.81-.71,4.11a103.21,103.21,0,0,0-1.14,14.28c-.2,8.3-.18,18.27-.1,32.17.53-.1,1.18.7,2.67,1.13s3.94.49,8-1.24a133.54,133.54,0,0,0,3.65-18.18,178.52,178.52,0,0,0,1.59-19.59,175.91,175.91,0,0,0-1.15-25.75C219.77,755.36,217.47,744.47,216.8,743.59Z"/><path class="cls-25" d="M216.84,743.77c-1.93-2.58-6.84,9.85-9.18,29.15-.27,1.45-.5,2.8-.7,4.09a103.58,103.58,0,0,0-1.14,14.19c-.21,8.31-.2,18.25-.12,32,.53-.1,1.17.69,2.64,1.12s3.91.49,7.9-1.23a132.86,132.86,0,0,0,3.62-18,178.43,178.43,0,0,0,1.58-19.43A176.64,176.64,0,0,0,220.32,760C219.77,755.46,217.51,744.67,216.84,743.77Z"/><path class="cls-26" d="M216.87,743.94c-1.9-2.62-6.78,9.75-9.1,28.94-.27,1.43-.5,2.77-.7,4.06a103.88,103.88,0,0,0-1.13,14.11c-.22,8.31-.22,18.22-.14,31.77.52-.1,1.16.68,2.62,1.1s3.88.49,7.83-1.22a132.18,132.18,0,0,0,3.59-17.88,178.37,178.37,0,0,0,1.56-19.26,174.62,174.62,0,0,0-1.09-25.48C219.78,755.57,217.55,744.87,216.87,743.94Z"/><path class="cls-27" d="M216.91,744.12c-1.88-2.67-6.72,9.64-9,28.71-.27,1.43-.49,2.76-.69,4a104.16,104.16,0,0,0-1.13,14c-.23,8.32-.24,18.2-.16,31.57.52-.1,1.15.68,2.6,1.09s3.84.49,7.77-1.21a132.32,132.32,0,0,0,3.54-17.73,180.68,180.68,0,0,0,.5-44.44C219.78,755.68,217.58,745.08,216.91,744.12Z"/><path class="cls-28" d="M216.94,744.29c-1.86-2.71-6.66,9.55-9,28.5-.26,1.41-.48,2.74-.68,4a104.6,104.6,0,0,0-1.12,13.93c-.24,8.32-.26,18.19-.19,31.37.52-.09,1.15.67,2.58,1.08s3.82.48,7.71-1.2a131.65,131.65,0,0,0,3.51-17.58,180.62,180.62,0,0,0,.52-44.14C219.78,755.78,217.62,745.28,216.94,744.29Z"/><path class="cls-29" d="M217,744.47c-1.84-2.75-6.6,9.44-8.89,28.27-.25,1.41-.48,2.72-.67,4a105,105,0,0,0-1.13,13.84c-.24,8.33-.27,18.17-.2,31.18.51-.1,1.14.66,2.56,1.07s3.78.47,7.64-1.2a131,131,0,0,0,3.48-17.43,172.29,172.29,0,0,0,1.54-18.77,174.08,174.08,0,0,0-1-25.07C219.79,755.89,217.66,745.48,217,744.47Z"/><path class="cls-29" d="M217,744.64c-1.82-2.79-6.54,9.34-8.82,28.06-.25,1.39-.48,2.7-.67,4a105.4,105.4,0,0,0-1.12,13.75c-.25,8.34-.29,18.15-.22,31,.51-.1,1.13.65,2.54,1.06s3.75.47,7.57-1.19A130.33,130.33,0,0,0,219.75,804a174.59,174.59,0,0,0,1.53-18.61,173.23,173.23,0,0,0-1-24.92C219.79,756,217.69,745.68,217,744.64Z"/><path class="cls-30" d="M217.05,744.82c-1.8-2.84-6.48,9.23-8.74,27.83-.25,1.39-.47,2.69-.66,3.94a104.16,104.16,0,0,0-1.12,13.67c-.26,8.34-.31,18.12-.24,30.77.5-.09,1.12.65,2.51,1.05s3.72.47,7.51-1.18a130.14,130.14,0,0,0,3.42-17.13,174.59,174.59,0,0,0,1.52-18.45,174,174,0,0,0-.95-24.78C219.8,756.1,217.73,745.89,217.05,744.82Z"/><path class="cls-30" d="M217.09,745c-1.78-2.88-6.42,9.14-8.67,27.62-.25,1.37-.47,2.67-.66,3.91a104.53,104.53,0,0,0-1.11,13.58c-.26,8.35-.33,18.1-.26,30.58.5-.1,1.11.64,2.49,1s3.69.47,7.44-1.17a128.66,128.66,0,0,0,3.38-17,171.31,171.31,0,0,0,1.52-18.28,173.38,173.38,0,0,0-.92-24.65C219.8,756.21,217.76,746.09,217.09,745Z"/><path class="cls-31" d="M217.12,745.17c-1.76-2.92-6.36,9-8.59,27.39-.25,1.37-.47,2.65-.65,3.89a105,105,0,0,0-1.11,13.49c-.27,8.36-.35,18.08-.28,30.38.49-.09,1.1.63,2.46,1s3.66.47,7.38-1.16a128,128,0,0,0,3.35-16.83,173.78,173.78,0,0,0,1.51-18.12,172.79,172.79,0,0,0-.9-24.51C219.8,756.31,217.8,746.29,217.12,745.17Z"/><path class="cls-32" d="M217.16,745.34c-1.74-3-6.3,8.93-8.52,27.18-.25,1.36-.46,2.63-.65,3.86a107.46,107.46,0,0,0-1.11,13.4c-.27,8.36-.37,18.06-.3,30.18.49-.09,1.1.63,2.45,1s3.63.45,7.31-1.16a127.84,127.84,0,0,0,3.32-16.68,178.28,178.28,0,0,0,.63-42.33C219.81,756.42,217.83,746.5,217.16,745.34Z"/><path class="cls-33" d="M217.19,745.52c-1.72-3-6.24,8.82-8.44,27-.25,1.35-.46,2.62-.65,3.83a108.26,108.26,0,0,0-1.1,13.32c-.28,8.37-.39,18-.32,30,.49-.1,1.09.61,2.43,1s3.59.45,7.24-1.15a127.2,127.2,0,0,0,3.29-16.53,173.74,173.74,0,0,0,1.49-17.79,174.54,174.54,0,0,0-.84-24.24C219.81,756.52,217.87,746.7,217.19,745.52Z"/><path class="cls-34" d="M217.23,745.69c-1.7-3.05-6.18,8.72-8.37,26.74-.25,1.34-.46,2.59-.64,3.8a107,107,0,0,0-1.1,13.23c-.29,8.38-.41,18-.34,29.79.48-.09,1.08.61,2.4,1s3.57.45,7.18-1.14a125.71,125.71,0,0,0,3.25-16.38,167.82,167.82,0,0,0,1.49-17.63,174,174,0,0,0-.82-24.1C219.81,756.63,217.9,746.9,217.23,745.69Z"/><path class="cls-35" d="M217.27,745.87c-1.69-3.09-6.13,8.62-8.3,26.51-.24,1.33-.45,2.58-.64,3.78a107.45,107.45,0,0,0-1.09,13.15c-.3,8.38-.43,18-.36,29.58.48-.09,1.07.61,2.38,1s3.53.45,7.11-1.13a125.07,125.07,0,0,0,3.22-16.23A170.17,170.17,0,0,0,221.07,785a173.36,173.36,0,0,0-.79-24C219.82,756.73,217.94,747.11,217.27,745.87Z"/><path class="cls-36" d="M217.3,746c-1.66-3.13-6.06,8.52-8.23,26.3-.23,1.32-.44,2.56-.62,3.75a106.14,106.14,0,0,0-1.09,13.06c-.31,8.39-.45,18-.38,29.39.47-.09,1.06.59,2.36,1s3.5.45,7-1.12a124.92,124.92,0,0,0,3.19-16.08A167.72,167.72,0,0,0,221,785a171.13,171.13,0,0,0-.75-23.83C219.82,756.84,218,747.31,217.3,746Z"/><path class="cls-37" d="M217.34,746.22c-1.65-3.18-6,8.41-8.16,26.08-.23,1.3-.44,2.54-.62,3.72a106.65,106.65,0,0,0-1.08,13c-.32,8.4-.47,18-.41,29.19.47-.09,1.06.59,2.34,1s3.47.43,7-1.12a124.3,124.3,0,0,0,3.16-15.93A167.58,167.58,0,0,0,221,785a170.55,170.55,0,0,0-.73-23.69C219.83,757,218,747.51,217.34,746.22Z"/><path class="cls-38" d="M217.37,746.39c-1.63-3.22-5.94,8.31-8.08,25.86-.23,1.3-.43,2.52-.61,3.7a107.33,107.33,0,0,0-1.09,12.88c-.32,8.41-.48,17.94-.42,29,.47-.09,1.05.58,2.32.95s3.44.43,6.91-1.11a123.68,123.68,0,0,0,3.13-15.78,170.41,170.41,0,0,0,1.44-17,171.23,171.23,0,0,0-.7-23.54C219.83,757.05,218,747.71,217.37,746.39Z"/><path class="cls-39" d="M217.41,746.57c-1.61-3.26-5.88,8.21-8,25.64-.23,1.28-.43,2.5-.61,3.67a108.09,108.09,0,0,0-1.08,12.79c-.32,8.41-.5,17.92-.44,28.79.46-.08,1,.58,2.29.94s3.41.43,6.85-1.1a122.18,122.18,0,0,0,3.09-15.63,167.44,167.44,0,0,0,1.44-16.81,170.69,170.69,0,0,0-.67-23.41C219.83,757.16,218.07,747.92,217.41,746.57Z"/><path class="cls-40" d="M217.44,746.74c-1.59-3.3-5.82,8.11-7.93,25.42-.23,1.28-.43,2.49-.6,3.65a106.55,106.55,0,0,0-1.08,12.71c-.33,8.41-.52,17.9-.46,28.59.46-.09,1,.57,2.27.92s3.38.43,6.78-1.09a122.06,122.06,0,0,0,3.06-15.48,164.17,164.17,0,0,0,1.43-16.65,171.66,171.66,0,0,0-.64-23.27C219.84,757.26,218.11,748.12,217.44,746.74Z"/><path class="cls-41" d="M217.48,746.92c-1.58-3.35-5.76,8-7.86,25.2-.23,1.26-.42,2.47-.6,3.62A111.59,111.59,0,0,0,208,788.36c-.34,8.42-.54,17.88-.48,28.39.45-.08,1,.56,2.25.91s3.34.43,6.71-1.08a121.46,121.46,0,0,0,3-15.33,164.08,164.08,0,0,0,1.42-16.49,171.06,171.06,0,0,0-.62-23.13C219.84,757.37,218.14,748.32,217.48,746.92Z"/><path class="cls-42" d="M217.51,747.1c-1.56-3.4-5.7,7.89-7.78,25-.23,1.26-.42,2.45-.59,3.6a110.18,110.18,0,0,0-1.07,12.53c-.35,8.43-.56,17.86-.51,28.19.46-.08,1,.56,2.23.91s3.32.42,6.65-1.08a120.86,120.86,0,0,0,3-15.18c.65-4.67,1.17-10.21,1.41-16.32a172.19,172.19,0,0,0-.59-23C219.85,757.48,218.17,748.53,217.51,747.1Z"/><path class="cls-43" d="M217.55,747.27c-1.54-3.44-5.64,7.8-7.71,24.76-.22,1.25-.42,2.43-.59,3.57A111.12,111.12,0,0,0,208.19,788c-.36,8.44-.59,17.84-.53,28,.45-.09,1,.54,2.21.89s3.28.41,6.59-1.07a120.69,120.69,0,0,0,2.95-15c.65-4.62,1.17-10.11,1.41-16.16a169.9,169.9,0,0,0-.56-22.86C219.85,757.58,218.21,748.73,217.55,747.27Z"/><path class="cls-44" d="M217.59,747.45C216.06,744,212,755.14,210,772c-.22,1.24-.42,2.42-.58,3.55a112.07,112.07,0,0,0-1.07,12.35c-.36,8.45-.6,17.82-.54,27.8.44-.08,1,.54,2.19.88s3.25.41,6.52-1.06a120.68,120.68,0,0,0,2.92-14.87c.64-4.58,1.16-10,1.4-16a169.32,169.32,0,0,0-.54-22.72C219.85,757.69,218.24,748.93,217.59,747.45Z"/><path class="cls-45" d="M217.62,747.62c-1.51-3.52-5.52,7.59-7.56,24.32-.22,1.23-.41,2.39-.58,3.52a113.12,113.12,0,0,0-1.06,12.26c-.37,8.46-.62,17.8-.56,27.6.44-.08,1,.54,2.16.87s3.22.41,6.46-1.05a120.11,120.11,0,0,0,2.89-14.72c.63-4.54,1.15-9.91,1.39-15.84a170.52,170.52,0,0,0-.51-22.59C219.86,757.79,218.27,749.14,217.62,747.62Z"/><path class="cls-46" d="M217.66,747.8c-1.5-3.57-5.46,7.48-7.5,24.09-.21,1.22-.4,2.38-.57,3.5a113.75,113.75,0,0,0-1.05,12.18c-.38,8.45-.64,17.77-.58,27.4.43-.08,1,.52,2.14.85s3.19.41,6.39-1a119.55,119.55,0,0,0,2.86-14.57c.63-4.49,1.13-9.81,1.38-15.68a171.64,171.64,0,0,0-.48-22.45C219.86,757.9,218.3,749.34,217.66,747.8Z"/><path class="cls-47" d="M217.69,748c-1.48-3.61-5.4,7.39-7.42,23.88-.21,1.21-.4,2.36-.56,3.47a112.28,112.28,0,0,0-1.05,12.09c-.39,8.46-.66,17.76-.61,27.2.44-.08,1,.52,2.12.85s3.16.4,6.33-1A119.54,119.54,0,0,0,219.33,800c.62-4.44,1.12-9.71,1.37-15.52a169.16,169.16,0,0,0-.46-22.3C219.87,758,218.34,749.54,217.69,748Z"/><path class="cls-48" d="M217.73,748.15c-1.47-3.66-5.34,7.28-7.35,23.65-.21,1.2-.39,2.35-.56,3.45a113.43,113.43,0,0,0-1,12c-.4,8.47-.68,17.74-.63,27,.43-.08,1,.51,2.1.84s3.13.4,6.26-1a118,118,0,0,0,2.79-14.27c.62-4.4,1.12-9.61,1.36-15.35a168.59,168.59,0,0,0-.42-22.17C219.87,758.11,218.37,749.75,217.73,748.15Z"/><path class="cls-49" d="M217.76,748.32c-1.45-3.7-5.28,7.18-7.27,23.44-.21,1.19-.39,2.32-.55,3.42a112,112,0,0,0-1,11.91c-.41,8.48-.7,17.72-.65,26.81.42-.08.95.5,2.08.82s3.09.39,6.19-1a117.47,117.47,0,0,0,2.76-14.12c.61-4.35,1.1-9.51,1.35-15.19a169.71,169.71,0,0,0-.39-22C219.87,758.22,218.4,750,217.76,748.32Z"/><path class="cls-50" d="M217.8,748.5c-1.44-3.75-5.22,7.07-7.2,23.21-.21,1.18-.39,2.31-.55,3.4a115.65,115.65,0,0,0-1,11.82c-.41,8.49-.71,17.7-.66,26.61.42-.08.94.5,2.05.81s3.06.39,6.13-1a116.93,116.93,0,0,0,2.73-14c.6-4.3,1.09-9.4,1.34-15a167.55,167.55,0,0,0-.37-21.9A93.89,93.89,0,0,0,217.8,748.5Z"/><path class="cls-51" d="M217.83,748.67c-1.42-3.79-5.16,7-7.12,23-.2,1.17-.38,2.29-.54,3.37a113.83,113.83,0,0,0-1,11.74c-.42,8.49-.73,17.67-.68,26.4.41-.07.93.49,2,.8s3,.39,6.06-1a117,117,0,0,0,2.7-13.82c.59-4.25,1.08-9.3,1.33-14.86a167,167,0,0,0-.34-21.76A93.24,93.24,0,0,0,217.83,748.67Z"/><path class="cls-52" d="M217.87,748.85c-1.41-3.84-5.1,6.87-7.05,22.77-.2,1.16-.38,2.27-.54,3.35a115.16,115.16,0,0,0-1,11.65c-.43,8.5-.75,17.65-.71,26.21.42-.08.93.48,2,.79s3,.38,6-1A115.43,115.43,0,0,0,219.21,799c.6-4.21,1.08-9.2,1.33-14.7a168.12,168.12,0,0,0-.31-21.62A93.21,93.21,0,0,0,217.87,748.85Z"/><path class="cls-53" d="M217.91,749c-1.39-3.87-5,6.77-7,22.56-.2,1.15-.38,2.25-.53,3.32a113.62,113.62,0,0,0-1,11.56c-.44,8.5-.78,17.63-.73,26,.41-.08.92.47,2,.78s3,.38,5.93-1a114.93,114.93,0,0,0,2.63-13.52c.59-4.16,1.06-9.1,1.32-14.53a167.74,167.74,0,0,0-.29-21.49A94,94,0,0,0,217.91,749Z"/><path class="cls-54" d="M217.94,749.2c-1.37-3.92-5,6.66-6.9,22.33-.2,1.15-.37,2.24-.53,3.3a115,115,0,0,0-1,11.47c-.45,8.51-.8,17.62-.75,25.81.4-.07.91.47,2,.77s2.93.37,5.86-1a114.43,114.43,0,0,0,2.6-13.37c.58-4.11,1.05-9,1.31-14.37a169,169,0,0,0-.26-21.35A94.29,94.29,0,0,0,217.94,749.2Z"/><path class="cls-55" d="M218,749.37c-1.36-4-4.93,6.57-6.84,22.12q-.28,1.69-.51,3.27c-.58,3.89-.81,7.31-1,11.38-.45,8.52-.81,17.6-.76,25.62.4-.08.9.46,1.94.75s2.91.37,5.8-1a114.53,114.53,0,0,0,2.57-13.22c.57-4.07,1-8.89,1.3-14.21a166.58,166.58,0,0,0-.23-21.21A94.69,94.69,0,0,0,218,749.37Z"/><path class="cls-56" d="M218,749.55c-1.35-4-4.86,6.46-6.76,21.89-.19,1.13-.36,2.2-.51,3.25-.56,3.86-.8,7.25-1,11.29-.46,8.53-.83,17.58-.78,25.42.39-.08.89.45,1.92.74s2.87.37,5.73-1a113,113,0,0,0,2.53-13.07c.57-4,1-8.79,1.3-14a167.85,167.85,0,0,0-.2-21.07A93.22,93.22,0,0,0,218,749.55Z"/><path class="cls-57" d="M218.05,749.72c-1.34-4.05-4.8,6.36-6.69,21.68-.19,1.11-.35,2.18-.51,3.22-.55,3.83-.79,7.2-1,11.21-.47,8.53-.85,17.55-.81,25.21.4-.07.89.45,1.91.74s2.84.36,5.66-1a112.5,112.5,0,0,0,2.5-12.92c.56-4,1-8.69,1.29-13.88a167.36,167.36,0,0,0-.18-20.93A92.62,92.62,0,0,0,218.05,749.72Z"/><path class="cls-58" d="M218.08,749.9c-1.32-4.1-4.74,6.25-6.61,21.45-.18,1.11-.35,2.17-.5,3.2-.55,3.8-.79,7.15-1,11.12-.48,8.54-.87,17.53-.83,25,.39-.08.88.43,1.88.72s2.81.36,5.6-.95a112,112,0,0,0,2.47-12.77c.56-3.93,1-8.59,1.28-13.72a166.81,166.81,0,0,0-.15-20.79A92.61,92.61,0,0,0,218.08,749.9Z"/><path class="cls-59" d="M218.12,750.07c-1.31-4.14-4.68,6.16-6.54,21.24-.18,1.09-.35,2.15-.5,3.17-.54,3.76-.78,7.1-1,11-.49,8.54-.89,17.51-.85,24.82.39-.07.87.43,1.86.71s2.78.36,5.53-.94a112.22,112.22,0,0,0,2.44-12.62c.55-3.88,1-8.49,1.27-13.55a168.37,168.37,0,0,0-.12-20.66A94.44,94.44,0,0,0,218.12,750.07Z"/><path class="cls-60" d="M218.15,750.25c-1.29-4.19-4.62,6-6.46,21-.18,1.09-.35,2.13-.49,3.15-.54,3.73-.78,7.05-1,10.94-.5,8.55-.91,17.49-.87,24.62.38-.07.86.43,1.84.7s2.74.35,5.46-.93A111.8,111.8,0,0,0,219,797.27c.54-3.83,1-8.38,1.26-13.39a167.91,167.91,0,0,0-.1-20.52A91.7,91.7,0,0,0,218.15,750.25Z"/><path class="cls-61" d="M218.19,750.42c-1.28-4.23-4.56,6-6.39,20.8-.18,1.07-.34,2.11-.49,3.12-.53,3.7-.77,7-1,10.85-.5,8.56-.92,17.48-.88,24.43.37-.08.85.41,1.81.68s2.72.35,5.41-.92A112,112,0,0,0,219,797.06c.54-3.79,1-8.28,1.25-13.23a165.31,165.31,0,0,0-.06-20.38A94,94,0,0,0,218.19,750.42Z"/><path class="cls-62" d="M218.23,750.6c-1.27-4.28-4.51,5.84-6.32,20.57-.18,1.07-.34,2.1-.48,3.1-.53,3.67-.77,6.94-1,10.77-.51,8.56-.94,17.45-.9,24.22.37-.07.84.41,1.79.68s2.68.34,5.34-.92A112.24,112.24,0,0,0,219,796.85c.53-3.74,1-8.18,1.24-13.06a164.93,164.93,0,0,0,0-20.25A92.44,92.44,0,0,0,218.23,750.6Z"/><path class="cls-63" d="M218.26,750.77c-1.25-4.32-4.44,5.75-6.24,20.36-.18,1-.34,2.07-.48,3.07-.52,3.63-.76,6.89-1,10.68-.52,8.57-1,17.43-.93,24,.37-.07.84.4,1.77.67s2.66.34,5.28-.91a111.9,111.9,0,0,0,2.3-12c.52-3.69,1-8.08,1.23-12.9a164.48,164.48,0,0,0,0-20.11A91.51,91.51,0,0,0,218.26,750.77Z"/><path class="cls-64" d="M218.3,751c-1.24-4.38-4.39,5.64-6.17,20.13-.18,1-.33,2.06-.47,3-.52,3.6-.76,6.84-1,10.59-.54,8.58-1,17.41-.95,23.82.37-.06.83.4,1.75.66s2.62.34,5.21-.9A111.58,111.58,0,0,0,219,796.43c.52-3.65,1-8,1.22-12.74a166,166,0,0,0,0-20A91.65,91.65,0,0,0,218.3,751Z"/><path class="cls-65" d="M218.33,751.12c-1.22-4.42-4.32,5.54-6.1,19.92-.17,1-.32,2-.46,3-.51,3.57-.75,6.79-1,10.5-.55,8.59-1,17.39-1,23.63.36-.07.82.39,1.73.64s2.59.33,5.14-.89a110,110,0,0,0,2.23-11.72c.52-3.6,1-7.87,1.22-12.57a163.6,163.6,0,0,0,.05-19.84A92,92,0,0,0,218.33,751.12Z"/><path class="cls-66" d="M218.37,751.3c-1.21-4.47-4.26,5.43-6,19.69-.16,1-.32,2-.45,3-.51,3.54-.75,6.73-1,10.41-.56,8.59-1,17.37-1,23.43.35-.07.81.38,1.7.63s2.56.33,5.08-.88A110.48,110.48,0,0,0,218.9,796c.51-3.56.94-7.78,1.21-12.42a163,163,0,0,0,.07-19.69A92.26,92.26,0,0,0,218.37,751.3Z"/><path class="cls-67" d="M218.4,751.47c-1.19-4.51-4.2,5.34-6,19.48-.16,1-.31,2-.45,3-.5,3.51-.74,6.68-1,10.32-.56,8.6-1,17.35-1,23.23.35-.06.8.38,1.68.63s2.53.32,5-.88a110.22,110.22,0,0,0,2.17-11.41c.5-3.52.92-7.68,1.2-12.26a164.58,164.58,0,0,0,.1-19.55A90.81,90.81,0,0,0,218.4,751.47Z"/><path class="cls-68" d="M218.44,751.65c-1.19-4.56-4.14,5.23-5.88,19.25-.16,1-.31,2-.44,3-.5,3.47-.74,6.63-1,10.24-.57,8.6-1.06,17.33-1,23,.35-.07.79.37,1.67.61s2.49.32,4.94-.87a110,110,0,0,0,2.14-11.26c.49-3.47.91-7.58,1.19-12.09a166.46,166.46,0,0,0,.13-19.42A92.74,92.74,0,0,0,218.44,751.65Z"/><path class="cls-68" d="M218.48,751.82c-1.18-4.6-4.09,5.13-5.81,19-.16,1-.31,2-.44,2.92-.49,3.44-.73,6.58-1,10.15-.58,8.61-1.08,17.31-1,22.83.35-.06.78.36,1.64.6s2.47.32,4.88-.86a109.79,109.79,0,0,0,2.11-11.11c.48-3.42.9-7.47,1.18-11.93a166,166,0,0,0,.16-19.28A93,93,0,0,0,218.48,751.82Z"/><path class="cls-69" d="M218.51,752c-1.16-4.65-4,5-5.73,18.81-.16,1-.3,2-.44,2.9-.48,3.41-.72,6.53-1,10.06-.59,8.62-1.1,17.29-1.07,22.63.34-.06.77.36,1.62.59s2.43.32,4.81-.85a108.94,108.94,0,0,0,2.07-11c.49-3.37.9-7.37,1.18-11.77a163.41,163.41,0,0,0,.18-19.14A91.51,91.51,0,0,0,218.51,752Z"/><path class="cls-70" d="M218.55,752.17c-1.15-4.69-4,4.93-5.66,18.6-.16,1-.3,1.93-.43,2.87-.48,3.38-.72,6.47-1,10-.6,8.63-1.12,17.27-1.09,22.44.33-.07.76.34,1.59.58s2.41.3,4.75-.85a108.79,108.79,0,0,0,2-10.81c.48-3.33.89-7.27,1.17-11.6a165.4,165.4,0,0,0,.21-19A91.77,91.77,0,0,0,218.55,752.17Z"/><path class="cls-71" d="M218.58,752.35c-1.13-4.74-3.9,4.82-5.58,18.37-.16,1-.3,1.92-.43,2.85-.46,3.34-.71,6.42-.95,9.88-.62,8.63-1.14,17.25-1.11,22.24.33-.06.75.34,1.57.57s2.37.3,4.68-.84c0,0,1.07-4.13,2-10.66.47-3.28.87-7.17,1.16-11.44a165,165,0,0,0,.24-18.87A91.89,91.89,0,0,0,218.58,752.35Z"/><path class="cls-72" d="M218.62,752.52c-1.12-4.79-3.85,4.72-5.51,18.16-.16,1-.29,1.9-.42,2.82-.46,3.31-.71,6.37-1,9.8-.62,8.63-1.15,17.22-1.13,22,.33-.06.75.34,1.56.56s2.34.3,4.61-.83c0,0,1-4.07,2-10.51.46-3.23.86-7.07,1.14-11.28a162.24,162.24,0,0,0,.27-18.73A89.2,89.2,0,0,0,218.62,752.52Z"/><path class="cls-72" d="M218.65,752.7c-1.1-4.84-3.78,4.61-5.43,17.93-.15,1-.29,1.88-.42,2.8-.45,3.28-.7,6.32-1,9.71-.63,8.64-1.17,17.2-1.15,21.84.33-.06.74.32,1.53.54s2.31.3,4.55-.83c0,0,1-4,1.94-10.35.46-3.19.86-7,1.14-11.11a162,162,0,0,0,.3-18.6A88.82,88.82,0,0,0,218.65,752.7Z"/><path class="cls-73" d="M218.69,752.87c-1.1-4.88-3.73,4.52-5.37,17.72-.14.94-.28,1.86-.4,2.77-.45,3.25-.7,6.27-.95,9.62-.64,8.65-1.2,17.19-1.17,21.64.32-.06.73.32,1.51.53s2.28.3,4.48-.82c0,0,1-4,1.91-10.2.45-3.14.85-6.86,1.13-11a161.46,161.46,0,0,0,.33-18.45A91.08,91.08,0,0,0,218.69,752.87Z"/><path class="cls-74" d="M218.72,753.05c-1.08-4.93-3.66,4.41-5.29,17.49-.14.94-.28,1.85-.4,2.75-.44,3.21-.69,6.21-.94,9.53-.66,8.66-1.22,17.17-1.19,21.44.32-.06.72.31,1.49.53s2.24.29,4.41-.82c0,0,1-3.89,1.88-10.05.45-3.09.84-6.76,1.12-10.79a161.16,161.16,0,0,0,.35-18.31A87.49,87.49,0,0,0,218.72,753.05Z"/><path class="cls-75" d="M218.76,753.22c-1.07-5-3.6,4.31-5.22,17.28-.14.92-.27,1.83-.39,2.72-.44,3.18-.69,6.16-.94,9.44-.67,8.67-1.24,17.15-1.21,21.25.31-.06.71.3,1.46.51s2.22.28,4.35-.81c0,0,1-3.84,1.85-9.9.44-3.05.82-6.66,1.11-10.62a160.92,160.92,0,0,0,.38-18.18A89.5,89.5,0,0,0,218.76,753.22Z"/><path class="cls-76" d="M218.8,753.4c-1.06-5-3.55,4.2-5.15,17.05-.14.92-.27,1.81-.39,2.7-.43,3.15-.68,6.11-.94,9.35-.67,8.67-1.25,17.13-1.23,21,.31-.06.71.3,1.45.5s2.18.28,4.28-.8c0,0,1-3.78,1.82-9.75.43-3,.81-6.56,1.1-10.46a160.5,160.5,0,0,0,.41-18A89.25,89.25,0,0,0,218.8,753.4Z"/><path class="cls-77" d="M218.83,753.57c-1-5.07-3.48,4.11-5.07,16.84-.14.9-.27,1.79-.38,2.67-.43,3.12-.68,6.06-.94,9.27-.68,8.67-1.27,17.1-1.25,20.84.31-.05.7.29,1.42.49s2.16.28,4.23-.79c0,0,.92-3.72,1.77-9.6.43-2.95.81-6.45,1.1-10.29a160.48,160.48,0,0,0,.43-17.91A88,88,0,0,0,218.83,753.57Z"/><path class="cls-78" d="M218.87,753.75c-1-5.12-3.43,4-5,16.61-.14.9-.26,1.78-.38,2.65-.42,3.09-.67,6-.93,9.18-.7,8.68-1.29,17.08-1.27,20.65.3-.06.69.28,1.4.47s2.12.28,4.16-.78c0,0,.9-3.66,1.74-9.45.42-2.91.8-6.35,1.09-10.13a160.09,160.09,0,0,0,.46-17.77A87.93,87.93,0,0,0,218.87,753.75Z"/><path class="cls-79" d="M218.9,753.92c-1-5.16-3.36,3.9-4.92,16.4-.14.88-.26,1.75-.38,2.62-.41,3-.66,5.95-.92,9.09-.71,8.69-1.31,17.06-1.29,20.45.3-.06.68.27,1.38.47a5.49,5.49,0,0,0,4.09-.78s.88-3.61,1.71-9.3c.41-2.86.79-6.25,1.08-10a159.7,159.7,0,0,0,.49-17.63A87.82,87.82,0,0,0,218.9,753.92Z"/><path class="cls-80" d="M218.94,754.1c-1-5.21-3.31,3.79-4.85,16.17-.13.88-.26,1.74-.37,2.6-.41,3-.67,5.9-.92,9-.72,8.7-1.33,17-1.31,20.25.29,0,.67.27,1.35.46a5.41,5.41,0,0,0,4-.77s.86-3.55,1.68-9.15c.41-2.81.78-6.15,1.07-9.8a162.19,162.19,0,0,0,.52-17.5A87.68,87.68,0,0,0,218.94,754.1Z"/><path class="cls-81" d="M219,754.27c-1-5.26-3.24,3.7-4.77,16-.13.86-.25,1.72-.37,2.57-.4,3-.66,5.85-.91,8.91-.74,8.71-1.35,17-1.34,20.06.29-.06.67.26,1.34.44a5.27,5.27,0,0,0,4-.76s.84-3.49,1.64-9c.41-2.77.77-6.05,1.07-9.64a159.38,159.38,0,0,0,.54-17.36A85.92,85.92,0,0,0,219,754.27Z"/><path class="cls-82" d="M219,754.45c-1-5.31-3.19,3.59-4.71,15.73-.12.86-.24,1.71-.35,2.55-.4,3-.66,5.8-.92,8.83-.74,8.7-1.36,17-1.35,19.85.29,0,.66.25,1.32.43a5.13,5.13,0,0,0,3.89-.75s.82-3.43,1.61-8.85c.4-2.72.76-5.94,1.06-9.48a158.93,158.93,0,0,0,.57-17.21A85.88,85.88,0,0,0,219,754.45Z"/><path class="cls-83" d="M219,754.62c-1-5.35-3.12,3.49-4.63,15.52-.12.84-.24,1.68-.35,2.52-.39,2.92-.65,5.75-.91,8.74-.75,8.71-1.38,17-1.37,19.65.28,0,.65.25,1.29.42a5,5,0,0,0,3.83-.74s.8-3.38,1.58-8.7c.39-2.67.75-5.84,1-9.31a156.33,156.33,0,0,0,.61-17.08A85.87,85.87,0,0,0,219,754.62Z"/><path class="cls-84" d="M219.08,754.8c-1-5.4-3.06,3.38-4.56,15.29-.12.84-.23,1.67-.34,2.5-.39,2.89-.65,5.69-.91,8.65-.77,8.72-1.41,17-1.39,19.46.28-.06.64.23,1.27.41a4.93,4.93,0,0,0,3.76-.74s.78-3.32,1.55-8.55c.38-2.63.74-5.74,1-9.15a156.06,156.06,0,0,0,.63-16.94A83.79,83.79,0,0,0,219.08,754.8Z"/><path class="cls-85" d="M219.12,755c-1-5.45-3,3.29-4.49,15.08-.12.83-.23,1.65-.34,2.47-.37,2.86-.64,5.64-.9,8.56-.78,8.73-1.43,16.94-1.41,19.26.27-.05.63.23,1.24.4a4.84,4.84,0,0,0,3.7-.73s.76-3.26,1.52-8.4c.37-2.58.73-5.64,1-9a158.44,158.44,0,0,0,.66-16.8A85.63,85.63,0,0,0,219.12,755Z"/><path class="cls-86" d="M219.15,755.15c-.93-5.5-2.94,3.18-4.41,14.85-.12.82-.23,1.64-.33,2.45-.37,2.83-.64,5.59-.9,8.47-.8,8.74-1.45,16.92-1.44,19.06.27-.05.63.23,1.23.39a4.75,4.75,0,0,0,3.63-.72s.74-3.2,1.48-8.24c.37-2.54.73-5.54,1-8.83a155.68,155.68,0,0,0,.69-16.67A83.37,83.37,0,0,0,219.15,755.15Z"/><path class="cls-87" d="M219.19,755.32c-.93-5.54-2.89,3.08-4.34,14.64-.12.81-.22,1.61-.33,2.42-.36,2.8-.63,5.54-.89,8.38-.81,8.74-1.47,16.9-1.46,18.87.27,0,.62.21,1.21.37a4.61,4.61,0,0,0,3.56-.71s.72-3.15,1.45-8.09c.37-2.49.72-5.44,1-8.67a155.45,155.45,0,0,0,.71-16.53A83.46,83.46,0,0,0,219.19,755.32Z"/><path class="cls-88" d="M219.22,755.5c-.91-5.6-2.82,3-4.26,14.41-.11.8-.22,1.6-.32,2.4-.36,2.76-.63,5.48-.9,8.3-.82,8.74-1.48,16.88-1.47,18.66.26,0,.61.21,1.18.36a4.49,4.49,0,0,0,3.5-.7s.7-3.09,1.42-7.94c.36-2.45.71-5.34,1-8.51a155.27,155.27,0,0,0,.74-16.39A81,81,0,0,0,219.22,755.5Z"/><path class="cls-89" d="M219.26,755.67c-.9-5.64-2.77,2.88-4.19,14.2-.11.79-.22,1.58-.32,2.37-.35,2.73-.62,5.43-.89,8.21-.83,8.75-1.5,16.86-1.49,18.46.26,0,.6.2,1.16.36a4.41,4.41,0,0,0,3.43-.7s.68-3,1.39-7.79c.35-2.4.69-5.24,1-8.34a155.3,155.3,0,0,0,.77-16.26A82.68,82.68,0,0,0,219.26,755.67Z"/><path class="cls-90" d="M219.29,755.85c-.88-5.69-2.7,2.77-4.11,14-.11.78-.22,1.56-.31,2.35-.35,2.7-.62,5.38-.89,8.12-.85,8.76-1.52,16.84-1.51,18.26.25,0,.58.2,1.13.35a4.29,4.29,0,0,0,3.37-.69s.66-3,1.35-7.64c.35-2.35.69-5.14,1-8.18a152.4,152.4,0,0,0,.79-16.12A78.82,78.82,0,0,0,219.29,755.85Z"/><path class="cls-91" d="M219.33,756c-.87-5.73-2.65,2.67-4,13.76-.11.77-.21,1.54-.31,2.31-.34,2.68-.62,5.34-.88,8-.86,8.77-1.54,16.82-1.53,18.07.25-.05.57.19,1.11.33a4.24,4.24,0,0,0,3.3-.68s.64-2.92,1.32-7.49c.34-2.31.68-5,1-8a152.24,152.24,0,0,0,.82-16A80.2,80.2,0,0,0,219.33,756Z"/><path class="cls-92" d="M219.36,756.2c-.86-5.79-2.58,2.56-4,13.53l-.3,2.29c-.33,2.64-.61,5.29-.87,8-.88,8.77-1.56,16.8-1.56,17.87.25-.05.57.18,1.1.32a4.1,4.1,0,0,0,3.23-.67s.62-2.86,1.29-7.34c.33-2.26.67-4.93,1-7.85a152.26,152.26,0,0,0,.85-15.84A77.84,77.84,0,0,0,219.36,756.2Z"/><path class="cls-93" d="M219.4,756.37c-.85-5.83-2.52,2.47-3.9,13.32-.1.75-.2,1.51-.29,2.26-.33,2.61-.61,5.23-.87,7.87-.89,8.77-1.58,16.77-1.58,17.66.24,0,.56.18,1.07.31a4,4,0,0,0,3.17-.66s.6-2.8,1.26-7.19c.33-2.21.66-4.83,1-7.69a149.34,149.34,0,0,0,.87-15.7A75.81,75.81,0,0,0,219.4,756.37Z"/><path class="cls-94" d="M219.44,756.55c-.84-5.88-2.47,2.36-3.83,13.09-.1.75-.19,1.49-.29,2.24-.32,2.58-.6,5.18-.87,7.78-.9,8.78-1.59,16.75-1.59,17.47.24,0,.55.16,1,.3a3.9,3.9,0,0,0,3.1-.66s.58-2.75,1.22-7c.33-2.17.66-4.73,1-7.53a149.22,149.22,0,0,0,.9-15.56A76.86,76.86,0,0,0,219.44,756.55Z"/><path class="cls-95" d="M219.47,756.72c-.82-5.93-2.4,2.26-3.75,12.88-.1.73-.19,1.47-.28,2.21-.32,2.55-.6,5.13-.87,7.69-.92,8.79-1.62,16.74-1.61,17.27.23,0,.54.16,1,.29a3.79,3.79,0,0,0,3-.65s.55-2.69,1.18-6.89c.32-2.12.65-4.62.94-7.36a143.87,143.87,0,0,0,.94-15.43A74.69,74.69,0,0,0,219.47,756.72Z"/><path class="cls-96" d="M219.51,756.9c-.82-6-2.35,2.15-3.68,12.65-.09.73-.19,1.46-.28,2.19-.31,2.51-.6,5.08-.86,7.6-.95,8.79-1.64,16.72-1.63,17.07.23,0,.53.16,1,.28a3.68,3.68,0,0,0,3-.64s.53-2.63,1.15-6.74c.31-2.07.64-4.52.93-7.2a143.38,143.38,0,0,0,1-15.29A75.68,75.68,0,0,0,219.51,756.9Z"/><path class="cls-97" d="M219.54,757.07c-.81-6-2.28,2.06-3.6,12.44l-.27,2.16c-.31,2.48-.6,5-.86,7.51-1,8.8-1.66,16.7-1.66,16.88.23,0,.53.14,1,.26a3.62,3.62,0,0,0,2.91-.63s.51-2.57,1.12-6.59c.3-2,.63-4.42.92-7a143.32,143.32,0,0,0,1-15.15A71.85,71.85,0,0,0,219.54,757.07Z"/><path class="cls-98" d="M217.06,795.33s1.12-5.7,2-13.31,1.51-17.13.52-24.77c-.85-6.5-2.43,3.12-3.8,14.35s-2.53,24.1-2.53,24.1C213.78,795.6,214.73,796.75,217.06,795.33Z"/></g><g id="Pink_Detail" data-name="Pink Detail"><ellipse class="cls-127" cx="206.85" cy="819.61" rx="0.58" ry="0.71"/><ellipse class="cls-127" cx="211.49" cy="823.96" rx="0.58" ry="0.52"/><ellipse class="cls-127" cx="206.56" cy="825.34" rx="0.58" ry="0.52"/><ellipse class="cls-127" cx="215.66" cy="788.88" rx="0.58" ry="0.52"/><ellipse class="cls-127" cx="207.55" cy="798.51" rx="0.58" ry="0.52"/><ellipse class="cls-127" cx="211.02" cy="799.21" rx="0.58" ry="0.52"/><ellipse class="cls-127" cx="219.72" cy="773.75" rx="0.58" ry="0.52"/><ellipse class="cls-127" cx="218.32" cy="778.57" rx="0.58" ry="0.52"/><ellipse class="cls-127" cx="214.27" cy="786.82" rx="0.58" ry="0.52"/><ellipse class="cls-127" cx="219.38" cy="786.82" rx="0.58" ry="0.52"/><ellipse class="cls-127" cx="214.74" cy="798.51" rx="0.58" ry="0.52"/><ellipse class="cls-127" cx="210.09" cy="803.05" rx="0.58" ry="0.52"/><ellipse class="cls-127" cx="203.71" cy="809.11" rx="0.58" ry="0.52"/><ellipse class="cls-127" cx="200.81" cy="802" rx="0.58" ry="0.52"/><ellipse class="cls-127" cx="201.27" cy="803.91" rx="0.58" ry="0.52"/><ellipse class="cls-127" cx="203.02" cy="801.91" rx="0.58" ry="0.52"/><ellipse class="cls-127" cx="208.7" cy="784.2" rx="0.58" ry="0.52"/><ellipse class="cls-127" cx="198.24" cy="810.66" rx="0.58" ry="0.52"/><ellipse class="cls-127" cx="199.42" cy="817.49" rx="0.58" ry="0.52"/><ellipse class="cls-127" cx="204.53" cy="806.54" rx="0.58" ry="0.52"/><ellipse class="cls-127" cx="218.45" cy="813.09" rx="0.58" ry="0.52"/><ellipse class="cls-127" cx="218.45" cy="813.09" rx="0.58" ry="0.52"/><ellipse class="cls-127" cx="208.7" cy="817.22" rx="0.58" ry="0.52"/><ellipse class="cls-127" cx="213.34" cy="798.92" rx="0.58" ry="0.52"/><ellipse class="cls-127" cx="213.34" cy="816.81" rx="0.58" ry="0.52"/><ellipse class="cls-127" cx="199.42" cy="794.13" rx="0.58" ry="0.52"/><ellipse class="cls-127" cx="204.06" cy="786.68" rx="0.58" ry="0.52"/><ellipse class="cls-127" cx="208.7" cy="778.02" rx="0.58" ry="0.52"/><ellipse class="cls-127" cx="204.06" cy="773.89" rx="0.58" ry="0.52"/><ellipse class="cls-127" cx="199.42" cy="780.52" rx="0.58" ry="0.52"/><ellipse class="cls-127" cx="199.42" cy="767.29" rx="0.58" ry="0.52"/><ellipse class="cls-127" cx="197.1" cy="791.6" rx="0.58" ry="0.52"/><ellipse class="cls-127" cx="202.33" cy="790.01" rx="0.58" ry="0.52"/><ellipse class="cls-127" cx="213.93" cy="790.54" rx="0.58" ry="0.52"/><ellipse class="cls-127" cx="216.59" cy="787.64" rx="0.58" ry="0.52"/><ellipse class="cls-127" cx="214.6" cy="781.45" rx="0.58" ry="0.52"/><ellipse class="cls-127" cx="210.56" cy="809.52" rx="0.58" ry="0.52"/><ellipse class="cls-127" cx="219.84" cy="798.51" rx="0.58" ry="0.52"/><ellipse class="cls-127" cx="217.87" cy="771.69" rx="0.58" ry="0.52"/><ellipse class="cls-127" cx="209.17" cy="756.98" rx="0.58" ry="0.52"/><ellipse class="cls-127" cx="212.42" cy="748.74" rx="0.58" ry="0.52"/><ellipse class="cls-127" cx="201.28" cy="761.11" rx="0.58" ry="0.52"/><ellipse class="cls-127" cx="214.27" cy="768.94" rx="0.58" ry="0.52"/><ellipse class="cls-127" cx="219.84" cy="760.7" rx="0.58" ry="0.52"/><ellipse class="cls-127" cx="200.81" cy="746.68" rx="0.58" ry="0.52"/><ellipse class="cls-127" cx="207.77" cy="733.48" rx="0.58" ry="0.52"/></g></svg>