<svg xmlns="http://www.w3.org/2000/svg" viewBox="0 0 432 846"><defs><style>.cls-1{fill:#001600;}.cls-2{fill:#001700;}.cls-3{fill:#001800;}.cls-4{fill:#001900;}.cls-5{fill:#001a00;}.cls-6{fill:#001b00;}.cls-7{fill:#001c00;}.cls-8{fill:#001d00;}.cls-9{fill:#001e00;}.cls-10{fill:#001f00;}.cls-11{fill:#002000;}.cls-12{fill:#002100;}.cls-13{fill:#020;}.cls-14{fill:#002300;}.cls-15{fill:#002400;}.cls-16{fill:#002500;}.cls-17{fill:#002501;}.cls-18{fill:#002601;}.cls-19{fill:#002702;}.cls-20{fill:#002803;}.cls-21{fill:#002904;}.cls-22{fill:#002905;}.cls-23{fill:#002a05;}.cls-24{fill:#002a06;}.cls-25{fill:#002b06;}.cls-26{fill:#002b07;}.cls-27{fill:#002c07;}.cls-28{fill:#002c08;}.cls-29{fill:#002d09;}.cls-30{fill:#002e0a;}.cls-31{fill:#002f0b;}.cls-32{fill:#002f0c;}.cls-33{fill:#00300c;}.cls-34{fill:#00300d;}.cls-35{fill:#00310d;}.cls-36{fill:#00310e;}.cls-37{fill:#00320e;}.cls-38{fill:#01320f;}.cls-39{fill:#02330f;}.cls-40{fill:#033310;}.cls-41{fill:#053410;}.cls-42{fill:#063410;}.cls-43{fill:#073411;}.cls-44{fill:#093511;}.cls-45{fill:#0a3512;}.cls-46{fill:#0b3612;}.cls-47{fill:#0d3612;}.cls-48{fill:#0e3713;}.cls-49{fill:#0f3713;}.cls-50{fill:#103714;}.cls-51{fill:#113814;}.cls-52{fill:#123814;}.cls-53{fill:#133915;}.cls-54{fill:#143915;}.cls-55{fill:#153a15;}.cls-56{fill:#163a16;}.cls-57{fill:#173a16;}.cls-58{fill:#183b16;}.cls-59{fill:#193b17;}.cls-60{fill:#1a3c17;}.cls-61{fill:#1b3c17;}.cls-62{fill:#1c3c18;}.cls-63{fill:#1c3d18;}.cls-64{fill:#1d3d18;}.cls-65{fill:#1e3e19;}.cls-66{fill:#1f3e19;}.cls-67{fill:#203e19;}.cls-68{fill:#213f1a;}.cls-69{fill:#223f1a;}.cls-70{fill:#23401a;}.cls-71{fill:#24401b;}.cls-72{fill:#25411b;}.cls-73{fill:#26411c;}.cls-74{fill:#27421c;}.cls-75{fill:#28421c;}.cls-76{fill:#28421d;}.cls-77{fill:#29431d;}.cls-78{fill:#2a431d;}.cls-79{fill:#2b441d;}.cls-80{fill:#2b441e;}.cls-81{fill:#2c441e;}.cls-82{fill:#2d451e;}.cls-83{fill:#2e451e;}.cls-84{fill:#2e451f;}.cls-85{fill:#2f461f;}.cls-86{fill:#30461f;}.cls-87{fill:#31461f;}.cls-88{fill:#314720;}.cls-89{fill:#324720;}.cls-90{fill:#334820;}.cls-91{fill:#344820;}.cls-92{fill:#344821;}.cls-93{fill:#354921;}.cls-94{fill:#364921;}.cls-95{fill:#374921;}.cls-96{fill:#374a22;}.cls-97{fill:#384a22;}.cls-98{fill:#394a22;}.cls-99{fill:#211e17;}</style></defs><g id="Green_Leaf" data-name="Green Leaf"><path class="cls-1" d="M210.08,815.34a1.53,1.53,0,0,0-1.92,0,28.54,28.54,0,0,0-7.67,18.9l0,1.9a41.2,41.2,0,0,0,16.8,0v-1.9A28.2,28.2,0,0,0,210.08,815.34Z"/><path class="cls-1" d="M210.08,815.34a1.53,1.53,0,0,0-1.92,0,28.46,28.46,0,0,0-7.64,18.81c0,1.94,0,2,0,2a41.09,41.09,0,0,0,16.69,0s0,0,0-2A28.13,28.13,0,0,0,210.08,815.34Z"/><path class="cls-2" d="M210.07,815.34a1.51,1.51,0,0,0-1.9,0,28.26,28.26,0,0,0-7.62,18.72,12.39,12.39,0,0,0,0,2,40.46,40.46,0,0,0,16.56,0,15.57,15.57,0,0,0,0-2A27.91,27.91,0,0,0,210.07,815.34Z"/><path class="cls-3" d="M210.07,815.34a1.51,1.51,0,0,0-1.9,0A28.11,28.11,0,0,0,200.58,834a9.48,9.48,0,0,0,0,2.06,40.34,40.34,0,0,0,16.45,0,11.11,11.11,0,0,0,.06-2.06A27.84,27.84,0,0,0,210.07,815.34Z"/><path class="cls-4" d="M210.06,815.34a1.49,1.49,0,0,0-1.89,0,28,28,0,0,0-7.56,18.55,8.07,8.07,0,0,0,.07,2.12A40,40,0,0,0,217,836a9.13,9.13,0,0,0,.08-2.12A27.72,27.72,0,0,0,210.06,815.34Z"/><path class="cls-5" d="M210.06,815.33a1.5,1.5,0,0,0-1.88,0,27.91,27.91,0,0,0-7.54,18.47c0,2.1.1,2.18.1,2.18A39.8,39.8,0,0,0,217,836a8.84,8.84,0,0,0,.09-2.18A27.66,27.66,0,0,0,210.06,815.33Z"/><path class="cls-5" d="M210.05,815.33a1.49,1.49,0,0,0-1.87,0,27.81,27.81,0,0,0-7.51,18.39c0,2.13.12,2.23.12,2.23a39.42,39.42,0,0,0,16.09,0,7.18,7.18,0,0,0,.12-2.23A27.51,27.51,0,0,0,210.05,815.33Z"/><path class="cls-6" d="M210.05,815.33a1.49,1.49,0,0,0-1.87,0,27.66,27.66,0,0,0-7.48,18.3c0,2.17.14,2.28.14,2.28a39.06,39.06,0,0,0,16,0s.14-.11.14-2.28A27.37,27.37,0,0,0,210.05,815.33Z"/><path class="cls-7" d="M210,815.33a1.46,1.46,0,0,0-1.85,0,27.43,27.43,0,0,0-7.45,18.21c0,2.22.16,2.34.16,2.34a38.68,38.68,0,0,0,15.85,0s.16-.12.16-2.34A27.24,27.24,0,0,0,210,815.33Z"/><path class="cls-7" d="M210,815.33a1.45,1.45,0,0,0-1.84,0,27.35,27.35,0,0,0-7.42,18.12c0,2.26.18,2.4.18,2.4a38.31,38.31,0,0,0,15.73,0s.18-.14.18-2.4A27.06,27.06,0,0,0,210,815.33Z"/><path class="cls-8" d="M210,815.33a1.45,1.45,0,0,0-1.84,0,27.21,27.21,0,0,0-7.39,18c0,2.29.2,2.45.2,2.45a38.19,38.19,0,0,0,15.62,0s.2-.16.2-2.45A27,27,0,0,0,210,815.33Z"/><path class="cls-9" d="M210,815.33a1.42,1.42,0,0,0-1.82,0,27,27,0,0,0-7.37,17.95c0,2.33.23,2.5.23,2.5a37.57,37.57,0,0,0,15.49,0s.22-.17.22-2.5A26.8,26.8,0,0,0,210,815.33Z"/><path class="cls-10" d="M210,815.32a1.45,1.45,0,0,0-1.82,0,27,27,0,0,0-7.34,17.87c0,2.38.25,2.56.25,2.56a37.45,37.45,0,0,0,15.38,0s.23-.18.23-2.56A26.76,26.76,0,0,0,210,815.32Z"/><path class="cls-10" d="M210,815.32a1.43,1.43,0,0,0-1.81,0,26.85,26.85,0,0,0-7.31,17.78c0,2.42.27,2.62.27,2.62a37.09,37.09,0,0,0,15.26,0s.26-.2.26-2.62A26.59,26.59,0,0,0,210,815.32Z"/><path class="cls-11" d="M210,815.32a1.42,1.42,0,0,0-1.8,0,26.65,26.65,0,0,0-7.29,17.7c0,2.45.3,2.67.3,2.67a36.91,36.91,0,0,0,15.14,0s.27-.22.27-2.67A26.5,26.5,0,0,0,210,815.32Z"/><path class="cls-12" d="M210,815.32a1.4,1.4,0,0,0-1.79,0A26.57,26.57,0,0,0,201,832.93c0,2.49.32,2.73.32,2.73a36.55,36.55,0,0,0,15,0s.3-.24.3-2.73A26.32,26.32,0,0,0,210,815.32Z"/><path class="cls-12" d="M210,815.32a1.4,1.4,0,0,0-1.79,0A26.42,26.42,0,0,0,201,832.84c0,2.54.34,2.78.34,2.78a36.23,36.23,0,0,0,14.91,0s.31-.24.31-2.78A26.23,26.23,0,0,0,210,815.32Z"/><path class="cls-13" d="M210,815.32a1.38,1.38,0,0,0-1.77,0A26.25,26.25,0,0,0,201,832.76c0,2.57.37,2.83.37,2.83a35.81,35.81,0,0,0,14.78,0s.34-.26.34-2.83A26.06,26.06,0,0,0,210,815.32Z"/><path class="cls-13" d="M210,815.31a1.43,1.43,0,0,0-1.77,0A26.18,26.18,0,0,0,201,832.67c0,2.61.39,2.89.39,2.89a35.69,35.69,0,0,0,14.67,0s.35-.28.35-2.89A26,26,0,0,0,210,815.31Z"/><path class="cls-14" d="M210,815.31a1.41,1.41,0,0,0-1.76,0,26,26,0,0,0-7.15,17.27c0,2.65.41,2.95.41,2.95a35.32,35.32,0,0,0,14.55,0s.38-.3.38-2.95A25.89,25.89,0,0,0,210,815.31Z"/><path class="cls-15" d="M210,815.31a1.4,1.4,0,0,0-1.75,0,25.84,25.84,0,0,0-7.13,17.18c0,2.69.44,3,.44,3a34.89,34.89,0,0,0,14.42,0s.4-.31.4-3A25.78,25.78,0,0,0,210,815.31Z"/><path class="cls-15" d="M210,815.31a1.38,1.38,0,0,0-1.74,0,25.75,25.75,0,0,0-7.1,17.1c0,2.73.46,3.05.46,3.05a34.57,34.57,0,0,0,14.31,0s.41-.32.41-3.05A25.64,25.64,0,0,0,210,815.31Z"/><path class="cls-16" d="M210,815.31a1.38,1.38,0,0,0-1.74,0,25.62,25.62,0,0,0-7.07,17c0,2.77.48,3.11.48,3.11a34.41,34.41,0,0,0,14.19,0s.44-.34.44-3.11A25.51,25.51,0,0,0,210,815.31Z"/><path class="cls-17" d="M210,815.31a1.36,1.36,0,0,0-1.72,0,25.42,25.42,0,0,0-7.05,16.92c0,2.81.51,3.17.51,3.17a34,34,0,0,0,14.07,0s.45-.36.45-3.17A25.37,25.37,0,0,0,210,815.31Z"/><path class="cls-18" d="M210,815.31a1.34,1.34,0,0,0-1.71,0,25.25,25.25,0,0,0-7,16.84c0,2.84.53,3.22.53,3.22a33.66,33.66,0,0,0,13.95,0s.48-.38.48-3.22A25.19,25.19,0,0,0,210,815.31Z"/><path class="cls-19" d="M210,815.3a1.37,1.37,0,0,0-1.71,0,25.11,25.11,0,0,0-7,16.76c0,2.89.54,3.27.54,3.27a33.34,33.34,0,0,0,13.84,0s.49-.38.49-3.27A25.16,25.16,0,0,0,210,815.3Z"/><path class="cls-19" d="M209.94,815.3a1.34,1.34,0,0,0-1.69,0,24.93,24.93,0,0,0-7,16.67c0,2.93.57,3.33.57,3.33a32.93,32.93,0,0,0,13.71,0s.52-.4.52-3.33A25,25,0,0,0,209.94,815.3Z"/><path class="cls-20" d="M209.94,815.3a1.34,1.34,0,0,0-1.69,0,24.82,24.82,0,0,0-6.93,16.58c0,3,.59,3.39.59,3.39a32.8,32.8,0,0,0,13.6,0s.53-.42.53-3.39A24.89,24.89,0,0,0,209.94,815.3Z"/><path class="cls-20" d="M209.93,815.3a1.33,1.33,0,0,0-1.68,0,24.7,24.7,0,0,0-6.9,16.5c0,3,.61,3.44.61,3.44a32.44,32.44,0,0,0,13.48,0s.55-.44.55-3.44A24.72,24.72,0,0,0,209.93,815.3Z"/><path class="cls-21" d="M209.93,815.3a1.31,1.31,0,0,0-1.67,0,24.52,24.52,0,0,0-6.88,16.41c0,3,.64,3.49.64,3.49a32.06,32.06,0,0,0,13.36,0s.57-.44.57-3.49A24.65,24.65,0,0,0,209.93,815.3Z"/><path class="cls-22" d="M209.92,815.3a1.3,1.3,0,0,0-1.66,0,24.42,24.42,0,0,0-6.85,16.32c0,3.09.66,3.55.66,3.55a31.7,31.7,0,0,0,13.24,0s.59-.46.59-3.55A24.45,24.45,0,0,0,209.92,815.3Z"/><path class="cls-23" d="M209.92,815.29a1.32,1.32,0,0,0-1.66,0,24.33,24.33,0,0,0-6.82,16.25c0,3.12.69,3.6.69,3.6a31.48,31.48,0,0,0,13.11,0s.62-.48.62-3.6A24.42,24.42,0,0,0,209.92,815.29Z"/><path class="cls-24" d="M209.91,815.29a1.3,1.3,0,0,0-1.64,0,24.15,24.15,0,0,0-6.8,16.16c0,3.16.71,3.66.71,3.66a31.16,31.16,0,0,0,13,0s.63-.5.63-3.66A24.24,24.24,0,0,0,209.91,815.29Z"/><path class="cls-25" d="M209.91,815.29a1.3,1.3,0,0,0-1.64,0c-1.87,2-6.71,7.66-6.77,16.07,0,3.2.73,3.72.73,3.72a31,31,0,0,0,12.88,0s.66-.52.66-3.72A24.17,24.17,0,0,0,209.91,815.29Z"/><path class="cls-26" d="M209.9,815.29a1.28,1.28,0,0,0-1.63,0c-1.86,2-6.68,7.61-6.74,16,0,3.25.76,3.77.76,3.77a30.41,30.41,0,0,0,12.76,0s.67-.52.67-3.77A24,24,0,0,0,209.9,815.29Z"/><path class="cls-27" d="M209.9,815.29a1.27,1.27,0,0,0-1.62,0c-1.85,2-6.66,7.57-6.72,15.9,0,3.28.78,3.82.78,3.82A30.25,30.25,0,0,0,215,835s.69-.54.69-3.82A23.92,23.92,0,0,0,209.9,815.29Z"/><path class="cls-28" d="M209.89,815.29a1.25,1.25,0,0,0-1.61,0c-1.84,2-6.63,7.53-6.69,15.81,0,3.32.8,3.88.8,3.88a29.93,29.93,0,0,0,12.53,0s.71-.56.71-3.88A23.76,23.76,0,0,0,209.89,815.29Z"/><path class="cls-29" d="M209.89,815.28a1.29,1.29,0,0,0-1.6,0c-1.84,2-6.61,7.5-6.67,15.73,0,3.36.83,3.94.83,3.94a29.71,29.71,0,0,0,12.4,0s.73-.58.73-3.94A23.7,23.7,0,0,0,209.89,815.28Z"/><path class="cls-29" d="M209.88,815.28a1.28,1.28,0,0,0-1.59,0c-1.82,2-6.58,7.46-6.64,15.64,0,3.41.85,4,.85,4a29.19,29.19,0,0,0,12.29,0s.75-.58.75-4A23.57,23.57,0,0,0,209.88,815.28Z"/><path class="cls-30" d="M209.88,815.28a1.28,1.28,0,0,0-1.59,0c-1.81,2-6.55,7.41-6.61,15.56,0,3.44.87,4,.87,4a28.83,28.83,0,0,0,12.17,0s.77-.6.77-4A23.44,23.44,0,0,0,209.88,815.28Z"/><path class="cls-30" d="M209.87,815.28a1.25,1.25,0,0,0-1.57,0c-1.81,1.94-6.53,7.37-6.59,15.47,0,3.48.9,4.1.9,4.1a28.65,28.65,0,0,0,12,0s.79-.62.79-4.1A23.29,23.29,0,0,0,209.87,815.28Z"/><path class="cls-31" d="M209.86,815.28a1.23,1.23,0,0,0-1.56,0c-1.79,1.93-6.5,7.33-6.55,15.38,0,3.52.91,4.16.91,4.16a28.29,28.29,0,0,0,11.93,0s.81-.64.81-4.16A23.11,23.11,0,0,0,209.86,815.28Z"/><path class="cls-32" d="M209.86,815.28a1.23,1.23,0,0,0-1.56,0c-1.78,1.92-6.47,7.29-6.52,15.3,0,3.56.93,4.21.93,4.21a28.12,28.12,0,0,0,11.81,0s.83-.65.83-4.21A23.06,23.06,0,0,0,209.86,815.28Z"/><path class="cls-33" d="M209.85,815.28a1.21,1.21,0,0,0-1.54,0c-1.78,1.91-6.46,7.24-6.5,15.21,0,3.6,1,4.26,1,4.26a27.56,27.56,0,0,0,11.69,0s.85-.66.85-4.26A22.85,22.85,0,0,0,209.85,815.28Z"/><path class="cls-34" d="M209.85,815.27a1.23,1.23,0,0,0-1.54,0c-1.76,1.9-6.43,7.21-6.47,15.13,0,3.64,1,4.32,1,4.32a27.39,27.39,0,0,0,11.57,0s.87-.68.87-4.32A22.82,22.82,0,0,0,209.85,815.27Z"/><path class="cls-35" d="M209.84,815.27a1.22,1.22,0,0,0-1.53,0c-1.75,1.89-6.4,7.17-6.44,15,0,3.68,1,4.38,1,4.38a27.07,27.07,0,0,0,11.46,0s.89-.7.89-4.38A22.64,22.64,0,0,0,209.84,815.27Z"/><path class="cls-36" d="M209.84,815.27a1.2,1.2,0,0,0-1.52,0c-1.75,1.88-6.38,7.13-6.42,15,0,3.71,1,4.43,1,4.43a26.85,26.85,0,0,0,11.33,0s.91-.72.91-4.43A22.58,22.58,0,0,0,209.84,815.27Z"/><path class="cls-37" d="M209.83,815.27a1.19,1.19,0,0,0-1.51,0c-1.73,1.87-6.35,7.09-6.39,14.87,0,3.76,1,4.48,1,4.48a26.34,26.34,0,0,0,11.22,0s.93-.72.93-4.48A22.4,22.4,0,0,0,209.83,815.27Z"/><path class="cls-38" d="M209.83,815.27a1.19,1.19,0,0,0-1.51,0c-1.72,1.85-6.32,7-6.36,14.78,0,3.8,1.07,4.54,1.07,4.54a26.16,26.16,0,0,0,11.1,0s1-.74,1-4.54A22.29,22.29,0,0,0,209.83,815.27Z"/><path class="cls-39" d="M209.82,815.27a1.16,1.16,0,0,0-1.49,0c-1.72,1.84-6.3,7-6.34,14.7,0,3.83,1.1,4.59,1.1,4.59a25.78,25.78,0,0,0,11,0s1-.76,1-4.59A22.17,22.17,0,0,0,209.82,815.27Z"/><path class="cls-40" d="M209.82,815.26a1.19,1.19,0,0,0-1.49,0c-1.7,1.84-6.27,7-6.31,14.62,0,3.87,1.12,4.65,1.12,4.65a25.61,25.61,0,0,0,10.86,0s1-.78,1-4.65A22.11,22.11,0,0,0,209.82,815.26Z"/><path class="cls-41" d="M209.81,815.26a1.17,1.17,0,0,0-1.48,0c-1.69,1.83-6.24,6.93-6.28,14.53,0,3.92,1.14,4.71,1.14,4.71a25.3,25.3,0,0,0,10.75,0s1-.79,1-4.71A22,22,0,0,0,209.81,815.26Z"/><path class="cls-42" d="M209.81,815.26a1.16,1.16,0,0,0-1.47,0c-1.69,1.82-6.22,6.88-6.26,14.44,0,4,1.17,4.76,1.17,4.76a24.88,24.88,0,0,0,10.62,0s1-.8,1-4.76A21.84,21.84,0,0,0,209.81,815.26Z"/><path class="cls-43" d="M209.8,815.26a1.15,1.15,0,0,0-1.46,0c-1.67,1.8-6.19,6.84-6.23,14.36,0,4,1.19,4.81,1.19,4.81a24.57,24.57,0,0,0,10.51,0s1-.82,1-4.81A21.7,21.7,0,0,0,209.8,815.26Z"/><path class="cls-44" d="M209.8,815.26a1.15,1.15,0,0,0-1.46,0c-1.66,1.79-6.16,6.8-6.2,14.27,0,4,1.21,4.87,1.21,4.87a24.21,24.21,0,0,0,10.39,0s1.07-.84,1.07-4.87A21.58,21.58,0,0,0,209.8,815.26Z"/><path class="cls-45" d="M209.79,815.26a1.12,1.12,0,0,0-1.44,0c-1.66,1.78-6.14,6.76-6.18,14.18,0,4.08,1.24,4.93,1.24,4.93a24,24,0,0,0,10.26,0s1.09-.85,1.09-4.93A21.45,21.45,0,0,0,209.79,815.26Z"/><path class="cls-46" d="M209.78,815.26a1.1,1.1,0,0,0-1.43,0c-1.64,1.77-6.11,6.72-6.15,14.09,0,4.12,1.26,5,1.26,5a23.48,23.48,0,0,0,10.15,0s1.11-.86,1.11-5A21.27,21.27,0,0,0,209.78,815.26Z"/><path class="cls-47" d="M209.78,815.25a1.16,1.16,0,0,0-1.43,0c-1.63,1.76-6.08,6.68-6.12,14,0,4.15,1.28,5,1.28,5a23.31,23.31,0,0,0,10,0s1.13-.88,1.13-5A21.23,21.23,0,0,0,209.78,815.25Z"/><path class="cls-48" d="M209.77,815.25a1.13,1.13,0,0,0-1.41,0c-1.63,1.75-6.06,6.64-6.09,13.93,0,4.19,1.3,5.09,1.3,5.09a22.94,22.94,0,0,0,9.91,0s1.14-.9,1.14-5.09A21.05,21.05,0,0,0,209.77,815.25Z"/><path class="cls-49" d="M209.77,815.25a1.13,1.13,0,0,0-1.41,0c-1.61,1.74-6,6.6-6.06,13.84,0,4.23,1.32,5.15,1.32,5.15a22.77,22.77,0,0,0,9.79,0s1.17-.92,1.17-5.15A21,21,0,0,0,209.77,815.25Z"/><path class="cls-50" d="M209.76,815.25a1.11,1.11,0,0,0-1.4,0c-1.6,1.73-6,6.56-6,13.76,0,4.27,1.34,5.2,1.34,5.2a22.45,22.45,0,0,0,9.68,0s1.18-.93,1.18-5.2A20.82,20.82,0,0,0,209.76,815.25Z"/><path class="cls-51" d="M209.76,815.25a1.1,1.1,0,0,0-1.39,0c-1.6,1.71-6,6.51-6,13.67,0,4.31,1.37,5.25,1.37,5.25a22,22,0,0,0,9.55,0s1.21-.94,1.21-5.25A20.7,20.7,0,0,0,209.76,815.25Z"/><path class="cls-52" d="M209.75,815.25a1.09,1.09,0,0,0-1.38,0c-1.58,1.7-6,6.47-6,13.58,0,4.35,1.39,5.31,1.39,5.31a21.71,21.71,0,0,0,9.44,0s1.22-1,1.22-5.31A20.52,20.52,0,0,0,209.75,815.25Z"/><path class="cls-53" d="M209.75,815.24a1.11,1.11,0,0,0-1.38,0c-1.57,1.7-5.92,6.44-6,13.5,0,4.39,1.42,5.37,1.42,5.37a21.49,21.49,0,0,0,9.31,0s1.25-1,1.25-5.37A20.51,20.51,0,0,0,209.75,815.24Z"/><path class="cls-54" d="M209.74,815.24a1.08,1.08,0,0,0-1.36,0c-1.56,1.69-5.9,6.4-5.93,13.42,0,4.43,1.44,5.42,1.44,5.42a21.17,21.17,0,0,0,9.2,0s1.26-1,1.26-5.42A20.34,20.34,0,0,0,209.74,815.24Z"/><path class="cls-55" d="M209.74,815.24a1.08,1.08,0,0,0-1.36,0c-1.55,1.67-5.87,6.36-5.9,13.33,0,4.47,1.46,5.48,1.46,5.48a21,21,0,0,0,9.08,0s1.28-1,1.28-5.48A20.26,20.26,0,0,0,209.74,815.24Z"/><path class="cls-56" d="M209.73,815.24a1.07,1.07,0,0,0-1.35,0c-1.54,1.66-5.84,6.31-5.87,13.24C202.49,833,204,834,204,834a20.41,20.41,0,0,0,8.95,0s1.31-1,1.31-5.53A20.11,20.11,0,0,0,209.73,815.24Z"/><path class="cls-57" d="M209.73,815.24a1.06,1.06,0,0,0-1.34,0c-1.53,1.65-5.82,6.27-5.85,13.16,0,4.54,1.51,5.58,1.51,5.58a20.28,20.28,0,0,0,8.84,0s1.32-1,1.32-5.58A20,20,0,0,0,209.73,815.24Z"/><path class="cls-58" d="M209.72,815.24a1,1,0,0,0-1.33,0c-1.52,1.64-5.79,6.23-5.82,13.07,0,4.59,1.53,5.64,1.53,5.64a19.92,19.92,0,0,0,8.72,0s1.35-1.05,1.35-5.64A19.87,19.87,0,0,0,209.72,815.24Z"/><path class="cls-59" d="M209.72,815.24a1,1,0,0,0-1.32,0c-1.52,1.63-5.77,6.19-5.8,13,0,4.63,1.56,5.7,1.56,5.7a19.56,19.56,0,0,0,8.6,0s1.36-1.07,1.36-5.7A19.76,19.76,0,0,0,209.72,815.24Z"/><path class="cls-60" d="M209.71,815.23a1,1,0,0,0-1.31,0c-1.5,1.62-5.74,6.15-5.77,12.9,0,4.67,1.58,5.75,1.58,5.75a19.21,19.21,0,0,0,8.48,0s1.39-1.08,1.39-5.75A19.64,19.64,0,0,0,209.71,815.23Z"/><path class="cls-61" d="M209.71,815.23a1,1,0,0,0-1.31,0c-1.49,1.61-5.71,6.11-5.74,12.82,0,4.7,1.6,5.8,1.6,5.8a18.89,18.89,0,0,0,8.37,0s1.4-1.1,1.4-5.8C214,821.34,211.2,816.84,209.71,815.23Z"/><path class="cls-62" d="M209.7,815.23a1,1,0,0,0-1.29,0c-1.49,1.6-5.69,6.07-5.72,12.73,0,4.74,1.63,5.86,1.63,5.86a18.66,18.66,0,0,0,8.24,0S214,832.7,214,828C214,821.3,211.18,816.83,209.7,815.23Z"/><path class="cls-63" d="M209.69,815.23a1,1,0,0,0-1.28,0c-1.47,1.59-5.66,6-5.69,12.64,0,4.79,1.65,5.92,1.65,5.92a18.35,18.35,0,0,0,8.13,0s1.44-1.13,1.44-5.92C213.94,821.26,211.17,816.82,209.69,815.23Z"/><path class="cls-64" d="M209.69,815.23a1,1,0,0,0-1.28,0c-1.46,1.57-5.63,6-5.65,12.56,0,4.82,1.66,6,1.66,6a18.17,18.17,0,0,0,8,0s1.46-1.15,1.46-6C213.89,821.22,211.15,816.8,209.69,815.23Z"/><path class="cls-65" d="M209.68,815.23a1,1,0,0,0-1.26,0c-1.46,1.56-5.61,5.94-5.63,12.47,0,4.86,1.69,6,1.69,6a17.64,17.64,0,0,0,7.89,0s1.48-1.16,1.48-6C213.85,821.17,211.14,816.79,209.68,815.23Z"/><path class="cls-66" d="M209.68,815.22a1,1,0,0,0-1.26,0c-1.44,1.56-5.57,5.91-5.6,12.39,0,4.9,1.71,6.08,1.71,6.08a17.46,17.46,0,0,0,7.77,0s1.5-1.18,1.5-6.08C213.8,821.13,211.12,816.78,209.68,815.22Z"/><path class="cls-67" d="M209.67,815.22a1,1,0,0,0-1.25,0c-1.43,1.55-5.54,5.87-5.57,12.3,0,5,1.73,6.14,1.73,6.14a17.13,17.13,0,0,0,7.66,0s1.52-1.19,1.52-6.14C213.76,821.09,211.11,816.77,209.67,815.22Z"/><path class="cls-68" d="M209.67,815.22a1,1,0,0,0-1.24,0c-1.43,1.53-5.52,5.83-5.55,12.22,0,5,1.76,6.19,1.76,6.19a16.9,16.9,0,0,0,7.53,0s1.54-1.21,1.54-6.19C213.71,821.05,211.09,816.75,209.67,815.22Z"/><path class="cls-68" d="M209.66,815.22a1,1,0,0,0-1.23,0c-1.41,1.52-5.49,5.79-5.52,12.13,0,5,1.78,6.24,1.78,6.24a16.38,16.38,0,0,0,7.41,0s1.56-1.22,1.56-6.24C213.66,821,211.08,816.74,209.66,815.22Z"/><path class="cls-69" d="M209.66,815.22a1,1,0,0,0-1.23,0c-1.4,1.51-5.46,5.74-5.49,12,0,5.06,1.8,6.3,1.8,6.3a16.24,16.24,0,0,0,7.3,0s1.58-1.24,1.58-6.3C213.62,821,211.06,816.73,209.66,815.22Z"/><path class="cls-70" d="M209.65,815.22a1,1,0,0,0-1.21,0c-1.4,1.5-5.44,5.7-5.47,11.95,0,5.11,1.83,6.36,1.83,6.36a15.84,15.84,0,0,0,7.17,0s1.6-1.25,1.6-6.36C213.57,820.92,211,816.72,209.65,815.22Z"/><path class="cls-71" d="M209.65,815.21a1,1,0,0,0-1.21,0c-1.38,1.49-5.41,5.67-5.44,11.88,0,5.14,1.85,6.41,1.85,6.41a15.7,15.7,0,0,0,7.06,0s1.62-1.27,1.62-6.41C213.53,820.88,211,816.7,209.65,815.21Z"/><path class="cls-72" d="M209.64,815.21a1,1,0,0,0-1.2,0c-1.37,1.48-5.38,5.63-5.41,11.79,0,5.18,1.87,6.47,1.87,6.47a15.35,15.35,0,0,0,6.94,0s1.64-1.29,1.64-6.47C213.48,820.84,211,816.69,209.64,815.21Z"/><path class="cls-72" d="M209.64,815.21a1,1,0,0,0-1.19,0c-1.37,1.47-5.36,5.58-5.39,11.7,0,5.22,1.9,6.52,1.9,6.52a14.83,14.83,0,0,0,6.82,0s1.66-1.3,1.66-6.52C213.44,820.79,211,816.68,209.64,815.21Z"/><path class="cls-73" d="M209.63,815.21a.93.93,0,0,0-1.18,0c-1.35,1.46-5.33,5.54-5.36,11.62,0,5.25,1.92,6.57,1.92,6.57a14.65,14.65,0,0,0,6.7,0s1.68-1.32,1.68-6.57C213.39,820.75,211,816.67,209.63,815.21Z"/><path class="cls-74" d="M209.63,815.21a.93.93,0,0,0-1.18,0c-1.34,1.45-5.3,5.5-5.33,11.53,0,5.3,1.94,6.63,1.94,6.63a14.34,14.34,0,0,0,6.59,0s1.69-1.33,1.69-6.63C213.34,820.71,211,816.66,209.63,815.21Z"/><path class="cls-75" d="M209.62,815.21a.91.91,0,0,0-1.16,0c-1.34,1.43-5.28,5.46-5.31,11.44,0,5.34,2,6.69,2,6.69a14.11,14.11,0,0,0,6.46,0s1.72-1.35,1.72-6.69C213.3,820.67,211,816.64,209.62,815.21Z"/><path class="cls-76" d="M209.61,815.21a.89.89,0,0,0-1.15,0c-1.32,1.42-5.25,5.42-5.28,11.35,0,5.38,2,6.74,2,6.74a13.64,13.64,0,0,0,6.35,0s1.73-1.36,1.73-6.74C213.25,820.63,210.94,816.63,209.61,815.21Z"/><path class="cls-77" d="M209.61,815.2a.92.92,0,0,0-1.15,0c-1.31,1.42-5.22,5.38-5.25,11.28,0,5.41,2,6.79,2,6.79a13.46,13.46,0,0,0,6.23,0s1.76-1.38,1.76-6.79C213.21,820.58,210.92,816.62,209.61,815.2Z"/><path class="cls-78" d="M209.6,815.2a.89.89,0,0,0-1.13,0c-1.31,1.41-5.2,5.34-5.22,11.19,0,5.46,2,6.85,2,6.85a13.06,13.06,0,0,0,6.1,0s1.78-1.39,1.78-6.85C213.16,820.54,210.91,816.61,209.6,815.2Z"/><path class="cls-79" d="M209.6,815.2a.89.89,0,0,0-1.13,0c-1.29,1.39-5.18,5.3-5.19,11.1,0,5.5,2.05,6.91,2.05,6.91a12.9,12.9,0,0,0,6,0s1.8-1.41,1.8-6.91C213.12,820.5,210.89,816.59,209.6,815.2Z"/><path class="cls-80" d="M209.59,815.2a.88.88,0,0,0-1.12,0c-1.28,1.38-5.15,5.26-5.16,11,0,5.53,2.07,7,2.07,7a12.56,12.56,0,0,0,5.87,0s1.82-1.43,1.82-7C213.07,820.46,210.88,816.58,209.59,815.2Z"/><path class="cls-81" d="M209.59,815.2a.86.86,0,0,0-1.11,0c-1.27,1.37-5.13,5.21-5.14,10.93s2.1,7,2.1,7a12.21,12.21,0,0,0,5.75,0s1.83-1.44,1.83-7S210.86,816.57,209.59,815.2Z"/><path class="cls-82" d="M209.58,815.2a.85.85,0,0,0-1.1,0c-1.26,1.36-5.1,5.17-5.11,10.84s2.12,7.07,2.12,7.07a11.87,11.87,0,0,0,5.63,0S213,831.66,213,826,210.85,816.56,209.58,815.2Z"/><path class="cls-83" d="M209.58,815.19a.9.9,0,0,0-1.1,0c-1.25,1.35-5.07,5.14-5.08,10.76s2.14,7.13,2.14,7.13a11.72,11.72,0,0,0,5.52,0s1.87-1.47,1.87-7.13S210.83,816.54,209.58,815.19Z"/><path class="cls-84" d="M209.57,815.19a.87.87,0,0,0-1.08,0c-1.24,1.34-5.05,5.1-5.06,10.68s2.17,7.18,2.17,7.18a11.33,11.33,0,0,0,5.39,0s1.9-1.49,1.9-7.18S210.81,816.53,209.57,815.19Z"/><path class="cls-85" d="M209.57,815.19a.87.87,0,0,0-1.08,0c-1.23,1.33-5,5.06-5,10.59,0,5.73,2.19,7.23,2.19,7.23a11,11,0,0,0,5.28,0s1.91-1.5,1.91-7.23C212.84,820.25,210.8,816.52,209.57,815.19Z"/><path class="cls-86" d="M209.56,815.19a.86.86,0,0,0-1.07,0c-1.22,1.32-5,5-5,10.5,0,5.77,2.22,7.29,2.22,7.29a10.65,10.65,0,0,0,5.15,0s1.94-1.52,1.94-7.29C212.8,820.2,210.78,816.51,209.56,815.19Z"/><path class="cls-87" d="M209.56,815.19a.84.84,0,0,0-1.06,0c-1.21,1.3-5,5-5,10.42,0,5.81,2.24,7.34,2.24,7.34a10.35,10.35,0,0,0,5,0s1.95-1.53,1.95-7.34C212.75,820.16,210.77,816.49,209.56,815.19Z"/><path class="cls-88" d="M209.55,815.19a.83.83,0,0,0-1.05,0c-1.2,1.29-4.94,4.93-4.95,10.33,0,5.85,2.26,7.4,2.26,7.4a10.16,10.16,0,0,0,4.92,0s2-1.55,2-7.4C212.71,820.12,210.75,816.48,209.55,815.19Z"/><path class="cls-89" d="M209.55,815.19a.83.83,0,0,0-1.05,0c-1.19,1.28-4.91,4.89-4.92,10.24,0,5.89,2.29,7.46,2.29,7.46a9.78,9.78,0,0,0,4.79,0s2-1.57,2-7.46C212.66,820.08,210.74,816.47,209.55,815.19Z"/><path class="cls-90" d="M209.54,815.18a.83.83,0,0,0-1,0c-1.18,1.28-4.89,4.85-4.9,10.16,0,5.93,2.31,7.51,2.31,7.51a9.48,9.48,0,0,0,4.68,0s2-1.58,2-7.51C212.61,820,210.72,816.46,209.54,815.18Z"/><path class="cls-91" d="M209.54,815.18a.83.83,0,0,0-1,0c-1.17,1.27-4.86,4.81-4.87,10.08,0,6,2.33,7.56,2.33,7.56a9.15,9.15,0,0,0,4.56,0s2-1.59,2-7.56C212.57,820,210.71,816.45,209.54,815.18Z"/><path class="cls-92" d="M209.53,815.18a.8.8,0,0,0-1,0c-1.17,1.25-4.84,4.77-4.85,10,0,6,2.36,7.62,2.36,7.62a8.94,8.94,0,0,0,4.44,0s2.05-1.61,2.05-7.62C212.52,820,210.69,816.43,209.53,815.18Z"/><path class="cls-93" d="M209.52,815.18a.78.78,0,0,0-1,0c-1.15,1.24-4.81,4.73-4.82,9.9,0,6,2.38,7.68,2.38,7.68a8.6,8.6,0,0,0,4.32,0s2.08-1.63,2.08-7.68C212.48,819.91,210.68,816.42,209.52,815.18Z"/><path class="cls-94" d="M209.52,815.18a.78.78,0,0,0-1,0c-1.14,1.23-4.78,4.69-4.79,9.81,0,6.09,2.4,7.73,2.4,7.73a8.31,8.31,0,0,0,4.21,0s2.09-1.64,2.09-7.73C212.43,819.87,210.66,816.41,209.52,815.18Z"/><path class="cls-95" d="M209.51,815.18a.76.76,0,0,0-1,0c-1.14,1.22-4.76,4.64-4.76,9.73,0,6.13,2.42,7.78,2.42,7.78a7.94,7.94,0,0,0,4.08,0s2.12-1.65,2.12-7.78C212.39,819.82,210.65,816.4,209.51,815.18Z"/><path class="cls-96" d="M209.51,815.17a.78.78,0,0,0-1,0c-1.12,1.21-4.73,4.61-4.73,9.65,0,6.17,2.44,7.84,2.44,7.84a7.78,7.78,0,0,0,4,0s2.13-1.67,2.13-7.84C212.34,819.78,210.63,816.38,209.51,815.17Z"/><path class="cls-97" d="M209.5,815.17a.77.77,0,0,0-1,0c-1.11,1.2-4.7,4.57-4.7,9.56,0,6.21,2.46,7.9,2.46,7.9a7.46,7.46,0,0,0,3.85,0s2.15-1.69,2.15-7.9C212.29,819.74,210.62,816.37,209.5,815.17Z"/><path class="cls-98" d="M209.5,815.17a.75.75,0,0,0-1,0c-1.11,1.19-4.68,4.53-4.68,9.48,0,6.24,2.49,8,2.49,8a7.25,7.25,0,0,0,3.73,0s2.17-1.71,2.17-8C212.25,819.7,210.6,816.36,209.5,815.17Z"/></g><g id="Pink_Detail" data-name="Pink Detail"><ellipse class="cls-99" cx="211.23" cy="831.68" rx="0.32" ry="0.26"/><ellipse class="cls-99" cx="213.16" cy="832.03" rx="0.32" ry="0.26"/><ellipse class="cls-99" cx="213.62" cy="831.45" rx="0.22" ry="0.16"/><ellipse class="cls-99" cx="213.1" cy="832.92" rx="0.22" ry="0.16"/><ellipse class="cls-99" cx="212.65" cy="833.95" rx="0.32" ry="0.26"/><ellipse class="cls-99" cx="207.49" cy="833.42" rx="0.32" ry="0.26"/><ellipse class="cls-99" cx="207.74" cy="834.37" rx="0.32" ry="0.26"/><ellipse class="cls-99" cx="208.71" cy="833.38" rx="0.32" ry="0.26"/><ellipse class="cls-99" cx="209.52" cy="834.65" rx="0.22" ry="0.16"/><ellipse class="cls-99" cx="206.71" cy="829.5" rx="0.32" ry="0.26"/><ellipse class="cls-99" cx="209.29" cy="825.79" rx="0.32" ry="0.26"/><ellipse class="cls-99" cx="209.52" cy="832.75" rx="0.22" ry="0.16"/><ellipse class="cls-99" cx="207.79" cy="831.49" rx="0.22" ry="0.16"/><ellipse class="cls-99" cx="206.06" cy="833.52" rx="0.22" ry="0.16"/><ellipse class="cls-99" cx="206.06" cy="829.47" rx="0.22" ry="0.16"/><ellipse class="cls-99" cx="205.42" cy="828.25" rx="0.32" ry="0.26"/><ellipse class="cls-99" cx="208.33" cy="827.45" rx="0.32" ry="0.26"/><ellipse class="cls-99" cx="211.71" cy="833.8" rx="0.22" ry="0.16"/><ellipse class="cls-99" cx="212.93" cy="830.82" rx="0.22" ry="0.16"/><ellipse class="cls-99" cx="209.69" cy="826.32" rx="0.22" ry="0.16"/><ellipse class="cls-99" cx="210.9" cy="823.79" rx="0.22" ry="0.16"/><ellipse class="cls-99" cx="206.75" cy="827.58" rx="0.22" ry="0.16"/><ellipse class="cls-99" cx="211.59" cy="829.98" rx="0.22" ry="0.16"/><ellipse class="cls-99" cx="213.66" cy="827.45" rx="0.22" ry="0.16"/><ellipse class="cls-99" cx="206.58" cy="823.16" rx="0.22" ry="0.16"/><ellipse class="cls-99" cx="209.17" cy="819.12" rx="0.22" ry="0.16"/></g></svg>