<svg xmlns="http://www.w3.org/2000/svg" viewBox="0 0 486 846"><defs><style>.cls-1{fill:#231f20;}.cls-2{fill:#242122;}.cls-3{fill:#262223;}.cls-4{fill:#272425;}.cls-5{fill:#282526;}.cls-6{fill:#292627;}.cls-7{fill:#2b2829;}.cls-8{fill:#2c292a;}.cls-9{fill:#2d2b2c;}.cls-10{fill:#2e2c2d;}.cls-11{fill:#2f2d2f;}.cls-12{fill:#312f30;}.cls-13{fill:#323031;}.cls-14{fill:#333133;}.cls-15{fill:#343334;}.cls-16{fill:#353435;}.cls-17{fill:#363537;}.cls-18{fill:#383638;}.cls-19{fill:#393839;}.cls-20{fill:#3a393a;}.cls-21{fill:#3b3a3c;}.cls-22{fill:#3c3b3d;}.cls-23{fill:#3d3c3e;}.cls-24{fill:#3e3d3f;}.cls-25{fill:#3f3e40;}.cls-26{fill:#404041;}.cls-27{fill:#414142;}.cls-28{fill:#424243;}.cls-29{fill:#434344;}.cls-30{fill:#444445;}.cls-31{fill:#454546;}.cls-32{fill:#464647;}.cls-33{fill:#474749;}.cls-34{fill:#48484a;}.cls-35{fill:#49494b;}.cls-36{fill:#4a4a4c;}.cls-37{fill:#4a4b4d;}.cls-38{fill:#4b4c4d;}.cls-39{fill:#4c4d4e;}.cls-40{fill:#4d4d4f;}.cls-41{fill:#4e4e50;}.cls-42{fill:#4f4f51;}.cls-43{fill:#505052;}.cls-44{fill:#515153;}.cls-45{fill:#525254;}.cls-46{fill:#535355;}.cls-47{fill:#535456;}.cls-48{fill:#545557;}.cls-49{fill:#555658;}.cls-50{fill:#565759;}.cls-51{fill:#57585a;}.cls-52{fill:#58595b;}.cls-53{fill:#59595c;}.cls-54{fill:#595a5d;}.cls-55{fill:#5a5b5e;}.cls-56{fill:#5b5c5e;}.cls-57{fill:#5c5d5f;}.cls-58{fill:#5d5e60;}.cls-59{fill:#5e5f61;}.cls-60{fill:#5f6062;}.cls-61{fill:#5f6063;}.cls-62{fill:#606164;}.cls-63{fill:#616264;}.cls-64{fill:#626365;}.cls-65{fill:#636466;}.cls-66{fill:#646567;}.cls-67{fill:#646668;}.cls-68{fill:#656669;}.cls-69{fill:#66676a;}.cls-70{fill:#67686a;}.cls-71{fill:#68696b;}.cls-72{fill:#686a6c;}.cls-73{fill:#696a6d;}.cls-74{fill:#6a6b6e;}.cls-75{fill:#6b6c6e;}.cls-76{fill:#6b6d6f;}.cls-77{fill:#6c6e70;}.cls-78{fill:#6d6e71;}</style></defs><g id="Green_Leaf" data-name="Green Leaf"><path class="cls-1" d="M245.3,407l6.7,1.18s-.06,3.56-.52,7.27-1.3,7.54-2.87,8.1a20,20,0,0,1-10,0c-1.57-.56-2.41-4.4-2.87-8.1s-.51-7.27-.51-7.27l6.7-1.18,0-.59,1.68.29,1.68-.29Z"/><path class="cls-2" d="M235.24,408s6.65-1.22,6.66-1.24l0-.46v-.13l1.68.29s1.67-.28,1.67-.27l0,.59S252,407.93,252,408a72.54,72.54,0,0,1-.48,7.25,23.1,23.1,0,0,1-1.59,6.76,2.54,2.54,0,0,1-1.23,1.35,15.27,15.27,0,0,1-5,.65,20.27,20.27,0,0,1-2.63-.12,11.83,11.83,0,0,1-2.45-.53,2.5,2.5,0,0,1-1.23-1.35,22.79,22.79,0,0,1-1.59-6.76A72.54,72.54,0,0,1,235.24,408Z"/><path class="cls-3" d="M235.28,407.77c0-.08,6.6-1.28,6.63-1.31l0-.46v-.13s1.67.28,1.68.29,1.65-.27,1.66-.26l0,.59s6.58,1.22,6.61,1.28a68.39,68.39,0,0,1-.46,7.22,23.28,23.28,0,0,1-1.55,6.76,2.48,2.48,0,0,1-1.22,1.36,15.1,15.1,0,0,1-5,.65,19.13,19.13,0,0,1-2.67-.12,11.57,11.57,0,0,1-2.48-.53,2.49,2.49,0,0,1-1.22-1.35,23.74,23.74,0,0,1-1.56-6.77A65.37,65.37,0,0,1,235.28,407.77Z"/><path class="cls-4" d="M235.32,407.59c.05-.12,6.56-1.33,6.6-1.38s0-.45,0-.46v-.13s1.67.27,1.68.29,1.64-.26,1.66-.24l0,.59s6.52,1.24,6.56,1.33a62,62,0,0,1-.42,7.2,23.65,23.65,0,0,1-1.53,6.76,2.39,2.39,0,0,1-1.2,1.36,15.42,15.42,0,0,1-5.06.65,19.55,19.55,0,0,1-2.71-.11,12.16,12.16,0,0,1-2.52-.54,2.46,2.46,0,0,1-1.2-1.36,24,24,0,0,1-1.52-6.76A58.35,58.35,0,0,1,235.32,407.59Z"/><path class="cls-5" d="M235.36,407.4c.07-.15,6.51-1.37,6.57-1.44s0-.45,0-.45v-.14s1.67.27,1.69.29,1.62-.25,1.64-.22,0,.57,0,.58,6.46,1.27,6.52,1.38a62.58,62.58,0,0,1-.39,7.18,24.15,24.15,0,0,1-1.5,6.76,2.36,2.36,0,0,1-1.18,1.37,15.62,15.62,0,0,1-5.09.65,20,20,0,0,1-2.74-.11,12.41,12.41,0,0,1-2.55-.54,2.33,2.33,0,0,1-1.18-1.37,23.82,23.82,0,0,1-1.49-6.76A56.65,56.65,0,0,1,235.36,407.4Z"/><path class="cls-6" d="M235.4,407.22c.09-.19,6.47-1.43,6.54-1.51s0-.45,0-.45v-.13a16.54,16.54,0,0,1,1.69.28s1.6-.23,1.63-.21,0,.58,0,.59,6.4,1.29,6.47,1.43a56.11,56.11,0,0,1-.36,7.15,24.78,24.78,0,0,1-1.46,6.76,2.31,2.31,0,0,1-1.17,1.38,15.94,15.94,0,0,1-5.1.66,20.56,20.56,0,0,1-2.78-.12,12.39,12.39,0,0,1-2.59-.54,2.31,2.31,0,0,1-1.16-1.37,24.86,24.86,0,0,1-1.46-6.77A54.08,54.08,0,0,1,235.4,407.22Z"/><path class="cls-7" d="M235.44,407c.11-.22,6.42-1.47,6.51-1.57s0-.44,0-.45v-.13a13.85,13.85,0,0,1,1.69.28s1.6-.22,1.62-.19,0,.57.05.58,6.34,1.32,6.42,1.48a53.6,53.6,0,0,1-.32,7.13,25.5,25.5,0,0,1-1.43,6.77,2.33,2.33,0,0,1-1.15,1.38,16.12,16.12,0,0,1-5.13.66,22.66,22.66,0,0,1-2.81-.11,12.76,12.76,0,0,1-2.62-.55,2.3,2.3,0,0,1-1.15-1.38,25.14,25.14,0,0,1-1.42-6.77A50.86,50.86,0,0,1,235.44,407Z"/><path class="cls-8" d="M235.47,406.85c.14-.26,6.39-1.53,6.49-1.64s0-.44,0-.45l0-.13a14.18,14.18,0,0,1,1.69.28s1.58-.21,1.61-.17,0,.56.05.57,6.29,1.35,6.38,1.54a52.37,52.37,0,0,1-.29,7.11,26.09,26.09,0,0,1-1.4,6.76c-.34.79-.7,1.23-1.14,1.39a16.22,16.22,0,0,1-5.14.66,21.39,21.39,0,0,1-2.85-.11,12.38,12.38,0,0,1-2.65-.55c-.44-.16-.8-.6-1.14-1.39a26.12,26.12,0,0,1-1.39-6.76A51.49,51.49,0,0,1,235.47,406.85Z"/><path class="cls-9" d="M235.51,406.67c.16-.31,6.34-1.58,6.46-1.71s0-.44.05-.45v-.13a10.83,10.83,0,0,1,1.69.28s1.57-.2,1.61-.15,0,.56,0,.57,6.23,1.36,6.33,1.59a49.34,49.34,0,0,1-.26,7.08,26,26,0,0,1-1.37,6.76c-.33.81-.69,1.25-1.12,1.4a16.3,16.3,0,0,1-5.16.66,20.25,20.25,0,0,1-2.88-.11,12.4,12.4,0,0,1-2.69-.55c-.43-.15-.78-.59-1.11-1.39a26.15,26.15,0,0,1-1.36-6.77A50.22,50.22,0,0,1,235.51,406.67Z"/><path class="cls-10" d="M235.55,406.48c.18-.34,6.29-1.63,6.43-1.77s0-.44.05-.45v-.13a12.27,12.27,0,0,1,1.7.27s1.55-.18,1.59-.13,0,.56.06.57,6.17,1.39,6.29,1.64a48.31,48.31,0,0,1-.23,7.06,26.73,26.73,0,0,1-1.34,6.77c-.33.82-.68,1.25-1.1,1.4a16.78,16.78,0,0,1-5.18.67,22.43,22.43,0,0,1-2.92-.12,12.21,12.21,0,0,1-2.72-.55c-.43-.15-.77-.58-1.1-1.4a26.76,26.76,0,0,1-1.33-6.77A48.39,48.39,0,0,1,235.55,406.48Z"/><path class="cls-11" d="M235.59,406.3c.2-.38,6.25-1.68,6.39-1.84s.05-.43.06-.45a.5.5,0,0,1,0-.12,10,10,0,0,1,1.7.26s1.53-.17,1.58-.11,0,.55.06.57,6.11,1.41,6.24,1.69a44.35,44.35,0,0,1-.2,7,27,27,0,0,1-1.3,6.77c-.33.84-.67,1.26-1.09,1.41a16.84,16.84,0,0,1-5.19.67,22.92,22.92,0,0,1-3-.11,13.41,13.41,0,0,1-2.76-.56c-.41-.15-.75-.57-1.08-1.41a27,27,0,0,1-1.29-6.77A45.84,45.84,0,0,1,235.59,406.3Z"/><path class="cls-12" d="M235.63,406.11c.22-.41,6.2-1.72,6.36-1.9,0,0,0-.43.06-.45a.5.5,0,0,0,0-.12,9,9,0,0,1,1.7.26c0,.05,1.53-.15,1.58-.09s.05.54.06.56c.14.18,6.05,1.44,6.19,1.74a43.1,43.1,0,0,1-.16,7,27.69,27.69,0,0,1-1.27,6.76c-.33.86-.66,1.27-1.07,1.42a17.06,17.06,0,0,1-5.22.67,21.63,21.63,0,0,1-3-.11,13.19,13.19,0,0,1-2.79-.56c-.41-.15-.74-.56-1.07-1.42a27.29,27.29,0,0,1-1.25-6.76A43.79,43.79,0,0,1,235.63,406.11Z"/><path class="cls-13" d="M235.67,405.93c.24-.45,6.16-1.78,6.33-2,0,0,.05-.43.07-.45a.5.5,0,0,1,0-.12,8.23,8.23,0,0,1,1.7.26c0,.05,1.51-.14,1.56-.07s.05.54.07.56c.15.19,6,1.46,6.15,1.79a42.28,42.28,0,0,1-.13,7,28,28,0,0,1-1.25,6.77c-.32.87-.64,1.28-1.05,1.42a16.82,16.82,0,0,1-5.23.67,22.16,22.16,0,0,1-3-.11,12.87,12.87,0,0,1-2.82-.56c-.41-.14-.74-.55-1.05-1.42a28.1,28.1,0,0,1-1.23-6.77A42.38,42.38,0,0,1,235.67,405.93Z"/><path class="cls-14" d="M235.71,405.75c.25-.49,6.11-1.83,6.3-2,0,0,.05-.43.07-.44a.59.59,0,0,1,0-.13,7.52,7.52,0,0,1,1.7.26c0,.05,1.5-.13,1.56-.06s0,.54.07.56c.17.22,5.93,1.48,6.1,1.85a40.35,40.35,0,0,1-.1,7,28.35,28.35,0,0,1-1.21,6.77c-.32.88-.64,1.29-1,1.43a17.19,17.19,0,0,1-5.25.68,24.35,24.35,0,0,1-3.06-.11,14.11,14.11,0,0,1-2.86-.57c-.4-.14-.72-.54-1-1.43a27.93,27.93,0,0,1-1.19-6.77A40.46,40.46,0,0,1,235.71,405.75Z"/><path class="cls-15" d="M235.75,405.56c.27-.53,6.07-1.88,6.27-2.1,0,0,0-.42.07-.44a.59.59,0,0,0,0-.13,7.08,7.08,0,0,1,1.71.26c.05.05,1.48-.12,1.55,0s0,.53.07.56c.18.23,5.87,1.5,6.06,1.89a40.92,40.92,0,0,1-.07,6.94,29.06,29.06,0,0,1-1.18,6.77c-.32.9-.63,1.3-1,1.44a17.4,17.4,0,0,1-5.27.68,23.12,23.12,0,0,1-3.1-.11,13.75,13.75,0,0,1-2.89-.57c-.4-.14-.71-.54-1-1.44a29.13,29.13,0,0,1-1.16-6.77A39.41,39.41,0,0,1,235.75,405.56Z"/><path class="cls-16" d="M235.79,405.38c.29-.57,6-1.93,6.24-2.17,0,0,.05-.42.07-.44s0-.12,0-.13a6.54,6.54,0,0,1,1.7.26c.06.06,1.47-.11,1.54,0s.06.53.08.55c.19.25,5.81,1.53,6,1.95a37.2,37.2,0,0,1,0,6.92,29.4,29.4,0,0,1-1.14,6.76c-.31.92-.62,1.32-1,1.45a17.48,17.48,0,0,1-5.29.68,23.57,23.57,0,0,1-3.13-.11,13.81,13.81,0,0,1-2.93-.57c-.38-.13-.69-.53-1-1.44a29.65,29.65,0,0,1-1.12-6.77A37.85,37.85,0,0,1,235.79,405.38Z"/><path class="cls-17" d="M235.83,405.19c.31-.6,6-2,6.21-2.23,0,0,.06-.42.08-.44a.43.43,0,0,1,0-.12,5.85,5.85,0,0,1,1.71.25c.06.06,1.45-.1,1.53,0s.06.52.08.55c.21.26,5.75,1.55,6,2a36.4,36.4,0,0,1,0,6.9,30.35,30.35,0,0,1-1.11,6.77c-.31.93-.61,1.32-1,1.45A18,18,0,0,1,244,421a25.91,25.91,0,0,1-3.17-.11,14.15,14.15,0,0,1-3-.58c-.38-.13-.68-.52-1-1.45a29.82,29.82,0,0,1-1.1-6.77A36.12,36.12,0,0,1,235.83,405.19Z"/><path class="cls-18" d="M235.87,405c.33-.64,5.93-2,6.18-2.3,0,0,.06-.42.08-.44s0-.12,0-.12a5.58,5.58,0,0,1,1.71.25c.06.06,1.44-.08,1.51,0s.07.52.09.55c.22.28,5.69,1.58,5.92,2.05a35.86,35.86,0,0,1,0,6.87,30,30,0,0,1-1.09,6.77c-.3,1-.6,1.33-1,1.46a18.4,18.4,0,0,1-5.32.69,24.6,24.6,0,0,1-3.21-.11,14.48,14.48,0,0,1-3-.58c-.38-.13-.67-.51-1-1.46a30.06,30.06,0,0,1-1.06-6.77A34.72,34.72,0,0,1,235.87,405Z"/><path class="cls-19" d="M235.91,404.83c.35-.68,5.88-2.08,6.14-2.38,0,0,.07-.4.09-.43s0-.11,0-.12a5.25,5.25,0,0,1,1.71.25c.07.07,1.43-.07,1.51,0s.07.51.09.55c.23.29,5.63,1.59,5.87,2.1a34.63,34.63,0,0,1,.06,6.85,30.28,30.28,0,0,1-1,6.76c-.3,1-.59,1.34-1,1.47a18.49,18.49,0,0,1-5.34.69,25.06,25.06,0,0,1-3.24-.11,14.56,14.56,0,0,1-3-.58c-.37-.13-.65-.5-.95-1.46a30.48,30.48,0,0,1-1-6.77A33.57,33.57,0,0,1,235.91,404.83Z"/><path class="cls-20" d="M236,404.64c.37-.72,5.84-2.13,6.11-2.44,0,0,.07-.4.09-.43s0-.11,0-.12a5.05,5.05,0,0,1,1.72.25c.07.07,1.41-.06,1.5.05s.07.51.09.54c.24.31,5.57,1.62,5.83,2.15a34.35,34.35,0,0,1,.09,6.83,31.27,31.27,0,0,1-1,6.77c-.3,1-.58,1.35-.94,1.47a18.71,18.71,0,0,1-5.36.69,23.92,23.92,0,0,1-3.28-.11,13.64,13.64,0,0,1-3.06-.58c-.36-.12-.64-.49-.94-1.47a31.29,31.29,0,0,1-1-6.77A33,33,0,0,1,236,404.64Z"/><path class="cls-21" d="M236,404.46c.39-.76,5.79-2.18,6.08-2.51,0,0,.07-.4.1-.43a.7.7,0,0,1,0-.12,5,5,0,0,1,1.71.24c.08.08,1.4,0,1.49.07s.08.51.1.55c.26.32,5.51,1.64,5.78,2.2a32.78,32.78,0,0,1,.13,6.8,32.11,32.11,0,0,1-1,6.77c-.3,1-.57,1.36-.93,1.48a19.13,19.13,0,0,1-5.38.7,28.09,28.09,0,0,1-3.31-.11,14.84,14.84,0,0,1-3.1-.59c-.35-.12-.62-.48-.91-1.48a31,31,0,0,1-1-6.77A31.85,31.85,0,0,1,236,404.46Z"/><path class="cls-22" d="M236,404.27c.41-.79,5.74-2.22,6.05-2.57,0,0,.07-.4.1-.42s0-.12,0-.13a5,5,0,0,1,1.72.24c.07.09,1.38,0,1.48.09s.07.5.1.54c.27.34,5.46,1.67,5.73,2.25a41.45,41.45,0,0,1-.8,13.55c-.29,1-.55,1.37-.9,1.49a19,19,0,0,1-5.4.7,26.6,26.6,0,0,1-3.35-.11,14.66,14.66,0,0,1-3.13-.59c-.35-.12-.62-.47-.9-1.48a32,32,0,0,1-.93-6.78A31.43,31.43,0,0,1,236,404.27Z"/><path class="cls-23" d="M236.07,404.09c.43-.83,5.7-2.28,6-2.64,0,0,.07-.39.1-.42s0-.12,0-.12a4.37,4.37,0,0,1,1.72.23c.08.09,1.38,0,1.48.11s.07.5.1.54c.28.35,5.4,1.69,5.69,2.3a31.63,31.63,0,0,1,.19,6.76,32.07,32.07,0,0,1-.93,6.77c-.29,1-.55,1.37-.89,1.49a19.07,19.07,0,0,1-5.41.7,25.39,25.39,0,0,1-3.39-.11,14.38,14.38,0,0,1-3.16-.59c-.35-.12-.61-.47-.89-1.49a32.89,32.89,0,0,1-.89-6.77A30.51,30.51,0,0,1,236.07,404.09Z"/><path class="cls-24" d="M236.11,403.91c.45-.87,5.65-2.33,6-2.71,0,0,.08-.39.1-.42s0-.11,0-.12a4.4,4.4,0,0,1,1.72.23c.08.09,1.36,0,1.46.13s.08.49.11.53c.3.38,5.34,1.71,5.64,2.36a30,30,0,0,1,.22,6.73,33.08,33.08,0,0,1-.89,6.77c-.28,1-.54,1.39-.88,1.51a19.5,19.5,0,0,1-5.43.69,27.68,27.68,0,0,1-3.42-.1,16.57,16.57,0,0,1-3.2-.59c-.33-.12-.59-.47-.87-1.51a33.2,33.2,0,0,1-.86-6.77A30,30,0,0,1,236.11,403.91Z"/><path class="cls-25" d="M236.15,403.72c.47-.9,5.61-2.38,6-2.77,0,0,.08-.39.11-.42s0-.11,0-.12a4.27,4.27,0,0,1,1.73.23c.08.1,1.34,0,1.45.14s.08.49.11.53c.31.4,5.28,1.74,5.6,2.41a30.52,30.52,0,0,1,.25,6.71,33.29,33.29,0,0,1-.86,6.77c-.28,1.06-.53,1.4-.86,1.52a20.09,20.09,0,0,1-5.45.7,26.39,26.39,0,0,1-3.46-.11,16.36,16.36,0,0,1-3.23-.59c-.33-.12-.58-.46-.85-1.51a32.91,32.91,0,0,1-.83-6.78A29.27,29.27,0,0,1,236.15,403.72Z"/><path class="cls-26" d="M236.19,403.54c.48-1,5.56-2.43,5.93-2.84,0,0,.08-.39.11-.42s0-.11,0-.12a3.9,3.9,0,0,1,1.72.23c.09.1,1.33,0,1.45.16s.08.49.11.53c.32.41,5.22,1.76,5.55,2.46a29.43,29.43,0,0,1,.29,6.68,33.79,33.79,0,0,1-.83,6.78c-.28,1.07-.52,1.4-.85,1.52a20.18,20.18,0,0,1-5.47.7,26.85,26.85,0,0,1-3.49-.11,16.47,16.47,0,0,1-3.27-.59c-.32-.12-.56-.45-.83-1.52a33.14,33.14,0,0,1-.79-6.78A28.5,28.5,0,0,1,236.19,403.54Z"/><path class="cls-27" d="M236.23,403.35c.5-1,5.52-2.48,5.9-2.9,0,0,.08-.38.11-.42s0-.11,0-.12a4,4,0,0,1,1.73.23c.09.1,1.31,0,1.43.18s.09.48.12.52c.33.43,5.16,1.79,5.51,2.51a29.62,29.62,0,0,1,.31,6.67,34,34,0,0,1-.8,6.77c-.27,1.09-.51,1.41-.82,1.53a20.42,20.42,0,0,1-5.49.7,27.41,27.41,0,0,1-3.53-.11,17.06,17.06,0,0,1-3.3-.59c-.32-.12-.55-.44-.82-1.53a34,34,0,0,1-.76-6.77A28.25,28.25,0,0,1,236.23,403.35Z"/><path class="cls-28" d="M236.27,403.17c.52-1,5.47-2.53,5.86-3,0,0,.09-.38.12-.42s0-.11,0-.12a3.79,3.79,0,0,1,1.73.23c.1.1,1.3,0,1.43.2s.09.47.12.52c.35.44,5.1,1.81,5.46,2.56a28,28,0,0,1,.35,6.64,34.09,34.09,0,0,1-.77,6.77c-.27,1.11-.5,1.43-.81,1.54a20.51,20.51,0,0,1-5.51.7,26.14,26.14,0,0,1-3.56-.1,17.26,17.26,0,0,1-3.33-.6c-.32-.11-.55-.43-.81-1.54a34.28,34.28,0,0,1-.72-6.77C235.81,406.68,236,403.73,236.27,403.17Z"/><path class="cls-29" d="M236.31,403c.54-1.06,5.42-2.58,5.83-3,0,0,.09-.38.13-.42s0-.1,0-.11a3.42,3.42,0,0,1,1.73.22c.1.11,1.29.05,1.42.21s.09.47.12.52c.36.46,5,1.84,5.41,2.62a27.32,27.32,0,0,1,.38,6.61,34.61,34.61,0,0,1-.73,6.78c-.26,1.12-.49,1.43-.8,1.54a21,21,0,0,1-5.52.71,28.4,28.4,0,0,1-3.6-.11,17.38,17.38,0,0,1-3.37-.6c-.3-.11-.53-.42-.78-1.54a34.72,34.72,0,0,1-.7-6.78C235.83,406.5,236,403.57,236.31,403Z"/><path class="cls-30" d="M236.35,402.8c.56-1.09,5.38-2.63,5.8-3.1,0-.05.09-.38.13-.42s0-.1,0-.11a3.41,3.41,0,0,1,1.73.22c.11.11,1.28.07,1.41.23s.09.47.13.52c.37.47,5,1.85,5.37,2.66a27.83,27.83,0,0,1,.41,6.59,35.59,35.59,0,0,1-.7,6.78c-.26,1.14-.48,1.44-.78,1.55a21.22,21.22,0,0,1-5.54.71,29,29,0,0,1-3.64-.11,16.32,16.32,0,0,1-3.4-.6c-.3-.11-.52-.41-.77-1.55a34.16,34.16,0,0,1-.66-6.77C235.85,406.31,236.05,403.4,236.35,402.8Z"/><path class="cls-31" d="M236.39,402.62c.58-1.14,5.33-2.68,5.77-3.17,0-.05.09-.37.13-.41s0-.11.05-.12a3.31,3.31,0,0,1,1.73.22c.11.11,1.26.08,1.4.25s.09.46.13.51c.38.49,4.92,1.88,5.32,2.72.3.62.49,3.51.45,6.57a35,35,0,0,1-.68,6.77c-.25,1.15-.46,1.45-.76,1.56a20.9,20.9,0,0,1-5.56.71,27.69,27.69,0,0,1-3.67-.1,17.71,17.71,0,0,1-3.44-.61c-.29-.11-.5-.4-.75-1.56a35.92,35.92,0,0,1-.63-6.77C235.87,406.13,236.08,403.24,236.39,402.62Z"/><path class="cls-32" d="M236.43,402.43c.6-1.17,5.29-2.73,5.74-3.23,0-.05.1-.37.14-.41s0-.11,0-.12a3.35,3.35,0,0,1,1.74.21c.11.13,1.24.1,1.38.28s.1.45.14.51c.4.5,4.86,1.9,5.28,2.76a26.76,26.76,0,0,1,.47,6.55,35.23,35.23,0,0,1-.64,6.77c-.25,1.17-.46,1.47-.74,1.57a21.14,21.14,0,0,1-5.58.71,28.25,28.25,0,0,1-3.71-.1,17.53,17.53,0,0,1-3.47-.61c-.29-.1-.49-.4-.74-1.56a35.59,35.59,0,0,1-.59-6.78C235.89,405.94,236.1,403.08,236.43,402.43Z"/><path class="cls-33" d="M236.47,402.25c.62-1.21,5.24-2.78,5.71-3.3,0-.05.1-.37.14-.41s0-.11,0-.12a3.24,3.24,0,0,1,1.74.21c.12.13,1.23.11,1.38.29s.1.46.14.51c.41.53,4.8,1.93,5.23,2.82.32.66.52,3.51.51,6.52a35.6,35.6,0,0,1-.61,6.78c-.25,1.18-.45,1.47-.73,1.57a22.07,22.07,0,0,1-5.6.72,30.48,30.48,0,0,1-3.74-.11,17.21,17.21,0,0,1-3.5-.61c-.28-.1-.49-.39-.72-1.57a34.9,34.9,0,0,1-.56-6.78C235.91,405.76,236.13,402.91,236.47,402.25Z"/><path class="cls-34" d="M236.51,402.07c.64-1.25,5.2-2.83,5.68-3.37,0-.05.1-.37.14-.41s0-.1,0-.11a3.06,3.06,0,0,1,1.74.2c.12.13,1.22.12,1.37.31s.1.45.14.51c.42.54,4.74,1.95,5.18,2.87.33.68.55,3.5.55,6.5a36.58,36.58,0,0,1-.58,6.77c-.24,1.2-.44,1.48-.72,1.58a22.2,22.2,0,0,1-5.61.72,29.23,29.23,0,0,1-3.78-.1,18.68,18.68,0,0,1-3.54-.62c-.27-.1-.47-.38-.7-1.58a35.91,35.91,0,0,1-.53-6.77C235.93,405.57,236.16,402.75,236.51,402.07Z"/><path class="cls-35" d="M236.55,401.88c.66-1.28,5.15-2.88,5.65-3.43,0-.06.1-.36.14-.41s0-.1,0-.11a3,3,0,0,1,1.74.2c.13.14,1.21.13,1.36.33s.11.44.15.5c.44.56,4.69,2,5.14,2.92a25.55,25.55,0,0,1,.57,6.48,36.79,36.79,0,0,1-.54,6.77c-.24,1.22-.43,1.5-.7,1.59a22.43,22.43,0,0,1-5.64.72,29.7,29.7,0,0,1-3.81-.1,18.32,18.32,0,0,1-3.57-.62c-.27-.09-.46-.37-.69-1.58a36.28,36.28,0,0,1-.49-6.78C235.94,405.39,236.19,402.59,236.55,401.88Z"/><path class="cls-36" d="M236.59,401.7c.68-1.32,5.1-2.93,5.61-3.5.05-.06.11-.36.16-.41s0-.1,0-.11a2.92,2.92,0,0,1,1.75.2c.13.14,1.19.15,1.35.34s.11.45.15.51c.45.57,4.63,2,5.09,3,.35.72.58,3.5.61,6.45a36.32,36.32,0,0,1-.52,6.78c-.23,1.23-.42,1.5-.68,1.59a23,23,0,0,1-5.65.73,30.23,30.23,0,0,1-3.85-.11,18.48,18.48,0,0,1-3.61-.62c-.26-.09-.44-.36-.67-1.59a36.44,36.44,0,0,1-.46-6.78C236,405.2,236.22,402.42,236.59,401.7Z"/><path class="cls-37" d="M236.63,401.51c.7-1.36,5.06-3,5.58-3.56,0-.06.11-.36.16-.41s0-.1,0-.11a2.82,2.82,0,0,1,1.74.2c.14.14,1.18.16,1.35.36s.11.44.15.5c.46.59,4.57,2,5.05,3a24.7,24.7,0,0,1,.63,6.43,36.5,36.5,0,0,1-.48,6.78c-.23,1.25-.41,1.51-.66,1.6a23.22,23.22,0,0,1-5.67.73,30.81,30.81,0,0,1-3.89-.11,19.14,19.14,0,0,1-3.64-.62c-.26-.09-.44-.35-.65-1.6a35.81,35.81,0,0,1-.43-6.78C236,405,236.25,402.26,236.63,401.51Z"/><path class="cls-38" d="M236.67,401.33c.71-1.4,5-3,5.55-3.63.05-.06.11-.36.16-.41s0-.09.05-.11a2.85,2.85,0,0,1,1.75.2c.13.14,1.16.17,1.33.38s.11.43.16.5c.47.6,4.51,2,5,3.07.37.77.62,3.5.67,6.41a37.49,37.49,0,0,1-.45,6.77c-.22,1.27-.4,1.52-.65,1.61a23.32,23.32,0,0,1-5.69.73,31.3,31.3,0,0,1-3.92-.1,19.33,19.33,0,0,1-3.67-.63c-.25-.09-.43-.34-.64-1.6a36.92,36.92,0,0,1-.4-6.78C236,404.83,236.28,402.1,236.67,401.33Z"/><path class="cls-39" d="M236.71,401.15c.73-1.44,5-3.08,5.52-3.7.06-.06.12-.35.16-.4s0-.1.06-.12a2.72,2.72,0,0,1,1.75.2c.13.15,1.14.18,1.32.4,0,.06.11.42.17.49.48.62,4.44,2.07,4.94,3.13.38.78.64,3.49.71,6.38a37.88,37.88,0,0,1-.42,6.78c-.22,1.28-.39,1.53-.64,1.61a23.45,23.45,0,0,1-5.7.73,30.07,30.07,0,0,1-4-.1,19.49,19.49,0,0,1-3.71-.63c-.24-.08-.41-.33-.62-1.61a37.09,37.09,0,0,1-.36-6.78C236,404.64,236.31,401.93,236.71,401.15Z"/><path class="cls-40" d="M236.75,401c.75-1.47,4.92-3.13,5.49-3.76.06-.06.12-.35.17-.4s0-.1.05-.11a2.58,2.58,0,0,1,1.75.19c.14.15,1.14.19,1.32.41.05.07.11.43.17.5.49.63,4.38,2.08,4.9,3.17a23.94,23.94,0,0,1,.73,6.36,37.06,37.06,0,0,1-.39,6.78c-.21,1.3-.37,1.54-.61,1.62a24.23,24.23,0,0,1-5.73.74,32.32,32.32,0,0,1-4-.11,19.49,19.49,0,0,1-3.74-.63c-.24-.08-.4-.32-.61-1.62a36.38,36.38,0,0,1-.32-6.78C236,404.46,236.34,401.77,236.75,401Z"/><path class="cls-41" d="M236.79,400.78c.77-1.51,4.88-3.18,5.46-3.83.06-.07.12-.35.17-.4s0-.1.05-.11a2.61,2.61,0,0,1,1.76.19c.14.15,1.12.2,1.3.43.06.07.12.42.18.49.5.65,4.32,2.11,4.85,3.23a23.43,23.43,0,0,1,.77,6.33,37.24,37.24,0,0,1-.36,6.78c-.21,1.32-.37,1.55-.6,1.63a23.74,23.74,0,0,1-5.74.74,33,33,0,0,1-4-.1,20,20,0,0,1-3.78-.64c-.23-.08-.39-.31-.58-1.63a37.35,37.35,0,0,1-.3-6.78C236.06,404.27,236.37,401.61,236.79,400.78Z"/><path class="cls-42" d="M236.83,400.59c.79-1.54,4.83-3.23,5.43-3.89.06-.07.12-.34.17-.4s0-.1.06-.11a2.53,2.53,0,0,1,1.75.19c.15.16,1.11.22,1.3.45.05.07.12.41.18.49.52.66,4.26,2.13,4.81,3.27a23.79,23.79,0,0,1,.79,6.32,36.59,36.59,0,0,1-.32,6.78c-.2,1.32-.36,1.55-.58,1.63a24,24,0,0,1-5.76.74,31.68,31.68,0,0,1-4.07-.1,19.85,19.85,0,0,1-3.81-.64c-.22-.08-.38-.3-.57-1.63a36.72,36.72,0,0,1-.26-6.78C236.08,404.09,236.4,401.44,236.83,400.59Z"/><path class="cls-43" d="M236.87,400.41c.81-1.59,4.78-3.28,5.4-4,.06-.07.12-.34.17-.4s0-.09.06-.11a2.5,2.5,0,0,1,1.76.18c.15.17,1.09.24,1.29.48,0,.06.12.41.18.48.53.69,4.2,2.16,4.76,3.33a23.32,23.32,0,0,1,.83,6.29,38.52,38.52,0,0,1-.29,6.78c-.2,1.34-.35,1.57-.57,1.64a24.12,24.12,0,0,1-5.78.74,32.11,32.11,0,0,1-4.1-.1,19.52,19.52,0,0,1-3.84-.64c-.22-.07-.37-.3-.56-1.64a37.73,37.73,0,0,1-.23-6.78C236.1,403.9,236.43,401.28,236.87,400.41Z"/><path class="cls-44" d="M236.91,400.23c.83-1.63,4.74-3.34,5.37-4,.06-.06.12-.33.18-.39s0-.09.06-.11a2.47,2.47,0,0,1,1.75.18c.16.17,1.08.25,1.28.49.06.07.13.41.19.48.54.71,4.14,2.19,4.71,3.39a22.88,22.88,0,0,1,.87,6.26,38.67,38.67,0,0,1-.26,6.78c-.2,1.36-.34,1.58-.56,1.65a24.81,24.81,0,0,1-5.79.75,32.61,32.61,0,0,1-4.14-.11,20.57,20.57,0,0,1-3.88-.64c-.21-.07-.35-.29-.54-1.65a37,37,0,0,1-.19-6.78A22.45,22.45,0,0,1,236.91,400.23Z"/><path class="cls-45" d="M237,400c.85-1.66,4.69-3.38,5.33-4.1.07-.06.13-.33.19-.39s0-.09.06-.11a2.44,2.44,0,0,1,1.76.18c.16.18,1.07.26,1.27.51.06.07.13.4.19.48.55.72,4.08,2.21,4.67,3.43a22.85,22.85,0,0,1,.89,6.25,37,37,0,0,1-.23,6.78c-.19,1.37-.33,1.58-.53,1.65a25,25,0,0,1-5.82.75,33.18,33.18,0,0,1-4.17-.1,20.92,20.92,0,0,1-3.91-.65c-.21-.07-.35-.28-.52-1.65a37.07,37.07,0,0,1-.17-6.78A22.26,22.26,0,0,1,237,400Z"/><path class="cls-46" d="M237,399.86c.87-1.7,4.65-3.43,5.3-4.17.07-.07.13-.32.19-.39s0-.09.06-.1a2.32,2.32,0,0,1,1.77.17c.16.18,1.05.27,1.25.53.06.07.13.39.2.47.57.74,4,2.23,4.62,3.49a22.46,22.46,0,0,1,.93,6.22,38,38,0,0,1-.2,6.78c-.18,1.39-.32,1.59-.52,1.66a25.07,25.07,0,0,1-5.83.75,33.78,33.78,0,0,1-4.21-.1,20.94,20.94,0,0,1-4-.65c-.2-.07-.33-.27-.5-1.66a37.16,37.16,0,0,1-.13-6.78A21.64,21.64,0,0,1,237,399.86Z"/><path class="cls-47" d="M237,399.67c.89-1.73,4.6-3.48,5.27-4.23.07-.07.14-.32.19-.38s0-.1.07-.11a2.29,2.29,0,0,1,1.76.17c.17.18,1,.28,1.25.55.06.07.13.39.2.47.58.75,4,2.25,4.58,3.53a23.23,23.23,0,0,1,1,6.2,38.05,38.05,0,0,1-.17,6.78c-.18,1.41-.31,1.61-.5,1.68a26.48,26.48,0,0,1-5.86.74,30.76,30.76,0,0,1-4.24-.1,23.18,23.18,0,0,1-4-.64c-.19-.07-.32-.27-.49-1.68a36.39,36.39,0,0,1-.09-6.78A21.64,21.64,0,0,1,237,399.67Z"/><path class="cls-48" d="M237.07,399.49c.91-1.78,4.55-3.53,5.24-4.3.07-.07.14-.32.2-.38s0-.09.06-.11a2.27,2.27,0,0,1,1.77.17c.17.18,1,.3,1.24.56.06.08.13.39.2.47.59.77,3.9,2.28,4.53,3.59a22.49,22.49,0,0,1,1,6.17,37.22,37.22,0,0,1-.13,6.78c-.18,1.43-.3,1.62-.49,1.69a27.22,27.22,0,0,1-5.87.75,34.88,34.88,0,0,1-4.28-.1,22.31,22.31,0,0,1-4-.65c-.19-.07-.32-.26-.48-1.68a37.45,37.45,0,0,1-.06-6.79A21.63,21.63,0,0,1,237.07,399.49Z"/><path class="cls-49" d="M237.11,399.31c.93-1.82,4.51-3.59,5.21-4.37.07-.07.14-.32.2-.38s0-.09.06-.11a2.19,2.19,0,0,1,1.77.17c.18.19,1,.31,1.23.58.07.08.14.38.21.47.61.78,3.85,2.3,4.48,3.64a22.25,22.25,0,0,1,1,6.15,38.24,38.24,0,0,1-.11,6.78c-.16,1.44-.29,1.62-.47,1.69a27.3,27.3,0,0,1-5.88.75,35.44,35.44,0,0,1-4.32-.1,22.52,22.52,0,0,1-4.05-.65c-.18-.07-.3-.25-.45-1.69a35.67,35.67,0,0,1,0-6.78A21.52,21.52,0,0,1,237.11,399.31Z"/><path class="cls-50" d="M237.15,399.12c.94-1.85,4.46-3.63,5.18-4.43.07-.07.14-.31.2-.38s.05-.09.07-.11a2.19,2.19,0,0,1,1.77.17c.18.19,1,.32,1.22.6.06.08.14.38.21.46.62.8,3.79,2.33,4.44,3.69a22.28,22.28,0,0,1,1,6.13,37.37,37.37,0,0,1-.07,6.78c-.16,1.46-.28,1.63-.45,1.7a27,27,0,0,1-5.91.75,32.27,32.27,0,0,1-4.35-.1,23.37,23.37,0,0,1-4.08-.65c-.18-.07-.29-.24-.44-1.7a37.45,37.45,0,0,1,0-6.78A21.78,21.78,0,0,1,237.15,399.12Z"/><path class="cls-51" d="M237.19,398.94c1-1.89,4.42-3.68,5.15-4.5.07-.08.14-.31.2-.38s.05-.09.07-.11a2.15,2.15,0,0,1,1.77.17c.19.19,1,.33,1.22.61.06.09.14.38.21.47.63.81,3.73,2.34,4.39,3.74a21.92,21.92,0,0,1,1.09,6.1,37.41,37.41,0,0,1,0,6.78c-.16,1.48-.27,1.65-.44,1.71a27.78,27.78,0,0,1-5.92.76,36.56,36.56,0,0,1-4.39-.1,24,24,0,0,1-4.12-.66c-.16-.06-.27-.23-.42-1.7a36.71,36.71,0,0,1,0-6.79A21.25,21.25,0,0,1,237.19,398.94Z"/><path class="cls-52" d="M237.23,398.75c1-1.92,4.37-3.73,5.12-4.56.07-.08.14-.31.21-.38s0-.09.07-.1a2.11,2.11,0,0,1,1.77.16c.19.2,1,.34,1.2.63.07.09.15.37.22.46.64.84,3.67,2.37,4.35,3.79a22.77,22.77,0,0,1,1.12,6.08,37.55,37.55,0,0,1,0,6.79c-.16,1.49-.26,1.65-.42,1.71a28,28,0,0,1-6,.76,37.07,37.07,0,0,1-4.42-.1,23.77,23.77,0,0,1-4.15-.66c-.16-.06-.27-.22-.41-1.71a36.73,36.73,0,0,1,.07-6.79A21.55,21.55,0,0,1,237.23,398.75Z"/><path class="cls-53" d="M237.27,398.57c1-2,4.33-3.78,5.09-4.63.07-.08.14-.31.21-.38l.07-.1a2.06,2.06,0,0,1,1.78.16c.19.2,1,.35,1.19.65.07.08.15.37.22.46.66.85,3.61,2.39,4.3,3.84a22.2,22.2,0,0,1,1.15,6.06,37.47,37.47,0,0,1,0,6.78c-.15,1.5-.25,1.66-.41,1.72a28.05,28.05,0,0,1-6,.76,33.86,33.86,0,0,1-4.46-.1,23.38,23.38,0,0,1-4.18-.66c-.16-.06-.26-.21-.39-1.72a35.77,35.77,0,0,1,.1-6.78A21.42,21.42,0,0,1,237.27,398.57Z"/><path class="cls-54" d="M237.31,398.39c1-2,4.28-3.84,5.05-4.7a3.72,3.72,0,0,0,.22-.38l.07-.1a2.06,2.06,0,0,1,1.78.15c.19.21.94.38,1.19.68.07.08.14.36.22.45.67.87,3.55,2.42,4.25,3.9a22,22,0,0,1,1.19,6,36.58,36.58,0,0,1,.05,6.78c-.14,1.52-.24,1.68-.39,1.73a28.23,28.23,0,0,1-6,.76,34.28,34.28,0,0,1-4.49-.1,24.7,24.7,0,0,1-4.22-.66c-.15-.05-.24-.21-.37-1.73a35,35,0,0,1,.14-6.78A21.31,21.31,0,0,1,237.31,398.39Z"/><path class="cls-55" d="M237.35,398.2c1-2,4.23-3.88,5-4.76.08-.08.16-.3.23-.38s0-.08.07-.1a2.06,2.06,0,0,1,1.78.15c.19.22.92.39,1.17.69.07.09.15.36.23.46.68.88,3.49,2.44,4.21,3.94a22.09,22.09,0,0,1,1.21,6,35.83,35.83,0,0,1,.09,6.79c-.14,1.53-.23,1.68-.37,1.73a29.2,29.2,0,0,1-6,.77,38.81,38.81,0,0,1-4.53-.1,24.19,24.19,0,0,1-4.25-.67c-.15-.05-.24-.2-.36-1.73a35.85,35.85,0,0,1,.17-6.79A21.67,21.67,0,0,1,237.35,398.2Z"/><path class="cls-56" d="M237.39,398c1.06-2.08,4.19-3.93,5-4.83.08-.09.16-.3.23-.37a1.05,1.05,0,0,1,.07-.11,2,2,0,0,1,1.78.15c.2.22.92.4,1.17.71.07.09.15.35.23.45.7.9,3.43,2.46,4.16,4a22,22,0,0,1,1.25,6,35.82,35.82,0,0,1,.12,6.79c-.13,1.55-.22,1.69-.36,1.74a29.38,29.38,0,0,1-6,.77,35.44,35.44,0,0,1-4.57-.1,24.22,24.22,0,0,1-4.29-.67c-.13,0-.22-.19-.34-1.74A35.85,35.85,0,0,1,236,404,21.32,21.32,0,0,1,237.39,398Z"/><path class="cls-57" d="M237.43,397.83c1.08-2.11,4.14-4,5-4.89.08-.09.16-.3.23-.37a.76.76,0,0,1,.08-.11,2,2,0,0,1,1.78.15c.2.22.9.41,1.15.73.08.09.16.35.24.45.71.91,3.37,2.48,4.12,4a22.37,22.37,0,0,1,1.28,6,37.4,37.4,0,0,1,.15,6.78c-.13,1.57-.21,1.7-.34,1.75a29.57,29.57,0,0,1-6,.77,35.91,35.91,0,0,1-4.6-.1,25.14,25.14,0,0,1-4.32-.67c-.13-.05-.21-.18-.32-1.75a34.89,34.89,0,0,1,.23-6.78A21.64,21.64,0,0,1,237.43,397.83Z"/><path class="cls-58" d="M237.47,397.65c1.1-2.15,4.1-4,4.93-5,.08-.09.16-.29.23-.37s.05-.08.08-.1a1.93,1.93,0,0,1,1.78.14c.21.22.89.42,1.15.75.08.09.16.34.24.44.72.93,3.31,2.51,4.07,4.1a22.29,22.29,0,0,1,1.31,5.94,35.75,35.75,0,0,1,.18,6.79c-.12,1.58-.2,1.71-.32,1.75a29.66,29.66,0,0,1-6.05.77,38.59,38.59,0,0,1-4.64-.09,25.3,25.3,0,0,1-4.35-.68c-.13,0-.21-.17-.31-1.75a34.94,34.94,0,0,1,.27-6.79A21.68,21.68,0,0,1,237.47,397.65Z"/><path class="cls-59" d="M237.51,397.47c1.12-2.2,4.05-4.09,4.9-5,.08-.09.16-.29.24-.37l.07-.1a1.9,1.9,0,0,1,1.79.14c.21.23.87.43,1.14.76.07.1.16.34.24.45.73.94,3.25,2.53,4,4.15a21.87,21.87,0,0,1,1.35,5.91,35.69,35.69,0,0,1,.21,6.79c-.11,1.6-.19,1.72-.31,1.76a29.89,29.89,0,0,1-6.07.78,36.94,36.94,0,0,1-4.67-.1,25.55,25.55,0,0,1-4.39-.68c-.12,0-.19-.16-.29-1.76a34.9,34.9,0,0,1,.3-6.79A22,22,0,0,1,237.51,397.47Z"/><path class="cls-60" d="M237.55,397.28c1.14-2.23,4-4.13,4.87-5.09.08-.09.16-.29.24-.37s.05-.08.08-.1a1.87,1.87,0,0,1,1.79.14c.21.23.85.45,1.12.78.08.1.17.34.25.44.75,1,3.19,2.56,4,4.2a22.7,22.7,0,0,1,1.38,5.9,35.52,35.52,0,0,1,.24,6.78c-.11,1.62-.18,1.73-.29,1.77a30.17,30.17,0,0,1-6.09.78,37.54,37.54,0,0,1-4.71-.1,26.54,26.54,0,0,1-4.42-.68c-.11,0-.18-.15-.28-1.77a33.92,33.92,0,0,1,.34-6.78A21.66,21.66,0,0,1,237.55,397.28Z"/><path class="cls-61" d="M237.59,397.1c1.15-2.27,4-4.19,4.84-5.16.08-.1.17-.29.24-.37s.05-.08.08-.1a1.87,1.87,0,0,1,1.79.14c.22.23.84.46,1.12.8.08.1.17.33.25.43.76,1,3.13,2.59,3.93,4.26a22,22,0,0,1,1.41,5.87,35.53,35.53,0,0,1,.28,6.79c-.11,1.63-.17,1.73-.28,1.77a31,31,0,0,1-6.1.78,38.28,38.28,0,0,1-4.75-.09,27.17,27.17,0,0,1-4.46-.69c-.1,0-.17-.14-.25-1.77a33.21,33.21,0,0,1,.37-6.79A21.41,21.41,0,0,1,237.59,397.1Z"/><path class="cls-62" d="M237.63,396.91c1.17-2.3,3.91-4.23,4.8-5.22.09-.1.18-.28.25-.37a.39.39,0,0,0,.08-.1,1.86,1.86,0,0,1,1.8.14c.22.24.83.47,1.11.82.08.09.16.32.25.43.77,1,3.08,2.6,3.89,4.3a23,23,0,0,1,1.44,5.85,35.44,35.44,0,0,1,.31,6.79c-.1,1.65-.16,1.75-.26,1.78a31.28,31.28,0,0,1-6.13.78,36.9,36.9,0,0,1-4.78-.09,25.78,25.78,0,0,1-4.49-.69c-.1,0-.16-.13-.24-1.78a33.84,33.84,0,0,1,.4-6.79A22,22,0,0,1,237.63,396.91Z"/><path class="cls-63" d="M237.67,396.73c1.19-2.34,3.87-4.28,4.77-5.29.09-.1.18-.28.26-.37a.65.65,0,0,1,.08-.09,1.77,1.77,0,0,1,1.79.13c.23.24.82.48,1.1.83.09.1.17.32.26.43.79,1,3,2.63,3.84,4.36a22.58,22.58,0,0,1,1.47,5.82,33.83,33.83,0,0,1,.34,6.79c-.09,1.66-.15,1.76-.24,1.79a32.2,32.2,0,0,1-6.14.79,39.25,39.25,0,0,1-4.82-.1,26.53,26.53,0,0,1-4.52-.69c-.1,0-.16-.12-.23-1.79a33.05,33.05,0,0,1,.44-6.79A22,22,0,0,1,237.67,396.73Z"/><path class="cls-64" d="M237.71,396.55c1.21-2.38,3.82-4.34,4.74-5.36.09-.1.18-.28.26-.36a.39.39,0,0,1,.08-.1,1.78,1.78,0,0,1,1.8.13,11,11,0,0,1,1.09.85c.08.1.17.32.26.43.8,1,3,2.65,3.79,4.41a22.55,22.55,0,0,1,1.51,5.8,33.59,33.59,0,0,1,.37,6.78c-.08,1.68-.14,1.77-.23,1.8a32.4,32.4,0,0,1-6.16.79,37.79,37.79,0,0,1-4.85-.1,26.81,26.81,0,0,1-4.56-.69c-.09,0-.14-.12-.21-1.79a33.65,33.65,0,0,1,.47-6.79A22,22,0,0,1,237.71,396.55Z"/><path class="cls-65" d="M237.75,396.36c1.23-2.42,3.78-4.38,4.71-5.42.09-.1.18-.28.26-.36a.9.9,0,0,1,.09-.1,1.76,1.76,0,0,1,1.79.12,13.61,13.61,0,0,1,1.09.88c.08.1.17.31.26.42.81,1.05,2.9,2.68,3.75,4.46a23.25,23.25,0,0,1,1.54,5.78,33.62,33.62,0,0,1,.4,6.79c-.08,1.69-.13,1.77-.21,1.8a32.6,32.6,0,0,1-6.18.79,38.52,38.52,0,0,1-4.89-.09,27.18,27.18,0,0,1-4.59-.7c-.08,0-.13-.11-.19-1.8a32.14,32.14,0,0,1,.5-6.79A22.3,22.3,0,0,1,237.75,396.36Z"/><path class="cls-66" d="M237.79,396.18c1.25-2.46,3.73-4.44,4.68-5.49.09-.11.18-.27.26-.36a.9.9,0,0,1,.09-.1,1.76,1.76,0,0,1,1.8.12c.24.26.77.53,1.07.9.09.1.18.3.27.42.82,1.06,2.84,2.7,3.7,4.51a22.9,22.9,0,0,1,1.57,5.75,33.53,33.53,0,0,1,.44,6.79c-.08,1.71-.12,1.79-.2,1.81a32.8,32.8,0,0,1-6.2.79,39,39,0,0,1-4.92-.09,27.24,27.24,0,0,1-4.63-.7c-.07,0-.12-.1-.17-1.81a32.07,32.07,0,0,1,.53-6.79A22.79,22.79,0,0,1,237.79,396.18Z"/><path class="cls-67" d="M237.83,396c1.27-2.49,3.69-4.48,4.65-5.55.09-.11.18-.27.27-.36l.08-.1a1.76,1.76,0,0,1,1.81.12c.24.26.76.54,1.06.91.09.11.18.31.27.42.84,1.08,2.78,2.72,3.66,4.56a23.67,23.67,0,0,1,1.6,5.73,32.71,32.71,0,0,1,.46,6.79c-.06,1.73-.11,1.8-.17,1.82a34,34,0,0,1-6.22.8,39.47,39.47,0,0,1-5-.1,28.29,28.29,0,0,1-4.66-.7c-.07,0-.11-.09-.16-1.82a31.93,31.93,0,0,1,.57-6.79A22.74,22.74,0,0,1,237.83,396Z"/><path class="cls-68" d="M237.87,395.81c1.29-2.53,3.64-4.53,4.62-5.62.09-.11.18-.27.27-.36l.09-.1a1.72,1.72,0,0,1,1.8.12,13,13,0,0,1,1.06.93c.08.11.18.3.27.42.85,1.09,2.72,2.74,3.61,4.61a23.91,23.91,0,0,1,1.63,5.71,31.84,31.84,0,0,1,.5,6.79c-.06,1.74-.1,1.8-.16,1.82a34.21,34.21,0,0,1-6.23.8,40.22,40.22,0,0,1-5-.09,28.67,28.67,0,0,1-4.69-.71c-.07,0-.1-.08-.15-1.82a31.09,31.09,0,0,1,.61-6.79A23,23,0,0,1,237.87,395.81Z"/><path class="cls-69" d="M237.91,395.63a25.77,25.77,0,0,1,4.59-5.69c.09-.11.19-.27.27-.36l.09-.09a1.71,1.71,0,0,1,1.81.11,13.69,13.69,0,0,1,1,.95c.09.11.19.29.28.41.86,1.11,2.66,2.77,3.56,4.67a23.45,23.45,0,0,1,1.67,5.68,32.36,32.36,0,0,1,.53,6.79c-.06,1.76-.09,1.81-.15,1.83a33.35,33.35,0,0,1-6.25.8,40.67,40.67,0,0,1-5-.09,28.72,28.72,0,0,1-4.73-.71c-.05,0-.09-.07-.13-1.83a31.57,31.57,0,0,1,.64-6.79A23.46,23.46,0,0,1,237.91,395.63Z"/><path class="cls-70" d="M238,395.44a26.81,26.81,0,0,1,4.56-5.76c.09-.1.19-.25.27-.35a.43.43,0,0,1,.1-.09,1.65,1.65,0,0,1,1.8.11c.25.27.72.57,1,1,.09.12.18.3.28.42a25.69,25.69,0,0,1,3.52,4.71,24.35,24.35,0,0,1,1.7,5.66,32.26,32.26,0,0,1,.56,6.79c-.05,1.78-.08,1.83-.13,1.84a34.57,34.57,0,0,1-6.27.81,41.14,41.14,0,0,1-5.07-.1,30.11,30.11,0,0,1-4.76-.71c-.05,0-.08-.06-.11-1.84a30.26,30.26,0,0,1,.67-6.79A23.49,23.49,0,0,1,238,395.44Z"/><path class="cls-71" d="M238,395.26a26.88,26.88,0,0,1,4.52-5.83c.1-.11.2-.25.29-.35l.09-.09a1.65,1.65,0,0,1,1.81.11c.25.27.7.58,1,1,.1.12.19.29.29.41a26.35,26.35,0,0,1,3.47,4.77,24.75,24.75,0,0,1,1.73,5.63,31.53,31.53,0,0,1,.6,6.8c-.05,1.79-.07,1.83-.12,1.85a35.63,35.63,0,0,1-6.29.8,41.64,41.64,0,0,1-5.1-.1,31,31,0,0,1-4.8-.7s-.07-.06-.09-1.85a30.7,30.7,0,0,1,.7-6.79A24.29,24.29,0,0,1,238,395.26Z"/><path class="cls-72" d="M238,395.07a27.63,27.63,0,0,1,4.49-5.89c.1-.11.2-.25.29-.34l.09-.1a1.65,1.65,0,0,1,1.81.11c.26.28.69.6,1,1,.09.11.19.28.29.41a26.59,26.59,0,0,1,3.43,4.81,25.06,25.06,0,0,1,1.76,5.62,31.29,31.29,0,0,1,.62,6.79c0,1.81-.06,1.84-.09,1.86a35.84,35.84,0,0,1-6.31.8,40.47,40.47,0,0,1-5.14-.09,31.39,31.39,0,0,1-4.83-.71s-.06,0-.08-1.86a29.94,29.94,0,0,1,.74-6.79A24.7,24.7,0,0,1,238,395.07Z"/><path class="cls-73" d="M238.07,394.89a27.6,27.6,0,0,1,4.46-6c.1-.11.2-.25.29-.34l.1-.1a1.61,1.61,0,0,1,1.81.11c.26.28.68.61,1,1,.09.11.19.27.29.4a27,27,0,0,1,3.38,4.87,26.07,26.07,0,0,1,1.8,5.59,31.19,31.19,0,0,1,.65,6.79c0,1.82-.05,1.86-.08,1.87a36.05,36.05,0,0,1-6.33.8,41,41,0,0,1-5.17-.09,32.7,32.7,0,0,1-4.86-.71s0-.05-.07-1.87a29.84,29.84,0,0,1,.77-6.79A25.21,25.21,0,0,1,238.07,394.89Z"/><path class="cls-74" d="M238.11,394.71a27.65,27.65,0,0,1,4.43-6l.29-.34.1-.1a1.61,1.61,0,0,1,1.82.11c.26.28.66.62,1,1,.1.12.2.28.3.41a26.4,26.4,0,0,1,3.33,4.92,25.34,25.34,0,0,1,1.83,5.56,30.43,30.43,0,0,1,.69,6.8,8.08,8.08,0,0,1-.07,1.87,37.2,37.2,0,0,1-6.34.81,43.39,43.39,0,0,1-5.21-.1,32.75,32.75,0,0,1-4.9-.71,9.3,9.3,0,0,1,0-1.87,28.62,28.62,0,0,1,.8-6.8A25.62,25.62,0,0,1,238.11,394.71Z"/><path class="cls-75" d="M238.15,394.52a28.46,28.46,0,0,1,4.4-6.09c.1-.11.2-.24.3-.34l.09-.09a1.59,1.59,0,0,1,1.82.1c.27.29.65.63,1,1,.1.12.2.27.3.4a27.54,27.54,0,0,1,3.29,5,26.3,26.3,0,0,1,1.86,5.55,30.16,30.16,0,0,1,.72,6.79,11.16,11.16,0,0,1,0,1.88,37.54,37.54,0,0,1-6.36.81,42.13,42.13,0,0,1-5.25-.09,33.17,33.17,0,0,1-4.93-.72,11.05,11.05,0,0,1,0-1.88,27.86,27.86,0,0,1,.84-6.79A25.54,25.54,0,0,1,238.15,394.52Z"/><path class="cls-76" d="M238.19,394.34a28.28,28.28,0,0,1,4.37-6.16l.3-.34a.43.43,0,0,1,.1-.09,1.58,1.58,0,0,1,1.82.09c.27.3.63.65,1,1.08.1.12.2.26.3.4a24.33,24.33,0,0,1,5.13,10.54,28.36,28.36,0,0,1,.75,6.79,13.76,13.76,0,0,1,0,1.89,38.68,38.68,0,0,1-6.38.81,42.62,42.62,0,0,1-5.28-.09,34.92,34.92,0,0,1-5-.72,18.19,18.19,0,0,1,0-1.89,28.19,28.19,0,0,1,.87-6.79A26.21,26.21,0,0,1,238.19,394.34Z"/><path class="cls-77" d="M238.23,394.15a29.14,29.14,0,0,1,4.34-6.22l.3-.34.1-.09a1.58,1.58,0,0,1,1.82.09c.28.3.62.66,1,1.1l.31.39a27.32,27.32,0,0,1,3.2,5.07,27.81,27.81,0,0,1,1.92,5.5,28.79,28.79,0,0,1,.78,6.8c0,1.88,0,1.89,0,1.89a39,39,0,0,1-6.4.81,43.24,43.24,0,0,1-5.32-.09,34.64,34.64,0,0,1-5-.72s0,0,0-1.89a27.61,27.61,0,0,1,.91-6.8A27.09,27.09,0,0,1,238.23,394.15Z"/><path class="cls-78" d="M244.81,387.34a1.53,1.53,0,0,0-1.92,0,29.2,29.2,0,0,0-4.62,6.63,27.28,27.28,0,0,0-3.05,12.27l0,1.9a35.08,35.08,0,0,0,5,.73,43.74,43.74,0,0,0,5.35.09,39.33,39.33,0,0,0,6.42-.82v-1.9A28.13,28.13,0,0,0,249.23,394,27.11,27.11,0,0,0,244.81,387.34Z"/></g></svg>