<svg xmlns="http://www.w3.org/2000/svg" viewBox="0 0 432 846"><defs><style>.cls-1{fill:#a6ce39;}.cls-2{fill:#a7cf39;}.cls-3{fill:#a8cf3a;}.cls-4{fill:#a9cf3a;}.cls-5{fill:#a9cf3b;}.cls-6{fill:#aad03b;}.cls-7{fill:#aad03c;}.cls-8{fill:#abd03c;}.cls-9{fill:#acd03d;}.cls-10{fill:#acd13e;}.cls-11{fill:#add13e;}.cls-12{fill:#add13f;}.cls-13{fill:#aed140;}.cls-14{fill:#afd140;}.cls-15{fill:#afd241;}.cls-16{fill:#b0d242;}.cls-17{fill:#b0d243;}.cls-18{fill:#b1d243;}.cls-19{fill:#b2d344;}.cls-20{fill:#b2d345;}.cls-21{fill:#b3d346;}.cls-22{fill:#b4d447;}.cls-23{fill:#b5d448;}.cls-24{fill:#b5d449;}.cls-25{fill:#b6d449;}.cls-26{fill:#b6d54a;}.cls-27{fill:#b7d54b;}.cls-28{fill:#b8d54b;}.cls-29{fill:#b8d54c;}.cls-30{fill:#b9d64d;}.cls-31{fill:#b9d64e;}.cls-32{fill:#bad64e;}.cls-33{fill:#bad64f;}.cls-34{fill:#bbd750;}.cls-35{fill:#bcd751;}.cls-36{fill:#bcd752;}.cls-37{fill:#bdd752;}.cls-38{fill:#bdd853;}.cls-39{fill:#bed854;}.cls-40{fill:#bed855;}.cls-41{fill:#bfd856;}.cls-42{fill:#c0d957;}.cls-43{fill:#c1d958;}.cls-44{fill:#c1d959;}.cls-45{fill:#c2da5a;}.cls-46{fill:#c3da5b;}.cls-47{fill:#c3da5c;}.cls-48{fill:#c4da5c;}.cls-49{fill:#c4db5d;}.cls-50{fill:#c5db5e;}.cls-51{fill:#c5db5f;}.cls-52{fill:#c6db60;}.cls-53{fill:#c7dc61;}.cls-54{fill:#c7dc62;}.cls-55{fill:#c8dc62;}.cls-56{fill:#c8dc63;}.cls-57{fill:#c9dd64;}.cls-58{fill:#c9dd65;}.cls-59{fill:#cadd66;}.cls-60{fill:#cbdd67;}.cls-61{fill:#cbde68;}.cls-62{fill:#ccde68;}.cls-63{fill:#ccde69;}.cls-64{fill:#cdde6a;}.cls-65{fill:#cedf6b;}.cls-66{fill:#cedf6c;}.cls-67{fill:#cfdf6d;}.cls-68{fill:#cfe06d;}.cls-69{fill:#d0e06e;}.cls-70{fill:#d0e06f;}.cls-71{fill:#d1e070;}.cls-72{fill:#d2e171;}.cls-73{fill:#d2e172;}.cls-74{fill:#d3e172;}.cls-75{fill:#d3e173;}.cls-76{fill:#fffbdd;opacity:0.57;}</style></defs><g id="Green_Leaf" data-name="Green Leaf"><path class="cls-1" d="M210.08,801.34a1.53,1.53,0,0,0-1.92,0,28.16,28.16,0,0,0-7.67,18.95c0,12.49,0,15.9,0,15.9a41.2,41.2,0,0,0,16.8,0v-15.9A28.36,28.36,0,0,0,210.08,801.34Z"/><path class="cls-2" d="M210.07,801.34a1.52,1.52,0,0,0-1.91,0,28,28,0,0,0-7.63,18.83c0,12.41,0,15.79,0,15.79a40.79,40.79,0,0,0,16.63,0s0-3.38,0-15.79A28.2,28.2,0,0,0,210.07,801.34Z"/><path class="cls-2" d="M210.07,801.34a1.51,1.51,0,0,0-1.9,0,27.76,27.76,0,0,0-7.59,18.7c0,12.33,0,15.69,0,15.69a40.23,40.23,0,0,0,16.47,0s0-3.36,0-15.69A28,28,0,0,0,210.07,801.34Z"/><path class="cls-3" d="M210.06,801.34a1.49,1.49,0,0,0-1.89,0,27.59,27.59,0,0,0-7.55,18.58c0,12.25.08,15.59.08,15.59a40,40,0,0,0,16.29,0s.09-3.34.09-15.59A27.82,27.82,0,0,0,210.06,801.34Z"/><path class="cls-4" d="M210.05,801.33a1.49,1.49,0,0,0-1.87,0,27.45,27.45,0,0,0-7.51,18.46c0,12.17.1,15.49.1,15.49a39.41,39.41,0,0,0,16.13,0s.11-3.32.11-15.49A27.68,27.68,0,0,0,210.05,801.33Z"/><path class="cls-5" d="M210,801.33a1.48,1.48,0,0,0-1.86,0,27.28,27.28,0,0,0-7.47,18.34c0,12.08.14,15.38.14,15.38a39,39,0,0,0,16,0s.14-3.3.14-15.38A27.47,27.47,0,0,0,210,801.33Z"/><path class="cls-6" d="M210,801.33a1.46,1.46,0,0,0-1.85,0,27,27,0,0,0-7.44,18.21c0,12,.18,15.28.18,15.28a38.55,38.55,0,0,0,15.78,0s.17-3.27.17-15.28A27.35,27.35,0,0,0,210,801.33Z"/><path class="cls-7" d="M210,801.33a1.45,1.45,0,0,0-1.84,0,26.88,26.88,0,0,0-7.39,18.09c0,11.92.2,15.17.2,15.17a38,38,0,0,0,15.62,0s.2-3.25.2-15.17A27.14,27.14,0,0,0,210,801.33Z"/><path class="cls-8" d="M210,801.32a1.45,1.45,0,0,0-1.82,0,26.73,26.73,0,0,0-7.36,18c0,11.84.24,15.07.24,15.07a37.58,37.58,0,0,0,15.45,0s.22-3.23.22-15.07A27,27,0,0,0,210,801.32Z"/><path class="cls-9" d="M210,801.32a1.43,1.43,0,0,0-1.81,0,26.53,26.53,0,0,0-7.32,17.84c0,11.77.28,15,.28,15a37.33,37.33,0,0,0,15.27,0s.26-3.21.26-15A26.75,26.75,0,0,0,210,801.32Z"/><path class="cls-10" d="M210,801.32a1.42,1.42,0,0,0-1.8,0A26.31,26.31,0,0,0,200.93,819c0,11.68.3,14.87.3,14.87a36.77,36.77,0,0,0,15.11,0s.28-3.19.28-14.87A26.6,26.6,0,0,0,210,801.32Z"/><path class="cls-11" d="M210,801.32a1.4,1.4,0,0,0-1.79,0A26.13,26.13,0,0,0,201,818.91c0,11.6.34,14.77.34,14.77a36.32,36.32,0,0,0,14.93,0s.32-3.17.32-14.77A26.37,26.37,0,0,0,210,801.32Z"/><path class="cls-12" d="M210,801.32a1.38,1.38,0,0,0-1.77,0,25.94,25.94,0,0,0-7.2,17.47c0,11.52.36,14.66.36,14.66a36,36,0,0,0,14.77,0s.34-3.14.34-14.66A26.24,26.24,0,0,0,210,801.32Z"/><path class="cls-13" d="M210,801.31a1.41,1.41,0,0,0-1.76,0,25.77,25.77,0,0,0-7.16,17.35c0,11.44.4,14.56.4,14.56a35.36,35.36,0,0,0,14.6,0s.36-3.12.36-14.56A26.07,26.07,0,0,0,210,801.31Z"/><path class="cls-14" d="M210,801.31a1.4,1.4,0,0,0-1.75,0,25.55,25.55,0,0,0-7.13,17.23c0,11.36.44,14.45.44,14.45A34.89,34.89,0,0,0,216,833s.4-3.09.4-14.45A25.92,25.92,0,0,0,210,801.31Z"/><path class="cls-15" d="M210,801.31a1.38,1.38,0,0,0-1.74,0,25.37,25.37,0,0,0-7.08,17.1c0,11.28.46,14.35.46,14.35a34.33,34.33,0,0,0,14.26,0s.42-3.07.42-14.35A25.7,25.7,0,0,0,210,801.31Z"/><path class="cls-16" d="M210,801.31a1.36,1.36,0,0,0-1.72,0c-2,2.13-7.05,8.11-7.05,17,0,11.19.5,14.25.5,14.25a34.12,34.12,0,0,0,14.09,0s.45-3.06.45-14.25A25.5,25.5,0,0,0,210,801.31Z"/><path class="cls-17" d="M210,801.3a1.37,1.37,0,0,0-1.71,0c-2,2.12-7,8.06-7,16.86,0,11.12.54,14.15.54,14.15a33.67,33.67,0,0,0,13.91,0s.48-3,.48-14.15A25.39,25.39,0,0,0,210,801.3Z"/><path class="cls-18" d="M210,801.3a1.35,1.35,0,0,0-1.7,0c-1.95,2.1-7,8-7,16.74,0,11,.56,14,.56,14a33.12,33.12,0,0,0,13.75,0s.51-3,.51-14A25.24,25.24,0,0,0,210,801.3Z"/><path class="cls-19" d="M209.94,801.3a1.34,1.34,0,0,0-1.69,0c-1.93,2.08-6.93,7.93-6.93,16.61,0,11,.6,13.94.6,13.94a32.71,32.71,0,0,0,13.58,0s.53-3,.53-13.94A25,25,0,0,0,209.94,801.3Z"/><path class="cls-20" d="M209.93,801.3a1.31,1.31,0,0,0-1.67,0c-1.92,2.06-6.9,7.87-6.9,16.49,0,10.87.64,13.83.64,13.83a32.26,32.26,0,0,0,13.4,0s.57-3,.57-13.83A24.78,24.78,0,0,0,209.93,801.3Z"/><path class="cls-21" d="M209.92,801.3a1.3,1.3,0,0,0-1.66,0c-1.9,2.05-6.85,7.81-6.85,16.36,0,10.79.66,13.73.66,13.73a31.7,31.7,0,0,0,13.24,0s.59-2.94.59-13.73A24.58,24.58,0,0,0,209.92,801.3Z"/><path class="cls-21" d="M209.92,801.29a1.31,1.31,0,0,0-1.65,0c-1.89,2-6.82,7.76-6.82,16.25,0,10.7.7,13.62.7,13.62a31.29,31.29,0,0,0,13.07,0s.62-2.92.62-13.62A24.53,24.53,0,0,0,209.92,801.29Z"/><path class="cls-22" d="M209.91,801.29a1.3,1.3,0,0,0-1.64,0c-1.87,2-6.77,7.7-6.77,16.12,0,10.63.72,13.53.72,13.53a30.9,30.9,0,0,0,12.9,0s.65-2.9.65-13.53A24.31,24.31,0,0,0,209.91,801.29Z"/><path class="cls-23" d="M209.9,801.29a1.27,1.27,0,0,0-1.62,0c-1.86,2-6.74,7.64-6.74,16,0,10.54.76,13.42.76,13.42a30.47,30.47,0,0,0,12.73,0s.68-2.88.68-13.42A24.1,24.1,0,0,0,209.9,801.29Z"/><path class="cls-24" d="M209.89,801.29a1.25,1.25,0,0,0-1.61,0c-1.85,2-6.7,7.58-6.7,15.87,0,10.46.8,13.32.8,13.32a30.06,30.06,0,0,0,12.56,0s.7-2.86.7-13.32A23.9,23.9,0,0,0,209.89,801.29Z"/><path class="cls-25" d="M209.89,801.28a1.29,1.29,0,0,0-1.6,0c-1.84,2-6.66,7.53-6.66,15.75,0,10.39.82,13.22.82,13.22a29.47,29.47,0,0,0,12.39,0s.74-2.83.74-13.22A23.79,23.79,0,0,0,209.89,801.28Z"/><path class="cls-26" d="M209.88,801.28a1.28,1.28,0,0,0-1.59,0c-1.82,2-6.62,7.47-6.62,15.63,0,10.3.86,13.11.86,13.11a29.06,29.06,0,0,0,12.22,0s.76-2.81.76-13.11A23.64,23.64,0,0,0,209.88,801.28Z"/><path class="cls-27" d="M209.87,801.28a1.25,1.25,0,0,0-1.57,0c-1.81,1.94-6.59,7.41-6.59,15.5,0,10.23.9,13,.9,13a28.65,28.65,0,0,0,12,0s.79-2.78.79-13A23.41,23.41,0,0,0,209.87,801.28Z"/><path class="cls-28" d="M209.86,801.28a1.23,1.23,0,0,0-1.56,0c-1.79,1.93-6.54,7.34-6.54,15.38,0,10.14.92,12.9.92,12.9a28.06,28.06,0,0,0,11.88,0s.82-2.76.82-12.9A23.2,23.2,0,0,0,209.86,801.28Z"/><path class="cls-29" d="M209.85,801.28a1.21,1.21,0,0,0-1.54,0c-1.78,1.91-6.51,7.28-6.51,15.25,0,10.06,1,12.81,1,12.81a27.84,27.84,0,0,0,11.71,0s.85-2.75.85-12.81A23,23,0,0,0,209.85,801.28Z"/><path class="cls-30" d="M209.85,801.27a1.23,1.23,0,0,0-1.54,0c-1.76,1.9-6.46,7.23-6.46,15.14,0,10,1,12.7,1,12.7a27.43,27.43,0,0,0,11.54,0s.87-2.72.87-12.7A22.88,22.88,0,0,0,209.85,801.27Z"/><path class="cls-31" d="M209.84,801.27a1.2,1.2,0,0,0-1.52,0c-1.75,1.88-6.43,7.17-6.43,15,0,9.9,1,12.6,1,12.6a26.85,26.85,0,0,0,11.37,0s.9-2.7.9-12.6A22.66,22.66,0,0,0,209.84,801.27Z"/><path class="cls-32" d="M209.83,801.27a1.19,1.19,0,0,0-1.51,0c-1.73,1.87-6.39,7.11-6.39,14.89,0,9.81,1.06,12.49,1.06,12.49a26.44,26.44,0,0,0,11.2,0s.93-2.68.93-12.49A22.53,22.53,0,0,0,209.83,801.27Z"/><path class="cls-33" d="M209.82,801.27a1.18,1.18,0,0,0-1.5,0c-1.71,1.85-6.34,7.05-6.34,14.76,0,9.74,1.08,12.39,1.08,12.39a25.87,25.87,0,0,0,11,0s1-2.65,1-12.39A22.31,22.31,0,0,0,209.82,801.27Z"/><path class="cls-34" d="M209.82,801.26a1.19,1.19,0,0,0-1.49,0c-1.7,1.84-6.31,7-6.31,14.65,0,9.65,1.12,12.28,1.12,12.28a25.43,25.43,0,0,0,10.86,0s1-2.63,1-12.28A22.21,22.21,0,0,0,209.82,801.26Z"/><path class="cls-35" d="M209.81,801.26a1.17,1.17,0,0,0-1.48,0c-1.68,1.82-6.27,6.94-6.27,14.52,0,9.57,1.16,12.19,1.16,12.19a25.2,25.2,0,0,0,10.69,0s1-2.62,1-12.19A22,22,0,0,0,209.81,801.26Z"/><path class="cls-36" d="M209.8,801.26a1.15,1.15,0,0,0-1.46,0c-1.67,1.8-6.23,6.88-6.23,14.4,0,9.49,1.18,12.08,1.18,12.08a24.62,24.62,0,0,0,10.52,0s1.05-2.59,1.05-12.08A21.77,21.77,0,0,0,209.8,801.26Z"/><path class="cls-37" d="M209.79,801.26a1.13,1.13,0,0,0-1.45,0c-1.66,1.79-6.19,6.82-6.19,14.27,0,9.41,1.22,12,1.22,12a24.21,24.21,0,0,0,10.35,0s1.07-2.57,1.07-12A21.63,21.63,0,0,0,209.79,801.26Z"/><path class="cls-38" d="M209.79,801.26a1.12,1.12,0,0,0-1.44,0c-1.65,1.77-6.15,6.75-6.15,14.15,0,9.33,1.25,11.87,1.25,11.87a23.8,23.8,0,0,0,10.18,0s1.1-2.54,1.1-11.87A21.45,21.45,0,0,0,209.79,801.26Z"/><path class="cls-39" d="M209.78,801.25a1.16,1.16,0,0,0-1.43,0c-1.63,1.76-6.11,6.7-6.11,14,0,9.25,1.28,11.77,1.28,11.77a23.22,23.22,0,0,0,10,0s1.13-2.52,1.13-11.77A21.29,21.29,0,0,0,209.78,801.25Z"/><path class="cls-40" d="M209.77,801.25a1.13,1.13,0,0,0-1.41,0c-1.62,1.74-6.08,6.64-6.08,13.91,0,9.16,1.32,11.66,1.32,11.66a22.81,22.81,0,0,0,9.84,0s1.16-2.5,1.16-11.66A21.08,21.08,0,0,0,209.77,801.25Z"/><path class="cls-41" d="M209.76,801.25a1.11,1.11,0,0,0-1.4,0c-1.6,1.73-6,6.58-6,13.78,0,9.09,1.34,11.56,1.34,11.56a22.27,22.27,0,0,0,9.68,0s1.18-2.47,1.18-11.56A20.88,20.88,0,0,0,209.76,801.25Z"/><path class="cls-42" d="M209.76,801.25a1.1,1.1,0,0,0-1.39,0c-1.59,1.71-6,6.52-6,13.66,0,9,1.38,11.46,1.38,11.46a22,22,0,0,0,9.5,0s1.22-2.46,1.22-11.46A20.78,20.78,0,0,0,209.76,801.25Z"/><path class="cls-42" d="M209.75,801.24a1.11,1.11,0,0,0-1.38,0c-1.57,1.7-6,6.47-6,13.54,0,8.92,1.42,11.36,1.42,11.36a21.58,21.58,0,0,0,9.33,0s1.24-2.44,1.24-11.36A20.62,20.62,0,0,0,209.75,801.24Z"/><path class="cls-43" d="M209.74,801.24a1.08,1.08,0,0,0-1.36,0c-1.56,1.68-5.92,6.41-5.92,13.41,0,8.85,1.44,11.26,1.44,11.26a21,21,0,0,0,9.17,0s1.27-2.41,1.27-11.26A20.4,20.4,0,0,0,209.74,801.24Z"/><path class="cls-44" d="M209.73,801.24a1.07,1.07,0,0,0-1.35,0c-1.54,1.67-5.88,6.35-5.88,13.29,0,8.76,1.48,11.15,1.48,11.15a20.59,20.59,0,0,0,9,0s1.3-2.39,1.3-11.15A20.21,20.21,0,0,0,209.73,801.24Z"/><path class="cls-45" d="M209.73,801.24a1.06,1.06,0,0,0-1.34,0c-1.53,1.65-5.84,6.29-5.84,13.16,0,8.68,1.51,11.05,1.51,11.05a20.19,20.19,0,0,0,8.82,0s1.33-2.37,1.33-11.05A20,20,0,0,0,209.73,801.24Z"/><path class="cls-46" d="M209.72,801.24a1,1,0,0,0-1.33,0c-1.51,1.63-5.8,6.23-5.8,13,0,8.6,1.54,10.94,1.54,10.94a19.65,19.65,0,0,0,8.66,0s1.35-2.34,1.35-10.94A19.9,19.9,0,0,0,209.72,801.24Z"/><path class="cls-47" d="M209.71,801.23a1,1,0,0,0-1.31,0c-1.5,1.62-5.77,6.17-5.77,12.92,0,8.52,1.58,10.84,1.58,10.84a19.21,19.21,0,0,0,8.48,0s1.39-2.32,1.39-10.84A19.7,19.7,0,0,0,209.71,801.23Z"/><path class="cls-48" d="M209.7,801.23a1,1,0,0,0-1.3,0c-1.48,1.61-5.72,6.11-5.72,12.8,0,8.44,1.61,10.74,1.61,10.74a19,19,0,0,0,8.31,0S214,822.47,214,814C214,807.34,211.19,802.84,209.7,801.23Z"/><path class="cls-49" d="M209.7,801.23a1,1,0,0,0-1.29,0c-1.48,1.59-5.69,6-5.69,12.67,0,8.36,1.64,10.64,1.64,10.64a18.44,18.44,0,0,0,8.15,0S214,822.26,214,813.9C214,807.28,211.17,802.82,209.7,801.23Z"/><path class="cls-50" d="M209.69,801.23a1,1,0,0,0-1.28,0c-1.46,1.57-5.65,6-5.65,12.55,0,8.27,1.68,10.53,1.68,10.53a18,18,0,0,0,8,0s1.47-2.26,1.47-10.53C213.88,807.22,211.15,802.8,209.69,801.23Z"/><path class="cls-51" d="M209.68,801.22a1,1,0,0,0-1.26,0c-1.45,1.56-5.61,5.94-5.61,12.43,0,8.2,1.7,10.43,1.7,10.43a17.47,17.47,0,0,0,7.81,0s1.49-2.23,1.49-10.43C213.81,807.16,211.13,802.78,209.68,801.22Z"/><path class="cls-52" d="M209.67,801.22a1,1,0,0,0-1.25,0c-1.43,1.54-5.57,5.88-5.57,12.31,0,8.11,1.74,10.32,1.74,10.32a17,17,0,0,0,7.64,0s1.52-2.21,1.52-10.32C213.75,807.1,211.1,802.76,209.67,801.22Z"/><path class="cls-53" d="M209.66,801.22a1,1,0,0,0-1.23,0c-1.42,1.53-5.53,5.82-5.53,12.18,0,8,1.77,10.22,1.77,10.22a16.6,16.6,0,0,0,7.46,0s1.55-2.19,1.55-10.22C213.68,807,211.08,802.75,209.66,801.22Z"/><path class="cls-54" d="M209.66,801.22a1,1,0,0,0-1.23,0c-1.4,1.51-5.49,5.76-5.49,12.06,0,8,1.8,10.11,1.8,10.11a16.07,16.07,0,0,0,7.3,0s1.58-2.16,1.58-10.11C213.62,807,211.06,802.73,209.66,801.22Z"/><path class="cls-55" d="M209.65,801.22a1,1,0,0,0-1.21,0c-1.39,1.49-5.46,5.7-5.46,11.93,0,7.87,1.84,10,1.84,10a15.83,15.83,0,0,0,7.13,0s1.6-2.15,1.6-10C213.55,806.92,211,802.71,209.65,801.22Z"/><path class="cls-56" d="M209.64,801.21a1,1,0,0,0-1.2,0c-1.37,1.48-5.41,5.65-5.41,11.82,0,7.78,1.87,9.91,1.87,9.91a15.39,15.39,0,0,0,6.95,0s1.64-2.13,1.64-9.91C213.49,806.86,211,802.69,209.64,801.21Z"/><path class="cls-57" d="M209.63,801.21a.93.93,0,0,0-1.18,0c-1.36,1.47-5.38,5.58-5.38,11.69,0,7.71,1.9,9.81,1.9,9.81a14.87,14.87,0,0,0,6.79,0s1.66-2.1,1.66-9.81C213.42,806.79,211,802.68,209.63,801.21Z"/><path class="cls-58" d="M209.63,801.21a.93.93,0,0,0-1.18,0c-1.34,1.45-5.34,5.52-5.34,11.57,0,7.62,1.94,9.7,1.94,9.7a14.43,14.43,0,0,0,6.61,0s1.7-2.08,1.7-9.7C213.36,806.73,211,802.66,209.63,801.21Z"/><path class="cls-59" d="M209.62,801.21a.91.91,0,0,0-1.16,0c-1.33,1.43-5.3,5.46-5.3,11.44,0,7.54,2,9.6,2,9.6a13.86,13.86,0,0,0,6.44,0s1.72-2.06,1.72-9.6C213.29,806.67,211,802.64,209.62,801.21Z"/><path class="cls-60" d="M209.61,801.2a.92.92,0,0,0-1.15,0c-1.31,1.42-5.26,5.41-5.26,11.33,0,7.46,2,9.49,2,9.49a13.51,13.51,0,0,0,6.28,0s1.75-2,1.75-9.49C213.23,806.61,210.93,802.62,209.61,801.2Z"/><path class="cls-61" d="M209.6,801.2a.89.89,0,0,0-1.13,0c-1.31,1.41-5.22,5.35-5.22,11.2,0,7.38,2,9.4,2,9.4a13.22,13.22,0,0,0,6.1,0s1.78-2,1.78-9.4C213.16,806.55,210.91,802.61,209.6,801.2Z"/><path class="cls-62" d="M209.6,801.2a.89.89,0,0,0-1.13,0c-1.29,1.39-5.18,5.29-5.18,11.07,0,7.31,2.06,9.3,2.06,9.3a12.69,12.69,0,0,0,5.94,0s1.81-2,1.81-9.3C213.1,806.49,210.88,802.59,209.6,801.2Z"/><path class="cls-63" d="M209.59,801.2a.86.86,0,0,0-1.11,0c-1.28,1.37-5.15,5.23-5.15,10.95,0,7.22,2.1,9.19,2.1,9.19a12.29,12.29,0,0,0,5.77,0s1.83-2,1.83-9.19C213,806.43,210.86,802.57,209.59,801.2Z"/><path class="cls-64" d="M209.58,801.2a.85.85,0,0,0-1.1,0c-1.26,1.35-5.1,5.17-5.1,10.82,0,7.14,2.13,9.09,2.13,9.09a11.85,11.85,0,0,0,5.59,0s1.87-2,1.87-9.09C213,806.37,210.84,802.55,209.58,801.2Z"/><path class="cls-65" d="M209.57,801.19a.87.87,0,0,0-1.08,0c-1.25,1.35-5.07,5.12-5.07,10.71,0,7.06,2.16,9,2.16,9a11.35,11.35,0,0,0,5.43,0s1.89-1.92,1.89-9C212.9,806.31,210.82,802.54,209.57,801.19Z"/><path class="cls-66" d="M209.57,801.19a.87.87,0,0,0-1.08,0c-1.23,1.33-5,5.06-5,10.58,0,7,2.2,8.88,2.2,8.88a10.94,10.94,0,0,0,5.26,0s1.92-1.9,1.92-8.88C212.84,806.25,210.8,802.52,209.57,801.19Z"/><path class="cls-67" d="M209.56,801.19a.84.84,0,0,0-1.06,0c-1.22,1.31-5,5-5,10.46,0,6.89,2.23,8.77,2.23,8.77a10.51,10.51,0,0,0,5.08,0s2-1.88,2-8.77C212.77,806.18,210.77,802.5,209.56,801.19Z"/><path class="cls-68" d="M209.55,801.19a.83.83,0,0,0-1.05,0c-1.2,1.29-4.95,4.93-4.95,10.33,0,6.82,2.26,8.68,2.26,8.68a10.16,10.16,0,0,0,4.92,0s2-1.86,2-8.68C212.71,806.12,210.75,802.48,209.55,801.19Z"/><path class="cls-69" d="M209.54,801.18a.83.83,0,0,0-1,0c-1.19,1.28-4.92,4.88-4.92,10.22,0,6.73,2.3,8.57,2.3,8.57a9.75,9.75,0,0,0,4.75,0s2-1.84,2-8.57C212.64,806.06,210.73,802.46,209.54,801.18Z"/><path class="cls-70" d="M209.54,801.18a.83.83,0,0,0-1,0c-1.17,1.27-4.87,4.82-4.87,10.09,0,6.65,2.32,8.47,2.32,8.47a9.23,9.23,0,0,0,4.58,0s2-1.82,2-8.47C212.57,806,210.71,802.45,209.54,801.18Z"/><path class="cls-71" d="M209.53,801.18a.8.8,0,0,0-1,0c-1.16,1.25-4.84,4.76-4.84,10,0,6.57,2.36,8.36,2.36,8.36a8.83,8.83,0,0,0,4.41,0s2.06-1.79,2.06-8.36C212.51,805.94,210.69,802.43,209.53,801.18Z"/><path class="cls-72" d="M209.52,801.18a.78.78,0,0,0-1,0c-1.14,1.23-4.79,4.7-4.79,9.84,0,6.49,2.39,8.26,2.39,8.26a8.42,8.42,0,0,0,4.24,0s2.08-1.77,2.08-8.26C212.44,805.88,210.67,802.41,209.52,801.18Z"/><path class="cls-73" d="M209.51,801.18a.76.76,0,0,0-1,0c-1.13,1.21-4.76,4.64-4.76,9.72,0,6.41,2.42,8.15,2.42,8.15a7.91,7.91,0,0,0,4.07,0s2.12-1.74,2.12-8.15C212.38,805.82,210.64,802.39,209.51,801.18Z"/><path class="cls-74" d="M209.51,801.17a.78.78,0,0,0-1,0c-1.12,1.21-4.72,4.59-4.72,9.6,0,6.33,2.46,8.05,2.46,8.05a7.52,7.52,0,0,0,3.9,0s2.14-1.72,2.14-8.05C212.31,805.76,210.62,802.38,209.51,801.17Z"/><path class="cls-75" d="M209.5,801.17a.75.75,0,0,0-1,0c-1.11,1.19-4.68,4.53-4.68,9.48,0,6.24,2.49,8,2.49,8a7.25,7.25,0,0,0,3.73,0s2.17-1.71,2.17-8C212.25,805.7,210.6,802.36,209.5,801.17Z"/></g><g id="Pink_Detail" data-name="Pink Detail"><ellipse class="cls-76" cx="211.48" cy="830.19" rx="0.41" ry="0.35"/><ellipse class="cls-76" cx="214.8" cy="832.35" rx="0.41" ry="0.26"/><ellipse class="cls-76" cx="211.28" cy="833.04" rx="0.41" ry="0.26"/><ellipse class="cls-76" cx="211.98" cy="819.68" rx="0.41" ry="0.26"/><ellipse class="cls-76" cx="214.47" cy="820.03" rx="0.41" ry="0.26"/><ellipse class="cls-76" cx="215.05" cy="819.45" rx="0.28" ry="0.16"/><ellipse class="cls-76" cx="214.38" cy="820.92" rx="0.28" ry="0.16"/><ellipse class="cls-76" cx="213.8" cy="821.95" rx="0.41" ry="0.26"/><ellipse class="cls-76" cx="209.24" cy="824.96" rx="0.41" ry="0.26"/><ellipse class="cls-76" cx="207.17" cy="821.42" rx="0.41" ry="0.26"/><ellipse class="cls-76" cx="207.5" cy="822.37" rx="0.41" ry="0.26"/><ellipse class="cls-76" cx="208.74" cy="821.38" rx="0.41" ry="0.26"/><ellipse class="cls-76" cx="209.78" cy="822.65" rx="0.28" ry="0.16"/><ellipse class="cls-76" cx="205.33" cy="825.73" rx="0.41" ry="0.26"/><ellipse class="cls-76" cx="206.17" cy="829.14" rx="0.41" ry="0.26"/><ellipse class="cls-76" cx="209.82" cy="823.68" rx="0.41" ry="0.26"/><ellipse class="cls-76" cx="212.81" cy="829" rx="0.41" ry="0.26"/><ellipse class="cls-76" cx="206.17" cy="817.5" rx="0.41" ry="0.26"/><ellipse class="cls-76" cx="209.49" cy="813.79" rx="0.41" ry="0.26"/><ellipse class="cls-76" cx="209.78" cy="820.75" rx="0.28" ry="0.16"/><ellipse class="cls-76" cx="207.56" cy="819.49" rx="0.28" ry="0.16"/><ellipse class="cls-76" cx="205.34" cy="821.52" rx="0.28" ry="0.16"/><ellipse class="cls-76" cx="205.34" cy="817.47" rx="0.28" ry="0.16"/><ellipse class="cls-76" cx="204.52" cy="816.25" rx="0.41" ry="0.26"/><ellipse class="cls-76" cx="208.25" cy="815.45" rx="0.41" ry="0.26"/><ellipse class="cls-76" cx="212.6" cy="821.8" rx="0.28" ry="0.16"/><ellipse class="cls-76" cx="214.13" cy="825.17" rx="0.41" ry="0.26"/><ellipse class="cls-76" cx="214.16" cy="818.82" rx="0.28" ry="0.16"/><ellipse class="cls-76" cx="210" cy="814.32" rx="0.28" ry="0.16"/><ellipse class="cls-76" cx="211.55" cy="811.79" rx="0.28" ry="0.16"/><ellipse class="cls-76" cx="206.22" cy="815.58" rx="0.28" ry="0.16"/><ellipse class="cls-76" cx="212.44" cy="817.98" rx="0.28" ry="0.16"/><ellipse class="cls-76" cx="215.1" cy="815.45" rx="0.28" ry="0.16"/><ellipse class="cls-76" cx="206" cy="811.16" rx="0.28" ry="0.16"/><ellipse class="cls-76" cx="209.33" cy="807.12" rx="0.28" ry="0.16"/></g></svg>