<svg xmlns="http://www.w3.org/2000/svg" viewBox="0 0 432 846"><defs><style>.cls-1{fill:#82c341;}.cls-2{fill:#83c441;}.cls-3{fill:#83c442;}.cls-4{fill:#84c442;}.cls-5{fill:#85c443;}.cls-6{fill:#86c444;}.cls-7{fill:#86c544;}.cls-8{fill:#87c545;}.cls-9{fill:#88c546;}.cls-10{fill:#89c547;}.cls-11{fill:#89c648;}.cls-12{fill:#8ac648;}.cls-13{fill:#8ac649;}.cls-14{fill:#8bc64a;}.cls-15{fill:#8cc74b;}.cls-16{fill:#8cc74c;}.cls-17{fill:#8dc74c;}.cls-18{fill:#8dc74d;}.cls-19{fill:#8ec74e;}.cls-20{fill:#8fc84f;}.cls-21{fill:#8fc850;}.cls-22{fill:#90c850;}.cls-23{fill:#90c851;}.cls-24{fill:#91c852;}.cls-25{fill:#91c952;}.cls-26{fill:#92c953;}.cls-27{fill:#92c954;}.cls-28{fill:#93c955;}.cls-29{fill:#94c956;}.cls-30{fill:#94ca57;}.cls-31{fill:#95ca57;}.cls-32{fill:#95ca58;}.cls-33{fill:#96ca59;}.cls-34{fill:#96ca5a;}.cls-35{fill:#97cb5a;}.cls-36{fill:#97cb5b;}.cls-37{fill:#98cb5c;}.cls-38{fill:#98cb5d;}.cls-39{fill:#99cb5e;}.cls-40{fill:#99cc5e;}.cls-41{fill:#99cc5f;}.cls-42{fill:#9acc60;}.cls-43{fill:#9acc61;}.cls-44{fill:#9bcc61;}.cls-45{fill:#9bcd62;}.cls-46{fill:#9ccd63;}.cls-47{fill:#9ccd64;}.cls-48{fill:#9dcd65;}.cls-49{fill:#9ece66;}.cls-50{fill:#9ece67;}.cls-51{fill:#9fce68;}.cls-52{fill:#9fce69;}.cls-53{fill:#a0ce69;}.cls-54{fill:#a0cf6a;}.cls-55{fill:#a1cf6b;}.cls-56{fill:#a1cf6c;}.cls-57{fill:#a1cf6d;}.cls-58{fill:#a2d06d;}.cls-59{fill:#a2d06e;}.cls-60{fill:#a3d06f;}.cls-61{fill:#a3d070;}.cls-62{fill:#a4d070;}.cls-63{fill:#a4d171;}.cls-64{fill:#a5d172;}.cls-65{fill:#a5d173;}.cls-66{fill:#a6d174;}.cls-67{fill:#a7d275;}.cls-68{fill:#a7d276;}.cls-69{fill:#a8d277;}.cls-70{fill:#a8d278;}.cls-71{fill:#a9d378;}.cls-72{fill:#a9d379;}.cls-73{fill:#aad37a;}.cls-74{fill:#aad37b;}.cls-75{fill:#abd37b;}.cls-76{fill:#abd47c;}.cls-77{fill:#acd47d;}.cls-78{fill:#add47e;}.cls-79{fill:#add47f;}.cls-80{fill:#aed580;}.cls-81{fill:#afd581;}.cls-82{fill:#afd582;}.cls-83{fill:#b0d682;}.cls-84{fill:#b0d683;}.cls-85{fill:#b1d684;}.cls-86{fill:#b1d685;}.cls-87{fill:#b2d685;}.cls-88{fill:#b2d786;}.cls-89{fill:#b3d787;}.cls-90{fill:#b4d788;}.cls-91{fill:#b4d889;}.cls-92{fill:#b5d889;}.cls-93{fill:#b5d88a;}.cls-94{fill:#b5d88b;}.cls-95{fill:#b6d98c;}.cls-96{fill:#b7d98d;}.cls-97{fill:#b7d98e;}.cls-98{fill:#b8d98e;}.cls-99{fill:#b8da8f;}.cls-100{fill:#b9da90;}.cls-101{fill:#bada91;}.cls-102{fill:#badb92;}.cls-103{fill:#bbdb92;}.cls-104{fill:#bbdb93;}.cls-105{fill:#bcdb94;}.cls-106{fill:#bcdc94;}.cls-107{fill:#bddc95;}.cls-108{fill:#bddc96;}.cls-109{fill:#bedc96;}.cls-110{fill:#bedc97;}.cls-111{fill:#bfdd98;}.cls-112{fill:#bfdd99;}.cls-113{fill:#c0dd99;}.cls-114{fill:#c0dd9a;}.cls-115{fill:#c1de9b;}.cls-116{fill:#c2de9c;}.cls-117{fill:#c2de9d;}.cls-118{fill:#c3df9d;}.cls-119{fill:#c3df9e;}.cls-120{fill:#c4df9f;}.cls-121{fill:#c4dfa0;}.cls-122{fill:#c5e0a0;}.cls-123{fill:#c5e0a1;}.cls-124{fill:#c6e0a2;}.cls-125{fill:#a6ce39;}.cls-126{fill:#a7cf39;}.cls-127{fill:#a8cf3a;}.cls-128{fill:#a9cf3a;}.cls-129{fill:#a9cf3b;}.cls-130{fill:#aad03b;}.cls-131{fill:#aad03c;}.cls-132{fill:#abd03c;}.cls-133{fill:#acd03d;}.cls-134{fill:#acd13e;}.cls-135{fill:#add13e;}.cls-136{fill:#add13f;}.cls-137{fill:#aed140;}.cls-138{fill:#afd140;}.cls-139{fill:#afd241;}.cls-140{fill:#b0d242;}.cls-141{fill:#b0d243;}.cls-142{fill:#b1d243;}.cls-143{fill:#b2d344;}.cls-144{fill:#b2d345;}.cls-145{fill:#b3d346;}.cls-146{fill:#b4d447;}.cls-147{fill:#b5d448;}.cls-148{fill:#b5d449;}.cls-149{fill:#b6d449;}.cls-150{fill:#b6d54a;}.cls-151{fill:#b7d54b;}.cls-152{fill:#b8d54b;}.cls-153{fill:#b8d54c;}.cls-154{fill:#b9d64d;}.cls-155{fill:#b9d64e;}.cls-156{fill:#bad64e;}.cls-157{fill:#bad64f;}.cls-158{fill:#bbd750;}.cls-159{fill:#bcd751;}.cls-160{fill:#bcd752;}.cls-161{fill:#bdd752;}.cls-162{fill:#bdd853;}.cls-163{fill:#bed854;}.cls-164{fill:#bed855;}.cls-165{fill:#bfd856;}.cls-166{fill:#c0d957;}.cls-167{fill:#c1d958;}.cls-168{fill:#c1d959;}.cls-169{fill:#c2da5a;}.cls-170{fill:#c3da5b;}.cls-171{fill:#c3da5c;}.cls-172{fill:#c4da5c;}.cls-173{fill:#c4db5d;}.cls-174{fill:#c5db5e;}.cls-175{fill:#c5db5f;}.cls-176{fill:#c6db60;}.cls-177{fill:#c7dc61;}.cls-178{fill:#c7dc62;}.cls-179{fill:#c8dc62;}.cls-180{fill:#c8dc63;}.cls-181{fill:#c9dd64;}.cls-182{fill:#c9dd65;}.cls-183{fill:#cadd66;}.cls-184{fill:#cbdd67;}.cls-185{fill:#cbde68;}.cls-186{fill:#ccde68;}.cls-187{fill:#ccde69;}.cls-188{fill:#cdde6a;}.cls-189{fill:#cedf6b;}.cls-190{fill:#cedf6c;}.cls-191{fill:#cfdf6d;}.cls-192{fill:#cfe06d;}.cls-193{fill:#d0e06e;}.cls-194{fill:#d0e06f;}.cls-195{fill:#d1e070;}.cls-196{fill:#d2e171;}.cls-197{fill:#d2e172;}.cls-198{fill:#d3e172;}.cls-199{fill:#d3e173;}.cls-200{fill:#fffbdd;opacity:0.57;}</style></defs><g id="Green_Leaf" data-name="Green Leaf"><path class="cls-1" d="M209.43,765.69a1,1,0,0,0-1.93,0c-2.2,4.77-7.66,18.18-7.66,38.06,0,25.09,5,31.93,5,31.93a7.55,7.55,0,0,0,7.46,0s4.35-6.84,4.35-31.93C216.62,783.87,211.63,770.46,209.43,765.69Z"/><path class="cls-2" d="M209.42,765.69a1,1,0,0,0-1.91,0c-2.2,4.75-7.65,18.11-7.65,37.92,0,25,5,31.82,5,31.82a7.52,7.52,0,0,0,7.43,0s4.33-6.82,4.33-31.82C216.58,783.8,211.62,770.44,209.42,765.69Z"/><path class="cls-3" d="M209.42,765.68a1,1,0,0,0-1.91,0c-2.19,4.74-7.62,18.05-7.62,37.79,0,24.91,4.94,31.7,4.94,31.7a7.47,7.47,0,0,0,7.4,0s4.32-6.79,4.32-31.7C216.55,783.73,211.61,770.42,209.42,765.68Z"/><path class="cls-4" d="M209.42,765.68a1,1,0,0,0-1.91,0c-2.18,4.72-7.6,18-7.6,37.65,0,24.82,4.92,31.58,4.92,31.58a7.46,7.46,0,0,0,7.38,0s4.3-6.76,4.3-31.58C216.51,783.66,211.6,770.4,209.42,765.68Z"/><path class="cls-5" d="M209.41,765.68a1,1,0,0,0-1.89,0c-2.18,4.7-7.59,17.91-7.59,37.51,0,24.72,4.91,31.47,4.91,31.47a7.43,7.43,0,0,0,7.35,0s4.28-6.75,4.28-31.47C216.47,783.59,211.58,770.38,209.41,765.68Z"/><path class="cls-5" d="M209.41,765.68a1,1,0,0,0-1.89,0c-2.17,4.68-7.56,17.84-7.56,37.37,0,24.63,4.89,31.35,4.89,31.35a7.4,7.4,0,0,0,7.32,0s4.27-6.72,4.27-31.35C216.44,783.52,211.57,770.36,209.41,765.68Z"/><path class="cls-6" d="M209.4,765.67a1,1,0,0,0-1.88,0c-2.16,4.67-7.54,17.79-7.54,37.24,0,24.54,4.87,31.24,4.87,31.24a7.39,7.39,0,0,0,7.3,0s4.25-6.7,4.25-31.24C216.4,783.46,211.56,770.34,209.4,765.67Z"/><path class="cls-7" d="M209.4,765.67a1,1,0,0,0-1.88,0c-2.14,4.65-7.51,17.72-7.51,37.1,0,24.45,4.85,31.12,4.85,31.12a7.36,7.36,0,0,0,7.27,0s4.23-6.67,4.23-31.12C216.36,783.39,211.55,770.32,209.4,765.67Z"/><path class="cls-8" d="M209.39,765.67a1,1,0,0,0-1.86,0c-2.14,4.63-7.5,17.65-7.5,37,0,24.37,4.84,31,4.84,31a7.31,7.31,0,0,0,7.24,0s4.22-6.64,4.22-31C216.33,783.32,211.53,770.3,209.39,765.67Z"/><path class="cls-8" d="M209.39,765.67a1,1,0,0,0-1.86,0c-2.13,4.61-7.47,17.58-7.47,36.81,0,24.28,4.81,30.9,4.81,30.9a7.33,7.33,0,0,0,7.22,0s4.2-6.62,4.2-30.9C216.29,783.25,211.52,770.28,209.39,765.67Z"/><path class="cls-9" d="M209.39,765.66a1,1,0,0,0-1.86,0c-2.12,4.6-7.45,17.52-7.45,36.68,0,24.19,4.8,30.78,4.8,30.78a7.27,7.27,0,0,0,7.19,0s4.18-6.59,4.18-30.78C216.25,783.18,211.51,770.26,209.39,765.66Z"/><path class="cls-9" d="M209.38,765.66a1,1,0,0,0-1.85,0c-2.11,4.58-7.43,17.45-7.43,36.54,0,24.1,4.78,30.67,4.78,30.67a7.26,7.26,0,0,0,7.17,0s4.17-6.57,4.17-30.67C216.22,783.11,211.5,770.24,209.38,765.66Z"/><path class="cls-10" d="M209.38,765.66a1,1,0,0,0-1.84,0c-2.11,4.56-7.41,17.39-7.41,36.4,0,24,4.76,30.55,4.76,30.55a7.23,7.23,0,0,0,7.14,0s4.15-6.55,4.15-30.55C216.18,783.05,211.49,770.22,209.38,765.66Z"/><path class="cls-11" d="M209.37,765.66a1,1,0,0,0-1.83,0c-2.1,4.54-7.39,17.32-7.39,36.26,0,23.91,4.75,30.43,4.75,30.43a7.17,7.17,0,0,0,7.11,0s4.14-6.52,4.14-30.43C216.15,783,211.47,770.2,209.37,765.66Z"/><path class="cls-12" d="M209.37,765.65a1,1,0,0,0-1.83,0c-2.09,4.53-7.36,17.26-7.36,36.13,0,23.82,4.72,30.32,4.72,30.32a7.18,7.18,0,0,0,7.08,0s4.13-6.5,4.13-30.32C216.11,782.91,211.46,770.18,209.37,765.65Z"/><path class="cls-13" d="M209.36,765.65a1,1,0,0,0-1.81,0c-2.09,4.51-7.35,17.19-7.35,36,0,23.73,4.71,30.2,4.71,30.2a7.12,7.12,0,0,0,7.05,0s4.11-6.47,4.11-30.2C216.07,782.84,211.45,770.16,209.36,765.65Z"/><path class="cls-14" d="M209.36,765.65a1,1,0,0,0-1.81,0c-2.08,4.49-7.32,17.12-7.32,35.85,0,23.64,4.69,30.09,4.69,30.09a7.12,7.12,0,0,0,7,0s4.1-6.45,4.1-30.09C216,782.77,211.44,770.14,209.36,765.65Z"/><path class="cls-14" d="M209.36,765.65a1,1,0,0,0-1.81,0c-2.07,4.47-7.3,17.05-7.3,35.71,0,23.55,4.67,30,4.67,30a7.08,7.08,0,0,0,7,0s4.08-6.42,4.08-30C216,782.7,211.42,770.12,209.36,765.65Z"/><path class="cls-15" d="M209.35,765.64a1,1,0,0,0-1.8,0c-2.06,4.46-7.27,17-7.27,35.58,0,23.46,4.65,29.85,4.65,29.85a7,7,0,0,0,7,0s4.06-6.39,4.06-29.85C216,782.64,211.41,770.1,209.35,765.64Z"/><path class="cls-16" d="M209.35,765.64a1,1,0,0,0-1.79,0c-2.06,4.44-7.26,16.93-7.26,35.44,0,23.36,4.64,29.74,4.64,29.74a7,7,0,0,0,6.94,0s4.05-6.38,4.05-29.74C215.93,782.57,211.4,770.08,209.35,765.64Z"/><path class="cls-17" d="M209.34,765.64a.94.94,0,0,0-1.78,0c-2.05,4.42-7.24,16.86-7.24,35.3,0,23.27,4.62,29.62,4.62,29.62a7,7,0,0,0,6.92,0s4-6.35,4-29.62C215.89,782.5,211.39,770.06,209.34,765.64Z"/><path class="cls-18" d="M209.34,765.64a.94.94,0,0,0-1.78,0c-2,4.4-7.21,16.79-7.21,35.16,0,23.18,4.6,29.5,4.6,29.5a7,7,0,0,0,6.89,0s4-6.32,4-29.5C215.85,782.43,211.38,770,209.34,765.64Z"/><path class="cls-19" d="M209.34,765.63a.94.94,0,0,0-1.78,0c-2,4.39-7.19,16.73-7.19,35,0,23.09,4.58,29.39,4.58,29.39a7,7,0,0,0,6.87,0s4-6.3,4-29.39C215.82,782.36,211.36,770,209.34,765.63Z"/><path class="cls-19" d="M209.33,765.63a.93.93,0,0,0-1.76,0c-2,4.37-7.17,16.66-7.17,34.89,0,23,4.56,29.27,4.56,29.27a6.92,6.92,0,0,0,6.84,0s4-6.27,4-29.27C215.78,782.29,211.35,770,209.33,765.63Z"/><path class="cls-20" d="M209.33,765.63a.93.93,0,0,0-1.76,0c-2,4.35-7.15,16.6-7.15,34.75,0,22.91,4.55,29.16,4.55,29.16a6.89,6.89,0,0,0,6.81,0s4-6.25,4-29.16C215.75,782.23,211.34,770,209.33,765.63Z"/><path class="cls-21" d="M209.32,765.63a.92.92,0,0,0-1.75,0c-2,4.33-7.12,16.53-7.12,34.61,0,22.82,4.52,29,4.52,29a6.89,6.89,0,0,0,6.79,0s4-6.22,4-29C215.71,782.16,211.33,770,209.32,765.63Z"/><path class="cls-22" d="M209.32,765.62a.92.92,0,0,0-1.74,0c-2,4.32-7.11,16.47-7.11,34.48C200.47,822.83,205,829,205,829a6.83,6.83,0,0,0,6.76,0s3.93-6.19,3.93-28.92C215.67,782.09,211.31,769.94,209.32,765.62Z"/><path class="cls-23" d="M209.31,765.62a.91.91,0,0,0-1.73,0c-2,4.3-7.09,16.4-7.09,34.34,0,22.63,4.5,28.81,4.5,28.81a6.8,6.8,0,0,0,6.73,0s3.92-6.18,3.92-28.81C215.64,782,211.3,769.92,209.31,765.62Z"/><path class="cls-24" d="M209.31,765.62a.91.91,0,0,0-1.73,0c-2,4.28-7.06,16.33-7.06,34.2,0,22.54,4.47,28.69,4.47,28.69a6.79,6.79,0,0,0,6.71,0s3.9-6.15,3.9-28.69C215.6,782,211.29,769.9,209.31,765.62Z"/><path class="cls-25" d="M209.31,765.62a.91.91,0,0,0-1.73,0c-2,4.26-7,16.26-7,34.06,0,22.45,4.46,28.58,4.46,28.58a6.75,6.75,0,0,0,6.67,0s3.89-6.13,3.89-28.58C215.56,781.88,211.28,769.88,209.31,765.62Z"/><path class="cls-26" d="M209.3,765.61a.91.91,0,0,0-1.71,0c-2,4.26-7,16.21-7,33.93C200.57,821.9,205,828,205,828a6.72,6.72,0,0,0,6.64,0s3.88-6.1,3.88-28.46C215.53,781.82,211.27,769.87,209.3,765.61Z"/><path class="cls-27" d="M209.3,765.61a.91.91,0,0,0-1.71,0c-2,4.24-7,16.14-7,33.79,0,22.27,4.42,28.34,4.42,28.34a6.68,6.68,0,0,0,6.62,0s3.86-6.07,3.86-28.34C215.49,781.75,211.25,769.85,209.3,765.61Z"/><path class="cls-28" d="M209.29,765.61a.9.9,0,0,0-1.7,0c-2,4.22-7,16.07-7,33.65,0,22.18,4.4,28.23,4.4,28.23a6.68,6.68,0,0,0,6.59,0s3.84-6,3.84-28.23C215.45,781.68,211.24,769.83,209.29,765.61Z"/><path class="cls-28" d="M209.29,765.61a.9.9,0,0,0-1.7,0c-1.94,4.2-7,16-7,33.51,0,22.09,4.38,28.11,4.38,28.11a6.65,6.65,0,0,0,6.57,0s3.83-6,3.83-28.11C215.42,781.61,211.23,769.81,209.29,765.61Z"/><path class="cls-29" d="M209.28,765.6a.89.89,0,0,0-1.68,0c-1.94,4.19-6.93,15.94-6.93,33.37,0,22,4.36,28,4.36,28a6.62,6.62,0,0,0,6.54,0s3.81-6,3.81-28C215.38,781.54,211.22,769.79,209.28,765.6Z"/><path class="cls-30" d="M209.28,765.6a.89.89,0,0,0-1.68,0c-1.92,4.17-6.91,15.87-6.91,33.23,0,21.91,4.35,27.89,4.35,27.89a6.59,6.59,0,0,0,6.51,0s3.79-6,3.79-27.89C215.34,781.47,211.2,769.77,209.28,765.6Z"/><path class="cls-31" d="M209.28,765.6a.89.89,0,0,0-1.68,0c-1.91,4.15-6.89,15.8-6.89,33.09,0,21.82,4.33,27.77,4.33,27.77a6.55,6.55,0,0,0,6.49,0s3.78-6,3.78-27.77C215.31,781.4,211.19,769.75,209.28,765.6Z"/><path class="cls-32" d="M209.27,765.6a.87.87,0,0,0-1.66,0c-1.91,4.13-6.87,15.74-6.87,32.95,0,21.73,4.31,27.66,4.31,27.66a6.55,6.55,0,0,0,6.46,0s3.76-5.93,3.76-27.66C215.27,781.34,211.18,769.73,209.27,765.6Z"/><path class="cls-33" d="M209.27,765.59a.88.88,0,0,0-1.66,0c-1.9,4.12-6.85,15.68-6.85,32.82,0,21.64,4.3,27.54,4.3,27.54a6.49,6.49,0,0,0,6.43,0s3.75-5.9,3.75-27.54C215.24,781.27,211.17,769.71,209.27,765.59Z"/><path class="cls-34" d="M209.26,765.59a.87.87,0,0,0-1.65,0c-1.89,4.1-6.82,15.61-6.82,32.68,0,21.55,4.27,27.43,4.27,27.43a6.52,6.52,0,0,0,6.41,0s3.73-5.88,3.73-27.43C215.2,781.2,211.16,769.69,209.26,765.59Z"/><path class="cls-35" d="M209.26,765.59a.87.87,0,0,0-1.65,0,76.86,76.86,0,0,0-6.8,32.54c0,21.46,4.26,27.31,4.26,27.31a6.46,6.46,0,0,0,6.38,0s3.71-5.85,3.71-27.31C215.16,781.13,211.14,769.67,209.26,765.59Z"/><path class="cls-36" d="M209.25,765.59a.86.86,0,0,0-1.63,0c-1.88,4.06-6.78,15.47-6.78,32.4,0,21.37,4.24,27.19,4.24,27.19a6.4,6.4,0,0,0,6.35,0s3.7-5.82,3.7-27.19C215.13,781.06,211.13,769.65,209.25,765.59Z"/><path class="cls-37" d="M209.25,765.58a.86.86,0,0,0-1.63,0,76.06,76.06,0,0,0-6.76,32.27c0,21.27,4.22,27.08,4.22,27.08a6.42,6.42,0,0,0,6.33,0s3.68-5.81,3.68-27.08C215.09,781,211.12,769.63,209.25,765.58Z"/><path class="cls-38" d="M209.25,765.58a.86.86,0,0,0-1.63,0,75.78,75.78,0,0,0-6.73,32.13c0,21.18,4.2,27,4.2,27a6.36,6.36,0,0,0,6.3,0s3.66-5.78,3.66-27C215.05,780.93,211.11,769.61,209.25,765.58Z"/><path class="cls-39" d="M209.24,765.58a.86.86,0,0,0-1.62,0,75.41,75.41,0,0,0-6.71,32c0,21.09,4.18,26.84,4.18,26.84a6.34,6.34,0,0,0,6.27,0s3.66-5.75,3.66-26.84C215,780.86,211.09,769.59,209.24,765.58Z"/><path class="cls-40" d="M209.24,765.58a.85.85,0,0,0-1.61,0,74.84,74.84,0,0,0-6.7,31.85c0,21,4.17,26.73,4.17,26.73a6.31,6.31,0,0,0,6.24,0s3.64-5.73,3.64-26.73C215,780.79,211.08,769.57,209.24,765.58Z"/><path class="cls-41" d="M209.23,765.57a.85.85,0,0,0-1.6,0A74.62,74.62,0,0,0,201,797.29c0,20.91,4.15,26.61,4.15,26.61a6.28,6.28,0,0,0,6.21,0s3.62-5.7,3.62-26.61C214.94,780.72,211.07,769.55,209.23,765.57Z"/><path class="cls-42" d="M209.23,765.57a.85.85,0,0,0-1.6,0A74.25,74.25,0,0,0,201,797.15c0,20.82,4.13,26.5,4.13,26.5a6.27,6.27,0,0,0,6.19,0s3.61-5.68,3.61-26.5C214.91,780.65,211.06,769.53,209.23,765.57Z"/><path class="cls-43" d="M209.23,765.57a.84.84,0,0,0-1.59,0A73.72,73.72,0,0,0,201,797c0,20.73,4.11,26.38,4.11,26.38a6.24,6.24,0,0,0,6.16,0s3.59-5.65,3.59-26.38C214.87,780.58,211.05,769.51,209.23,765.57Z"/><path class="cls-44" d="M209.22,765.57a.83.83,0,0,0-1.58,0,73.56,73.56,0,0,0-6.61,31.3c0,20.64,4.1,26.26,4.1,26.26a6.18,6.18,0,0,0,6.13,0s3.57-5.62,3.57-26.26C214.83,780.52,211,769.49,209.22,765.57Z"/><path class="cls-45" d="M209.22,765.56a.84.84,0,0,0-1.58,0,73.34,73.34,0,0,0-6.58,31.17c0,20.54,4.07,26.15,4.07,26.15a6.18,6.18,0,0,0,6.11,0s3.56-5.61,3.56-26.15C214.8,780.45,211,769.47,209.22,765.56Z"/><path class="cls-46" d="M209.21,765.56a.83.83,0,0,0-1.57,0,73,73,0,0,0-6.56,31c0,20.45,4.06,26,4.06,26a6.15,6.15,0,0,0,6.08,0s3.54-5.58,3.54-26C214.76,780.38,211,769.45,209.21,765.56Z"/><path class="cls-47" d="M209.21,765.56a.82.82,0,0,0-1.56,0,72.39,72.39,0,0,0-6.55,30.89c0,20.36,4.05,25.92,4.05,25.92a6.12,6.12,0,0,0,6,0s3.53-5.56,3.53-25.92C214.73,780.31,211,769.43,209.21,765.56Z"/><path class="cls-48" d="M209.2,765.56a.82.82,0,0,0-1.55,0,72.07,72.07,0,0,0-6.52,30.75c0,20.27,4,25.8,4,25.8a6.11,6.11,0,0,0,6,0s3.51-5.53,3.51-25.8C214.69,780.24,211,769.41,209.2,765.56Z"/><path class="cls-48" d="M209.2,765.55a.82.82,0,0,0-1.55,0,71.81,71.81,0,0,0-6.5,30.62c0,20.18,4,25.68,4,25.68a6.06,6.06,0,0,0,6,0s3.49-5.5,3.49-25.68C214.65,780.17,211,769.39,209.2,765.55Z"/><path class="cls-49" d="M209.2,765.55a.82.82,0,0,0-1.55,0A71.53,71.53,0,0,0,201.18,796c0,20.09,4,25.57,4,25.57a6.07,6.07,0,0,0,6,0s3.48-5.48,3.48-25.57C214.62,780.11,211,769.37,209.2,765.55Z"/><path class="cls-50" d="M209.19,765.55a.81.81,0,0,0-1.53,0,71,71,0,0,0-6.46,30.34c0,20,4,25.45,4,25.45a6,6,0,0,0,6,0s3.46-5.45,3.46-25.45C214.58,780,211,769.35,209.19,765.55Z"/><path class="cls-51" d="M209.19,765.55a.81.81,0,0,0-1.53,0,70.63,70.63,0,0,0-6.43,30.2c0,19.91,4,25.34,4,25.34a6,6,0,0,0,5.92,0s3.44-5.43,3.44-25.34C214.54,780,210.94,769.33,209.19,765.55Z"/><path class="cls-52" d="M209.18,765.54a.8.8,0,0,0-1.52,0,70.37,70.37,0,0,0-6.41,30.07c0,19.81,3.93,25.22,3.93,25.22a6,6,0,0,0,5.9,0s3.43-5.41,3.43-25.22C214.51,779.9,210.92,769.31,209.18,765.54Z"/><path class="cls-53" d="M209.18,765.54a.8.8,0,0,0-1.51,0,69.83,69.83,0,0,0-6.39,29.92c0,19.73,3.91,25.11,3.91,25.11a5.91,5.91,0,0,0,5.86,0s3.42-5.38,3.42-25.11C214.47,779.83,210.91,769.29,209.18,765.54Z"/><path class="cls-54" d="M209.17,765.54a.79.79,0,0,0-1.5,0,69.46,69.46,0,0,0-6.37,29.78c0,19.64,3.9,25,3.9,25a5.91,5.91,0,0,0,5.83,0s3.4-5.36,3.4-25C214.43,779.76,210.9,769.27,209.17,765.54Z"/><path class="cls-55" d="M209.17,765.54a.79.79,0,0,0-1.5,0,69.13,69.13,0,0,0-6.35,29.64c0,19.55,3.88,24.88,3.88,24.88a5.87,5.87,0,0,0,5.81,0s3.39-5.33,3.39-24.88C214.4,779.7,210.89,769.25,209.17,765.54Z"/><path class="cls-56" d="M209.17,765.53a.79.79,0,0,0-1.5,0A69.07,69.07,0,0,0,201.35,795c0,19.46,3.86,24.76,3.86,24.76a5.84,5.84,0,0,0,5.78,0s3.37-5.3,3.37-24.76C214.36,779.63,210.87,769.23,209.17,765.53Z"/><path class="cls-57" d="M209.16,765.53a.78.78,0,0,0-1.48,0,68.5,68.5,0,0,0-6.31,29.37c0,19.37,3.85,24.65,3.85,24.65a5.81,5.81,0,0,0,5.75,0s3.36-5.28,3.36-24.65C214.33,779.56,210.86,769.21,209.16,765.53Z"/><path class="cls-58" d="M209.16,765.53a.78.78,0,0,0-1.48,0,68.18,68.18,0,0,0-6.28,29.23c0,19.28,3.82,24.53,3.82,24.53a5.81,5.81,0,0,0,5.73,0s3.34-5.25,3.34-24.53C214.29,779.49,210.85,769.19,209.16,765.53Z"/><path class="cls-59" d="M209.15,765.53a.77.77,0,0,0-1.47,0,67.81,67.81,0,0,0-6.26,29.09c0,19.19,3.81,24.42,3.81,24.42a5.77,5.77,0,0,0,5.7,0s3.32-5.23,3.32-24.42C214.25,779.42,210.84,769.17,209.15,765.53Z"/><path class="cls-60" d="M209.15,765.52a.78.78,0,0,0-1.47,0,67.59,67.59,0,0,0-6.23,29c0,19.09,3.78,24.3,3.78,24.3a5.74,5.74,0,0,0,5.68,0s3.31-5.21,3.31-24.3C214.22,779.35,210.83,769.15,209.15,765.52Z"/><path class="cls-61" d="M209.14,765.52a.77.77,0,0,0-1.45,0,67.06,67.06,0,0,0-6.22,28.82c0,19,3.77,24.18,3.77,24.18a5.71,5.71,0,0,0,5.65,0s3.29-5.18,3.29-24.18C214.18,779.29,210.81,769.13,209.14,765.52Z"/><path class="cls-62" d="M209.14,765.52a.77.77,0,0,0-1.45,0,66.74,66.74,0,0,0-6.19,28.68c0,18.91,3.75,24.07,3.75,24.07a5.68,5.68,0,0,0,5.62,0s3.27-5.16,3.27-24.07C214.14,779.22,210.8,769.11,209.14,765.52Z"/><path class="cls-63" d="M209.14,765.52a.77.77,0,0,0-1.45,0,66.38,66.38,0,0,0-6.17,28.54c0,18.82,3.73,24,3.73,24a5.67,5.67,0,0,0,5.6,0s3.26-5.13,3.26-24C214.11,779.15,210.79,769.09,209.14,765.52Z"/><path class="cls-64" d="M209.13,765.51a.76.76,0,0,0-1.43,0,65.91,65.91,0,0,0-6.16,28.41c0,18.73,3.72,23.84,3.72,23.84a5.64,5.64,0,0,0,5.57,0s3.24-5.11,3.24-23.84C214.07,779.08,210.78,769.07,209.13,765.51Z"/><path class="cls-65" d="M209.13,765.51a.76.76,0,0,0-1.43,0,65.59,65.59,0,0,0-6.13,28.27c0,18.64,3.7,23.72,3.7,23.72a5.62,5.62,0,0,0,5.54,0s3.22-5.08,3.22-23.72C214,779,210.76,769.05,209.13,765.51Z"/><path class="cls-66" d="M209.12,765.51a.75.75,0,0,0-1.42,0,65.22,65.22,0,0,0-6.11,28.13c0,18.55,3.68,23.6,3.68,23.6a5.58,5.58,0,0,0,5.52,0s3.21-5,3.21-23.6C214,778.94,210.75,769,209.12,765.51Z"/><path class="cls-66" d="M209.12,765.51a.75.75,0,0,0-1.42,0,64.94,64.94,0,0,0-6.08,28c0,18.45,3.66,23.49,3.66,23.49a5.55,5.55,0,0,0,5.49,0S214,812,214,793.5C214,778.88,210.74,769,209.12,765.51Z"/><path class="cls-67" d="M209.11,765.5a.74.74,0,0,0-1.4,0,64.48,64.48,0,0,0-6.07,27.86c0,18.36,3.65,23.37,3.65,23.37a5.5,5.5,0,0,0,5.45,0s3.18-5,3.18-23.37C213.92,778.81,210.73,769,209.11,765.5Z"/><path class="cls-68" d="M209.11,765.5a.74.74,0,0,0-1.4,0,64.2,64.2,0,0,0-6,27.72c0,18.27,3.62,23.26,3.62,23.26a5.5,5.5,0,0,0,5.43,0s3.17-5,3.17-23.26C213.89,778.74,210.72,769,209.11,765.5Z"/><path class="cls-69" d="M209.11,765.5a.74.74,0,0,0-1.4,0,64,64,0,0,0-6,27.58c0,18.18,3.61,23.14,3.61,23.14a5.47,5.47,0,0,0,5.4,0s3.15-5,3.15-23.14C213.85,778.67,210.7,769,209.11,765.5Z"/><path class="cls-70" d="M209.1,765.5a.73.73,0,0,0-1.39,0,63.62,63.62,0,0,0-6,27.44c0,18.09,3.59,23,3.59,23a5.43,5.43,0,0,0,5.38,0s3.14-4.93,3.14-23C213.82,778.6,210.69,768.94,209.1,765.5Z"/><path class="cls-71" d="M209.1,765.49a.73.73,0,0,0-1.38,0,63.2,63.2,0,0,0-6,27.31c0,18,3.57,22.91,3.57,22.91a5.43,5.43,0,0,0,5.35,0s3.12-4.91,3.12-22.91C213.78,778.53,210.68,768.92,209.1,765.49Z"/><path class="cls-72" d="M209.09,765.49a.73.73,0,0,0-1.37,0,62.87,62.87,0,0,0-6,27.17c0,17.91,3.56,22.79,3.56,22.79a5.37,5.37,0,0,0,5.32,0s3.1-4.88,3.1-22.79C213.74,778.47,210.67,768.9,209.09,765.49Z"/><path class="cls-73" d="M209.09,765.49a.73.73,0,0,0-1.37,0,62.55,62.55,0,0,0-5.93,27c0,17.82,3.53,22.68,3.53,22.68a5.36,5.36,0,0,0,5.3,0s3.09-4.86,3.09-22.68C213.71,778.4,210.65,768.88,209.09,765.49Z"/><path class="cls-74" d="M209.09,765.49a.72.72,0,0,0-1.36,0,62,62,0,0,0-5.92,26.89c0,17.72,3.52,22.56,3.52,22.56a5.33,5.33,0,0,0,5.27,0s3.07-4.84,3.07-22.56C213.67,778.33,210.64,768.86,209.09,765.49Z"/><path class="cls-75" d="M209.08,765.48a.71.71,0,0,0-1.35,0,61.77,61.77,0,0,0-5.89,26.76c0,17.63,3.5,22.44,3.5,22.44a5.28,5.28,0,0,0,5.24,0s3-4.81,3-22.44C213.63,778.26,210.63,768.84,209.08,765.48Z"/><path class="cls-76" d="M209.08,765.48a.71.71,0,0,0-1.35,0,61.4,61.4,0,0,0-5.87,26.62c0,17.54,3.48,22.33,3.48,22.33a5.3,5.3,0,0,0,5.22,0s3-4.79,3-22.33C213.6,778.19,210.62,768.82,209.08,765.48Z"/><path class="cls-77" d="M209.07,765.48a.71.71,0,0,0-1.34,0A61.08,61.08,0,0,0,201.89,792c0,17.45,3.46,22.21,3.46,22.21a5.24,5.24,0,0,0,5.19,0s3-4.76,3-22.21C213.56,778.12,210.61,768.8,209.07,765.48Z"/><path class="cls-77" d="M209.07,765.48a.7.7,0,0,0-1.33,0,60.54,60.54,0,0,0-5.83,26.33c0,17.37,3.45,22.1,3.45,22.1a5.21,5.21,0,0,0,5.16,0s3-4.73,3-22.1C213.52,778.06,210.59,768.78,209.07,765.48Z"/><path class="cls-78" d="M209.06,765.47a.7.7,0,0,0-1.32,0,60.28,60.28,0,0,0-5.81,26.2c0,17.28,3.43,22,3.43,22a5.2,5.2,0,0,0,5.14,0s3-4.71,3-22C213.49,778,210.58,768.76,209.06,765.47Z"/><path class="cls-79" d="M209.06,765.47a.7.7,0,0,0-1.32,0A60,60,0,0,0,202,791.53c0,17.19,3.41,21.87,3.41,21.87a5.17,5.17,0,0,0,5.11,0s3-4.68,3-21.87C213.45,777.92,210.57,768.74,209.06,765.47Z"/><path class="cls-80" d="M209.06,765.47a.7.7,0,0,0-1.32,0A59.59,59.59,0,0,0,202,791.39c0,17.1,3.39,21.76,3.39,21.76a5.16,5.16,0,0,0,5.09,0s2.95-4.66,2.95-21.76C213.41,777.85,210.56,768.72,209.06,765.47Z"/><path class="cls-80" d="M209.05,765.47a.68.68,0,0,0-1.3,0A59.07,59.07,0,0,0,202,791.25c0,17,3.37,21.64,3.37,21.64a5.1,5.1,0,0,0,5.05,0s2.95-4.64,2.95-21.64C213.38,777.78,210.54,768.7,209.05,765.47Z"/><path class="cls-81" d="M209.05,765.46a.69.69,0,0,0-1.3,0A59,59,0,0,0,202,791.11c0,16.91,3.36,21.52,3.36,21.52a5.06,5.06,0,0,0,5,0s2.93-4.61,2.93-21.52C213.34,777.71,210.53,768.68,209.05,765.46Z"/><path class="cls-82" d="M209,765.46a.68.68,0,0,0-1.29,0A58.68,58.68,0,0,0,202.06,791c0,16.82,3.33,21.41,3.33,21.41a5.06,5.06,0,0,0,5,0s2.92-4.59,2.92-21.41C213.31,777.65,210.52,768.66,209,765.46Z"/><path class="cls-83" d="M209,765.46a.68.68,0,0,0-1.28,0,58.12,58.12,0,0,0-5.68,25.37c0,16.73,3.32,21.29,3.32,21.29a5,5,0,0,0,5,0s2.9-4.56,2.9-21.29C213.27,777.58,210.51,768.64,209,765.46Z"/><path class="cls-84" d="M209,765.46a.67.67,0,0,0-1.27,0,57.8,57.8,0,0,0-5.65,25.23c0,16.64,3.3,21.18,3.3,21.18a5,5,0,0,0,4.94,0s2.88-4.54,2.88-21.18C213.23,777.51,210.5,768.62,209,765.46Z"/><path class="cls-85" d="M209,765.45a.67.67,0,0,0-1.27,0,57.53,57.53,0,0,0-5.63,25.1c0,16.55,3.28,21.06,3.28,21.06a5,5,0,0,0,4.92,0s2.87-4.51,2.87-21.06C213.2,777.44,210.48,768.6,209,765.45Z"/><path class="cls-86" d="M209,765.45a.67.67,0,0,0-1.27,0,57.16,57.16,0,0,0-5.61,25c0,16.46,3.27,20.94,3.27,20.94a4.93,4.93,0,0,0,4.89,0s2.85-4.48,2.85-20.94C213.16,777.37,210.47,768.58,209,765.45Z"/><path class="cls-87" d="M209,765.45a.66.66,0,0,0-1.25,0,56.65,56.65,0,0,0-5.59,24.82c0,16.36,3.25,20.83,3.25,20.83a4.91,4.91,0,0,0,4.86,0s2.83-4.47,2.83-20.83C213.12,777.3,210.46,768.56,209,765.45Z"/><path class="cls-88" d="M209,765.45a.66.66,0,0,0-1.25,0,56.33,56.33,0,0,0-5.57,24.68c0,16.27,3.23,20.71,3.23,20.71a4.9,4.9,0,0,0,4.84,0s2.82-4.44,2.82-20.71C213.09,777.24,210.45,768.54,209,765.45Z"/><path class="cls-89" d="M209,765.44a.66.66,0,0,0-1.24,0A56.11,56.11,0,0,0,202.23,790c0,16.18,3.21,20.6,3.21,20.6a4.87,4.87,0,0,0,4.81,0s2.8-4.42,2.8-20.6C213.05,777.17,210.43,768.52,209,765.44Z"/><path class="cls-89" d="M209,765.44a.66.66,0,0,0-1.24,0,55.74,55.74,0,0,0-5.52,24.41c0,16.09,3.19,20.48,3.19,20.48a4.86,4.86,0,0,0,4.79,0s2.78-4.39,2.78-20.48C213,777.1,210.42,768.5,209,765.44Z"/><path class="cls-90" d="M209,765.44a.64.64,0,0,0-1.22,0,55.23,55.23,0,0,0-5.5,24.27c0,16,3.17,20.36,3.17,20.36a4.8,4.8,0,0,0,4.76,0s2.77-4.36,2.77-20.36C213,777,210.41,768.48,209,765.44Z"/><path class="cls-91" d="M209,765.44a.64.64,0,0,0-1.22,0,54.86,54.86,0,0,0-5.48,24.13c0,15.91,3.16,20.25,3.16,20.25a4.8,4.8,0,0,0,4.73,0s2.75-4.34,2.75-20.25C212.94,777,210.4,768.46,209,765.44Z"/><path class="cls-92" d="M209,765.43a.65.65,0,0,0-1.22,0,54.6,54.6,0,0,0-5.46,24c0,15.82,3.14,20.13,3.14,20.13a4.76,4.76,0,0,0,4.71,0s2.74-4.31,2.74-20.13C212.91,776.89,210.39,768.44,209,765.43Z"/><path class="cls-93" d="M209,765.43a.63.63,0,0,0-1.2,0,54.13,54.13,0,0,0-5.44,23.86c0,15.73,3.12,20,3.12,20a4.74,4.74,0,0,0,4.68,0s2.72-4.28,2.72-20C212.87,776.83,210.37,768.42,209,765.43Z"/><path class="cls-94" d="M209,765.43a.63.63,0,0,0-1.2,0,53.91,53.91,0,0,0-5.42,23.72c0,15.63,3.11,19.9,3.11,19.9a4.69,4.69,0,0,0,4.64,0s2.71-4.27,2.71-19.9C212.83,776.76,210.36,768.4,209,765.43Z"/><path class="cls-95" d="M209,765.43a.63.63,0,0,0-1.19,0A53.59,53.59,0,0,0,202.4,789c0,15.54,3.08,19.78,3.08,19.78a4.65,4.65,0,0,0,4.62,0s2.7-4.24,2.7-19.78C212.8,776.69,210.35,768.38,209,765.43Z"/><path class="cls-95" d="M209,765.42a.63.63,0,0,0-1.19,0,53.32,53.32,0,0,0-5.37,23.45c0,15.45,3.07,19.67,3.07,19.67a4.66,4.66,0,0,0,4.59,0s2.68-4.22,2.68-19.67C212.76,776.62,210.34,768.36,209,765.42Z"/><path class="cls-96" d="M209,765.42a.62.62,0,0,0-1.18,0,52.81,52.81,0,0,0-5.35,23.31c0,15.36,3.05,19.55,3.05,19.55a4.6,4.6,0,0,0,4.56,0s2.66-4.19,2.66-19.55C212.72,776.55,210.32,768.34,209,765.42Z"/><path class="cls-97" d="M209,765.42a.62.62,0,0,0-1.17,0,52.45,52.45,0,0,0-5.33,23.17c0,15.27,3,19.43,3,19.43a4.59,4.59,0,0,0,4.54,0s2.65-4.16,2.65-19.43C212.69,776.48,210.31,768.32,209,765.42Z"/><path class="cls-98" d="M209,765.42a.62.62,0,0,0-1.17,0,52.17,52.17,0,0,0-5.3,23c0,15.18,3,19.32,3,19.32a4.56,4.56,0,0,0,4.51,0s2.63-4.14,2.63-19.32C212.65,776.42,210.3,768.3,209,765.42Z"/><path class="cls-99" d="M209,765.41a.61.61,0,0,0-1.15,0,51.7,51.7,0,0,0-5.29,22.89c0,15.1,3,19.21,3,19.21a4.55,4.55,0,0,0,4.49,0s2.61-4.11,2.61-19.21C212.61,776.35,210.29,768.28,209,765.41Z"/><path class="cls-100" d="M209,765.41a.61.61,0,0,0-1.15,0,51.34,51.34,0,0,0-5.27,22.75c0,15,3,19.1,3,19.1a4.52,4.52,0,0,0,4.46,0s2.6-4.09,2.6-19.1C212.58,776.28,210.28,768.26,209,765.41Z"/><path class="cls-100" d="M209,765.41a.6.6,0,0,0-1.14,0A51,51,0,0,0,202.57,788c0,14.91,3,19,3,19a4.46,4.46,0,0,0,4.43,0s2.58-4.07,2.58-19C212.54,776.21,210.26,768.24,209,765.41Z"/><path class="cls-101" d="M209,765.41a.6.6,0,0,0-1.14,0,50.65,50.65,0,0,0-5.22,22.47c0,14.82,2.94,18.86,2.94,18.86a4.46,4.46,0,0,0,4.41,0s2.56-4,2.56-18.86C212.5,776.14,210.25,768.22,209,765.41Z"/><path class="cls-102" d="M209,765.4a.6.6,0,0,0-1.13,0,50.24,50.24,0,0,0-5.2,22.34c0,14.73,2.92,18.75,2.92,18.75a4.43,4.43,0,0,0,4.38,0s2.55-4,2.55-18.75C212.47,776.07,210.24,768.2,209,765.4Z"/><path class="cls-103" d="M208.94,765.4a.59.59,0,0,0-1.12,0,49.92,49.92,0,0,0-5.18,22.2c0,14.64,2.91,18.63,2.91,18.63a4.4,4.4,0,0,0,4.35,0s2.53-4,2.53-18.63C212.43,776,210.23,768.18,208.94,765.4Z"/><path class="cls-104" d="M208.94,765.4a.59.59,0,0,0-1.12,0,49.6,49.6,0,0,0-5.15,22.06c0,14.55,2.88,18.52,2.88,18.52a4.39,4.39,0,0,0,4.33,0s2.52-4,2.52-18.52C212.4,775.94,210.21,768.16,208.94,765.4Z"/><path class="cls-105" d="M208.93,765.4a.59.59,0,0,0-1.11,0,49.24,49.24,0,0,0-5.13,21.92c0,14.46,2.87,18.4,2.87,18.4a4.36,4.36,0,0,0,4.3,0s2.5-3.94,2.5-18.4C212.36,775.87,210.2,768.14,208.93,765.4Z"/><path class="cls-106" d="M208.93,765.39a.58.58,0,0,0-1.1,0,49,49,0,0,0-5.11,21.79c0,14.37,2.85,18.28,2.85,18.28a4.31,4.31,0,0,0,4.27,0s2.48-3.91,2.48-18.28C212.32,775.8,210.19,768.12,208.93,765.39Z"/><path class="cls-107" d="M208.92,765.39a.58.58,0,0,0-1.09,0A48.61,48.61,0,0,0,202.74,787c0,14.27,2.83,18.17,2.83,18.17a4.31,4.31,0,0,0,4.24,0s2.48-3.9,2.48-18.17C212.29,775.73,210.18,768.1,208.92,765.39Z"/><path class="cls-108" d="M208.92,765.39a.58.58,0,0,0-1.09,0,48.29,48.29,0,0,0-5.07,21.51c0,14.18,2.82,18.05,2.82,18.05a4.25,4.25,0,0,0,4.21,0s2.46-3.87,2.46-18.05C212.25,775.66,210.17,768.09,208.92,765.39Z"/><path class="cls-109" d="M208.92,765.39a.57.57,0,0,0-1.08,0,47.78,47.78,0,0,0-5.05,21.37c0,14.09,2.79,17.94,2.79,17.94a4.25,4.25,0,0,0,4.19,0s2.44-3.85,2.44-17.94C212.21,775.59,210.15,768.07,208.92,765.39Z"/><path class="cls-110" d="M208.91,765.38a.57.57,0,0,0-1.07,0,47.56,47.56,0,0,0-5,21.24c0,14,2.78,17.82,2.78,17.82a4.21,4.21,0,0,0,4.16,0s2.43-3.82,2.43-17.82C212.18,775.53,210.14,768.05,208.91,765.38Z"/><path class="cls-111" d="M208.91,765.38a.57.57,0,0,0-1.07,0,47.24,47.24,0,0,0-5,21.1c0,13.91,2.76,17.7,2.76,17.7a4.16,4.16,0,0,0,4.13,0s2.41-3.79,2.41-17.7C212.14,775.46,210.13,768,208.91,765.38Z"/><path class="cls-112" d="M208.9,765.38a.56.56,0,0,0-1.06,0,46.88,46.88,0,0,0-5,21c0,13.82,2.74,17.59,2.74,17.59a4.18,4.18,0,0,0,4.11,0s2.39-3.77,2.39-17.59C212.1,775.39,210.12,768,208.9,765.38Z"/><path class="cls-113" d="M208.9,765.38a.55.55,0,0,0-1.05,0,46.37,46.37,0,0,0-5,20.82c0,13.73,2.72,17.47,2.72,17.47a4.12,4.12,0,0,0,4.08,0s2.38-3.74,2.38-17.47C212.07,775.32,210.1,768,208.9,765.38Z"/><path class="cls-114" d="M208.89,765.37a.55.55,0,0,0-1,0,46.11,46.11,0,0,0-4.94,20.69c0,13.64,2.71,17.35,2.71,17.35a4.09,4.09,0,0,0,4,0S212,799.7,212,786.06C212,775.25,210.09,768,208.89,765.37Z"/><path class="cls-115" d="M208.89,765.37a.55.55,0,0,0-1,0,45.75,45.75,0,0,0-4.92,20.55c0,13.54,2.69,17.24,2.69,17.24a4.09,4.09,0,0,0,4,0s2.34-3.7,2.34-17.24C212,775.18,210.08,768,208.89,765.37Z"/><path class="cls-115" d="M208.89,765.37a.55.55,0,0,0-1,0A45.47,45.47,0,0,0,203,785.78c0,13.45,2.67,17.12,2.67,17.12a4,4,0,0,0,4,0s2.33-3.67,2.33-17.12C212,775.12,210.07,767.93,208.89,765.37Z"/><path class="cls-116" d="M208.88,765.37a.54.54,0,0,0-1,0A44.93,44.93,0,0,0,203,785.64c0,13.36,2.66,17,2.66,17a4,4,0,0,0,4,0s2.31-3.65,2.31-17C211.92,775.05,210.06,767.91,208.88,765.37Z"/><path class="cls-117" d="M208.88,765.36a.54.54,0,0,0-1,0A44.71,44.71,0,0,0,203,785.5c0,13.27,2.63,16.89,2.63,16.89a4,4,0,0,0,4,0s2.3-3.62,2.3-16.89C211.89,775,210,767.89,208.88,765.36Z"/><path class="cls-118" d="M208.87,765.36a.53.53,0,0,0-1,0,44.34,44.34,0,0,0-4.83,20c0,13.18,2.62,16.77,2.62,16.77a4,4,0,0,0,3.92,0s2.28-3.59,2.28-16.77C211.85,774.91,210,767.87,208.87,765.36Z"/><path class="cls-119" d="M208.87,765.36a.53.53,0,0,0-1,0,44,44,0,0,0-4.81,19.86c0,13.09,2.59,16.66,2.59,16.66a4,4,0,0,0,3.9,0s2.26-3.57,2.26-16.66C211.81,774.84,210,767.85,208.87,765.36Z"/><path class="cls-120" d="M208.86,765.36a.52.52,0,0,0-1,0,43.62,43.62,0,0,0-4.79,19.72c0,13,2.58,16.54,2.58,16.54a3.92,3.92,0,0,0,3.87,0s2.25-3.54,2.25-16.54C211.78,774.77,210,767.83,208.86,765.36Z"/><path class="cls-121" d="M208.86,765.35a.52.52,0,0,0-1,0,43.44,43.44,0,0,0-4.76,19.59c0,12.91,2.56,16.43,2.56,16.43a3.88,3.88,0,0,0,3.83,0s2.24-3.52,2.24-16.43C211.74,774.71,210,767.81,208.86,765.35Z"/><path class="cls-122" d="M208.86,765.35a.52.52,0,0,0-1,0,43.08,43.08,0,0,0-4.74,19.45c0,12.81,2.54,16.31,2.54,16.31a3.84,3.84,0,0,0,3.81,0s2.22-3.5,2.22-16.31C211.7,774.64,210,767.79,208.86,765.35Z"/><path class="cls-123" d="M208.85,765.35a.51.51,0,0,0-1,0,42.53,42.53,0,0,0-4.73,19.3c0,12.73,2.53,16.2,2.53,16.2a3.81,3.81,0,0,0,3.78,0s2.21-3.47,2.21-16.2C211.67,774.57,210,767.77,208.85,765.35Z"/><path class="cls-124" d="M208.85,765.35a.51.51,0,0,0-1,0,42.21,42.21,0,0,0-4.7,19.16c0,12.64,2.51,16.09,2.51,16.09a3.78,3.78,0,0,0,3.75,0s2.19-3.45,2.19-16.09C211.63,774.5,210,767.75,208.85,765.35Z"/><path class="cls-124" d="M208.84,765.34a.51.51,0,0,0-1,0,41.94,41.94,0,0,0-4.68,19c0,12.55,2.49,16,2.49,16a3.78,3.78,0,0,0,3.73,0s2.17-3.42,2.17-16C211.59,774.43,210,767.73,208.84,765.34Z"/><path class="cls-125" d="M215.2,835.65a104.47,104.47,0,0,0,2.15-14.14,134.08,134.08,0,0,0-1.12-33.78c-.51-3.08-5.36-19.49-5.75-19.57-2-.38-7.59,12.67-9.45,26.92A142.67,142.67,0,0,0,199.84,813a116.48,116.48,0,0,0,2.37,22.62c-.09-.44,1.84.15,4.44.55S212.55,836.82,215.2,835.65Z"/><path class="cls-126" d="M216.22,787.73c-.51-3.08-5.3-19.23-5.69-19.27-1.53-.18-5.17,7.39-7.61,17.4a89.29,89.29,0,0,0-1.74,9.28A144,144,0,0,0,200,812.92a114.35,114.35,0,0,0,2.33,22.41c-.08-.43,1.83.15,4.42.54s5.83.6,8.44-.59A94.59,94.59,0,0,0,217,824.17c.11-.92.21-1.9.3-2.92A132.36,132.36,0,0,0,216.22,787.73Z"/><path class="cls-126" d="M216.22,787.74c-.51-3.08-5.25-19-5.65-19-1.51-.06-5.11,7.35-7.51,17.25a87.26,87.26,0,0,0-1.73,9.2,141.53,141.53,0,0,0-1.17,17.61A113.09,113.09,0,0,0,202.45,835c-.08-.43,1.82.15,4.39.53s5.76.57,8.35-.63a98.79,98.79,0,0,0,1.81-11c.1-.92.2-1.89.3-2.9A132,132,0,0,0,216.22,787.74Z"/><path class="cls-127" d="M216.21,787.74c-.51-3.07-5.18-18.7-5.59-18.69-1.5,0-5.05,7.3-7.43,17.09a89.17,89.17,0,0,0-1.71,9.11,141.18,141.18,0,0,0-1.16,17.46,111.07,111.07,0,0,0,2.25,22c-.07-.43,1.81.14,4.37.52s5.68.54,8.24-.67a98,98,0,0,0,1.8-10.94c.1-.91.2-1.87.29-2.88A130.77,130.77,0,0,0,216.21,787.74Z"/><path class="cls-128" d="M216.2,787.74c-.51-3.07-5.13-18.52-5.54-18.39-1.46-.19-5,7.24-7.34,16.93a85,85,0,0,0-1.68,9,138.59,138.59,0,0,0-1.16,17.29,109.81,109.81,0,0,0,2.21,21.79c-.07-.41,1.8.15,4.34.51s5.61.52,8.14-.7A96.54,96.54,0,0,0,217,823.34c.11-.9.21-1.86.3-2.85A130.11,130.11,0,0,0,216.2,787.74Z"/><path class="cls-129" d="M216.19,787.74c-.5-3.06-5.07-18.28-5.48-18.1-1.45-.16-4.93,7.2-7.25,16.79a85.89,85.89,0,0,0-1.67,8.94,140,140,0,0,0-1.15,17.13,108.55,108.55,0,0,0,2.17,21.58c-.06-.41,1.79.15,4.32.5s5.54.49,8-.74a95.76,95.76,0,0,0,1.77-10.77c.1-.9.2-1.85.29-2.84A128.39,128.39,0,0,0,216.19,787.74Z"/><path class="cls-130" d="M216.19,787.74c-.51-3.06-5-18-5.43-17.8-1.44-.14-4.87,7.15-7.17,16.63a87,87,0,0,0-1.65,8.86,139.5,139.5,0,0,0-1.14,17,106.6,106.6,0,0,0,2.13,21.38c-.05-.41,1.77.14,4.3.49s5.46.46,7.93-.79a99.13,99.13,0,0,0,1.75-10.68c.1-.89.2-1.83.29-2.81A127.67,127.67,0,0,0,216.19,787.74Z"/><path class="cls-131" d="M216.18,787.75c-.5-3.06-5-17.79-5.38-17.51-1.42-.12-4.81,7.09-7.07,16.47a85.77,85.77,0,0,0-1.64,8.77,137.28,137.28,0,0,0-1.13,16.8,105.29,105.29,0,0,0,2.09,21.17c-.05-.4,1.76.15,4.27.48s5.39.45,7.83-.82a98.3,98.3,0,0,0,1.74-10.6c.1-.88.19-1.81.28-2.79A126.35,126.35,0,0,0,216.18,787.75Z"/><path class="cls-132" d="M216.17,787.75c-.5-3-4.91-17.55-5.32-17.22-1.4-.09-4.75,7.05-7,16.33a84,84,0,0,0-1.61,8.68,138.72,138.72,0,0,0-1.13,16.64,104.8,104.8,0,0,0,2,21c0-.4,1.75.14,4.25.47,2.34.31,5.31.42,7.72-.86a93.31,93.31,0,0,0,1.72-10.52c.1-.87.2-1.8.29-2.76A125.69,125.69,0,0,0,216.17,787.75Z"/><path class="cls-133" d="M216.16,787.75c-.49-3-4.85-17.3-5.27-16.92-1.38-.06-4.69,7-6.89,16.17a83,83,0,0,0-1.6,8.6,138.08,138.08,0,0,0-1.12,16.47,103.6,103.6,0,0,0,2,20.76c0-.4,1.74.14,4.22.46,2.31.29,5.24.39,7.63-.9a100.39,100.39,0,0,0,1.7-10.43c.1-.87.2-1.79.29-2.74A125,125,0,0,0,216.16,787.75Z"/><path class="cls-134" d="M216.16,787.75c-.5-3-4.8-17.06-5.22-16.62-1.37,0-4.63,7-6.81,16a83.63,83.63,0,0,0-1.58,8.52,137.76,137.76,0,0,0-1.11,16.3,101.67,101.67,0,0,0,2,20.55c0-.38,1.73.15,4.2.45,2.27.29,5.17.37,7.52-.93a96.94,96.94,0,0,0,1.69-10.35c.1-.86.19-1.77.28-2.72A123.73,123.73,0,0,0,216.16,787.75Z"/><path class="cls-135" d="M216.15,787.75c-.5-3-4.74-16.81-5.17-16.33-1.35,0-4.56,6.9-6.72,15.87a85,85,0,0,0-1.56,8.42,139.85,139.85,0,0,0-1.1,16.15,100.46,100.46,0,0,0,1.93,20.34c0-.38,1.72.14,4.17.44,2.25.27,5.1.34,7.42-1a98.14,98.14,0,0,0,1.68-10.26c.1-.85.19-1.75.28-2.69A122.61,122.61,0,0,0,216.15,787.75Z"/><path class="cls-136" d="M216.14,787.76c-.49-3-4.68-16.58-5.11-16-1.34,0-4.51,6.85-6.63,15.71a81.14,81.14,0,0,0-1.54,8.34,134.94,134.94,0,0,0-1.1,16,98.59,98.59,0,0,0,1.89,20.14c0-.38,1.71.14,4.15.43,2.21.26,5,.31,7.31-1a93.51,93.51,0,0,0,1.66-10.17c.1-.85.2-1.75.28-2.68A121.27,121.27,0,0,0,216.14,787.76Z"/><path class="cls-137" d="M216.13,787.76c-.49-3-4.62-16.33-5.06-15.75-1.32,0-4.44,6.81-6.54,15.56a82.34,82.34,0,0,0-1.52,8.26,134.48,134.48,0,0,0-1.09,15.81,98,98,0,0,0,1.85,19.93c0-.37,1.7.14,4.12.42,2.18.26,5,.29,7.22-1a101,101,0,0,0,1.64-10.09c.1-.84.19-1.73.28-2.65A120.61,120.61,0,0,0,216.13,787.76Z"/><path class="cls-138" d="M216.13,787.76c-.49-3-4.57-16.09-5-15.45-1.3.06-4.39,6.75-6.45,15.4a80.74,80.74,0,0,0-1.51,8.18,136.12,136.12,0,0,0-1.08,15.65,96.17,96.17,0,0,0,1.81,19.72c0-.37,1.69.14,4.1.41,2.14.24,4.88.26,7.11-1.09a97.35,97.35,0,0,0,1.63-10c.1-.83.19-1.71.27-2.63A119.31,119.31,0,0,0,216.13,787.76Z"/><path class="cls-139" d="M216.12,787.76c-.49-3-4.51-15.84-5-15.15-1.28.09-4.32,6.7-6.36,15.25-.6,2.56-1.12,5.3-1.49,8.09a135.72,135.72,0,0,0-1.07,15.48A95,95,0,0,0,204,831c0-.37,1.68.14,4.07.4a11.08,11.08,0,0,0,7-1.13,99.93,99.93,0,0,0,1.62-9.93c.09-.82.18-1.69.27-2.6A118.66,118.66,0,0,0,216.12,787.76Z"/><path class="cls-140" d="M216.11,787.76c-.48-3-4.45-15.59-4.9-14.86-1.27.12-4.27,6.66-6.27,15.1a80.52,80.52,0,0,0-1.47,8,135.58,135.58,0,0,0-1.07,15.32,93.13,93.13,0,0,0,1.73,19.31c0-.35,1.67.14,4.05.39a10.74,10.74,0,0,0,6.9-1.17,93.18,93.18,0,0,0,1.6-9.83c.1-.82.19-1.69.28-2.59A118,118,0,0,0,216.11,787.76Z"/><path class="cls-141" d="M216.11,787.77c-.49-3-4.41-15.36-4.86-14.57-1.25.14-4.2,6.61-6.18,14.94a79.45,79.45,0,0,0-1.45,7.92,132.91,132.91,0,0,0-1.06,15.16,92,92,0,0,0,1.69,19.1c0-.35,1.65.14,4,.38a10.51,10.51,0,0,0,6.81-1.21,97.48,97.48,0,0,0,1.58-9.75c.1-.81.19-1.67.27-2.56A116.63,116.63,0,0,0,216.11,787.77Z"/><path class="cls-142" d="M216.1,787.77c-.49-3-4.35-15.11-4.8-14.27-1.24.16-4.14,6.55-6.1,14.79a79.48,79.48,0,0,0-1.43,7.83,132.54,132.54,0,0,0-1.05,15,91,91,0,0,0,1.65,18.9c0-.35,1.64.13,4,.37a10.23,10.23,0,0,0,6.7-1.25,96.61,96.61,0,0,0,1.57-9.67c.09-.8.18-1.65.27-2.54A115.43,115.43,0,0,0,216.1,787.77Z"/><path class="cls-143" d="M216.09,787.77c-.48-3-4.29-14.87-4.74-14-1.23.19-4.09,6.51-6,14.64a78.39,78.39,0,0,0-1.42,7.75,134.41,134.41,0,0,0-1,14.82,89.71,89.71,0,0,0,1.61,18.69c0-.34,1.63.14,4,.36a9.92,9.92,0,0,0,6.6-1.28,96.49,96.49,0,0,0,1.56-9.58c.09-.8.18-1.64.26-2.52A114.26,114.26,0,0,0,216.09,787.77Z"/><path class="cls-144" d="M216.08,787.77c-.48-3-4.23-14.62-4.69-13.68-1.21.21-4,6.46-5.92,14.48-.56,2.44-1.05,5-1.39,7.66a131.93,131.93,0,0,0-1,14.67,88.65,88.65,0,0,0,1.57,18.48c0-.34,1.62.14,3.95.35a9.67,9.67,0,0,0,6.49-1.32,95.64,95.64,0,0,0,1.55-9.5c.09-.79.18-1.63.26-2.5A113.55,113.55,0,0,0,216.08,787.77Z"/><path class="cls-145" d="M216.08,787.78c-.48-3-4.18-14.39-4.64-13.39-1.19.24-4,6.4-5.83,14.32-.56,2.41-1,5-1.38,7.58a129.21,129.21,0,0,0-1,14.5,87,87,0,0,0,1.53,18.28c0-.34,1.61.13,3.92.34a9.47,9.47,0,0,0,6.4-1.36c.06-.36.88-3.87,1.52-9.42.09-.78.18-1.61.26-2.47A112.71,112.71,0,0,0,216.08,787.78Z"/><path class="cls-145" d="M216.07,787.78c-.48-3-4.12-14.14-4.59-13.1-1.17.27-3.9,6.36-5.74,14.18-.55,2.38-1,4.91-1.36,7.49a131.33,131.33,0,0,0-1,14.33,85.77,85.77,0,0,0,1.49,18.07c0-.32,1.6.14,3.9.33a9.18,9.18,0,0,0,6.29-1.4c.06-.37.88-3.84,1.51-9.32.09-.78.18-1.6.26-2.45A111.13,111.13,0,0,0,216.07,787.78Z"/><path class="cls-146" d="M216.06,787.78c-.48-3-4.06-13.9-4.53-12.8-1.16.29-3.84,6.31-5.65,14-.55,2.36-1,4.86-1.35,7.41a131.07,131.07,0,0,0-1,14.17A84.74,84.74,0,0,0,205,828.44c0-.32,1.59.13,3.87.32a8.94,8.94,0,0,0,6.19-1.44c.07-.39.87-3.83,1.5-9.24.09-.77.17-1.59.25-2.43A109.89,109.89,0,0,0,216.06,787.78Z"/><path class="cls-147" d="M216.05,787.78c-.47-3-4-13.65-4.48-12.51-1.14.32-3.79,6.26-5.56,13.87a74.26,74.26,0,0,0-1.32,7.32,131,131,0,0,0-1,14,85.05,85.05,0,0,0,1.41,17.66c0-.32,1.58.13,3.86.31A8.74,8.74,0,0,0,215,827c.06-.41.86-3.81,1.48-9.16.08-.76.17-1.57.25-2.4A109.24,109.24,0,0,0,216.05,787.78Z"/><path class="cls-148" d="M216.05,787.78c-.48-3-4-13.4-4.43-12.21-1.13.34-3.74,6.21-5.48,13.72-.53,2.3-1,4.74-1.3,7.23a133.28,133.28,0,0,0-1,13.85,83.31,83.31,0,0,0,1.37,17.45c.06-.32,1.63-.23,3.83.29a7.36,7.36,0,0,0,6-1.51c.07-.43.85-3.8,1.46-9.08.09-.76.18-1.55.26-2.38A109,109,0,0,0,216.05,787.78Z"/><path class="cls-149" d="M216,787.79c-.48-3-3.9-13.17-4.38-11.92-1.11.36-3.67,6.16-5.38,13.56-.53,2.27-1,4.69-1.29,7.15a130.4,130.4,0,0,0-1,13.68,82.16,82.16,0,0,0,1.33,17.24c.07-.31,1.62-.24,3.81.29a7.14,7.14,0,0,0,5.88-1.55c.07-.45.85-3.78,1.45-9,.09-.76.17-1.54.25-2.36A108.65,108.65,0,0,0,216,787.79Z"/><path class="cls-150" d="M216,787.79c-.47-3-3.84-12.92-4.32-11.63-1.09.4-3.62,6.11-5.3,13.41-.51,2.25-.95,4.64-1.27,7.07a130.25,130.25,0,0,0-1,13.51,81.27,81.27,0,0,0,1.29,17c.07-.31,1.61-.25,3.78.28a6.94,6.94,0,0,0,5.78-1.6c.08-.45.84-3.76,1.44-8.9.09-.75.17-1.53.25-2.34A107.46,107.46,0,0,0,216,787.79Z"/><path class="cls-151" d="M216,787.79c-.48-3-3.79-12.68-4.28-11.33-1.07.42-3.55,6.06-5.2,13.25-.51,2.23-.94,4.59-1.25,7a130.43,130.43,0,0,0-1,13.36,80.24,80.24,0,0,0,1.25,16.83c.08-.31,1.6-.27,3.76.26a6.71,6.71,0,0,0,5.68-1.63c.08-.47.83-3.74,1.42-8.82.08-.74.17-1.51.24-2.31A106.25,106.25,0,0,0,216,787.79Z"/><path class="cls-152" d="M216,787.79c-.48-3-3.73-12.43-4.22-11-1.06.44-3.5,6-5.12,13.1-.5,2.19-.92,4.52-1.23,6.89a130.36,130.36,0,0,0-1,13.19,78.47,78.47,0,0,0,1.21,16.62c.08-.29,1.59-.28,3.73.26a6.56,6.56,0,0,0,5.58-1.67c.08-.49.82-3.73,1.4-8.73.09-.74.17-1.5.25-2.3A105.53,105.53,0,0,0,216,787.79Z"/><path class="cls-153" d="M216,787.79c-.47-3-3.67-12.19-4.17-10.74-1,.47-3.43,6-5,13-.5,2.17-.92,4.47-1.22,6.81a130.1,130.1,0,0,0-1,13,77.57,77.57,0,0,0,1.17,16.42c.09-.29,1.58-.3,3.71.25a6.36,6.36,0,0,0,5.47-1.71c.09-.51.82-3.71,1.39-8.65.09-.73.17-1.48.24-2.27A104.37,104.37,0,0,0,216,787.79Z"/><path class="cls-154" d="M216,787.8c-.47-3-3.61-11.95-4.11-10.45-1,.49-3.38,5.91-4.94,12.79-.49,2.14-.9,4.42-1.2,6.73-.48,4-.86,8.23-1,12.86a75.93,75.93,0,0,0,1.13,16.21c.09-.29,1.57-.32,3.68.23a6.13,6.13,0,0,0,5.37-1.74c.09-.53.81-3.7,1.38-8.57q.12-1.08.24-2.25A103.58,103.58,0,0,0,216,787.8Z"/><path class="cls-155" d="M216,787.8c-.47-3-3.56-11.71-4.06-10.16-1,.52-3.32,5.87-4.86,12.65-.48,2.11-.88,4.36-1.17,6.63-.48,4-.86,8.14-1,12.7a75.52,75.52,0,0,0,1.09,16c.1-.28,1.56-.33,3.66.23a6,6,0,0,0,5.27-1.79c.09-.54.8-3.67,1.36-8.48.08-.71.16-1.45.23-2.22A102.37,102.37,0,0,0,216,787.8Z"/><path class="cls-156" d="M216,787.8c-.47-2.95-3.5-11.46-4-9.86-1,.54-3.26,5.81-4.76,12.49-.47,2.09-.87,4.3-1.16,6.55-.47,3.92-.85,8-.95,12.53a74.05,74.05,0,0,0,1,15.8c.1-.28,1.55-.35,3.63.22A5.82,5.82,0,0,0,215,823.7c.09-.56.8-3.66,1.34-8.39.09-.71.17-1.44.24-2.21A101.67,101.67,0,0,0,216,787.8Z"/><path class="cls-157" d="M216,787.8c-.47-2.95-3.44-11.21-3.95-9.56-1,.57-3.2,5.76-4.68,12.33-.46,2.06-.85,4.25-1.14,6.47-.46,3.87-.83,7.94-.94,12.37a73.12,73.12,0,0,0,1,15.59c.11-.28,1.53-.36,3.61.2,1.42.39,3.42-.25,5.06-1.86.1-.58.79-3.64,1.33-8.31.08-.7.16-1.42.24-2.18A100.56,100.56,0,0,0,216,787.8Z"/><path class="cls-158" d="M216,787.8c-.46-2.94-3.39-11-3.9-9.27-1,.6-3.13,5.72-4.58,12.18-.46,2-.84,4.2-1.13,6.39-.45,3.82-.82,7.84-.93,12.2a71.46,71.46,0,0,0,1,15.38c.12-.26,1.52-.37,3.58.2,1.39.39,3.35-.28,5-1.9.1-.6.79-3.62,1.32-8.23.08-.69.16-1.41.23-2.15A99.4,99.4,0,0,0,216,787.8Z"/><path class="cls-159" d="M216,787.81c-.47-2.95-3.34-10.73-3.85-9-1,.62-3.08,5.67-4.5,12-.45,2-.83,4.14-1.1,6.3-.46,3.77-.82,7.73-.93,12a70.61,70.61,0,0,0,.93,15.18c.12-.26,1.51-.39,3.56.19,1.35.38,3.28-.31,4.86-1.94.1-.61.77-3.61,1.3-8.14.08-.69.15-1.4.23-2.14A99.06,99.06,0,0,0,216,787.81Z"/><path class="cls-160" d="M216,787.81c-.46-2.94-3.28-10.49-3.8-8.68-.93.64-3,5.61-4.4,11.87-.45,2-.82,4.08-1.09,6.21-.45,3.73-.8,7.64-.92,11.88a69.76,69.76,0,0,0,.89,15c.13-.26,1.5-.41,3.53.17,1.32.38,3.21-.33,4.76-2,.1-.62.77-3.58,1.29-8,.07-.68.15-1.38.22-2.11A97.43,97.43,0,0,0,216,787.81Z"/><path class="cls-161" d="M216,787.81c-.46-2.93-3.22-10.24-3.74-8.39-.92.67-3,5.57-4.32,11.72-.43,2-.8,4-1.07,6.13-.44,3.68-.79,7.54-.91,11.71a68.21,68.21,0,0,0,.85,14.76c.13-.25,1.49-.42,3.51.17,1.28.37,3.13-.36,4.65-2,.11-.64.76-3.57,1.27-8,.08-.67.16-1.36.23-2.09A96.72,96.72,0,0,0,216,787.81Z"/><path class="cls-162" d="M215.94,787.81c-.46-2.93-3.16-10-3.69-8.09-.9.69-2.89,5.52-4.23,11.57-.42,1.93-.78,4-1.05,6-.43,3.63-.78,7.44-.9,11.54a67.41,67.41,0,0,0,.81,14.56c.14-.25,1.48-.44,3.48.16,1.25.37,3.06-.39,4.55-2.06.12-.66.76-3.55,1.26-7.88.08-.67.15-1.36.22-2.07A95.1,95.1,0,0,0,215.94,787.81Z"/><path class="cls-163" d="M215.94,787.82c-.46-2.93-3.11-9.76-3.64-7.8-.88.72-2.84,5.46-4.14,11.41-.42,1.9-.77,3.92-1,6-.43,3.58-.78,7.34-.9,11.38a66,66,0,0,0,.77,14.35c.14-.25,1.47-.46,3.46.14,1.21.37,3-.41,4.45-2.09.11-.68.74-3.54,1.24-7.8.08-.66.15-1.34.22-2A94.75,94.75,0,0,0,215.94,787.82Z"/><path class="cls-164" d="M215.93,787.82c-.46-2.93-3.05-9.52-3.59-7.51-.86.75-2.77,5.42-4.05,11.26-.41,1.88-.75,3.86-1,5.87-.43,3.54-.76,7.25-.89,11.22a65.72,65.72,0,0,0,.73,14.14c.15-.23,1.46-.46,3.43.14,1.18.36,2.92-.44,4.35-2.13.12-.7.74-3.52,1.23-7.72.07-.65.15-1.32.22-2A93.65,93.65,0,0,0,215.93,787.82Z"/><path class="cls-165" d="M215.92,787.82c-.45-2.92-3-9.27-3.53-7.21-.85.77-2.72,5.37-4,11.1-.41,1.85-.74,3.81-1,5.79-.42,3.49-.75,7.14-.88,11a64.35,64.35,0,0,0,.69,13.94c.15-.23,1.45-.48,3.41.13,1.14.35,2.84-.46,4.24-2.18.12-.71.73-3.5,1.21-7.63.08-.64.15-1.3.22-2A92.43,92.43,0,0,0,215.92,787.82Z"/><path class="cls-166" d="M215.92,787.82c-.46-2.91-2.94-9-3.49-6.92-.83.8-2.65,5.32-3.87,11-.39,1.82-.73,3.75-1,5.7-.41,3.44-.74,7-.87,10.89a63.62,63.62,0,0,0,.65,13.73c.16-.23,1.43-.5,3.38.11,1.12.35,2.77-.48,4.15-2.21.12-.73.72-3.48,1.19-7.54.08-.64.15-1.3.22-2A92.26,92.26,0,0,0,215.92,787.82Z"/><path class="cls-166" d="M215.91,787.82c-.46-2.91-2.89-8.78-3.43-6.62-.82.82-2.59,5.27-3.79,10.8-.38,1.8-.71,3.7-.95,5.62-.41,3.39-.74,6.94-.87,10.72a62.2,62.2,0,0,0,.61,13.52c.16-.22,1.42-.51,3.36.11,1.08.34,2.7-.51,4-2.25.12-.75.71-3.47,1.18-7.46.07-.63.14-1.28.21-2A91,91,0,0,0,215.91,787.82Z"/><path class="cls-167" d="M215.9,787.83c-.45-2.91-2.83-8.54-3.37-6.33-.81.84-2.54,5.22-3.7,10.64-.38,1.77-.7,3.64-.94,5.53-.4,3.35-.72,6.85-.86,10.57a61.47,61.47,0,0,0,.57,13.31c.17-.22,1.41-.53,3.33.1,1,.34,2.63-.54,3.94-2.29.13-.76.71-3.45,1.17-7.38.07-.62.14-1.26.21-1.93A89.38,89.38,0,0,0,215.9,787.83Z"/><path class="cls-168" d="M215.89,787.83c-.45-2.91-2.77-8.3-3.32-6-.79.88-2.47,5.18-3.61,10.5-.37,1.74-.68,3.58-.92,5.44-.4,3.3-.71,6.75-.85,10.4a60.84,60.84,0,0,0,.53,13.11c.18-.22,1.4-.55,3.31.08,1,.34,2.55-.56,3.83-2.32.13-.78.7-3.44,1.15-7.29q.12-.93.21-1.92A88.17,88.17,0,0,0,215.89,787.83Z"/><path class="cls-169" d="M215.89,787.83c-.45-2.9-2.72-8.05-3.27-5.74-.77.9-2.42,5.12-3.52,10.34-.37,1.72-.67,3.53-.91,5.36-.39,3.25-.7,6.64-.84,10.23a59.5,59.5,0,0,0,.49,12.9c.18-.2,1.39-.56,3.28.08,1,.33,2.48-.59,3.74-2.37.13-.79.69-3.41,1.13-7.2q.1-.91.21-1.89A88,88,0,0,0,215.89,787.83Z"/><path class="cls-170" d="M215.88,787.83c-.45-2.89-2.66-7.81-3.22-5.44-.75.92-2.35,5.07-3.43,10.18-.35,1.69-.65,3.48-.89,5.28-.38,3.2-.69,6.54-.83,10.07-.2,4.87-.2,9.46.45,12.69.19-.2,1.31.46,3.26.07,1,.15,2.4-.62,3.63-2.41.14-.81.68-3.4,1.12-7.12.07-.6.14-1.22.2-1.86A86.87,86.87,0,0,0,215.88,787.83Z"/><path class="cls-171" d="M215.87,787.83c-.44-2.89-2.6-7.56-3.16-5.15-.74,1-2.3,5-3.34,10-.35,1.67-.65,3.42-.87,5.19-.38,3.16-.68,6.45-.83,9.91-.21,4.84-.22,9.36.41,12.49.19-.2,1.3.46,3.24.05.94.15,2.33-.64,3.52-2.44.14-.83.68-3.38,1.11-7,.07-.59.14-1.2.2-1.84A85.7,85.7,0,0,0,215.87,787.83Z"/><path class="cls-172" d="M215.86,787.84c-.44-2.89-2.54-7.33-3.11-4.86-.72,1-2.23,5-3.25,9.88-.34,1.64-.63,3.36-.85,5.1-.38,3.11-.67,6.35-.82,9.74-.21,4.8-.24,9.27.37,12.28.2-.19,1.28.47,3.21,0,.91.14,2.26-.67,3.42-2.48.15-.85.67-3.37,1.09-6.95.07-.59.14-1.2.21-1.82A85,85,0,0,0,215.86,787.84Z"/><path class="cls-173" d="M215.86,787.84c-.45-2.89-2.49-7.08-3.06-4.56-.71,1-2.17,4.92-3.17,9.72-.33,1.61-.61,3.31-.83,5-.37,3.06-.66,6.25-.81,9.58-.22,4.76-.25,9.17.33,12.07.2-.19,1.27.48,3.19,0,.88.13,2.18-.7,3.32-2.52.14-.87.66-3.35,1.07-6.87.07-.58.14-1.18.2-1.8A83.78,83.78,0,0,0,215.86,787.84Z"/><path class="cls-174" d="M215.85,787.84c-.44-2.88-2.44-6.83-3-4.27-.69,1-2.11,4.88-3.07,9.57-.33,1.59-.6,3.25-.82,4.94-.36,3-.65,6.15-.8,9.41-.23,4.73-.27,9.08.29,11.87.21-.19,1.26.48,3.16,0,.85.13,2.11-.72,3.22-2.56.15-.88.65-3.33,1.06-6.78.07-.57.13-1.16.2-1.77A83.19,83.19,0,0,0,215.85,787.84Z"/><path class="cls-175" d="M215.84,787.84c-.44-2.88-2.38-6.59-3-4a37.44,37.44,0,0,0-3,9.42c-.31,1.55-.58,3.19-.79,4.84-.36,3-.65,6-.8,9.25-.23,4.69-.29,9,.25,11.66.21-.17,1.25.49,3.14,0,.81.12,2-.75,3.11-2.6.15-.9.65-3.31,1.05-6.69.07-.57.13-1.15.19-1.76A81.5,81.5,0,0,0,215.84,787.84Z"/><path class="cls-176" d="M215.83,787.84c-.43-2.87-1.88-6.21-2.9-3.68a51,51,0,0,0-2.89,9.27c-.31,1.53-.57,3.14-.78,4.76-.35,2.92-.63,5.95-.79,9.09-.24,4.65-.31,8.89.21,11.45.22-.17,1.24.5,3.11,0,.78.12,2-.77,3-2.64.16-.91.64-3.29,1-6.61.06-.56.13-1.14.19-1.73A80.91,80.91,0,0,0,215.83,787.84Z"/><path class="cls-177" d="M215.83,787.85c-.44-2.87-1.85-6-2.85-3.39a52.83,52.83,0,0,0-2.81,9.11c-.3,1.51-.55,3.09-.76,4.68-.35,2.87-.62,5.85-.78,8.92-.24,4.62-.33,8.79.17,11.25.22-.17,1.23.5,3.09,0,.74.12,1.89-.79,2.91-2.67.15-.93.63-3.28,1-6.53.07-.55.13-1.12.19-1.71A80.09,80.09,0,0,0,215.83,787.85Z"/><path class="cls-178" d="M215.82,787.85c-.43-2.87-1.81-5.74-2.8-3.09a54.17,54.17,0,0,0-2.71,9c-.3,1.48-.55,3-.75,4.6-.34,2.83-.61,5.75-.77,8.75-.25,4.59-.34,8.7.13,11,.23-.16,1.22.51,3.06,0,.71.11,1.82-.82,2.81-2.71.16-1,.62-3.26,1-6.45.07-.54.13-1.1.19-1.68A78.53,78.53,0,0,0,215.82,787.85Z"/><path class="cls-179" d="M215.81,787.85c-.43-2.86-1.76-5.51-2.74-2.8a55.47,55.47,0,0,0-2.63,8.81c-.29,1.45-.53,3-.72,4.51-.34,2.78-.61,5.65-.77,8.59-.26,4.54-.36,8.6.09,10.83.24-.16,1.21.52,3,0,.67.1,1.75-.85,2.7-2.76.16-1,.62-3.24,1-6.35.06-.54.13-1.09.18-1.67A77.34,77.34,0,0,0,215.81,787.85Z"/><path class="cls-180" d="M215.81,787.85c-.44-2.86-1.73-5.27-2.7-2.5a58,58,0,0,0-2.54,8.65c-.27,1.43-.51,2.92-.7,4.42-.33,2.74-.6,5.55-.76,8.43-.26,4.51-.38,8.51,0,10.63.24-.16,1.19.52,3,0,.64.1,1.68-.87,2.61-2.79.16-1,.6-3.22,1-6.27.06-.53.12-1.08.18-1.64A77.22,77.22,0,0,0,215.81,787.85Z"/><path class="cls-181" d="M215.8,787.86c-.43-2.86-1.69-5-2.64-2.21a59.92,59.92,0,0,0-2.45,8.49c-.27,1.4-.5,2.87-.69,4.34-.32,2.69-.59,5.45-.75,8.26-.27,4.48-.4,8.42,0,10.42.25-.14,1.18.53,3,0,.61.09,1.6-.9,2.5-2.83.17-1,.6-3.21.95-6.19.07-.52.13-1.06.19-1.62A76.49,76.49,0,0,0,215.8,787.86Z"/><path class="cls-182" d="M215.79,787.86c-.43-2.85-1.65-4.8-2.58-1.92a60.72,60.72,0,0,0-2.37,8.35c-.26,1.37-.48,2.8-.67,4.25-.32,2.64-.57,5.35-.74,8.1-.28,4.43-.41,8.32,0,10.21.25-.14,1.17.54,3-.05.58.08,1.53-.93,2.4-2.87.17-1,.59-3.19.94-6.1.06-.52.12-1.05.18-1.6A74.89,74.89,0,0,0,215.79,787.86Z"/><path class="cls-183" d="M215.78,787.86c-.42-2.85-1.61-4.56-2.53-1.62a62.45,62.45,0,0,0-2.27,8.19c-.26,1.35-.47,2.75-.65,4.17-.32,2.59-.57,5.25-.74,7.93-.29,4.4-.43,8.22-.07,10,.26-.14,1.16.54,2.94-.07.54.09,1.45-1,2.29-2.9.18-1,.59-3.18.93-6,.06-.51.12-1,.18-1.57A74.32,74.32,0,0,0,215.78,787.86Z"/><path class="cls-184" d="M215.78,787.86c-.43-2.84-1.58-4.32-2.48-1.33a65.28,65.28,0,0,0-2.19,8c-.25,1.32-.45,2.7-.63,4.08-.31,2.55-.56,5.16-.73,7.78-.29,4.36-.45,8.12-.11,9.79.26-.13,1.15.55,2.91-.07.51.08,1.39-1,2.2-2.95.17-1.05.57-3.15.91-5.93.06-.5.12-1,.17-1.55A73.13,73.13,0,0,0,215.78,787.86Z"/><path class="cls-185" d="M215.77,787.86c-.42-2.84-1.54-4.08-2.43-1a68.35,68.35,0,0,0-2.09,7.89c-.24,1.29-.45,2.64-.62,4-.3,2.5-.55,5.06-.72,7.61-.3,4.32-.47,8-.16,9.59.28-.13,1.15.56,2.9-.08.47.07,1.31-1,2.09-3,.18-1.06.57-3.14.89-5.84l.18-1.53A72.07,72.07,0,0,0,215.77,787.86Z"/><path class="cls-186" d="M215.76,787.87c-.42-2.84-1.5-3.86-2.37-.74a70.32,70.32,0,0,0-2,7.73c-.23,1.26-.43,2.58-.6,3.91-.29,2.45-.54,5-.71,7.44-.31,4.29-.49,7.94-.2,9.39.28-.13,1.14.56,2.87-.1.44.07,1.24-1,2-3,.18-1.08.56-3.12.88-5.76.06-.49.12-1,.17-1.51A70.83,70.83,0,0,0,215.76,787.87Z"/><path class="cls-187" d="M215.75,787.87c-.41-2.83-1.46-3.62-2.32-.45a76.93,76.93,0,0,0-1.92,7.58c-.22,1.24-.41,2.53-.57,3.83-.3,2.4-.54,4.85-.72,7.28-.31,4.25-.49,7.84-.23,9.17.29-.12,1.13.57,2.85-.1.4.06,1.16-1.06,1.88-3.06.19-1.1.56-3.11.87-5.68.06-.48.11-1,.17-1.48A70.28,70.28,0,0,0,215.75,787.87Z"/><path class="cls-188" d="M215.75,787.87c-.42-2.83-1.43-3.38-2.27-.15-.37,1.41-1.26,4.19-1.83,7.42-.22,1.22-.4,2.48-.56,3.74-.29,2.36-.53,4.76-.71,7.12-.31,4.21-.51,7.74-.27,9a4.46,4.46,0,0,0,2.82-.11c.37,0,1.1-1.08,1.79-3.1.18-1.12.54-3.09.85-5.6.05-.47.11-1,.16-1.46A69.11,69.11,0,0,0,215.75,787.87Z"/><path class="cls-189" d="M215.74,787.87c-.42-2.82-1.39-3.14-2.22.15-.36,1.43-1.19,4.14-1.74,7.27-.2,1.18-.38,2.42-.54,3.65-.28,2.31-.52,4.66-.7,6.95a55.46,55.46,0,0,0-.31,8.77,4.32,4.32,0,0,0,2.8-.13c.34.05,1-1.1,1.68-3.14.19-1.13.54-3.07.83-5.5.06-.47.12-.95.17-1.44A68.06,68.06,0,0,0,215.74,787.87Z"/><path class="cls-190" d="M215.73,787.87c-.41-2.82-1.35-2.9-2.16.44-.35,1.45-1.14,4.09-1.65,7.12-.2,1.16-.37,2.36-.53,3.57-.27,2.26-.51,4.56-.69,6.79a56.27,56.27,0,0,0-.35,8.55,4.1,4.1,0,0,0,2.77-.13c.31,0,.95-1.13,1.58-3.18.2-1.15.53-3,.82-5.42.06-.46.11-.93.17-1.42A66.93,66.93,0,0,0,215.73,787.87Z"/><path class="cls-191" d="M215.73,787.88c-.41-2.82-1.32-2.67-2.12.73-.34,1.47-1.07,4-1.56,7-.19,1.14-.36,2.31-.5,3.49-.27,2.21-.5,4.45-.69,6.62a57.83,57.83,0,0,0-.39,8.35,3.94,3.94,0,0,0,2.75-.14c.27,0,.87-1.16,1.47-3.22.2-1.17.53-3,.81-5.34.06-.45.11-.92.16-1.39A65.79,65.79,0,0,0,215.73,787.88Z"/><path class="cls-192" d="M215.72,787.88c-.41-2.82-1.28-2.42-2.06,1-.34,1.49-1,4-1.47,6.81-.19,1.1-.35,2.25-.49,3.39-.27,2.17-.49,4.36-.68,6.46a61.88,61.88,0,0,0-.43,8.15c.32-.1,1.07.6,2.72-.16.24,0,.81-1.18,1.38-3.25.2-1.19.51-3,.79-5.25.05-.45.11-.91.16-1.38A65.18,65.18,0,0,0,215.72,787.88Z"/><path class="cls-193" d="M215.71,787.88c-.4-2.81-1.24-2.18-2,1.32-.32,1.52-.94,3.95-1.38,6.66-.17,1.08-.33,2.2-.47,3.31-.26,2.12-.48,4.26-.67,6.3a65.21,65.21,0,0,0-.47,7.93,3.63,3.63,0,0,0,2.7-.16c.2,0,.73-1.21,1.27-3.29.2-1.21.51-3,.78-5.17l.15-1.35A64.14,64.14,0,0,0,215.71,787.88Z"/><path class="cls-194" d="M215.7,787.88c-.4-2.8-1.21-1.94-1.95,1.62-.32,1.54-.89,3.89-1.3,6.5-.16,1.06-.31,2.14-.45,3.23-.25,2.07-.47,4.16-.66,6.13a70.38,70.38,0,0,0-.51,7.73,3.48,3.48,0,0,0,2.67-.17c.17,0,.66-1.24,1.17-3.34.21-1.22.5-3,.76-5.08.06-.43.11-.87.16-1.33A63.53,63.53,0,0,0,215.7,787.88Z"/><path class="cls-195" d="M215.7,787.88c-.4-2.8-1.18-1.7-1.9,1.91-.32,1.57-.83,3.85-1.21,6.35-.16,1-.3,2.09-.43,3.15-.25,2-.47,4.06-.66,6-.38,4-.64,7.08-.55,7.53a3.33,3.33,0,0,0,2.65-.19,10.91,10.91,0,0,0,1.06-3.37c.21-1.23.5-3,.75-5,.05-.42.1-.86.15-1.3A62,62,0,0,0,215.7,787.88Z"/><path class="cls-196" d="M215.69,787.89c-.4-2.8-1.14-1.47-1.85,2.2-.31,1.59-.76,3.8-1.12,6.2-.15,1-.28,2-.41,3.05-.24,2-.46,4-.65,5.81-.39,3.92-.65,7-.59,7.32a3.24,3.24,0,0,0,2.62-.2,14.13,14.13,0,0,0,1-3.41c.21-1.25.48-3,.73-4.91l.15-1.28A61.42,61.42,0,0,0,215.69,787.89Z"/><path class="cls-197" d="M215.68,787.89c-.4-2.8-1.1-1.23-1.79,2.5-.3,1.61-.7,3.75-1,6-.14,1-.27,2-.4,3-.24,1.93-.45,3.86-.64,5.64-.4,3.88-.67,6.89-.63,7.11a3.11,3.11,0,0,0,2.6-.2,18.81,18.81,0,0,0,.86-3.45c.21-1.27.48-2.93.72-4.83l.15-1.26A60.83,60.83,0,0,0,215.68,787.89Z"/><path class="cls-198" d="M215.67,787.89c-.39-2.79-1.06-1-1.74,2.79-.29,1.64-.63,3.7-.94,5.89-.13.95-.26,1.92-.38,2.89-.23,1.88-.45,3.76-.63,5.47-.42,3.85-.69,6.8-.67,6.91a3,3,0,0,0,2.57-.22,28.65,28.65,0,0,0,.76-3.48c.22-1.29.47-2.92.7-4.75l.15-1.23A59.83,59.83,0,0,0,215.67,787.89Z"/><path class="cls-199" d="M214,811.3s.75-3.51,1.34-8.18a62.11,62.11,0,0,0,.35-15.23c-.57-4-1.63,1.92-2.54,8.83s-1.7,14.81-1.7,14.81A2.9,2.9,0,0,0,214,811.3Z"/></g><g id="Pink_Detail" data-name="Pink Detail"><ellipse class="cls-200" cx="210.77" cy="819.61" rx="0.58" ry="0.71"/><ellipse class="cls-200" cx="215.41" cy="823.96" rx="0.58" ry="0.52"/><ellipse class="cls-200" cx="210.49" cy="825.34" rx="0.58" ry="0.52"/><ellipse class="cls-200" cx="211.47" cy="798.51" rx="0.58" ry="0.52"/><ellipse class="cls-200" cx="214.95" cy="799.21" rx="0.58" ry="0.52"/><ellipse class="cls-200" cx="215.76" cy="798.04" rx="0.39" ry="0.32"/><ellipse class="cls-200" cx="214.83" cy="800.99" rx="0.39" ry="0.32"/><ellipse class="cls-200" cx="214.02" cy="803.05" rx="0.58" ry="0.52"/><ellipse class="cls-200" cx="207.63" cy="809.11" rx="0.58" ry="0.52"/><ellipse class="cls-200" cx="204.74" cy="802" rx="0.58" ry="0.52"/><ellipse class="cls-200" cx="205.2" cy="803.91" rx="0.58" ry="0.52"/><ellipse class="cls-200" cx="206.94" cy="801.91" rx="0.58" ry="0.52"/><ellipse class="cls-200" cx="208.39" cy="804.46" rx="0.39" ry="0.32"/><ellipse class="cls-200" cx="202.17" cy="810.66" rx="0.58" ry="0.52"/><ellipse class="cls-200" cx="203.35" cy="817.49" rx="0.58" ry="0.52"/><ellipse class="cls-200" cx="208.45" cy="806.54" rx="0.58" ry="0.52"/><ellipse class="cls-200" cx="212.63" cy="817.22" rx="0.58" ry="0.52"/><ellipse class="cls-200" cx="203.35" cy="794.13" rx="0.58" ry="0.52"/><ellipse class="cls-200" cx="207.99" cy="786.68" rx="0.58" ry="0.52"/><ellipse class="cls-200" cx="208.39" cy="800.66" rx="0.39" ry="0.32"/><ellipse class="cls-200" cx="205.28" cy="798.12" rx="0.39" ry="0.32"/><ellipse class="cls-200" cx="202.17" cy="802.2" rx="0.39" ry="0.32"/><ellipse class="cls-200" cx="202.17" cy="794.07" rx="0.39" ry="0.32"/><ellipse class="cls-200" cx="201.03" cy="791.6" rx="0.58" ry="0.52"/><ellipse class="cls-200" cx="206.26" cy="790.01" rx="0.58" ry="0.52"/><ellipse class="cls-200" cx="212.34" cy="802.77" rx="0.39" ry="0.32"/><ellipse class="cls-200" cx="214.48" cy="809.52" rx="0.58" ry="0.52"/><ellipse class="cls-200" cx="214.52" cy="796.77" rx="0.39" ry="0.32"/><ellipse class="cls-200" cx="208.7" cy="787.73" rx="0.39" ry="0.32"/><ellipse class="cls-200" cx="210.87" cy="782.66" rx="0.39" ry="0.32"/><ellipse class="cls-200" cx="203.42" cy="790.27" rx="0.39" ry="0.32"/><ellipse class="cls-200" cx="212.11" cy="795.08" rx="0.39" ry="0.32"/><ellipse class="cls-200" cx="215.84" cy="790.01" rx="0.39" ry="0.32"/><ellipse class="cls-200" cx="203.11" cy="781.39" rx="0.39" ry="0.32"/><ellipse class="cls-200" cx="207.77" cy="773.28" rx="0.39" ry="0.32"/></g></svg>