<svg xmlns="http://www.w3.org/2000/svg" viewBox="0 0 432 846"><defs><style>.cls-1{fill:#82c341;}.cls-2{fill:#83c441;}.cls-3{fill:#84c442;}.cls-4{fill:#85c442;}.cls-5{fill:#86c542;}.cls-6{fill:#87c542;}.cls-7{fill:#88c543;}.cls-8{fill:#89c643;}.cls-9{fill:#8ac643;}.cls-10{fill:#8bc644;}.cls-11{fill:#8cc644;}.cls-12{fill:#8dc745;}.cls-13{fill:#8ec745;}.cls-14{fill:#8fc745;}.cls-15{fill:#90c846;}.cls-16{fill:#91c846;}.cls-17{fill:#92c847;}.cls-18{fill:#93c947;}.cls-19{fill:#94c948;}.cls-20{fill:#95c948;}.cls-21{fill:#96ca49;}.cls-22{fill:#97ca49;}.cls-23{fill:#98ca4a;}.cls-24{fill:#99cb4b;}.cls-25{fill:#9acb4b;}.cls-26{fill:#9bcb4c;}.cls-27{fill:#9ccc4d;}.cls-28{fill:#9dcc4d;}.cls-29{fill:#9ecc4e;}.cls-30{fill:#9fcd4e;}.cls-31{fill:#a0cd4f;}.cls-32{fill:#a1cd4f;}.cls-33{fill:#a2ce50;}.cls-34{fill:#a3ce50;}.cls-35{fill:#a4ce51;}.cls-36{fill:#a5cf51;}.cls-37{fill:#a6cf52;}.cls-38{fill:#a6d053;}.cls-39{fill:#a7d053;}.cls-40{fill:#a8d054;}.cls-41{fill:#a9d154;}.cls-42{fill:#aad155;}.cls-43{fill:#abd156;}.cls-44{fill:#acd256;}.cls-45{fill:#add257;}.cls-46{fill:#aed257;}.cls-47{fill:#afd358;}.cls-48{fill:#b0d359;}.cls-49{fill:#b1d359;}.cls-50{fill:#b2d45a;}.cls-51{fill:#b3d45b;}.cls-52{fill:#b4d45b;}.cls-53{fill:#b4d55c;}.cls-54{fill:#b5d55d;}.cls-55{fill:#b6d55d;}.cls-56{fill:#b7d65e;}.cls-57{fill:#b8d65f;}.cls-58{fill:#b9d75f;}.cls-59{fill:#bad760;}.cls-60{fill:#bbd761;}.cls-61{fill:#bcd861;}.cls-62{fill:#bdd862;}.cls-63{fill:#bed863;}.cls-64{fill:#bed963;}.cls-65{fill:#bfd964;}.cls-66{fill:#c0da65;}.cls-67{fill:#c1da65;}.cls-68{fill:#c2da66;}.cls-69{fill:#c3db67;}.cls-70{fill:#c4db68;}.cls-71{fill:#c5db68;}.cls-72{fill:#c6dc69;}.cls-73{fill:#c7dc6a;}.cls-74{fill:#c8dd6b;}.cls-75{fill:#c9dd6c;}.cls-76{fill:#cade6c;}.cls-77{fill:#cbde6d;}.cls-78{fill:#ccde6e;}.cls-79{fill:#cddf6e;}.cls-80{fill:#cedf6f;}.cls-81{fill:#cfe070;}.cls-82{fill:#d0e071;}.cls-83{fill:#d1e071;}.cls-84{fill:#d2e172;}.cls-85{fill:#d2e173;}.cls-86{fill:#d3e173;}.cls-87{fill:#fffbdd;opacity:0.57;}</style></defs><g id="Green_Leaf" data-name="Green Leaf"><path class="cls-1" d="M210.08,815.34a1.53,1.53,0,0,0-1.92,0,28.54,28.54,0,0,0-7.67,18.9l0,1.9a41.2,41.2,0,0,0,16.8,0v-1.9A28.2,28.2,0,0,0,210.08,815.34Z"/><path class="cls-2" d="M210.08,815.34a1.53,1.53,0,0,0-1.92,0,28.4,28.4,0,0,0-7.63,18.79,19.45,19.45,0,0,0,0,2,40.89,40.89,0,0,0,16.65,0,19.59,19.59,0,0,0,0-2A28.07,28.07,0,0,0,210.08,815.34Z"/><path class="cls-3" d="M210.07,815.34a1.51,1.51,0,0,0-1.9,0,28.21,28.21,0,0,0-7.6,18.68,12.94,12.94,0,0,0,0,2,40.64,40.64,0,0,0,16.51,0,13.06,13.06,0,0,0,0-2A27.89,27.89,0,0,0,210.07,815.34Z"/><path class="cls-4" d="M210.06,815.34a1.49,1.49,0,0,0-1.89,0,28,28,0,0,0-7.56,18.57,9,9,0,0,0,.06,2.11A40.07,40.07,0,0,0,217,836a9.05,9.05,0,0,0,.08-2.11A27.7,27.7,0,0,0,210.06,815.34Z"/><path class="cls-5" d="M210.06,815.33a1.5,1.5,0,0,0-1.88,0,27.86,27.86,0,0,0-7.53,18.47c0,2.1.09,2.18.09,2.18a39.76,39.76,0,0,0,16.2,0,8,8,0,0,0,.1-2.18A27.66,27.66,0,0,0,210.06,815.33Z"/><path class="cls-6" d="M210.05,815.33a1.49,1.49,0,0,0-1.87,0,27.74,27.74,0,0,0-7.5,18.36c0,2.15.13,2.24.13,2.24a39.23,39.23,0,0,0,16.05,0,7.14,7.14,0,0,0,.12-2.24A27.45,27.45,0,0,0,210.05,815.33Z"/><path class="cls-7" d="M210,815.33a1.48,1.48,0,0,0-1.86,0,27.61,27.61,0,0,0-7.46,18.25c0,2.2.15,2.31.15,2.31a38.76,38.76,0,0,0,15.91,0s.15-.11.15-2.31A27.26,27.26,0,0,0,210,815.33Z"/><path class="cls-8" d="M210,815.33a1.46,1.46,0,0,0-1.85,0,27.34,27.34,0,0,0-7.43,18.14c0,2.25.18,2.38.18,2.38a38.41,38.41,0,0,0,15.75,0s.18-.13.18-2.38A27.16,27.16,0,0,0,210,815.33Z"/><path class="cls-9" d="M210,815.33a1.45,1.45,0,0,0-1.84,0,27.17,27.17,0,0,0-7.39,18c0,2.3.21,2.45.21,2.45a37.89,37.89,0,0,0,15.6,0s.2-.15.2-2.45A27,27,0,0,0,210,815.33Z"/><path class="cls-10" d="M210,815.32a1.45,1.45,0,0,0-1.82,0,27.07,27.07,0,0,0-7.36,17.93c0,2.35.24,2.52.24,2.52a37.58,37.58,0,0,0,15.45,0s.22-.17.22-2.52A26.84,26.84,0,0,0,210,815.32Z"/><path class="cls-11" d="M210,815.32a1.45,1.45,0,0,0-1.82,0,26.88,26.88,0,0,0-7.32,17.82c0,2.4.26,2.59.26,2.59a37.32,37.32,0,0,0,15.31,0s.25-.19.25-2.59A26.71,26.71,0,0,0,210,815.32Z"/><path class="cls-12" d="M210,815.32a1.42,1.42,0,0,0-1.8,0A26.64,26.64,0,0,0,200.92,833c0,2.45.29,2.66.29,2.66a36.77,36.77,0,0,0,15.15,0s.28-.21.28-2.66A26.53,26.53,0,0,0,210,815.32Z"/><path class="cls-13" d="M210,815.32a1.4,1.4,0,0,0-1.79,0,26.54,26.54,0,0,0-7.26,17.6c0,2.49.33,2.73.33,2.73a36.45,36.45,0,0,0,15,0s.3-.24.3-2.73A26.35,26.35,0,0,0,210,815.32Z"/><path class="cls-14" d="M210,815.32a1.4,1.4,0,0,0-1.79,0A26.4,26.4,0,0,0,201,832.81c0,2.54.36,2.8.36,2.8a36.14,36.14,0,0,0,14.85,0s.32-.26.32-2.8A26.22,26.22,0,0,0,210,815.32Z"/><path class="cls-15" d="M210,815.31a1.43,1.43,0,0,0-1.77,0A26.21,26.21,0,0,0,201,832.69c0,2.6.38,2.88.38,2.88a35.64,35.64,0,0,0,14.7,0s.35-.28.35-2.88A26.08,26.08,0,0,0,210,815.31Z"/><path class="cls-16" d="M210,815.31a1.41,1.41,0,0,0-1.76,0,26,26,0,0,0-7.15,17.27c0,2.65.41,2.95.41,2.95a35.32,35.32,0,0,0,14.55,0s.38-.3.38-2.95A25.84,25.84,0,0,0,210,815.31Z"/><path class="cls-17" d="M210,815.31a1.38,1.38,0,0,0-1.74,0,25.86,25.86,0,0,0-7.12,17.16c0,2.7.44,3,.44,3a35,35,0,0,0,14.4,0s.4-.32.4-3A25.68,25.68,0,0,0,210,815.31Z"/><path class="cls-18" d="M210,815.31a1.38,1.38,0,0,0-1.74,0,25.65,25.65,0,0,0-7.08,17.05c0,2.75.47,3.09.47,3.09a34.48,34.48,0,0,0,14.25,0s.42-.34.42-3.09A25.53,25.53,0,0,0,210,815.31Z"/><path class="cls-19" d="M210,815.31a1.36,1.36,0,0,0-1.72,0,25.48,25.48,0,0,0-7.05,16.94c0,2.8.49,3.16.49,3.16a34.18,34.18,0,0,0,14.1,0s.45-.36.45-3.16A25.37,25.37,0,0,0,210,815.31Z"/><path class="cls-20" d="M210,815.31a1.34,1.34,0,0,0-1.71,0,25.24,25.24,0,0,0-7,16.83c0,2.85.52,3.22.52,3.22a33.66,33.66,0,0,0,13.95,0s.48-.37.48-3.22A25.18,25.18,0,0,0,210,815.31Z"/><path class="cls-21" d="M210,815.3a1.35,1.35,0,0,0-1.7,0,25.06,25.06,0,0,0-7,16.73c0,2.9.56,3.29.56,3.29a33.15,33.15,0,0,0,13.8,0s.5-.39.5-3.29A25.12,25.12,0,0,0,210,815.3Z"/><path class="cls-22" d="M209.94,815.3a1.34,1.34,0,0,0-1.69,0,24.92,24.92,0,0,0-6.95,16.62c0,3,.59,3.36.59,3.36a32.84,32.84,0,0,0,13.65,0s.52-.41.52-3.36A24.93,24.93,0,0,0,209.94,815.3Z"/><path class="cls-23" d="M209.93,815.3a1.33,1.33,0,0,0-1.68,0,24.78,24.78,0,0,0-6.91,16.51c0,3,.62,3.43.62,3.43a32.48,32.48,0,0,0,13.49,0s.55-.43.55-3.43A24.75,24.75,0,0,0,209.93,815.3Z"/><path class="cls-24" d="M209.93,815.3a1.31,1.31,0,0,0-1.67,0,24.54,24.54,0,0,0-6.88,16.4c0,3,.64,3.5.64,3.5a32,32,0,0,0,13.35,0s.57-.45.57-3.5A24.62,24.62,0,0,0,209.93,815.3Z"/><path class="cls-25" d="M209.92,815.3a1.3,1.3,0,0,0-1.66,0,24.35,24.35,0,0,0-6.84,16.29c0,3.1.67,3.57.67,3.57a31.71,31.71,0,0,0,13.2,0s.6-.47.6-3.57A24.43,24.43,0,0,0,209.92,815.3Z"/><path class="cls-26" d="M209.91,815.29a1.3,1.3,0,0,0-1.64,0c-1.89,2-6.75,7.72-6.81,16.19,0,3.15.7,3.64.7,3.64a31.16,31.16,0,0,0,13,0s.63-.49.63-3.64A24.33,24.33,0,0,0,209.91,815.29Z"/><path class="cls-26" d="M209.91,815.29a1.3,1.3,0,0,0-1.64,0c-1.87,2-6.71,7.66-6.77,16.08,0,3.2.73,3.71.73,3.71a30.84,30.84,0,0,0,12.89,0s.65-.51.65-3.71A24.18,24.18,0,0,0,209.91,815.29Z"/><path class="cls-27" d="M209.9,815.29a1.27,1.27,0,0,0-1.62,0c-1.87,2-6.69,7.61-6.74,16,0,3.25.75,3.78.75,3.78A30.57,30.57,0,0,0,215,835s.67-.53.67-3.78A24,24,0,0,0,209.9,815.29Z"/><path class="cls-28" d="M209.89,815.29a1.25,1.25,0,0,0-1.61,0c-1.85,2-6.65,7.56-6.71,15.86,0,3.3.79,3.85.79,3.85a30.06,30.06,0,0,0,12.6,0s.7-.55.7-3.85A23.83,23.83,0,0,0,209.89,815.29Z"/><path class="cls-29" d="M209.89,815.29a1.25,1.25,0,0,0-1.61,0c-1.83,2-6.61,7.5-6.67,15.75,0,3.35.82,3.92.82,3.92a29.7,29.7,0,0,0,12.44,0s.73-.57.73-3.92A23.68,23.68,0,0,0,209.89,815.29Z"/><path class="cls-30" d="M209.88,815.28a1.28,1.28,0,0,0-1.59,0c-1.83,2-6.59,7.46-6.64,15.65,0,3.4.85,4,.85,4a29.38,29.38,0,0,0,12.29,0s.75-.59.75-4A23.58,23.58,0,0,0,209.88,815.28Z"/><path class="cls-31" d="M209.87,815.28a1.26,1.26,0,0,0-1.58,0c-1.81,2-6.55,7.41-6.6,15.54,0,3.45.87,4.06.87,4.06a28.93,28.93,0,0,0,12.15,0s.77-.61.77-4.06A23.32,23.32,0,0,0,209.87,815.28Z"/><path class="cls-32" d="M209.87,815.28a1.25,1.25,0,0,0-1.57,0c-1.8,1.94-6.52,7.35-6.57,15.43,0,3.5.9,4.13.9,4.13a28.61,28.61,0,0,0,12,0s.79-.63.79-4.13A23.22,23.22,0,0,0,209.87,815.28Z"/><path class="cls-33" d="M209.86,815.28a1.23,1.23,0,0,0-1.56,0c-1.78,1.92-6.48,7.3-6.53,15.32,0,3.55.93,4.19.93,4.19a28.07,28.07,0,0,0,11.84,0s.83-.64.83-4.19A23,23,0,0,0,209.86,815.28Z"/><path class="cls-34" d="M209.85,815.28a1.21,1.21,0,0,0-1.54,0c-1.78,1.91-6.46,7.25-6.5,15.21,0,3.6,1,4.26,1,4.26a27.56,27.56,0,0,0,11.69,0s.85-.66.85-4.26A22.85,22.85,0,0,0,209.85,815.28Z"/><path class="cls-35" d="M209.85,815.27a1.23,1.23,0,0,0-1.54,0c-1.76,1.9-6.42,7.2-6.47,15.11,0,3.65,1,4.33,1,4.33a27.3,27.3,0,0,0,11.55,0s.87-.68.87-4.33A22.78,22.78,0,0,0,209.85,815.27Z"/><path class="cls-36" d="M209.84,815.27a1.22,1.22,0,0,0-1.53,0c-1.74,1.89-6.38,7.15-6.43,15,0,3.7,1,4.4,1,4.4a26.94,26.94,0,0,0,11.39,0s.9-.7.9-4.4A22.62,22.62,0,0,0,209.84,815.27Z"/><path class="cls-37" d="M209.83,815.27a1.19,1.19,0,0,0-1.51,0c-1.74,1.87-6.35,7.09-6.4,14.89,0,3.75,1.05,4.47,1.05,4.47a26.43,26.43,0,0,0,11.24,0s.93-.72.93-4.47A22.41,22.41,0,0,0,209.83,815.27Z"/><path class="cls-38" d="M209.83,815.27a1.19,1.19,0,0,0-1.51,0c-1.72,1.85-6.32,7-6.36,14.78,0,3.8,1.08,4.54,1.08,4.54a26.1,26.1,0,0,0,11.09,0s1-.74,1-4.54A22.29,22.29,0,0,0,209.83,815.27Z"/><path class="cls-39" d="M209.82,815.27a1.16,1.16,0,0,0-1.49,0c-1.71,1.84-6.29,7-6.33,14.67,0,3.85,1.1,4.61,1.1,4.61a25.84,25.84,0,0,0,11,0s1-.76,1-4.61A22.13,22.13,0,0,0,209.82,815.27Z"/><path class="cls-40" d="M209.81,815.26a1.17,1.17,0,0,0-1.48,0c-1.7,1.83-6.25,6.94-6.29,14.57,0,3.9,1.13,4.68,1.13,4.68a25.29,25.29,0,0,0,10.79,0s1-.78,1-4.68A22,22,0,0,0,209.81,815.26Z"/><path class="cls-41" d="M209.81,815.26a1.16,1.16,0,0,0-1.47,0c-1.69,1.82-6.22,6.89-6.26,14.46,0,3.95,1.16,4.75,1.16,4.75a25,25,0,0,0,10.64,0s1-.8,1-4.75A21.87,21.87,0,0,0,209.81,815.26Z"/><path class="cls-42" d="M209.8,815.26a1.15,1.15,0,0,0-1.46,0c-1.67,1.8-6.19,6.84-6.22,14.35,0,4,1.19,4.82,1.19,4.82a24.47,24.47,0,0,0,10.49,0s1-.82,1-4.82A21.69,21.69,0,0,0,209.8,815.26Z"/><path class="cls-43" d="M209.79,815.26a1.13,1.13,0,0,0-1.45,0c-1.65,1.79-6.15,6.78-6.19,14.24,0,4,1.22,4.89,1.22,4.89a24.21,24.21,0,0,0,10.35,0s1.07-.84,1.07-4.89A21.51,21.51,0,0,0,209.79,815.26Z"/><path class="cls-44" d="M209.79,815.26a1.12,1.12,0,0,0-1.44,0c-1.65,1.77-6.12,6.73-6.16,14.13,0,4.1,1.25,5,1.25,5a23.85,23.85,0,0,0,10.19,0s1.1-.86,1.1-5A21.39,21.39,0,0,0,209.79,815.26Z"/><path class="cls-45" d="M209.78,815.25a1.16,1.16,0,0,0-1.43,0c-1.63,1.76-6.08,6.69-6.12,14,0,4.14,1.28,5,1.28,5a23.35,23.35,0,0,0,10,0s1.12-.89,1.12-5A21.26,21.26,0,0,0,209.78,815.25Z"/><path class="cls-46" d="M209.77,815.25a1.13,1.13,0,0,0-1.41,0c-1.62,1.75-6.05,6.63-6.09,13.92,0,4.19,1.31,5.1,1.31,5.1a23,23,0,0,0,9.89,0s1.15-.91,1.15-5.1A21.07,21.07,0,0,0,209.77,815.25Z"/><path class="cls-47" d="M209.77,815.25a1.13,1.13,0,0,0-1.41,0c-1.61,1.73-6,6.58-6.05,13.81,0,4.24,1.33,5.16,1.33,5.16a22.55,22.55,0,0,0,9.74,0s1.18-.92,1.18-5.16A20.9,20.9,0,0,0,209.77,815.25Z"/><path class="cls-48" d="M209.76,815.25a1.1,1.1,0,0,0-1.39,0c-1.6,1.72-6,6.53-6,13.7,0,4.29,1.36,5.23,1.36,5.23a22,22,0,0,0,9.59,0s1.2-.94,1.2-5.23A20.74,20.74,0,0,0,209.76,815.25Z"/><path class="cls-49" d="M209.75,815.25a1.09,1.09,0,0,0-1.38,0c-1.58,1.7-6,6.47-6,13.59,0,4.34,1.39,5.3,1.39,5.3a21.73,21.73,0,0,0,9.44,0s1.22-1,1.22-5.3A20.53,20.53,0,0,0,209.75,815.25Z"/><path class="cls-50" d="M209.75,815.24a1.1,1.1,0,0,0-1.37,0c-1.58,1.7-5.92,6.43-5.95,13.49,0,4.39,1.42,5.37,1.42,5.37a21.4,21.4,0,0,0,9.29,0s1.25-1,1.25-5.37A20.48,20.48,0,0,0,209.75,815.24Z"/><path class="cls-51" d="M209.74,815.24a1.08,1.08,0,0,0-1.36,0c-1.56,1.68-5.89,6.38-5.92,13.38,0,4.44,1.45,5.44,1.45,5.44a20.91,20.91,0,0,0,9.14,0s1.28-1,1.28-5.44A20.3,20.3,0,0,0,209.74,815.24Z"/><path class="cls-52" d="M209.73,815.24a1.07,1.07,0,0,0-1.35,0c-1.54,1.67-5.85,6.32-5.88,13.26,0,4.5,1.48,5.52,1.48,5.52a20.59,20.59,0,0,0,9,0s1.3-1,1.3-5.52A20.11,20.11,0,0,0,209.73,815.24Z"/><path class="cls-53" d="M209.73,815.24a1.06,1.06,0,0,0-1.34,0c-1.53,1.65-5.82,6.27-5.85,13.15,0,4.55,1.51,5.59,1.51,5.59a20.28,20.28,0,0,0,8.84,0s1.32-1,1.32-5.59A20,20,0,0,0,209.73,815.24Z"/><path class="cls-54" d="M209.72,815.24a1,1,0,0,0-1.33,0c-1.52,1.63-5.78,6.22-5.81,13,0,4.6,1.54,5.66,1.54,5.66a19.78,19.78,0,0,0,8.69,0s1.34-1.06,1.34-5.66A19.81,19.81,0,0,0,209.72,815.24Z"/><path class="cls-55" d="M209.71,815.23a1,1,0,0,0-1.31,0c-1.51,1.63-5.75,6.17-5.78,12.94,0,4.65,1.56,5.73,1.56,5.73a19.48,19.48,0,0,0,8.54,0s1.38-1.08,1.38-5.73A19.68,19.68,0,0,0,209.71,815.23Z"/><path class="cls-56" d="M209.71,815.23a1,1,0,0,0-1.31,0c-1.49,1.61-5.72,6.12-5.74,12.83,0,4.7,1.59,5.8,1.59,5.8a19.16,19.16,0,0,0,8.39,0s1.4-1.1,1.4-5.8A19.56,19.56,0,0,0,209.71,815.23Z"/><path class="cls-57" d="M209.7,815.23a1,1,0,0,0-1.29,0c-1.49,1.6-5.69,6.07-5.71,12.72,0,4.75,1.62,5.87,1.62,5.87a18.66,18.66,0,0,0,8.24,0S214,832.7,214,828A19.4,19.4,0,0,0,209.7,815.23Z"/><path class="cls-58" d="M209.69,815.23a1,1,0,0,0-1.28,0c-1.47,1.58-5.65,6-5.68,12.61,0,4.8,1.66,5.94,1.66,5.94a18.31,18.31,0,0,0,8.08,0s1.45-1.14,1.45-5.94C213.92,821.24,211.16,816.81,209.69,815.23Z"/><path class="cls-59" d="M209.69,815.23a1,1,0,0,0-1.28,0c-1.45,1.57-5.61,6-5.64,12.5,0,4.85,1.68,6,1.68,6a17.87,17.87,0,0,0,7.94,0s1.48-1.16,1.48-6C213.87,821.19,211.14,816.8,209.69,815.23Z"/><path class="cls-60" d="M209.68,815.22a1,1,0,0,0-1.26,0c-1.45,1.56-5.57,5.92-5.61,12.4,0,4.9,1.71,6.08,1.71,6.08a17.55,17.55,0,0,0,7.79,0s1.5-1.18,1.5-6.08C213.81,821.14,211.12,816.78,209.68,815.22Z"/><path class="cls-61" d="M209.67,815.22a1,1,0,0,0-1.25,0c-1.43,1.54-5.54,5.86-5.57,12.29,0,5,1.74,6.14,1.74,6.14a17,17,0,0,0,7.64,0s1.52-1.19,1.52-6.14C213.75,821.08,211.1,816.76,209.67,815.22Z"/><path class="cls-62" d="M209.67,815.22a1,1,0,0,0-1.24,0c-1.42,1.53-5.51,5.81-5.54,12.18,0,5,1.77,6.21,1.77,6.21a16.52,16.52,0,0,0,7.48,0s1.55-1.21,1.55-6.21C213.69,821,211.08,816.75,209.67,815.22Z"/><path class="cls-63" d="M209.66,815.22a1,1,0,0,0-1.23,0c-1.4,1.51-5.47,5.76-5.5,12.07,0,5.05,1.8,6.28,1.8,6.28a16.2,16.2,0,0,0,7.33,0s1.57-1.23,1.57-6.28C213.63,821,211.06,816.73,209.66,815.22Z"/><path class="cls-64" d="M209.65,815.22a1,1,0,0,0-1.21,0c-1.4,1.5-5.44,5.7-5.47,12,0,5.1,1.82,6.35,1.82,6.35a15.93,15.93,0,0,0,7.19,0s1.6-1.25,1.6-6.35C213.58,820.92,211.05,816.72,209.65,815.22Z"/><path class="cls-65" d="M209.65,815.21a1,1,0,0,0-1.21,0c-1.38,1.49-5.41,5.66-5.43,11.86,0,5.15,1.85,6.42,1.85,6.42a15.45,15.45,0,0,0,7,0s1.62-1.27,1.62-6.42C213.52,820.87,211,816.7,209.65,815.21Z"/><path class="cls-66" d="M209.64,815.21a1,1,0,0,0-1.2,0c-1.36,1.48-5.37,5.61-5.4,11.75,0,5.2,1.89,6.49,1.89,6.49a15.09,15.09,0,0,0,6.88,0s1.65-1.29,1.65-6.49C213.46,820.82,211,816.69,209.64,815.21Z"/><path class="cls-67" d="M209.63,815.21a.93.93,0,0,0-1.18,0c-1.36,1.46-5.34,5.55-5.37,11.64,0,5.25,1.92,6.56,1.92,6.56a14.77,14.77,0,0,0,6.73,0s1.67-1.31,1.67-6.56C213.4,820.76,211,816.67,209.63,815.21Z"/><path class="cls-68" d="M209.63,815.21a.93.93,0,0,0-1.18,0c-1.34,1.45-5.3,5.5-5.33,11.53,0,5.3,1.94,6.63,1.94,6.63a14.34,14.34,0,0,0,6.59,0s1.7-1.33,1.7-6.63C213.35,820.71,211,816.66,209.63,815.21Z"/><path class="cls-69" d="M209.62,815.21a.91.91,0,0,0-1.16,0c-1.33,1.43-5.28,5.45-5.3,11.42,0,5.35,2,6.7,2,6.7a14,14,0,0,0,6.43,0s1.73-1.35,1.73-6.7C213.29,820.66,211,816.64,209.62,815.21Z"/><path class="cls-70" d="M209.61,815.2a.92.92,0,0,0-1.15,0c-1.32,1.42-5.24,5.4-5.26,11.32,0,5.4,2,6.77,2,6.77a13.66,13.66,0,0,0,6.28,0s1.75-1.37,1.75-6.77C213.23,820.6,210.93,816.62,209.61,815.2Z"/><path class="cls-71" d="M209.61,815.2a.9.9,0,0,0-1.14,0c-1.31,1.41-5.21,5.35-5.23,11.21,0,5.45,2,6.84,2,6.84a13.18,13.18,0,0,0,6.13,0s1.77-1.39,1.77-6.84C213.17,820.55,210.91,816.61,209.61,815.2Z"/><path class="cls-72" d="M209.6,815.2a.89.89,0,0,0-1.13,0c-1.29,1.39-5.17,5.3-5.19,11.1,0,5.5,2.05,6.91,2.05,6.91a12.9,12.9,0,0,0,6,0s1.79-1.41,1.79-6.91C213.11,820.5,210.89,816.59,209.6,815.2Z"/><path class="cls-73" d="M209.59,815.2a.86.86,0,0,0-1.11,0c-1.28,1.38-5.15,5.24-5.16,11,0,5.55,2.08,7,2.08,7a12.54,12.54,0,0,0,5.83,0s1.83-1.43,1.83-7C213.06,820.44,210.87,816.58,209.59,815.2Z"/><path class="cls-73" d="M209.59,815.2a.86.86,0,0,0-1.11,0c-1.27,1.36-5.11,5.19-5.13,10.88s2.12,7,2.12,7a12.07,12.07,0,0,0,5.68,0s1.85-1.45,1.85-7S210.85,816.56,209.59,815.2Z"/><path class="cls-74" d="M209.58,815.19a.9.9,0,0,0-1.1,0c-1.25,1.36-5.07,5.15-5.09,10.78s2.15,7.11,2.15,7.11a11.6,11.6,0,0,0,5.53,0s1.87-1.46,1.87-7.11S210.83,816.55,209.58,815.19Z"/><path class="cls-75" d="M209.57,815.19a.87.87,0,0,0-1.08,0c-1.24,1.34-5,5.09-5.06,10.67S205.6,833,205.6,833a11.18,11.18,0,0,0,5.39,0s1.89-1.48,1.89-7.18S210.81,816.53,209.57,815.19Z"/><path class="cls-76" d="M209.57,815.19a.87.87,0,0,0-1.08,0c-1.23,1.32-5,5-5,10.56,0,5.75,2.2,7.25,2.2,7.25a10.83,10.83,0,0,0,5.23,0s1.93-1.5,1.93-7.25C212.83,820.23,210.79,816.51,209.57,815.19Z"/><path class="cls-77" d="M209.56,815.19a.84.84,0,0,0-1.06,0c-1.22,1.31-5,5-5,10.45,0,5.8,2.23,7.32,2.23,7.32a10.51,10.51,0,0,0,5.08,0s2-1.52,2-7.32C212.77,820.18,210.77,816.5,209.56,815.19Z"/><path class="cls-78" d="M209.55,815.19a.83.83,0,0,0-1.05,0c-1.2,1.29-4.94,4.93-4.95,10.34,0,5.84,2.26,7.39,2.26,7.39a10,10,0,0,0,4.93,0s2-1.55,2-7.39C212.71,820.12,210.75,816.48,209.55,815.19Z"/><path class="cls-79" d="M209.54,815.19a.8.8,0,0,0-1,0c-1.2,1.28-4.91,4.88-4.92,10.23,0,5.89,2.28,7.46,2.28,7.46a9.74,9.74,0,0,0,4.78,0s2-1.57,2-7.46C212.65,820.07,210.74,816.47,209.54,815.19Z"/><path class="cls-80" d="M209.54,815.18a.83.83,0,0,0-1,0c-1.18,1.27-4.88,4.84-4.89,10.13,0,5.94,2.32,7.53,2.32,7.53a9.42,9.42,0,0,0,4.63,0s2-1.59,2-7.53C212.59,820,210.72,816.45,209.54,815.18Z"/><path class="cls-81" d="M209.53,815.18a.81.81,0,0,0-1,0c-1.16,1.26-4.84,4.78-4.85,10,0,6,2.35,7.6,2.35,7.6a9,9,0,0,0,4.48,0s2-1.61,2-7.6C212.54,820,210.7,816.44,209.53,815.18Z"/><path class="cls-82" d="M209.52,815.18a.78.78,0,0,0-1,0c-1.15,1.24-4.81,4.73-4.82,9.91,0,6,2.38,7.67,2.38,7.67a8.64,8.64,0,0,0,4.33,0s2.07-1.63,2.07-7.67C212.48,819.91,210.68,816.42,209.52,815.18Z"/><path class="cls-83" d="M209.52,815.18a.78.78,0,0,0-1,0c-1.14,1.23-4.78,4.68-4.78,9.8,0,6.09,2.4,7.74,2.4,7.74a8.33,8.33,0,0,0,4.18,0s2.1-1.65,2.1-7.74C212.42,819.86,210.66,816.41,209.52,815.18Z"/><path class="cls-84" d="M209.51,815.18a.76.76,0,0,0-1,0c-1.13,1.21-4.75,4.62-4.75,9.69,0,6.14,2.43,7.81,2.43,7.81a7.88,7.88,0,0,0,4,0s2.12-1.67,2.12-7.81C212.36,819.8,210.64,816.39,209.51,815.18Z"/><path class="cls-85" d="M209.5,815.17a.77.77,0,0,0-1,0c-1.11,1.2-4.71,4.58-4.71,9.59,0,6.19,2.46,7.88,2.46,7.88a7.57,7.57,0,0,0,3.88,0s2.15-1.69,2.15-7.88C212.31,819.75,210.62,816.37,209.5,815.17Z"/><path class="cls-86" d="M209.5,815.17a.75.75,0,0,0-1,0c-1.11,1.19-4.68,4.53-4.68,9.48,0,6.24,2.49,8,2.49,8a7.25,7.25,0,0,0,3.73,0s2.17-1.71,2.17-8C212.25,819.7,210.6,816.36,209.5,815.17Z"/></g><g id="Pink_Detail" data-name="Pink Detail"><ellipse class="cls-87" cx="211.23" cy="831.68" rx="0.32" ry="0.26"/><ellipse class="cls-87" cx="213.16" cy="832.03" rx="0.32" ry="0.26"/><ellipse class="cls-87" cx="213.62" cy="831.45" rx="0.22" ry="0.16"/><ellipse class="cls-87" cx="213.1" cy="832.92" rx="0.22" ry="0.16"/><ellipse class="cls-87" cx="212.65" cy="833.95" rx="0.32" ry="0.26"/><ellipse class="cls-87" cx="207.49" cy="833.42" rx="0.32" ry="0.26"/><ellipse class="cls-87" cx="207.74" cy="834.37" rx="0.32" ry="0.26"/><ellipse class="cls-87" cx="208.71" cy="833.38" rx="0.32" ry="0.26"/><ellipse class="cls-87" cx="209.52" cy="834.65" rx="0.22" ry="0.16"/><ellipse class="cls-87" cx="206.71" cy="829.5" rx="0.32" ry="0.26"/><ellipse class="cls-87" cx="209.29" cy="825.79" rx="0.32" ry="0.26"/><ellipse class="cls-87" cx="209.52" cy="832.75" rx="0.22" ry="0.16"/><ellipse class="cls-87" cx="207.79" cy="831.49" rx="0.22" ry="0.16"/><ellipse class="cls-87" cx="206.06" cy="833.52" rx="0.22" ry="0.16"/><ellipse class="cls-87" cx="206.06" cy="829.47" rx="0.22" ry="0.16"/><ellipse class="cls-87" cx="205.42" cy="828.25" rx="0.32" ry="0.26"/><ellipse class="cls-87" cx="208.33" cy="827.45" rx="0.32" ry="0.26"/><ellipse class="cls-87" cx="211.71" cy="833.8" rx="0.22" ry="0.16"/><ellipse class="cls-87" cx="212.93" cy="830.82" rx="0.22" ry="0.16"/><ellipse class="cls-87" cx="209.69" cy="826.32" rx="0.22" ry="0.16"/><ellipse class="cls-87" cx="210.9" cy="823.79" rx="0.22" ry="0.16"/><ellipse class="cls-87" cx="206.75" cy="827.58" rx="0.22" ry="0.16"/><ellipse class="cls-87" cx="211.59" cy="829.98" rx="0.22" ry="0.16"/><ellipse class="cls-87" cx="213.66" cy="827.45" rx="0.22" ry="0.16"/><ellipse class="cls-87" cx="206.58" cy="823.16" rx="0.22" ry="0.16"/><ellipse class="cls-87" cx="209.17" cy="819.12" rx="0.22" ry="0.16"/></g></svg>