<svg xmlns="http://www.w3.org/2000/svg" viewBox="0 0 432 846"><defs><style>.cls-1{fill:#82c341;}.cls-2{fill:#83c441;}.cls-3{fill:#83c442;}.cls-4{fill:#84c442;}.cls-5{fill:#85c443;}.cls-6{fill:#86c444;}.cls-7{fill:#86c544;}.cls-8{fill:#87c545;}.cls-9{fill:#88c546;}.cls-10{fill:#89c547;}.cls-11{fill:#89c648;}.cls-12{fill:#8ac648;}.cls-13{fill:#8ac649;}.cls-14{fill:#8bc64a;}.cls-15{fill:#8cc74b;}.cls-16{fill:#8cc74c;}.cls-17{fill:#8dc74c;}.cls-18{fill:#8dc74d;}.cls-19{fill:#8ec74e;}.cls-20{fill:#8fc84f;}.cls-21{fill:#8fc850;}.cls-22{fill:#90c850;}.cls-23{fill:#90c851;}.cls-24{fill:#91c852;}.cls-25{fill:#91c952;}.cls-26{fill:#92c953;}.cls-27{fill:#92c954;}.cls-28{fill:#93c955;}.cls-29{fill:#94c956;}.cls-30{fill:#94ca57;}.cls-31{fill:#95ca57;}.cls-32{fill:#95ca58;}.cls-33{fill:#96ca59;}.cls-34{fill:#96ca5a;}.cls-35{fill:#97cb5a;}.cls-36{fill:#97cb5b;}.cls-37{fill:#98cb5c;}.cls-38{fill:#98cb5d;}.cls-39{fill:#99cb5e;}.cls-40{fill:#99cc5e;}.cls-41{fill:#99cc5f;}.cls-42{fill:#9acc60;}.cls-43{fill:#9acc61;}.cls-44{fill:#9bcc61;}.cls-45{fill:#9bcd62;}.cls-46{fill:#9ccd63;}.cls-47{fill:#9ccd64;}.cls-48{fill:#9dcd65;}.cls-49{fill:#9ece66;}.cls-50{fill:#9ece67;}.cls-51{fill:#9fce68;}.cls-52{fill:#9fce69;}.cls-53{fill:#a0ce69;}.cls-54{fill:#a0cf6a;}.cls-55{fill:#a1cf6b;}.cls-56{fill:#a1cf6c;}.cls-57{fill:#a1cf6d;}.cls-58{fill:#a2d06d;}.cls-59{fill:#a2d06e;}.cls-60{fill:#a3d06f;}.cls-61{fill:#a3d070;}.cls-62{fill:#a4d070;}.cls-63{fill:#a4d171;}.cls-64{fill:#a5d172;}.cls-65{fill:#a5d173;}.cls-66{fill:#a6d174;}.cls-67{fill:#a7d275;}.cls-68{fill:#a7d276;}.cls-69{fill:#a8d277;}.cls-70{fill:#a8d278;}.cls-71{fill:#a9d378;}.cls-72{fill:#a9d379;}.cls-73{fill:#aad37a;}.cls-74{fill:#aad37b;}.cls-75{fill:#abd37b;}.cls-76{fill:#abd47c;}.cls-77{fill:#acd47d;}.cls-78{fill:#add47e;}.cls-79{fill:#add47f;}.cls-80{fill:#aed580;}.cls-81{fill:#afd581;}.cls-82{fill:#afd582;}.cls-83{fill:#b0d682;}.cls-84{fill:#b0d683;}.cls-85{fill:#b1d684;}.cls-86{fill:#b1d685;}.cls-87{fill:#b2d685;}.cls-88{fill:#b2d786;}.cls-89{fill:#b3d787;}.cls-90{fill:#b4d788;}.cls-91{fill:#b4d889;}.cls-92{fill:#b5d889;}.cls-93{fill:#b5d88a;}.cls-94{fill:#b5d88b;}.cls-95{fill:#b6d98c;}.cls-96{fill:#b7d98d;}.cls-97{fill:#b7d98e;}.cls-98{fill:#b8d98e;}.cls-99{fill:#b8da8f;}.cls-100{fill:#b9da90;}.cls-101{fill:#bada91;}.cls-102{fill:#badb92;}.cls-103{fill:#bbdb92;}.cls-104{fill:#bbdb93;}.cls-105{fill:#bcdb94;}.cls-106{fill:#bcdc94;}.cls-107{fill:#bddc95;}.cls-108{fill:#bddc96;}.cls-109{fill:#bedc96;}.cls-110{fill:#bedc97;}.cls-111{fill:#bfdd98;}.cls-112{fill:#bfdd99;}.cls-113{fill:#c0dd99;}.cls-114{fill:#c0dd9a;}.cls-115{fill:#c1de9b;}.cls-116{fill:#c2de9c;}.cls-117{fill:#c2de9d;}.cls-118{fill:#c3df9d;}.cls-119{fill:#c3df9e;}.cls-120{fill:#c4df9f;}.cls-121{fill:#c4dfa0;}.cls-122{fill:#c5e0a0;}.cls-123{fill:#c5e0a1;}.cls-124{fill:#c6e0a2;}.cls-125{fill:#84c443;}.cls-126{fill:#8bc649;}.cls-127{fill:#8dc74e;}.cls-128{fill:#8ec84f;}.cls-129{fill:#91c953;}.cls-130{fill:#93c956;}.cls-131{fill:#94ca56;}.cls-132{fill:#95ca59;}.cls-133{fill:#96cb5a;}.cls-134{fill:#97cb5c;}.cls-135{fill:#9acc5f;}.cls-136{fill:#9bcc62;}.cls-137{fill:#9dcd66;}.cls-138{fill:#a2cf6d;}.cls-139{fill:#a4d071;}.cls-140{fill:#a6ce39;}.cls-141{fill:#a7cf39;}.cls-142{fill:#a8cf3a;}.cls-143{fill:#a9cf3a;}.cls-144{fill:#a9cf3b;}.cls-145{fill:#aad03b;}.cls-146{fill:#aad03c;}.cls-147{fill:#abd03c;}.cls-148{fill:#acd03d;}.cls-149{fill:#acd13e;}.cls-150{fill:#add13e;}.cls-151{fill:#add13f;}.cls-152{fill:#aed140;}.cls-153{fill:#afd140;}.cls-154{fill:#afd241;}.cls-155{fill:#b0d242;}.cls-156{fill:#b0d243;}.cls-157{fill:#b1d243;}.cls-158{fill:#b2d344;}.cls-159{fill:#b2d345;}.cls-160{fill:#b3d346;}.cls-161{fill:#b4d447;}.cls-162{fill:#b5d448;}.cls-163{fill:#b5d449;}.cls-164{fill:#b6d449;}.cls-165{fill:#b6d54a;}.cls-166{fill:#b7d54b;}.cls-167{fill:#b8d54b;}.cls-168{fill:#b8d54c;}.cls-169{fill:#b9d64d;}.cls-170{fill:#b9d64e;}.cls-171{fill:#bad64e;}.cls-172{fill:#bad64f;}.cls-173{fill:#bbd750;}.cls-174{fill:#bcd751;}.cls-175{fill:#bcd752;}.cls-176{fill:#bdd752;}.cls-177{fill:#bdd853;}.cls-178{fill:#bed854;}.cls-179{fill:#bed855;}.cls-180{fill:#bfd856;}.cls-181{fill:#c0d957;}.cls-182{fill:#c1d958;}.cls-183{fill:#c1d959;}.cls-184{fill:#c2da5a;}.cls-185{fill:#c3da5b;}.cls-186{fill:#c3da5c;}.cls-187{fill:#c4da5c;}.cls-188{fill:#c4db5d;}.cls-189{fill:#c5db5e;}.cls-190{fill:#c5db5f;}.cls-191{fill:#c6db60;}.cls-192{fill:#c7dc61;}.cls-193{fill:#c7dc62;}.cls-194{fill:#c8dc62;}.cls-195{fill:#c8dc63;}.cls-196{fill:#c9dd64;}.cls-197{fill:#c9dd65;}.cls-198{fill:#cadd66;}.cls-199{fill:#cbdd67;}.cls-200{fill:#cbde68;}.cls-201{fill:#ccde68;}.cls-202{fill:#ccde69;}.cls-203{fill:#cdde6a;}.cls-204{fill:#cedf6b;}.cls-205{fill:#cedf6c;}.cls-206{fill:#cfdf6d;}.cls-207{fill:#cfe06d;}.cls-208{fill:#d0e06e;}.cls-209{fill:#d0e06f;}.cls-210{fill:#d1e070;}.cls-211{fill:#d2e171;}.cls-212{fill:#d2e172;}.cls-213{fill:#d3e172;}.cls-214{fill:#d3e173;}.cls-215{fill:#fffbdd;opacity:0.57;}</style></defs><g id="Green_Leaf" data-name="Green Leaf"><path class="cls-1" d="M210.26,721.12a1.49,1.49,0,0,0-2.88,0c-3.29,7.76-11.45,29.58-11.45,61.93,0,40.82,7.44,52,7.44,52s5.57,3.71,11.14,0c0,0,6.49-11.14,6.49-52C221,750.7,213.55,728.88,210.26,721.12Z"/><path class="cls-2" d="M210.25,721.12a1.47,1.47,0,0,0-2.86,0c-3.28,7.73-11.42,29.46-11.42,61.7,0,40.68,7.41,51.77,7.41,51.77s5.55,3.7,11.1,0c0,0,6.47-11.09,6.47-51.77C221,750.58,213.53,728.85,210.25,721.12Z"/><path class="cls-3" d="M210.25,721.11a1.48,1.48,0,0,0-2.86,0c-3.27,7.71-11.39,29.36-11.39,61.48,0,40.53,7.39,51.58,7.39,51.58s5.53,3.69,11.06,0c0,0,6.44-11,6.44-51.58C220.89,750.47,213.51,728.82,210.25,721.11Z"/><path class="cls-4" d="M210.24,721.11a1.46,1.46,0,0,0-2.84,0c-3.26,7.67-11.36,29.25-11.36,61.25,0,40.38,7.36,51.4,7.36,51.4s5.51,3.67,11,0c0,0,6.42-11,6.42-51.4C220.84,750.36,213.5,728.78,210.24,721.11Z"/><path class="cls-5" d="M210.23,721.1a1.46,1.46,0,0,0-2.83,0c-3.24,7.65-11.33,29.15-11.33,61,0,40.24,7.33,51.21,7.33,51.21s5.5,3.66,11,0c0,0,6.39-11,6.39-51.21C220.78,750.25,213.48,728.75,210.23,721.1Z"/><path class="cls-5" d="M210.23,721.1a1.46,1.46,0,0,0-2.83,0c-3.23,7.62-11.29,29-11.29,60.8,0,40.09,7.3,51,7.3,51s5.47,3.65,11,0c0,0,6.37-10.93,6.37-51C220.73,750.14,213.46,728.72,210.23,721.1Z"/><path class="cls-6" d="M210.22,721.09a1.45,1.45,0,0,0-2.81,0c-3.22,7.6-11.26,28.94-11.26,60.59,0,39.93,7.27,50.83,7.27,50.83s5.45,3.63,10.9,0c0,0,6.35-10.9,6.35-50.83C220.67,750,213.44,728.69,210.22,721.09Z"/><path class="cls-7" d="M210.21,721.09a1.44,1.44,0,0,0-2.8,0c-3.21,7.57-11.23,28.83-11.23,60.36,0,39.79,7.25,50.64,7.25,50.64s5.43,3.62,10.86,0c0,0,6.33-10.85,6.33-50.64C220.62,749.92,213.42,728.66,210.21,721.09Z"/><path class="cls-8" d="M210.21,721.09a1.44,1.44,0,0,0-2.79,0c-3.2,7.53-11.2,28.72-11.2,60.13,0,39.64,7.22,50.45,7.22,50.45s5.41,3.61,10.82,0c0,0,6.31-10.81,6.31-50.45C220.57,749.81,213.41,728.62,210.21,721.09Z"/><path class="cls-8" d="M210.2,721.08a1.43,1.43,0,0,0-2.78,0c-3.18,7.51-11.16,28.62-11.16,59.91,0,39.5,7.19,50.27,7.19,50.27s5.39,3.59,10.78,0c0,0,6.28-10.77,6.28-50.27C220.51,749.7,213.39,728.59,210.2,721.08Z"/><path class="cls-9" d="M210.2,721.08a1.43,1.43,0,0,0-2.77,0c-3.18,7.48-11.14,28.5-11.14,59.68,0,39.35,7.17,50.08,7.17,50.08s5.37,3.58,10.74,0c0,0,6.26-10.73,6.26-50.08C220.46,749.58,213.37,728.56,210.2,721.08Z"/><path class="cls-9" d="M210.19,721.07a1.42,1.42,0,0,0-2.76,0c-3.16,7.46-11.1,28.4-11.1,59.46,0,39.2,7.14,49.89,7.14,49.89s5.35,3.57,10.7,0c0,0,6.23-10.69,6.23-49.89C220.4,749.47,213.35,728.53,210.19,721.07Z"/><path class="cls-10" d="M210.18,721.07a1.42,1.42,0,0,0-2.75,0c-3.15,7.43-11.06,28.29-11.06,59.23,0,39.06,7.11,49.71,7.11,49.71s5.33,3.55,10.66,0c0,0,6.21-10.65,6.21-49.71C220.35,749.36,213.33,728.5,210.18,721.07Z"/><path class="cls-11" d="M210.18,721.07a1.41,1.41,0,0,0-2.74,0c-3.14,7.39-11,28.18-11,59,0,38.9,7.09,49.51,7.09,49.51s5.31,3.54,10.62,0c0,0,6.18-10.61,6.18-49.51C220.29,749.25,213.31,728.46,210.18,721.07Z"/><path class="cls-12" d="M210.17,721.06a1.41,1.41,0,0,0-2.73,0c-3.12,7.37-11,28.08-11,58.79,0,38.75,7.06,49.32,7.06,49.32s5.29,3.53,10.58,0c0,0,6.16-10.57,6.16-49.32C220.24,749.14,213.3,728.43,210.17,721.06Z"/><path class="cls-13" d="M210.16,721.06a1.4,1.4,0,0,0-2.71,0c-3.12,7.34-11,28-11,58.56,0,38.61,7,49.14,7,49.14s5.27,3.51,10.54,0c0,0,6.14-10.53,6.14-49.14C220.19,749,213.28,728.4,210.16,721.06Z"/><path class="cls-14" d="M210.16,721.05a1.4,1.4,0,0,0-2.71,0c-3.1,7.32-10.94,27.87-10.94,58.34,0,38.46,7,49,7,49s5.25,3.5,10.5,0c0,0,6.11-10.49,6.11-49C220.13,748.92,213.26,728.37,210.16,721.05Z"/><path class="cls-14" d="M210.15,721.05a1.39,1.39,0,0,0-2.7,0c-3.09,7.28-10.9,27.76-10.9,58.11,0,38.31,7,48.76,7,48.76s5.23,3.49,10.46,0c0,0,6.09-10.45,6.09-48.76C220.08,748.81,213.24,728.33,210.15,721.05Z"/><path class="cls-15" d="M210.15,721.05a1.39,1.39,0,0,0-2.69,0c-3.08,7.25-10.87,27.64-10.87,57.88,0,38.17,6.95,48.58,6.95,48.58s5.21,3.47,10.41,0c0,0,6.07-10.41,6.07-48.58C220,748.69,213.22,728.3,210.15,721.05Z"/><path class="cls-16" d="M210.14,721a1.38,1.38,0,0,0-2.68,0c-3.06,7.23-10.84,27.54-10.84,57.67,0,38,6.93,48.38,6.93,48.38s5.19,3.46,10.37,0c0,0,6.05-10.37,6.05-48.38C220,748.58,213.2,728.27,210.14,721Z"/><path class="cls-17" d="M210.13,721a1.37,1.37,0,0,0-2.66,0c-3.06,7.2-10.81,27.43-10.81,57.44,0,37.87,6.9,48.19,6.9,48.19s5.16,3.45,10.33,0c0,0,6-10.32,6-48.19C219.91,748.47,213.19,728.24,210.13,721Z"/><path class="cls-18" d="M210.13,721a1.37,1.37,0,0,0-2.66,0c-3,7.18-10.78,27.33-10.78,57.22,0,37.72,6.88,48,6.88,48s5.14,3.43,10.29,0c0,0,6-10.29,6-48C219.86,748.36,213.17,728.21,210.13,721Z"/><path class="cls-19" d="M210.12,721a1.37,1.37,0,0,0-2.65,0c-3,7.14-10.74,27.22-10.74,57,0,37.57,6.85,47.82,6.85,47.82s5.12,3.42,10.25,0c0,0,6-10.25,6-47.82C219.8,748.25,213.15,728.17,210.12,721Z"/><path class="cls-19" d="M210.11,721a1.36,1.36,0,0,0-2.63,0c-3,7.11-10.71,27.11-10.71,56.76,0,37.43,6.82,47.63,6.82,47.63s5.1,3.4,10.21,0c0,0,5.95-10.2,5.95-47.63C219.75,748.14,213.13,728.14,210.11,721Z"/><path class="cls-20" d="M210.11,721a1.36,1.36,0,0,0-2.63,0c-3,7.09-10.68,27-10.68,56.54,0,37.28,6.79,47.45,6.79,47.45s5.09,3.38,10.18,0c0,0,5.93-10.17,5.93-47.45C219.7,748,213.11,728.11,210.11,721Z"/><path class="cls-21" d="M210.1,721a1.34,1.34,0,0,0-2.61,0c-3,7.06-10.65,26.9-10.65,56.32,0,37.12,6.76,47.25,6.76,47.25s5.07,3.37,10.14,0c0,0,5.9-10.13,5.9-47.25C219.64,747.92,213.1,728.08,210.1,721Z"/><path class="cls-22" d="M210.09,721a1.34,1.34,0,0,0-2.6,0c-3,7-10.61,26.79-10.61,56.1,0,37,6.73,47.06,6.73,47.06s5,3.36,10.1,0c0,0,5.88-10.08,5.88-47.06C219.59,747.8,213.08,728,210.09,721Z"/><path class="cls-23" d="M210.09,721a1.34,1.34,0,0,0-2.6,0c-3,7-10.58,26.68-10.58,55.87,0,36.83,6.71,46.88,6.71,46.88s5,3.34,10.06,0c0,0,5.85-10,5.85-46.88C219.53,747.69,213.06,728,210.09,721Z"/><path class="cls-24" d="M210.08,721a1.33,1.33,0,0,0-2.58,0c-3,7-10.55,26.57-10.55,55.64,0,36.68,6.68,46.69,6.68,46.69s5,3.33,10,0c0,0,5.83-10,5.83-46.69C219.48,747.58,213,728,210.08,721Z"/><path class="cls-25" d="M210.08,721a1.33,1.33,0,0,0-2.58,0c-2.94,7-10.51,26.47-10.51,55.42,0,36.54,6.65,46.5,6.65,46.5s5,3.32,10,0c0,0,5.81-10,5.81-46.5C219.42,747.47,213,728,210.08,721Z"/><path class="cls-26" d="M210.07,721a1.32,1.32,0,0,0-2.56,0c-2.94,6.92-10.49,26.36-10.49,55.19,0,36.39,6.63,46.32,6.63,46.32s5,3.3,9.93,0c0,0,5.79-9.93,5.79-46.32C219.37,747.36,213,727.92,210.07,721Z"/><path class="cls-27" d="M210.06,721a1.32,1.32,0,0,0-2.55,0c-2.92,6.89-10.45,26.26-10.45,55,0,36.25,6.6,46.13,6.6,46.13s5,3.29,9.89,0c0,0,5.76-9.88,5.76-46.13C219.31,747.25,213,727.88,210.06,721Z"/><path class="cls-28" d="M210.06,721a1.31,1.31,0,0,0-2.54,0c-2.92,6.86-10.42,26.15-10.42,54.75,0,36.09,6.57,45.93,6.57,45.93s4.93,3.28,9.85,0c0,0,5.74-9.84,5.74-45.93C219.26,747.14,213,727.85,210.06,721Z"/><path class="cls-28" d="M210.05,721a1.3,1.3,0,0,0-2.53,0c-2.9,6.83-10.39,26-10.39,54.52,0,35.94,6.55,45.75,6.55,45.75s4.91,3.26,9.81,0c0,0,5.72-9.81,5.72-45.75C219.21,747,213,727.82,210.05,721Z"/><path class="cls-29" d="M210,721a1.3,1.3,0,0,0-2.52,0c-2.88,6.81-10.35,25.93-10.35,54.3,0,35.8,6.52,45.56,6.52,45.56s4.88,3.25,9.77,0c0,0,5.69-9.76,5.69-45.56C219.15,746.91,212.93,727.79,210,721Z"/><path class="cls-30" d="M210,721a1.29,1.29,0,0,0-2.51,0c-2.88,6.77-10.33,25.82-10.33,54.07,0,35.65,6.5,45.37,6.5,45.37s4.86,3.24,9.73,0c0,0,5.67-9.72,5.67-45.37C219.1,746.8,212.91,727.75,210,721Z"/><path class="cls-31" d="M210,721a1.29,1.29,0,0,0-2.5,0c-2.86,6.75-10.29,25.72-10.29,53.85,0,35.5,6.47,45.19,6.47,45.19s4.84,3.22,9.69,0c0,0,5.64-9.69,5.64-45.19C219,746.69,212.89,727.72,210,721Z"/><path class="cls-32" d="M210,721a1.28,1.28,0,0,0-2.48,0c-2.86,6.72-10.26,25.61-10.26,53.62,0,35.36,6.44,45,6.44,45s4.82,3.21,9.65,0c0,0,5.62-9.64,5.62-45C219,746.58,212.88,727.69,210,721Z"/><path class="cls-33" d="M210,721a1.28,1.28,0,0,0-2.48,0c-2.84,6.69-10.23,25.5-10.23,53.4,0,35.2,6.42,44.8,6.42,44.8s4.8,3.2,9.61,0c0,0,5.59-9.6,5.59-44.8C218.93,746.47,212.86,727.66,210,721Z"/><path class="cls-34" d="M210,721a1.27,1.27,0,0,0-2.47,0c-2.82,6.67-10.19,25.4-10.19,53.18,0,35.05,6.39,44.62,6.39,44.62s4.78,3.18,9.57,0c0,0,5.57-9.57,5.57-44.62C218.88,746.36,212.84,727.63,210,721Z"/><path class="cls-35" d="M210,721a1.27,1.27,0,0,0-2.46,0c-2.82,6.63-10.16,25.29-10.16,52.95,0,34.91,6.36,44.43,6.36,44.43s4.76,3.17,9.52,0c0,0,5.56-9.52,5.56-44.43C218.83,746.25,212.82,727.59,210,721Z"/><path class="cls-36" d="M210,721a1.26,1.26,0,0,0-2.45,0c-2.8,6.61-10.13,25.19-10.13,52.73,0,34.76,6.34,44.24,6.34,44.24s4.74,3.16,9.48,0c0,0,5.53-9.48,5.53-44.24C218.77,746.14,212.8,727.56,210,721Z"/><path class="cls-37" d="M210,721a1.25,1.25,0,0,0-2.43,0c-2.8,6.58-10.1,25.07-10.1,52.5,0,34.62,6.31,44.06,6.31,44.06s4.72,3.14,9.44,0c0,0,5.51-9.44,5.51-44.06C218.72,746,212.78,727.53,210,721Z"/><path class="cls-38" d="M210,720.94a1.26,1.26,0,0,0-2.43,0c-2.78,6.56-10.06,25-10.06,52.28,0,34.47,6.28,43.87,6.28,43.87s4.7,3.13,9.4,0c0,0,5.48-9.4,5.48-43.87C218.66,745.91,212.77,727.5,210,720.94Z"/><path class="cls-39" d="M210,720.94a1.25,1.25,0,0,0-2.42,0c-2.76,6.53-10,24.86-10,52.06,0,34.31,6.25,43.67,6.25,43.67s4.69,3.12,9.37,0c0,0,5.46-9.36,5.46-43.67C218.61,745.8,212.75,727.47,210,720.94Z"/><path class="cls-40" d="M210,720.94a1.24,1.24,0,0,0-2.4,0c-2.76,6.49-10,24.75-10,51.83,0,34.17,6.22,43.49,6.22,43.49s4.67,3.1,9.33,0c0,0,5.43-9.32,5.43-43.49C218.55,745.69,212.73,727.43,210,720.94Z"/><path class="cls-41" d="M210,720.93a1.24,1.24,0,0,0-2.4,0c-2.74,6.47-10,24.65-10,51.61,0,34,6.19,43.3,6.19,43.3s4.65,3.09,9.29,0c0,0,5.41-9.28,5.41-43.3C218.5,745.58,212.71,727.4,210,720.93Z"/><path class="cls-42" d="M210,720.93a1.23,1.23,0,0,0-2.38,0c-2.74,6.44-9.94,24.54-9.94,51.38,0,33.87,6.17,43.11,6.17,43.11s4.63,3.08,9.25,0c0,0,5.38-9.24,5.38-43.11C218.44,745.47,212.69,727.37,210,720.93Z"/><path class="cls-43" d="M210,720.92a1.23,1.23,0,0,0-2.38,0c-2.72,6.42-9.9,24.44-9.9,51.16,0,33.73,6.14,42.93,6.14,42.93s4.61,3.06,9.21,0c0,0,5.36-9.2,5.36-42.93C218.39,745.36,212.68,727.34,210,720.92Z"/><path class="cls-44" d="M210,720.92a1.22,1.22,0,0,0-2.37,0c-2.7,6.38-9.86,24.33-9.86,50.93,0,33.58,6.11,42.74,6.11,42.74s4.58,3,9.17,0c0,0,5.34-9.16,5.34-42.74C218.34,745.25,212.66,727.3,210,720.92Z"/><path class="cls-45" d="M209.94,720.92a1.21,1.21,0,0,0-2.35,0c-2.7,6.35-9.84,24.22-9.84,50.7,0,33.43,6.09,42.55,6.09,42.55s4.56,3,9.13,0c0,0,5.31-9.12,5.31-42.55C218.28,745.14,212.64,727.27,209.94,720.92Z"/><path class="cls-46" d="M209.94,720.91a1.21,1.21,0,0,0-2.35,0c-2.68,6.33-9.8,24.11-9.8,50.49,0,33.28,6.06,42.36,6.06,42.36s4.54,3,9.09,0c0,0,5.29-9.08,5.29-42.36C218.23,745,212.62,727.24,209.94,720.91Z"/><path class="cls-47" d="M209.93,720.91a1.2,1.2,0,0,0-2.33,0c-2.68,6.3-9.78,24-9.78,50.26,0,33.13,6,42.17,6,42.17s4.52,3,9,0c0,0,5.27-9,5.27-42.17C218.17,744.91,212.6,727.21,209.93,720.91Z"/><path class="cls-48" d="M209.92,720.9a1.2,1.2,0,0,0-2.32,0c-2.66,6.28-9.74,23.9-9.74,50,0,33,6,42,6,42s4.5,3,9,0c0,0,5.25-9,5.25-42C218.12,744.8,212.58,727.18,209.92,720.9Z"/><path class="cls-48" d="M209.92,720.9a1.19,1.19,0,0,0-2.31,0c-2.65,6.24-9.71,23.79-9.71,49.81,0,32.84,6,41.8,6,41.8s4.48,3,9,0c0,0,5.22-9,5.22-41.8C218.06,744.69,212.57,727.14,209.92,720.9Z"/><path class="cls-49" d="M209.91,720.9a1.18,1.18,0,0,0-2.3,0c-2.64,6.21-9.68,23.68-9.68,49.58,0,32.69,6,41.61,6,41.61s4.46,3,8.92,0c0,0,5.2-8.92,5.2-41.61C218,744.58,212.55,727.11,209.91,720.9Z"/><path class="cls-50" d="M209.9,720.89a1.18,1.18,0,0,0-2.29,0C205,727.08,198,744.47,198,770.25c0,32.55,5.93,41.42,5.93,41.42s4.44,3,8.88,0c0,0,5.18-8.87,5.18-41.42C218,744.47,212.53,727.08,209.9,720.89Z"/><path class="cls-51" d="M209.9,720.89a1.17,1.17,0,0,0-2.28,0C205,727.05,198,744.36,198,770c0,32.39,5.9,41.23,5.9,41.23s4.42,2.94,8.84,0c0,0,5.15-8.84,5.15-41.23C217.9,744.36,212.51,727.05,209.9,720.89Z"/><path class="cls-52" d="M209.89,720.88a1.17,1.17,0,0,0-2.27,0C205,727,198,744.25,198,769.8c0,32.24,5.88,41,5.88,41s4.4,2.93,8.8,0c0,0,5.13-8.8,5.13-41C217.85,744.25,212.49,727,209.89,720.88Z"/><path class="cls-53" d="M209.89,720.88a1.17,1.17,0,0,0-2.26,0c-2.59,6.1-9.55,23.25-9.55,48.69,0,32.1,5.85,40.85,5.85,40.85s4.38,2.92,8.76,0c0,0,5.1-8.75,5.1-40.85C217.79,744.13,212.47,727,209.89,720.88Z"/><path class="cls-54" d="M209.88,720.88a1.16,1.16,0,0,0-2.25,0c-2.58,6.07-9.51,23.14-9.51,48.46,0,31.95,5.82,40.67,5.82,40.67s4.36,2.9,8.72,0c0,0,5.08-8.72,5.08-40.67C217.74,744,212.46,727,209.88,720.88Z"/><path class="cls-55" d="M209.87,720.87a1.16,1.16,0,0,0-2.24,0c-2.56,6-9.48,23-9.48,48.24,0,31.8,5.8,40.48,5.8,40.48s4.34,2.89,8.68,0c0,0,5.05-8.68,5.05-40.48C217.68,743.91,212.44,726.92,209.87,720.87Z"/><path class="cls-56" d="M209.87,720.87a1.15,1.15,0,0,0-2.23,0c-2.55,6-9.45,22.93-9.45,48,0,31.66,5.77,40.29,5.77,40.29s4.32,2.88,8.64,0c0,0,5-8.63,5-40.29C217.63,743.8,212.42,726.89,209.87,720.87Z"/><path class="cls-57" d="M209.86,720.86a1.15,1.15,0,0,0-2.22,0c-2.54,6-9.41,22.83-9.41,47.79,0,31.51,5.74,40.11,5.74,40.11s4.3,2.86,8.59,0c0,0,5-8.6,5-40.11C217.57,743.69,212.4,726.85,209.86,720.86Z"/><path class="cls-58" d="M209.85,720.86a1.13,1.13,0,0,0-2.2,0c-2.53,6-9.39,22.72-9.39,47.57,0,31.36,5.71,39.91,5.71,39.91s4.28,2.85,8.56,0c0,0,5-8.55,5-39.91C217.52,743.58,212.38,726.82,209.85,720.86Z"/><path class="cls-59" d="M209.85,720.86a1.13,1.13,0,0,0-2.2,0c-2.52,5.93-9.35,22.61-9.35,47.34,0,31.21,5.68,39.72,5.68,39.72s4.26,2.84,8.52,0c0,0,5-8.51,5-39.72C217.47,743.47,212.36,726.79,209.85,720.86Z"/><path class="cls-60" d="M209.84,720.85a1.13,1.13,0,0,0-2.19,0c-2.5,5.91-9.32,22.51-9.32,47.12,0,31.06,5.66,39.54,5.66,39.54s4.24,2.82,8.48,0c0,0,4.94-8.48,4.94-39.54C217.41,743.36,212.35,726.76,209.84,720.85Z"/><path class="cls-61" d="M209.84,720.85a1.12,1.12,0,0,0-2.18,0c-2.49,5.88-9.29,22.39-9.29,46.89,0,30.92,5.63,39.35,5.63,39.35s4.22,2.81,8.44,0c0,0,4.92-8.43,4.92-39.35C217.36,743.24,212.33,726.73,209.84,720.85Z"/><path class="cls-62" d="M209.83,720.84a1.12,1.12,0,0,0-2.17,0c-2.48,5.85-9.25,22.29-9.25,46.67,0,30.77,5.6,39.16,5.6,39.16s4.2,2.8,8.4,0c0,0,4.89-8.39,4.89-39.16C217.3,743.13,212.31,726.69,209.83,720.84Z"/><path class="cls-63" d="M209.82,720.84a1.11,1.11,0,0,0-2.15,0c-2.47,5.82-9.23,22.18-9.23,46.44,0,30.62,5.58,39,5.58,39s4.18,2.79,8.36,0c0,0,4.87-8.35,4.87-39C217.25,743,212.29,726.66,209.82,720.84Z"/><path class="cls-64" d="M209.82,720.84a1.11,1.11,0,0,0-2.15,0c-2.46,5.79-9.19,22.07-9.19,46.22,0,30.47,5.55,38.78,5.55,38.78s4.16,2.77,8.32,0c0,0,4.84-8.31,4.84-38.78C217.19,742.91,212.27,726.63,209.82,720.84Z"/><path class="cls-65" d="M209.81,720.83a1.1,1.1,0,0,0-2.14,0c-2.44,5.77-9.15,22-9.15,46,0,30.32,5.52,38.59,5.52,38.59s4.14,2.76,8.28,0c0,0,4.82-8.27,4.82-38.59C217.14,742.8,212.26,726.6,209.81,720.83Z"/><path class="cls-66" d="M209.8,720.83a1.09,1.09,0,0,0-2.12,0c-2.43,5.73-9.13,21.86-9.13,45.77,0,30.18,5.5,38.4,5.5,38.4s4.12,2.75,8.24,0c0,0,4.79-8.22,4.79-38.4C217.08,742.69,212.24,726.56,209.8,720.83Z"/><path class="cls-66" d="M209.8,720.82a1.1,1.1,0,0,0-2.12,0,113.5,113.5,0,0,0-9.09,45.55c0,30,5.47,38.22,5.47,38.22s4.1,2.73,8.2,0c0,0,4.77-8.19,4.77-38.22C217,742.58,212.22,726.53,209.8,720.82Z"/><path class="cls-67" d="M209.79,720.82a1.08,1.08,0,0,0-2.1,0,112.79,112.79,0,0,0-9.06,45.32c0,29.88,5.44,38,5.44,38s4.08,2.72,8.16,0c0,0,4.75-8.15,4.75-38C217,742.47,212.2,726.5,209.79,720.82Z"/><path class="cls-68" d="M209.78,720.82a1.08,1.08,0,0,0-2.09,0,112,112,0,0,0-9,45.09c0,29.74,5.42,37.84,5.42,37.84s4.06,2.71,8.11,0c0,0,4.73-8.1,4.73-37.84C216.92,742.35,212.18,726.47,209.78,720.82Z"/><path class="cls-69" d="M209.78,720.81a1.07,1.07,0,0,0-2.08,0,111.45,111.45,0,0,0-9,44.88c0,29.58,5.39,37.65,5.39,37.65s4,2.69,8.07,0c0,0,4.71-8.07,4.71-37.65C216.87,742.24,212.16,726.44,209.78,720.81Z"/><path class="cls-70" d="M209.77,720.81a1.07,1.07,0,0,0-2.07,0,110.93,110.93,0,0,0-9,44.65c0,29.43,5.36,37.46,5.36,37.46s4,2.68,8,0c0,0,4.68-8,4.68-37.46C216.81,742.13,212.15,726.4,209.77,720.81Z"/><path class="cls-71" d="M209.77,720.8a1.07,1.07,0,0,0-2.07,0,110.34,110.34,0,0,0-8.93,44.43c0,29.29,5.34,37.27,5.34,37.27s4,2.67,8,0c0,0,4.66-8,4.66-37.27C216.76,742,212.13,726.37,209.77,720.8Z"/><path class="cls-72" d="M209.76,720.8a1.06,1.06,0,0,0-2,0,109.63,109.63,0,0,0-8.9,44.2c0,29.14,5.31,37.09,5.31,37.09a7.48,7.48,0,0,0,7.95,0s4.63-8,4.63-37.09C216.7,741.91,212.11,726.34,209.76,720.8Z"/><path class="cls-73" d="M209.75,720.79a1.05,1.05,0,0,0-2,0,109,109,0,0,0-8.87,44c0,29,5.29,36.9,5.29,36.9a7.43,7.43,0,0,0,7.91,0s4.61-7.91,4.61-36.9C216.65,741.8,212.09,726.31,209.75,720.79Z"/><path class="cls-74" d="M209.75,720.79a1,1,0,0,0-2,0,108.28,108.28,0,0,0-8.84,43.75c0,28.85,5.26,36.71,5.26,36.71a7.39,7.39,0,0,0,7.87,0s4.59-7.86,4.59-36.71C216.6,741.69,212.07,726.27,209.75,720.79Z"/><path class="cls-75" d="M209.74,720.79a1,1,0,0,0-2,0,107.81,107.81,0,0,0-8.8,43.52c0,28.7,5.23,36.53,5.23,36.53a7.36,7.36,0,0,0,7.83,0s4.56-7.83,4.56-36.53C216.54,741.58,212.05,726.24,209.74,720.79Z"/><path class="cls-76" d="M209.73,720.78a1,1,0,0,0-2,0A107.18,107.18,0,0,0,199,764.09c0,28.55,5.21,36.33,5.21,36.33a7.32,7.32,0,0,0,7.79,0s4.54-7.78,4.54-36.33C216.49,741.46,212,726.21,209.73,720.78Z"/><path class="cls-77" d="M209.73,720.78a1,1,0,0,0-2,0A106.47,106.47,0,0,0,199,763.86c0,28.4,5.17,36.14,5.17,36.14a7.29,7.29,0,0,0,7.76,0s4.51-7.74,4.51-36.14C216.43,741.35,212,726.18,209.73,720.78Z"/><path class="cls-77" d="M209.72,720.77a1,1,0,0,0-2,0,105.93,105.93,0,0,0-8.7,42.86c0,28.25,5.14,36,5.14,36a7.27,7.27,0,0,0,7.72,0s4.49-7.71,4.49-36C216.38,741.24,212,726.15,209.72,720.77Z"/><path class="cls-78" d="M209.71,720.77a1,1,0,0,0-2,0,105.12,105.12,0,0,0-8.68,42.63c0,28.11,5.12,35.77,5.12,35.77a7.21,7.21,0,0,0,7.67,0s4.47-7.66,4.47-35.77C216.32,741.13,212,726.11,209.71,720.77Z"/><path class="cls-79" d="M209.71,720.77a1,1,0,0,0-2,0,104.65,104.65,0,0,0-8.64,42.4c0,28,5.09,35.58,5.09,35.58a7.16,7.16,0,0,0,7.63,0s4.45-7.62,4.45-35.58C216.27,741,212,726.08,209.71,720.77Z"/><path class="cls-80" d="M209.7,720.76a1,1,0,0,0-2,0,104.11,104.11,0,0,0-8.6,42.18c0,27.81,5.06,35.4,5.06,35.4a7.14,7.14,0,0,0,7.59,0s4.42-7.59,4.42-35.4C216.21,740.91,211.94,726.05,209.7,720.76Z"/><path class="cls-80" d="M209.7,720.76a1,1,0,0,0-1.95,0,103.37,103.37,0,0,0-8.58,42c0,27.66,5,35.2,5,35.2a7.1,7.1,0,0,0,7.55,0s4.4-7.54,4.4-35.2C216.16,740.8,211.93,726,209.7,720.76Z"/><path class="cls-81" d="M209.69,720.75a1,1,0,0,0-1.94,0,102.83,102.83,0,0,0-8.54,41.74c0,27.51,5,35,5,35a7.05,7.05,0,0,0,7.51,0s4.38-7.5,4.38-35C216.11,740.69,211.91,726,209.69,720.75Z"/><path class="cls-82" d="M209.68,720.75a1,1,0,0,0-1.92,0,102.07,102.07,0,0,0-8.51,41.51c0,27.36,5,34.83,5,34.83a7,7,0,0,0,7.47,0s4.35-7.47,4.35-34.83C216.05,740.58,211.89,726,209.68,720.75Z"/><path class="cls-83" d="M209.68,720.75a1,1,0,0,0-1.92,0A101.5,101.5,0,0,0,199.28,762c0,27.22,5,34.64,5,34.64a7,7,0,0,0,7.43,0S216,789.25,216,762C216,740.46,211.87,725.92,209.68,720.75Z"/><path class="cls-84" d="M209.67,720.74a1,1,0,0,0-1.91,0,101,101,0,0,0-8.44,41.06c0,27.07,4.93,34.45,4.93,34.45a6.93,6.93,0,0,0,7.39,0s4.3-7.38,4.3-34.45C215.94,740.35,211.85,725.89,209.67,720.74Z"/><path class="cls-85" d="M209.66,720.74a1,1,0,0,0-1.89,0,100.26,100.26,0,0,0-8.41,40.83c0,26.93,4.9,34.27,4.9,34.27a6.91,6.91,0,0,0,7.35,0s4.28-7.34,4.28-34.27C215.89,740.24,211.84,725.86,209.66,720.74Z"/><path class="cls-86" d="M209.66,720.73a1,1,0,0,0-1.89,0,99.63,99.63,0,0,0-8.38,40.62c0,26.77,4.88,34.07,4.88,34.07a6.87,6.87,0,0,0,7.31,0s4.25-7.3,4.25-34.07C215.83,740.13,211.82,725.82,209.66,720.73Z"/><path class="cls-87" d="M209.65,720.73a1,1,0,0,0-1.87,0,98.93,98.93,0,0,0-8.35,40.39c0,26.62,4.85,33.88,4.85,33.88a6.84,6.84,0,0,0,7.27,0s4.23-7.26,4.23-33.88C215.78,740,211.8,725.79,209.65,720.73Z"/><path class="cls-88" d="M209.65,720.73a1,1,0,0,0-1.87,0,98.4,98.4,0,0,0-8.32,40.16c0,26.48,4.83,33.7,4.83,33.7a6.82,6.82,0,0,0,7.23,0s4.21-7.22,4.21-33.7C215.73,739.91,211.78,725.76,209.65,720.73Z"/><path class="cls-89" d="M209.64,720.72a1,1,0,0,0-1.86,0,97.86,97.86,0,0,0-8.28,39.94c0,26.33,4.8,33.51,4.8,33.51a6.76,6.76,0,0,0,7.18,0s4.19-7.18,4.19-33.51C215.67,739.8,211.76,725.73,209.64,720.72Z"/><path class="cls-89" d="M209.63,720.72a1,1,0,0,0-1.84,0,97.16,97.16,0,0,0-8.25,39.71c0,26.18,4.77,33.32,4.77,33.32a6.72,6.72,0,0,0,7.14,0s4.17-7.14,4.17-33.32C215.62,739.69,211.74,725.7,209.63,720.72Z"/><path class="cls-90" d="M209.63,720.71a1,1,0,0,0-1.84,0,96.47,96.47,0,0,0-8.22,39.49c0,26,4.75,33.14,4.75,33.14a6.69,6.69,0,0,0,7.1,0s4.14-7.1,4.14-33.14C215.56,739.57,211.73,725.66,209.63,720.71Z"/><path class="cls-91" d="M209.62,720.71a.94.94,0,0,0-1.82,0A95.77,95.77,0,0,0,199.61,760c0,25.89,4.72,32.95,4.72,32.95a6.65,6.65,0,0,0,7.06,0s4.12-7.06,4.12-32.95C215.51,739.46,211.71,725.63,209.62,720.71Z"/><path class="cls-92" d="M209.61,720.71a.93.93,0,0,0-1.81,0,95.31,95.31,0,0,0-8.15,39c0,25.73,4.69,32.75,4.69,32.75a6.6,6.6,0,0,0,7,0s4.09-7,4.09-32.75C215.45,739.35,211.69,725.6,209.61,720.71Z"/><path class="cls-93" d="M209.61,720.7a.93.93,0,0,0-1.8,0,94.5,94.5,0,0,0-8.13,38.82c0,25.59,4.67,32.57,4.67,32.57a6.58,6.58,0,0,0,7,0s4.07-7,4.07-32.57C215.4,739.24,211.67,725.57,209.61,720.7Z"/><path class="cls-94" d="M209.6,720.7a.92.92,0,0,0-1.79,0,94,94,0,0,0-8.09,38.59c0,25.44,4.63,32.38,4.63,32.38a6.56,6.56,0,0,0,7,0s4-6.94,4-32.38C215.34,739.13,211.65,725.53,209.6,720.7Z"/><path class="cls-95" d="M209.59,720.69a.92.92,0,0,0-1.78,0,93.44,93.44,0,0,0-8.05,38.37c0,25.3,4.6,32.19,4.6,32.19a6.51,6.51,0,0,0,6.91,0s4-6.89,4-32.19C215.29,739,211.63,725.5,209.59,720.69Z"/><path class="cls-95" d="M209.59,720.69a.91.91,0,0,0-1.77,0,92.68,92.68,0,0,0-8,38.14c0,25.15,4.58,32,4.58,32a6.49,6.49,0,0,0,6.87,0s4-6.86,4-32C215.24,738.91,211.62,725.47,209.59,720.69Z"/><path class="cls-96" d="M209.58,720.69a.91.91,0,0,0-1.76,0,92.21,92.21,0,0,0-8,37.91c0,25,4.55,31.82,4.55,31.82a6.44,6.44,0,0,0,6.83,0s4-6.82,4-31.82C215.18,738.8,211.6,725.44,209.58,720.69Z"/><path class="cls-97" d="M209.58,720.68a.9.9,0,0,0-1.75,0,91.42,91.42,0,0,0-8,37.7c0,24.85,4.52,31.62,4.52,31.62a6.39,6.39,0,0,0,6.79,0s3.95-6.77,3.95-31.62C215.13,738.68,211.58,725.41,209.58,720.68Z"/><path class="cls-98" d="M209.57,720.68a.9.9,0,0,0-1.74,0,90.84,90.84,0,0,0-7.93,37.47c0,24.7,4.5,31.44,4.5,31.44a6.36,6.36,0,0,0,6.74,0s3.93-6.74,3.93-31.44C215.07,738.57,211.56,725.37,209.57,720.68Z"/><path class="cls-99" d="M209.56,720.67a.89.89,0,0,0-1.73,0,90.3,90.3,0,0,0-7.89,37.25c0,24.55,4.47,31.25,4.47,31.25a6.31,6.31,0,0,0,6.7,0s3.91-6.7,3.91-31.25C215,738.46,211.54,725.34,209.56,720.67Z"/><path class="cls-100" d="M209.56,720.67a.89.89,0,0,0-1.72,0,89.55,89.55,0,0,0-7.87,37c0,24.41,4.45,31.06,4.45,31.06a6.27,6.27,0,0,0,6.66,0S215,782.1,215,757.69C215,738.35,211.52,725.31,209.56,720.67Z"/><path class="cls-100" d="M209.55,720.67a.88.88,0,0,0-1.71,0A89.08,89.08,0,0,0,200,757.46c0,24.26,4.42,30.88,4.42,30.88a6.24,6.24,0,0,0,6.62,0s3.86-6.62,3.86-30.88C214.91,738.24,211.51,725.28,209.55,720.67Z"/><path class="cls-101" d="M209.54,720.66a.87.87,0,0,0-1.69,0,88.32,88.32,0,0,0-7.8,36.57c0,24.11,4.39,30.69,4.39,30.69a6.2,6.2,0,0,0,6.58,0s3.83-6.58,3.83-30.69C214.85,738.13,211.49,725.25,209.54,720.66Z"/><path class="cls-102" d="M209.54,720.66a.87.87,0,0,0-1.69,0A87.76,87.76,0,0,0,200.08,757c0,24,4.37,30.49,4.37,30.49a6.15,6.15,0,0,0,6.54,0S214.8,781,214.8,757C214.8,738,211.47,725.21,209.54,720.66Z"/><path class="cls-103" d="M209.53,720.65a.87.87,0,0,0-1.68,0,87.22,87.22,0,0,0-7.73,36.13c0,23.81,4.34,30.31,4.34,30.31a6.13,6.13,0,0,0,6.5,0s3.79-6.5,3.79-30.31C214.75,737.91,211.45,725.18,209.53,720.65Z"/><path class="cls-104" d="M209.52,720.65a.85.85,0,0,0-1.66,0,86.48,86.48,0,0,0-7.7,35.9c0,23.67,4.31,30.12,4.31,30.12a6.09,6.09,0,0,0,6.46,0s3.76-6.45,3.76-30.12C214.69,737.79,211.43,725.15,209.52,720.65Z"/><path class="cls-105" d="M209.52,720.64a.86.86,0,0,0-1.66,0,86.06,86.06,0,0,0-7.67,35.68c0,23.52,4.29,29.93,4.29,29.93a6,6,0,0,0,6.42,0s3.74-6.41,3.74-29.93C214.64,737.68,211.42,725.12,209.52,720.64Z"/><path class="cls-106" d="M209.51,720.64a.85.85,0,0,0-1.64,0,85.15,85.15,0,0,0-7.64,35.45c0,23.37,4.26,29.75,4.26,29.75a6,6,0,0,0,6.38,0s3.71-6.38,3.71-29.75C214.58,737.57,211.4,725.08,209.51,720.64Z"/><path class="cls-107" d="M209.51,720.64a.85.85,0,0,0-1.64,0,84.67,84.67,0,0,0-7.6,35.22c0,23.23,4.23,29.56,4.23,29.56a6,6,0,0,0,6.34,0s3.69-6.33,3.69-29.56C214.53,737.46,211.38,725.05,209.51,720.64Z"/><path class="cls-108" d="M209.5,720.63a.84.84,0,0,0-1.63,0,84.09,84.09,0,0,0-7.57,35c0,23.08,4.21,29.37,4.21,29.37a5.93,5.93,0,0,0,6.3,0s3.66-6.29,3.66-29.37C214.47,737.35,211.36,725,209.5,720.63Z"/><path class="cls-109" d="M209.49,720.63a.83.83,0,0,0-1.61,0,83.41,83.41,0,0,0-7.54,34.78c0,22.92,4.18,29.18,4.18,29.18a5.89,5.89,0,0,0,6.25,0s3.65-6.26,3.65-29.18C214.42,737.24,211.34,725,209.49,720.63Z"/><path class="cls-110" d="M209.49,720.62a.83.83,0,0,0-1.61,0,83,83,0,0,0-7.5,34.56c0,22.78,4.15,29,4.15,29a5.84,5.84,0,0,0,6.21,0s3.63-6.21,3.63-29C214.37,737.13,211.32,725,209.49,720.62Z"/><path class="cls-111" d="M209.48,720.62a.82.82,0,0,0-1.59,0A82.09,82.09,0,0,0,200.41,755c0,22.63,4.13,28.8,4.13,28.8a5.79,5.79,0,0,0,6.17,0s3.6-6.17,3.6-28.8C214.31,737,211.31,724.92,209.48,720.62Z"/><path class="cls-112" d="M209.47,720.62a.81.81,0,0,0-1.58,0,81.61,81.61,0,0,0-7.44,34.1c0,22.48,4.09,28.62,4.09,28.62a5.79,5.79,0,0,0,6.14,0s3.58-6.14,3.58-28.62C214.26,736.91,211.29,724.89,209.47,720.62Z"/><path class="cls-113" d="M209.47,720.61a.81.81,0,0,0-1.57,0,80.81,80.81,0,0,0-7.41,33.88c0,22.34,4.06,28.43,4.06,28.43a5.75,5.75,0,0,0,6.1,0s3.55-6.09,3.55-28.43C214.2,736.79,211.27,724.86,209.47,720.61Z"/><path class="cls-114" d="M209.46,720.61a.8.8,0,0,0-1.56,0,80.28,80.28,0,0,0-7.38,33.65c0,22.19,4,28.24,4,28.24a5.7,5.7,0,0,0,6.06,0s3.53-6,3.53-28.24C214.15,736.68,211.25,724.83,209.46,720.61Z"/><path class="cls-115" d="M209.46,720.6a.81.81,0,0,0-1.56,0A79.88,79.88,0,0,0,200.56,754c0,22,4,28.05,4,28.05a5.68,5.68,0,0,0,6,0s3.5-6,3.5-28.05C214.09,736.57,211.23,724.79,209.46,720.6Z"/><path class="cls-115" d="M209.45,720.6a.79.79,0,0,0-1.54,0,79,79,0,0,0-7.32,33.21c0,21.89,4,27.86,4,27.86a5.63,5.63,0,0,0,6,0s3.48-6,3.48-27.86C214,736.46,211.21,724.76,209.45,720.6Z"/><path class="cls-116" d="M209.44,720.6a.79.79,0,0,0-1.53,0,78.5,78.5,0,0,0-7.28,33c0,21.74,4,27.67,4,27.67a5.59,5.59,0,0,0,5.94,0s3.45-5.93,3.45-27.67C214,736.35,211.2,724.73,209.44,720.6Z"/><path class="cls-117" d="M209.44,720.59a.78.78,0,0,0-1.52,0,77.76,77.76,0,0,0-7.25,32.76c0,21.6,3.93,27.49,3.93,27.49a5.57,5.57,0,0,0,5.9,0s3.43-5.89,3.43-27.49C213.93,736.24,211.18,724.7,209.44,720.59Z"/><path class="cls-118" d="M209.43,720.59a.78.78,0,0,0-1.51,0,77.23,77.23,0,0,0-7.22,32.53c0,21.45,3.91,27.3,3.91,27.3a5.52,5.52,0,0,0,5.86,0s3.41-5.85,3.41-27.3C213.88,736.13,211.16,724.67,209.43,720.59Z"/><path class="cls-119" d="M209.42,720.58a.78.78,0,0,0-1.5,0,76.81,76.81,0,0,0-7.18,32.31c0,21.3,3.88,27.11,3.88,27.11a5.46,5.46,0,0,0,5.81,0s3.39-5.81,3.39-27.11C213.82,736,211.14,724.63,209.42,720.58Z"/><path class="cls-120" d="M209.42,720.58a.77.77,0,0,0-1.49,0,75.93,75.93,0,0,0-7.15,32.09c0,21.15,3.85,26.92,3.85,26.92a5.44,5.44,0,0,0,5.77,0s3.37-5.77,3.37-26.92C213.77,735.9,211.12,724.6,209.42,720.58Z"/><path class="cls-121" d="M209.41,720.58a.76.76,0,0,0-1.48,0,75.4,75.4,0,0,0-7.12,31.86c0,21,3.83,26.73,3.83,26.73a5.39,5.39,0,0,0,5.73,0s3.34-5.73,3.34-26.73C213.71,735.79,211.1,724.57,209.41,720.58Z"/><path class="cls-122" d="M209.4,720.57a.75.75,0,0,0-1.46,0,74.66,74.66,0,0,0-7.09,31.64c0,20.86,3.8,26.54,3.8,26.54a5.35,5.35,0,0,0,5.69,0s3.32-5.68,3.32-26.54C213.66,735.68,211.09,724.54,209.4,720.57Z"/><path class="cls-123" d="M209.4,720.57a.75.75,0,0,0-1.46,0A74.13,74.13,0,0,0,200.89,752c0,20.71,3.77,26.36,3.77,26.36a5.32,5.32,0,0,0,5.65,0s3.29-5.65,3.29-26.36C213.6,735.57,211.07,724.5,209.4,720.57Z"/><path class="cls-124" d="M209.39,720.56a.75.75,0,0,0-1.45,0,73.71,73.71,0,0,0-7,31.19c0,20.56,3.75,26.17,3.75,26.17a5.28,5.28,0,0,0,5.61,0s3.27-5.61,3.27-26.17C213.55,735.46,211.05,724.47,209.39,720.56Z"/><path class="cls-124" d="M209.39,720.56a.74.74,0,0,0-1.44,0,72.87,72.87,0,0,0-7,31c0,20.42,3.72,26,3.72,26a5.23,5.23,0,0,0,5.57,0s3.25-5.56,3.25-26C213.5,735.35,211,724.44,209.39,720.56Z"/><path class="cls-1" d="M202.46,835a188.47,188.47,0,0,1-4.47-22.7,218.19,218.19,0,0,1-2-23.6,174.57,174.57,0,0,1,1.26-27.54c.23-1.78.16-5.31,1.94-6.06,3.23-1.36,10.16,6.92,13.45,12.18,0,0,2.18,3.5,3.28,13.82a139.45,139.45,0,0,1,.44,21,303.73,303.73,0,0,1-3.61,33.79h0C211.4,835.62,208.24,838.47,202.46,835Z"/><path class="cls-2" d="M202.44,834.44A185.91,185.91,0,0,1,198,811.89a215.39,215.39,0,0,1-2-23.44,173.1,173.1,0,0,1,1.26-27.53c.23-1.79.16-5.29,1.93-6.06,3.21-1.4,10.07,6.8,13.32,12.07,0,0,2.16,3.51,3.25,13.74a142.09,142.09,0,0,1,.43,20.9,301.08,301.08,0,0,1-3.58,33.78h0C211.31,835.11,208.17,837.94,202.44,834.44Z"/><path class="cls-3" d="M202.42,833.93A186.84,186.84,0,0,1,198,811.54a215.72,215.72,0,0,1-2-23.29,172.78,172.78,0,0,1,1.25-27.52c.23-1.8.18-5.28,1.93-6.07,3.19-1.43,10,6.69,13.19,12,0,.06,2.13,3.52,3.21,13.66a141.67,141.67,0,0,1,.43,20.76,300.64,300.64,0,0,1-3.54,33.79h0C211.21,834.59,208.11,837.4,202.42,833.93Z"/><path class="cls-4" d="M202.4,833.42a185.28,185.28,0,0,1-4.34-22.24,213.09,213.09,0,0,1-2-23.13,172.46,172.46,0,0,1,1.24-27.51c.24-1.81.19-5.26,1.93-6.07,3.17-1.46,9.87,6.57,13.06,11.86,0,.08,2.1,3.54,3.17,13.57a141.43,141.43,0,0,1,.43,20.63,298.16,298.16,0,0,1-3.51,33.79h0C211.12,834.08,208,836.87,202.4,833.42Z"/><path class="cls-125" d="M202.37,832.92a185.65,185.65,0,0,1-4.29-22.1,213.22,213.22,0,0,1-2-23,171,171,0,0,1,1.24-27.5c.24-1.81.19-5.25,1.92-6.07,3.16-1.5,9.78,6.45,12.92,11.75,0,.11,2.09,3.55,3.14,13.49a141.11,141.11,0,0,1,.43,20.5,296.25,296.25,0,0,1-3.48,33.79h0C211,833.57,208,836.33,202.37,832.92Z"/><path class="cls-5" d="M202.35,832.41a186.59,186.59,0,0,1-4.25-21.95,212.92,212.92,0,0,1-1.94-22.81,171.88,171.88,0,0,1,1.23-27.49c.24-1.82.21-5.24,1.92-6.07,3.14-1.54,9.68,6.34,12.79,11.64,0,.13,2.06,3.56,3.1,13.4a139.74,139.74,0,0,1,.42,20.37,291.3,291.3,0,0,1-3.43,33.79h0C210.93,833.05,207.91,835.8,202.35,832.41Z"/><path class="cls-6" d="M202.33,831.9a185.09,185.09,0,0,1-4.21-21.79,218.51,218.51,0,0,1-1.93-22.66A171.6,171.6,0,0,1,197.42,760c.25-1.83.22-5.22,1.92-6.07,3.12-1.57,9.58,6.22,12.66,11.53,0,.16,2,3.58,3.06,13.32a142.37,142.37,0,0,1,.42,20.24,296.37,296.37,0,0,1-3.4,33.79h0C210.83,832.54,207.84,835.26,202.33,831.9Z"/><path class="cls-7" d="M202.31,831.39a185,185,0,0,1-4.16-21.64,215.6,215.6,0,0,1-1.92-22.5,170.18,170.18,0,0,1,1.23-27.47c.24-1.84.23-5.21,1.9-6.07,3.11-1.61,9.5,6.1,12.54,11.42,0,.19,2,3.59,3,13.23a144,144,0,0,1,.41,20.11A296.18,296.18,0,0,1,212,832.26h0C210.74,832,207.77,834.73,202.31,831.39Z"/><path class="cls-8" d="M202.29,830.88a183.44,183.44,0,0,1-4.12-21.49,212.89,212.89,0,0,1-1.9-22.34,171,171,0,0,1,1.22-27.46c.25-1.85.24-5.2,1.9-6.08,3.1-1.64,9.4,6,12.41,11.32,0,.21,2,3.6,3,13.15a145.19,145.19,0,0,1,.41,20,294.63,294.63,0,0,1-3.33,33.8h0C210.64,831.51,207.71,834.19,202.29,830.88Z"/><path class="cls-8" d="M202.26,830.38A184,184,0,0,1,198.19,809a213.59,213.59,0,0,1-1.88-22.19,170.67,170.67,0,0,1,1.21-27.45c.25-1.85.26-5.18,1.9-6.08,3.08-1.68,9.3,5.87,12.28,11.21,0,.24,2,3.62,3,13.07a145,145,0,0,1,.41,19.84,294.94,294.94,0,0,1-3.29,33.79h0C210.55,831,207.64,833.66,202.26,830.38Z"/><path class="cls-9" d="M202.24,829.87a185,185,0,0,1-4-21.19,213.66,213.66,0,0,1-1.86-22,169.38,169.38,0,0,1,1.21-27.45c.25-1.86.26-5.17,1.89-6.08,3.06-1.72,9.21,5.76,12.14,11.1,0,.27,1.95,3.63,2.92,13a143.46,143.46,0,0,1,.4,19.71,293.44,293.44,0,0,1-3.25,33.8h0C210.45,830.49,207.57,833.12,202.24,829.87Z"/><path class="cls-9" d="M202.22,829.36a183.45,183.45,0,0,1-4-21,213.72,213.72,0,0,1-1.84-21.86,169.09,169.09,0,0,1,1.2-27.44c.25-1.87.28-5.16,1.89-6.08,3.05-1.76,9.11,5.64,12,11,0,.29,1.92,3.64,2.88,12.9a144.81,144.81,0,0,1,.4,19.57,293.73,293.73,0,0,1-3.21,33.8h0C210.36,830,207.51,832.59,202.22,829.36Z"/><path class="cls-10" d="M202.2,828.85A181.86,181.86,0,0,1,198.25,808a213.81,213.81,0,0,1-1.82-21.7,168.8,168.8,0,0,1,1.19-27.43c.26-1.88.29-5.14,1.89-6.08,3-1.79,9,5.52,11.88,10.88,0,.32,1.92,3.65,2.84,12.81a143.14,143.14,0,0,1,.4,19.45,292.65,292.65,0,0,1-3.18,33.8h0C210.26,829.46,207.44,832.05,202.2,828.85Z"/><path class="cls-11" d="M202.17,828.34a183.53,183.53,0,0,1-3.89-20.73,208.49,208.49,0,0,1-1.81-21.55,168.53,168.53,0,0,1,1.19-27.42c.26-1.88.3-5.13,1.88-6.09,3-1.82,8.92,5.41,11.75,10.78,0,.34,1.89,3.67,2.81,12.73a146.49,146.49,0,0,1,.39,19.31,295.62,295.62,0,0,1-3.14,33.8h0C210.17,829,207.37,831.52,202.17,828.34Z"/><path class="cls-12" d="M202.15,827.84a182.47,182.47,0,0,1-3.85-20.59,208.54,208.54,0,0,1-1.79-21.39,167.13,167.13,0,0,1,1.18-27.41c.26-1.89.31-5.12,1.87-6.09,3-1.86,8.83,5.29,11.63,10.67,0,.37,1.87,3.68,2.77,12.64a146.42,146.42,0,0,1,.39,19.18,294.67,294.67,0,0,1-3.11,33.81h0C210.07,828.44,207.31,831,202.15,827.84Z"/><path class="cls-13" d="M202.13,827.33a180.88,180.88,0,0,1-3.81-20.44,208.62,208.62,0,0,1-1.77-21.23,165.78,165.78,0,0,1,1.18-27.4c.26-1.9.32-5.11,1.86-6.09,3-1.9,8.74,5.18,11.5,10.56,0,.4,1.84,3.69,2.73,12.56a144.49,144.49,0,0,1,.39,19.05,295.46,295.46,0,0,1-3.07,33.8h0C210,827.92,207.24,830.45,202.13,827.33Z"/><path class="cls-126" d="M202.11,826.82a182.1,182.1,0,0,1-3.77-20.29,208.73,208.73,0,0,1-1.75-21.07,166.59,166.59,0,0,1,1.17-27.39c.26-1.91.33-5.09,1.86-6.09,3-1.94,8.64,5.06,11.36,10.45,0,.42,1.83,3.71,2.7,12.48a142.79,142.79,0,0,1,.38,18.91,292.23,292.23,0,0,1-3,33.81h0C209.88,827.41,207.17,829.91,202.11,826.82Z"/><path class="cls-14" d="M202.08,826.31a182.25,182.25,0,0,1-3.72-20.13c-.81-6.09-1.49-13.23-1.74-20.92a167.44,167.44,0,0,1,1.17-27.38c.27-1.91.35-5.08,1.86-6.09,3-2,8.54,4.94,11.23,10.34a44.1,44.1,0,0,1,2.66,12.39,144.59,144.59,0,0,1,.38,18.79,295.68,295.68,0,0,1-3,33.8h0C209.79,826.9,207.11,829.38,202.08,826.31Z"/><path class="cls-15" d="M202.06,825.81a180,180,0,0,1-3.67-20,206.38,206.38,0,0,1-1.73-20.76,166.08,166.08,0,0,1,1.17-27.37c.26-1.92.35-5.07,1.85-6.1,2.94-2,8.45,4.83,11.1,10.24a44.65,44.65,0,0,1,2.62,12.31,144.38,144.38,0,0,1,.38,18.65,295.14,295.14,0,0,1-3,33.81h0C209.69,826.38,207,828.84,202.06,825.81Z"/><path class="cls-15" d="M202,825.3a181.31,181.31,0,0,1-3.63-19.84c-.79-6-1.47-13-1.71-20.6a165.8,165.8,0,0,1,1.16-27.36c.27-1.93.37-5.06,1.85-6.1,2.92-2,8.35,4.72,11,10.13a45.25,45.25,0,0,1,2.59,12.22,146.51,146.51,0,0,1,.37,18.52,296.38,296.38,0,0,1-2.92,33.81h0C209.6,825.87,207,828.31,202,825.3Z"/><path class="cls-16" d="M202,824.79a179.71,179.71,0,0,1-3.59-19.69c-.78-6-1.45-12.92-1.69-20.44a165.53,165.53,0,0,1,1.15-27.35c.28-1.94.38-5,1.85-6.1,2.91-2.09,8.25,4.6,10.84,10a46.49,46.49,0,0,1,2.55,12.14,148.35,148.35,0,0,1,.37,18.39,293.79,293.79,0,0,1-2.89,33.81h0C209.5,825.36,206.91,827.77,202,824.79Z"/><path class="cls-18" d="M202,824.28a179.92,179.92,0,0,1-3.54-19.53c-.77-5.91-1.43-12.83-1.67-20.29a165.27,165.27,0,0,1,1.15-27.34c.27-1.94.39-5,1.83-6.1,2.9-2.13,9.14,4.12,10.72,9.91.14.54,1.71,3.77,2.51,12.05a144.8,144.8,0,0,1,.36,18.26,295.48,295.48,0,0,1-2.84,33.81h0C209.41,824.84,206.84,827.24,202,824.28Z"/><path class="cls-127" d="M202,823.77a181.37,181.37,0,0,1-3.5-19.38c-.76-5.87-1.41-12.73-1.65-20.13A163.93,163.93,0,0,1,198,756.93c.28-1.95.4-5,1.83-6.1,2.88-2.18,9,4,10.59,9.8.15.56,1.68,3.78,2.47,12a144.59,144.59,0,0,1,.36,18.12,295.34,295.34,0,0,1-2.81,33.82h0C209.31,824.33,206.77,826.7,202,823.77Z"/><path class="cls-19" d="M202,823.27A180.32,180.32,0,0,1,198.49,804c-.75-5.82-1.4-12.63-1.63-20A163.66,163.66,0,0,1,198,756.74c.28-2,.41-5,1.83-6.11,2.87-2.21,8.91,3.92,10.45,9.7.16.59,1.67,3.8,2.44,11.89a146.48,146.48,0,0,1,.36,18A297.08,297.08,0,0,1,210.3,824h0C209.22,823.82,206.71,826.17,202,823.27Z"/><path class="cls-128" d="M201.93,822.76a177.43,177.43,0,0,1-3.41-19.09c-.75-5.77-1.39-12.53-1.62-19.8A163.49,163.49,0,0,1,198,756.55c.28-2,.42-5,1.82-6.11,2.85-2.25,8.8,3.81,10.32,9.59.16.62,1.65,3.81,2.4,11.8a146.61,146.61,0,0,1,.36,17.86,297.13,297.13,0,0,1-2.74,33.82h0C209.12,823.31,206.64,825.63,201.93,822.76Z"/><path class="cls-21" d="M201.9,822.25a180.9,180.9,0,0,1-3.36-18.93c-.74-5.73-1.37-12.44-1.6-19.65a162.17,162.17,0,0,1,1.12-27.31c.28-2,.43-5,1.82-6.11,2.83-2.29,8.69,3.7,10.19,9.48.17.64,1.62,3.82,2.37,11.72a146.9,146.9,0,0,1,.35,17.73,301.67,301.67,0,0,1-2.7,33.81h0C209,822.79,206.57,825.1,201.9,822.25Z"/><path class="cls-21" d="M201.88,821.74A179.28,179.28,0,0,1,198.56,803c-.73-5.68-1.35-12.34-1.58-19.49a161.93,161.93,0,0,1,1.12-27.3c.28-2,.44-5,1.81-6.11,2.81-2.33,8.58,3.59,10.06,9.37a44.34,44.34,0,0,1,2.33,11.63,147.32,147.32,0,0,1,.34,17.6c-.33,11.31-1.22,24.71-2.66,33.82h0C208.93,822.28,206.51,824.56,201.88,821.74Z"/><path class="cls-23" d="M201.86,821.23a181,181,0,0,1-3.28-18.63c-.72-5.64-1.33-12.23-1.57-19.33A162.73,162.73,0,0,1,198.13,756c.28-2,.45-5,1.81-6.11,2.8-2.37,8.46,3.49,9.93,9.26a45.23,45.23,0,0,1,2.29,11.55,147.22,147.22,0,0,1,.34,17.46c-.33,11.4-1.21,24.89-2.62,33.82h0C208.84,821.77,206.44,824,201.86,821.23Z"/><path class="cls-23" d="M201.84,820.73a179.92,179.92,0,0,1-3.24-18.49c-.71-5.59-1.32-12.13-1.55-19.17a162.48,162.48,0,0,1,1.11-27.28c.29-2,.47-5,1.8-6.12,2.79-2.41,8.36,3.39,9.81,9.16A45.22,45.22,0,0,1,212,770.3a147.25,147.25,0,0,1,.34,17.33c-.33,11.48-1.21,25.06-2.59,33.82h0C208.74,821.25,206.37,823.49,201.84,820.73Z"/><path class="cls-24" d="M201.81,820.22a180.38,180.38,0,0,1-3.19-18.33c-.7-5.55-1.3-12-1.53-19a161.19,161.19,0,0,1,1.11-27.27c.29-2,.47-5,1.79-6.12,2.77-2.45,8.25,3.28,9.67,9a45.41,45.41,0,0,1,2.22,11.38,147.42,147.42,0,0,1,.34,17.2c-.33,11.57-1.2,25.24-2.55,33.82h0C208.65,820.74,206.31,823,201.81,820.22Z"/><path class="cls-129" d="M201.79,819.71a180.8,180.8,0,0,1-3.14-18.18c-.7-5.5-1.29-11.94-1.52-18.86a160.94,160.94,0,0,1,1.1-27.26c.29-2,.48-4.94,1.79-6.12,2.75-2.49,8.14,3.17,9.54,8.94a45.93,45.93,0,0,1,2.18,11.3,147.36,147.36,0,0,1,.34,17.06c-.32,11.67-1.19,25.42-2.52,33.83h0C208.55,820.23,206.24,822.43,201.79,819.71Z"/><path class="cls-27" d="M201.77,819.2a179.17,179.17,0,0,1-3.1-18c-.68-5.46-1.27-11.84-1.5-18.7a159.67,159.67,0,0,1,1.09-27.25c.29-2,.5-4.93,1.79-6.12,2.74-2.54,8,3.06,9.41,8.83a47.3,47.3,0,0,1,2.15,11.21,148.43,148.43,0,0,1,.32,16.94c-.31,11.75-1.17,25.59-2.47,33.82h0C208.46,819.71,206.17,821.89,201.77,819.2Z"/><path class="cls-27" d="M201.75,818.69a177.54,177.54,0,0,1-3.06-17.88c-.67-5.41-1.26-11.74-1.48-18.54A158.37,158.37,0,0,1,198.3,755c.29-2,.5-4.92,1.78-6.12,2.72-2.58,7.91,3,9.28,8.72a47.09,47.09,0,0,1,2.11,11.13,150.83,150.83,0,0,1,.32,16.8c-.31,11.84-1.17,25.77-2.44,33.83h0C208.36,819.2,206.11,821.36,201.75,818.69Z"/><path class="cls-28" d="M201.72,818.19s-1.68-7.07-3-17.73c-.66-5.37-1.24-11.65-1.46-18.39a157.18,157.18,0,0,1,1.08-27.23c.29-2,.52-4.91,1.78-6.13,2.7-2.61,7.8,2.86,9.15,8.62a48.4,48.4,0,0,1,2.07,11,148.7,148.7,0,0,1,.32,16.67c-.31,11.93-1.16,26-2.4,33.83h0C208.27,818.69,206,820.82,201.72,818.19Z"/><path class="cls-130" d="M201.7,817.68s-1.66-7-3-17.58c-.65-5.32-1.22-11.54-1.44-18.23a157.94,157.94,0,0,1,1.07-27.22c.3-2,.53-4.9,1.78-6.13,2.68-2.66,7.68,2.75,9,8.51a49,49,0,0,1,2,11,148.93,148.93,0,0,1,.32,16.54c-.31,12-1.15,26.12-2.37,33.83h0C208.17,818.17,206,820.29,201.7,817.68Z"/><path class="cls-131" d="M201.68,817.17s-1.64-6.95-2.92-17.43c-.65-5.27-1.21-11.44-1.43-18.07a156.71,156.71,0,0,1,1.07-27.21c.29-2.05.53-4.89,1.76-6.13,2.67-2.7,7.58,2.64,8.89,8.4a49,49,0,0,1,2,10.88,151.54,151.54,0,0,1,.32,16.4c-.31,12.11-1.14,26.3-2.33,33.83h0C208.08,817.66,205.91,819.75,201.68,817.17Z"/><path class="cls-30" d="M201.66,816.66s-1.61-6.89-2.88-17.28c-.64-5.23-1.19-11.34-1.41-17.91a157.48,157.48,0,0,1,1.06-27.2c.3-2.06.55-4.88,1.76-6.13,2.66-2.74,7.47,2.53,8.76,8.29a49.74,49.74,0,0,1,2,10.79,147.32,147.32,0,0,1,.31,16.28c-.29,12.19-1.13,26.47-2.29,33.83h0C208,817.15,205.84,819.22,201.66,816.66Z"/><path class="cls-32" d="M201.63,816.16s-1.58-6.84-2.83-17.13c-.63-5.19-1.18-11.25-1.39-17.76a156.26,156.26,0,0,1,1.05-27.19c.31-2.06.56-4.87,1.76-6.13,2.64-2.79,7.35,2.42,8.63,8.18a51.43,51.43,0,0,1,1.93,10.71,153.07,153.07,0,0,1,.3,16.14c-.29,12.28-1.12,26.65-2.25,33.83h0C207.89,816.64,205.77,818.68,201.63,816.16Z"/><path class="cls-132" d="M201.61,815.65s-1.56-6.78-2.79-17c-.62-5.14-1.16-11.15-1.38-17.59a156.1,156.1,0,0,1,1.06-27.19c.3-2.07.57-4.86,1.75-6.14,2.62-2.82,7.24,2.32,8.5,8.08a51.85,51.85,0,0,1,1.89,10.62,153.56,153.56,0,0,1,.3,16c-.29,12.38-1.11,26.83-2.22,33.84h0C207.79,816.12,205.71,818.15,201.61,815.65Z"/><path class="cls-33" d="M201.59,815.14s-1.53-6.72-2.75-16.83c-.61-5.09-1.14-11-1.36-17.43a156.86,156.86,0,0,1,1.05-27.18c.31-2.08.58-4.85,1.75-6.14,2.6-2.87,7.13,2.21,8.37,8a52.64,52.64,0,0,1,1.85,10.54,151.16,151.16,0,0,1,.3,15.88c-.29,12.46-1.1,27-2.18,33.83h0C207.7,815.61,205.64,817.61,201.59,815.14Z"/><path class="cls-133" d="M201.57,814.63S200.06,808,198.86,798c-.6-5.05-1.12-11-1.34-17.27a155.64,155.64,0,0,1,1-27.17c.3-2.09.58-4.84,1.74-6.14,2.58-2.91,7,2.1,8.24,7.86a53.24,53.24,0,0,1,1.81,10.45,154.51,154.51,0,0,1,.3,15.75c-.28,12.55-1.1,27.18-2.15,33.84h0C207.6,815.1,205.57,817.08,201.57,814.63Z"/><path class="cls-36" d="M201.55,814.12s-1.49-6.6-2.66-16.52c-.6-5-1.11-10.86-1.33-17.12a154.45,154.45,0,0,1,1-27.16c.31-2.09.6-4.83,1.74-6.14,2.56-3,6.9,2,8.11,7.75a54.55,54.55,0,0,1,1.77,10.37,154.85,154.85,0,0,1,.3,15.61c-.28,12.64-1.09,27.36-2.11,33.84h0C207.51,814.58,205.51,816.54,201.55,814.12Z"/><path class="cls-134" d="M201.52,813.62s-1.45-6.55-2.61-16.38c-.59-5-1.1-10.75-1.31-17a155.2,155.2,0,0,1,1-27.15c.31-2.1.61-4.82,1.73-6.14,2.55-3,6.8,1.88,8,7.64a54,54,0,0,1,1.74,10.29,149.87,149.87,0,0,1,.29,15.48c-.27,12.73-1.07,27.53-2.07,33.84h0C207.41,814.07,205.44,816,201.52,813.62Z"/><path class="cls-37" d="M201.5,813.11s-1.43-6.49-2.57-16.23c-.58-4.91-1.08-10.65-1.29-16.8a154,154,0,0,1,1-27.14c.31-2.11.61-4.81,1.72-6.14,2.53-3,6.68,1.77,7.85,7.53a56.06,56.06,0,0,1,1.71,10.2c.33,4.13.41,9.23.28,15.35-.27,12.82-1.07,27.71-2,33.84h0C207.32,813.56,205.38,815.47,201.5,813.11Z"/><path class="cls-38" d="M201.48,812.6s-1.41-6.43-2.53-16.08c-.56-4.86-1.06-10.55-1.27-16.64a153.8,153.8,0,0,1,1-27.13c.31-2.12.62-4.8,1.72-6.15,2.51-3.08,6.57,1.67,7.72,7.43a56.48,56.48,0,0,1,1.67,10.12c.33,4.1.4,9.16.28,15.21-.26,12.91-1.06,27.89-2,33.85h0C207.22,813,205.31,814.94,201.48,812.6Z"/><path class="cls-39" d="M201.46,812.09s-1.38-6.37-2.49-15.92c-.55-4.83-1-10.46-1.25-16.49a153.59,153.59,0,0,1,1-27.12c.32-2.13.64-4.79,1.72-6.15,2.49-3.13,6.46,1.56,7.59,7.32a58.15,58.15,0,0,1,1.63,10c.33,4.08.4,9.1.28,15.09-.26,13-1,28.06-2,33.84h0C207.13,812.53,205.24,814.4,201.46,812.09Z"/><path class="cls-41" d="M201.43,811.58s-1.35-6.31-2.44-15.77c-.54-4.78-1-10.36-1.23-16.33-.34-9-.24-18.79,1-27.11.32-2.13.64-4.78,1.71-6.15,2.47-3.17,6.34,1.45,7.46,7.21a58.78,58.78,0,0,1,1.59,10c.32,4,.39,9,.28,15-.26,13.09-1,28.24-1.93,33.85h0C207,812,205.18,813.87,201.43,811.58Z"/><path class="cls-135" d="M201.41,811.08s-1.33-6.26-2.39-15.63c-.54-4.73-1-10.26-1.22-16.17a154.11,154.11,0,0,1,1-27.1c.33-2.14.65-4.77,1.71-6.15,2.45-3.22,6.23,1.33,7.33,7.1a60.58,60.58,0,0,1,1.55,9.86c.32,4,.38,9,.27,14.83-.24,13.17-1,28.41-1.88,33.84h0C206.94,811.51,205.11,813.33,201.41,811.08Z"/><path class="cls-42" d="M201.39,810.57s-1.3-6.2-2.35-15.48c-.53-4.68-1-10.16-1.21-16a154.86,154.86,0,0,1,1-27.09c.33-2.15.67-4.76,1.71-6.15,2.43-3.26,6.12,1.22,7.19,7a59.45,59.45,0,0,1,1.52,9.78c.31,4,.38,8.9.27,14.69-.24,13.26-1,28.59-1.85,33.85h0C206.84,811,205,812.8,201.39,810.57Z"/><path class="cls-44" d="M201.37,810.06s-1.28-6.14-2.31-15.32c-.52-4.65-1-10.06-1.19-15.86-.34-9-.23-18.83,1-27.08.33-2.15.67-4.75,1.69-6.16,2.42-3.3,6,1.12,7.07,6.89a62,62,0,0,1,1.49,9.7c.3,4,.36,8.83.26,14.55-.24,13.36-1,28.77-1.81,33.85h0C206.75,810.48,205,812.26,201.37,810.06Z"/><path class="cls-136" d="M201.34,809.55s-1.24-6.08-2.26-15.17c-.51-4.6-1-10-1.17-15.7-.34-9-.23-18.85,1-27.07.33-2.16.68-4.74,1.69-6.16,2.4-3.34,5.9,1,6.94,6.78a62.58,62.58,0,0,1,1.45,9.61c.3,4,.36,8.77.26,14.43-.23,13.44-1,28.94-1.78,33.85h0C206.65,810,204.91,811.73,201.34,809.55Z"/><path class="cls-46" d="M201.32,809s-1.22-6-2.22-15c-.5-4.55-.94-9.86-1.15-15.54-.34-9-.24-18.86,1-27.06.33-2.17.68-4.73,1.68-6.16,2.37-3.39,5.79.9,6.81,6.67a66,66,0,0,1,1.41,9.53c.29,3.93.35,8.71.26,14.29-.23,13.53-1,29.12-1.74,33.85h0C206.56,809.45,204.84,811.19,201.32,809Z"/><path class="cls-46" d="M201.3,808.54s-1.2-6-2.18-14.88c-.49-4.5-.93-9.76-1.13-15.37-.35-9-.25-18.89,1-27.06.33-2.18.7-4.72,1.68-6.16,2.35-3.44,5.67.79,6.68,6.56a68.27,68.27,0,0,1,1.37,9.44c.29,3.91.34,8.65.25,14.16-.22,13.62-1,29.3-1.7,33.86h0C206.46,808.94,204.78,810.66,201.3,808.54Z"/><path class="cls-47" d="M201.28,808s-1.17-5.91-2.13-14.72c-.49-4.46-.92-9.67-1.12-15.22-.35-9-.25-18.9,1-27.05.34-2.18.71-4.71,1.68-6.16,2.33-3.48,5.56.67,6.55,6.45a68.83,68.83,0,0,1,1.33,9.36c.29,3.88.34,8.58.25,14-.21,13.71-1,29.47-1.66,33.85h0C206.37,808.43,204.71,810.12,201.28,808Z"/><path class="cls-48" d="M201.25,807.52s-1.14-5.85-2.08-14.57c-.48-4.42-.9-9.57-1.1-15.06-.35-9-.26-18.92,1-27,.34-2.19.71-4.71,1.67-6.17,2.31-3.52,5.45.57,6.42,6.35a71.15,71.15,0,0,1,1.29,9.28c.28,3.86.33,8.51.25,13.89-.21,13.8-1,29.65-1.63,33.86h0C206.27,807.91,204.64,809.59,201.25,807.52Z"/><path class="cls-137" d="M201.23,807s-1.12-5.79-2-14.42c-.47-4.37-.88-9.47-1.08-14.9-.35-9-.27-18.93,1-27,.34-2.2.72-4.7,1.67-6.17,2.28-3.56,5.33.46,6.28,6.24a70.56,70.56,0,0,1,1.27,9.19c.27,3.84.32,8.45.24,13.76-.2,13.89-1,29.83-1.59,33.86h0C206.18,807.4,204.58,809.05,201.23,807Z"/><path class="cls-49" d="M201.21,806.5s-1.09-5.73-2-14.26c-.46-4.33-.86-9.37-1.06-14.75-.36-9-.27-19,.95-27,.35-2.21.73-4.69,1.66-6.17,2.27-3.61,5.23.35,6.16,6.13a72.6,72.6,0,0,1,1.23,9.11c.26,3.81.31,8.38.24,13.63-.2,14-.95,30-1.56,33.86h0C206.08,806.89,204.51,808.52,201.21,806.5Z"/><path class="cls-50" d="M201.19,806s-1.07-5.68-2-14.12c-.44-4.28-.85-9.27-1-14.59-.36-9-.28-19,.95-27,.34-2.22.74-4.68,1.65-6.17,2.25-3.66,5.11.23,6,6a75.08,75.08,0,0,1,1.19,9c.26,3.79.3,8.32.23,13.5-.18,14.07-.93,30.19-1.51,33.86h0C206,806.37,204.44,808,201.19,806Z"/><path class="cls-51" d="M201.16,805.49s-1-5.62-1.9-14c-.44-4.24-.84-9.17-1-14.43-.35-9-.28-19,.95-27,.35-2.22.75-4.67,1.65-6.17,2.23-3.7,5,.12,5.9,5.91a78,78,0,0,1,1.15,8.94c.25,3.76.3,8.25.23,13.37-.18,14.15-.93,30.36-1.48,33.86h0C205.89,805.86,204.38,807.45,201.16,805.49Z"/><path class="cls-52" d="M201.14,805s-1-5.56-1.86-13.82c-.43-4.19-.82-9.07-1-14.27-.35-9-.28-19,.94-27,.35-2.23.76-4.66,1.65-6.18,2.2-3.74,4.89,0,5.77,5.81a80.37,80.37,0,0,1,1.11,8.85c.25,3.74.29,8.19.23,13.24-.17,14.24-.92,30.54-1.44,33.86h0C205.8,805.35,204.31,806.91,201.14,805Z"/><path class="cls-54" d="M201.12,804.47s-1-5.5-1.82-13.66c-.42-4.15-.8-9-1-14.12-.36-9-.29-19,.94-27a19.67,19.67,0,0,1,1.64-6.18c2.18-3.78,4.77-.1,5.64,5.7a83.16,83.16,0,0,1,1.07,8.77c.25,3.72.29,8.12.23,13.1-.17,14.33-.91,30.72-1.41,33.87h0C205.7,804.84,204.24,806.38,201.12,804.47Z"/><path class="cls-54" d="M201.1,804s-1-5.45-1.78-13.52c-.41-4.1-.79-8.88-1-14-.36-9-.29-19,.93-27a20,20,0,0,1,1.64-6.18c2.15-3.83,4.66-.21,5.5,5.59a81.75,81.75,0,0,1,1.05,8.69c.23,3.69.27,8,.22,13-.16,14.42-.9,30.89-1.37,33.86h0C205.61,804.32,204.18,805.84,201.1,804Z"/><path class="cls-55" d="M201.07,803.46s-.93-5.39-1.73-13.37c-.4-4.05-.77-8.78-1-13.8-.36-9-.3-19,.93-27a20.32,20.32,0,0,1,1.63-6.18c2.13-3.88,4.54-.32,5.37,5.48.23,1.62.74,4.31,1,8.6.23,3.67.27,8,.22,12.84-.16,14.51-.9,31.07-1.34,33.87h0C205.51,803.81,204.11,805.31,201.07,803.46Z"/><path class="cls-56" d="M201.05,803s-.91-5.33-1.69-13.22c-.39-4-.75-8.67-.94-13.64-.37-9-.31-19.05.92-27A21.23,21.23,0,0,1,201,743c2.12-3.92,4.44-.44,5.25,5.37.23,1.65.71,4.32,1,8.52.22,3.64.26,7.92.21,12.7-.14,14.6-.88,31.25-1.29,33.87h0C205.42,803.3,204,804.77,201.05,803Z"/><path class="cls-138" d="M201,802.44s-.89-5.27-1.64-13.06c-.39-4-.74-8.58-.93-13.49-.37-9-.31-19.07.91-26.94a22,22,0,0,1,1.62-6.19c2.09-4,4.33-.54,5.12,5.27.23,1.68.69,4.34.93,8.43.22,3.62.26,7.86.21,12.58-.14,14.68-.87,31.42-1.26,33.87h0C205.32,802.78,204,804.24,201,802.44Z"/><path class="cls-58" d="M201,801.93s-.86-5.21-1.6-12.91c-.38-3.92-.72-8.48-.91-13.33-.37-9.05-.32-19.09.91-26.93a22.31,22.31,0,0,1,1.61-6.19c2.07-4,4.21-.65,5,5.16.22,1.7.66,4.35.89,8.35.21,3.59.25,7.79.21,12.44-.13,14.78-.86,31.6-1.22,33.87h0C205.23,802.27,203.91,803.7,201,801.93Z"/><path class="cls-59" d="M201,801.43s-.83-5.16-1.55-12.77c-.37-3.87-.71-8.38-.89-13.16-.37-9.07-.33-19.11.9-26.93a22.76,22.76,0,0,1,1.61-6.19c2-4,4.1-.77,4.86,5,.22,1.73.63,4.36.86,8.26.2,3.58.23,7.73.2,12.31-.12,14.87-.86,31.78-1.19,33.88h0C205.13,801.76,203.84,803.17,201,801.43Z"/><path class="cls-60" d="M201,800.92s-.81-5.1-1.51-12.62c-.36-3.83-.69-8.28-.87-13-.38-9.07-.33-19.13.89-26.92a23.51,23.51,0,0,1,1.61-6.19c2-4.1,4-.88,4.72,4.94.23,1.76.62,4.38.83,8.18.19,3.55.23,7.66.2,12.18-.11,15-.85,32-1.15,33.87h0C205,801.24,203.78,802.63,201,800.92Z"/><path class="cls-61" d="M200.94,800.41s-.78-5-1.47-12.46c-.35-3.79-.67-8.19-.85-12.85-.38-9.08-.34-19.14.89-26.91a23.53,23.53,0,0,1,1.6-6.19c2-4.15,3.87-1,4.59,4.83.22,1.78.59,4.39.79,8.1.19,3.52.22,7.6.19,12-.1,15-.83,32.13-1.11,33.88h0C204.94,800.73,203.71,802.1,200.94,800.41Z"/><path class="cls-139" d="M200.92,799.9s-.76-5-1.43-12.31c-.33-3.74-.65-8.09-.84-12.69-.37-9.08-.33-19.16.89-26.9a24.53,24.53,0,0,1,1.6-6.2c2-4.18,3.76-1.1,4.46,4.73.22,1.81.56,4.4.75,8s.22,7.54.19,11.92c-.09,15.13-.83,32.3-1.07,33.87h0C204.85,800.22,203.64,801.56,200.92,799.9Z"/><path class="cls-63" d="M200.9,799.39s-.74-4.92-1.38-12.16c-.33-3.69-.64-8-.83-12.53-.37-9.09-.34-19.17.88-26.89a25.54,25.54,0,0,1,1.59-6.2c2-4.23,3.65-1.22,4.34,4.62.22,1.84.54,4.42.71,7.93s.21,7.47.19,11.78c-.08,15.22-.82,32.48-1,33.88h0C204.75,799.71,203.58,801,200.9,799.39Z"/><path class="cls-64" d="M200.87,798.89s-.7-4.87-1.33-12c-.32-3.64-.63-7.88-.81-12.37-.38-9.09-.35-19.19.88-26.88a26,26,0,0,1,1.58-6.2c1.92-4.27,3.54-1.33,4.21,4.51.21,1.86.51,4.43.67,7.84s.21,7.41.19,11.65c-.07,15.31-.81,32.66-1,33.88h0C204.66,799.19,203.51,800.49,200.87,798.89Z"/><path class="cls-65" d="M200.85,798.38s-.68-4.81-1.29-11.86c-.31-3.61-.61-7.79-.79-12.22-.38-9.1-.35-19.2.87-26.87a27,27,0,0,1,1.58-6.2c1.9-4.32,3.42-1.45,4.08,4.4.21,1.89.48,4.44.64,7.76s.19,7.34.18,11.52c-.06,15.4-.8,32.83-1,33.88h0C204.56,798.68,203.44,800,200.85,798.38Z"/><path class="cls-66" d="M200.83,797.87s-.65-4.75-1.25-11.71c-.3-3.56-.59-7.69-.77-12.06-.38-9.1-.36-19.22.86-26.86a27.54,27.54,0,0,1,1.58-6.2c1.87-4.37,3.31-1.56,3.95,4.29.2,1.92.45,4.46.6,7.68.15,3.4.19,7.27.17,11.38,0,15.49-.79,33-.92,33.89h0C204.47,798.17,203.38,799.42,200.83,797.87Z"/><path class="cls-66" d="M200.81,797.36s-.63-4.69-1.21-11.56c-.29-3.51-.57-7.59-.75-11.9-.38-9.11-.37-19.23.86-26.85a29.09,29.09,0,0,1,1.57-6.21c1.84-4.4,3.2-1.67,3.81,4.19.21,2,.44,4.47.57,7.59.14,3.38.19,7.21.17,11.25,0,15.58-.78,33.19-.89,33.89h0C204.37,797.65,203.31,798.89,200.81,797.36Z"/><path class="cls-67" d="M200.78,796.85s-.6-4.63-1.16-11.41c-.28-3.46-.55-7.49-.73-11.74-.39-9.11-.37-19.25.85-26.84a29.7,29.7,0,0,1,1.57-6.21c1.82-4.45,3.08-1.78,3.68,4.08.2,2,.41,4.48.53,7.51.14,3.35.18,7.14.17,11.12,0,15.66-.77,33.36-.85,33.89h0C204.28,797.14,203.24,798.35,200.78,796.85Z"/><path class="cls-68" d="M200.76,796.35s-.57-4.58-1.11-11.26c-.28-3.42-.55-7.4-.72-11.59-.39-9.11-.38-19.26.85-26.83a30.37,30.37,0,0,1,1.56-6.21c1.79-4.5,3-1.9,3.55,4,.2,2,.37,4.5.49,7.42.12,3.33.18,7.08.17,11,0,15.76-.76,33.54-.82,33.89h0C204.18,796.63,203.18,797.82,200.76,796.35Z"/><path class="cls-69" d="M200.74,795.84s-.55-4.52-1.07-11.11c-.27-3.38-.53-7.3-.7-11.43-.39-9.12-.38-19.28.84-26.82a30.37,30.37,0,0,1,1.56-6.21c1.75-4.54,2.85-2,3.42,3.86.19,2,.35,4.51.45,7.34.12,3.31.17,7,.17,10.86,0,15.84-.76,33.71-.78,33.89h0C204.09,796.11,203.11,797.28,200.74,795.84Z"/><path class="cls-70" d="M200.72,795.33s-1.2-10.21-1.71-22.23-.35-25.82,2.38-33c3.08-8.11,3.86,5.8,3.87,21.73s-.74,33.89-.74,33.89C204,795.6,203,796.75,200.72,795.33Z"/><path class="cls-140" d="M215.9,835a157,157,0,0,0,4.69-23,202.73,202.73,0,0,0,1.86-24.8,185.1,185.1,0,0,0-2-30.16c-.76-5-4.17-18.87-4.76-19-2.95-.61-8.81,13.24-11.6,36.42a100.76,100.76,0,0,0-2.14,22c0,8.09.43,18.93.54,38.53.66-.13,1.46.92,3.37,1.48S210.77,837.05,215.9,835Z"/><path class="cls-141" d="M215.71,738.24c-2.91-.74-8.73,13.09-11.49,36.1-.34,1.75-.63,3.36-.88,4.88a98.78,98.78,0,0,0-1.25,17c0,8.09.4,18.89.51,38.24.66-.12,1.44.91,3.34,1.47s4.9.61,10-1.48a155,155,0,0,0,4.65-22.79,201.14,201.14,0,0,0,1.85-24.57,184.73,184.73,0,0,0-2-30C219.66,752.12,216.3,738.39,215.71,738.24Z"/><path class="cls-141" d="M215.77,738.49c-2.87-.86-8.65,12.94-11.4,35.79-.33,1.73-.62,3.33-.86,4.84A98.26,98.26,0,0,0,202.26,796c0,8.11.38,18.87.48,38,.65-.12,1.43.9,3.31,1.45s4.85.61,9.88-1.46a155.54,155.54,0,0,0,4.6-22.58A199.56,199.56,0,0,0,222.36,787a181.85,181.85,0,0,0-2-29.75C219.67,752.27,216.35,738.67,215.77,738.49Z"/><path class="cls-142" d="M215.82,738.74c-2.83-1-8.56,12.8-11.29,35.48-.33,1.71-.62,3.3-.86,4.8a98.88,98.88,0,0,0-1.25,16.73c0,8.11.36,18.83.46,37.67.64-.12,1.42.89,3.28,1.43s4.8.61,9.78-1.45A153.11,153.11,0,0,0,220.5,811a200,200,0,0,0,1.82-24.1,181.51,181.51,0,0,0-1.91-29.56C219.67,752.42,216.4,739,215.82,738.74Z"/><path class="cls-143" d="M215.87,739c-2.78-1.09-8.48,12.65-11.19,35.16-.33,1.7-.61,3.28-.85,4.77a98.54,98.54,0,0,0-1.24,16.6c-.05,8.12.33,18.8.43,37.39.64-.12,1.41.88,3.24,1.42s4.77.59,9.7-1.44a153.7,153.7,0,0,0,4.51-22.15,198.25,198.25,0,0,0,1.81-23.87,181.13,181.13,0,0,0-1.88-29.36C219.68,752.57,216.46,739.22,215.87,739Z"/><path class="cls-144" d="M215.92,739.24c-2.73-1.2-8.39,12.5-11.08,34.85-.33,1.69-.61,3.25-.84,4.73a99.09,99.09,0,0,0-1.24,16.47c0,8.14.3,18.78.4,37.11.63-.12,1.4.87,3.21,1.4s4.72.59,9.6-1.42a151.34,151.34,0,0,0,4.46-21.94,194.79,194.79,0,0,0,1.8-23.63,180.75,180.75,0,0,0-1.83-29.17C219.69,752.72,216.51,739.5,215.92,739.24Z"/><path class="cls-145" d="M216,739.49c-2.67-1.3-8.3,12.36-11,34.53-.33,1.68-.6,3.23-.84,4.7a100.93,100.93,0,0,0-1.23,16.35c-.06,8.14.27,18.74.37,36.82.63-.12,1.38.86,3.18,1.39s4.68.58,9.51-1.42a149.89,149.89,0,0,0,4.41-21.72,193,193,0,0,0,1.79-23.4,179.23,179.23,0,0,0-1.8-29C219.69,752.88,216.57,739.78,216,739.49Z"/><path class="cls-146" d="M216,739.74c-2.62-1.4-8.22,12.21-10.87,34.22-.32,1.66-.59,3.2-.83,4.66a100.55,100.55,0,0,0-1.22,16.22c-.07,8.15.24,18.72.35,36.54.61-.12,1.36.86,3.14,1.37s4.63.58,9.41-1.4a149.53,149.53,0,0,0,4.37-21.5,192,192,0,0,0,1.77-23.18,178.74,178.74,0,0,0-1.75-28.77C219.7,753,216.62,740.06,216,739.74Z"/><path class="cls-147" d="M216.07,740c-2.57-1.49-8.13,12.06-10.76,33.9-.32,1.65-.59,3.18-.82,4.63a100.19,100.19,0,0,0-1.22,16.1c-.08,8.16.22,18.68.32,36.25.61-.11,1.35.85,3.11,1.36s4.58.57,9.32-1.4a148.08,148.08,0,0,0,4.32-21.28,192.46,192.46,0,0,0,1.76-22.94A178.43,178.43,0,0,0,220.38,758C219.7,753.18,216.68,740.35,216.07,740Z"/><path class="cls-148" d="M216.12,740.24c-2.52-1.58-8.05,11.92-10.66,33.59-.31,1.63-.58,3.15-.81,4.59a99.81,99.81,0,0,0-1.21,16c-.09,8.17.19,18.66.29,36,.6-.11,1.34.84,3.08,1.34s4.54.57,9.22-1.38a147.72,147.72,0,0,0,4.28-21.07,190.72,190.72,0,0,0,1.75-22.71,178.09,178.09,0,0,0-1.68-28.38C219.71,753.33,216.74,740.63,216.12,740.24Z"/><path class="cls-149" d="M216.17,740.49c-2.47-1.67-8,11.77-10.55,33.28-.31,1.62-.58,3.12-.81,4.55a100.65,100.65,0,0,0-1.2,15.85c-.1,8.17.16,18.62.26,35.68.6-.11,1.33.83,3,1.32s4.49.57,9.13-1.37A146.68,146.68,0,0,0,220.28,809,189.33,189.33,0,0,0,222,786.47a176.45,176.45,0,0,0-1.63-28.18C219.71,753.48,216.79,740.91,216.17,740.49Z"/><path class="cls-150" d="M216.22,740.74c-2.42-1.75-7.87,11.62-10.45,33-.3,1.61-.57,3.1-.79,4.52a100.27,100.27,0,0,0-1.2,15.72c-.11,8.19.13,18.6.23,35.4.59-.11,1.31.82,3,1.31s4.45.56,9-1.36a145.62,145.62,0,0,0,4.18-20.64A187.58,187.58,0,0,0,222,786.41a177.35,177.35,0,0,0-1.6-28C219.71,753.63,216.85,741.2,216.22,740.74Z"/><path class="cls-151" d="M216.27,741c-2.37-1.83-7.79,11.48-10.34,32.65-.3,1.59-.56,3.07-.79,4.48A99.92,99.92,0,0,0,204,793.71c-.12,8.2.1,18.57.2,35.12.58-.11,1.3.81,3,1.29s4.4.56,8.94-1.35a144.17,144.17,0,0,0,4.13-20.42,184.09,184.09,0,0,0,1.71-22,177,177,0,0,0-1.55-27.79C219.72,753.78,216.91,741.48,216.27,741Z"/><path class="cls-152" d="M216.32,741.24c-2.32-1.91-7.7,11.33-10.23,32.33-.31,1.58-.56,3-.78,4.45a100.81,100.81,0,0,0-1.2,15.47c-.12,8.2.08,18.54.18,34.83.58-.11,1.29.8,3,1.28s4.36.54,8.85-1.34a142.08,142.08,0,0,0,4.09-20.21,184.46,184.46,0,0,0,1.7-21.78,176.65,176.65,0,0,0-1.52-27.59C219.72,753.94,217,741.77,216.32,741.24Z"/><path class="cls-153" d="M216.38,741.49c-2.29-2-7.62,11.19-10.14,32-.3,1.56-.55,3-.77,4.41a101.76,101.76,0,0,0-1.19,15.34c-.13,8.22.05,18.51.15,34.55.57-.11,1.28.79,2.92,1.26s4.32.54,8.76-1.33a142.82,142.82,0,0,0,4-20,187.47,187.47,0,0,0,1.69-21.54,180.2,180.2,0,0,0-1.48-27.4C219.73,754.09,217,742.05,216.38,741.49Z"/><path class="cls-154" d="M216.43,741.74c-2.24-2-7.54,11-10,31.7-.3,1.56-.55,3-.77,4.38A102.81,102.81,0,0,0,204.45,793c-.14,8.22,0,18.48.12,34.26.57-.11,1.27.78,2.89,1.25s4.27.53,8.66-1.32a140.71,140.71,0,0,0,4-19.78,185.93,185.93,0,0,0,1.67-21.31,178.6,178.6,0,0,0-1.44-27.2C219.73,754.24,217.07,742.34,216.43,741.74Z"/><path class="cls-155" d="M216.48,742c-2.2-2.12-7.45,10.89-9.93,31.39-.29,1.54-.54,3-.75,4.34a101,101,0,0,0-1.18,15.09c-.15,8.24,0,18.45.09,34,.56-.1,1.25.77,2.86,1.23s4.23.53,8.57-1.3a140.73,140.73,0,0,0,3.94-19.57,184,184,0,0,0,1.67-21.08,178.35,178.35,0,0,0-1.4-27C219.74,754.39,217.13,742.62,216.48,742Z"/><path class="cls-156" d="M216.53,742.24c-2.16-2.19-7.36,10.75-9.82,31.08-.29,1.52-.54,2.94-.75,4.3a102.22,102.22,0,0,0-1.17,15c-.16,8.25,0,18.43.06,33.7.56-.1,1.24.76,2.83,1.21s4.18.53,8.47-1.29a138.22,138.22,0,0,0,3.9-19.35A180.42,180.42,0,0,0,221.7,786a176.75,176.75,0,0,0-1.36-26.81C219.74,754.54,217.18,742.91,216.53,742.24Z"/><path class="cls-157" d="M216.58,742.49c-2.12-2.26-7.28,10.6-9.72,30.76-.28,1.51-.53,2.92-.74,4.27A102,102,0,0,0,205,792.36c-.17,8.25-.06,18.39,0,33.41.55-.1,1.23.75,2.8,1.2s4.14.52,8.38-1.28A139.45,139.45,0,0,0,220,806.55a181.15,181.15,0,0,0,1.64-20.61,177.83,177.83,0,0,0-1.32-26.61C219.75,754.69,217.24,743.2,216.58,742.49Z"/><path class="cls-158" d="M216.63,742.74c-2.08-2.32-7.19,10.45-9.61,30.45-.28,1.5-.52,2.89-.73,4.23a101.68,101.68,0,0,0-1.16,14.71c-.18,8.27-.09,18.37,0,33.13.55-.1,1.22.74,2.77,1.18s4.09.52,8.28-1.27A136.91,136.91,0,0,0,220,806.25a184.37,184.37,0,0,0,1.63-20.38,178.92,178.92,0,0,0-1.28-26.41C219.75,754.84,217.29,743.49,216.63,742.74Z"/><path class="cls-159" d="M216.68,743c-2-2.38-7.1,10.31-9.5,30.13-.28,1.49-.52,2.87-.73,4.2a102.89,102.89,0,0,0-1.15,14.59c-.19,8.27-.12,18.33,0,32.84.54-.1,1.21.73,2.74,1.17s4,.51,8.19-1.26A135.88,135.88,0,0,0,220,806a182.87,182.87,0,0,0,1.61-20.14,176.08,176.08,0,0,0-1.24-26.22C219.76,755,217.35,743.77,216.68,743Z"/><path class="cls-160" d="M216.73,743.24c-2-2.45-7,10.16-9.4,29.82-.27,1.47-.51,2.84-.71,4.16a101,101,0,0,0-1.15,14.46c-.2,8.28-.14,18.31-.06,32.56.53-.1,1.19.72,2.71,1.15s4,.51,8.09-1.25a135.21,135.21,0,0,0,3.72-18.49,181.38,181.38,0,0,0,1.6-19.91,177.2,177.2,0,0,0-1.2-26C219.76,755.15,217.4,744.06,216.73,743.24Z"/><path class="cls-160" d="M216.78,743.49c-2-2.51-6.93,10-9.29,29.51-.27,1.45-.51,2.81-.71,4.12a102.39,102.39,0,0,0-1.15,14.33c-.2,8.3-.16,18.28-.08,32.28.53-.1,1.18.71,2.67,1.14s4,.49,8-1.24a133.89,133.89,0,0,0,3.66-18.27,177.85,177.85,0,0,0,1.59-19.68,175.72,175.72,0,0,0-1.16-25.83C219.77,755.3,217.45,744.35,216.78,743.49Z"/><path class="cls-161" d="M216.83,743.74c-1.93-2.57-6.85,9.87-9.19,29.19-.27,1.44-.5,2.79-.7,4.09a105.35,105.35,0,0,0-1.14,14.21c-.21,8.3-.19,18.25-.11,32,.52-.09,1.17.7,2.64,1.12s3.92.49,7.91-1.23a133.24,133.24,0,0,0,3.62-18.05,178.62,178.62,0,0,0,1.58-19.45A176.91,176.91,0,0,0,220.32,760C219.77,755.45,217.51,744.64,216.83,743.74Z"/><path class="cls-162" d="M216.88,744c-1.9-2.63-6.76,9.72-9.08,28.88-.27,1.43-.5,2.76-.69,4A103.42,103.42,0,0,0,206,791c-.22,8.31-.22,18.22-.14,31.71.52-.09,1.16.69,2.61,1.1s3.87.49,7.82-1.21a132.23,132.23,0,0,0,3.57-17.84,177.36,177.36,0,0,0,1.57-19.22,175.42,175.42,0,0,0-1.09-25.43C219.78,755.6,217.56,744.93,216.88,744Z"/><path class="cls-163" d="M216.93,744.24c-1.86-2.7-6.67,9.57-9,28.56-.26,1.42-.48,2.74-.68,4a105,105,0,0,0-1.13,14c-.23,8.32-.25,18.19-.17,31.43.51-.1,1.15.67,2.58,1.08s3.82.48,7.72-1.2a132,132,0,0,0,3.53-17.63,175.89,175.89,0,0,0,1.55-19,175.18,175.18,0,0,0-1-25.24C219.78,755.75,217.61,745.22,216.93,744.24Z"/><path class="cls-164" d="M217,744.49c-1.84-2.76-6.6,9.43-8.88,28.25-.26,1.4-.48,2.71-.68,4a104.77,104.77,0,0,0-1.12,13.83c-.24,8.33-.28,18.16-.2,31.15.51-.1,1.13.66,2.55,1.06s3.78.48,7.63-1.19a131.06,131.06,0,0,0,3.48-17.41,177,177,0,0,0,1.54-18.75,175.07,175.07,0,0,0-1-25C219.79,755.9,217.66,745.51,217,744.49Z"/><path class="cls-165" d="M217,744.74c-1.81-2.82-6.51,9.28-8.77,27.93-.26,1.39-.48,2.7-.67,4a104.77,104.77,0,0,0-1.12,13.7c-.25,8.34-.31,18.14-.23,30.87.5-.1,1.12.65,2.52,1s3.73.47,7.53-1.18a128.89,128.89,0,0,0,3.44-17.2,175.82,175.82,0,0,0,1.52-18.52,172,172,0,0,0-1-24.84C219.79,756.05,217.71,745.8,217,744.74Z"/><path class="cls-166" d="M217.09,745c-1.78-2.88-6.42,9.14-8.67,27.62-.25,1.37-.47,2.67-.66,3.91a104.53,104.53,0,0,0-1.11,13.58c-.26,8.35-.33,18.1-.26,30.58.5-.1,1.11.64,2.49,1s3.69.47,7.44-1.17a128.66,128.66,0,0,0,3.38-17,171.31,171.31,0,0,0,1.52-18.28,173.38,173.38,0,0,0-.92-24.65C219.8,756.21,217.76,746.09,217.09,745Z"/><path class="cls-167" d="M217.14,745.24c-1.75-2.94-6.34,9-8.56,27.31-.25,1.36-.47,2.64-.66,3.87a106.25,106.25,0,0,0-1.1,13.45c-.28,8.36-.36,18.08-.29,30.3.49-.1,1.1.63,2.46,1s3.64.46,7.34-1.16a126.48,126.48,0,0,0,3.34-16.77,172.54,172.54,0,0,0,1.51-18,173.37,173.37,0,0,0-.89-24.45C219.8,756.36,217.81,746.38,217.14,745.24Z"/><path class="cls-168" d="M217.19,745.49c-1.72-3-6.25,8.84-8.46,27-.24,1.35-.46,2.62-.64,3.83a104.81,104.81,0,0,0-1.1,13.34c-.29,8.37-.39,18-.32,30,.48-.1,1.09.62,2.43,1s3.6.45,7.25-1.15A127.11,127.11,0,0,0,219.64,803a171.1,171.1,0,0,0,1.49-17.82,173.19,173.19,0,0,0-.84-24.25C219.81,756.51,217.86,746.67,217.19,745.49Z"/><path class="cls-169" d="M217.24,745.74c-1.7-3.06-6.16,8.7-8.35,26.68-.24,1.33-.45,2.59-.64,3.79a106.49,106.49,0,0,0-1.09,13.21c-.3,8.38-.42,18-.35,29.73.48-.09,1.07.61,2.4,1s3.55.45,7.15-1.13a125.39,125.39,0,0,0,3.25-16.34,170,170,0,0,0,1.48-17.58,171.78,171.78,0,0,0-.81-24.06C219.82,756.66,217.91,747,217.24,745.74Z"/><path class="cls-170" d="M217.29,746c-1.67-3.12-6.08,8.55-8.25,26.36-.23,1.32-.44,2.57-.62,3.76a108.62,108.62,0,0,0-1.1,13.08c-.3,8.39-.44,18-.37,29.45.47-.09,1.06.6,2.36,1s3.51.44,7.07-1.13a126.12,126.12,0,0,0,3.2-16.12A168.54,168.54,0,0,0,221,785a171.58,171.58,0,0,0-.76-23.86C219.82,756.81,218,747.25,217.29,746Z"/><path class="cls-171" d="M217.34,746.24c-1.64-3.18-6,8.4-8.14,26-.24,1.3-.44,2.54-.62,3.72a108.5,108.5,0,0,0-1.09,13c-.31,8.4-.47,18-.4,29.16.47-.09,1,.59,2.33,1s3.47.44,7-1.11a123,123,0,0,0,3.15-15.91A166.92,166.92,0,0,0,221,784.94a171.64,171.64,0,0,0-.73-23.66C219.83,757,218,747.54,217.34,746.24Z"/><path class="cls-172" d="M217.39,746.49c-1.62-3.24-5.9,8.26-8,25.73-.23,1.3-.43,2.52-.61,3.69a108.59,108.59,0,0,0-1.08,12.83c-.32,8.41-.49,17.93-.43,28.88.46-.09,1,.58,2.3.94s3.42.43,6.88-1.11a121.63,121.63,0,0,0,3.1-15.69A165.57,165.57,0,0,0,221,784.88a171.7,171.7,0,0,0-.69-23.47C219.83,757.11,218.06,747.83,217.39,746.49Z"/><path class="cls-173" d="M217.44,746.74c-1.59-3.3-5.82,8.11-7.93,25.42-.23,1.28-.43,2.49-.6,3.65a106.55,106.55,0,0,0-1.08,12.71c-.33,8.41-.52,17.9-.46,28.59.46-.09,1,.57,2.27.92s3.38.43,6.78-1.09a122.06,122.06,0,0,0,3.06-15.48,164.17,164.17,0,0,0,1.43-16.65,171.66,171.66,0,0,0-.64-23.27C219.84,757.26,218.11,748.12,217.44,746.74Z"/><path class="cls-174" d="M217.49,747c-1.57-3.37-5.73,8-7.82,25.1-.23,1.26-.43,2.46-.6,3.61A111.07,111.07,0,0,0,208,788.29c-.35,8.43-.55,17.87-.49,28.31.45-.09,1,.56,2.24.91s3.33.42,6.69-1.08a121.14,121.14,0,0,0,3-15.27c.66-4.69,1.18-10.27,1.42-16.42a171.75,171.75,0,0,0-.61-23.07C219.84,757.41,218.15,748.41,217.49,747Z"/><path class="cls-175" d="M217.54,747.25c-1.54-3.44-5.65,7.81-7.72,24.78-.22,1.25-.41,2.44-.59,3.58a111.3,111.3,0,0,0-1.06,12.45c-.36,8.44-.58,17.85-.52,28,.45-.09,1,.55,2.21.89s3.28.42,6.59-1.07a120.68,120.68,0,0,0,3-15,161.73,161.73,0,0,0,1.4-16.18,170.2,170.2,0,0,0-.56-22.88C219.85,757.57,218.2,748.7,217.54,747.25Z"/><path class="cls-176" d="M217.6,747.5C216.07,744,212,755.16,210,772c-.22,1.24-.41,2.41-.58,3.54a109.15,109.15,0,0,0-1.06,12.33c-.37,8.44-.61,17.81-.55,27.74.44-.08,1,.54,2.18.88s3.24.41,6.5-1.06a119.83,119.83,0,0,0,2.92-14.83c.63-4.57,1.15-10,1.39-16a170.32,170.32,0,0,0-.53-22.68C219.85,757.72,218.25,749,217.6,747.5Z"/><path class="cls-177" d="M217.65,747.75c-1.5-3.56-5.48,7.51-7.52,24.15-.21,1.23-.4,2.39-.57,3.51a109.38,109.38,0,0,0-1.05,12.2c-.38,8.46-.64,17.79-.58,27.46.43-.08,1,.53,2.15.86s3.19.4,6.4-1a116.7,116.7,0,0,0,2.87-14.61c.63-4.5,1.14-9.84,1.39-15.73a170.4,170.4,0,0,0-.49-22.48C219.86,757.87,218.3,749.28,217.65,747.75Z"/><path class="cls-178" d="M217.7,748c-1.48-3.62-5.4,7.37-7.41,23.84-.21,1.21-.4,2.36-.56,3.47a112.1,112.1,0,0,0-1,12.08c-.39,8.46-.67,17.75-.61,27.17.43-.08,1,.52,2.12.84s3.15.4,6.31-1a118.13,118.13,0,0,0,2.82-14.4c.62-4.44,1.13-9.7,1.37-15.49a168.9,168.9,0,0,0-.45-22.29C219.87,758,218.34,749.57,217.7,748Z"/><path class="cls-179" d="M217.75,748.25c-1.46-3.68-5.31,7.22-7.31,23.52-.2,1.2-.39,2.34-.55,3.44a115.14,115.14,0,0,0-1,11.95c-.4,8.47-.68,17.73-.63,26.89.42-.08.95.51,2.08.83s3.11.39,6.22-1a115.37,115.37,0,0,0,2.78-14.18c.61-4.37,1.11-9.55,1.36-15.26a170.82,170.82,0,0,0-.41-22.09C219.87,758.17,218.39,749.86,217.75,748.25Z"/><path class="cls-180" d="M217.8,748.5c-1.44-3.75-5.22,7.07-7.2,23.21-.21,1.18-.39,2.31-.55,3.4a115.65,115.65,0,0,0-1,11.82c-.41,8.49-.71,17.7-.66,26.61.42-.08.94.5,2.05.81s3.06.39,6.13-1a116.93,116.93,0,0,0,2.73-14c.6-4.3,1.09-9.4,1.34-15a167.55,167.55,0,0,0-.37-21.9A93.89,93.89,0,0,0,217.8,748.5Z"/><path class="cls-181" d="M217.85,748.75c-1.41-3.81-5.14,6.93-7.09,22.9-.21,1.17-.38,2.28-.54,3.36a113.29,113.29,0,0,0-1,11.7c-.42,8.49-.74,17.66-.69,26.32.41-.08.93.49,2,.8s3,.38,6-1a114.69,114.69,0,0,0,2.69-13.75c.59-4.23,1.08-9.26,1.33-14.79a169.54,169.54,0,0,0-.33-21.7A94.28,94.28,0,0,0,217.85,748.75Z"/><path class="cls-181" d="M217.9,749c-1.39-3.87-5.05,6.78-7,22.58-.2,1.16-.37,2.26-.53,3.33-.58,4-.82,7.42-1,11.57-.44,8.51-.77,17.64-.72,26,.41-.08.92.48,2,.78s3,.38,5.94-1a115.38,115.38,0,0,0,2.63-13.54c.59-4.17,1.07-9.11,1.33-14.56a169.77,169.77,0,0,0-.29-21.5A93.32,93.32,0,0,0,217.9,749Z"/><path class="cls-182" d="M218,749.25c-1.37-3.94-5,6.64-6.88,22.27-.2,1.14-.37,2.23-.53,3.29-.57,3.92-.8,7.34-1,11.45-.45,8.51-.8,17.6-.75,25.75.4-.07.91.47,2,.77s2.93.37,5.84-1a113.05,113.05,0,0,0,2.59-13.33c.58-4.1,1.05-9,1.31-14.32a166.44,166.44,0,0,0-.25-21.31A94.15,94.15,0,0,0,218,749.25Z"/><path class="cls-183" d="M218,749.5c-1.35-4-4.88,6.49-6.78,22-.19,1.13-.36,2.21-.51,3.26-.57,3.87-.8,7.27-1,11.32-.46,8.52-.83,17.58-.78,25.47.4-.07.89.46,1.93.75s2.88.37,5.75-1a111.75,111.75,0,0,0,2.54-13.11c.57-4,1-8.82,1.3-14.09a168.57,168.57,0,0,0-.21-21.11A93.13,93.13,0,0,0,218,749.5Z"/><path class="cls-184" d="M218.05,749.75c-1.33-4.06-4.79,6.34-6.67,21.64-.19,1.11-.36,2.18-.51,3.22-.56,3.82-.79,7.19-1,11.19-.47,8.54-.85,17.55-.81,25.19.39-.07.88.45,1.9.73s2.84.37,5.65-1a112.64,112.64,0,0,0,2.5-12.9c.56-4,1-8.67,1.28-13.86a165.08,165.08,0,0,0-.17-20.91A92.28,92.28,0,0,0,218.05,749.75Z"/><path class="cls-185" d="M218.1,750c-1.31-4.13-4.7,6.2-6.57,21.33-.18,1.1-.35,2.15-.5,3.18-.54,3.78-.78,7.12-1,11.07-.49,8.54-.88,17.52-.84,24.9.38-.07.87.44,1.87.72s2.79.35,5.56-1a111.37,111.37,0,0,0,2.45-12.68c.55-3.9,1-8.53,1.27-13.62a167.45,167.45,0,0,0-.13-20.72A92.62,92.62,0,0,0,218.1,750Z"/><path class="cls-186" d="M218.15,750.25c-1.29-4.19-4.62,6-6.46,21-.18,1.09-.35,2.13-.49,3.15-.54,3.73-.78,7.05-1,10.94-.5,8.55-.91,17.49-.87,24.62.38-.07.86.43,1.84.7s2.74.35,5.46-.93A111.8,111.8,0,0,0,219,797.27c.54-3.83,1-8.38,1.26-13.39a167.91,167.91,0,0,0-.1-20.52A91.7,91.7,0,0,0,218.15,750.25Z"/><path class="cls-187" d="M218.21,750.5c-1.28-4.26-4.54,5.9-6.36,20.7-.18,1.07-.34,2.1-.49,3.11-.53,3.69-.77,7-1,10.82-.52,8.56-.94,17.46-.9,24.33.37-.07.85.42,1.8.69s2.71.34,5.38-.93A109.42,109.42,0,0,0,219,797c.54-3.77,1-8.24,1.25-13.16a166.23,166.23,0,0,0-.05-20.32A93.7,93.7,0,0,0,218.21,750.5Z"/><path class="cls-188" d="M218.26,750.75c-1.26-4.32-4.45,5.76-6.26,20.38-.17,1.06-.33,2.08-.47,3.08-.53,3.64-.76,6.9-1,10.69-.52,8.57-1,17.43-.92,24.05.37-.07.83.41,1.77.67s2.66.34,5.28-.91a109.93,109.93,0,0,0,2.31-12c.53-3.7,1-8.09,1.24-12.92a166.92,166.92,0,0,0,0-20.13A92.71,92.71,0,0,0,218.26,750.75Z"/><path class="cls-189" d="M218.31,751c-1.24-4.39-4.37,5.61-6.15,20.07-.18,1-.33,2-.47,3-.52,3.59-.75,6.82-1,10.56-.53,8.58-1,17.41-.95,23.77.36-.07.82.4,1.74.66s2.62.33,5.19-.91a109.4,109.4,0,0,0,2.26-11.82c.52-3.63.95-8,1.22-12.69a165.24,165.24,0,0,0,0-19.93A91.49,91.49,0,0,0,218.31,751Z"/><path class="cls-190" d="M218.36,751.25c-1.22-4.45-4.28,5.46-6.05,19.75-.17,1-.32,2-.46,3-.5,3.55-.74,6.75-1,10.44-.55,8.59-1,17.37-1,23.48.36-.06.81.39,1.71.64s2.57.33,5.09-.89a107.07,107.07,0,0,0,2.22-11.6c.51-3.58.93-7.81,1.21-12.47a165.75,165.75,0,0,0,.07-19.73A93.33,93.33,0,0,0,218.36,751.25Z"/><path class="cls-191" d="M218.41,751.5c-1.2-4.52-4.2,5.32-5.94,19.44-.17,1-.32,2-.45,3-.5,3.5-.74,6.67-1,10.31-.56,8.6-1,17.35-1,23.2.35-.06.8.38,1.68.62s2.52.33,5-.88a109.08,109.08,0,0,0,2.17-11.38c.5-3.51.92-7.66,1.19-12.23a162.25,162.25,0,0,0,.11-19.54A92.46,92.46,0,0,0,218.41,751.5Z"/><path class="cls-192" d="M218.46,751.75c-1.18-4.59-4.11,5.17-5.84,19.13-.16,1-.31,2-.44,2.93-.49,3.45-.73,6.6-1,10.19-.58,8.6-1.07,17.31-1,22.91.35-.06.79.37,1.65.61s2.48.32,4.91-.87a108.61,108.61,0,0,0,2.12-11.17c.49-3.44.9-7.52,1.18-12a164.92,164.92,0,0,0,.15-19.34A91.11,91.11,0,0,0,218.46,751.75Z"/><path class="cls-193" d="M218.51,752c-1.16-4.65-4,5-5.73,18.81-.16,1-.3,2-.44,2.9-.48,3.41-.72,6.53-1,10.06-.59,8.62-1.1,17.29-1.07,22.63.34-.06.77.36,1.62.59s2.43.32,4.81-.85a108.94,108.94,0,0,0,2.07-11c.49-3.37.9-7.37,1.18-11.77a163.41,163.41,0,0,0,.18-19.14A91.51,91.51,0,0,0,218.51,752Z"/><path class="cls-194" d="M218.56,752.25c-1.14-4.72-3.94,4.88-5.63,18.5-.15,1-.29,1.93-.42,2.86-.47,3.36-.72,6.45-1,9.93-.61,8.63-1.13,17.26-1.1,22.35.34-.06.76.35,1.59.58s2.39.3,4.72-.85a107.94,107.94,0,0,0,2-10.74c.47-3.31.88-7.23,1.16-11.53a164.18,164.18,0,0,0,.23-19A90.07,90.07,0,0,0,218.56,752.25Z"/><path class="cls-195" d="M218.61,752.5c-1.12-4.78-3.85,4.73-5.52,18.18-.15,1-.29,1.91-.42,2.83-.46,3.32-.71,6.38-.95,9.81-.62,8.63-1.16,17.23-1.13,22.06.33-.06.75.34,1.56.56s2.34.3,4.62-.83c0,0,1-4.08,2-10.53.46-3.24.87-7.08,1.15-11.3a162.67,162.67,0,0,0,.26-18.75A90.4,90.4,0,0,0,218.61,752.5Z"/><path class="cls-196" d="M218.66,752.75c-1.1-4.85-3.76,4.58-5.41,17.87-.15,1-.29,1.88-.41,2.79-.46,3.27-.71,6.3-1,9.68-.64,8.65-1.19,17.2-1.16,21.79.32-.07.74.32,1.52.54s2.31.29,4.54-.83c0,0,1-4,1.93-10.31.45-3.17.85-6.94,1.13-11.07a161.08,161.08,0,0,0,.31-18.55A90.53,90.53,0,0,0,218.66,752.75Z"/><path class="cls-197" d="M218.71,753c-1.08-4.92-3.68,4.44-5.31,17.55-.14.94-.28,1.86-.4,2.76-.45,3.22-.7,6.23-.95,9.56-.65,8.65-1.2,17.17-1.18,21.5.32-.06.73.31,1.49.52s2.26.29,4.44-.81c0,0,1-3.92,1.89-10.1.44-3.11.84-6.79,1.12-10.83a159.79,159.79,0,0,0,.34-18.36A87.45,87.45,0,0,0,218.71,753Z"/><path class="cls-198" d="M218.76,753.25c-1.06-5-3.59,4.29-5.2,17.24-.14.92-.28,1.83-.4,2.72-.43,3.18-.68,6.15-.94,9.43-.66,8.66-1.23,17.14-1.21,21.22.31-.06.71.3,1.46.5s2.21.29,4.35-.8c0,0,1-3.83,1.83-9.88.44-3,.83-6.64,1.12-10.6a162.94,162.94,0,0,0,.38-18.16A89.15,89.15,0,0,0,218.76,753.25Z"/><path class="cls-199" d="M218.82,753.5c-1-5-3.51,4.15-5.11,16.93-.14.91-.26,1.8-.38,2.68-.43,3.13-.68,6.08-.94,9.3-.68,8.68-1.26,17.12-1.24,20.94.31-.06.7.29,1.43.49s2.17.28,4.25-.79c0,0,.94-3.75,1.79-9.67.43-3,.81-6.5,1.1-10.36a161.57,161.57,0,0,0,.43-18A89.34,89.34,0,0,0,218.82,753.5Z"/><path class="cls-200" d="M218.87,753.75c-1-5.12-3.43,4-5,16.61-.14.9-.26,1.78-.38,2.65-.42,3.09-.67,6-.93,9.18-.7,8.68-1.29,17.08-1.27,20.65.3-.06.69.28,1.4.47s2.12.28,4.16-.78c0,0,.9-3.66,1.74-9.45.42-2.91.8-6.35,1.09-10.13a160.09,160.09,0,0,0,.46-17.77A87.93,87.93,0,0,0,218.87,753.75Z"/><path class="cls-201" d="M218.92,754c-1-5.19-3.34,3.85-4.9,16.3-.13.88-.25,1.75-.37,2.61-.41,3-.66,5.93-.92,9.05-.71,8.69-1.32,17.06-1.3,20.37.3-.06.68.27,1.37.46a5.44,5.44,0,0,0,4.06-.77s.88-3.59,1.7-9.24c.41-2.84.78-6.21,1.07-9.9a158.5,158.5,0,0,0,.51-17.57A89.66,89.66,0,0,0,218.92,754Z"/><path class="cls-202" d="M219,754.25c-1-5.25-3.25,3.71-4.79,16q-.19,1.31-.36,2.58c-.4,3-.66,5.86-.92,8.93-.73,8.7-1.35,17-1.33,20.08.29-.06.67.26,1.34.44a5.25,5.25,0,0,0,4-.76s.85-3.5,1.65-9c.4-2.77.77-6.06,1.06-9.66a159.84,159.84,0,0,0,.54-17.38A86.08,86.08,0,0,0,219,754.25Z"/><path class="cls-203" d="M219,754.5c-1-5.32-3.17,3.56-4.68,15.67-.13.85-.25,1.7-.36,2.54-.39,2.95-.65,5.78-.91,8.8-.75,8.71-1.38,17-1.36,19.8.29-.06.65.25,1.31.43a5.17,5.17,0,0,0,3.87-.75s.82-3.42,1.61-8.81c.39-2.71.75-5.91,1.05-9.43a161,161,0,0,0,.58-17.18A85.88,85.88,0,0,0,219,754.5Z"/><path class="cls-204" d="M219.07,754.75c-1-5.39-3.08,3.41-4.58,15.35-.12.85-.24,1.68-.35,2.51-.38,2.9-.64,5.71-.9,8.67-.77,8.72-1.4,17-1.39,19.52.28-.06.64.24,1.28.41a5,5,0,0,0,3.78-.73s.79-3.34,1.55-8.6c.39-2.64.75-5.77,1-9.2a154.3,154.3,0,0,0,.62-17A83.82,83.82,0,0,0,219.07,754.75Z"/><path class="cls-205" d="M219.12,755c-.94-5.46-3,3.27-4.47,15-.12.83-.23,1.65-.34,2.47-.38,2.86-.64,5.63-.9,8.55-.79,8.73-1.43,16.94-1.42,19.23.27,0,.63.23,1.24.4a4.87,4.87,0,0,0,3.69-.73s.76-3.26,1.51-8.37c.38-2.58.73-5.63,1-9a158.25,158.25,0,0,0,.66-16.79A83.49,83.49,0,0,0,219.12,755Z"/><path class="cls-206" d="M219.17,755.25c-.93-5.53-2.91,3.12-4.37,14.73l-.33,2.43c-.37,2.81-.63,5.56-.9,8.42-.8,8.74-1.45,16.91-1.44,18.95.27,0,.62.22,1.21.38a4.7,4.7,0,0,0,3.6-.71s.73-3.18,1.46-8.16c.37-2.52.72-5.49,1-8.74a154.08,154.08,0,0,0,.7-16.59A81.48,81.48,0,0,0,219.17,755.25Z"/><path class="cls-207" d="M219.22,755.5c-.91-5.6-2.82,3-4.26,14.41-.11.8-.22,1.6-.32,2.4-.36,2.76-.63,5.48-.9,8.3-.82,8.74-1.48,16.88-1.47,18.66.26,0,.61.21,1.18.36a4.49,4.49,0,0,0,3.5-.7s.7-3.09,1.42-7.94c.36-2.45.71-5.34,1-8.51a155.27,155.27,0,0,0,.74-16.39A81,81,0,0,0,219.22,755.5Z"/><path class="cls-208" d="M219.27,755.75c-.89-5.66-2.74,2.83-4.16,14.1-.11.78-.21,1.57-.31,2.36-.35,2.72-.62,5.41-.89,8.17-.84,8.76-1.51,16.85-1.5,18.38.26,0,.59.2,1.15.35a4.39,4.39,0,0,0,3.41-.69s.67-3,1.37-7.73c.35-2.38.69-5.19,1-8.27a156.79,156.79,0,0,0,.78-16.2A80.63,80.63,0,0,0,219.27,755.75Z"/><path class="cls-209" d="M219.32,756c-.87-5.73-2.65,2.68-4,13.78-.11.78-.21,1.55-.31,2.32-.34,2.68-.61,5.35-.88,8-.86,8.77-1.54,16.83-1.53,18.1.25,0,.58.19,1.12.33a4.18,4.18,0,0,0,3.31-.68s.65-2.92,1.32-7.51c.35-2.31.69-5,1-8a150.1,150.1,0,0,0,.82-16A78.39,78.39,0,0,0,219.32,756Z"/><path class="cls-210" d="M219.38,756.25c-.86-5.8-2.57,2.53-3.95,13.47q-.17,1.14-.3,2.28c-.34,2.63-.61,5.27-.88,7.93-.88,8.77-1.56,16.79-1.56,17.81.25,0,.57.18,1.09.32a4.08,4.08,0,0,0,3.22-.67s.61-2.85,1.27-7.3c.34-2.25.67-4.9,1-7.81a154,154,0,0,0,.86-15.8A79.55,79.55,0,0,0,219.38,756.25Z"/><path class="cls-211" d="M219.43,756.5c-.85-5.87-2.49,2.39-3.85,13.16-.1.74-.19,1.49-.29,2.24-.32,2.59-.6,5.2-.87,7.8-.9,8.78-1.59,16.77-1.59,17.53.24-.05.56.17,1.06.3a3.87,3.87,0,0,0,3.12-.66s.59-2.76,1.23-7.08c.33-2.18.66-4.76.95-7.57a144.88,144.88,0,0,0,.9-15.61A77.1,77.1,0,0,0,219.43,756.5Z"/><path class="cls-212" d="M219.48,756.75c-.83-5.94-2.4,2.24-3.74,12.84-.1.73-.19,1.47-.29,2.21-.31,2.54-.59,5.12-.86,7.68-.92,8.79-1.62,16.73-1.62,17.24.24,0,.55.16,1,.29a3.86,3.86,0,0,0,3-.65s.55-2.68,1.18-6.87c.32-2.11.65-4.61.94-7.34a146,146,0,0,0,.94-15.41A74.45,74.45,0,0,0,219.48,756.75Z"/><path class="cls-213" d="M219.53,757c-.82-6-2.31,2.1-3.64,12.53-.09.71-.18,1.44-.27,2.17-.31,2.5-.6,5-.86,7.55-1,8.8-1.65,16.71-1.65,17,.23,0,.53.15,1,.27a3.67,3.67,0,0,0,2.93-.63s.53-2.6,1.14-6.66c.31-2.05.63-4.46.93-7.11a144.65,144.65,0,0,0,1-15.21A73.59,73.59,0,0,0,219.53,757Z"/><path class="cls-214" d="M217.06,795.33s1.12-5.7,2-13.31,1.51-17.13.52-24.77c-.85-6.5-2.43,3.12-3.8,14.35s-2.53,24.1-2.53,24.1C213.78,795.6,214.73,796.75,217.06,795.33Z"/></g><g id="Pink_Detail" data-name="Pink Detail"><ellipse class="cls-215" cx="206.85" cy="819.61" rx="0.58" ry="0.71"/><ellipse class="cls-215" cx="211.49" cy="823.96" rx="0.58" ry="0.52"/><ellipse class="cls-215" cx="206.56" cy="825.34" rx="0.58" ry="0.52"/><ellipse class="cls-215" cx="215.66" cy="788.88" rx="0.58" ry="0.52"/><ellipse class="cls-215" cx="207.55" cy="798.51" rx="0.58" ry="0.52"/><ellipse class="cls-215" cx="211.02" cy="799.21" rx="0.58" ry="0.52"/><ellipse class="cls-215" cx="219.72" cy="773.75" rx="0.58" ry="0.52"/><ellipse class="cls-215" cx="218.32" cy="778.57" rx="0.58" ry="0.52"/><ellipse class="cls-215" cx="214.27" cy="786.82" rx="0.58" ry="0.52"/><ellipse class="cls-215" cx="219.38" cy="786.82" rx="0.58" ry="0.52"/><ellipse class="cls-215" cx="214.74" cy="798.51" rx="0.58" ry="0.52"/><ellipse class="cls-215" cx="210.09" cy="803.05" rx="0.58" ry="0.52"/><ellipse class="cls-215" cx="203.71" cy="809.11" rx="0.58" ry="0.52"/><ellipse class="cls-215" cx="200.81" cy="802" rx="0.58" ry="0.52"/><ellipse class="cls-215" cx="201.27" cy="803.91" rx="0.58" ry="0.52"/><ellipse class="cls-215" cx="203.02" cy="801.91" rx="0.58" ry="0.52"/><ellipse class="cls-215" cx="208.7" cy="784.2" rx="0.58" ry="0.52"/><ellipse class="cls-215" cx="198.24" cy="810.66" rx="0.58" ry="0.52"/><ellipse class="cls-215" cx="199.42" cy="817.49" rx="0.58" ry="0.52"/><ellipse class="cls-215" cx="204.53" cy="806.54" rx="0.58" ry="0.52"/><ellipse class="cls-215" cx="218.45" cy="813.09" rx="0.58" ry="0.52"/><ellipse class="cls-215" cx="218.45" cy="813.09" rx="0.58" ry="0.52"/><ellipse class="cls-215" cx="208.7" cy="817.22" rx="0.58" ry="0.52"/><ellipse class="cls-215" cx="213.34" cy="798.92" rx="0.58" ry="0.52"/><ellipse class="cls-215" cx="213.34" cy="816.81" rx="0.58" ry="0.52"/><ellipse class="cls-215" cx="199.42" cy="794.13" rx="0.58" ry="0.52"/><ellipse class="cls-215" cx="204.06" cy="786.68" rx="0.58" ry="0.52"/><ellipse class="cls-215" cx="208.7" cy="778.02" rx="0.58" ry="0.52"/><ellipse class="cls-215" cx="204.06" cy="773.89" rx="0.58" ry="0.52"/><ellipse class="cls-215" cx="199.42" cy="780.52" rx="0.58" ry="0.52"/><ellipse class="cls-215" cx="199.42" cy="767.29" rx="0.58" ry="0.52"/><ellipse class="cls-215" cx="197.1" cy="791.6" rx="0.58" ry="0.52"/><ellipse class="cls-215" cx="202.33" cy="790.01" rx="0.58" ry="0.52"/><ellipse class="cls-215" cx="213.93" cy="790.54" rx="0.58" ry="0.52"/><ellipse class="cls-215" cx="216.59" cy="787.64" rx="0.58" ry="0.52"/><ellipse class="cls-215" cx="214.6" cy="781.45" rx="0.58" ry="0.52"/><ellipse class="cls-215" cx="210.56" cy="809.52" rx="0.58" ry="0.52"/><ellipse class="cls-215" cx="219.84" cy="798.51" rx="0.58" ry="0.52"/><ellipse class="cls-215" cx="217.87" cy="771.69" rx="0.58" ry="0.52"/><ellipse class="cls-215" cx="209.17" cy="756.98" rx="0.58" ry="0.52"/><ellipse class="cls-215" cx="212.42" cy="748.74" rx="0.58" ry="0.52"/><ellipse class="cls-215" cx="201.28" cy="761.11" rx="0.58" ry="0.52"/><ellipse class="cls-215" cx="214.27" cy="768.94" rx="0.58" ry="0.52"/><ellipse class="cls-215" cx="219.84" cy="760.7" rx="0.58" ry="0.52"/><ellipse class="cls-215" cx="200.81" cy="746.68" rx="0.58" ry="0.52"/><ellipse class="cls-215" cx="207.77" cy="733.48" rx="0.58" ry="0.52"/></g></svg>